# MagicaVoxel @ Ephtracy

# group
o 

# material
mtllib chapter_six_tile.mtl
usemtl palette

# normals
vn -1 0 0
vn 1 0 0
vn 0 0 1
vn 0 0 -1
vn 0 -1 0
vn 0 1 0

# texcoords
vt 0.263672 0.5
vt 0.517578 0.5
vt 0.541016 0.5
vt 0.552734 0.5
vt 0.556641 0.5
vt 0.615234 0.5
vt 0.650391 0.5
vt 0.654297 0.5
vt 0.677734 0.5
vt 0.705078 0.5
vt 0.958984 0.5
vt 0.962891 0.5
vt 0.982422 0.5
vt 0.990234 0.5

# verts
v -1.9 0.3 1.8
v -1.9 0.3 0.8
v -1.9 0.3 0.5
v -1.9 0.3 -0.5
v -1.9 0.3 -0.8
v -1.9 0.3 -1.8
v -1.9 0.5 1.8
v -1.9 0.5 0.8
v -1.9 0.5 0.5
v -1.9 0.5 -0.5
v -1.9 0.5 -0.8
v -1.9 0.5 -1.8
v -1.8 0.3 1.9
v -1.8 0.3 1.8
v -1.8 0.3 0.8
v -1.8 0.3 0.7
v -1.8 0.3 0.6
v -1.8 0.3 0.5
v -1.8 0.3 -0.5
v -1.8 0.3 -0.6
v -1.8 0.3 -0.7
v -1.8 0.3 -0.8
v -1.8 0.3 -1.8
v -1.8 0.3 -1.9
v -1.8 0.5 1.9
v -1.8 0.5 1.8
v -1.8 0.5 0.8
v -1.8 0.5 0.7
v -1.8 0.5 0.6
v -1.8 0.5 0.5
v -1.8 0.5 -0.5
v -1.8 0.5 -0.6
v -1.8 0.5 -0.7
v -1.8 0.5 -0.8
v -1.8 0.5 -1.8
v -1.8 0.5 -1.9
v -1.8 0.6 1.8
v -1.8 0.6 0.7
v -1.8 0.6 -1.3
v -1.8 0.6 -1.4
v -1.8 0.6 -1.5
v -1.8 0.6 -1.6
v -1.8 0.7 -1.3
v -1.8 0.7 -1.4
v -1.8 0.7 -1.5
v -1.8 0.7 -1.6
v -1.8 0.9 1.8
v -1.8 0.9 1.7
v -1.8 1 1.8
v -1.8 1 1.7
v -1.8 1.5 1.8
v -1.8 1.5 0.7
v -1.7 0.5 1.7
v -1.7 0.5 1.4
v -1.7 0.5 1.1
v -1.7 0.5 0.8
v -1.7 0.5 -1.3
v -1.7 0.5 -1.6
v -1.7 0.6 1.7
v -1.7 0.6 1.4
v -1.7 0.6 1.1
v -1.7 0.6 0.8
v -1.7 0.6 -1.2
v -1.7 0.6 -1.3
v -1.7 0.6 -1.4
v -1.7 0.6 -1.5
v -1.7 0.6 -1.6
v -1.7 0.6 -1.7
v -1.7 0.7 -1.2
v -1.7 0.7 -1.3
v -1.7 0.7 -1.4
v -1.7 0.7 -1.5
v -1.7 0.7 -1.6
v -1.7 0.7 -1.7
v -1.7 0.8 -1.3
v -1.7 0.8 -1.5
v -1.7 1 -1.3
v -1.7 1 -1.4
v -1.7 1 -1.5
v -1.7 1 -1.6
v -1.7 1.1 -1.4
v -1.7 1.1 -1.5
v -1.6 0.5 -1.2
v -1.6 0.5 -1.3
v -1.6 0.5 -1.6
v -1.6 0.5 -1.7
v -1.6 0.6 -1.1
v -1.6 0.6 -1.2
v -1.6 0.6 -1.3
v -1.6 0.6 -1.6
v -1.6 0.6 -1.7
v -1.6 0.6 -1.8
v -1.6 0.7 -1.1
v -1.6 0.7 -1.2
v -1.6 0.7 -1.3
v -1.6 0.7 -1.6
v -1.6 0.7 -1.7
v -1.6 0.7 -1.8
v -1.6 0.8 -1.3
v -1.6 1 -1.2
v -1.6 1 -1.3
v -1.6 1 -1.4
v -1.6 1 -1.5
v -1.6 1 -1.6
v -1.6 1 -1.7
v -1.6 1.1 -1.4
v -1.6 1.1 -1.5
v -1.6 1.2 -1.3
v -1.6 1.2 -1.6
v -1.5 0.6 0.7
v -1.5 0.6 0.4
v -1.5 0.8 0.7
v -1.5 0.8 0.5
v -1.5 0.8 0.4
v -1.5 0.9 1.9
v -1.5 0.9 1.8
v -1.5 1 1.8
v -1.5 1 -1.2
v -1.5 1 -1.3
v -1.5 1 -1.6
v -1.5 1 -1.7
v -1.5 1.1 1.9
v -1.5 1.1 1.8
v -1.5 1.1 0.7
v -1.5 1.1 0.5
v -1.5 1.1 -1.2
v -1.5 1.1 -1.3
v -1.5 1.1 -1.6
v -1.5 1.1 -1.7
v -1.5 1.2 0.7
v -1.5 1.2 0.5
v -1.5 1.5 1.8
v -1.5 1.5 1.5
v -1.5 1.5 1.4
v -1.5 1.5 1.1
v -1.5 1.5 1
v -1.5 1.5 0.7
v -1.5 1.5 0.5
v -1.5 1.7 1.4
v -1.5 1.7 1.1
v -1.5 1.7 1
v -1.5 1.7 0.7
v -1.5 1.8 1.8
v -1.5 1.8 1.5
v -1.3 0.6 -1.2
v -1.3 0.6 -1.3
v -1.3 0.6 -1.6
v -1.3 0.6 -1.7
v -1.3 0.7 -1.2
v -1.3 0.7 -1.3
v -1.3 0.7 -1.6
v -1.3 0.7 -1.7
v -1.1 0.5 1.7
v -1.1 0.5 1.4
v -1.1 0.5 1.1
v -1.1 0.5 0.8
v -1.1 0.6 1.7
v -1.1 0.6 1.4
v -1.1 0.6 1.1
v -1.1 0.6 0.8
v -0.6 0.3 1.8
v -0.6 0.3 0.8
v -0.6 0.3 0.5
v -0.6 0.3 -0.5
v -0.6 0.3 -0.8
v -0.6 0.3 -1.8
v -0.6 0.5 1.8
v -0.6 0.5 0.8
v -0.6 0.5 0.5
v -0.6 0.5 -0.5
v -0.6 0.5 -0.8
v -0.6 0.5 -1.8
v -0.5 0.3 1.9
v -0.5 0.3 1.8
v -0.5 0.3 0.8
v -0.5 0.3 0.7
v -0.5 0.3 0.6
v -0.5 0.3 0.5
v -0.5 0.3 -0.5
v -0.5 0.3 -0.6
v -0.5 0.3 -0.7
v -0.5 0.3 -0.8
v -0.5 0.3 -1.8
v -0.5 0.3 -1.9
v -0.5 0.5 1.9
v -0.5 0.5 1.8
v -0.5 0.5 0.8
v -0.5 0.5 0.7
v -0.5 0.5 0.6
v -0.5 0.5 0.5
v -0.5 0.5 -0.5
v -0.5 0.5 -0.6
v -0.5 0.5 -0.7
v -0.5 0.5 -0.8
v -0.5 0.5 -1.8
v -0.5 0.5 -1.9
v 0.1 0.5 -0.8
v 0.1 0.5 -0.9
v 0.1 0.6 -0.8
v 0.1 0.6 -0.9
v 0.2 0.5 -0.7
v 0.2 0.5 -0.8
v 0.2 0.5 -0.9
v 0.2 0.5 -1
v 0.2 0.5 -1.6
v 0.2 0.6 -0.7
v 0.2 0.6 -0.8
v 0.2 0.6 -0.9
v 0.2 0.6 -1
v 0.2 0.6 -1.6
v 0.3 0.6 -0.8
v 0.3 0.6 -1
v 0.3 0.6 -1.6
v 0.3 0.7 -0.8
v 0.3 0.7 -1
v 0.3 0.7 -1.6
v 0.4 0.5 -1.6
v 0.4 0.5 -1.8
v 0.4 0.7 -0.8
v 0.4 0.7 -1
v 0.4 0.7 -1.1
v 0.4 0.7 -1.5
v 0.4 0.7 -1.6
v 0.4 0.7 -1.8
v 0.4 0.8 -0.8
v 0.4 0.8 -1.1
v 0.4 0.8 -1.5
v 0.7 0.3 1.8
v 0.7 0.3 0.8
v 0.7 0.3 0.5
v 0.7 0.3 -0.5
v 0.7 0.3 -0.8
v 0.7 0.3 -1.8
v 0.7 0.5 1.8
v 0.7 0.5 0.8
v 0.7 0.5 0.5
v 0.7 0.5 -0.5
v 0.7 0.7 -0.8
v 0.7 0.7 -1.2
v 0.7 0.8 -0.8
v 0.7 0.8 -1.2
v 0.7 0.8 -1.8
v 0.8 0.3 1.9
v 0.8 0.3 1.8
v 0.8 0.3 0.8
v 0.8 0.3 0.7
v 0.8 0.3 0.6
v 0.8 0.3 0.5
v 0.8 0.3 -0.5
v 0.8 0.3 -0.6
v 0.8 0.3 -0.7
v 0.8 0.3 -0.8
v 0.8 0.3 -1.8
v 0.8 0.3 -1.9
v 0.8 0.5 1.9
v 0.8 0.5 1.8
v 0.8 0.5 1.6
v 0.8 0.5 1.3
v 0.8 0.5 0.8
v 0.8 0.5 0.7
v 0.8 0.5 0.6
v 0.8 0.5 0.5
v 0.8 0.5 -0.5
v 0.8 0.5 -0.6
v 0.8 0.6 1.6
v 0.8 0.6 1.5
v 0.8 0.6 1.4
v 0.8 0.6 1.3
v 0.8 0.7 1.5
v 0.8 0.7 1.4
v 0.8 0.7 -0.7
v 0.8 0.7 -0.8
v 0.8 0.8 -0.7
v 0.8 0.8 -0.8
v 0.8 0.8 -1
v 0.8 0.8 -1.2
v 0.8 0.8 -1.3
v 0.8 0.8 -1.8
v 0.8 0.8 -1.9
v 0.8 0.9 -1
v 0.8 0.9 -1.3
v 0.9 0.6 1.6
v 0.9 0.6 1.5
v 0.9 0.6 1.4
v 0.9 0.6 1.3
v 0.9 0.7 1.6
v 0.9 0.7 1.5
v 0.9 0.7 1.4
v 0.9 0.7 1.3
v 0.9 0.8 -1.3
v 0.9 0.8 -1.4
v 0.9 0.9 -1.1
v 0.9 0.9 -1.3
v 0.9 1.1 -1.1
v 0.9 1.1 -1.4
v 1 0.8 -1.4
v 1 0.8 -1.9
v 1 1 -1.4
v 1 1 -1.5
v 1 1 -1.9
v 1 1.1 -1.3
v 1 1.1 -1.4
v 1 1.2 -1.3
v 1 1.2 -1.5
v 1.1 1 -1.5
v 1.1 1 -1.9
v 1.1 1.1 -1.2
v 1.1 1.1 -1.3
v 1.1 1.2 -1.2
v 1.1 1.2 -1.3
v 1.1 1.2 -1.5
v 1.1 1.2 -1.6
v 1.1 1.2 -1.9
v 1.1 1.4 -1.3
v 1.1 1.4 -1.6
v 1.2 0.5 1.7
v 1.2 0.5 1.6
v 1.2 0.5 1.3
v 1.2 0.5 1.2
v 1.2 0.7 1.7
v 1.2 0.7 1.6
v 1.2 0.7 1.3
v 1.2 0.7 1.2
v 1.2 0.8 1.6
v 1.2 0.8 1.3
v 1.2 1.2 -1.6
v 1.2 1.2 -1.9
v 1.2 1.4 -1.4
v 1.2 1.4 -1.6
v 1.2 1.4 -1.9
v 1.2 1.5 -1.4
v 1.2 1.5 -1.6
v 1.3 1.4 -1.6
v 1.3 1.4 -1.8
v 1.3 1.5 -1.6
v 1.3 1.5 -1.8
v 1.4 0.5 1.7
v 1.4 0.5 1.6
v 1.4 0.5 1.3
v 1.4 0.5 1.2
v 1.4 0.7 1.7
v 1.4 0.7 1.6
v 1.4 0.7 1.3
v 1.4 0.7 1.2
v 1.4 0.8 1.6
v 1.4 0.8 1.3
v 1.4 1.4 -1.8
v 1.4 1.4 -1.9
v 1.4 1.5 -1.4
v 1.4 1.5 -1.8
v 1.4 1.5 -1.9
v 1.4 1.6 -1.4
v 1.4 1.6 -1.8
v 1.5 1.3 -1.2
v 1.5 1.3 -1.3
v 1.5 1.4 -1.2
v 1.5 1.4 -1.3
v 1.5 1.4 -1.4
v 1.5 1.5 -1.3
v 1.5 1.5 -1.4
v 1.6 0.5 1.6
v 1.6 0.5 1.5
v 1.6 0.5 1.4
v 1.6 0.5 1.3
v 1.6 0.6 1.5
v 1.6 0.6 1.4
v 1.6 0.7 1.6
v 1.6 0.7 1.3
v 1.6 0.8 -1
v 1.6 0.8 -1.1
v 1.6 1 -1.1
v 1.6 1 -1.2
v 1.6 1.1 -1
v 1.6 1.1 -1.1
v 1.6 1.2 -1.2
v 1.6 1.2 -1.3
v 1.6 1.3 -1.1
v 1.6 1.3 -1.2
v 1.6 1.3 -1.3
v 1.7 0.5 1.5
v 1.7 0.5 1.4
v 1.7 0.6 1.5
v 1.7 0.6 1.4
v 1.7 1.5 -1.5
v 1.7 1.5 -1.7
v 1.7 1.6 -1.5
v 1.7 1.6 -1.7
v -1.7 0.6 -1.3
v -1.7 0.6 -1.4
v -1.7 0.6 -1.5
v -1.7 0.6 -1.6
v -1.7 0.7 -1.3
v -1.7 0.7 -1.4
v -1.7 0.7 -1.5
v -1.7 0.7 -1.6
v -1.6 0.6 -1.2
v -1.6 0.6 -1.3
v -1.6 0.6 -1.6
v -1.6 0.6 -1.7
v -1.6 0.7 -1.2
v -1.6 0.7 -1.3
v -1.6 0.7 -1.6
v -1.6 0.7 -1.7
v -1.5 0.5 1.7
v -1.5 0.5 1.4
v -1.5 0.5 1.1
v -1.5 0.5 0.8
v -1.5 0.6 1.7
v -1.5 0.6 1.4
v -1.5 0.6 1.1
v -1.5 0.6 0.8
v -1.4 1 -1.2
v -1.4 1 -1.3
v -1.4 1 -1.6
v -1.4 1 -1.7
v -1.4 1.1 -1.2
v -1.4 1.1 -1.3
v -1.4 1.1 -1.6
v -1.4 1.1 -1.7
v -1.3 0.5 -1.2
v -1.3 0.5 -1.3
v -1.3 0.5 -1.6
v -1.3 0.5 -1.7
v -1.3 0.6 -1.1
v -1.3 0.6 -1.2
v -1.3 0.6 -1.3
v -1.3 0.6 -1.6
v -1.3 0.6 -1.7
v -1.3 0.6 -1.8
v -1.3 0.7 -1.1
v -1.3 0.7 -1.2
v -1.3 0.7 -1.3
v -1.3 0.7 -1.6
v -1.3 0.7 -1.7
v -1.3 0.7 -1.8
v -1.3 0.8 -1.6
v -1.3 0.8 -1.7
v -1.3 0.9 -1.2
v -1.3 0.9 -1.3
v -1.3 0.9 -1.6
v -1.3 0.9 -1.7
v -1.3 1 -1.2
v -1.3 1 -1.3
v -1.3 1 -1.4
v -1.3 1 -1.5
v -1.3 1 -1.6
v -1.3 1 -1.7
v -1.3 1.1 -1.4
v -1.3 1.1 -1.5
v -1.3 1.2 -1.3
v -1.3 1.2 -1.5
v -1.3 1.2 -1.6
v -1.2 0.5 -1.3
v -1.2 0.5 -1.5
v -1.2 0.5 -1.6
v -1.2 0.6 -1.2
v -1.2 0.6 -1.3
v -1.2 0.6 -1.4
v -1.2 0.6 -1.5
v -1.2 0.6 -1.6
v -1.2 0.6 -1.7
v -1.2 0.7 -1.2
v -1.2 0.7 -1.3
v -1.2 0.7 -1.4
v -1.2 0.7 -1.5
v -1.2 0.7 -1.6
v -1.2 0.7 -1.7
v -1.2 1 -1.3
v -1.2 1 -1.4
v -1.2 1 -1.5
v -1.2 1 -1.6
v -1.2 1.1 -1.4
v -1.2 1.1 -1.5
v -1.1 0.6 0.7
v -1.1 0.6 0.4
v -1.1 0.6 -1.3
v -1.1 0.6 -1.4
v -1.1 0.6 -1.5
v -1.1 0.6 -1.6
v -1.1 0.7 -1.3
v -1.1 0.7 -1.4
v -1.1 0.7 -1.5
v -1.1 0.7 -1.6
v -1.1 0.8 0.7
v -1.1 0.8 0.5
v -1.1 0.8 0.4
v -1.1 0.9 1.9
v -1.1 0.9 1.8
v -1.1 1 1.8
v -1.1 1.1 1.9
v -1.1 1.1 1.8
v -1.1 1.1 0.7
v -1.1 1.1 0.5
v -1.1 1.2 0.7
v -1.1 1.2 0.5
v -1.1 1.5 1.8
v -1.1 1.5 1.5
v -1.1 1.5 1.4
v -1.1 1.5 1.1
v -1.1 1.5 1
v -1.1 1.5 0.7
v -1.1 1.5 0.5
v -1.1 1.7 1.4
v -1.1 1.7 1.1
v -1.1 1.7 1
v -1.1 1.7 0.7
v -1.1 1.8 1.8
v -1.1 1.8 1.5
v -0.9 0.5 1.7
v -0.9 0.5 1.4
v -0.9 0.5 1.1
v -0.9 0.5 0.8
v -0.9 0.6 1.7
v -0.9 0.6 1.4
v -0.9 0.6 1.1
v -0.9 0.6 0.8
v -0.8 0.3 1.9
v -0.8 0.3 1.8
v -0.8 0.3 0.8
v -0.8 0.3 0.7
v -0.8 0.3 0.6
v -0.8 0.3 0.5
v -0.8 0.3 -0.5
v -0.8 0.3 -0.6
v -0.8 0.3 -0.7
v -0.8 0.3 -0.8
v -0.8 0.3 -1.8
v -0.8 0.3 -1.9
v -0.8 0.5 1.9
v -0.8 0.5 1.8
v -0.8 0.5 0.8
v -0.8 0.5 0.7
v -0.8 0.5 0.6
v -0.8 0.5 0.5
v -0.8 0.5 -0.5
v -0.8 0.5 -0.6
v -0.8 0.5 -0.7
v -0.8 0.5 -0.8
v -0.8 0.5 -1.8
v -0.8 0.5 -1.9
v -0.8 0.6 1.8
v -0.8 0.6 0.7
v -0.8 0.9 1.8
v -0.8 0.9 1.7
v -0.8 1 1.8
v -0.8 1 1.7
v -0.8 1.5 1.8
v -0.8 1.5 0.7
v -0.7 0.3 1.8
v -0.7 0.3 0.8
v -0.7 0.3 0.5
v -0.7 0.3 -0.5
v -0.7 0.3 -0.8
v -0.7 0.3 -1.8
v -0.7 0.5 1.8
v -0.7 0.5 0.8
v -0.7 0.5 0.5
v -0.7 0.5 -0.5
v -0.7 0.5 -0.8
v -0.7 0.5 -1.8
v 0.5 0.3 1.9
v 0.5 0.3 1.8
v 0.5 0.3 0.8
v 0.5 0.3 0.7
v 0.5 0.3 0.6
v 0.5 0.3 0.5
v 0.5 0.3 -0.5
v 0.5 0.3 -0.6
v 0.5 0.3 -0.7
v 0.5 0.3 -0.8
v 0.5 0.3 -1.8
v 0.5 0.3 -1.9
v 0.5 0.5 1.9
v 0.5 0.5 1.8
v 0.5 0.5 0.8
v 0.5 0.5 0.7
v 0.5 0.5 0.6
v 0.5 0.5 0.5
v 0.5 0.5 -0.5
v 0.5 0.5 -0.6
v 0.5 0.5 -1.8
v 0.5 0.5 -1.9
v 0.5 0.6 -0.7
v 0.5 0.6 -0.8
v 0.6 0.3 1.8
v 0.6 0.3 0.8
v 0.6 0.3 0.5
v 0.6 0.3 -0.5
v 0.6 0.3 -0.8
v 0.6 0.3 -1.8
v 0.6 0.5 1.8
v 0.6 0.5 0.8
v 0.6 0.5 0.5
v 0.6 0.5 -0.5
v 0.6 0.7 -0.8
v 0.6 0.7 -1.2
v 0.6 0.7 -1.5
v 0.6 0.7 -1.8
v 0.6 0.8 -0.8
v 0.6 0.8 -1.2
v 0.6 0.8 -1.5
v 0.9 0.8 -1
v 0.9 0.8 -1.1
v 0.9 0.9 -1
v 0.9 0.9 -1.1
v 1 0.5 1.5
v 1 0.5 1.4
v 1 0.6 1.5
v 1 0.6 1.4
v 1.1 0.5 1.6
v 1.1 0.5 1.5
v 1.1 0.5 1.4
v 1.1 0.5 1.3
v 1.1 0.6 1.5
v 1.1 0.6 1.4
v 1.1 0.7 1.6
v 1.1 0.7 1.3
v 1.1 1 -1.1
v 1.1 1 -1.2
v 1.1 1.1 -1.1
v 1.1 1.1 -1.2
v 1.3 0.5 1.7
v 1.3 0.5 1.6
v 1.3 0.5 1.3
v 1.3 0.5 1.2
v 1.3 0.7 1.7
v 1.3 0.7 1.6
v 1.3 0.7 1.3
v 1.3 0.7 1.2
v 1.3 0.8 1.6
v 1.3 0.8 1.3
v 1.5 0.5 1.7
v 1.5 0.5 1.6
v 1.5 0.5 1.3
v 1.5 0.5 1.2
v 1.5 0.7 1.7
v 1.5 0.7 1.6
v 1.5 0.7 1.3
v 1.5 0.7 1.2
v 1.5 0.8 1.6
v 1.5 0.8 1.3
v 1.5 1.5 -1.5
v 1.5 1.5 -1.7
v 1.5 1.6 -1.5
v 1.5 1.6 -1.7
v 1.7 0.5 1.6
v 1.7 0.5 1.5
v 1.7 0.5 1.4
v 1.7 0.5 1.3
v 1.7 0.6 1.5
v 1.7 0.6 1.4
v 1.7 0.7 1.6
v 1.7 0.7 1.3
v 1.7 0.8 -1
v 1.7 0.8 -1.1
v 1.7 0.9 -1
v 1.7 0.9 -1.1
v 1.8 0.3 1.9
v 1.8 0.3 1.8
v 1.8 0.3 0.8
v 1.8 0.3 0.7
v 1.8 0.3 0.6
v 1.8 0.3 0.5
v 1.8 0.3 -0.5
v 1.8 0.3 -0.6
v 1.8 0.3 -0.7
v 1.8 0.3 -0.8
v 1.8 0.3 -1.8
v 1.8 0.3 -1.9
v 1.8 0.5 1.9
v 1.8 0.5 1.8
v 1.8 0.5 1.5
v 1.8 0.5 1.4
v 1.8 0.5 0.8
v 1.8 0.5 0.7
v 1.8 0.5 0.6
v 1.8 0.5 0.5
v 1.8 0.5 -0.5
v 1.8 0.5 -0.6
v 1.8 0.6 1.5
v 1.8 0.6 1.4
v 1.8 0.8 -0.7
v 1.8 0.8 -0.8
v 1.8 0.9 -1
v 1.8 0.9 -1.1
v 1.8 1 -1.1
v 1.8 1 -1.2
v 1.8 1.1 -1
v 1.8 1.1 -1.1
v 1.8 1.2 -1.2
v 1.8 1.2 -1.3
v 1.8 1.3 -1.1
v 1.8 1.3 -1.2
v 1.8 1.4 -1.2
v 1.8 1.4 -1.3
v 1.8 1.4 -1.4
v 1.8 1.4 -1.8
v 1.8 1.4 -1.9
v 1.8 1.5 -1.3
v 1.8 1.5 -1.4
v 1.8 1.5 -1.8
v 1.8 1.5 -1.9
v 1.8 1.6 -1.4
v 1.8 1.6 -1.8
v 1.9 0.3 1.8
v 1.9 0.3 0.8
v 1.9 0.3 0.5
v 1.9 0.3 -0.5
v 1.9 0.3 -0.8
v 1.9 0.3 -1.8
v 1.9 0.5 1.8
v 1.9 0.5 0.8
v 1.9 0.5 0.5
v 1.9 0.5 -0.5
v 1.9 0.8 -0.8
v 1.9 0.8 -1.1
v 1.9 1 -1.1
v 1.9 1 -1.2
v 1.9 1.2 -1.2
v 1.9 1.2 -1.3
v 1.9 1.4 -1.3
v 1.9 1.4 -1.4
v 1.9 1.4 -1.8
v 1.9 1.5 -1.4
v 1.9 1.5 -1.8
v -1.8 0.3 1.9
v -1.8 0.5 1.9
v -1.5 0.9 1.9
v -1.5 1.1 1.9
v -1.1 0.9 1.9
v -1.1 1.1 1.9
v -0.8 0.3 1.9
v -0.8 0.5 1.9
v -0.5 0.3 1.9
v -0.5 0.5 1.9
v 0.5 0.3 1.9
v 0.5 0.5 1.9
v 0.8 0.3 1.9
v 0.8 0.5 1.9
v 1.8 0.3 1.9
v 1.8 0.5 1.9
v -1.9 0.3 1.8
v -1.9 0.5 1.8
v -1.8 0.3 1.8
v -1.8 0.5 1.8
v -1.8 0.6 1.8
v -1.8 0.9 1.8
v -1.8 1 1.8
v -1.8 1.5 1.8
v -1.6 0.9 1.8
v -1.6 1 1.8
v -1.6 1.2 1.8
v -1.5 0.8 1.8
v -1.5 0.9 1.8
v -1.5 1 1.8
v -1.5 1.1 1.8
v -1.5 1.2 1.8
v -1.5 1.5 1.8
v -1.5 1.8 1.8
v -1.1 0.8 1.8
v -1.1 0.9 1.8
v -1.1 1 1.8
v -1.1 1.1 1.8
v -1.1 1.2 1.8
v -1.1 1.5 1.8
v -1.1 1.8 1.8
v -1 0.9 1.8
v -1 1 1.8
v -1 1.2 1.8
v -0.8 0.3 1.8
v -0.8 0.5 1.8
v -0.8 0.6 1.8
v -0.8 0.9 1.8
v -0.8 1 1.8
v -0.8 1.5 1.8
v -0.7 0.3 1.8
v -0.7 0.5 1.8
v -0.6 0.3 1.8
v -0.6 0.5 1.8
v -0.5 0.3 1.8
v -0.5 0.5 1.8
v 0.5 0.3 1.8
v 0.5 0.5 1.8
v 0.6 0.3 1.8
v 0.6 0.5 1.8
v 0.7 0.3 1.8
v 0.7 0.5 1.8
v 0.8 0.3 1.8
v 0.8 0.5 1.8
v 1.8 0.3 1.8
v 1.8 0.5 1.8
v 1.9 0.3 1.8
v 1.9 0.5 1.8
v -1.7 0.5 1.7
v -1.7 0.6 1.7
v -1.5 0.5 1.7
v -1.5 0.6 1.7
v -1.1 0.5 1.7
v -1.1 0.6 1.7
v -0.9 0.5 1.7
v -0.9 0.6 1.7
v 1.2 0.5 1.7
v 1.2 0.7 1.7
v 1.3 0.5 1.7
v 1.3 0.7 1.7
v 1.4 0.5 1.7
v 1.4 0.7 1.7
v 1.5 0.5 1.7
v 1.5 0.7 1.7
v 0.8 0.5 1.6
v 0.8 0.6 1.6
v 0.9 0.6 1.6
v 0.9 0.7 1.6
v 1.1 0.5 1.6
v 1.1 0.7 1.6
v 1.2 0.7 1.6
v 1.2 0.8 1.6
v 1.3 0.7 1.6
v 1.3 0.8 1.6
v 1.4 0.7 1.6
v 1.4 0.8 1.6
v 1.5 0.7 1.6
v 1.5 0.8 1.6
v 1.6 0.5 1.6
v 1.6 0.7 1.6
v 1.7 0.5 1.6
v 1.7 0.7 1.6
v 0.8 0.6 1.5
v 0.8 0.7 1.5
v 0.9 0.6 1.5
v 0.9 0.7 1.5
v 1.7 0.5 1.5
v 1.7 0.6 1.5
v 1.8 0.5 1.5
v 1.8 0.6 1.5
v -1.5 1.5 1.4
v -1.5 1.7 1.4
v -1.1 1.5 1.4
v -1.1 1.7 1.4
v 1 0.5 1.4
v 1 0.6 1.4
v 1.1 0.5 1.4
v 1.1 0.6 1.4
v 1.6 0.5 1.4
v 1.6 0.6 1.4
v 1.7 0.5 1.4
v 1.7 0.6 1.4
v 1.2 0.5 1.3
v 1.2 0.7 1.3
v 1.3 0.5 1.3
v 1.3 0.7 1.3
v 1.4 0.5 1.3
v 1.4 0.7 1.3
v 1.5 0.5 1.3
v 1.5 0.7 1.3
v -1.7 0.5 1.1
v -1.7 0.6 1.1
v -1.5 0.5 1.1
v -1.5 0.6 1.1
v -1.1 0.5 1.1
v -1.1 0.6 1.1
v -0.9 0.5 1.1
v -0.9 0.6 1.1
v -1.5 1.5 1
v -1.5 1.7 1
v -1.1 1.5 1
v -1.1 1.7 1
v -1.8 0.3 0.6
v -1.8 0.5 0.6
v -0.8 0.3 0.6
v -0.8 0.5 0.6
v -0.5 0.3 0.6
v -0.5 0.5 0.6
v 0.5 0.3 0.6
v 0.5 0.5 0.6
v 0.8 0.3 0.6
v 0.8 0.5 0.6
v 1.8 0.3 0.6
v 1.8 0.5 0.6
v -1.9 0.3 0.5
v -1.9 0.5 0.5
v -1.8 0.3 0.5
v -1.8 0.5 0.5
v -0.8 0.3 0.5
v -0.8 0.5 0.5
v -0.7 0.3 0.5
v -0.7 0.5 0.5
v -0.6 0.3 0.5
v -0.6 0.5 0.5
v -0.5 0.3 0.5
v -0.5 0.5 0.5
v 0.5 0.3 0.5
v 0.5 0.5 0.5
v 0.6 0.3 0.5
v 0.6 0.5 0.5
v 0.7 0.3 0.5
v 0.7 0.5 0.5
v 0.8 0.3 0.5
v 0.8 0.5 0.5
v 1.8 0.3 0.5
v 1.8 0.5 0.5
v 1.9 0.3 0.5
v 1.9 0.5 0.5
v -1.8 0.3 -0.7
v -1.8 0.5 -0.7
v -0.8 0.3 -0.7
v -0.8 0.5 -0.7
v -0.5 0.3 -0.7
v -0.5 0.5 -0.7
v 0.2 0.5 -0.7
v 0.2 0.6 -0.7
v 0.5 0.3 -0.7
v 0.5 0.6 -0.7
v 0.8 0.3 -0.7
v 0.8 0.7 -0.7
v 0.8 0.8 -0.7
v 0.9 0.7 -0.7
v 0.9 0.8 -0.7
v 1.8 0.3 -0.7
v 1.8 0.8 -0.7
v -1.9 0.3 -0.8
v -1.9 0.5 -0.8
v -1.8 0.3 -0.8
v -1.8 0.5 -0.8
v -0.8 0.3 -0.8
v -0.8 0.5 -0.8
v -0.7 0.3 -0.8
v -0.7 0.5 -0.8
v -0.6 0.3 -0.8
v -0.6 0.5 -0.8
v -0.5 0.3 -0.8
v -0.5 0.5 -0.8
v 0.1 0.5 -0.8
v 0.1 0.6 -0.8
v 0.2 0.5 -0.8
v 0.2 0.6 -0.8
v 0.3 0.6 -0.8
v 0.3 0.7 -0.8
v 0.4 0.7 -0.8
v 0.4 0.8 -0.8
v 0.5 0.3 -0.8
v 0.5 0.6 -0.8
v 0.5 0.7 -0.8
v 0.6 0.3 -0.8
v 0.6 0.7 -0.8
v 0.6 0.8 -0.8
v 0.7 0.3 -0.8
v 0.7 0.7 -0.8
v 0.7 0.8 -0.8
v 0.8 0.3 -0.8
v 0.8 0.7 -0.8
v 0.8 0.8 -0.8
v 1.8 0.3 -0.8
v 1.8 0.8 -0.8
v 1.9 0.3 -0.8
v 1.9 0.8 -0.8
v 0.8 0.8 -1
v 0.8 0.9 -1
v 0.9 0.8 -1
v 0.9 0.9 -1
v 1.6 0.8 -1
v 1.6 1.1 -1
v 1.7 0.8 -1
v 1.7 0.9 -1
v 1.8 0.9 -1
v 1.8 1.1 -1
v -1.6 0.6 -1.1
v -1.6 0.7 -1.1
v -1.5 0.6 -1.1
v -1.5 0.7 -1.1
v -1.3 0.6 -1.1
v -1.3 0.7 -1.1
v 0.9 0.8 -1.1
v 0.9 0.9 -1.1
v 0.9 1.1 -1.1
v 1 0.8 -1.1
v 1 1 -1.1
v 1.1 1 -1.1
v 1.1 1.1 -1.1
v 1.6 0.8 -1.1
v 1.6 1 -1.1
v 1.6 1.1 -1.1
v 1.6 1.3 -1.1
v 1.7 0.8 -1.1
v 1.7 0.9 -1.1
v 1.8 0.9 -1.1
v 1.8 1 -1.1
v 1.8 1.1 -1.1
v 1.8 1.3 -1.1
v 1.9 0.8 -1.1
v 1.9 1 -1.1
v -1.7 0.6 -1.2
v -1.7 0.7 -1.2
v -1.6 0.5 -1.2
v -1.6 0.6 -1.2
v -1.6 0.7 -1.2
v -1.6 1 -1.2
v -1.5 0.5 -1.2
v -1.5 0.6 -1.2
v -1.5 0.7 -1.2
v -1.5 0.9 -1.2
v -1.5 1 -1.2
v -1.5 1.1 -1.2
v -1.4 0.5 -1.2
v -1.4 0.6 -1.2
v -1.4 1 -1.2
v -1.4 1.1 -1.2
v -1.3 0.5 -1.2
v -1.3 0.6 -1.2
v -1.3 0.7 -1.2
v -1.3 0.9 -1.2
v -1.3 1 -1.2
v -1.2 0.6 -1.2
v -1.2 0.7 -1.2
v 1.1 1 -1.2
v 1.1 1.1 -1.2
v 1.1 1.2 -1.2
v 1.3 1 -1.2
v 1.3 1.2 -1.2
v 1.5 1.3 -1.2
v 1.5 1.4 -1.2
v 1.6 1 -1.2
v 1.6 1.2 -1.2
v 1.6 1.3 -1.2
v 1.8 1 -1.2
v 1.8 1.2 -1.2
v 1.8 1.3 -1.2
v 1.8 1.4 -1.2
v 1.9 1 -1.2
v 1.9 1.2 -1.2
v -1.8 0.6 -1.3
v -1.8 0.7 -1.3
v -1.7 0.5 -1.3
v -1.7 0.6 -1.3
v -1.7 0.7 -1.3
v -1.7 0.8 -1.3
v -1.7 1 -1.3
v -1.6 0.5 -1.3
v -1.6 0.6 -1.3
v -1.6 0.7 -1.3
v -1.6 0.8 -1.3
v -1.6 1 -1.3
v -1.6 1.2 -1.3
v -1.5 0.6 -1.3
v -1.5 0.7 -1.3
v -1.5 1 -1.3
v -1.5 1.1 -1.3
v -1.4 0.6 -1.3
v -1.4 1 -1.3
v -1.4 1.1 -1.3
v -1.4 1.2 -1.3
v -1.3 0.5 -1.3
v -1.3 0.6 -1.3
v -1.3 0.7 -1.3
v -1.3 0.9 -1.3
v -1.3 1 -1.3
v -1.3 1.2 -1.3
v -1.2 0.5 -1.3
v -1.2 0.6 -1.3
v -1.2 0.7 -1.3
v -1.2 1 -1.3
v -1.1 0.6 -1.3
v -1.1 0.7 -1.3
v 1 1.1 -1.3
v 1 1.2 -1.3
v 1.1 1.1 -1.3
v 1.1 1.2 -1.3
v 1.1 1.4 -1.3
v 1.3 1.2 -1.3
v 1.3 1.4 -1.3
v 1.5 1.3 -1.3
v 1.5 1.4 -1.3
v 1.5 1.5 -1.3
v 1.6 1.2 -1.3
v 1.6 1.3 -1.3
v 1.8 1.2 -1.3
v 1.8 1.4 -1.3
v 1.8 1.5 -1.3
v 1.9 1.2 -1.3
v 1.9 1.4 -1.3
v -1.7 1 -1.4
v -1.7 1.1 -1.4
v -1.6 1 -1.4
v -1.6 1.1 -1.4
v -1.3 1 -1.4
v -1.3 1.1 -1.4
v -1.2 1 -1.4
v -1.2 1.1 -1.4
v 1.2 1.4 -1.4
v 1.2 1.5 -1.4
v 1.3 1.4 -1.4
v 1.4 1.5 -1.4
v 1.4 1.6 -1.4
v 1.5 1.4 -1.4
v 1.5 1.5 -1.4
v 1.8 1.4 -1.4
v 1.8 1.5 -1.4
v 1.8 1.6 -1.4
v 1.9 1.4 -1.4
v 1.9 1.5 -1.4
v -1.7 0.6 -1.6
v -1.7 0.7 -1.6
v -1.6 0.6 -1.6
v -1.6 0.7 -1.6
v -1.6 0.6 -1.7
v -1.6 0.7 -1.7
v -1.4 0.6 -1.7
v -1.4 0.7 -1.7
v -1.3 0.6 -1.7
v -1.3 0.7 -1.7
v 1.5 1.5 -1.7
v 1.5 1.6 -1.7
v 1.7 1.5 -1.7
v 1.7 1.6 -1.7
v 1.2 0.5 1.6
v 1.2 0.7 1.6
v 1.3 0.5 1.6
v 1.3 0.7 1.6
v 1.4 0.5 1.6
v 1.4 0.7 1.6
v 1.5 0.5 1.6
v 1.5 0.7 1.6
v -1.5 1.5 1.5
v -1.5 1.8 1.5
v -1.1 1.5 1.5
v -1.1 1.8 1.5
v 1 0.5 1.5
v 1 0.6 1.5
v 1.1 0.5 1.5
v 1.1 0.6 1.5
v 1.6 0.5 1.5
v 1.6 0.6 1.5
v 1.7 0.5 1.5
v 1.7 0.6 1.5
v -1.7 0.5 1.4
v -1.7 0.6 1.4
v -1.5 0.5 1.4
v -1.5 0.6 1.4
v -1.1 0.5 1.4
v -1.1 0.6 1.4
v -0.9 0.5 1.4
v -0.9 0.6 1.4
v 0.8 0.6 1.4
v 0.8 0.7 1.4
v 0.9 0.6 1.4
v 0.9 0.7 1.4
v 1.7 0.5 1.4
v 1.7 0.6 1.4
v 1.8 0.5 1.4
v 1.8 0.6 1.4
v 0.8 0.5 1.3
v 0.8 0.6 1.3
v 0.9 0.6 1.3
v 0.9 0.7 1.3
v 1.1 0.5 1.3
v 1.1 0.7 1.3
v 1.2 0.7 1.3
v 1.2 0.8 1.3
v 1.3 0.7 1.3
v 1.3 0.8 1.3
v 1.4 0.7 1.3
v 1.4 0.8 1.3
v 1.5 0.7 1.3
v 1.5 0.8 1.3
v 1.6 0.5 1.3
v 1.6 0.7 1.3
v 1.7 0.5 1.3
v 1.7 0.7 1.3
v 1.2 0.5 1.2
v 1.2 0.7 1.2
v 1.3 0.5 1.2
v 1.3 0.7 1.2
v 1.4 0.5 1.2
v 1.4 0.7 1.2
v 1.5 0.5 1.2
v 1.5 0.7 1.2
v -1.5 1.5 1.1
v -1.5 1.7 1.1
v -1.1 1.5 1.1
v -1.1 1.7 1.1
v -1.9 0.3 0.8
v -1.9 0.5 0.8
v -1.8 0.3 0.8
v -1.8 0.5 0.8
v -1.7 0.5 0.8
v -1.7 0.6 0.8
v -1.5 0.5 0.8
v -1.5 0.6 0.8
v -1.1 0.5 0.8
v -1.1 0.6 0.8
v -0.9 0.5 0.8
v -0.9 0.6 0.8
v -0.8 0.3 0.8
v -0.8 0.5 0.8
v -0.7 0.3 0.8
v -0.7 0.5 0.8
v -0.6 0.3 0.8
v -0.6 0.5 0.8
v -0.5 0.3 0.8
v -0.5 0.5 0.8
v 0.5 0.3 0.8
v 0.5 0.5 0.8
v 0.6 0.3 0.8
v 0.6 0.5 0.8
v 0.7 0.3 0.8
v 0.7 0.5 0.8
v 0.8 0.3 0.8
v 0.8 0.5 0.8
v 1.8 0.3 0.8
v 1.8 0.5 0.8
v 1.9 0.3 0.8
v 1.9 0.5 0.8
v -1.8 0.3 0.7
v -1.8 0.5 0.7
v -1.8 0.6 0.7
v -1.8 1.5 0.7
v -1.5 0.6 0.7
v -1.5 0.8 0.7
v -1.5 1.1 0.7
v -1.5 1.2 0.7
v -1.5 1.5 0.7
v -1.5 1.7 0.7
v -1.1 0.6 0.7
v -1.1 0.8 0.7
v -1.1 1.1 0.7
v -1.1 1.2 0.7
v -1.1 1.5 0.7
v -1.1 1.7 0.7
v -0.8 0.3 0.7
v -0.8 0.5 0.7
v -0.8 0.6 0.7
v -0.8 1.5 0.7
v -0.5 0.3 0.7
v -0.5 0.5 0.7
v 0.5 0.3 0.7
v 0.5 0.5 0.7
v 0.8 0.3 0.7
v 0.8 0.5 0.7
v 1.8 0.3 0.7
v 1.8 0.5 0.7
v -1.5 0.8 0.5
v -1.5 1.1 0.5
v -1.5 1.2 0.5
v -1.5 1.5 0.5
v -1.1 0.8 0.5
v -1.1 1.1 0.5
v -1.1 1.2 0.5
v -1.1 1.5 0.5
v -1.5 0.6 0.4
v -1.5 0.8 0.4
v -1.1 0.6 0.4
v -1.1 0.8 0.4
v -1.9 0.3 -0.5
v -1.9 0.5 -0.5
v -1.8 0.3 -0.5
v -1.8 0.5 -0.5
v -0.8 0.3 -0.5
v -0.8 0.5 -0.5
v -0.7 0.3 -0.5
v -0.7 0.5 -0.5
v -0.6 0.3 -0.5
v -0.6 0.5 -0.5
v -0.5 0.3 -0.5
v -0.5 0.5 -0.5
v 0.5 0.3 -0.5
v 0.5 0.5 -0.5
v 0.6 0.3 -0.5
v 0.6 0.5 -0.5
v 0.7 0.3 -0.5
v 0.7 0.5 -0.5
v 0.8 0.3 -0.5
v 0.8 0.5 -0.5
v 1.8 0.3 -0.5
v 1.8 0.5 -0.5
v 1.9 0.3 -0.5
v 1.9 0.5 -0.5
v -1.8 0.3 -0.6
v -1.8 0.5 -0.6
v -0.8 0.3 -0.6
v -0.8 0.5 -0.6
v -0.5 0.3 -0.6
v -0.5 0.5 -0.6
v 0.5 0.3 -0.6
v 0.5 0.5 -0.6
v 0.8 0.3 -0.6
v 0.8 0.5 -0.6
v 1.8 0.3 -0.6
v 1.8 0.5 -0.6
v 0.1 0.5 -0.9
v 0.1 0.6 -0.9
v 0.2 0.5 -0.9
v 0.2 0.6 -0.9
v -1.6 0.6 -1.2
v -1.6 0.7 -1.2
v -1.5 0.6 -1.2
v -1.5 0.7 -1.2
v -1.4 0.6 -1.2
v -1.3 0.6 -1.2
v -1.3 0.7 -1.2
v -1.7 0.6 -1.3
v -1.7 0.7 -1.3
v -1.6 0.6 -1.3
v -1.6 0.7 -1.3
v 0.8 0.8 -1.3
v 0.8 0.9 -1.3
v 0.9 0.8 -1.3
v 0.9 0.9 -1.3
v 0.9 0.8 -1.4
v 0.9 1.1 -1.4
v 1 0.8 -1.4
v 1 1 -1.4
v 1 1.1 -1.4
v -1.7 1 -1.5
v -1.7 1.1 -1.5
v -1.6 1 -1.5
v -1.6 1.1 -1.5
v -1.3 1 -1.5
v -1.3 1.1 -1.5
v -1.2 1 -1.5
v -1.2 1.1 -1.5
v 0.4 0.7 -1.5
v 0.4 0.8 -1.5
v 0.6 0.7 -1.5
v 0.6 0.8 -1.5
v 1 1 -1.5
v 1 1.2 -1.5
v 1.1 1 -1.5
v 1.1 1.2 -1.5
v 1.5 1.5 -1.5
v 1.5 1.6 -1.5
v 1.7 1.5 -1.5
v 1.7 1.6 -1.5
v -1.8 0.6 -1.6
v -1.8 0.7 -1.6
v -1.7 0.5 -1.6
v -1.7 0.6 -1.6
v -1.7 0.7 -1.6
v -1.7 1 -1.6
v -1.6 0.5 -1.6
v -1.6 0.6 -1.6
v -1.6 0.7 -1.6
v -1.6 1 -1.6
v -1.6 1.2 -1.6
v -1.5 0.6 -1.6
v -1.5 0.7 -1.6
v -1.5 1 -1.6
v -1.5 1.1 -1.6
v -1.4 0.6 -1.6
v -1.4 1 -1.6
v -1.4 1.1 -1.6
v -1.3 0.5 -1.6
v -1.3 0.6 -1.6
v -1.3 0.7 -1.6
v -1.3 0.8 -1.6
v -1.3 0.9 -1.6
v -1.3 1 -1.6
v -1.3 1.2 -1.6
v -1.2 0.5 -1.6
v -1.2 0.6 -1.6
v -1.2 0.7 -1.6
v -1.2 1 -1.6
v -1.1 0.6 -1.6
v -1.1 0.7 -1.6
v 0.2 0.5 -1.6
v 0.2 0.6 -1.6
v 0.3 0.6 -1.6
v 0.3 0.7 -1.6
v 0.4 0.5 -1.6
v 0.4 0.7 -1.6
v 1.1 1.2 -1.6
v 1.1 1.4 -1.6
v 1.2 1.2 -1.6
v 1.2 1.4 -1.6
v 1.2 1.5 -1.6
v 1.3 1.4 -1.6
v 1.3 1.5 -1.6
v -1.7 0.6 -1.7
v -1.7 0.7 -1.7
v -1.6 0.5 -1.7
v -1.6 0.6 -1.7
v -1.6 0.7 -1.7
v -1.6 1 -1.7
v -1.5 0.8 -1.7
v -1.5 0.9 -1.7
v -1.5 1 -1.7
v -1.5 1.1 -1.7
v -1.4 0.5 -1.7
v -1.4 0.6 -1.7
v -1.4 0.7 -1.7
v -1.4 1 -1.7
v -1.4 1.1 -1.7
v -1.3 0.5 -1.7
v -1.3 0.6 -1.7
v -1.3 0.7 -1.7
v -1.3 0.8 -1.7
v -1.3 0.9 -1.7
v -1.3 1 -1.7
v -1.2 0.6 -1.7
v -1.2 0.7 -1.7
v -1.9 0.3 -1.8
v -1.9 0.5 -1.8
v -1.8 0.3 -1.8
v -1.8 0.5 -1.8
v -1.6 0.6 -1.8
v -1.6 0.7 -1.8
v -1.4 0.6 -1.8
v -1.4 0.7 -1.8
v -1.3 0.6 -1.8
v -1.3 0.7 -1.8
v -0.8 0.3 -1.8
v -0.8 0.5 -1.8
v -0.7 0.3 -1.8
v -0.7 0.5 -1.8
v -0.6 0.3 -1.8
v -0.6 0.5 -1.8
v -0.5 0.3 -1.8
v -0.5 0.5 -1.8
v 0.4 0.5 -1.8
v 0.4 0.7 -1.8
v 0.5 0.3 -1.8
v 0.5 0.5 -1.8
v 0.6 0.3 -1.8
v 0.6 0.7 -1.8
v 0.7 0.3 -1.8
v 0.7 0.8 -1.8
v 0.8 0.3 -1.8
v 0.8 0.8 -1.8
v 1.3 1.4 -1.8
v 1.3 1.5 -1.8
v 1.4 1.4 -1.8
v 1.4 1.5 -1.8
v 1.4 1.6 -1.8
v 1.8 0.3 -1.8
v 1.8 1.4 -1.8
v 1.8 1.5 -1.8
v 1.8 1.6 -1.8
v 1.9 0.3 -1.8
v 1.9 1.4 -1.8
v 1.9 1.5 -1.8
v -1.8 0.3 -1.9
v -1.8 0.5 -1.9
v -0.8 0.3 -1.9
v -0.8 0.5 -1.9
v -0.5 0.3 -1.9
v -0.5 0.5 -1.9
v 0.5 0.3 -1.9
v 0.5 0.5 -1.9
v 0.8 0.3 -1.9
v 0.8 0.8 -1.9
v 1 0.8 -1.9
v 1 1 -1.9
v 1.1 1 -1.9
v 1.1 1.2 -1.9
v 1.2 1.2 -1.9
v 1.2 1.4 -1.9
v 1.4 1.4 -1.9
v 1.4 1.5 -1.9
v 1.8 0.3 -1.9
v 1.8 1.4 -1.9
v 1.8 1.5 -1.9
v -1.8 0.3 1.9
v -0.8 0.3 1.9
v -0.5 0.3 1.9
v 0.5 0.3 1.9
v 0.8 0.3 1.9
v 1.8 0.3 1.9
v -1.9 0.3 1.8
v -1.8 0.3 1.8
v -0.8 0.3 1.8
v -0.7 0.3 1.8
v -0.6 0.3 1.8
v -0.5 0.3 1.8
v 0.5 0.3 1.8
v 0.6 0.3 1.8
v 0.7 0.3 1.8
v 0.8 0.3 1.8
v 1.8 0.3 1.8
v 1.9 0.3 1.8
v -1.9 0.3 0.8
v -1.8 0.3 0.8
v -0.8 0.3 0.8
v -0.7 0.3 0.8
v -0.6 0.3 0.8
v -0.5 0.3 0.8
v 0.5 0.3 0.8
v 0.6 0.3 0.8
v 0.7 0.3 0.8
v 0.8 0.3 0.8
v 1.8 0.3 0.8
v 1.9 0.3 0.8
v -1.8 0.3 0.7
v -0.8 0.3 0.7
v -0.5 0.3 0.7
v 0.5 0.3 0.7
v 0.8 0.3 0.7
v 1.8 0.3 0.7
v -1.8 0.3 0.6
v -0.8 0.3 0.6
v -0.5 0.3 0.6
v 0.5 0.3 0.6
v 0.8 0.3 0.6
v 1.8 0.3 0.6
v -1.9 0.3 0.5
v -1.8 0.3 0.5
v -0.8 0.3 0.5
v -0.7 0.3 0.5
v -0.6 0.3 0.5
v -0.5 0.3 0.5
v 0.5 0.3 0.5
v 0.6 0.3 0.5
v 0.7 0.3 0.5
v 0.8 0.3 0.5
v 1.8 0.3 0.5
v 1.9 0.3 0.5
v -1.9 0.3 -0.5
v -1.8 0.3 -0.5
v -0.8 0.3 -0.5
v -0.7 0.3 -0.5
v -0.6 0.3 -0.5
v -0.5 0.3 -0.5
v 0.5 0.3 -0.5
v 0.6 0.3 -0.5
v 0.7 0.3 -0.5
v 0.8 0.3 -0.5
v 1.8 0.3 -0.5
v 1.9 0.3 -0.5
v -1.8 0.3 -0.6
v -0.8 0.3 -0.6
v -0.5 0.3 -0.6
v 0.5 0.3 -0.6
v 0.8 0.3 -0.6
v 1.8 0.3 -0.6
v -1.8 0.3 -0.7
v -0.8 0.3 -0.7
v -0.5 0.3 -0.7
v 0.5 0.3 -0.7
v 0.8 0.3 -0.7
v 1.8 0.3 -0.7
v -1.9 0.3 -0.8
v -1.8 0.3 -0.8
v -0.8 0.3 -0.8
v -0.7 0.3 -0.8
v -0.6 0.3 -0.8
v -0.5 0.3 -0.8
v 0.5 0.3 -0.8
v 0.6 0.3 -0.8
v 0.7 0.3 -0.8
v 0.8 0.3 -0.8
v 1.8 0.3 -0.8
v 1.9 0.3 -0.8
v -1.9 0.3 -1.8
v -1.8 0.3 -1.8
v -0.8 0.3 -1.8
v -0.7 0.3 -1.8
v -0.6 0.3 -1.8
v -0.5 0.3 -1.8
v 0.5 0.3 -1.8
v 0.6 0.3 -1.8
v 0.7 0.3 -1.8
v 0.8 0.3 -1.8
v 1.8 0.3 -1.8
v 1.9 0.3 -1.8
v -1.8 0.3 -1.9
v -0.8 0.3 -1.9
v -0.5 0.3 -1.9
v 0.5 0.3 -1.9
v 0.8 0.3 -1.9
v 1.8 0.3 -1.9
v -1.8 0.6 1.8
v -0.8 0.6 1.8
v -1.7 0.6 1.7
v -1.5 0.6 1.7
v -1.1 0.6 1.7
v -0.9 0.6 1.7
v 1 0.6 1.5
v 1.1 0.6 1.5
v 1.6 0.6 1.5
v 1.7 0.6 1.5
v -1.7 0.6 1.4
v -1.5 0.6 1.4
v -1.1 0.6 1.4
v -0.9 0.6 1.4
v 1 0.6 1.4
v 1.1 0.6 1.4
v 1.6 0.6 1.4
v 1.7 0.6 1.4
v -1.7 0.6 1.1
v -1.5 0.6 1.1
v -1.1 0.6 1.1
v -0.9 0.6 1.1
v -1.7 0.6 0.8
v -1.5 0.6 0.8
v -1.1 0.6 0.8
v -0.9 0.6 0.8
v -1.8 0.6 0.7
v -1.5 0.6 0.7
v -1.1 0.6 0.7
v -0.8 0.6 0.7
v -1.5 0.6 0.4
v -1.1 0.6 0.4
v -1.6 0.6 -1.1
v -1.5 0.6 -1.1
v -1.3 0.6 -1.1
v -1.7 0.6 -1.2
v -1.6 0.6 -1.2
v -1.5 0.6 -1.2
v -1.4 0.6 -1.2
v -1.3 0.6 -1.2
v -1.2 0.6 -1.2
v -1.8 0.6 -1.3
v -1.7 0.6 -1.3
v -1.6 0.6 -1.3
v -1.3 0.6 -1.3
v -1.2 0.6 -1.3
v -1.1 0.6 -1.3
v -1.8 0.6 -1.4
v -1.7 0.6 -1.4
v -1.2 0.6 -1.4
v -1.1 0.6 -1.4
v -1.8 0.6 -1.5
v -1.7 0.6 -1.5
v -1.2 0.6 -1.5
v -1.1 0.6 -1.5
v -1.8 0.6 -1.6
v -1.7 0.6 -1.6
v -1.6 0.6 -1.6
v -1.3 0.6 -1.6
v -1.2 0.6 -1.6
v -1.1 0.6 -1.6
v -1.7 0.6 -1.7
v -1.6 0.6 -1.7
v -1.4 0.6 -1.7
v -1.3 0.6 -1.7
v -1.2 0.6 -1.7
v -1.6 0.6 -1.8
v -1.4 0.6 -1.8
v -1.3 0.6 -1.8
v 1.2 0.7 1.6
v 1.3 0.7 1.6
v 1.4 0.7 1.6
v 1.5 0.7 1.6
v 1.2 0.7 1.3
v 1.3 0.7 1.3
v 1.4 0.7 1.3
v 1.5 0.7 1.3
v -1.6 0.7 -1.2
v -1.5 0.7 -1.2
v -1.3 0.7 -1.2
v -1.7 0.7 -1.3
v -1.6 0.7 -1.3
v -1.5 0.7 -1.3
v -1.3 0.7 -1.3
v -1.7 0.7 -1.4
v -1.7 0.7 -1.5
v -1.7 0.7 -1.6
v -1.6 0.7 -1.6
v -1.5 0.7 -1.6
v -1.3 0.7 -1.6
v -1.6 0.7 -1.7
v -1.4 0.7 -1.7
v -1.3 0.7 -1.7
v -1.5 0.9 1.9
v -1.1 0.9 1.9
v -1.5 0.9 1.8
v -1.1 0.9 1.8
v 1.7 0.9 -1
v 1.8 0.9 -1
v 1.7 0.9 -1.1
v 1.8 0.9 -1.1
v -1.5 1.2 0.7
v -1.1 1.2 0.7
v -1.5 1.2 0.5
v -1.1 1.2 0.5
v 1.5 1.3 -1.2
v 1.6 1.3 -1.2
v 1.5 1.3 -1.3
v 1.6 1.3 -1.3
v -1.8 0.5 1.9
v -0.8 0.5 1.9
v -0.5 0.5 1.9
v 0.5 0.5 1.9
v 0.8 0.5 1.9
v 1.8 0.5 1.9
v -1.9 0.5 1.8
v -1.8 0.5 1.8
v -0.8 0.5 1.8
v -0.7 0.5 1.8
v -0.6 0.5 1.8
v -0.5 0.5 1.8
v 0.5 0.5 1.8
v 0.6 0.5 1.8
v 0.7 0.5 1.8
v 0.8 0.5 1.8
v 1.8 0.5 1.8
v 1.9 0.5 1.8
v -1.7 0.5 1.7
v -1.5 0.5 1.7
v -1.1 0.5 1.7
v -0.9 0.5 1.7
v 1.2 0.5 1.7
v 1.3 0.5 1.7
v 1.4 0.5 1.7
v 1.5 0.5 1.7
v 0.8 0.5 1.6
v 1.1 0.5 1.6
v 1.2 0.5 1.6
v 1.3 0.5 1.6
v 1.4 0.5 1.6
v 1.5 0.5 1.6
v 1.6 0.5 1.6
v 1.7 0.5 1.6
v 1 0.5 1.5
v 1.1 0.5 1.5
v 1.6 0.5 1.5
v 1.7 0.5 1.5
v 1.8 0.5 1.5
v -1.7 0.5 1.4
v -1.5 0.5 1.4
v -1.1 0.5 1.4
v -0.9 0.5 1.4
v 1 0.5 1.4
v 1.1 0.5 1.4
v 1.6 0.5 1.4
v 1.7 0.5 1.4
v 1.8 0.5 1.4
v 0.8 0.5 1.3
v 1.1 0.5 1.3
v 1.2 0.5 1.3
v 1.3 0.5 1.3
v 1.4 0.5 1.3
v 1.5 0.5 1.3
v 1.6 0.5 1.3
v 1.7 0.5 1.3
v 1.2 0.5 1.2
v 1.3 0.5 1.2
v 1.4 0.5 1.2
v 1.5 0.5 1.2
v -1.7 0.5 1.1
v -1.5 0.5 1.1
v -1.1 0.5 1.1
v -0.9 0.5 1.1
v -1.9 0.5 0.8
v -1.8 0.5 0.8
v -1.7 0.5 0.8
v -1.5 0.5 0.8
v -1.1 0.5 0.8
v -0.9 0.5 0.8
v -0.8 0.5 0.8
v -0.7 0.5 0.8
v -0.6 0.5 0.8
v -0.5 0.5 0.8
v 0.5 0.5 0.8
v 0.6 0.5 0.8
v 0.7 0.5 0.8
v 0.8 0.5 0.8
v 1.8 0.5 0.8
v 1.9 0.5 0.8
v -1.8 0.5 0.7
v -0.8 0.5 0.7
v -0.5 0.5 0.7
v 0.5 0.5 0.7
v 0.8 0.5 0.7
v 1.8 0.5 0.7
v -1.8 0.5 0.6
v -0.8 0.5 0.6
v -0.5 0.5 0.6
v 0.5 0.5 0.6
v 0.8 0.5 0.6
v 1.8 0.5 0.6
v -1.9 0.5 0.5
v -1.8 0.5 0.5
v -0.8 0.5 0.5
v -0.7 0.5 0.5
v -0.6 0.5 0.5
v -0.5 0.5 0.5
v 0.5 0.5 0.5
v 0.6 0.5 0.5
v 0.7 0.5 0.5
v 0.8 0.5 0.5
v 1.8 0.5 0.5
v 1.9 0.5 0.5
v -1.9 0.5 -0.5
v -1.8 0.5 -0.5
v -0.8 0.5 -0.5
v -0.7 0.5 -0.5
v -0.6 0.5 -0.5
v -0.5 0.5 -0.5
v 0.5 0.5 -0.5
v 0.6 0.5 -0.5
v 0.7 0.5 -0.5
v 0.8 0.5 -0.5
v 1.8 0.5 -0.5
v 1.9 0.5 -0.5
v -1.8 0.5 -0.6
v -0.8 0.5 -0.6
v -0.5 0.5 -0.6
v 0.5 0.5 -0.6
v 0.8 0.5 -0.6
v 1.8 0.5 -0.6
v -1.8 0.5 -0.7
v -0.8 0.5 -0.7
v -0.5 0.5 -0.7
v 0.2 0.5 -0.7
v -1.9 0.5 -0.8
v -1.8 0.5 -0.8
v -0.8 0.5 -0.8
v -0.7 0.5 -0.8
v -0.6 0.5 -0.8
v -0.5 0.5 -0.8
v 0.1 0.5 -0.8
v 0.2 0.5 -0.8
v 0.1 0.5 -0.9
v 0.2 0.5 -0.9
v 0.2 0.5 -1
v -1.6 0.5 -1.2
v -1.5 0.5 -1.2
v -1.4 0.5 -1.2
v -1.3 0.5 -1.2
v -1.7 0.5 -1.3
v -1.6 0.5 -1.3
v -1.3 0.5 -1.3
v -1.2 0.5 -1.3
v -1.2 0.5 -1.5
v -1.7 0.5 -1.6
v -1.6 0.5 -1.6
v -1.3 0.5 -1.6
v -1.2 0.5 -1.6
v 0.2 0.5 -1.6
v 0.4 0.5 -1.6
v -1.6 0.5 -1.7
v -1.4 0.5 -1.7
v -1.3 0.5 -1.7
v -1.9 0.5 -1.8
v -1.8 0.5 -1.8
v -0.8 0.5 -1.8
v -0.7 0.5 -1.8
v -0.6 0.5 -1.8
v -0.5 0.5 -1.8
v 0.4 0.5 -1.8
v 0.5 0.5 -1.8
v -1.8 0.5 -1.9
v -0.8 0.5 -1.9
v -0.5 0.5 -1.9
v 0.5 0.5 -1.9
v 0.8 0.6 1.6
v 0.9 0.6 1.6
v 0.8 0.6 1.5
v 0.9 0.6 1.5
v 1.7 0.6 1.5
v 1.8 0.6 1.5
v 0.8 0.6 1.4
v 0.9 0.6 1.4
v 1.7 0.6 1.4
v 1.8 0.6 1.4
v 0.8 0.6 1.3
v 0.9 0.6 1.3
v 0.2 0.6 -0.7
v 0.5 0.6 -0.7
v 0.1 0.6 -0.8
v 0.2 0.6 -0.8
v 0.3 0.6 -0.8
v 0.5 0.6 -0.8
v 0.1 0.6 -0.9
v 0.2 0.6 -0.9
v 0.2 0.6 -1
v 0.3 0.6 -1
v -1.6 0.6 -1.2
v -1.5 0.6 -1.2
v -1.4 0.6 -1.2
v -1.3 0.6 -1.2
v -1.7 0.6 -1.3
v -1.6 0.6 -1.3
v -1.5 0.6 -1.3
v -1.4 0.6 -1.3
v -1.3 0.6 -1.3
v -1.7 0.6 -1.4
v -1.7 0.6 -1.5
v -1.7 0.6 -1.6
v -1.6 0.6 -1.6
v -1.5 0.6 -1.6
v -1.4 0.6 -1.6
v -1.3 0.6 -1.6
v 0.2 0.6 -1.6
v 0.3 0.6 -1.6
v -1.6 0.6 -1.7
v -1.4 0.6 -1.7
v -1.3 0.6 -1.7
v 1.2 0.7 1.7
v 1.3 0.7 1.7
v 1.4 0.7 1.7
v 1.5 0.7 1.7
v 0.9 0.7 1.6
v 1.1 0.7 1.6
v 1.2 0.7 1.6
v 1.3 0.7 1.6
v 1.4 0.7 1.6
v 1.5 0.7 1.6
v 1.6 0.7 1.6
v 1.7 0.7 1.6
v 0.8 0.7 1.5
v 0.9 0.7 1.5
v 0.8 0.7 1.4
v 0.9 0.7 1.4
v 0.9 0.7 1.3
v 1.1 0.7 1.3
v 1.2 0.7 1.3
v 1.3 0.7 1.3
v 1.4 0.7 1.3
v 1.5 0.7 1.3
v 1.6 0.7 1.3
v 1.7 0.7 1.3
v 1.2 0.7 1.2
v 1.3 0.7 1.2
v 1.4 0.7 1.2
v 1.5 0.7 1.2
v 0.3 0.7 -0.8
v 0.4 0.7 -0.8
v 0.3 0.7 -1
v 0.4 0.7 -1
v -1.6 0.7 -1.1
v -1.5 0.7 -1.1
v -1.3 0.7 -1.1
v 0.4 0.7 -1.1
v -1.7 0.7 -1.2
v -1.6 0.7 -1.2
v -1.5 0.7 -1.2
v -1.3 0.7 -1.2
v -1.2 0.7 -1.2
v -1.8 0.7 -1.3
v -1.7 0.7 -1.3
v -1.6 0.7 -1.3
v -1.3 0.7 -1.3
v -1.2 0.7 -1.3
v -1.1 0.7 -1.3
v -1.8 0.7 -1.4
v -1.7 0.7 -1.4
v -1.2 0.7 -1.4
v -1.1 0.7 -1.4
v -1.8 0.7 -1.5
v -1.7 0.7 -1.5
v -1.2 0.7 -1.5
v -1.1 0.7 -1.5
v 0.4 0.7 -1.5
v 0.6 0.7 -1.5
v -1.8 0.7 -1.6
v -1.7 0.7 -1.6
v -1.6 0.7 -1.6
v -1.3 0.7 -1.6
v -1.2 0.7 -1.6
v -1.1 0.7 -1.6
v 0.3 0.7 -1.6
v 0.4 0.7 -1.6
v -1.7 0.7 -1.7
v -1.6 0.7 -1.7
v -1.4 0.7 -1.7
v -1.3 0.7 -1.7
v -1.2 0.7 -1.7
v -1.6 0.7 -1.8
v -1.4 0.7 -1.8
v -1.3 0.7 -1.8
v 0.4 0.7 -1.8
v 0.6 0.7 -1.8
v 1.2 0.8 1.6
v 1.3 0.8 1.6
v 1.4 0.8 1.6
v 1.5 0.8 1.6
v 1.2 0.8 1.3
v 1.3 0.8 1.3
v 1.4 0.8 1.3
v 1.5 0.8 1.3
v -1.5 0.8 0.5
v -1.1 0.8 0.5
v -1.5 0.8 0.4
v -1.1 0.8 0.4
v 0.8 0.8 -0.7
v 0.9 0.8 -0.7
v 1.8 0.8 -0.7
v 0.4 0.8 -0.8
v 0.6 0.8 -0.8
v 0.7 0.8 -0.8
v 0.8 0.8 -0.8
v 1.8 0.8 -0.8
v 1.9 0.8 -0.8
v 0.8 0.8 -1
v 0.9 0.8 -1
v 1.6 0.8 -1
v 1.7 0.8 -1
v 0.4 0.8 -1.1
v 0.5 0.8 -1.1
v 0.9 0.8 -1.1
v 1 0.8 -1.1
v 1.6 0.8 -1.1
v 1.7 0.8 -1.1
v 1.9 0.8 -1.1
v 0.5 0.8 -1.2
v 0.6 0.8 -1.2
v 0.7 0.8 -1.2
v 0.8 0.8 -1.2
v 0.8 0.8 -1.3
v 0.9 0.8 -1.3
v 0.9 0.8 -1.4
v 1 0.8 -1.4
v 0.4 0.8 -1.5
v 0.6 0.8 -1.5
v 0.7 0.8 -1.8
v 0.8 0.8 -1.8
v 0.8 0.8 -1.9
v 1 0.8 -1.9
v 0.8 0.9 -1
v 0.9 0.9 -1
v 0.9 0.9 -1.1
v 0.8 0.9 -1.3
v 0.9 0.9 -1.3
v 1.1 1 -1.1
v 1.6 1 -1.1
v 1.8 1 -1.1
v 1.9 1 -1.1
v -1.6 1 -1.2
v -1.5 1 -1.2
v -1.4 1 -1.2
v -1.3 1 -1.2
v 1.1 1 -1.2
v 1.3 1 -1.2
v 1.6 1 -1.2
v 1.8 1 -1.2
v 1.9 1 -1.2
v -1.7 1 -1.3
v -1.6 1 -1.3
v -1.5 1 -1.3
v -1.4 1 -1.3
v -1.3 1 -1.3
v -1.2 1 -1.3
v -1.7 1 -1.4
v -1.6 1 -1.4
v -1.3 1 -1.4
v -1.2 1 -1.4
v -1.7 1 -1.5
v -1.6 1 -1.5
v -1.3 1 -1.5
v -1.2 1 -1.5
v 1 1 -1.5
v 1.1 1 -1.5
v -1.7 1 -1.6
v -1.6 1 -1.6
v -1.5 1 -1.6
v -1.4 1 -1.6
v -1.3 1 -1.6
v -1.2 1 -1.6
v -1.6 1 -1.7
v -1.5 1 -1.7
v -1.4 1 -1.7
v -1.3 1 -1.7
v 1 1 -1.9
v 1.1 1 -1.9
v -1.5 1.1 1.9
v -1.1 1.1 1.9
v -1.5 1.1 1.8
v -1.1 1.1 1.8
v -1.5 1.1 0.7
v -1.1 1.1 0.7
v -1.5 1.1 0.5
v -1.1 1.1 0.5
v 1.6 1.1 -1
v 1.8 1.1 -1
v 0.9 1.1 -1.1
v 1.1 1.1 -1.1
v 1.6 1.1 -1.1
v 1.8 1.1 -1.1
v -1.5 1.1 -1.2
v -1.4 1.1 -1.2
v 1.1 1.1 -1.2
v -1.5 1.1 -1.3
v -1.4 1.1 -1.3
v 1 1.1 -1.3
v 1.1 1.1 -1.3
v -1.7 1.1 -1.4
v -1.6 1.1 -1.4
v -1.3 1.1 -1.4
v -1.2 1.1 -1.4
v 0.9 1.1 -1.4
v 1 1.1 -1.4
v -1.7 1.1 -1.5
v -1.6 1.1 -1.5
v -1.3 1.1 -1.5
v -1.2 1.1 -1.5
v -1.5 1.1 -1.6
v -1.4 1.1 -1.6
v -1.5 1.1 -1.7
v -1.4 1.1 -1.7
v 1.1 1.2 -1.2
v 1.3 1.2 -1.2
v 1.6 1.2 -1.2
v 1.8 1.2 -1.2
v 1.9 1.2 -1.2
v -1.6 1.2 -1.3
v -1.4 1.2 -1.3
v -1.3 1.2 -1.3
v 1 1.2 -1.3
v 1.1 1.2 -1.3
v 1.3 1.2 -1.3
v 1.6 1.2 -1.3
v 1.8 1.2 -1.3
v 1.9 1.2 -1.3
v -1.4 1.2 -1.5
v -1.3 1.2 -1.5
v 1 1.2 -1.5
v 1.1 1.2 -1.5
v -1.6 1.2 -1.6
v -1.3 1.2 -1.6
v 1.1 1.2 -1.6
v 1.2 1.2 -1.6
v 1.1 1.2 -1.9
v 1.2 1.2 -1.9
v 1.6 1.3 -1.1
v 1.8 1.3 -1.1
v 1.6 1.3 -1.2
v 1.8 1.3 -1.2
v 1.5 1.4 -1.2
v 1.8 1.4 -1.2
v 1.1 1.4 -1.3
v 1.3 1.4 -1.3
v 1.5 1.4 -1.3
v 1.8 1.4 -1.3
v 1.9 1.4 -1.3
v 1.2 1.4 -1.4
v 1.3 1.4 -1.4
v 1.5 1.4 -1.4
v 1.8 1.4 -1.4
v 1.9 1.4 -1.4
v 1.1 1.4 -1.6
v 1.2 1.4 -1.6
v 1.3 1.4 -1.6
v 1.3 1.4 -1.8
v 1.4 1.4 -1.8
v 1.2 1.4 -1.9
v 1.4 1.4 -1.9
v -1.8 1.5 1.8
v -1.5 1.5 1.8
v -1.1 1.5 1.8
v -0.8 1.5 1.8
v -1.5 1.5 1.5
v -1.1 1.5 1.5
v -1.5 1.5 1.4
v -1.1 1.5 1.4
v -1.5 1.5 1.1
v -1.1 1.5 1.1
v -1.5 1.5 1
v -1.1 1.5 1
v -1.8 1.5 0.7
v -1.5 1.5 0.7
v -1.1 1.5 0.7
v -0.8 1.5 0.7
v -1.5 1.5 0.5
v -1.1 1.5 0.5
v 1.5 1.5 -1.3
v 1.8 1.5 -1.3
v 1.2 1.5 -1.4
v 1.4 1.5 -1.4
v 1.5 1.5 -1.4
v 1.8 1.5 -1.4
v 1.9 1.5 -1.4
v 1.5 1.5 -1.5
v 1.7 1.5 -1.5
v 1.2 1.5 -1.6
v 1.3 1.5 -1.6
v 1.5 1.5 -1.7
v 1.7 1.5 -1.7
v 1.3 1.5 -1.8
v 1.4 1.5 -1.8
v 1.8 1.5 -1.8
v 1.9 1.5 -1.8
v 1.4 1.5 -1.9
v 1.8 1.5 -1.9
v 1.4 1.6 -1.4
v 1.8 1.6 -1.4
v 1.5 1.6 -1.5
v 1.7 1.6 -1.5
v 1.5 1.6 -1.7
v 1.7 1.6 -1.7
v 1.4 1.6 -1.8
v 1.8 1.6 -1.8
v -1.5 1.7 1.4
v -1.1 1.7 1.4
v -1.5 1.7 1.1
v -1.1 1.7 1.1
v -1.5 1.7 1
v -1.1 1.7 1
v -1.5 1.7 0.7
v -1.1 1.7 0.7
v -1.5 1.8 1.8
v -1.1 1.8 1.8
v -1.5 1.8 1.5
v -1.1 1.8 1.5

# faces
f 7/13/1 2/13/1 1/13/1
f 8/13/1 2/13/1 7/13/1
f 9/13/1 4/13/1 3/13/1
f 10/13/1 4/13/1 9/13/1
f 11/13/1 6/13/1 5/13/1
f 12/13/1 6/13/1 11/13/1
f 25/13/1 14/13/1 13/13/1
f 26/13/1 14/13/1 25/13/1
f 27/13/1 16/13/1 15/13/1
f 28/13/1 16/13/1 27/13/1
f 29/13/1 18/13/1 17/13/1
f 30/13/1 18/13/1 29/13/1
f 31/13/1 20/13/1 19/13/1
f 32/13/1 20/13/1 31/13/1
f 33/13/1 22/13/1 21/13/1
f 34/13/1 22/13/1 33/13/1
f 35/13/1 24/13/1 23/13/1
f 36/13/1 24/13/1 35/13/1
f 43/5/1 40/5/1 39/5/1
f 44/4/1 41/4/1 40/4/1
f 44/5/1 40/5/1 43/5/1
f 45/5/1 42/5/1 41/5/1
f 45/4/1 41/4/1 44/4/1
f 46/5/1 42/5/1 45/5/1
f 47/7/1 38/7/1 37/7/1
f 48/7/1 38/7/1 47/7/1
f 49/3/1 48/3/1 47/3/1
f 50/7/1 38/7/1 48/7/1
f 50/3/1 48/3/1 49/3/1
f 51/7/1 50/7/1 49/7/1
f 52/7/1 38/7/1 50/7/1
f 52/7/1 50/7/1 51/7/1
f 59/7/1 54/7/1 53/7/1
f 60/7/1 54/7/1 59/7/1
f 61/7/1 56/7/1 55/7/1
f 62/7/1 56/7/1 61/7/1
f 64/4/1 58/4/1 57/4/1
f 65/4/1 58/4/1 64/4/1
f 66/4/1 58/4/1 65/4/1
f 67/4/1 58/4/1 66/4/1
f 69/5/1 64/5/1 63/5/1
f 70/5/1 64/5/1 69/5/1
f 73/4/1 68/4/1 67/4/1
f 74/4/1 68/4/1 73/4/1
f 75/7/1 72/7/1 71/7/1
f 75/7/1 73/7/1 72/7/1
f 75/7/1 71/7/1 70/7/1
f 76/7/1 73/7/1 75/7/1
f 77/11/1 76/11/1 75/11/1
f 78/11/1 76/11/1 77/11/1
f 79/7/1 73/7/1 76/7/1
f 79/11/1 76/11/1 78/11/1
f 80/7/1 73/7/1 79/7/1
f 81/7/1 79/7/1 78/7/1
f 82/7/1 79/7/1 81/7/1
f 88/4/1 84/4/1 83/4/1
f 89/4/1 84/4/1 88/4/1
f 90/4/1 86/4/1 85/4/1
f 91/4/1 86/4/1 90/4/1
f 93/4/1 88/4/1 87/4/1
f 94/4/1 88/4/1 93/4/1
f 95/7/1 90/7/1 89/7/1
f 96/7/1 90/7/1 95/7/1
f 97/5/1 92/5/1 91/5/1
f 98/5/1 92/5/1 97/5/1
f 99/7/1 95/7/1 94/7/1
f 100/7/1 99/7/1 94/7/1
f 101/7/1 99/7/1 100/7/1
f 104/7/1 97/7/1 96/7/1
f 105/7/1 97/7/1 104/7/1
f 106/7/1 102/7/1 101/7/1
f 107/7/1 104/7/1 103/7/1
f 108/7/1 106/7/1 101/7/1
f 108/7/1 107/7/1 106/7/1
f 109/7/1 104/7/1 107/7/1
f 109/7/1 107/7/1 108/7/1
f 112/7/1 111/7/1 110/7/1
f 113/7/1 111/7/1 112/7/1
f 114/7/1 111/7/1 113/7/1
f 117/7/1 116/7/1 115/7/1
f 122/7/1 117/7/1 115/7/1
f 123/7/1 117/7/1 122/7/1
f 124/8/1 113/8/1 112/8/1
f 125/8/1 113/8/1 124/8/1
f 126/7/1 119/7/1 118/7/1
f 127/7/1 119/7/1 126/7/1
f 128/7/1 121/7/1 120/7/1
f 129/7/1 121/7/1 128/7/1
f 137/8/1 131/8/1 130/8/1
f 138/8/1 131/8/1 137/8/1
f 139/8/1 135/8/1 134/8/1
f 140/8/1 135/8/1 139/8/1
f 141/8/1 137/8/1 136/8/1
f 142/8/1 137/8/1 141/8/1
f 143/8/1 133/8/1 132/8/1
f 144/8/1 133/8/1 143/8/1
f 149/4/1 146/4/1 145/4/1
f 150/4/1 146/4/1 149/4/1
f 151/5/1 148/5/1 147/5/1
f 152/5/1 148/5/1 151/5/1
f 157/7/1 154/7/1 153/7/1
f 158/7/1 154/7/1 157/7/1
f 159/7/1 156/7/1 155/7/1
f 160/7/1 156/7/1 159/7/1
f 167/13/1 162/13/1 161/13/1
f 168/13/1 162/13/1 167/13/1
f 169/13/1 164/13/1 163/13/1
f 170/13/1 164/13/1 169/13/1
f 171/13/1 166/13/1 165/13/1
f 172/13/1 166/13/1 171/13/1
f 185/13/1 174/13/1 173/13/1
f 186/13/1 174/13/1 185/13/1
f 187/13/1 176/13/1 175/13/1
f 188/13/1 176/13/1 187/13/1
f 189/13/1 178/13/1 177/13/1
f 190/13/1 178/13/1 189/13/1
f 191/13/1 180/13/1 179/13/1
f 192/13/1 180/13/1 191/13/1
f 193/13/1 182/13/1 181/13/1
f 194/13/1 182/13/1 193/13/1
f 195/13/1 184/13/1 183/13/1
f 196/13/1 184/13/1 195/13/1
f 199/10/1 198/10/1 197/10/1
f 200/10/1 198/10/1 199/10/1
f 206/13/1 202/13/1 201/13/1
f 207/13/1 202/13/1 206/13/1
f 208/10/1 204/10/1 203/10/1
f 209/13/1 205/13/1 204/13/1
f 209/10/1 204/10/1 208/10/1
f 210/13/1 205/13/1 209/13/1
f 214/10/1 212/10/1 211/10/1
f 215/13/1 213/13/1 212/13/1
f 215/10/1 212/10/1 214/10/1
f 216/13/1 213/13/1 215/13/1
f 223/13/1 218/13/1 217/13/1
f 224/13/1 218/13/1 223/13/1
f 225/10/1 220/10/1 219/10/1
f 225/10/1 221/10/1 220/10/1
f 226/13/1 222/13/1 221/13/1
f 226/10/1 221/10/1 225/10/1
f 227/13/1 222/13/1 226/13/1
f 234/13/1 229/13/1 228/13/1
f 235/13/1 229/13/1 234/13/1
f 236/13/1 231/13/1 230/13/1
f 237/13/1 231/13/1 236/13/1
f 238/13/1 233/13/1 232/13/1
f 239/13/1 233/13/1 238/13/1
f 240/10/1 239/10/1 238/10/1
f 241/13/1 233/13/1 239/13/1
f 241/10/1 239/10/1 240/10/1
f 242/13/1 233/13/1 241/13/1
f 255/13/1 244/13/1 243/13/1
f 256/13/1 244/13/1 255/13/1
f 259/13/1 246/13/1 245/13/1
f 260/13/1 246/13/1 259/13/1
f 261/13/1 248/13/1 247/13/1
f 262/13/1 248/13/1 261/13/1
f 263/13/1 250/13/1 249/13/1
f 264/13/1 250/13/1 263/13/1
f 265/11/1 258/11/1 257/11/1
f 266/11/1 258/11/1 265/11/1
f 267/11/1 258/11/1 266/11/1
f 268/11/1 258/11/1 267/11/1
f 269/11/1 267/11/1 266/11/1
f 270/11/1 267/11/1 269/11/1
f 271/13/1 252/13/1 251/13/1
f 272/13/1 252/13/1 271/13/1
f 273/10/1 272/10/1 271/10/1
f 274/10/1 272/10/1 273/10/1
f 278/13/1 254/13/1 253/13/1
f 279/13/1 254/13/1 278/13/1
f 280/10/1 277/10/1 276/10/1
f 280/10/1 276/10/1 275/10/1
f 281/10/1 277/10/1 280/10/1
f 286/11/1 283/11/1 282/11/1
f 287/11/1 283/11/1 286/11/1
f 288/11/1 285/11/1 284/11/1
f 289/11/1 285/11/1 288/11/1
f 293/10/1 291/10/1 290/10/1
f 294/10/1 293/10/1 292/10/1
f 295/10/1 291/10/1 293/10/1
f 295/10/1 293/10/1 294/10/1
f 298/13/1 297/13/1 296/13/1
f 299/13/1 297/13/1 298/13/1
f 300/13/1 297/13/1 299/13/1
f 302/10/1 299/10/1 298/10/1
f 303/10/1 302/10/1 301/10/1
f 304/10/1 299/10/1 302/10/1
f 304/10/1 302/10/1 303/10/1
f 309/10/1 308/10/1 307/10/1
f 310/10/1 308/10/1 309/10/1
f 311/13/1 306/13/1 305/13/1
f 312/13/1 306/13/1 311/13/1
f 313/13/1 306/13/1 312/13/1
f 314/10/1 311/10/1 310/10/1
f 314/10/1 312/10/1 311/10/1
f 315/10/1 312/10/1 314/10/1
f 320/11/1 317/11/1 316/11/1
f 321/11/1 317/11/1 320/11/1
f 322/11/1 319/11/1 318/11/1
f 323/11/1 319/11/1 322/11/1
f 324/11/1 322/11/1 321/11/1
f 325/11/1 322/11/1 324/11/1
f 329/13/1 327/13/1 326/13/1
f 330/13/1 327/13/1 329/13/1
f 331/10/1 329/10/1 328/10/1
f 332/10/1 329/10/1 331/10/1
f 335/10/1 334/10/1 333/10/1
f 336/10/1 334/10/1 335/10/1
f 341/11/1 338/11/1 337/11/1
f 342/11/1 338/11/1 341/11/1
f 343/11/1 340/11/1 339/11/1
f 344/11/1 340/11/1 343/11/1
f 345/11/1 343/11/1 342/11/1
f 346/11/1 343/11/1 345/11/1
f 350/10/1 348/10/1 347/10/1
f 351/10/1 348/10/1 350/10/1
f 352/10/1 350/10/1 349/10/1
f 353/10/1 350/10/1 352/10/1
f 356/10/1 355/10/1 354/10/1
f 357/10/1 355/10/1 356/10/1
f 359/10/1 358/10/1 357/10/1
f 360/10/1 358/10/1 359/10/1
f 365/11/1 362/11/1 361/11/1
f 366/11/1 364/11/1 363/11/1
f 367/11/1 365/11/1 361/11/1
f 367/11/1 366/11/1 365/11/1
f 368/11/1 364/11/1 366/11/1
f 368/11/1 366/11/1 367/11/1
f 371/10/1 370/10/1 369/10/1
f 373/10/1 371/10/1 369/10/1
f 373/10/1 372/10/1 371/10/1
f 374/10/1 372/10/1 373/10/1
f 375/10/1 372/10/1 374/10/1
f 377/10/1 375/10/1 374/10/1
f 377/10/1 376/10/1 375/10/1
f 378/10/1 376/10/1 377/10/1
f 379/10/1 376/10/1 378/10/1
f 382/11/1 381/11/1 380/11/1
f 383/11/1 381/11/1 382/11/1
f 386/10/1 385/10/1 384/10/1
f 387/10/1 385/10/1 386/10/1
f 388/5/2 389/5/2 392/5/2
f 389/4/2 390/4/2 393/4/2
f 392/5/2 389/5/2 393/5/2
f 390/5/2 391/5/2 394/5/2
f 393/4/2 390/4/2 394/4/2
f 394/5/2 391/5/2 395/5/2
f 396/5/2 397/5/2 400/5/2
f 400/5/2 397/5/2 401/5/2
f 398/4/2 399/4/2 402/4/2
f 402/4/2 399/4/2 403/4/2
f 404/7/2 405/7/2 408/7/2
f 408/7/2 405/7/2 409/7/2
f 406/7/2 407/7/2 410/7/2
f 410/7/2 407/7/2 411/7/2
f 412/7/2 413/7/2 416/7/2
f 416/7/2 413/7/2 417/7/2
f 414/7/2 415/7/2 418/7/2
f 418/7/2 415/7/2 419/7/2
f 420/4/2 421/4/2 425/4/2
f 425/4/2 421/4/2 426/4/2
f 422/5/2 423/5/2 427/5/2
f 427/5/2 423/5/2 428/5/2
f 424/5/2 425/5/2 430/5/2
f 430/5/2 425/5/2 431/5/2
f 428/4/2 429/4/2 434/4/2
f 434/4/2 429/4/2 435/4/2
f 433/7/2 434/7/2 436/7/2
f 436/7/2 434/7/2 437/7/2
f 431/11/2 432/11/2 438/11/2
f 438/11/2 432/11/2 439/11/2
f 436/11/2 437/11/2 440/11/2
f 440/11/2 437/11/2 441/11/2
f 438/7/2 439/7/2 442/7/2
f 442/7/2 439/7/2 443/7/2
f 440/7/2 441/7/2 446/7/2
f 446/7/2 441/7/2 447/7/2
f 443/11/2 444/11/2 448/11/2
f 445/7/2 446/7/2 449/7/2
f 443/11/2 448/11/2 450/11/2
f 448/11/2 449/11/2 450/11/2
f 449/7/2 446/7/2 451/7/2
f 450/11/2 449/11/2 451/11/2
f 451/7/2 446/7/2 452/7/2
f 453/5/2 454/5/2 457/5/2
f 457/5/2 454/5/2 458/5/2
f 454/4/2 455/4/2 459/4/2
f 458/5/2 454/5/2 459/5/2
f 459/4/2 455/4/2 460/4/2
f 456/4/2 457/4/2 462/4/2
f 462/4/2 457/4/2 463/4/2
f 460/5/2 461/5/2 466/5/2
f 466/5/2 461/5/2 467/5/2
f 464/7/2 465/7/2 468/7/2
f 465/7/2 466/7/2 468/7/2
f 463/7/2 464/7/2 468/7/2
f 468/7/2 466/7/2 469/7/2
f 469/7/2 466/7/2 470/7/2
f 470/7/2 466/7/2 471/7/2
f 469/11/2 470/11/2 472/11/2
f 472/11/2 470/11/2 473/11/2
f 476/4/2 477/4/2 480/4/2
f 477/5/2 478/5/2 481/5/2
f 480/4/2 477/4/2 481/4/2
f 478/4/2 479/4/2 482/4/2
f 481/5/2 478/5/2 482/5/2
f 482/4/2 479/4/2 483/4/2
f 474/7/2 475/7/2 484/7/2
f 484/7/2 475/7/2 485/7/2
f 485/7/2 475/7/2 486/7/2
f 487/7/2 488/7/2 489/7/2
f 487/7/2 489/7/2 490/7/2
f 490/7/2 489/7/2 491/7/2
f 484/8/2 485/8/2 492/8/2
f 492/8/2 485/8/2 493/8/2
f 494/8/2 495/8/2 501/8/2
f 501/8/2 495/8/2 502/8/2
f 498/8/2 499/8/2 503/8/2
f 503/8/2 499/8/2 504/8/2
f 500/8/2 501/8/2 505/8/2
f 505/8/2 501/8/2 506/8/2
f 496/8/2 497/8/2 507/8/2
f 507/8/2 497/8/2 508/8/2
f 509/7/2 510/7/2 513/7/2
f 513/7/2 510/7/2 514/7/2
f 511/7/2 512/7/2 515/7/2
f 515/7/2 512/7/2 516/7/2
f 517/13/2 518/13/2 529/13/2
f 529/13/2 518/13/2 530/13/2
f 519/13/2 520/13/2 531/13/2
f 531/13/2 520/13/2 532/13/2
f 521/13/2 522/13/2 533/13/2
f 533/13/2 522/13/2 534/13/2
f 523/13/2 524/13/2 535/13/2
f 535/13/2 524/13/2 536/13/2
f 525/13/2 526/13/2 537/13/2
f 537/13/2 526/13/2 538/13/2
f 527/13/2 528/13/2 539/13/2
f 539/13/2 528/13/2 540/13/2
f 541/7/2 542/7/2 543/7/2
f 543/7/2 542/7/2 544/7/2
f 543/3/2 544/3/2 545/3/2
f 544/7/2 542/7/2 546/7/2
f 545/3/2 544/3/2 546/3/2
f 545/7/2 546/7/2 547/7/2
f 546/7/2 542/7/2 548/7/2
f 547/7/2 546/7/2 548/7/2
f 549/13/2 550/13/2 555/13/2
f 555/13/2 550/13/2 556/13/2
f 551/13/2 552/13/2 557/13/2
f 557/13/2 552/13/2 558/13/2
f 553/13/2 554/13/2 559/13/2
f 559/13/2 554/13/2 560/13/2
f 561/13/2 562/13/2 573/13/2
f 573/13/2 562/13/2 574/13/2
f 563/13/2 564/13/2 575/13/2
f 575/13/2 564/13/2 576/13/2
f 565/13/2 566/13/2 577/13/2
f 577/13/2 566/13/2 578/13/2
f 567/13/2 568/13/2 579/13/2
f 579/13/2 568/13/2 580/13/2
f 571/13/2 572/13/2 581/13/2
f 581/13/2 572/13/2 582/13/2
f 569/13/2 570/13/2 583/13/2
f 583/13/2 570/13/2 584/13/2
f 585/13/2 586/13/2 591/13/2
f 591/13/2 586/13/2 592/13/2
f 587/13/2 588/13/2 593/13/2
f 593/13/2 588/13/2 594/13/2
f 589/13/2 590/13/2 595/13/2
f 595/13/2 590/13/2 596/13/2
f 596/13/2 590/13/2 597/13/2
f 597/13/2 590/13/2 598/13/2
f 595/10/2 596/10/2 599/10/2
f 596/13/2 597/13/2 600/13/2
f 599/10/2 596/10/2 600/10/2
f 600/13/2 597/13/2 601/13/2
f 602/10/2 603/10/2 604/10/2
f 604/10/2 603/10/2 605/10/2
f 606/11/2 607/11/2 608/11/2
f 608/11/2 607/11/2 609/11/2
f 610/11/2 611/11/2 614/11/2
f 612/11/2 613/11/2 615/11/2
f 610/11/2 614/11/2 616/11/2
f 614/11/2 615/11/2 616/11/2
f 615/11/2 613/11/2 617/11/2
f 616/11/2 615/11/2 617/11/2
f 618/10/2 619/10/2 620/10/2
f 620/10/2 619/10/2 621/10/2
f 622/11/2 623/11/2 626/11/2
f 626/11/2 623/11/2 627/11/2
f 624/11/2 625/11/2 628/11/2
f 628/11/2 625/11/2 629/11/2
f 627/11/2 628/11/2 630/11/2
f 630/11/2 628/11/2 631/11/2
f 632/11/2 633/11/2 636/11/2
f 636/11/2 633/11/2 637/11/2
f 634/11/2 635/11/2 638/11/2
f 638/11/2 635/11/2 639/11/2
f 637/11/2 638/11/2 640/11/2
f 640/11/2 638/11/2 641/11/2
f 642/10/2 643/10/2 644/10/2
f 644/10/2 643/10/2 645/10/2
f 646/11/2 647/11/2 650/11/2
f 648/11/2 649/11/2 651/11/2
f 646/11/2 650/11/2 652/11/2
f 650/11/2 651/11/2 652/11/2
f 651/11/2 649/11/2 653/11/2
f 652/11/2 651/11/2 653/11/2
f 654/10/2 655/10/2 656/10/2
f 656/10/2 655/10/2 657/10/2
f 658/13/2 659/13/2 670/13/2
f 670/13/2 659/13/2 671/13/2
f 660/13/2 661/13/2 674/13/2
f 674/13/2 661/13/2 675/13/2
f 662/13/2 663/13/2 676/13/2
f 676/13/2 663/13/2 677/13/2
f 664/13/2 665/13/2 678/13/2
f 678/13/2 665/13/2 679/13/2
f 672/11/2 673/11/2 680/11/2
f 680/11/2 673/11/2 681/11/2
f 666/13/2 667/13/2 682/13/2
f 682/13/2 667/13/2 683/13/2
f 684/10/2 685/10/2 686/10/2
f 684/10/2 686/10/2 688/10/2
f 686/10/2 687/10/2 688/10/2
f 688/10/2 687/10/2 689/10/2
f 689/10/2 687/10/2 690/10/2
f 689/10/2 690/10/2 692/10/2
f 690/10/2 691/10/2 692/10/2
f 692/10/2 691/10/2 693/10/2
f 693/10/2 691/10/2 694/10/2
f 694/10/2 691/10/2 695/10/2
f 668/13/2 669/13/2 697/13/2
f 697/13/2 669/13/2 698/13/2
f 695/10/2 696/10/2 699/10/2
f 699/10/2 696/10/2 700/10/2
f 697/10/2 698/10/2 701/10/2
f 701/10/2 698/10/2 702/10/2
f 700/10/2 701/10/2 703/10/2
f 703/10/2 701/10/2 704/10/2
f 705/13/2 706/13/2 711/13/2
f 711/13/2 706/13/2 712/13/2
f 707/13/2 708/13/2 713/13/2
f 713/13/2 708/13/2 714/13/2
f 709/13/2 710/13/2 715/13/2
f 715/13/2 710/13/2 716/13/2
f 716/13/2 710/13/2 717/13/2
f 717/13/2 710/13/2 718/13/2
f 718/13/2 710/13/2 719/13/2
f 719/13/2 710/13/2 720/13/2
f 720/13/2 710/13/2 721/13/2
f 721/13/2 710/13/2 722/13/2
f 722/13/2 710/13/2 723/13/2
f 722/10/2 723/10/2 724/10/2
f 724/10/2 723/10/2 725/10/2
f 730/7/3 729/7/3 728/7/3
f 731/7/3 729/7/3 730/7/3
f 732/13/3 727/13/3 726/13/3
f 733/13/3 727/13/3 732/13/3
f 736/13/3 735/13/3 734/13/3
f 737/13/3 735/13/3 736/13/3
f 740/13/3 739/13/3 738/13/3
f 741/13/3 739/13/3 740/13/3
f 744/13/3 743/13/3 742/13/3
f 745/13/3 743/13/3 744/13/3
f 750/7/3 747/7/3 746/7/3
f 750/3/3 748/3/3 747/3/3
f 751/7/3 749/7/3 748/7/3
f 751/3/3 748/3/3 750/3/3
f 752/7/3 749/7/3 751/7/3
f 753/7/3 750/7/3 746/7/3
f 753/7/3 751/7/3 750/7/3
f 754/7/3 751/7/3 753/7/3
f 755/14/3 752/14/3 751/14/3
f 755/7/3 751/7/3 754/7/3
f 756/14/3 752/14/3 755/14/3
f 757/7/3 749/7/3 752/7/3
f 757/14/3 752/14/3 756/14/3
f 758/7/3 749/7/3 757/7/3
f 760/3/3 754/3/3 753/3/3
f 760/7/3 753/7/3 746/7/3
f 761/3/3 754/3/3 760/3/3
f 763/7/3 758/7/3 757/7/3
f 763/7/3 757/7/3 756/7/3
f 764/7/3 758/7/3 763/7/3
f 765/8/3 759/8/3 758/8/3
f 765/7/3 758/7/3 764/7/3
f 766/8/3 759/8/3 765/8/3
f 767/7/3 762/7/3 761/7/3
f 767/7/3 761/7/3 760/7/3
f 768/14/3 764/14/3 763/14/3
f 768/7/3 762/7/3 767/7/3
f 768/14/3 763/14/3 762/14/3
f 769/7/3 765/7/3 764/7/3
f 769/14/3 764/14/3 768/14/3
f 772/7/3 767/7/3 760/7/3
f 772/7/3 760/7/3 746/7/3
f 773/3/3 768/3/3 767/3/3
f 773/7/3 767/7/3 772/7/3
f 774/7/3 769/7/3 768/7/3
f 774/3/3 768/3/3 773/3/3
f 775/7/3 765/7/3 769/7/3
f 775/7/3 769/7/3 774/7/3
f 776/13/3 771/13/3 770/13/3
f 777/13/3 771/13/3 776/13/3
f 780/13/3 779/13/3 778/13/3
f 781/13/3 779/13/3 780/13/3
f 784/13/3 783/13/3 782/13/3
f 785/13/3 783/13/3 784/13/3
f 788/13/3 787/13/3 786/13/3
f 789/13/3 787/13/3 788/13/3
f 792/13/3 791/13/3 790/13/3
f 793/13/3 791/13/3 792/13/3
f 796/7/3 795/7/3 794/7/3
f 797/7/3 795/7/3 796/7/3
f 800/7/3 799/7/3 798/7/3
f 801/7/3 799/7/3 800/7/3
f 804/11/3 803/11/3 802/11/3
f 805/11/3 803/11/3 804/11/3
f 808/11/3 807/11/3 806/11/3
f 809/11/3 807/11/3 808/11/3
f 812/11/3 811/11/3 810/11/3
f 814/11/3 812/11/3 810/11/3
f 814/11/3 813/11/3 812/11/3
f 815/11/3 813/11/3 814/11/3
f 818/11/3 817/11/3 816/11/3
f 819/11/3 817/11/3 818/11/3
f 822/11/3 821/11/3 820/11/3
f 823/11/3 821/11/3 822/11/3
f 826/11/3 825/11/3 824/11/3
f 827/11/3 825/11/3 826/11/3
f 830/11/3 829/11/3 828/11/3
f 831/11/3 829/11/3 830/11/3
f 834/11/3 833/11/3 832/11/3
f 835/11/3 833/11/3 834/11/3
f 838/8/3 837/8/3 836/8/3
f 839/8/3 837/8/3 838/8/3
f 842/11/3 841/11/3 840/11/3
f 843/11/3 841/11/3 842/11/3
f 846/11/3 845/11/3 844/11/3
f 847/11/3 845/11/3 846/11/3
f 850/11/3 849/11/3 848/11/3
f 851/11/3 849/11/3 850/11/3
f 854/11/3 853/11/3 852/11/3
f 855/11/3 853/11/3 854/11/3
f 858/7/3 857/7/3 856/7/3
f 859/7/3 857/7/3 858/7/3
f 862/7/3 861/7/3 860/7/3
f 863/7/3 861/7/3 862/7/3
f 866/8/3 865/8/3 864/8/3
f 867/8/3 865/8/3 866/8/3
f 870/13/3 869/13/3 868/13/3
f 871/13/3 869/13/3 870/13/3
f 874/13/3 873/13/3 872/13/3
f 875/13/3 873/13/3 874/13/3
f 878/13/3 877/13/3 876/13/3
f 879/13/3 877/13/3 878/13/3
f 882/13/3 881/13/3 880/13/3
f 883/13/3 881/13/3 882/13/3
f 886/13/3 885/13/3 884/13/3
f 887/13/3 885/13/3 886/13/3
f 890/13/3 889/13/3 888/13/3
f 891/13/3 889/13/3 890/13/3
f 894/13/3 893/13/3 892/13/3
f 895/13/3 893/13/3 894/13/3
f 898/13/3 897/13/3 896/13/3
f 899/13/3 897/13/3 898/13/3
f 902/13/3 901/13/3 900/13/3
f 903/13/3 901/13/3 902/13/3
f 906/13/3 905/13/3 904/13/3
f 907/13/3 905/13/3 906/13/3
f 910/13/3 909/13/3 908/13/3
f 912/13/3 910/13/3 908/13/3
f 912/13/3 911/13/3 910/13/3
f 913/13/3 911/13/3 912/13/3
f 917/13/3 915/13/3 914/13/3
f 917/10/3 916/10/3 915/10/3
f 918/10/3 916/10/3 917/10/3
f 919/13/3 917/13/3 914/13/3
f 919/13/3 918/13/3 917/13/3
f 920/13/3 918/13/3 919/13/3
f 923/13/3 922/13/3 921/13/3
f 924/13/3 922/13/3 923/13/3
f 927/13/3 926/13/3 925/13/3
f 928/13/3 926/13/3 927/13/3
f 931/13/3 930/13/3 929/13/3
f 932/13/3 930/13/3 931/13/3
f 935/10/3 934/10/3 933/10/3
f 936/10/3 934/10/3 935/10/3
f 939/10/3 938/10/3 937/10/3
f 942/10/3 939/10/3 937/10/3
f 942/10/3 940/10/3 939/10/3
f 943/10/3 940/10/3 942/10/3
f 944/13/3 942/13/3 941/13/3
f 944/13/3 943/13/3 942/13/3
f 945/10/3 940/10/3 943/10/3
f 945/13/3 943/13/3 944/13/3
f 946/10/3 940/10/3 945/10/3
f 950/13/3 948/13/3 947/13/3
f 951/10/3 949/10/3 948/10/3
f 951/13/3 948/13/3 950/13/3
f 952/10/3 949/10/3 951/10/3
f 955/13/3 954/13/3 953/13/3
f 956/13/3 954/13/3 955/13/3
f 959/10/3 958/10/3 957/10/3
f 960/10/3 958/10/3 959/10/3
f 963/10/3 962/10/3 961/10/3
f 964/10/3 962/10/3 963/10/3
f 965/10/3 962/10/3 964/10/3
f 966/10/3 962/10/3 965/10/3
f 969/4/3 968/4/3 967/4/3
f 970/4/3 968/4/3 969/4/3
f 971/5/3 970/5/3 969/5/3
f 972/5/3 970/5/3 971/5/3
f 976/10/3 974/10/3 973/10/3
f 976/10/3 975/10/3 974/10/3
f 977/10/3 975/10/3 976/10/3
f 978/13/3 977/13/3 976/13/3
f 978/10/3 975/10/3 977/10/3
f 979/10/3 975/10/3 978/10/3
f 980/13/3 978/13/3 976/13/3
f 981/13/3 978/13/3 980/13/3
f 986/13/3 985/13/3 984/13/3
f 988/10/3 983/10/3 982/10/3
f 989/10/3 983/10/3 988/10/3
f 990/13/3 987/13/3 986/13/3
f 990/13/3 986/13/3 984/13/3
f 991/13/3 987/13/3 990/13/3
f 995/5/3 993/5/3 992/5/3
f 996/5/3 993/5/3 995/5/3
f 998/4/3 995/4/3 994/4/3
f 999/4/3 995/4/3 998/4/3
f 1000/7/3 997/7/3 996/7/3
f 1001/7/3 997/7/3 1000/7/3
f 1002/7/3 997/7/3 1001/7/3
f 1004/5/3 999/5/3 998/5/3
f 1005/5/3 999/5/3 1004/5/3
f 1006/7/3 1003/7/3 1002/7/3
f 1006/7/3 1002/7/3 1001/7/3
f 1007/7/3 1003/7/3 1006/7/3
f 1008/4/3 1005/4/3 1004/4/3
f 1009/4/3 1005/4/3 1008/4/3
f 1010/11/3 1001/11/3 1000/11/3
f 1011/7/3 1006/7/3 1001/7/3
f 1011/11/3 1001/11/3 1010/11/3
f 1012/7/3 1006/7/3 1011/7/3
f 1013/4/3 1010/4/3 1009/4/3
f 1014/4/3 1010/4/3 1013/4/3
f 1018/10/3 1016/10/3 1015/10/3
f 1018/10/3 1017/10/3 1016/10/3
f 1019/10/3 1017/10/3 1018/10/3
f 1022/13/3 1019/13/3 1018/13/3
f 1023/13/3 1019/13/3 1022/13/3
f 1024/10/3 1021/10/3 1020/10/3
f 1027/10/3 1021/10/3 1024/10/3
f 1028/10/3 1021/10/3 1027/10/3
f 1029/13/3 1026/13/3 1025/13/3
f 1030/13/3 1026/13/3 1029/13/3
f 1034/5/3 1032/5/3 1031/5/3
f 1035/5/3 1032/5/3 1034/5/3
f 1038/4/3 1034/4/3 1033/4/3
f 1039/4/3 1034/4/3 1038/4/3
f 1040/7/3 1036/7/3 1035/7/3
f 1041/11/3 1037/11/3 1036/11/3
f 1041/7/3 1036/7/3 1040/7/3
f 1042/11/3 1037/11/3 1041/11/3
f 1044/7/3 1040/7/3 1039/7/3
f 1045/7/3 1040/7/3 1044/7/3
f 1046/7/3 1043/7/3 1042/7/3
f 1047/7/3 1043/7/3 1046/7/3
f 1048/3/3 1045/3/3 1044/3/3
f 1050/7/3 1043/7/3 1047/7/3
f 1051/7/3 1043/7/3 1050/7/3
f 1053/3/3 1045/3/3 1048/3/3
f 1054/3/3 1045/3/3 1053/3/3
f 1056/11/3 1050/11/3 1049/11/3
f 1056/11/3 1051/11/3 1050/11/3
f 1057/11/3 1051/11/3 1056/11/3
f 1058/5/3 1053/5/3 1052/5/3
f 1059/5/3 1053/5/3 1058/5/3
f 1060/7/3 1055/7/3 1054/7/3
f 1060/7/3 1056/7/3 1055/7/3
f 1061/7/3 1056/7/3 1060/7/3
f 1062/4/3 1060/4/3 1059/4/3
f 1063/4/3 1060/4/3 1062/4/3
f 1066/10/3 1065/10/3 1064/10/3
f 1067/10/3 1065/10/3 1066/10/3
f 1069/10/3 1068/10/3 1067/10/3
f 1070/10/3 1068/10/3 1069/10/3
f 1071/13/3 1070/13/3 1069/13/3
f 1072/13/3 1070/13/3 1071/13/3
f 1074/13/3 1071/13/3 1069/13/3
f 1075/13/3 1071/13/3 1074/13/3
f 1077/10/3 1073/10/3 1072/10/3
f 1078/10/3 1073/10/3 1077/10/3
f 1079/13/3 1077/13/3 1076/13/3
f 1080/13/3 1077/13/3 1079/13/3
f 1083/7/3 1082/7/3 1081/7/3
f 1084/7/3 1082/7/3 1083/7/3
f 1087/11/3 1086/11/3 1085/11/3
f 1088/11/3 1086/11/3 1087/11/3
f 1091/10/3 1090/10/3 1089/10/3
f 1092/10/3 1090/10/3 1091/10/3
f 1094/10/3 1092/10/3 1091/10/3
f 1094/10/3 1093/10/3 1092/10/3
f 1095/10/3 1093/10/3 1094/10/3
f 1097/10/3 1093/10/3 1095/10/3
f 1098/10/3 1093/10/3 1097/10/3
f 1099/10/3 1097/10/3 1096/10/3
f 1100/10/3 1097/10/3 1099/10/3
f 1103/4/3 1102/4/3 1101/4/3
f 1104/4/3 1102/4/3 1103/4/3
f 1107/5/3 1106/5/3 1105/5/3
f 1108/5/3 1106/5/3 1107/5/3
f 1109/4/3 1108/4/3 1107/4/3
f 1110/4/3 1108/4/3 1109/4/3
f 1113/10/3 1112/10/3 1111/10/3
f 1114/10/3 1112/10/3 1113/10/3
f 1115/11/4 1116/11/4 1117/11/4
f 1117/11/4 1116/11/4 1118/11/4
f 1119/11/4 1120/11/4 1121/11/4
f 1121/11/4 1120/11/4 1122/11/4
f 1123/8/4 1124/8/4 1125/8/4
f 1125/8/4 1124/8/4 1126/8/4
f 1127/11/4 1128/11/4 1129/11/4
f 1129/11/4 1128/11/4 1130/11/4
f 1131/11/4 1132/11/4 1133/11/4
f 1133/11/4 1132/11/4 1134/11/4
f 1135/7/4 1136/7/4 1137/7/4
f 1137/7/4 1136/7/4 1138/7/4
f 1139/7/4 1140/7/4 1141/7/4
f 1141/7/4 1140/7/4 1142/7/4
f 1143/11/4 1144/11/4 1145/11/4
f 1145/11/4 1144/11/4 1146/11/4
f 1147/11/4 1148/11/4 1149/11/4
f 1149/11/4 1148/11/4 1150/11/4
f 1151/11/4 1152/11/4 1153/11/4
f 1151/11/4 1153/11/4 1155/11/4
f 1153/11/4 1154/11/4 1155/11/4
f 1155/11/4 1154/11/4 1156/11/4
f 1157/11/4 1158/11/4 1159/11/4
f 1159/11/4 1158/11/4 1160/11/4
f 1161/11/4 1162/11/4 1163/11/4
f 1163/11/4 1162/11/4 1164/11/4
f 1165/11/4 1166/11/4 1167/11/4
f 1167/11/4 1166/11/4 1168/11/4
f 1169/11/4 1170/11/4 1171/11/4
f 1171/11/4 1170/11/4 1172/11/4
f 1173/11/4 1174/11/4 1175/11/4
f 1175/11/4 1174/11/4 1176/11/4
f 1177/8/4 1178/8/4 1179/8/4
f 1179/8/4 1178/8/4 1180/8/4
f 1181/13/4 1182/13/4 1183/13/4
f 1183/13/4 1182/13/4 1184/13/4
f 1185/7/4 1186/7/4 1187/7/4
f 1187/7/4 1186/7/4 1188/7/4
f 1189/7/4 1190/7/4 1191/7/4
f 1191/7/4 1190/7/4 1192/7/4
f 1193/13/4 1194/13/4 1195/13/4
f 1195/13/4 1194/13/4 1196/13/4
f 1197/13/4 1198/13/4 1199/13/4
f 1199/13/4 1198/13/4 1200/13/4
f 1201/13/4 1202/13/4 1203/13/4
f 1203/13/4 1202/13/4 1204/13/4
f 1205/13/4 1206/13/4 1207/13/4
f 1207/13/4 1206/13/4 1208/13/4
f 1209/13/4 1210/13/4 1211/13/4
f 1211/13/4 1210/13/4 1212/13/4
f 1215/7/4 1216/7/4 1217/7/4
f 1217/7/4 1216/7/4 1218/7/4
f 1218/7/4 1216/7/4 1219/7/4
f 1219/7/4 1216/7/4 1220/7/4
f 1220/7/4 1216/7/4 1221/7/4
f 1219/7/4 1220/7/4 1225/7/4
f 1225/7/4 1220/7/4 1226/7/4
f 1221/8/4 1222/8/4 1227/8/4
f 1227/8/4 1222/8/4 1228/8/4
f 1213/13/4 1214/13/4 1229/13/4
f 1229/13/4 1214/13/4 1230/13/4
f 1225/7/4 1226/7/4 1231/7/4
f 1223/7/4 1224/7/4 1231/7/4
f 1224/7/4 1225/7/4 1231/7/4
f 1226/7/4 1227/7/4 1231/7/4
f 1231/7/4 1227/7/4 1232/7/4
f 1233/13/4 1234/13/4 1235/13/4
f 1235/13/4 1234/13/4 1236/13/4
f 1237/13/4 1238/13/4 1239/13/4
f 1239/13/4 1238/13/4 1240/13/4
f 1241/8/4 1242/8/4 1245/8/4
f 1245/8/4 1242/8/4 1246/8/4
f 1243/8/4 1244/8/4 1247/8/4
f 1247/8/4 1244/8/4 1248/8/4
f 1249/7/4 1250/7/4 1251/7/4
f 1251/7/4 1250/7/4 1252/7/4
f 1253/13/4 1254/13/4 1255/13/4
f 1255/13/4 1254/13/4 1256/13/4
f 1257/13/4 1258/13/4 1259/13/4
f 1259/13/4 1258/13/4 1260/13/4
f 1261/13/4 1262/13/4 1263/13/4
f 1263/13/4 1262/13/4 1264/13/4
f 1265/13/4 1266/13/4 1267/13/4
f 1267/13/4 1266/13/4 1268/13/4
f 1269/13/4 1270/13/4 1271/13/4
f 1271/13/4 1270/13/4 1272/13/4
f 1273/13/4 1274/13/4 1275/13/4
f 1275/13/4 1274/13/4 1276/13/4
f 1277/13/4 1278/13/4 1279/13/4
f 1279/13/4 1278/13/4 1280/13/4
f 1281/13/4 1282/13/4 1283/13/4
f 1283/13/4 1282/13/4 1284/13/4
f 1285/13/4 1286/13/4 1287/13/4
f 1287/13/4 1286/13/4 1288/13/4
f 1289/10/4 1290/10/4 1291/10/4
f 1291/10/4 1290/10/4 1292/10/4
f 1293/4/4 1294/4/4 1295/4/4
f 1295/4/4 1294/4/4 1296/4/4
f 1295/5/4 1296/5/4 1297/5/4
f 1297/5/4 1296/5/4 1298/5/4
f 1298/5/4 1296/5/4 1299/5/4
f 1300/5/4 1301/5/4 1302/5/4
f 1302/5/4 1301/5/4 1303/5/4
f 1304/10/4 1305/10/4 1306/10/4
f 1306/10/4 1305/10/4 1307/10/4
f 1308/10/4 1309/10/4 1310/10/4
f 1310/10/4 1309/10/4 1311/10/4
f 1311/10/4 1309/10/4 1312/10/4
f 1313/7/4 1314/7/4 1315/7/4
f 1315/7/4 1314/7/4 1316/7/4
f 1317/11/4 1318/11/4 1319/11/4
f 1319/11/4 1318/11/4 1320/11/4
f 1321/13/4 1322/13/4 1323/13/4
f 1323/13/4 1322/13/4 1324/13/4
f 1325/10/4 1326/10/4 1327/10/4
f 1327/10/4 1326/10/4 1328/10/4
f 1329/10/4 1330/10/4 1331/10/4
f 1331/10/4 1330/10/4 1332/10/4
f 1333/5/4 1334/5/4 1336/5/4
f 1336/5/4 1334/5/4 1337/5/4
f 1335/4/4 1336/4/4 1339/4/4
f 1339/4/4 1336/4/4 1340/4/4
f 1337/7/4 1338/7/4 1341/7/4
f 1341/7/4 1338/7/4 1342/7/4
f 1340/7/4 1341/7/4 1344/7/4
f 1344/7/4 1341/7/4 1345/7/4
f 1342/7/4 1343/7/4 1346/7/4
f 1346/7/4 1343/7/4 1347/7/4
f 1344/3/4 1345/3/4 1348/3/4
f 1347/7/4 1343/7/4 1350/7/4
f 1348/3/4 1345/3/4 1352/3/4
f 1352/3/4 1345/3/4 1353/3/4
f 1349/7/4 1350/7/4 1356/7/4
f 1350/7/4 1343/7/4 1357/7/4
f 1356/7/4 1350/7/4 1357/7/4
f 1351/4/4 1352/4/4 1358/4/4
f 1358/4/4 1352/4/4 1359/4/4
f 1354/7/4 1355/7/4 1360/7/4
f 1355/7/4 1356/7/4 1360/7/4
f 1353/7/4 1354/7/4 1360/7/4
f 1360/7/4 1356/7/4 1361/7/4
f 1359/4/4 1360/4/4 1362/4/4
f 1362/4/4 1360/4/4 1363/4/4
f 1364/13/4 1365/13/4 1366/13/4
f 1364/13/4 1366/13/4 1368/13/4
f 1366/13/4 1367/13/4 1368/13/4
f 1368/13/4 1367/13/4 1369/13/4
f 1370/10/4 1371/10/4 1372/10/4
f 1372/10/4 1371/10/4 1373/10/4
f 1373/10/4 1374/10/4 1375/10/4
f 1375/10/4 1374/10/4 1376/10/4
f 1377/4/4 1378/4/4 1380/4/4
f 1380/4/4 1378/4/4 1381/4/4
f 1381/7/4 1382/7/4 1383/7/4
f 1383/7/4 1382/7/4 1384/7/4
f 1384/7/4 1382/7/4 1385/7/4
f 1379/4/4 1380/4/4 1387/4/4
f 1387/4/4 1380/4/4 1388/4/4
f 1381/7/4 1383/7/4 1389/7/4
f 1385/7/4 1386/7/4 1390/7/4
f 1384/7/4 1385/7/4 1390/7/4
f 1390/7/4 1386/7/4 1391/7/4
f 1387/5/4 1388/5/4 1392/5/4
f 1392/5/4 1388/5/4 1393/5/4
f 1389/7/4 1383/7/4 1394/7/4
f 1383/11/4 1384/11/4 1395/11/4
f 1394/7/4 1383/7/4 1395/7/4
f 1384/7/4 1390/7/4 1396/7/4
f 1395/11/4 1384/11/4 1396/11/4
f 1396/7/4 1390/7/4 1397/7/4
f 1393/5/4 1394/5/4 1398/5/4
f 1398/5/4 1394/5/4 1399/5/4
f 1400/13/4 1401/13/4 1402/13/4
f 1402/13/4 1401/13/4 1403/13/4
f 1404/5/4 1405/5/4 1406/5/4
f 1406/5/4 1405/5/4 1407/5/4
f 1406/4/4 1407/4/4 1408/4/4
f 1408/4/4 1407/4/4 1409/4/4
f 1410/13/4 1411/13/4 1412/13/4
f 1412/13/4 1411/13/4 1413/13/4
f 1414/13/4 1415/13/4 1416/13/4
f 1416/13/4 1415/13/4 1417/13/4
f 1418/13/4 1419/13/4 1421/13/4
f 1420/13/4 1421/13/4 1422/13/4
f 1421/13/4 1419/13/4 1423/13/4
f 1422/13/4 1421/13/4 1423/13/4
f 1424/13/4 1425/13/4 1426/13/4
f 1426/13/4 1425/13/4 1427/13/4
f 1428/10/4 1429/10/4 1430/10/4
f 1430/10/4 1429/10/4 1431/10/4
f 1431/10/4 1432/10/4 1435/10/4
f 1435/10/4 1432/10/4 1436/10/4
f 1433/13/4 1434/13/4 1437/13/4
f 1434/10/4 1435/10/4 1438/10/4
f 1437/13/4 1434/13/4 1438/13/4
f 1438/10/4 1435/10/4 1439/10/4
f 1440/13/4 1441/13/4 1442/13/4
f 1442/13/4 1441/13/4 1443/13/4
f 1444/13/4 1445/13/4 1446/13/4
f 1446/13/4 1445/13/4 1447/13/4
f 1448/13/4 1449/13/4 1450/13/4
f 1450/13/4 1451/13/4 1452/13/4
f 1452/13/4 1453/13/4 1454/13/4
f 1454/13/4 1455/13/4 1456/13/4
f 1448/13/4 1450/13/4 1458/13/4
f 1450/13/4 1452/13/4 1458/13/4
f 1454/13/4 1456/13/4 1458/13/4
f 1452/13/4 1454/13/4 1458/13/4
f 1456/10/4 1457/10/4 1459/10/4
f 1458/13/4 1456/13/4 1459/13/4
f 1459/10/4 1457/10/4 1460/10/4
f 1468/13/5 1462/13/5 1461/13/5
f 1469/13/5 1462/13/5 1468/13/5
f 1472/13/5 1464/13/5 1463/13/5
f 1473/13/5 1464/13/5 1472/13/5
f 1476/13/5 1466/13/5 1465/13/5
f 1477/13/5 1466/13/5 1476/13/5
f 1479/13/5 1470/13/5 1469/13/5
f 1479/13/5 1468/13/5 1467/13/5
f 1479/13/5 1469/13/5 1468/13/5
f 1480/13/5 1470/13/5 1479/13/5
f 1481/13/5 1470/13/5 1480/13/5
f 1482/13/5 1470/13/5 1481/13/5
f 1483/13/5 1474/13/5 1473/13/5
f 1483/13/5 1472/13/5 1471/13/5
f 1483/13/5 1473/13/5 1472/13/5
f 1484/13/5 1474/13/5 1483/13/5
f 1485/13/5 1474/13/5 1484/13/5
f 1486/13/5 1474/13/5 1485/13/5
f 1487/13/5 1478/13/5 1477/13/5
f 1487/13/5 1477/13/5 1476/13/5
f 1487/13/5 1476/13/5 1475/13/5
f 1488/13/5 1478/13/5 1487/13/5
f 1489/13/5 1478/13/5 1488/13/5
f 1490/13/5 1478/13/5 1489/13/5
f 1491/13/5 1481/13/5 1480/13/5
f 1492/13/5 1481/13/5 1491/13/5
f 1493/13/5 1485/13/5 1484/13/5
f 1494/13/5 1485/13/5 1493/13/5
f 1495/13/5 1489/13/5 1488/13/5
f 1496/13/5 1489/13/5 1495/13/5
f 1504/13/5 1498/13/5 1497/13/5
f 1505/13/5 1498/13/5 1504/13/5
f 1508/13/5 1500/13/5 1499/13/5
f 1509/13/5 1500/13/5 1508/13/5
f 1512/13/5 1502/13/5 1501/13/5
f 1513/13/5 1502/13/5 1512/13/5
f 1515/13/5 1506/13/5 1505/13/5
f 1515/13/5 1504/13/5 1503/13/5
f 1515/13/5 1505/13/5 1504/13/5
f 1516/13/5 1506/13/5 1515/13/5
f 1517/13/5 1506/13/5 1516/13/5
f 1518/13/5 1506/13/5 1517/13/5
f 1519/13/5 1510/13/5 1509/13/5
f 1519/13/5 1508/13/5 1507/13/5
f 1519/13/5 1509/13/5 1508/13/5
f 1520/13/5 1510/13/5 1519/13/5
f 1521/13/5 1510/13/5 1520/13/5
f 1522/13/5 1510/13/5 1521/13/5
f 1523/13/5 1513/13/5 1512/13/5
f 1523/13/5 1514/13/5 1513/13/5
f 1523/13/5 1512/13/5 1511/13/5
f 1524/13/5 1514/13/5 1523/13/5
f 1525/13/5 1514/13/5 1524/13/5
f 1526/13/5 1514/13/5 1525/13/5
f 1527/13/5 1517/13/5 1516/13/5
f 1528/13/5 1517/13/5 1527/13/5
f 1529/13/5 1521/13/5 1520/13/5
f 1530/13/5 1521/13/5 1529/13/5
f 1531/13/5 1525/13/5 1524/13/5
f 1532/13/5 1525/13/5 1531/13/5
f 1540/13/5 1534/13/5 1533/13/5
f 1541/13/5 1534/13/5 1540/13/5
f 1544/13/5 1536/13/5 1535/13/5
f 1545/13/5 1536/13/5 1544/13/5
f 1548/13/5 1538/13/5 1537/13/5
f 1549/13/5 1538/13/5 1548/13/5
f 1551/13/5 1542/13/5 1541/13/5
f 1551/13/5 1540/13/5 1539/13/5
f 1551/13/5 1541/13/5 1540/13/5
f 1552/13/5 1542/13/5 1551/13/5
f 1553/13/5 1542/13/5 1552/13/5
f 1554/13/5 1542/13/5 1553/13/5
f 1555/13/5 1546/13/5 1545/13/5
f 1555/13/5 1544/13/5 1543/13/5
f 1555/13/5 1545/13/5 1544/13/5
f 1556/13/5 1546/13/5 1555/13/5
f 1557/13/5 1546/13/5 1556/13/5
f 1558/13/5 1546/13/5 1557/13/5
f 1559/13/5 1549/13/5 1548/13/5
f 1559/13/5 1550/13/5 1549/13/5
f 1559/13/5 1548/13/5 1547/13/5
f 1560/13/5 1550/13/5 1559/13/5
f 1561/13/5 1550/13/5 1560/13/5
f 1562/13/5 1550/13/5 1561/13/5
f 1563/13/5 1553/13/5 1552/13/5
f 1564/13/5 1553/13/5 1563/13/5
f 1565/13/5 1557/13/5 1556/13/5
f 1566/13/5 1557/13/5 1565/13/5
f 1567/13/5 1561/13/5 1560/13/5
f 1568/13/5 1561/13/5 1567/13/5
f 1571/7/5 1570/7/5 1569/7/5
f 1572/7/5 1570/7/5 1571/7/5
f 1573/7/5 1570/7/5 1572/7/5
f 1574/7/5 1570/7/5 1573/7/5
f 1579/7/5 1571/7/5 1569/7/5
f 1580/7/5 1573/7/5 1572/7/5
f 1581/7/5 1573/7/5 1580/7/5
f 1582/7/5 1570/7/5 1574/7/5
f 1583/11/5 1576/11/5 1575/11/5
f 1584/11/5 1576/11/5 1583/11/5
f 1585/11/5 1578/11/5 1577/11/5
f 1586/11/5 1578/11/5 1585/11/5
f 1587/7/5 1581/7/5 1580/7/5
f 1587/7/5 1579/7/5 1569/7/5
f 1587/7/5 1582/7/5 1581/7/5
f 1587/7/5 1580/7/5 1579/7/5
f 1588/7/5 1582/7/5 1587/7/5
f 1589/7/5 1582/7/5 1588/7/5
f 1590/7/5 1570/7/5 1582/7/5
f 1590/7/5 1582/7/5 1589/7/5
f 1591/7/5 1587/7/5 1569/7/5
f 1592/7/5 1589/7/5 1588/7/5
f 1593/7/5 1589/7/5 1592/7/5
f 1594/7/5 1570/7/5 1590/7/5
f 1595/7/5 1591/7/5 1569/7/5
f 1595/7/5 1594/7/5 1593/7/5
f 1595/7/5 1593/7/5 1592/7/5
f 1595/7/5 1592/7/5 1591/7/5
f 1596/7/5 1594/7/5 1595/7/5
f 1597/7/5 1594/7/5 1596/7/5
f 1598/7/5 1570/7/5 1594/7/5
f 1598/7/5 1594/7/5 1597/7/5
f 1599/7/5 1597/7/5 1596/7/5
f 1600/7/5 1597/7/5 1599/7/5
f 1605/4/5 1602/4/5 1601/4/5
f 1606/5/5 1603/5/5 1602/5/5
f 1606/4/5 1602/4/5 1605/4/5
f 1607/5/5 1603/5/5 1606/5/5
f 1608/5/5 1603/5/5 1607/5/5
f 1611/5/5 1605/5/5 1604/5/5
f 1612/5/5 1605/5/5 1611/5/5
f 1613/4/5 1609/4/5 1608/4/5
f 1614/4/5 1609/4/5 1613/4/5
f 1616/5/5 1611/5/5 1610/5/5
f 1617/5/5 1611/5/5 1616/5/5
f 1618/4/5 1615/4/5 1614/4/5
f 1619/4/5 1615/4/5 1618/4/5
f 1620/4/5 1617/4/5 1616/4/5
f 1621/4/5 1617/4/5 1620/4/5
f 1622/5/5 1619/5/5 1618/5/5
f 1623/5/5 1619/5/5 1622/5/5
f 1624/5/5 1621/5/5 1620/5/5
f 1625/5/5 1621/5/5 1624/5/5
f 1628/4/5 1623/4/5 1622/4/5
f 1629/4/5 1623/4/5 1628/4/5
f 1630/4/5 1626/4/5 1625/4/5
f 1631/4/5 1626/4/5 1630/4/5
f 1633/5/5 1628/5/5 1627/5/5
f 1634/5/5 1628/5/5 1633/5/5
f 1635/5/5 1632/5/5 1631/5/5
f 1636/4/5 1633/4/5 1632/4/5
f 1636/5/5 1632/5/5 1635/5/5
f 1637/4/5 1633/4/5 1636/4/5
f 1642/11/5 1639/11/5 1638/11/5
f 1643/11/5 1639/11/5 1642/11/5
f 1644/11/5 1641/11/5 1640/11/5
f 1645/11/5 1641/11/5 1644/11/5
f 1650/7/5 1647/7/5 1646/7/5
f 1651/11/5 1648/11/5 1647/11/5
f 1651/7/5 1647/7/5 1650/7/5
f 1652/11/5 1648/11/5 1651/11/5
f 1653/7/5 1650/7/5 1649/7/5
f 1654/7/5 1650/7/5 1653/7/5
f 1655/7/5 1650/7/5 1654/7/5
f 1656/7/5 1650/7/5 1655/7/5
f 1659/7/5 1658/7/5 1657/7/5
f 1659/7/5 1657/7/5 1656/7/5
f 1660/7/5 1658/7/5 1659/7/5
f 1661/7/5 1658/7/5 1660/7/5
f 1664/7/5 1663/7/5 1662/7/5
f 1665/7/5 1663/7/5 1664/7/5
f 1668/10/5 1667/10/5 1666/10/5
f 1669/10/5 1667/10/5 1668/10/5
f 1672/8/5 1671/8/5 1670/8/5
f 1673/8/5 1671/8/5 1672/8/5
f 1676/10/5 1675/10/5 1674/10/5
f 1677/10/5 1675/10/5 1676/10/5
f 1678/13/6 1679/13/6 1685/13/6
f 1685/13/6 1679/13/6 1686/13/6
f 1680/13/6 1681/13/6 1689/13/6
f 1689/13/6 1681/13/6 1690/13/6
f 1682/13/6 1683/13/6 1693/13/6
f 1693/13/6 1683/13/6 1694/13/6
f 1686/13/6 1687/13/6 1696/13/6
f 1684/13/6 1685/13/6 1696/13/6
f 1685/13/6 1686/13/6 1696/13/6
f 1696/13/6 1687/13/6 1697/13/6
f 1697/13/6 1687/13/6 1698/13/6
f 1698/13/6 1687/13/6 1699/13/6
f 1694/13/6 1695/13/6 1700/13/6
f 1693/13/6 1694/13/6 1700/13/6
f 1692/13/6 1693/13/6 1700/13/6
f 1700/13/6 1695/13/6 1701/13/6
f 1701/13/6 1695/13/6 1702/13/6
f 1702/13/6 1695/13/6 1703/13/6
f 1692/13/6 1700/13/6 1704/13/6
f 1704/13/6 1700/13/6 1705/13/6
f 1705/13/6 1700/13/6 1706/13/6
f 1701/13/6 1702/13/6 1707/13/6
f 1707/13/6 1702/13/6 1708/13/6
f 1703/13/6 1695/13/6 1709/13/6
f 1709/13/6 1695/13/6 1710/13/6
f 1710/13/6 1695/13/6 1711/13/6
f 1707/13/6 1708/13/6 1713/13/6
f 1709/13/6 1710/13/6 1713/13/6
f 1708/13/6 1709/13/6 1713/13/6
f 1705/13/6 1706/13/6 1713/13/6
f 1706/13/6 1707/13/6 1713/13/6
f 1713/13/6 1710/13/6 1714/13/6
f 1711/13/6 1695/13/6 1715/13/6
f 1715/13/6 1695/13/6 1716/13/6
f 1684/13/6 1696/13/6 1717/13/6
f 1697/13/6 1698/13/6 1718/13/6
f 1718/13/6 1698/13/6 1719/13/6
f 1699/13/6 1687/13/6 1720/13/6
f 1713/13/6 1714/13/6 1721/13/6
f 1712/13/6 1713/13/6 1721/13/6
f 1714/13/6 1715/13/6 1721/13/6
f 1721/13/6 1715/13/6 1722/13/6
f 1722/13/6 1715/13/6 1723/13/6
f 1723/13/6 1715/13/6 1724/13/6
f 1716/13/6 1695/13/6 1725/13/6
f 1692/13/6 1704/13/6 1726/13/6
f 1722/13/6 1723/13/6 1727/13/6
f 1727/13/6 1723/13/6 1728/13/6
f 1728/13/6 1723/13/6 1729/13/6
f 1729/13/6 1723/13/6 1730/13/6
f 1730/13/6 1723/13/6 1731/13/6
f 1731/13/6 1723/13/6 1732/13/6
f 1724/13/6 1725/13/6 1733/13/6
f 1726/13/6 1727/13/6 1734/13/6
f 1727/13/6 1728/13/6 1734/13/6
f 1729/13/6 1730/13/6 1735/13/6
f 1735/13/6 1730/13/6 1736/13/6
f 1731/13/6 1732/13/6 1737/13/6
f 1732/13/6 1733/13/6 1737/13/6
f 1718/13/6 1719/13/6 1738/13/6
f 1684/13/6 1717/13/6 1738/13/6
f 1719/13/6 1720/13/6 1738/13/6
f 1717/13/6 1718/13/6 1738/13/6
f 1738/13/6 1720/13/6 1739/13/6
f 1739/13/6 1720/13/6 1740/13/6
f 1720/13/6 1687/13/6 1741/13/6
f 1740/13/6 1720/13/6 1741/13/6
f 1684/13/6 1738/13/6 1742/13/6
f 1742/13/6 1738/13/6 1743/13/6
f 1743/13/6 1738/13/6 1744/13/6
f 1739/13/6 1740/13/6 1745/13/6
f 1745/13/6 1740/13/6 1746/13/6
f 1741/13/6 1687/13/6 1747/13/6
f 1747/13/6 1687/13/6 1748/13/6
f 1748/13/6 1687/13/6 1749/13/6
f 1690/13/6 1691/13/6 1750/13/6
f 1688/13/6 1689/13/6 1750/13/6
f 1689/13/6 1690/13/6 1750/13/6
f 1750/13/6 1691/13/6 1751/13/6
f 1751/13/6 1691/13/6 1752/13/6
f 1752/13/6 1691/13/6 1753/13/6
f 1736/13/6 1737/13/6 1754/13/6
f 1735/13/6 1736/13/6 1754/13/6
f 1692/13/6 1726/13/6 1754/13/6
f 1734/13/6 1735/13/6 1754/13/6
f 1726/13/6 1734/13/6 1754/13/6
f 1754/13/6 1737/13/6 1755/13/6
f 1737/13/6 1733/13/6 1756/13/6
f 1755/13/6 1737/13/6 1756/13/6
f 1725/13/6 1695/13/6 1756/13/6
f 1733/13/6 1725/13/6 1756/13/6
f 1756/13/6 1695/13/6 1757/13/6
f 1747/13/6 1748/13/6 1758/13/6
f 1746/13/6 1747/13/6 1758/13/6
f 1745/13/6 1746/13/6 1758/13/6
f 1743/13/6 1744/13/6 1758/13/6
f 1744/13/6 1745/13/6 1758/13/6
f 1758/13/6 1748/13/6 1759/13/6
f 1751/13/6 1752/13/6 1760/13/6
f 1760/13/6 1752/13/6 1761/13/6
f 1755/13/6 1756/13/6 1762/13/6
f 1762/13/6 1756/13/6 1763/13/6
f 1764/13/6 1765/13/6 1771/13/6
f 1771/13/6 1765/13/6 1772/13/6
f 1766/13/6 1767/13/6 1775/13/6
f 1775/13/6 1767/13/6 1776/13/6
f 1768/13/6 1769/13/6 1779/13/6
f 1779/13/6 1769/13/6 1780/13/6
f 1772/13/6 1773/13/6 1782/13/6
f 1770/13/6 1771/13/6 1782/13/6
f 1771/13/6 1772/13/6 1782/13/6
f 1782/13/6 1773/13/6 1783/13/6
f 1783/13/6 1773/13/6 1784/13/6
f 1784/13/6 1773/13/6 1785/13/6
f 1776/13/6 1777/13/6 1786/13/6
f 1774/13/6 1775/13/6 1786/13/6
f 1775/13/6 1776/13/6 1786/13/6
f 1786/13/6 1777/13/6 1787/13/6
f 1787/13/6 1777/13/6 1788/13/6
f 1788/13/6 1777/13/6 1789/13/6
f 1779/13/6 1780/13/6 1790/13/6
f 1780/13/6 1781/13/6 1790/13/6
f 1778/13/6 1779/13/6 1790/13/6
f 1790/13/6 1781/13/6 1791/13/6
f 1791/13/6 1781/13/6 1792/13/6
f 1792/13/6 1781/13/6 1793/13/6
f 1783/13/6 1784/13/6 1794/13/6
f 1794/13/6 1784/13/6 1795/13/6
f 1787/13/6 1788/13/6 1796/13/6
f 1796/13/6 1788/13/6 1797/13/6
f 1791/13/6 1792/13/6 1798/13/6
f 1798/13/6 1792/13/6 1799/13/6
f 1800/13/6 1801/13/6 1805/13/6
f 1805/13/6 1801/13/6 1806/13/6
f 1802/13/6 1803/13/6 1809/13/6
f 1809/13/6 1803/13/6 1810/13/6
f 1810/13/6 1803/13/6 1811/13/6
f 1808/13/6 1809/13/6 1812/13/6
f 1809/13/6 1810/13/6 1812/13/6
f 1812/13/6 1813/13/6 1814/13/6
f 1806/13/6 1807/13/6 1815/13/6
f 1804/13/6 1805/13/6 1815/13/6
f 1805/13/6 1806/13/6 1815/13/6
f 1815/13/6 1807/13/6 1816/13/6
f 1816/13/6 1807/13/6 1817/13/6
f 1817/13/6 1807/13/6 1818/13/6
f 1804/13/6 1815/13/6 1819/13/6
f 1819/13/6 1815/13/6 1820/13/6
f 1818/13/6 1807/13/6 1821/13/6
f 1821/13/6 1807/13/6 1822/13/6
f 1822/13/6 1807/13/6 1823/13/6
f 1804/13/6 1819/13/6 1824/13/6
f 1823/13/6 1807/13/6 1827/13/6
f 1812/13/6 1814/13/6 1828/13/6
f 1824/13/6 1825/13/6 1830/13/6
f 1826/13/6 1827/13/6 1832/13/6
f 1830/13/6 1831/13/6 1833/13/6
f 1831/13/6 1832/13/6 1833/13/6
f 1804/13/6 1824/13/6 1833/13/6
f 1824/13/6 1830/13/6 1833/13/6
f 1833/13/6 1832/13/6 1834/13/6
f 1832/13/6 1827/13/6 1835/13/6
f 1834/13/6 1832/13/6 1835/13/6
f 1827/13/6 1807/13/6 1835/13/6
f 1835/13/6 1807/13/6 1836/13/6
f 1812/13/6 1828/13/6 1837/13/6
f 1808/13/6 1812/13/6 1837/13/6
f 1828/13/6 1829/13/6 1837/13/6
f 1837/13/6 1829/13/6 1838/13/6
f 1838/13/6 1829/13/6 1839/13/6
f 1834/13/6 1835/13/6 1841/13/6
f 1841/13/6 1835/13/6 1842/13/6
f 1839/13/6 1840/13/6 1843/13/6
f 1838/13/6 1839/13/6 1843/13/6
f 1843/13/6 1840/13/6 1844/13/6
f 1845/11/6 1846/11/6 1847/11/6
f 1847/11/6 1846/11/6 1848/11/6
f 1849/11/6 1850/11/6 1853/11/6
f 1853/11/6 1850/11/6 1854/11/6
f 1851/11/6 1852/11/6 1855/11/6
f 1855/11/6 1852/11/6 1856/11/6
f 1857/13/6 1858/13/6 1860/13/6
f 1860/13/6 1858/13/6 1861/13/6
f 1861/13/6 1858/13/6 1862/13/6
f 1859/10/6 1860/10/6 1863/10/6
f 1860/10/6 1861/10/6 1863/10/6
f 1863/10/6 1861/10/6 1864/10/6
f 1864/10/6 1861/10/6 1865/10/6
f 1865/10/6 1861/10/6 1866/10/6
f 1867/4/6 1868/4/6 1872/4/6
f 1868/5/6 1869/5/6 1873/5/6
f 1872/4/6 1868/4/6 1873/4/6
f 1869/4/6 1870/4/6 1874/4/6
f 1873/5/6 1869/5/6 1874/5/6
f 1874/4/6 1870/4/6 1875/4/6
f 1871/4/6 1872/4/6 1876/4/6
f 1876/4/6 1872/4/6 1877/4/6
f 1877/4/6 1872/4/6 1878/4/6
f 1878/4/6 1872/4/6 1879/4/6
f 1865/13/6 1866/13/6 1883/13/6
f 1883/13/6 1866/13/6 1884/13/6
f 1880/4/6 1881/4/6 1885/4/6
f 1879/4/6 1880/4/6 1885/4/6
f 1881/5/6 1882/5/6 1886/5/6
f 1885/4/6 1881/4/6 1886/4/6
f 1886/5/6 1882/5/6 1887/5/6
f 1888/11/6 1889/11/6 1894/11/6
f 1894/11/6 1889/11/6 1895/11/6
f 1890/11/6 1891/11/6 1896/11/6
f 1896/11/6 1891/11/6 1897/11/6
f 1892/11/6 1893/11/6 1901/11/6
f 1900/11/6 1901/11/6 1902/11/6
f 1901/11/6 1893/11/6 1903/11/6
f 1902/11/6 1901/11/6 1903/11/6
f 1903/11/6 1893/11/6 1904/11/6
f 1904/11/6 1893/11/6 1905/11/6
f 1898/11/6 1899/11/6 1910/11/6
f 1910/11/6 1899/11/6 1911/11/6
f 1906/11/6 1907/11/6 1912/11/6
f 1912/11/6 1907/11/6 1913/11/6
f 1908/11/6 1909/11/6 1914/11/6
f 1914/11/6 1909/11/6 1915/11/6
f 1916/10/6 1917/10/6 1918/10/6
f 1918/10/6 1917/10/6 1919/10/6
f 1918/13/6 1919/13/6 1923/13/6
f 1920/4/6 1921/4/6 1925/4/6
f 1921/5/6 1922/5/6 1926/5/6
f 1925/4/6 1921/4/6 1926/4/6
f 1926/5/6 1922/5/6 1927/5/6
f 1924/5/6 1925/5/6 1930/5/6
f 1930/5/6 1925/5/6 1931/5/6
f 1927/4/6 1928/4/6 1932/4/6
f 1932/4/6 1928/4/6 1933/4/6
f 1929/5/6 1930/5/6 1935/5/6
f 1935/5/6 1930/5/6 1936/5/6
f 1933/4/6 1934/4/6 1937/4/6
f 1937/4/6 1934/4/6 1938/4/6
f 1935/4/6 1936/4/6 1939/4/6
f 1939/4/6 1936/4/6 1940/4/6
f 1937/5/6 1938/5/6 1941/5/6
f 1941/5/6 1938/5/6 1942/5/6
f 1918/13/6 1923/13/6 1943/13/6
f 1939/5/6 1940/5/6 1945/5/6
f 1945/5/6 1940/5/6 1946/5/6
f 1941/4/6 1942/4/6 1949/4/6
f 1949/4/6 1942/4/6 1950/4/6
f 1918/13/6 1943/13/6 1951/13/6
f 1943/13/6 1944/13/6 1951/13/6
f 1951/13/6 1944/13/6 1952/13/6
f 1946/4/6 1947/4/6 1953/4/6
f 1953/4/6 1947/4/6 1954/4/6
f 1948/5/6 1949/5/6 1956/5/6
f 1956/5/6 1949/5/6 1957/5/6
f 1954/5/6 1955/5/6 1958/5/6
f 1955/4/6 1956/4/6 1959/4/6
f 1958/5/6 1955/5/6 1959/5/6
f 1959/4/6 1956/4/6 1960/4/6
f 1952/13/6 1944/13/6 1961/13/6
f 1961/13/6 1944/13/6 1962/13/6
f 1963/11/6 1964/11/6 1967/11/6
f 1967/11/6 1964/11/6 1968/11/6
f 1965/11/6 1966/11/6 1969/11/6
f 1969/11/6 1966/11/6 1970/11/6
f 1971/7/6 1972/7/6 1973/7/6
f 1973/7/6 1972/7/6 1974/7/6
f 1975/10/6 1976/10/6 1981/10/6
f 1976/13/6 1977/13/6 1982/13/6
f 1980/10/6 1981/10/6 1984/10/6
f 1981/10/6 1976/10/6 1984/10/6
f 1982/13/6 1983/13/6 1985/13/6
f 1984/10/6 1976/10/6 1985/10/6
f 1976/13/6 1982/13/6 1985/13/6
f 1985/13/6 1983/13/6 1986/13/6
f 1986/13/6 1983/13/6 1987/13/6
f 1978/10/6 1979/10/6 1988/10/6
f 1988/10/6 1979/10/6 1989/10/6
f 1985/13/6 1986/13/6 1990/13/6
f 1990/13/6 1986/13/6 1991/13/6
f 1991/13/6 1986/13/6 1992/13/6
f 1987/13/6 1983/13/6 1993/13/6
f 1993/13/6 1983/13/6 1994/13/6
f 1989/10/6 1979/10/6 1995/10/6
f 1988/13/6 1989/13/6 1995/13/6
f 1995/10/6 1979/10/6 1996/10/6
f 1980/10/6 1984/10/6 1997/10/6
f 1997/10/6 1984/10/6 1998/10/6
f 1997/13/6 1998/13/6 1999/13/6
f 1999/13/6 2000/13/6 2001/13/6
f 1995/13/6 1996/13/6 2003/13/6
f 1988/13/6 1995/13/6 2003/13/6
f 2003/13/6 1996/13/6 2004/13/6
f 2001/13/6 2002/13/6 2005/13/6
f 1999/13/6 2001/13/6 2005/13/6
f 1997/13/6 1999/13/6 2005/13/6
f 2005/13/6 2002/13/6 2006/13/6
f 2006/13/6 2002/13/6 2007/13/6
f 2007/13/6 2002/13/6 2008/13/6
f 2009/10/6 2010/10/6 2011/10/6
f 2009/10/6 2011/10/6 2012/10/6
f 2012/10/6 2011/10/6 2013/10/6
f 2014/13/6 2015/13/6 2022/13/6
f 2022/13/6 2015/13/6 2023/13/6
f 2023/13/6 2015/13/6 2024/13/6
f 2016/13/6 2017/13/6 2025/13/6
f 2025/13/6 2017/13/6 2026/13/6
f 2018/7/6 2019/7/6 2028/7/6
f 2028/7/6 2019/7/6 2029/7/6
f 2020/7/6 2021/7/6 2030/7/6
f 2030/7/6 2021/7/6 2031/7/6
f 2027/11/6 2028/11/6 2033/11/6
f 2033/11/6 2028/11/6 2034/11/6
f 2031/7/6 2032/7/6 2035/7/6
f 2035/7/6 2032/7/6 2036/7/6
f 2037/7/6 2038/7/6 2043/7/6
f 2043/7/6 2038/7/6 2044/7/6
f 2039/7/6 2040/7/6 2047/7/6
f 2047/7/6 2040/7/6 2048/7/6
f 2044/7/6 2045/7/6 2049/7/6
f 2049/7/6 2045/7/6 2050/7/6
f 2046/7/6 2047/7/6 2051/7/6
f 2051/7/6 2047/7/6 2052/7/6
f 2041/13/6 2042/13/6 2053/13/6
f 2053/13/6 2042/13/6 2054/13/6
f 2055/7/6 2056/7/6 2057/7/6
f 2057/7/6 2056/7/6 2058/7/6
f 2059/8/6 2060/8/6 2061/8/6
f 2061/8/6 2060/8/6 2062/8/6
f 2063/10/6 2064/10/6 2067/10/6
f 2067/10/6 2064/10/6 2068/10/6
f 2065/10/6 2066/10/6 2071/10/6
f 2069/7/6 2070/7/6 2072/7/6
f 2072/7/6 2070/7/6 2073/7/6
f 2065/10/6 2071/10/6 2074/10/6
f 2074/10/6 2071/10/6 2075/10/6
f 2065/10/6 2074/10/6 2080/10/6
f 2080/10/6 2074/10/6 2081/10/6
f 2076/7/6 2077/7/6 2082/7/6
f 2082/7/6 2077/7/6 2083/7/6
f 2078/11/6 2079/11/6 2084/11/6
f 2084/11/6 2079/11/6 2085/11/6
f 2086/7/6 2087/7/6 2088/7/6
f 2088/7/6 2087/7/6 2089/7/6
f 2090/10/6 2091/10/6 2099/10/6
f 2091/13/6 2092/13/6 2100/13/6
f 2099/10/6 2091/10/6 2100/10/6
f 2100/13/6 2092/13/6 2101/13/6
f 2093/13/6 2094/13/6 2102/13/6
f 2102/13/6 2094/13/6 2103/13/6
f 2096/11/6 2097/11/6 2104/11/6
f 2095/7/6 2096/7/6 2104/7/6
f 2104/11/6 2097/11/6 2105/11/6
f 2098/10/6 2099/10/6 2106/10/6
f 2106/10/6 2099/10/6 2107/10/6
f 2104/7/6 2105/7/6 2108/7/6
f 2095/7/6 2104/7/6 2108/7/6
f 2108/7/6 2105/7/6 2109/7/6
f 2110/13/6 2111/13/6 2112/13/6
f 2112/13/6 2111/13/6 2113/13/6
f 2114/10/6 2115/10/6 2116/10/6
f 2116/10/6 2115/10/6 2117/10/6
f 2118/10/6 2119/10/6 2122/10/6
f 2122/10/6 2119/10/6 2123/10/6
f 2120/10/6 2121/10/6 2125/10/6
f 2121/13/6 2122/13/6 2126/13/6
f 2125/10/6 2121/10/6 2126/10/6
f 2126/13/6 2122/13/6 2127/13/6
f 2123/13/6 2124/13/6 2128/13/6
f 2128/13/6 2124/13/6 2129/13/6
f 2120/10/6 2125/10/6 2130/10/6
f 2130/10/6 2125/10/6 2131/10/6
f 2131/13/6 2132/13/6 2133/13/6
f 2131/13/6 2133/13/6 2135/13/6
f 2133/13/6 2134/13/6 2135/13/6
f 2135/13/6 2134/13/6 2136/13/6
f 2137/7/6 2138/7/6 2141/7/6
f 2139/7/6 2140/7/6 2142/7/6
f 2137/7/6 2141/7/6 2143/7/6
f 2141/7/6 2142/7/6 2143/7/6
f 2142/7/6 2140/7/6 2144/7/6
f 2143/7/6 2142/7/6 2144/7/6
f 2137/7/6 2143/7/6 2145/7/6
f 2144/7/6 2140/7/6 2146/7/6
f 2137/7/6 2145/7/6 2147/7/6
f 2145/7/6 2146/7/6 2147/7/6
f 2146/7/6 2140/7/6 2148/7/6
f 2147/7/6 2146/7/6 2148/7/6
f 2137/7/6 2147/7/6 2149/7/6
f 2149/7/6 2147/7/6 2150/7/6
f 2148/7/6 2140/7/6 2151/7/6
f 2151/7/6 2140/7/6 2152/7/6
f 2150/8/6 2151/8/6 2153/8/6
f 2153/8/6 2151/8/6 2154/8/6
f 2155/10/6 2156/10/6 2159/10/6
f 2159/10/6 2156/10/6 2160/10/6
f 2157/10/6 2158/10/6 2164/10/6
f 2164/10/6 2158/10/6 2165/10/6
f 2162/3/6 2163/3/6 2166/3/6
f 2166/3/6 2163/3/6 2167/3/6
f 2165/10/6 2158/10/6 2168/10/6
f 2168/10/6 2158/10/6 2169/10/6
f 2160/10/6 2161/10/6 2170/10/6
f 2170/10/6 2161/10/6 2171/10/6
f 2169/10/6 2170/10/6 2172/10/6
f 2172/10/6 2170/10/6 2173/10/6
f 2174/10/6 2175/10/6 2176/10/6
f 2176/10/6 2175/10/6 2177/10/6
f 2174/10/6 2176/10/6 2178/10/6
f 2177/10/6 2175/10/6 2179/10/6
f 2174/10/6 2178/10/6 2180/10/6
f 2178/10/6 2179/10/6 2180/10/6
f 2179/10/6 2175/10/6 2181/10/6
f 2180/10/6 2179/10/6 2181/10/6
f 2182/8/6 2183/8/6 2184/8/6
f 2184/8/6 2183/8/6 2185/8/6
f 2186/8/6 2187/8/6 2188/8/6
f 2188/8/6 2187/8/6 2189/8/6
f 2190/8/6 2191/8/6 2192/8/6
f 2192/8/6 2191/8/6 2193/8/6
