# MagicaVoxel @ Ephtracy

# group
o 

# material
mtllib chapter_three_tile.mtl
usemtl palette

# normals
vn -1 0 0
vn 1 0 0
vn 0 0 1
vn 0 0 -1
vn 0 -1 0
vn 0 1 0

# texcoords
vt 0.138672 0.5
vt 0.275391 0.5
vt 0.283203 0.5
vt 0.517578 0.5
vt 0.556641 0.5
vt 0.705078 0.5
vt 0.720703 0.5
vt 0.751953 0.5
vt 0.837891 0.5
vt 0.958984 0.5
vt 0.962891 0.5
vt 0.966797 0.5
vt 0.990234 0.5

# verts
v -1.9 0.3 1.8
v -1.9 0.3 0.5
v -1.9 0.3 -1.8
v -1.9 0.5 0.5
v -1.9 0.5 -0.1
v -1.9 0.5 -1.8
v -1.9 0.6 1.8
v -1.9 0.6 -0.1
v -1.9 0.8 1.6
v -1.9 0.8 1.2
v -1.9 1.2 1.6
v -1.9 1.2 1.2
v -1.8 0.3 1.9
v -1.8 0.3 1.8
v -1.8 0.6 1.9
v -1.8 0.6 1.8
v -1.8 0.7 1.9
v -1.8 0.7 0.9
v -1.8 0.8 1.6
v -1.8 0.8 1.2
v -1.8 1.2 1.6
v -1.8 1.2 1.2
v -1.8 1.7 1.9
v -1.8 1.7 0.9
v -1.7 0.5 -0.8
v -1.7 0.5 -1.6
v -1.7 0.6 1.7
v -1.7 0.6 1
v -1.7 0.6 -0.8
v -1.7 0.6 -1.6
v -1.7 0.7 1.7
v -1.7 0.7 1
v -1.5 0.5 -1.6
v -1.5 0.5 -1.8
v -1.5 0.6 -1.6
v -1.5 0.6 -1.8
v -1.3 0.5 -0.4
v -1.3 0.5 -0.8
v -1.3 0.6 -0.4
v -1.3 0.6 -0.8
v -1.1 0.6 1.7
v -1.1 0.6 1
v -1.1 0.7 1.7
v -1.1 0.7 1
v -0.5 0.6 1.9
v -0.5 0.6 1.4
v -0.5 0.6 1.3
v -0.5 0.6 1.2
v -0.5 0.7 1.9
v -0.5 0.7 1.4
v -0.5 0.7 1.3
v -0.5 0.7 1.2
v -0.4 0.6 1.4
v -0.4 0.6 1.3
v -0.4 0.7 1.4
v -0.4 0.7 1.3
v -0.2 0.5 1.9
v -0.2 0.5 1.7
v -0.2 0.6 1.9
v -0.2 0.6 1.7
v 0.4 0.5 0.5
v 0.4 0.5 0.1
v 0.4 0.6 0.5
v 0.4 0.6 0.1
v 0.8 0.5 -0.8
v 0.8 0.5 -1.8
v 0.8 0.7 -0.8
v 0.8 0.7 -1.8
v 0.9 0.5 1.5
v 0.9 0.5 1.3
v 0.9 0.7 1.5
v 0.9 0.7 1.3
v 1 0.5 -0.6
v 1 0.5 -0.8
v 1 0.7 -0.6
v 1 0.7 -0.8
v 1 0.7 -1
v 1 0.7 -1.8
v 1 0.9 -1
v 1 0.9 -1.8
v 1.1 0.5 1.7
v 1.1 0.5 1.5
v 1.1 0.5 1.3
v 1.1 0.5 1.1
v 1.1 0.7 1.7
v 1.1 0.7 1.5
v 1.1 0.7 1.3
v 1.1 0.7 1.1
v 1.1 0.9 1.5
v 1.1 0.9 1.3
v 1.2 0.7 -0.8
v 1.2 0.7 -1
v 1.2 0.9 -0.8
v 1.2 0.9 -1
v 1.4 0.9 -1.4
v 1.4 0.9 -1.8
v 1.4 1.1 -1.4
v 1.4 1.1 -1.8
v -1.5 0.6 1.7
v -1.5 0.6 1
v -1.5 0.7 1.7
v -1.5 0.7 1
v -0.9 0.6 1.7
v -0.9 0.6 1
v -0.9 0.7 1.7
v -0.9 0.7 1
v -0.8 0.5 0.3
v -0.8 0.5 -0.1
v -0.8 0.6 0.3
v -0.8 0.6 -0.1
v -0.8 0.7 1.9
v -0.8 0.7 0.9
v -0.8 0.8 1.6
v -0.8 0.8 1.2
v -0.8 1.2 1.6
v -0.8 1.2 1.2
v -0.8 1.7 1.9
v -0.8 1.7 0.9
v -0.7 0.8 1.6
v -0.7 0.8 1.2
v -0.7 1.2 1.6
v -0.7 1.2 1.2
v -0.6 0.5 0.5
v -0.6 0.5 0.3
v -0.6 0.6 0.5
v -0.6 0.6 0.3
v -0.4 0.5 1.9
v -0.4 0.5 1.7
v -0.4 0.5 0.9
v -0.4 0.5 0.5
v -0.4 0.6 1.9
v -0.4 0.6 1.8
v -0.4 0.6 1.7
v -0.4 0.6 0.9
v -0.4 0.6 0.5
v -0.3 0.5 -0.4
v -0.3 0.5 -0.6
v -0.3 0.5 -1.6
v -0.3 0.5 -1.8
v -0.3 0.6 -0.4
v -0.3 0.6 -0.6
v -0.3 0.6 -1.6
v -0.3 0.6 -1.8
v -0.2 0.6 1.9
v -0.2 0.6 1.8
v -0.2 0.6 1.4
v -0.2 0.6 1.3
v -0.2 0.7 1.9
v -0.2 0.7 1.8
v -0.2 0.7 1.4
v -0.2 0.7 1.3
v -0.1 0.5 -0.6
v -0.1 0.5 -1.6
v -0.1 0.6 1.8
v -0.1 0.6 1.4
v -0.1 0.6 1.3
v -0.1 0.6 1.2
v -0.1 0.6 -0.6
v -0.1 0.6 -1.6
v -0.1 0.7 1.8
v -0.1 0.7 1.4
v -0.1 0.7 1.3
v -0.1 0.7 1.2
v 0.1 0.5 1.9
v 0.1 0.5 0.9
v 0.1 0.6 1.9
v 0.1 0.6 0.9
v 0.8 0.5 0.5
v 0.8 0.5 0.1
v 0.8 0.6 0.5
v 0.8 0.6 0.1
v 1.5 0.5 1.7
v 1.5 0.5 1.5
v 1.5 0.5 1.3
v 1.5 0.5 1.1
v 1.5 0.7 1.7
v 1.5 0.7 1.5
v 1.5 0.7 1.3
v 1.5 0.7 1.1
v 1.5 0.9 1.5
v 1.5 0.9 1.3
v 1.7 0.5 1.5
v 1.7 0.5 1.3
v 1.7 0.7 1.5
v 1.7 0.7 1.3
v 1.8 0.3 1.9
v 1.8 0.3 1.8
v 1.8 0.5 1.9
v 1.8 0.5 1.8
v 1.8 0.9 -1.4
v 1.8 0.9 -1.7
v 1.8 0.9 -1.8
v 1.8 1.1 -1.4
v 1.8 1.1 -1.8
v 1.9 0.3 1.8
v 1.9 0.3 -0.6
v 1.9 0.3 -1.8
v 1.9 0.5 1.8
v 1.9 0.5 -0.6
v 1.9 0.7 -0.6
v 1.9 0.7 -0.8
v 1.9 0.8 -1
v 1.9 0.8 -1.1
v 1.9 0.8 -1.3
v 1.9 0.8 -1.7
v 1.9 0.9 -0.8
v 1.9 0.9 -1
v 1.9 0.9 -1.1
v 1.9 0.9 -1.3
v 1.9 0.9 -1.7
v 1.9 0.9 -1.8
v -1.8 0.3 1.9
v -1.8 0.6 1.9
v -1.8 0.7 1.9
v -1.8 1.7 1.9
v -1.7 0.8 1.9
v -1.7 1.6 1.9
v -1.5 1.2 1.9
v -1.5 1.4 1.9
v -1.4 1.1 1.9
v -1.4 1.2 1.9
v -1.4 1.4 1.9
v -1.4 1.5 1.9
v -1.4 1.6 1.9
v -1.2 1.1 1.9
v -1.2 1.2 1.9
v -1.2 1.4 1.9
v -1.2 1.5 1.9
v -1.2 1.6 1.9
v -1.1 1.2 1.9
v -1.1 1.4 1.9
v -0.9 0.8 1.9
v -0.9 1.6 1.9
v -0.8 0.7 1.9
v -0.8 1.7 1.9
v -0.5 0.6 1.9
v -0.5 0.7 1.9
v -0.4 0.5 1.9
v -0.4 0.6 1.9
v -0.2 0.5 1.9
v -0.2 0.6 1.9
v -0.2 0.7 1.9
v 0.1 0.3 1.9
v 0.1 0.5 1.9
v 0.1 0.6 1.9
v 1.8 0.3 1.9
v 1.8 0.5 1.9
v -1.9 0.3 1.8
v -1.9 0.6 1.8
v -1.8 0.3 1.8
v -1.8 0.6 1.8
v -0.2 0.6 1.8
v -0.2 0.7 1.8
v -0.1 0.6 1.8
v -0.1 0.7 1.8
v 1.8 0.3 1.8
v 1.8 0.5 1.8
v 1.9 0.3 1.8
v 1.9 0.5 1.8
v -1.7 0.6 1.7
v -1.7 0.7 1.7
v -1.5 0.6 1.7
v -1.5 0.7 1.7
v -1.1 0.6 1.7
v -1.1 0.7 1.7
v -0.9 0.6 1.7
v -0.9 0.7 1.7
v -0.4 0.5 1.7
v -0.4 0.6 1.7
v -0.3 0.6 1.7
v -0.2 0.5 1.7
v -0.2 0.6 1.7
v 1.1 0.5 1.7
v 1.1 0.7 1.7
v 1.5 0.5 1.7
v 1.5 0.7 1.7
v -1.9 0.8 1.6
v -1.9 1.2 1.6
v -1.8 0.8 1.6
v -1.8 1.2 1.6
v -0.8 0.8 1.6
v -0.8 1.2 1.6
v -0.7 0.8 1.6
v -0.7 1.2 1.6
v 0.9 0.5 1.5
v 0.9 0.7 1.5
v 1.1 0.5 1.5
v 1.1 0.7 1.5
v 1.1 0.9 1.5
v 1.5 0.5 1.5
v 1.5 0.7 1.5
v 1.5 0.9 1.5
v 1.7 0.5 1.5
v 1.7 0.7 1.5
v -0.5 0.6 1.3
v -0.5 0.7 1.3
v -0.4 0.6 1.3
v -0.4 0.7 1.3
v -0.2 0.6 1.3
v -0.2 0.7 1.3
v -0.1 0.6 1.3
v -0.1 0.7 1.3
v 0.4 0.5 0.5
v 0.4 0.6 0.5
v 0.8 0.5 0.5
v 0.8 0.6 0.5
v -1.3 0.5 -0.4
v -1.3 0.6 -0.4
v -0.3 0.5 -0.4
v -0.3 0.6 -0.4
v -0.3 0.5 -0.6
v -0.3 0.6 -0.6
v -0.1 0.5 -0.6
v -0.1 0.6 -0.6
v 1 0.5 -0.6
v 1 0.7 -0.6
v 1.9 0.5 -0.6
v 1.9 0.7 -0.6
v -1.7 0.5 -0.8
v -1.7 0.6 -0.8
v -1.3 0.5 -0.8
v -1.3 0.6 -0.8
v 0.8 0.5 -0.8
v 0.8 0.7 -0.8
v 1 0.5 -0.8
v 1 0.7 -0.8
v 1.2 0.7 -0.8
v 1.2 0.9 -0.8
v 1.9 0.7 -0.8
v 1.9 0.9 -0.8
v 1 0.7 -1
v 1 0.9 -1
v 1.2 0.7 -1
v 1.2 0.9 -1
v 1.4 0.9 -1.4
v 1.4 1.1 -1.4
v 1.8 0.9 -1.4
v 1.8 1.1 -1.4
v -0.5 0.6 1.4
v -0.5 0.7 1.4
v -0.4 0.6 1.4
v -0.4 0.7 1.4
v -0.2 0.6 1.4
v -0.2 0.7 1.4
v -0.1 0.6 1.4
v -0.1 0.7 1.4
v 0.9 0.5 1.3
v 0.9 0.7 1.3
v 1.1 0.5 1.3
v 1.1 0.7 1.3
v 1.1 0.9 1.3
v 1.5 0.5 1.3
v 1.5 0.7 1.3
v 1.5 0.9 1.3
v 1.7 0.5 1.3
v 1.7 0.7 1.3
v -1.9 0.8 1.2
v -1.9 1.2 1.2
v -1.8 0.8 1.2
v -1.8 1.2 1.2
v -0.8 0.8 1.2
v -0.8 1.2 1.2
v -0.7 0.8 1.2
v -0.7 1.2 1.2
v -0.5 0.6 1.2
v -0.5 0.7 1.2
v -0.1 0.6 1.2
v -0.1 0.7 1.2
v 1.1 0.5 1.1
v 1.1 0.7 1.1
v 1.5 0.5 1.1
v 1.5 0.7 1.1
v -1.7 0.6 1
v -1.7 0.7 1
v -1.5 0.6 1
v -1.5 0.7 1
v -1.1 0.6 1
v -1.1 0.7 1
v -0.9 0.6 1
v -0.9 0.7 1
v -1.8 0.7 0.9
v -1.8 1.7 0.9
v -0.8 0.7 0.9
v -0.8 1.7 0.9
v -0.4 0.5 0.9
v -0.4 0.6 0.9
v 0.1 0.5 0.9
v 0.1 0.6 0.9
v -0.6 0.5 0.5
v -0.6 0.6 0.5
v -0.4 0.5 0.5
v -0.4 0.6 0.5
v -0.8 0.5 0.3
v -0.8 0.6 0.3
v -0.6 0.5 0.3
v -0.6 0.6 0.3
v 0.4 0.5 0.1
v 0.4 0.6 0.1
v 0.8 0.5 0.1
v 0.8 0.6 0.1
v -1.9 0.5 -0.1
v -1.9 0.6 -0.1
v -0.8 0.5 -0.1
v -0.8 0.6 -0.1
v -1.7 0.5 -1.6
v -1.7 0.6 -1.6
v -1.5 0.5 -1.6
v -1.5 0.6 -1.6
v -0.3 0.5 -1.6
v -0.3 0.6 -1.6
v -0.1 0.5 -1.6
v -0.1 0.6 -1.6
v -1.9 0.3 -1.8
v -1.9 0.5 -1.8
v -1.5 0.5 -1.8
v -1.5 0.6 -1.8
v -0.3 0.5 -1.8
v -0.3 0.6 -1.8
v 0.8 0.3 -1.8
v 0.8 0.5 -1.8
v 0.8 0.7 -1.8
v 1 0.7 -1.8
v 1 0.9 -1.8
v 1.4 0.9 -1.8
v 1.4 1.1 -1.8
v 1.8 0.9 -1.8
v 1.8 1.1 -1.8
v 1.9 0.3 -1.8
v 1.9 0.9 -1.8
v -1.8 0.3 1.9
v 0.1 0.3 1.9
v 1.8 0.3 1.9
v -1.9 0.3 1.8
v -1.8 0.3 1.8
v 1.8 0.3 1.8
v 1.9 0.3 1.8
v -0.4 0.3 1.7
v 0.1 0.3 1.7
v -1.9 0.3 0.5
v -0.4 0.3 0.5
v 0.8 0.3 -0.6
v 1.9 0.3 -0.6
v -1.9 0.3 -1.8
v 0.8 0.3 -1.8
v 1.9 0.3 -1.8
v -0.4 0.6 1.9
v -0.2 0.6 1.9
v -0.4 0.6 1.8
v -0.3 0.6 1.8
v -0.4 0.6 1.7
v -0.3 0.6 1.7
v -0.2 0.6 1.7
v -1.8 0.7 1.9
v -0.8 0.7 1.9
v -1.7 0.7 1.7
v -1.5 0.7 1.7
v -1.1 0.7 1.7
v -0.9 0.7 1.7
v -1.7 0.7 1
v -1.5 0.7 1
v -1.1 0.7 1
v -0.9 0.7 1
v -1.8 0.7 0.9
v -0.8 0.7 0.9
v -1.9 0.8 1.6
v -1.8 0.8 1.6
v -0.8 0.8 1.6
v -0.7 0.8 1.6
v -1.9 0.8 1.2
v -1.8 0.8 1.2
v -0.8 0.8 1.2
v -0.7 0.8 1.2
v -0.4 0.5 1.9
v -0.2 0.5 1.9
v 0.1 0.5 1.9
v 1.8 0.5 1.9
v 1.8 0.5 1.8
v 1.9 0.5 1.8
v -0.4 0.5 1.7
v -0.2 0.5 1.7
v 1.1 0.5 1.7
v 1.5 0.5 1.7
v 0.9 0.5 1.5
v 1.1 0.5 1.5
v 1.5 0.5 1.5
v 1.7 0.5 1.5
v 0.9 0.5 1.3
v 1.1 0.5 1.3
v 1.5 0.5 1.3
v 1.7 0.5 1.3
v 1.1 0.5 1.1
v 1.5 0.5 1.1
v -0.4 0.5 0.9
v 0.1 0.5 0.9
v -0.6 0.5 0.5
v -0.4 0.5 0.5
v 0.4 0.5 0.5
v 0.8 0.5 0.5
v -0.8 0.5 0.3
v -0.6 0.5 0.3
v 0.4 0.5 0.1
v 0.8 0.5 0.1
v -1.9 0.5 -0.1
v -0.8 0.5 -0.1
v -1.3 0.5 -0.4
v -0.3 0.5 -0.4
v -0.3 0.5 -0.6
v -0.1 0.5 -0.6
v 0.8 0.5 -0.6
v 1 0.5 -0.6
v 1.9 0.5 -0.6
v -1.7 0.5 -0.8
v -1.3 0.5 -0.8
v 0.8 0.5 -0.8
v 1 0.5 -0.8
v -1.7 0.5 -1.6
v -1.5 0.5 -1.6
v -0.3 0.5 -1.6
v -0.1 0.5 -1.6
v -1.9 0.5 -1.8
v -1.5 0.5 -1.8
v -0.3 0.5 -1.8
v 0.8 0.5 -1.8
v -1.8 0.6 1.9
v -0.5 0.6 1.9
v -0.2 0.6 1.9
v 0.1 0.6 1.9
v -1.9 0.6 1.8
v -1.8 0.6 1.8
v -0.2 0.6 1.8
v -0.1 0.6 1.8
v -1.7 0.6 1.7
v -1.5 0.6 1.7
v -1.1 0.6 1.7
v -0.9 0.6 1.7
v -0.5 0.6 1.4
v -0.4 0.6 1.4
v -0.2 0.6 1.4
v -0.1 0.6 1.4
v -0.5 0.6 1.3
v -0.4 0.6 1.3
v -0.2 0.6 1.3
v -0.1 0.6 1.3
v -0.5 0.6 1.2
v -0.1 0.6 1.2
v -1.7 0.6 1
v -1.5 0.6 1
v -1.1 0.6 1
v -0.9 0.6 1
v -0.4 0.6 0.9
v 0.1 0.6 0.9
v -0.6 0.6 0.5
v -0.4 0.6 0.5
v 0.4 0.6 0.5
v 0.8 0.6 0.5
v -0.8 0.6 0.3
v -0.6 0.6 0.3
v 0.5 0.6 0.3
v 0.6 0.6 0.3
v 0.5 0.6 0.2
v 0.6 0.6 0.2
v 0.4 0.6 0.1
v 0.8 0.6 0.1
v -1.9 0.6 -0.1
v -0.8 0.6 -0.1
v -1.3 0.6 -0.4
v -0.3 0.6 -0.4
v -0.3 0.6 -0.6
v -0.1 0.6 -0.6
v -1.7 0.6 -0.8
v -1.3 0.6 -0.8
v -1.6 0.6 -1.3
v -1.5 0.6 -1.3
v -1.5 0.6 -1.4
v -1.3 0.6 -1.4
v -1.6 0.6 -1.5
v -1.4 0.6 -1.5
v -1.7 0.6 -1.6
v -1.5 0.6 -1.6
v -1.3 0.6 -1.6
v -1 0.6 -1.6
v -0.8 0.6 -1.6
v -0.7 0.6 -1.6
v -0.3 0.6 -1.6
v -0.1 0.6 -1.6
v -1.4 0.6 -1.7
v -1 0.6 -1.7
v -0.8 0.6 -1.7
v -0.7 0.6 -1.7
v -1.5 0.6 -1.8
v -0.3 0.6 -1.8
v -0.5 0.7 1.9
v -0.2 0.7 1.9
v -0.4 0.7 1.8
v -0.3 0.7 1.8
v -0.2 0.7 1.8
v -0.1 0.7 1.8
v -0.4 0.7 1.7
v -0.3 0.7 1.7
v 1.1 0.7 1.7
v 1.5 0.7 1.7
v 0.9 0.7 1.5
v 1.1 0.7 1.5
v 1.5 0.7 1.5
v 1.7 0.7 1.5
v -0.5 0.7 1.4
v -0.4 0.7 1.4
v -0.2 0.7 1.4
v -0.1 0.7 1.4
v -0.5 0.7 1.3
v -0.4 0.7 1.3
v -0.2 0.7 1.3
v -0.1 0.7 1.3
v 0.9 0.7 1.3
v 1.1 0.7 1.3
v 1.5 0.7 1.3
v 1.7 0.7 1.3
v -0.5 0.7 1.2
v -0.1 0.7 1.2
v 1.1 0.7 1.1
v 1.5 0.7 1.1
v 1 0.7 -0.6
v 1.9 0.7 -0.6
v 0.8 0.7 -0.8
v 1 0.7 -0.8
v 1.2 0.7 -0.8
v 1.9 0.7 -0.8
v 1 0.7 -1
v 1.2 0.7 -1
v 0.8 0.7 -1.8
v 1 0.7 -1.8
v 1.1 0.9 1.5
v 1.5 0.9 1.5
v 1.1 0.9 1.3
v 1.5 0.9 1.3
v 1.2 0.9 -0.8
v 1.9 0.9 -0.8
v 1 0.9 -1
v 1.2 0.9 -1
v 1.8 0.9 -1
v 1.9 0.9 -1
v 1.8 0.9 -1.1
v 1.9 0.9 -1.1
v 1.8 0.9 -1.3
v 1.9 0.9 -1.3
v 1.4 0.9 -1.4
v 1.8 0.9 -1.4
v 1.8 0.9 -1.7
v 1.9 0.9 -1.7
v 1 0.9 -1.8
v 1.4 0.9 -1.8
v 1.8 0.9 -1.8
v 1.9 0.9 -1.8
v 1.4 1.1 -1.4
v 1.8 1.1 -1.4
v 1.4 1.1 -1.8
v 1.8 1.1 -1.8
v -1.9 1.2 1.6
v -1.8 1.2 1.6
v -0.8 1.2 1.6
v -0.7 1.2 1.6
v -1.9 1.2 1.2
v -1.8 1.2 1.2
v -0.8 1.2 1.2
v -0.7 1.2 1.2
v -1.8 1.7 1.9
v -0.8 1.7 1.9
v -1.8 1.7 0.9
v -0.8 1.7 0.9

# faces
f 4/3/1 2/3/1 1/3/1
f 4/8/1 3/8/1 2/8/1
f 5/8/1 3/8/1 4/8/1
f 6/8/1 3/8/1 5/8/1
f 7/3/1 4/3/1 1/3/1
f 7/3/1 5/3/1 4/3/1
f 8/3/1 5/3/1 7/3/1
f 11/1/1 10/1/1 9/1/1
f 12/1/1 10/1/1 11/1/1
f 15/3/1 14/3/1 13/3/1
f 16/3/1 14/3/1 15/3/1
f 19/1/1 18/1/1 17/1/1
f 20/1/1 18/1/1 19/1/1
f 21/1/1 19/1/1 17/1/1
f 22/1/1 18/1/1 20/1/1
f 23/1/1 21/1/1 17/1/1
f 23/1/1 22/1/1 21/1/1
f 24/1/1 18/1/1 22/1/1
f 24/1/1 22/1/1 23/1/1
f 29/3/1 26/3/1 25/3/1
f 30/3/1 26/3/1 29/3/1
f 31/2/1 28/2/1 27/2/1
f 32/2/1 28/2/1 31/2/1
f 35/3/1 34/3/1 33/3/1
f 36/3/1 34/3/1 35/3/1
f 39/3/1 38/3/1 37/3/1
f 40/3/1 38/3/1 39/3/1
f 43/2/1 42/2/1 41/2/1
f 44/2/1 42/2/1 43/2/1
f 49/8/1 46/8/1 45/8/1
f 50/8/1 46/8/1 49/8/1
f 51/8/1 48/8/1 47/8/1
f 52/8/1 48/8/1 51/8/1
f 55/8/1 54/8/1 53/8/1
f 56/8/1 54/8/1 55/8/1
f 59/3/1 58/3/1 57/3/1
f 60/3/1 58/3/1 59/3/1
f 63/3/1 62/3/1 61/3/1
f 64/3/1 62/3/1 63/3/1
f 67/3/1 66/3/1 65/3/1
f 68/3/1 66/3/1 67/3/1
f 71/3/1 70/3/1 69/3/1
f 72/3/1 70/3/1 71/3/1
f 75/3/1 74/3/1 73/3/1
f 76/3/1 74/3/1 75/3/1
f 79/3/1 78/3/1 77/3/1
f 80/3/1 78/3/1 79/3/1
f 85/3/1 82/3/1 81/3/1
f 86/3/1 82/3/1 85/3/1
f 87/3/1 84/3/1 83/3/1
f 88/3/1 84/3/1 87/3/1
f 89/3/1 87/3/1 86/3/1
f 90/3/1 87/3/1 89/3/1
f 93/3/1 92/3/1 91/3/1
f 94/3/1 92/3/1 93/3/1
f 97/3/1 96/3/1 95/3/1
f 98/3/1 96/3/1 97/3/1
f 99/2/2 100/2/2 101/2/2
f 101/2/2 100/2/2 102/2/2
f 103/2/2 104/2/2 105/2/2
f 105/2/2 104/2/2 106/2/2
f 107/3/2 108/3/2 109/3/2
f 109/3/2 108/3/2 110/3/2
f 111/1/2 112/1/2 113/1/2
f 113/1/2 112/1/2 114/1/2
f 111/1/2 113/1/2 115/1/2
f 114/1/2 112/1/2 116/1/2
f 111/1/2 115/1/2 117/1/2
f 115/1/2 116/1/2 117/1/2
f 116/1/2 112/1/2 118/1/2
f 117/1/2 116/1/2 118/1/2
f 119/1/2 120/1/2 121/1/2
f 121/1/2 120/1/2 122/1/2
f 123/3/2 124/3/2 125/3/2
f 125/3/2 124/3/2 126/3/2
f 127/3/2 128/3/2 131/3/2
f 131/3/2 128/3/2 132/3/2
f 132/3/2 128/3/2 133/3/2
f 129/3/2 130/3/2 134/3/2
f 134/3/2 130/3/2 135/3/2
f 136/3/2 137/3/2 140/3/2
f 140/3/2 137/3/2 141/3/2
f 138/3/2 139/3/2 142/3/2
f 142/3/2 139/3/2 143/3/2
f 144/8/2 145/8/2 148/8/2
f 148/8/2 145/8/2 149/8/2
f 146/8/2 147/8/2 150/8/2
f 150/8/2 147/8/2 151/8/2
f 152/3/2 153/3/2 158/3/2
f 158/3/2 153/3/2 159/3/2
f 154/8/2 155/8/2 160/8/2
f 160/8/2 155/8/2 161/8/2
f 156/8/2 157/8/2 162/8/2
f 162/8/2 157/8/2 163/8/2
f 164/3/2 165/3/2 166/3/2
f 166/3/2 165/3/2 167/3/2
f 168/3/2 169/3/2 170/3/2
f 170/3/2 169/3/2 171/3/2
f 172/3/2 173/3/2 176/3/2
f 176/3/2 173/3/2 177/3/2
f 174/3/2 175/3/2 178/3/2
f 178/3/2 175/3/2 179/3/2
f 177/3/2 178/3/2 180/3/2
f 180/3/2 178/3/2 181/3/2
f 182/3/2 183/3/2 184/3/2
f 184/3/2 183/3/2 185/3/2
f 186/8/2 187/8/2 188/8/2
f 188/8/2 187/8/2 189/8/2
f 190/3/2 191/3/2 193/3/2
f 191/3/2 192/3/2 193/3/2
f 193/3/2 192/3/2 194/3/2
f 195/8/2 196/8/2 198/8/2
f 196/3/2 197/3/2 199/3/2
f 198/8/2 196/8/2 199/8/2
f 199/3/2 197/3/2 200/3/2
f 200/3/2 197/3/2 201/3/2
f 201/3/2 197/3/2 202/3/2
f 202/3/2 197/3/2 203/3/2
f 203/3/2 197/3/2 204/3/2
f 204/3/2 197/3/2 205/3/2
f 201/3/2 202/3/2 206/3/2
f 202/10/2 203/10/2 207/10/2
f 206/3/2 202/3/2 207/3/2
f 203/3/2 204/3/2 208/3/2
f 207/10/2 203/10/2 208/10/2
f 204/10/2 205/10/2 209/10/2
f 208/3/2 204/3/2 209/3/2
f 205/3/2 197/3/2 210/3/2
f 209/10/2 205/10/2 210/10/2
f 210/3/2 197/3/2 211/3/2
f 216/1/3 215/1/3 214/1/3
f 217/1/3 215/1/3 216/1/3
f 218/10/3 217/10/3 216/10/3
f 219/10/3 217/10/3 218/10/3
f 220/10/3 218/10/3 216/10/3
f 221/13/3 219/13/3 218/13/3
f 221/10/3 218/10/3 220/10/3
f 222/10/3 217/10/3 219/10/3
f 222/13/3 219/13/3 221/13/3
f 223/10/3 217/10/3 222/10/3
f 224/1/3 215/1/3 217/1/3
f 224/10/3 217/10/3 223/10/3
f 225/2/3 221/2/3 220/2/3
f 225/10/3 220/10/3 216/10/3
f 226/10/3 223/10/3 222/10/3
f 226/2/3 221/2/3 225/2/3
f 226/10/3 222/10/3 221/10/3
f 227/10/3 223/10/3 226/10/3
f 228/1/3 224/1/3 223/1/3
f 228/10/3 223/10/3 227/10/3
f 229/1/3 215/1/3 224/1/3
f 229/1/3 224/1/3 228/1/3
f 230/13/3 227/13/3 226/13/3
f 230/10/3 226/10/3 225/10/3
f 231/10/3 228/10/3 227/10/3
f 231/13/3 227/13/3 230/13/3
f 231/10/3 229/10/3 228/10/3
f 232/1/3 216/1/3 214/1/3
f 232/10/3 225/10/3 216/10/3
f 232/10/3 231/10/3 230/10/3
f 232/10/3 230/10/3 225/10/3
f 233/10/3 229/10/3 231/10/3
f 233/10/3 231/10/3 232/10/3
f 233/1/3 215/1/3 229/1/3
f 234/1/3 232/1/3 214/1/3
f 234/1/3 233/1/3 232/1/3
f 235/1/3 215/1/3 233/1/3
f 235/1/3 233/1/3 234/1/3
f 236/3/3 213/3/3 212/3/3
f 238/3/3 236/3/3 212/3/3
f 239/8/3 237/8/3 236/8/3
f 239/3/3 236/3/3 238/3/3
f 240/3/3 238/3/3 212/3/3
f 241/8/3 237/8/3 239/8/3
f 242/8/3 237/8/3 241/8/3
f 243/3/3 240/3/3 212/3/3
f 243/3/3 241/3/3 240/3/3
f 244/3/3 241/3/3 243/3/3
f 245/3/3 241/3/3 244/3/3
f 246/8/3 244/8/3 243/8/3
f 247/8/3 244/8/3 246/8/3
f 250/3/3 249/3/3 248/3/3
f 251/3/3 249/3/3 250/3/3
f 254/8/3 253/8/3 252/8/3
f 255/8/3 253/8/3 254/8/3
f 258/8/3 257/8/3 256/8/3
f 259/8/3 257/8/3 258/8/3
f 262/2/3 261/2/3 260/2/3
f 263/2/3 261/2/3 262/2/3
f 266/2/3 265/2/3 264/2/3
f 267/2/3 265/2/3 266/2/3
f 270/3/3 269/3/3 268/3/3
f 271/3/3 270/3/3 268/3/3
f 272/3/3 270/3/3 271/3/3
f 275/3/3 274/3/3 273/3/3
f 276/3/3 274/3/3 275/3/3
f 279/1/3 278/1/3 277/1/3
f 280/1/3 278/1/3 279/1/3
f 283/1/3 282/1/3 281/1/3
f 284/1/3 282/1/3 283/1/3
f 287/3/3 286/3/3 285/3/3
f 288/3/3 286/3/3 287/3/3
f 291/3/3 289/3/3 288/3/3
f 292/3/3 289/3/3 291/3/3
f 293/3/3 291/3/3 290/3/3
f 294/3/3 291/3/3 293/3/3
f 297/8/3 296/8/3 295/8/3
f 298/8/3 296/8/3 297/8/3
f 301/8/3 300/8/3 299/8/3
f 302/8/3 300/8/3 301/8/3
f 305/3/3 304/3/3 303/3/3
f 306/3/3 304/3/3 305/3/3
f 309/3/3 308/3/3 307/3/3
f 310/3/3 308/3/3 309/3/3
f 313/3/3 312/3/3 311/3/3
f 314/3/3 312/3/3 313/3/3
f 317/3/3 316/3/3 315/3/3
f 318/3/3 316/3/3 317/3/3
f 321/3/3 320/3/3 319/3/3
f 322/3/3 320/3/3 321/3/3
f 325/3/3 324/3/3 323/3/3
f 326/3/3 324/3/3 325/3/3
f 329/3/3 328/3/3 327/3/3
f 330/3/3 328/3/3 329/3/3
f 333/3/3 332/3/3 331/3/3
f 334/3/3 332/3/3 333/3/3
f 337/3/3 336/3/3 335/3/3
f 338/3/3 336/3/3 337/3/3
f 339/8/4 340/8/4 341/8/4
f 341/8/4 340/8/4 342/8/4
f 343/8/4 344/8/4 345/8/4
f 345/8/4 344/8/4 346/8/4
f 347/3/4 348/3/4 349/3/4
f 349/3/4 348/3/4 350/3/4
f 350/3/4 351/3/4 353/3/4
f 353/3/4 351/3/4 354/3/4
f 352/3/4 353/3/4 355/3/4
f 355/3/4 353/3/4 356/3/4
f 357/1/4 358/1/4 359/1/4
f 359/1/4 358/1/4 360/1/4
f 361/1/4 362/1/4 363/1/4
f 363/1/4 362/1/4 364/1/4
f 365/8/4 366/8/4 367/8/4
f 367/8/4 366/8/4 368/8/4
f 369/3/4 370/3/4 371/3/4
f 371/3/4 370/3/4 372/3/4
f 373/2/4 374/2/4 375/2/4
f 375/2/4 374/2/4 376/2/4
f 377/2/4 378/2/4 379/2/4
f 379/2/4 378/2/4 380/2/4
f 381/1/4 382/1/4 383/1/4
f 383/1/4 382/1/4 384/1/4
f 385/3/4 386/3/4 387/3/4
f 387/3/4 386/3/4 388/3/4
f 389/3/4 390/3/4 391/3/4
f 391/3/4 390/3/4 392/3/4
f 393/3/4 394/3/4 395/3/4
f 395/3/4 394/3/4 396/3/4
f 397/3/4 398/3/4 399/3/4
f 399/3/4 398/3/4 400/3/4
f 401/3/4 402/3/4 403/3/4
f 403/3/4 402/3/4 404/3/4
f 405/3/4 406/3/4 407/3/4
f 407/3/4 406/3/4 408/3/4
f 409/3/4 410/3/4 411/3/4
f 411/3/4 410/3/4 412/3/4
f 413/8/4 414/8/4 415/8/4
f 413/8/4 415/8/4 417/8/4
f 415/3/4 416/3/4 417/3/4
f 417/3/4 416/3/4 418/3/4
f 413/8/4 417/8/4 419/8/4
f 419/8/4 417/8/4 420/8/4
f 419/3/4 420/3/4 422/3/4
f 420/3/4 421/3/4 422/3/4
f 422/3/4 423/3/4 424/3/4
f 422/3/4 424/3/4 426/3/4
f 424/3/4 425/3/4 426/3/4
f 426/3/4 425/3/4 427/3/4
f 419/3/4 422/3/4 428/3/4
f 422/3/4 426/3/4 428/3/4
f 428/3/4 426/3/4 429/3/4
f 434/3/5 431/3/5 430/3/5
f 435/8/5 432/8/5 431/8/5
f 437/3/5 434/3/5 433/3/5
f 437/3/5 431/3/5 434/3/5
f 438/8/5 436/8/5 435/8/5
f 438/3/5 431/3/5 437/3/5
f 438/8/5 435/8/5 431/8/5
f 439/3/5 437/3/5 433/3/5
f 440/8/5 438/8/5 437/8/5
f 440/3/5 437/3/5 439/3/5
f 441/8/5 436/8/5 438/8/5
f 441/8/5 438/8/5 440/8/5
f 441/8/5 440/8/5 439/8/5
f 442/8/5 436/8/5 441/8/5
f 443/8/5 441/8/5 439/8/5
f 444/3/5 442/3/5 441/3/5
f 444/8/5 441/8/5 443/8/5
f 445/3/5 442/3/5 444/3/5
f 448/8/5 447/8/5 446/8/5
f 449/8/5 447/8/5 448/8/5
f 450/13/5 449/13/5 448/13/5
f 451/8/5 447/8/5 449/8/5
f 451/13/5 449/13/5 450/13/5
f 452/8/5 447/8/5 451/8/5
f 455/1/5 454/1/5 453/1/5
f 456/1/5 454/1/5 455/1/5
f 457/1/5 454/1/5 456/1/5
f 458/1/5 454/1/5 457/1/5
f 459/1/5 455/1/5 453/1/5
f 460/1/5 457/1/5 456/1/5
f 461/1/5 457/1/5 460/1/5
f 462/1/5 454/1/5 458/1/5
f 463/1/5 461/1/5 460/1/5
f 463/1/5 462/1/5 461/1/5
f 463/1/5 459/1/5 453/1/5
f 463/1/5 460/1/5 459/1/5
f 464/1/5 454/1/5 462/1/5
f 464/1/5 462/1/5 463/1/5
f 469/1/5 466/1/5 465/1/5
f 470/1/5 466/1/5 469/1/5
f 471/1/5 468/1/5 467/1/5
f 472/1/5 468/1/5 471/1/5
f 475/8/6 476/8/6 477/8/6
f 473/3/6 474/3/6 479/3/6
f 479/3/6 474/3/6 480/3/6
f 477/8/6 478/8/6 481/8/6
f 475/8/6 477/8/6 481/8/6
f 481/8/6 478/8/6 482/8/6
f 475/8/6 481/8/6 483/8/6
f 483/8/6 481/8/6 484/8/6
f 482/8/6 478/8/6 485/8/6
f 485/8/6 478/8/6 486/8/6
f 475/8/6 483/8/6 487/8/6
f 486/8/6 478/8/6 490/8/6
f 487/8/6 488/8/6 491/8/6
f 489/8/6 490/8/6 492/8/6
f 487/8/6 491/8/6 494/8/6
f 491/8/6 492/8/6 494/8/6
f 475/8/6 487/8/6 494/8/6
f 493/8/6 494/8/6 496/8/6
f 494/8/6 492/8/6 497/8/6
f 496/8/6 494/8/6 497/8/6
f 497/8/6 492/8/6 498/8/6
f 495/8/6 496/8/6 500/8/6
f 496/8/6 497/8/6 500/8/6
f 500/8/6 497/8/6 501/8/6
f 499/8/6 500/8/6 501/8/6
f 498/8/6 492/8/6 502/8/6
f 499/8/6 501/8/6 504/8/6
f 501/8/6 502/8/6 504/8/6
f 503/8/6 504/8/6 505/8/6
f 504/8/6 502/8/6 506/8/6
f 505/8/6 504/8/6 506/8/6
f 506/8/6 502/8/6 507/8/6
f 507/8/6 502/8/6 508/8/6
f 502/8/6 492/8/6 509/8/6
f 508/8/6 502/8/6 509/8/6
f 509/8/6 492/8/6 510/8/6
f 492/8/6 490/8/6 511/8/6
f 510/8/6 492/8/6 511/8/6
f 490/8/6 478/8/6 511/8/6
f 503/8/6 505/8/6 512/8/6
f 512/8/6 505/8/6 513/8/6
f 509/3/6 510/3/6 514/3/6
f 508/8/6 509/8/6 514/8/6
f 514/3/6 510/3/6 515/3/6
f 503/8/6 512/8/6 516/8/6
f 508/8/6 514/8/6 519/8/6
f 516/8/6 517/8/6 520/8/6
f 503/8/6 516/8/6 520/8/6
f 520/8/6 517/8/6 521/8/6
f 518/8/6 519/8/6 522/8/6
f 519/8/6 514/8/6 523/8/6
f 522/8/6 519/8/6 523/8/6
f 524/3/6 525/3/6 529/3/6
f 526/3/6 527/3/6 530/3/6
f 530/3/6 527/3/6 531/3/6
f 528/3/6 529/3/6 532/3/6
f 529/3/6 525/3/6 532/3/6
f 532/3/6 525/3/6 533/3/6
f 533/3/6 525/3/6 534/3/6
f 534/3/6 525/3/6 535/3/6
f 535/3/6 525/3/6 536/3/6
f 531/3/6 527/3/6 539/3/6
f 536/3/6 537/3/6 540/3/6
f 535/3/6 536/3/6 540/3/6
f 540/3/6 537/3/6 541/3/6
f 538/3/6 539/3/6 542/3/6
f 539/3/6 527/3/6 543/3/6
f 542/3/6 539/3/6 543/3/6
f 535/3/6 540/3/6 544/3/6
f 543/3/6 527/3/6 545/3/6
f 528/3/6 532/3/6 546/3/6
f 533/3/6 534/3/6 547/3/6
f 547/3/6 534/3/6 548/3/6
f 535/3/6 544/3/6 549/3/6
f 544/3/6 545/3/6 549/3/6
f 547/3/6 548/3/6 550/3/6
f 548/3/6 549/3/6 550/3/6
f 549/3/6 545/3/6 550/3/6
f 546/3/6 547/3/6 550/3/6
f 545/3/6 527/3/6 551/3/6
f 550/3/6 545/3/6 551/3/6
f 546/3/6 550/3/6 552/3/6
f 552/3/6 550/3/6 553/3/6
f 546/3/6 552/3/6 556/3/6
f 556/3/6 552/3/6 557/3/6
f 554/3/6 555/3/6 558/3/6
f 558/3/6 555/3/6 559/3/6
f 554/3/6 558/3/6 560/3/6
f 558/10/6 559/10/6 560/10/6
f 559/3/6 555/3/6 561/3/6
f 560/10/6 559/10/6 561/10/6
f 554/3/6 560/3/6 562/3/6
f 560/3/6 561/3/6 562/3/6
f 561/3/6 555/3/6 563/3/6
f 562/3/6 561/3/6 563/3/6
f 528/3/6 546/3/6 564/3/6
f 546/3/6 556/3/6 564/3/6
f 564/3/6 556/3/6 565/3/6
f 566/3/6 567/3/6 568/3/6
f 566/3/6 568/3/6 571/3/6
f 568/3/6 569/3/6 571/3/6
f 570/3/6 571/3/6 572/3/6
f 572/3/6 571/3/6 573/3/6
f 572/10/6 573/10/6 574/10/6
f 573/3/6 571/3/6 574/3/6
f 571/3/6 569/3/6 575/3/6
f 574/3/6 571/3/6 575/3/6
f 572/10/6 574/10/6 576/10/6
f 570/3/6 572/3/6 576/3/6
f 574/10/6 575/10/6 576/10/6
f 576/10/6 575/10/6 577/10/6
f 570/3/6 576/3/6 578/3/6
f 576/3/6 577/3/6 578/3/6
f 578/3/6 577/3/6 579/3/6
f 575/3/6 569/3/6 580/3/6
f 577/10/6 575/10/6 580/10/6
f 580/3/6 569/3/6 581/3/6
f 581/3/6 569/3/6 582/3/6
f 582/3/6 569/3/6 583/3/6
f 583/3/6 569/3/6 584/3/6
f 584/3/6 569/3/6 585/3/6
f 579/3/6 577/3/6 586/3/6
f 577/10/6 580/10/6 586/10/6
f 580/10/6 581/10/6 586/10/6
f 581/3/6 582/3/6 587/3/6
f 586/10/6 581/10/6 587/10/6
f 582/10/6 583/10/6 588/10/6
f 587/3/6 582/3/6 588/3/6
f 583/3/6 584/3/6 589/3/6
f 588/10/6 583/10/6 589/10/6
f 587/3/6 588/3/6 590/3/6
f 586/3/6 587/3/6 590/3/6
f 588/3/6 589/3/6 590/3/6
f 579/3/6 586/3/6 590/3/6
f 589/3/6 584/3/6 591/3/6
f 590/3/6 589/3/6 591/3/6
f 592/8/6 593/8/6 594/8/6
f 594/8/6 593/8/6 595/8/6
f 595/8/6 593/8/6 596/8/6
f 592/8/6 594/8/6 598/8/6
f 594/13/6 595/13/6 598/13/6
f 596/8/6 597/8/6 599/8/6
f 598/13/6 595/13/6 599/13/6
f 595/8/6 596/8/6 599/8/6
f 600/3/6 601/3/6 603/3/6
f 603/3/6 601/3/6 604/3/6
f 592/8/6 598/8/6 606/8/6
f 598/8/6 599/8/6 606/8/6
f 606/8/6 599/8/6 607/8/6
f 599/8/6 597/8/6 608/8/6
f 607/8/6 599/8/6 608/8/6
f 608/8/6 597/8/6 609/8/6
f 607/8/6 608/8/6 611/8/6
f 611/8/6 608/8/6 612/8/6
f 602/3/6 603/3/6 614/3/6
f 614/3/6 603/3/6 615/3/6
f 604/3/6 605/3/6 616/3/6
f 616/3/6 605/3/6 617/3/6
f 612/8/6 613/8/6 618/8/6
f 611/8/6 612/8/6 618/8/6
f 610/8/6 611/8/6 618/8/6
f 618/8/6 613/8/6 619/8/6
f 615/3/6 616/3/6 620/3/6
f 620/3/6 616/3/6 621/3/6
f 622/3/6 623/3/6 625/3/6
f 625/3/6 623/3/6 626/3/6
f 626/3/6 623/3/6 627/3/6
f 624/3/6 625/3/6 628/3/6
f 625/3/6 626/3/6 628/3/6
f 628/3/6 626/3/6 629/3/6
f 624/3/6 628/3/6 630/3/6
f 630/3/6 628/3/6 631/3/6
f 632/3/6 633/3/6 634/3/6
f 634/3/6 633/3/6 635/3/6
f 636/3/6 637/3/6 639/3/6
f 639/3/6 637/3/6 640/3/6
f 640/3/6 637/3/6 641/3/6
f 638/3/6 639/3/6 642/3/6
f 639/3/6 640/3/6 642/3/6
f 640/10/6 641/10/6 642/10/6
f 642/10/6 641/10/6 643/10/6
f 638/3/6 642/3/6 644/3/6
f 642/3/6 643/3/6 644/3/6
f 644/3/6 643/3/6 645/3/6
f 638/3/6 644/3/6 646/3/6
f 644/10/6 645/10/6 647/10/6
f 646/3/6 644/3/6 647/3/6
f 647/10/6 645/10/6 648/10/6
f 648/10/6 645/10/6 649/10/6
f 638/3/6 646/3/6 650/3/6
f 650/3/6 646/3/6 651/3/6
f 648/3/6 649/3/6 652/3/6
f 652/3/6 649/3/6 653/3/6
f 654/3/6 655/3/6 656/3/6
f 656/3/6 655/3/6 657/3/6
f 658/1/6 659/1/6 662/1/6
f 662/1/6 659/1/6 663/1/6
f 660/1/6 661/1/6 664/1/6
f 664/1/6 661/1/6 665/1/6
f 666/1/6 667/1/6 668/1/6
f 668/1/6 667/1/6 669/1/6
