# MagicaVoxel @ Ephtracy

# group
o 

# material
mtllib chapter_one_tile.mtl
usemtl palette

# normals
vn -1 0 0
vn 1 0 0
vn 0 0 1
vn 0 0 -1
vn 0 -1 0
vn 0 1 0

# texcoords
vt 0.517578 0.5
vt 0.556641 0.5
vt 0.837891 0.5
vt 0.931641 0.5
vt 0.962891 0.5
vt 0.990234 0.5

# verts
v -2 0.1 1.8
v -2 0.1 -1.8
v -2 0.5 1.8
v -2 0.5 -1.8
v -1.8 0.1 2
v -1.8 0.1 1.8
v -1.8 0.1 -1.8
v -1.8 0.1 -2
v -1.8 0.5 2
v -1.8 0.5 1.8
v -1.8 0.5 -1.8
v -1.8 0.5 -2
v -1.8 0.6 1.8
v -1.8 0.6 0.7
v -1.8 1.1 0.9
v -1.8 1.1 0.7
v -1.8 1.5 1.8
v -1.8 1.5 0.9
v -1.6 0.5 1.6
v -1.6 0.5 1
v -1.6 0.5 -1.2
v -1.6 0.5 -1.3
v -1.6 0.5 -1.4
v -1.6 0.5 -1.5
v -1.6 0.5 -1.6
v -1.6 0.6 1.6
v -1.6 0.6 1
v -1.6 0.6 -1.2
v -1.6 0.6 -1.3
v -1.6 0.6 -1.4
v -1.6 0.6 -1.5
v -1.6 0.7 -1.2
v -1.6 0.7 -1.4
v -1.6 0.7 -1.5
v -1.6 0.7 -1.6
v -1.6 0.8 -1.5
v -1.6 0.8 -1.6
v -1.6 0.9 -1.4
v -1.6 0.9 -1.6
v -1.5 1.5 1.6
v -1.5 1.5 1.1
v -1.5 1.7 1.6
v -1.5 1.7 1.1
v -1.4 0.9 1.9
v -1.4 0.9 1.8
v -1.4 1 1.9
v -1.4 1 1.8
v -1.2 0.5 1.6
v -1.2 0.5 1
v -1.2 0.6 1.6
v -1.2 0.6 1
v -0.6 0.6 1.8
v -0.6 0.6 1.2
v -0.6 0.9 1.4
v -0.6 0.9 1.2
v -0.6 1.1 1.8
v -0.6 1.1 1.4
v -0.5 0.5 1.7
v -0.5 0.5 1.4
v -0.5 0.6 1.7
v -0.5 0.6 1.4
v -0.3 0.5 1.7
v -0.3 0.5 1.4
v -0.3 0.6 1.7
v -0.3 0.6 1.4
v 1 0.5 -1.4
v 1 0.5 -1.6
v 1 0.6 -1.4
v 1 0.6 -1.6
v 1.2 0.5 -1.2
v 1.2 0.5 -1.3
v 1.2 0.6 -1.2
v 1.2 0.6 -1.3
v 1.3 0.5 1.7
v 1.3 0.5 1.5
v 1.3 0.6 1.6
v 1.3 0.6 1.5
v 1.3 0.7 1.6
v 1.3 0.7 1.5
v 1.3 0.8 1.6
v 1.3 0.8 1.5
v 1.3 0.9 1.7
v 1.3 0.9 1.6
v 1.3 0.9 1.5
v 1.4 0.5 -1.3
v 1.4 0.5 -1.6
v 1.4 0.6 -1.3
v 1.4 0.6 -1.6
v 1.5 0.5 1.5
v 1.5 0.5 1.3
v 1.5 0.5 -0.9
v 1.5 0.5 -1.1
v 1.5 0.6 1.4
v 1.5 0.6 1.3
v 1.5 0.6 -0.9
v 1.5 0.6 -1.1
v 1.5 0.7 1.5
v 1.5 0.7 1.4
v 1.5 0.7 1.3
v -1.4 0.5 1.6
v -1.4 0.5 1
v -1.4 0.5 -1.4
v -1.4 0.5 -1.5
v -1.4 0.5 -1.6
v -1.4 0.6 1.6
v -1.4 0.6 1
v -1.4 0.6 -1.4
v -1.4 0.6 -1.5
v -1.4 0.6 -1.6
v -1.4 0.7 -1.4
v -1.4 0.9 -1.4
v -1.4 0.9 -1.6
v -1.2 0.5 -1.2
v -1.2 0.5 -1.4
v -1.2 0.6 -1.3
v -1.2 0.6 -1.4
v -1.2 0.7 -1.2
v -1.2 0.7 -1.3
v -1.2 0.7 -1.4
v -1.2 0.9 1.9
v -1.2 0.9 1.8
v -1.2 1 1.9
v -1.2 1 1.8
v -1.1 1.5 1.6
v -1.1 1.5 1.1
v -1.1 1.7 1.6
v -1.1 1.7 1.1
v -1 0.5 1.6
v -1 0.5 1
v -1 0.6 1.6
v -1 0.6 1
v -0.8 0.6 1.8
v -0.8 0.6 0.7
v -0.8 1.1 0.9
v -0.8 1.1 0.7
v -0.8 1.5 1.8
v -0.8 1.5 0.9
v -0.4 0.5 1.7
v -0.4 0.5 1.4
v -0.4 0.6 1.7
v -0.4 0.6 1.4
v -0.2 0.5 1.7
v -0.2 0.5 1.4
v -0.2 0.6 1.7
v -0.2 0.6 1.4
v -0.0999999 0.6 1.8
v -0.0999999 0.6 1.2
v -0.0999999 0.9 1.4
v -0.0999999 0.9 1.2
v -0.0999999 1.1 1.8
v -0.0999999 1.1 1.4
v 1.2 0.5 -1.4
v 1.2 0.5 -1.6
v 1.2 0.6 -1.4
v 1.2 0.6 -1.6
v 1.3 0.5 -1.2
v 1.3 0.5 -1.3
v 1.3 0.6 -1.2
v 1.3 0.6 -1.3
v 1.5 0.5 1.7
v 1.5 0.5 1.5
v 1.5 0.6 1.7
v 1.5 0.6 1.6
v 1.5 0.7 1.7
v 1.5 0.7 1.6
v 1.5 0.7 1.5
v 1.5 0.9 1.7
v 1.5 0.9 1.5
v 1.7 0.5 1.5
v 1.7 0.5 1.4
v 1.7 0.5 1.3
v 1.7 0.5 -0.9
v 1.7 0.5 -1.1
v 1.7 0.5 -1.3
v 1.7 0.5 -1.6
v 1.7 0.6 1.5
v 1.7 0.6 1.4
v 1.7 0.6 -0.9
v 1.7 0.6 -1.1
v 1.7 0.6 -1.3
v 1.7 0.6 -1.6
v 1.7 0.7 1.5
v 1.7 0.7 1.3
v 1.8 0.1 2
v 1.8 0.1 1.8
v 1.8 0.1 -1.8
v 1.8 0.1 -2
v 1.8 0.5 2
v 1.8 0.5 1.8
v 1.8 0.5 -1.8
v 1.8 0.5 -2
v 2 0.1 1.8
v 2 0.1 -1.8
v 2 0.5 1.8
v 2 0.5 -1.8
v -1.8 0.1 2
v -1.8 0.5 2
v 1.8 0.1 2
v 1.8 0.5 2
v -1.4 0.9 1.9
v -1.4 1 1.9
v -1.2 0.9 1.9
v -1.2 1 1.9
v -2 0.1 1.8
v -2 0.5 1.8
v -1.8 0.1 1.8
v -1.8 0.5 1.8
v -1.8 0.6 1.8
v -1.8 1.5 1.8
v -1.5 1 1.8
v -1.5 1.2 1.8
v -1.4 0.9 1.8
v -1.4 1 1.8
v -1.4 1.2 1.8
v -1.2 0.9 1.8
v -1.2 1 1.8
v -1.2 1.2 1.8
v -1.1 1 1.8
v -1.1 1.2 1.8
v -0.8 0.6 1.8
v -0.8 1.5 1.8
v -0.6 0.6 1.8
v -0.6 1.1 1.8
v -0.5 0.8 1.8
v -0.5 1 1.8
v -0.4 0.8 1.8
v -0.4 1 1.8
v -0.3 0.8 1.8
v -0.3 1 1.8
v -0.2 0.8 1.8
v -0.2 1 1.8
v -0.0999999 0.6 1.8
v -0.0999999 1.1 1.8
v 1.8 0.1 1.8
v 1.8 0.5 1.8
v 2 0.1 1.8
v 2 0.5 1.8
v -0.5 0.5 1.7
v -0.5 0.6 1.7
v -0.4 0.5 1.7
v -0.4 0.6 1.7
v -0.3 0.5 1.7
v -0.3 0.6 1.7
v -0.2 0.5 1.7
v -0.2 0.6 1.7
v 1.3 0.5 1.7
v 1.3 0.9 1.7
v 1.4 0.6 1.7
v 1.4 0.7 1.7
v 1.5 0.5 1.7
v 1.5 0.6 1.7
v 1.5 0.7 1.7
v 1.5 0.9 1.7
v -1.6 0.5 1.6
v -1.6 0.6 1.6
v -1.5 1.5 1.6
v -1.5 1.7 1.6
v -1.4 0.5 1.6
v -1.4 0.6 1.6
v -1.2 0.5 1.6
v -1.2 0.6 1.6
v -1.1 1.5 1.6
v -1.1 1.7 1.6
v -1 0.5 1.6
v -1 0.6 1.6
v 1.5 0.5 1.5
v 1.5 0.7 1.5
v 1.6 0.5 1.5
v 1.6 0.6 1.5
v 1.7 0.5 1.5
v 1.7 0.6 1.5
v 1.7 0.7 1.5
v 1.5 0.5 -0.9
v 1.5 0.6 -0.9
v 1.7 0.5 -0.9
v 1.7 0.6 -0.9
v -1.6 0.5 -1.2
v -1.6 0.6 -1.2
v -1.6 0.7 -1.2
v -1.5 0.5 -1.2
v -1.5 0.6 -1.2
v -1.5 0.7 -1.2
v -1.4 0.6 -1.2
v -1.4 0.7 -1.2
v -1.2 0.5 -1.2
v -1.2 0.7 -1.2
v 1.2 0.5 -1.2
v 1.2 0.6 -1.2
v 1.3 0.5 -1.2
v 1.3 0.6 -1.2
v 1.4 0.5 -1.3
v 1.4 0.6 -1.3
v 1.7 0.5 -1.3
v 1.7 0.6 -1.3
v -1.6 0.7 -1.4
v -1.6 0.9 -1.4
v -1.4 0.7 -1.4
v -1.4 0.9 -1.4
v 1 0.5 -1.4
v 1 0.6 -1.4
v 1.2 0.5 -1.4
v 1.2 0.6 -1.4
v 1.3 0.5 1.5
v 1.3 0.6 1.5
v 1.3 0.7 1.5
v 1.3 0.8 1.5
v 1.3 0.9 1.5
v 1.4 0.6 1.5
v 1.4 0.7 1.5
v 1.4 0.8 1.5
v 1.4 0.9 1.5
v 1.5 0.5 1.5
v 1.5 0.7 1.5
v 1.5 0.9 1.5
v -0.6 0.9 1.4
v -0.6 1.1 1.4
v -0.5 0.5 1.4
v -0.5 0.6 1.4
v -0.4 0.5 1.4
v -0.4 0.6 1.4
v -0.3 0.5 1.4
v -0.3 0.6 1.4
v -0.2 0.5 1.4
v -0.2 0.6 1.4
v -0.0999999 0.9 1.4
v -0.0999999 1.1 1.4
v 1.5 0.5 1.3
v 1.5 0.6 1.3
v 1.5 0.7 1.3
v 1.6 0.6 1.3
v 1.6 0.7 1.3
v 1.7 0.5 1.3
v 1.7 0.7 1.3
v -0.6 0.6 1.2
v -0.6 0.9 1.2
v -0.0999999 0.6 1.2
v -0.0999999 0.9 1.2
v -1.5 1.5 1.1
v -1.5 1.7 1.1
v -1.1 1.5 1.1
v -1.1 1.7 1.1
v -1.6 0.5 1
v -1.6 0.6 1
v -1.4 0.5 1
v -1.4 0.6 1
v -1.2 0.5 1
v -1.2 0.6 1
v -1 0.5 1
v -1 0.6 1
v -1.8 1.1 0.9
v -1.8 1.5 0.9
v -0.8 1.1 0.9
v -0.8 1.5 0.9
v -1.8 0.6 0.7
v -1.8 1.1 0.7
v -0.8 0.6 0.7
v -0.8 1.1 0.7
v 1.5 0.5 -1.1
v 1.5 0.6 -1.1
v 1.7 0.5 -1.1
v 1.7 0.6 -1.1
v 1.2 0.5 -1.3
v 1.2 0.6 -1.3
v 1.3 0.5 -1.3
v 1.3 0.6 -1.3
v -1.4 0.5 -1.4
v -1.4 0.6 -1.4
v -1.4 0.7 -1.4
v -1.3 0.5 -1.4
v -1.3 0.6 -1.4
v -1.3 0.7 -1.4
v -1.2 0.5 -1.4
v -1.2 0.6 -1.4
v -1.2 0.7 -1.4
v -1.6 0.5 -1.6
v -1.6 0.7 -1.6
v -1.6 0.8 -1.6
v -1.6 0.9 -1.6
v -1.5 0.5 -1.6
v -1.5 0.6 -1.6
v -1.5 0.7 -1.6
v -1.5 0.8 -1.6
v -1.4 0.5 -1.6
v -1.4 0.6 -1.6
v -1.4 0.9 -1.6
v 1 0.5 -1.6
v 1 0.6 -1.6
v 1.2 0.5 -1.6
v 1.2 0.6 -1.6
v 1.4 0.5 -1.6
v 1.4 0.6 -1.6
v 1.7 0.5 -1.6
v 1.7 0.6 -1.6
v -2 0.1 -1.8
v -2 0.5 -1.8
v -1.8 0.1 -1.8
v -1.8 0.5 -1.8
v 1.8 0.1 -1.8
v 1.8 0.5 -1.8
v 2 0.1 -1.8
v 2 0.5 -1.8
v -1.8 0.1 -2
v -1.8 0.5 -2
v 1.8 0.1 -2
v 1.8 0.5 -2
v -1.8 0.1 2
v 1.8 0.1 2
v -2 0.1 1.8
v -1.8 0.1 1.8
v 1.8 0.1 1.8
v 2 0.1 1.8
v -2 0.1 -1.8
v -1.8 0.1 -1.8
v 1.8 0.1 -1.8
v 2 0.1 -1.8
v -1.8 0.1 -2
v 1.8 0.1 -2
v -1.8 0.6 1.8
v -0.8 0.6 1.8
v -0.6 0.6 1.8
v -0.0999999 0.6 1.8
v -0.5 0.6 1.7
v -0.4 0.6 1.7
v -0.3 0.6 1.7
v -0.2 0.6 1.7
v -1.6 0.6 1.6
v -1.4 0.6 1.6
v -1.2 0.6 1.6
v -1 0.6 1.6
v -0.5 0.6 1.4
v -0.4 0.6 1.4
v -0.3 0.6 1.4
v -0.2 0.6 1.4
v -0.6 0.6 1.2
v -0.0999999 0.6 1.2
v -1.6 0.6 1
v -1.4 0.6 1
v -1.2 0.6 1
v -1 0.6 1
v -1.8 0.6 0.7
v -0.8 0.6 0.7
v -1.4 0.9 1.9
v -1.2 0.9 1.9
v -1.4 0.9 1.8
v -1.2 0.9 1.8
v -1.8 0.5 2
v 1.8 0.5 2
v -2 0.5 1.8
v -1.8 0.5 1.8
v 1.8 0.5 1.8
v 2 0.5 1.8
v -0.5 0.5 1.7
v -0.4 0.5 1.7
v -0.3 0.5 1.7
v -0.2 0.5 1.7
v 1.3 0.5 1.7
v 1.5 0.5 1.7
v -1.6 0.5 1.6
v -1.4 0.5 1.6
v -1.2 0.5 1.6
v -1 0.5 1.6
v 1.3 0.5 1.5
v 1.5 0.5 1.5
v 1.6 0.5 1.5
v 1.7 0.5 1.5
v -0.5 0.5 1.4
v -0.4 0.5 1.4
v -0.3 0.5 1.4
v -0.2 0.5 1.4
v 1.7 0.5 1.4
v 1.5 0.5 1.3
v 1.7 0.5 1.3
v -1.6 0.5 1
v -1.4 0.5 1
v -1.2 0.5 1
v -1 0.5 1
v 1.5 0.5 -0.9
v 1.7 0.5 -0.9
v 1.5 0.5 -1.1
v 1.7 0.5 -1.1
v -1.6 0.5 -1.2
v -1.5 0.5 -1.2
v -1.2 0.5 -1.2
v 1.2 0.5 -1.2
v 1.3 0.5 -1.2
v -1.6 0.5 -1.3
v 1.2 0.5 -1.3
v 1.3 0.5 -1.3
v 1.4 0.5 -1.3
v 1.7 0.5 -1.3
v -1.6 0.5 -1.4
v -1.4 0.5 -1.4
v -1.3 0.5 -1.4
v -1.2 0.5 -1.4
v 1 0.5 -1.4
v 1.2 0.5 -1.4
v -1.6 0.5 -1.5
v -1.4 0.5 -1.5
v -1.6 0.5 -1.6
v -1.5 0.5 -1.6
v -1.4 0.5 -1.6
v 1 0.5 -1.6
v 1.2 0.5 -1.6
v 1.4 0.5 -1.6
v 1.7 0.5 -1.6
v -2 0.5 -1.8
v -1.8 0.5 -1.8
v 1.8 0.5 -1.8
v 2 0.5 -1.8
v -1.8 0.5 -2
v 1.8 0.5 -2
v 1.5 0.6 -0.9
v 1.7 0.6 -0.9
v 1.5 0.6 -1.1
v 1.7 0.6 -1.1
v 1.2 0.6 -1.2
v 1.3 0.6 -1.2
v 1.2 0.6 -1.3
v 1.3 0.6 -1.3
v 1.4 0.6 -1.3
v 1.7 0.6 -1.3
v 1 0.6 -1.4
v 1.2 0.6 -1.4
v 1.5 0.6 -1.4
v 1.6 0.6 -1.4
v 1.5 0.6 -1.5
v 1.6 0.6 -1.5
v 1 0.6 -1.6
v 1.2 0.6 -1.6
v 1.4 0.6 -1.6
v 1.7 0.6 -1.6
v 1.5 0.7 1.5
v 1.7 0.7 1.5
v 1.5 0.7 1.4
v 1.6 0.7 1.4
v 1.5 0.7 1.3
v 1.6 0.7 1.3
v 1.7 0.7 1.3
v -1.6 0.7 -1.2
v -1.5 0.7 -1.2
v -1.4 0.7 -1.2
v -1.2 0.7 -1.2
v -1.5 0.7 -1.3
v -1.4 0.7 -1.3
v -1.3 0.7 -1.3
v -1.2 0.7 -1.3
v -1.6 0.7 -1.4
v -1.4 0.7 -1.4
v -1.3 0.7 -1.4
v -1.2 0.7 -1.4
v 1.3 0.9 1.7
v 1.5 0.9 1.7
v 1.3 0.9 1.6
v 1.4 0.9 1.6
v 1.3 0.9 1.5
v 1.4 0.9 1.5
v 1.5 0.9 1.5
v -0.6 0.9 1.4
v -0.0999999 0.9 1.4
v -0.6 0.9 1.2
v -0.0999999 0.9 1.2
v -1.6 0.9 -1.4
v -1.4 0.9 -1.4
v -1.6 0.9 -1.6
v -1.4 0.9 -1.6
v -1.4 1 1.9
v -1.2 1 1.9
v -1.4 1 1.8
v -1.2 1 1.8
v -0.6 1.1 1.8
v -0.0999999 1.1 1.8
v -0.6 1.1 1.4
v -0.0999999 1.1 1.4
v -1.8 1.1 0.9
v -0.8 1.1 0.9
v -1.8 1.1 0.7
v -0.8 1.1 0.7
v -1.8 1.5 1.8
v -0.8 1.5 1.8
v -1.5 1.5 1.6
v -1.1 1.5 1.6
v -1.5 1.5 1.1
v -1.1 1.5 1.1
v -1.8 1.5 0.9
v -0.8 1.5 0.9
v -1.5 1.7 1.6
v -1.1 1.7 1.6
v -1.5 1.7 1.1
v -1.1 1.7 1.1

# faces
f 3/4/1 2/4/1 1/4/1
f 4/4/1 2/4/1 3/4/1
f 9/4/1 6/4/1 5/4/1
f 10/4/1 6/4/1 9/4/1
f 11/4/1 8/4/1 7/4/1
f 12/4/1 8/4/1 11/4/1
f 15/5/1 14/5/1 13/5/1
f 16/5/1 14/5/1 15/5/1
f 17/5/1 15/5/1 13/5/1
f 18/5/1 15/5/1 17/5/1
f 26/3/1 20/3/1 19/3/1
f 27/3/1 20/3/1 26/3/1
f 28/3/1 22/3/1 21/3/1
f 29/4/1 23/4/1 22/4/1
f 29/3/1 22/3/1 28/3/1
f 30/3/1 24/3/1 23/3/1
f 30/4/1 23/4/1 29/4/1
f 31/4/1 25/4/1 24/4/1
f 31/3/1 24/3/1 30/3/1
f 32/4/1 30/4/1 29/4/1
f 32/4/1 31/4/1 30/4/1
f 32/4/1 29/4/1 28/4/1
f 33/4/1 31/4/1 32/4/1
f 34/4/1 25/4/1 31/4/1
f 34/4/1 31/4/1 33/4/1
f 35/4/1 25/4/1 34/4/1
f 36/4/1 34/4/1 33/4/1
f 36/3/1 35/3/1 34/3/1
f 37/3/1 35/3/1 36/3/1
f 38/4/1 36/4/1 33/4/1
f 38/4/1 37/4/1 36/4/1
f 39/4/1 37/4/1 38/4/1
f 42/3/1 41/3/1 40/3/1
f 43/3/1 41/3/1 42/3/1
f 46/3/1 45/3/1 44/3/1
f 47/3/1 45/3/1 46/3/1
f 50/3/1 49/3/1 48/3/1
f 51/3/1 49/3/1 50/3/1
f 54/3/1 53/3/1 52/3/1
f 55/3/1 53/3/1 54/3/1
f 56/3/1 54/3/1 52/3/1
f 57/3/1 54/3/1 56/3/1
f 60/3/1 59/3/1 58/3/1
f 61/3/1 59/3/1 60/3/1
f 64/3/1 63/3/1 62/3/1
f 65/3/1 63/3/1 64/3/1
f 68/3/1 67/3/1 66/3/1
f 69/3/1 67/3/1 68/3/1
f 72/3/1 71/3/1 70/3/1
f 73/3/1 71/3/1 72/3/1
f 76/4/1 75/4/1 74/4/1
f 77/4/1 75/4/1 76/4/1
f 78/4/1 76/4/1 74/4/1
f 78/3/1 77/3/1 76/3/1
f 79/3/1 77/3/1 78/3/1
f 80/4/1 78/4/1 74/4/1
f 80/4/1 79/4/1 78/4/1
f 81/4/1 79/4/1 80/4/1
f 82/4/1 80/4/1 74/4/1
f 83/3/1 81/3/1 80/3/1
f 83/4/1 80/4/1 82/4/1
f 84/3/1 81/3/1 83/3/1
f 87/3/1 86/3/1 85/3/1
f 88/3/1 86/3/1 87/3/1
f 93/4/1 90/4/1 89/4/1
f 94/4/1 90/4/1 93/4/1
f 95/3/1 92/3/1 91/3/1
f 96/3/1 92/3/1 95/3/1
f 97/4/1 93/4/1 89/4/1
f 98/3/1 94/3/1 93/3/1
f 98/4/1 93/4/1 97/4/1
f 99/3/1 94/3/1 98/3/1
f 100/3/2 101/3/2 105/3/2
f 105/3/2 101/3/2 106/3/2
f 102/4/2 103/4/2 107/4/2
f 103/3/2 104/3/2 108/3/2
f 107/4/2 103/4/2 108/4/2
f 108/3/2 104/3/2 109/3/2
f 107/4/2 108/4/2 110/4/2
f 108/4/2 109/4/2 110/4/2
f 110/4/2 109/4/2 111/4/2
f 111/4/2 109/4/2 112/4/2
f 113/4/2 114/4/2 115/4/2
f 115/4/2 114/4/2 116/4/2
f 113/4/2 115/4/2 117/4/2
f 115/3/2 116/3/2 118/3/2
f 117/4/2 115/4/2 118/4/2
f 118/3/2 116/3/2 119/3/2
f 120/3/2 121/3/2 122/3/2
f 122/3/2 121/3/2 123/3/2
f 124/3/2 125/3/2 126/3/2
f 126/3/2 125/3/2 127/3/2
f 128/3/2 129/3/2 130/3/2
f 130/3/2 129/3/2 131/3/2
f 132/5/2 133/5/2 134/5/2
f 134/5/2 133/5/2 135/5/2
f 132/5/2 134/5/2 136/5/2
f 136/5/2 134/5/2 137/5/2
f 138/3/2 139/3/2 140/3/2
f 140/3/2 139/3/2 141/3/2
f 142/3/2 143/3/2 144/3/2
f 144/3/2 143/3/2 145/3/2
f 146/3/2 147/3/2 148/3/2
f 148/3/2 147/3/2 149/3/2
f 146/3/2 148/3/2 150/3/2
f 150/3/2 148/3/2 151/3/2
f 152/3/2 153/3/2 154/3/2
f 154/3/2 153/3/2 155/3/2
f 156/3/2 157/3/2 158/3/2
f 158/3/2 157/3/2 159/3/2
f 160/4/2 161/4/2 162/4/2
f 162/4/2 161/4/2 163/4/2
f 162/3/2 163/3/2 164/3/2
f 163/4/2 161/4/2 165/4/2
f 164/3/2 163/3/2 165/3/2
f 165/4/2 161/4/2 166/4/2
f 164/4/2 165/4/2 167/4/2
f 165/4/2 166/4/2 167/4/2
f 167/4/2 166/4/2 168/4/2
f 169/3/2 170/3/2 176/3/2
f 170/4/2 171/4/2 177/4/2
f 176/3/2 170/3/2 177/3/2
f 172/3/2 173/3/2 178/3/2
f 178/3/2 173/3/2 179/3/2
f 174/3/2 175/3/2 180/3/2
f 180/3/2 175/3/2 181/3/2
f 176/4/2 177/4/2 182/4/2
f 177/4/2 171/4/2 183/4/2
f 182/4/2 177/4/2 183/4/2
f 184/4/2 185/4/2 188/4/2
f 188/4/2 185/4/2 189/4/2
f 186/4/2 187/4/2 190/4/2
f 190/4/2 187/4/2 191/4/2
f 192/4/2 193/4/2 194/4/2
f 194/4/2 193/4/2 195/4/2
f 198/4/3 197/4/3 196/4/3
f 199/4/3 197/4/3 198/4/3
f 202/3/3 201/3/3 200/3/3
f 203/3/3 201/3/3 202/3/3
f 206/4/3 205/4/3 204/4/3
f 207/4/3 205/4/3 206/4/3
f 210/5/3 209/5/3 208/5/3
f 211/5/3 209/5/3 210/5/3
f 212/5/3 210/5/3 208/5/3
f 213/6/3 211/6/3 210/6/3
f 213/5/3 210/5/3 212/5/3
f 214/5/3 209/5/3 211/5/3
f 214/6/3 211/6/3 213/6/3
f 215/5/3 212/5/3 208/5/3
f 216/5/3 214/5/3 213/5/3
f 217/5/3 209/5/3 214/5/3
f 217/5/3 214/5/3 216/5/3
f 218/5/3 216/5/3 215/5/3
f 218/6/3 217/6/3 216/6/3
f 219/5/3 209/5/3 217/5/3
f 219/6/3 217/6/3 218/6/3
f 220/5/3 218/5/3 215/5/3
f 220/5/3 215/5/3 208/5/3
f 220/5/3 219/5/3 218/5/3
f 221/5/3 209/5/3 219/5/3
f 221/5/3 219/5/3 220/5/3
f 224/3/3 223/3/3 222/3/3
f 225/3/3 223/3/3 224/3/3
f 226/3/3 224/3/3 222/3/3
f 226/6/3 225/6/3 224/6/3
f 227/3/3 223/3/3 225/3/3
f 227/6/3 225/6/3 226/6/3
f 228/3/3 226/3/3 222/3/3
f 228/3/3 227/3/3 226/3/3
f 229/3/3 223/3/3 227/3/3
f 229/3/3 227/3/3 228/3/3
f 230/3/3 228/3/3 222/3/3
f 230/6/3 229/6/3 228/6/3
f 231/3/3 223/3/3 229/3/3
f 231/6/3 229/6/3 230/6/3
f 232/3/3 230/3/3 222/3/3
f 232/3/3 231/3/3 230/3/3
f 233/3/3 223/3/3 231/3/3
f 233/3/3 231/3/3 232/3/3
f 236/4/3 235/4/3 234/4/3
f 237/4/3 235/4/3 236/4/3
f 240/3/3 239/3/3 238/3/3
f 241/3/3 239/3/3 240/3/3
f 244/3/3 243/3/3 242/3/3
f 245/3/3 243/3/3 244/3/3
f 248/4/3 247/4/3 246/4/3
f 249/4/3 247/4/3 248/4/3
f 250/4/3 248/4/3 246/4/3
f 251/3/3 249/3/3 248/3/3
f 251/4/3 248/4/3 250/4/3
f 252/4/3 247/4/3 249/4/3
f 252/3/3 249/3/3 251/3/3
f 253/4/3 247/4/3 252/4/3
f 258/3/3 255/3/3 254/3/3
f 259/3/3 255/3/3 258/3/3
f 262/3/3 257/3/3 256/3/3
f 263/3/3 257/3/3 262/3/3
f 264/3/3 261/3/3 260/3/3
f 265/3/3 261/3/3 264/3/3
f 268/4/3 267/4/3 266/4/3
f 269/4/3 267/4/3 268/4/3
f 270/3/3 269/3/3 268/3/3
f 271/4/3 267/4/3 269/4/3
f 271/3/3 269/3/3 270/3/3
f 272/4/3 267/4/3 271/4/3
f 275/3/3 274/3/3 273/3/3
f 276/3/3 274/3/3 275/3/3
f 280/3/3 278/3/3 277/3/3
f 281/4/3 279/4/3 278/4/3
f 281/3/3 278/3/3 280/3/3
f 282/4/3 279/4/3 281/4/3
f 283/4/3 281/4/3 280/4/3
f 283/3/3 282/3/3 281/3/3
f 284/3/3 282/3/3 283/3/3
f 285/4/3 283/4/3 280/4/3
f 285/4/3 284/4/3 283/4/3
f 286/4/3 284/4/3 285/4/3
f 289/3/3 288/3/3 287/3/3
f 290/3/3 288/3/3 289/3/3
f 293/3/3 292/3/3 291/3/3
f 294/3/3 292/3/3 293/3/3
f 297/4/3 296/4/3 295/4/3
f 298/4/3 296/4/3 297/4/3
f 301/3/3 300/3/3 299/3/3
f 302/3/3 300/3/3 301/3/3
f 303/4/4 304/4/4 308/4/4
f 304/3/4 305/3/4 308/3/4
f 305/4/4 306/4/4 309/4/4
f 308/3/4 305/3/4 309/3/4
f 306/3/4 307/3/4 310/3/4
f 309/4/4 306/4/4 310/4/4
f 310/3/4 307/3/4 311/3/4
f 308/4/4 309/4/4 312/4/4
f 303/4/4 308/4/4 312/4/4
f 310/4/4 311/4/4 312/4/4
f 309/4/4 310/4/4 312/4/4
f 312/4/4 311/4/4 313/4/4
f 313/4/4 311/4/4 314/4/4
f 317/3/4 318/3/4 319/3/4
f 319/3/4 318/3/4 320/3/4
f 321/3/4 322/3/4 323/3/4
f 323/3/4 322/3/4 324/3/4
f 315/3/4 316/3/4 325/3/4
f 325/3/4 316/3/4 326/3/4
f 327/4/4 328/4/4 330/4/4
f 328/3/4 329/3/4 330/3/4
f 330/3/4 329/3/4 331/3/4
f 327/4/4 330/4/4 332/4/4
f 330/4/4 331/4/4 332/4/4
f 332/4/4 331/4/4 333/4/4
f 334/3/4 335/3/4 336/3/4
f 336/3/4 335/3/4 337/3/4
f 338/3/4 339/3/4 340/3/4
f 340/3/4 339/3/4 341/3/4
f 342/3/4 343/3/4 344/3/4
f 344/3/4 343/3/4 345/3/4
f 346/3/4 347/3/4 348/3/4
f 348/3/4 347/3/4 349/3/4
f 350/5/4 351/5/4 352/5/4
f 352/5/4 351/5/4 353/5/4
f 354/5/4 355/5/4 356/5/4
f 356/5/4 355/5/4 357/5/4
f 358/3/4 359/3/4 360/3/4
f 360/3/4 359/3/4 361/3/4
f 362/3/4 363/3/4 364/3/4
f 364/3/4 363/3/4 365/3/4
f 366/3/4 367/3/4 369/3/4
f 367/4/4 368/4/4 370/4/4
f 369/3/4 367/3/4 370/3/4
f 370/4/4 368/4/4 371/4/4
f 369/4/4 370/4/4 372/4/4
f 370/3/4 371/3/4 373/3/4
f 372/4/4 370/4/4 373/4/4
f 373/3/4 371/3/4 374/3/4
f 375/4/4 376/4/4 379/4/4
f 379/4/4 376/4/4 380/4/4
f 376/3/4 377/3/4 381/3/4
f 380/4/4 376/4/4 381/4/4
f 377/4/4 378/4/4 382/4/4
f 381/3/4 377/3/4 382/3/4
f 379/3/4 380/3/4 383/3/4
f 380/4/4 381/4/4 384/4/4
f 383/3/4 380/3/4 384/3/4
f 381/4/4 382/4/4 384/4/4
f 382/4/4 378/4/4 385/4/4
f 384/4/4 382/4/4 385/4/4
f 386/3/4 387/3/4 388/3/4
f 388/3/4 387/3/4 389/3/4
f 390/3/4 391/3/4 392/3/4
f 392/3/4 391/3/4 393/3/4
f 394/4/4 395/4/4 396/4/4
f 396/4/4 395/4/4 397/4/4
f 398/4/4 399/4/4 400/4/4
f 400/4/4 399/4/4 401/4/4
f 402/4/4 403/4/4 404/4/4
f 404/4/4 403/4/4 405/4/4
f 409/4/5 407/4/5 406/4/5
f 410/4/5 407/4/5 409/4/5
f 412/4/5 409/4/5 408/4/5
f 412/4/5 411/4/5 410/4/5
f 412/4/5 410/4/5 409/4/5
f 413/4/5 411/4/5 412/4/5
f 414/4/5 411/4/5 413/4/5
f 415/4/5 411/4/5 414/4/5
f 416/4/5 414/4/5 413/4/5
f 417/4/5 414/4/5 416/4/5
f 422/3/5 421/3/5 420/3/5
f 423/3/5 421/3/5 422/3/5
f 424/3/5 421/3/5 423/3/5
f 425/3/5 421/3/5 424/3/5
f 426/5/5 419/5/5 418/5/5
f 427/5/5 419/5/5 426/5/5
f 428/5/5 419/5/5 427/5/5
f 429/5/5 419/5/5 428/5/5
f 430/3/5 422/3/5 420/3/5
f 431/3/5 424/3/5 423/3/5
f 432/3/5 424/3/5 431/3/5
f 433/3/5 421/3/5 425/3/5
f 434/3/5 432/3/5 431/3/5
f 434/3/5 433/3/5 432/3/5
f 434/3/5 430/3/5 420/3/5
f 434/3/5 431/3/5 430/3/5
f 435/3/5 421/3/5 433/3/5
f 435/3/5 433/3/5 434/3/5
f 436/5/5 426/5/5 418/5/5
f 437/5/5 428/5/5 427/5/5
f 438/5/5 428/5/5 437/5/5
f 439/5/5 419/5/5 429/5/5
f 440/5/5 438/5/5 437/5/5
f 440/5/5 439/5/5 438/5/5
f 440/5/5 436/5/5 418/5/5
f 440/5/5 437/5/5 436/5/5
f 441/5/5 419/5/5 439/5/5
f 441/5/5 439/5/5 440/5/5
f 444/3/5 443/3/5 442/3/5
f 445/3/5 443/3/5 444/3/5
f 446/4/6 447/4/6 449/4/6
f 449/4/6 447/4/6 450/4/6
f 448/4/6 449/4/6 452/4/6
f 450/4/6 451/4/6 452/4/6
f 449/4/6 450/4/6 452/4/6
f 452/4/6 451/4/6 453/4/6
f 453/4/6 451/4/6 454/4/6
f 454/4/6 451/4/6 455/4/6
f 455/4/6 451/4/6 456/4/6
f 456/4/6 451/4/6 457/4/6
f 448/4/6 452/4/6 458/4/6
f 458/4/6 452/4/6 459/4/6
f 459/4/6 452/4/6 460/4/6
f 460/4/6 452/4/6 461/4/6
f 455/4/6 456/4/6 462/4/6
f 457/4/6 451/4/6 463/4/6
f 463/4/6 451/4/6 464/4/6
f 464/4/6 451/4/6 465/4/6
f 461/4/6 452/4/6 466/4/6
f 453/4/6 454/4/6 467/4/6
f 467/4/6 454/4/6 468/4/6
f 455/4/6 462/4/6 469/4/6
f 462/4/6 463/4/6 469/4/6
f 465/4/6 451/4/6 470/4/6
f 467/4/6 468/4/6 471/4/6
f 468/4/6 469/4/6 471/4/6
f 466/4/6 467/4/6 471/4/6
f 469/4/6 463/4/6 471/4/6
f 470/4/6 451/4/6 472/4/6
f 448/4/6 458/4/6 473/4/6
f 459/4/6 460/4/6 474/4/6
f 474/4/6 460/4/6 475/4/6
f 466/4/6 471/4/6 476/4/6
f 461/4/6 466/4/6 476/4/6
f 471/4/6 472/4/6 476/4/6
f 474/4/6 475/4/6 477/4/6
f 475/4/6 476/4/6 477/4/6
f 476/4/6 472/4/6 477/4/6
f 473/4/6 474/4/6 477/4/6
f 472/4/6 451/4/6 478/4/6
f 477/4/6 472/4/6 478/4/6
f 473/4/6 477/4/6 479/4/6
f 478/4/6 451/4/6 480/4/6
f 473/4/6 479/4/6 481/4/6
f 479/4/6 480/4/6 481/4/6
f 448/4/6 473/4/6 481/4/6
f 481/4/6 480/4/6 482/4/6
f 482/4/6 480/4/6 483/4/6
f 483/4/6 480/4/6 484/4/6
f 484/4/6 480/4/6 485/4/6
f 448/4/6 481/4/6 486/4/6
f 483/4/6 484/4/6 487/4/6
f 485/4/6 480/4/6 488/4/6
f 488/4/6 480/4/6 489/4/6
f 480/4/6 451/4/6 490/4/6
f 489/4/6 480/4/6 490/4/6
f 448/4/6 486/4/6 491/4/6
f 488/4/6 489/4/6 494/4/6
f 483/4/6 487/4/6 494/4/6
f 487/4/6 488/4/6 494/4/6
f 494/4/6 489/4/6 495/4/6
f 495/4/6 489/4/6 496/4/6
f 448/4/6 491/4/6 497/4/6
f 492/4/6 493/4/6 498/4/6
f 493/4/6 494/4/6 498/4/6
f 494/4/6 495/4/6 498/4/6
f 448/4/6 497/4/6 499/4/6
f 498/4/6 495/4/6 501/4/6
f 501/4/6 495/4/6 502/4/6
f 496/4/6 489/4/6 503/4/6
f 503/4/6 489/4/6 504/4/6
f 490/4/6 451/4/6 505/4/6
f 499/4/6 500/4/6 506/4/6
f 504/4/6 505/4/6 506/4/6
f 501/4/6 502/4/6 506/4/6
f 503/4/6 504/4/6 506/4/6
f 502/4/6 503/4/6 506/4/6
f 448/4/6 499/4/6 506/4/6
f 500/4/6 501/4/6 506/4/6
f 506/4/6 505/4/6 507/4/6
f 505/4/6 451/4/6 508/4/6
f 507/4/6 505/4/6 508/4/6
f 508/4/6 451/4/6 509/4/6
f 507/4/6 508/4/6 510/4/6
f 510/4/6 508/4/6 511/4/6
f 512/3/6 513/3/6 514/3/6
f 514/3/6 513/3/6 515/3/6
f 516/3/6 517/3/6 518/3/6
f 518/3/6 517/3/6 519/3/6
f 520/3/6 521/3/6 524/3/6
f 524/3/6 521/3/6 525/3/6
f 520/3/6 524/3/6 526/3/6
f 524/5/6 525/5/6 526/5/6
f 525/3/6 521/3/6 527/3/6
f 526/5/6 525/5/6 527/5/6
f 522/3/6 523/3/6 528/3/6
f 528/3/6 523/3/6 529/3/6
f 520/3/6 526/3/6 530/3/6
f 526/3/6 527/3/6 530/3/6
f 527/3/6 521/3/6 531/3/6
f 530/3/6 527/3/6 531/3/6
f 532/4/6 533/4/6 534/4/6
f 534/4/6 533/4/6 535/4/6
f 534/3/6 535/3/6 536/3/6
f 535/4/6 533/4/6 537/4/6
f 536/3/6 535/3/6 537/3/6
f 537/4/6 533/4/6 538/4/6
f 539/4/6 540/4/6 543/4/6
f 540/3/6 541/3/6 543/3/6
f 541/4/6 542/4/6 544/4/6
f 543/3/6 541/3/6 544/3/6
f 544/4/6 542/4/6 545/4/6
f 545/4/6 542/4/6 546/4/6
f 539/4/6 543/4/6 547/4/6
f 543/4/6 544/4/6 547/4/6
f 544/4/6 545/4/6 547/4/6
f 547/4/6 545/4/6 548/4/6
f 545/3/6 546/3/6 549/3/6
f 548/4/6 545/4/6 549/4/6
f 549/3/6 546/3/6 550/3/6
f 551/4/6 552/4/6 553/4/6
f 553/4/6 552/4/6 554/4/6
f 553/3/6 554/3/6 555/3/6
f 554/4/6 552/4/6 556/4/6
f 555/3/6 554/3/6 556/3/6
f 556/4/6 552/4/6 557/4/6
f 558/3/6 559/3/6 560/3/6
f 560/3/6 559/3/6 561/3/6
f 562/4/6 563/4/6 564/4/6
f 564/4/6 563/4/6 565/4/6
f 566/3/6 567/3/6 568/3/6
f 568/3/6 567/3/6 569/3/6
f 570/3/6 571/3/6 572/3/6
f 572/3/6 571/3/6 573/3/6
f 574/5/6 575/5/6 576/5/6
f 576/5/6 575/5/6 577/5/6
f 578/5/6 579/5/6 580/5/6
f 580/5/6 579/5/6 581/5/6
f 578/5/6 580/5/6 582/5/6
f 581/5/6 579/5/6 583/5/6
f 578/5/6 582/5/6 584/5/6
f 582/5/6 583/5/6 584/5/6
f 583/5/6 579/5/6 585/5/6
f 584/5/6 583/5/6 585/5/6
f 586/3/6 587/3/6 588/3/6
f 588/3/6 587/3/6 589/3/6
