# MagicaVoxel @ Ephtracy

# group
o 

# material
mtllib chapter_eight_tile.mtl
usemtl palette

# normals
vn -1 0 0
vn 1 0 0
vn 0 0 1
vn 0 0 -1
vn 0 -1 0
vn 0 1 0

# texcoords
vt 0.130859 0.5
vt 0.513672 0.5
vt 0.556641 0.5
vt 0.619141 0.5
vt 0.693359 0.5
vt 0.837891 0.5
vt 0.947266 0.5
vt 0.951172 0.5
vt 0.962891 0.5
vt 0.990234 0.5

# verts
v -1.9 0.3 1.8
v -1.9 0.3 0.8
v -1.9 0.3 0.5
v -1.9 0.3 -0.5
v -1.9 0.3 -0.8
v -1.9 0.3 -1.8
v -1.9 0.5 1.8
v -1.9 0.5 1.5
v -1.9 0.5 0.9
v -1.9 0.5 0.8
v -1.9 0.5 0.5
v -1.9 0.5 -0.5
v -1.9 0.5 -0.8
v -1.9 0.5 -1.8
v -1.9 0.6 1.5
v -1.9 0.6 0.9
v -1.9 0.6 -0.8
v -1.9 0.6 -1.1
v -1.9 0.8 1.5
v -1.9 0.8 1.4
v -1.9 0.8 1.3
v -1.9 0.8 1.2
v -1.9 0.8 1.1
v -1.9 0.8 1
v -1.9 0.8 -0.8
v -1.9 0.8 -1.1
v -1.9 1 1.4
v -1.9 1 1.3
v -1.9 1 1.2
v -1.9 1 1.1
v -1.9 1.1 -1.6
v -1.9 1.1 -1.7
v -1.9 1.2 1.5
v -1.9 1.2 1
v -1.9 1.2 -1.6
v -1.9 1.2 -1.7
v -1.8 0.3 1.9
v -1.8 0.3 1.8
v -1.8 0.3 0.8
v -1.8 0.3 0.7
v -1.8 0.3 0.6
v -1.8 0.3 0.5
v -1.8 0.3 -0.5
v -1.8 0.3 -0.6
v -1.8 0.3 -0.7
v -1.8 0.3 -0.8
v -1.8 0.3 -1.8
v -1.8 0.3 -1.9
v -1.8 0.5 1.9
v -1.8 0.5 1.8
v -1.8 0.5 0.8
v -1.8 0.5 0.7
v -1.8 0.5 0.6
v -1.8 0.5 0.5
v -1.8 0.5 -0.5
v -1.8 0.5 -0.6
v -1.8 0.5 -0.7
v -1.8 0.5 -0.8
v -1.8 0.5 -1.8
v -1.8 0.5 -1.9
v -1.8 0.7 1.8
v -1.8 0.7 0.8
v -1.8 0.7 -1.1
v -1.8 0.7 -1.2
v -1.8 0.8 1.5
v -1.8 0.8 1.4
v -1.8 0.8 1.3
v -1.8 0.8 1.2
v -1.8 0.8 1.1
v -1.8 0.8 1
v -1.8 0.8 -0.9
v -1.8 0.8 -1.1
v -1.8 0.9 -0.9
v -1.8 0.9 -1.2
v -1.8 1 1.8
v -1.8 1 1.7
v -1.8 1 -1.6
v -1.8 1 -1.7
v -1.8 1.1 1.8
v -1.8 1.1 1.7
v -1.8 1.1 -1.6
v -1.8 1.1 -1.7
v -1.8 1.2 1.5
v -1.8 1.2 1
v -1.8 1.6 1.8
v -1.8 1.6 1.6
v -1.8 1.6 1.3
v -1.8 1.6 0.8
v -1.8 1.8 1.6
v -1.8 1.8 1.3
v -1.7 0.6 1.6
v -1.7 0.6 1.4
v -1.7 0.6 1
v -1.7 0.6 0.9
v -1.7 0.6 -1.1
v -1.7 0.6 -1.2
v -1.7 0.7 1.6
v -1.7 0.7 0.9
v -1.7 0.7 0.8
v -1.7 0.7 0.7
v -1.7 0.7 -1.1
v -1.7 0.7 -1.2
v -1.7 0.9 -1.6
v -1.7 0.9 -1.7
v -1.7 1 0.8
v -1.7 1 0.7
v -1.7 1 -1.6
v -1.7 1 -1.7
v -1.6 0.8 -1.6
v -1.6 0.8 -1.7
v -1.6 0.9 -1.6
v -1.6 0.9 -1.7
v -1.6 1.5 -1.2
v -1.6 1.5 -1.3
v -1.6 1.6 -1.2
v -1.6 1.6 -1.3
v -1.5 0.6 -1.6
v -1.5 0.6 -1.7
v -1.5 0.7 -1.6
v -1.5 0.7 -1.7
v -1.5 1.4 -1.2
v -1.5 1.4 -1.3
v -1.5 1.5 -1.2
v -1.5 1.5 -1.3
v -1.4 0.5 -1.6
v -1.4 0.5 -1.7
v -1.4 0.6 -1.5
v -1.4 0.6 -1.6
v -1.4 0.6 -1.7
v -1.4 0.6 -1.8
v -1.4 0.7 -1.5
v -1.4 0.7 -1.6
v -1.4 0.7 -1.7
v -1.4 0.7 -1.8
v -1.4 0.8 -1.6
v -1.4 0.8 -1.7
v -1.4 1 1.9
v -1.4 1 1.8
v -1.4 1.3 1.9
v -1.4 1.3 1.8
v -1.4 1.3 -1.2
v -1.4 1.3 -1.3
v -1.4 1.4 -1.2
v -1.4 1.4 -1.3
v -1.3 1.2 -1.2
v -1.3 1.2 -1.3
v -1.3 1.3 -1.2
v -1.3 1.3 -1.3
v -1.2 1.1 -1.2
v -1.2 1.1 -1.3
v -1.2 1.2 -1.2
v -1.2 1.2 -1.3
v -1.1 0.6 1.6
v -1.1 0.6 1.3
v -1.1 0.6 1.1
v -1.1 0.6 0.9
v -1.1 0.7 1.6
v -1.1 0.7 0.9
v -1.1 0.9 -1.2
v -1.1 0.9 -1.3
v -1.1 1 -1.2
v -1.1 1 -1.3
v -1 0.8 -1.2
v -1 0.8 -1.3
v -1 0.9 -1.1
v -1 0.9 -1.2
v -1 0.9 -1.3
v -1 0.9 -1.4
v -1 1 -1.1
v -1 1 -1.2
v -1 1 -1.3
v -1 1 -1.4
v -1 1.1 -1.2
v -1 1.1 -1.3
v -1 1.6 1.6
v -1 1.6 1.3
v -1 1.7 1.6
v -1 1.7 1.3
v -0.9 1.7 1.6
v -0.9 1.7 1.3
v -0.9 1.8 1.6
v -0.9 1.8 1.3
v -0.6 0.3 1.8
v -0.6 0.3 0.8
v -0.6 0.3 0.5
v -0.6 0.3 -0.5
v -0.6 0.3 -0.8
v -0.6 0.3 -1.8
v -0.6 0.5 1.8
v -0.6 0.5 1.3
v -0.6 0.5 1.1
v -0.6 0.5 0.8
v -0.6 0.5 0.5
v -0.6 0.5 -0.5
v -0.6 0.5 -0.8
v -0.6 0.5 -1.8
v -0.5 0.3 1.9
v -0.5 0.3 1.8
v -0.5 0.3 0.8
v -0.5 0.3 0.7
v -0.5 0.3 0.6
v -0.5 0.3 0.5
v -0.5 0.3 -0.5
v -0.5 0.3 -0.6
v -0.5 0.3 -0.7
v -0.5 0.3 -0.8
v -0.5 0.3 -1.8
v -0.5 0.3 -1.9
v -0.5 0.5 1.9
v -0.5 0.5 1.8
v -0.5 0.5 1.1
v -0.5 0.5 0.9
v -0.5 0.5 0.8
v -0.5 0.5 0.7
v -0.5 0.5 0.6
v -0.5 0.5 0.5
v -0.5 0.5 -0.5
v -0.5 0.5 -0.6
v -0.5 0.5 -0.7
v -0.5 0.5 -0.8
v -0.5 0.5 -1.8
v -0.5 0.5 -1.9
v -0.5 0.6 1.1
v -0.5 0.6 0.9
v -0.1 0.5 1.5
v -0.1 0.5 1.3
v -0.1 0.6 1.5
v -0.1 0.6 1.3
v 0 0.5 1.6
v 0 0.5 1.5
v 0 0.6 1.6
v 0 0.6 1.5
v 0 0.6 1.4
v 0 0.7 1.6
v 0 0.7 1.4
v 0.1 0.5 -1.6
v 0.1 0.5 -1.9
v 0.1 0.6 1.7
v 0.1 0.6 1.6
v 0.1 0.6 -1.6
v 0.1 0.6 -1.9
v 0.1 0.7 1.6
v 0.1 0.7 1.5
v 0.1 0.8 1.7
v 0.1 0.8 1.5
v 0.3 0.6 -1.6
v 0.3 0.6 -1.8
v 0.3 0.7 -1.6
v 0.3 0.7 -1.8
v 0.4 0.7 -1.6
v 0.4 0.7 -1.8
v 0.4 0.8 -1.6
v 0.4 0.8 -1.8
v 0.7 0.3 1.8
v 0.7 0.3 0.8
v 0.7 0.3 0.5
v 0.7 0.3 -0.5
v 0.7 0.3 -0.8
v 0.7 0.3 -0.9
v 0.7 0.3 -1.8
v 0.7 0.5 1.8
v 0.7 0.5 0.8
v 0.7 0.5 0.5
v 0.7 0.5 -0.5
v 0.7 0.5 -0.8
v 0.7 0.5 -0.9
v 0.7 0.5 -1.1
v 0.7 0.6 -1.1
v 0.7 0.6 -1.4
v 0.7 0.7 -1.4
v 0.7 0.7 -1.8
v 0.8 0.3 1.9
v 0.8 0.3 1.8
v 0.8 0.3 0.8
v 0.8 0.3 0.7
v 0.8 0.3 0.6
v 0.8 0.3 0.5
v 0.8 0.3 -0.5
v 0.8 0.3 -0.6
v 0.8 0.3 -0.7
v 0.8 0.3 -0.8
v 0.8 0.3 -1.8
v 0.8 0.3 -1.9
v 0.8 0.5 1.9
v 0.8 0.5 1.8
v 0.8 0.5 1.6
v 0.8 0.5 1.5
v 0.8 0.5 0.8
v 0.8 0.5 0.7
v 0.8 0.5 0.6
v 0.8 0.5 0.5
v 0.8 0.5 -0.5
v 0.8 0.5 -0.6
v 0.8 0.5 -0.7
v 0.8 0.5 -0.8
v 0.8 0.6 1.6
v 0.8 0.6 1.5
v 0.8 0.6 -1.2
v 0.8 0.6 -1.4
v 0.8 0.7 -1.4
v 0.8 0.7 -1.8
v 0.8 0.8 -1.1
v 0.8 0.8 -1.2
v 0.8 0.8 -1.7
v 0.8 0.8 -1.9
v 0.8 1.4 -1.1
v 0.8 1.4 -1.7
v 0.9 0.5 1.7
v 0.9 0.5 1.6
v 0.9 0.5 1.5
v 0.9 0.5 1.4
v 0.9 0.5 -0.9
v 0.9 0.5 -1.1
v 0.9 0.6 1.7
v 0.9 0.6 1.6
v 0.9 0.6 1.5
v 0.9 0.6 1.4
v 0.9 0.6 -0.9
v 0.9 0.6 -1.1
v 0.9 0.7 1.6
v 0.9 0.7 1.5
v 1 0.6 -1.1
v 1 0.6 -1.2
v 1 0.8 -0.9
v 1 0.8 -1.1
v 1 0.8 -1.2
v 1 0.8 -1.7
v 1 0.8 -1.9
v 1 1.4 -0.9
v 1 1.4 -1.1
v 1 1.4 -1.7
v 1 1.4 -1.9
v 1 1.6 -1.1
v 1 1.6 -1.7
v 1.1 0.6 -1
v 1.1 0.6 -1.1
v 1.1 0.8 -1
v 1.1 0.8 -1.1
v 1.6 0.8 1.2
v 1.6 0.8 1.1
v 1.6 0.9 1.2
v 1.6 0.9 1.1
v 1.6 1 -1.1
v 1.6 1 -1.7
v 1.6 1.1 -1.1
v 1.6 1.1 -1.7
v 1.7 0.7 1.2
v 1.7 0.7 1.1
v 1.7 0.8 1.3
v 1.7 0.8 1.2
v 1.7 0.8 1.1
v 1.7 0.8 1
v 1.7 0.9 1.3
v 1.7 0.9 1.2
v 1.7 0.9 1.1
v 1.7 0.9 1
v 1.7 1 1.2
v 1.7 1 1.1
v 1.7 1.1 -1.2
v 1.7 1.1 -1.6
v 1.7 1.2 -1.2
v 1.7 1.2 -1.6
v -1.8 0.5 1.5
v -1.8 0.5 1.4
v -1.8 0.5 1
v -1.8 0.5 0.9
v -1.8 0.6 1.5
v -1.8 0.6 1.4
v -1.8 0.6 1
v -1.8 0.6 0.9
v -1.8 1.1 -1.6
v -1.8 1.1 -1.7
v -1.8 1.2 -1.6
v -1.8 1.2 -1.7
v -1.7 0.5 1.1
v -1.7 0.5 1
v -1.7 0.6 1.1
v -1.7 0.6 1
v -1.7 1 -1.6
v -1.7 1 -1.7
v -1.7 1.1 -1.6
v -1.7 1.1 -1.7
v -1.7 1.7 1.6
v -1.7 1.7 1.3
v -1.7 1.8 1.6
v -1.7 1.8 1.3
v -1.6 0.5 1.4
v -1.6 0.5 1.3
v -1.6 0.6 1.4
v -1.6 0.6 1.3
v -1.6 0.6 -0.8
v -1.6 0.6 -0.9
v -1.6 0.8 -0.8
v -1.6 0.8 -0.9
v -1.6 0.9 -1.6
v -1.6 0.9 -1.7
v -1.6 1 -1.6
v -1.6 1 -1.7
v -1.6 1.6 1.6
v -1.6 1.6 1.3
v -1.6 1.7 1.6
v -1.6 1.7 1.3
v -1.5 0.6 1.6
v -1.5 0.6 1.3
v -1.5 0.6 1.1
v -1.5 0.6 0.9
v -1.5 0.7 1.6
v -1.5 0.7 0.9
v -1.5 0.8 -0.9
v -1.5 0.8 -1.2
v -1.5 0.8 -1.6
v -1.5 0.8 -1.7
v -1.5 0.9 -0.9
v -1.5 0.9 -1.2
v -1.5 0.9 -1.6
v -1.5 0.9 -1.7
v -1.5 1.5 -1.2
v -1.5 1.5 -1.3
v -1.5 1.6 -1.2
v -1.5 1.6 -1.3
v -1.4 0.6 -0.9
v -1.4 0.6 -1.2
v -1.4 0.8 -0.9
v -1.4 0.8 -1.2
v -1.4 1.4 -1.2
v -1.4 1.4 -1.3
v -1.4 1.5 -1.2
v -1.4 1.5 -1.3
v -1.3 0.5 -1.6
v -1.3 0.5 -1.7
v -1.3 0.6 -1.5
v -1.3 0.6 -1.6
v -1.3 0.6 -1.7
v -1.3 0.6 -1.8
v -1.3 0.7 -1.5
v -1.3 0.7 -1.6
v -1.3 0.7 -1.7
v -1.3 0.7 -1.8
v -1.3 0.8 -1.6
v -1.3 0.8 -1.7
v -1.3 1.3 -1.2
v -1.3 1.3 -1.3
v -1.3 1.4 -1.2
v -1.3 1.4 -1.3
v -1.2 0.6 -1.6
v -1.2 0.6 -1.7
v -1.2 0.7 -1.6
v -1.2 0.7 -1.7
v -1.2 1 1.9
v -1.2 1 1.8
v -1.2 1.2 -1.2
v -1.2 1.2 -1.3
v -1.2 1.3 1.9
v -1.2 1.3 1.8
v -1.2 1.3 -1.2
v -1.2 1.3 -1.3
v -1.1 1.1 -1.2
v -1.1 1.1 -1.3
v -1.1 1.2 -1.2
v -1.1 1.2 -1.3
v -0.9 0.6 1.6
v -0.9 0.6 1.3
v -0.9 0.6 1.1
v -0.9 0.6 0.9
v -0.9 0.7 1.6
v -0.9 0.7 0.9
v -0.9 0.7 0.8
v -0.9 0.7 0.7
v -0.9 0.8 -1.2
v -0.9 0.8 -1.3
v -0.9 0.9 -1.1
v -0.9 0.9 -1.2
v -0.9 0.9 -1.3
v -0.9 0.9 -1.4
v -0.9 1 0.8
v -0.9 1 0.7
v -0.9 1 -1.1
v -0.9 1 -1.2
v -0.9 1 -1.3
v -0.9 1 -1.4
v -0.9 1.1 -1.2
v -0.9 1.1 -1.3
v -0.8 0.3 1.9
v -0.8 0.3 1.8
v -0.8 0.3 0.8
v -0.8 0.3 0.7
v -0.8 0.3 0.6
v -0.8 0.3 0.5
v -0.8 0.3 -0.5
v -0.8 0.3 -0.6
v -0.8 0.3 -0.7
v -0.8 0.3 -0.8
v -0.8 0.3 -1.8
v -0.8 0.3 -1.9
v -0.8 0.5 1.9
v -0.8 0.5 1.8
v -0.8 0.5 0.8
v -0.8 0.5 0.7
v -0.8 0.5 0.6
v -0.8 0.5 0.5
v -0.8 0.5 -0.5
v -0.8 0.5 -0.6
v -0.8 0.5 -0.7
v -0.8 0.5 -0.8
v -0.8 0.5 -1.8
v -0.8 0.5 -1.9
v -0.8 0.7 1.8
v -0.8 0.7 0.8
v -0.8 0.8 1.5
v -0.8 0.8 1.4
v -0.8 0.8 1.3
v -0.8 0.8 1.2
v -0.8 0.8 1.1
v -0.8 0.8 1
v -0.8 0.9 -1.2
v -0.8 0.9 -1.3
v -0.8 1 1.8
v -0.8 1 1.7
v -0.8 1 -1.2
v -0.8 1 -1.3
v -0.8 1.1 1.8
v -0.8 1.1 1.7
v -0.8 1.2 1.5
v -0.8 1.2 1
v -0.8 1.6 1.8
v -0.8 1.6 1.6
v -0.8 1.6 1.3
v -0.8 1.6 0.8
v -0.8 1.8 1.6
v -0.8 1.8 1.3
v -0.7 0.3 1.8
v -0.7 0.3 0.8
v -0.7 0.3 0.5
v -0.7 0.3 -0.5
v -0.7 0.3 -0.8
v -0.7 0.3 -1.8
v -0.7 0.5 1.8
v -0.7 0.5 1.3
v -0.7 0.5 1.1
v -0.7 0.5 0.8
v -0.7 0.5 0.5
v -0.7 0.5 -0.5
v -0.7 0.5 -0.8
v -0.7 0.5 -1.8
v -0.7 0.8 1.5
v -0.7 0.8 1.4
v -0.7 0.8 1.3
v -0.7 0.8 1.2
v -0.7 0.8 1.1
v -0.7 0.8 1
v -0.7 1 1.4
v -0.7 1 1.3
v -0.7 1 1.2
v -0.7 1 1.1
v -0.7 1.2 1.5
v -0.7 1.2 1
v -0.3 0.5 1.1
v -0.3 0.5 0.9
v -0.3 0.6 1.1
v -0.3 0.6 0.9
v 0 0.5 1.2
v 0 0.5 1.1
v 0 0.6 1.2
v 0 0.6 1.1
v 0.1 0.5 1.4
v 0.1 0.5 1.2
v 0.1 0.6 1.4
v 0.1 0.6 1.2
v 0.2 0.5 1.6
v 0.2 0.5 1.4
v 0.2 0.6 1.6
v 0.2 0.6 1.5
v 0.2 0.6 1.4
v 0.2 0.7 1.5
v 0.2 0.7 1.4
v 0.3 0.6 1.7
v 0.3 0.6 1.5
v 0.3 0.8 1.7
v 0.3 0.8 1.5
v 0.5 0.3 1.9
v 0.5 0.3 1.8
v 0.5 0.3 0.8
v 0.5 0.3 0.7
v 0.5 0.3 0.6
v 0.5 0.3 0.5
v 0.5 0.3 -0.5
v 0.5 0.3 -0.6
v 0.5 0.3 -0.7
v 0.5 0.3 -0.8
v 0.5 0.3 -1.8
v 0.5 0.3 -1.9
v 0.5 0.5 1.9
v 0.5 0.5 1.8
v 0.5 0.5 0.8
v 0.5 0.5 0.7
v 0.5 0.5 0.6
v 0.5 0.5 0.5
v 0.5 0.5 -0.5
v 0.5 0.5 -0.6
v 0.5 0.5 -0.7
v 0.5 0.5 -0.8
v 0.5 0.5 -1.8
v 0.5 0.5 -1.9
v 0.5 0.6 -1.8
v 0.5 0.6 -1.9
v 0.6 0.3 1.8
v 0.6 0.3 0.8
v 0.6 0.3 0.5
v 0.6 0.3 -0.5
v 0.6 0.3 -0.8
v 0.6 0.3 -1.8
v 0.6 0.5 1.8
v 0.6 0.5 0.8
v 0.6 0.5 0.5
v 0.6 0.5 -0.5
v 0.6 0.5 -0.8
v 0.6 0.5 -1.6
v 0.6 0.5 -1.8
v 0.6 0.8 -1.6
v 0.6 0.8 -1.8
v 1 0.5 1.7
v 1 0.5 1.6
v 1 0.5 1.5
v 1 0.5 1.4
v 1 0.6 1.7
v 1 0.6 1.6
v 1 0.6 1.5
v 1 0.6 1.4
v 1 0.7 1.6
v 1 0.7 1.5
v 1.1 0.5 1.6
v 1.1 0.5 1.5
v 1.1 0.6 1.6
v 1.1 0.6 1.5
v 1.2 1.1 -0.9
v 1.2 1.1 -1.9
v 1.2 1.4 -0.9
v 1.2 1.4 -1.1
v 1.2 1.4 -1.7
v 1.2 1.4 -1.9
v 1.2 1.5 -1.1
v 1.2 1.5 -1.2
v 1.2 1.5 -1.6
v 1.2 1.5 -1.7
v 1.2 1.6 -1.1
v 1.2 1.6 -1.2
v 1.2 1.6 -1.6
v 1.2 1.6 -1.7
v 1.3 1 -0.9
v 1.3 1 -1.9
v 1.3 1.1 -0.9
v 1.3 1.1 -1.9
v 1.3 1.4 -1.1
v 1.3 1.4 -1.7
v 1.3 1.5 -1.1
v 1.3 1.5 -1.2
v 1.3 1.5 -1.6
v 1.3 1.5 -1.7
v 1.4 1.5 -1.2
v 1.4 1.5 -1.6
v 1.4 1.6 -1.2
v 1.4 1.6 -1.6
v 1.6 0.7 -1.8
v 1.6 0.7 -1.9
v 1.6 0.8 -0.9
v 1.6 0.8 -1
v 1.6 0.8 -1.1
v 1.6 0.8 -1.7
v 1.6 0.8 -1.8
v 1.6 0.8 -1.9
v 1.6 1 -0.9
v 1.6 1 -1.1
v 1.6 1 -1.7
v 1.6 1 -1.9
v 1.7 0.6 -1.8
v 1.7 0.6 -1.9
v 1.7 0.7 -1.8
v 1.7 0.7 -1.9
v 1.7 1 -1.1
v 1.7 1 -1.2
v 1.7 1 -1.6
v 1.7 1 -1.7
v 1.7 1.1 -1.1
v 1.7 1.1 -1.2
v 1.7 1.1 -1.6
v 1.7 1.1 -1.7
v 1.8 0.3 1.9
v 1.8 0.3 1.8
v 1.8 0.3 0.8
v 1.8 0.3 0.7
v 1.8 0.3 0.6
v 1.8 0.3 0.5
v 1.8 0.3 -0.5
v 1.8 0.3 -0.6
v 1.8 0.3 -0.7
v 1.8 0.3 -0.8
v 1.8 0.3 -1.8
v 1.8 0.3 -1.9
v 1.8 0.5 1.9
v 1.8 0.5 1.8
v 1.8 0.5 0.8
v 1.8 0.5 0.7
v 1.8 0.5 0.6
v 1.8 0.5 0.5
v 1.8 0.5 -0.5
v 1.8 0.5 -0.6
v 1.8 0.5 -0.7
v 1.8 0.5 -0.8
v 1.8 0.6 -1
v 1.8 0.6 -1.2
v 1.8 0.6 -1.7
v 1.8 0.6 -1.8
v 1.8 0.6 -1.9
v 1.8 0.7 1.2
v 1.8 0.7 1.1
v 1.8 0.8 1.3
v 1.8 0.8 1.2
v 1.8 0.8 1.1
v 1.8 0.8 1
v 1.8 0.8 -1
v 1.8 0.8 -1.1
v 1.8 0.8 -1.2
v 1.8 0.8 -1.7
v 1.8 0.8 -1.8
v 1.8 0.9 1.3
v 1.8 0.9 1.2
v 1.8 0.9 1.1
v 1.8 0.9 1
v 1.8 1 1.2
v 1.8 1 1.1
v 1.8 1 -1.1
v 1.8 1 -1.2
v 1.8 1 -1.6
v 1.8 1 -1.7
v 1.8 1.2 -1.2
v 1.8 1.2 -1.6
v 1.9 0.3 1.8
v 1.9 0.3 0.8
v 1.9 0.3 0.5
v 1.9 0.3 -0.5
v 1.9 0.3 -0.8
v 1.9 0.3 -0.9
v 1.9 0.3 -1.8
v 1.9 0.5 1.8
v 1.9 0.5 0.8
v 1.9 0.5 0.5
v 1.9 0.5 -0.5
v 1.9 0.5 -0.8
v 1.9 0.5 -0.9
v 1.9 0.6 -0.9
v 1.9 0.6 -1.2
v 1.9 0.6 -1.7
v 1.9 0.6 -1.8
v 1.9 0.8 1.2
v 1.9 0.8 1.1
v 1.9 0.8 -1.2
v 1.9 0.8 -1.7
v 1.9 0.9 1.2
v 1.9 0.9 1.1
v -1.8 0.3 1.9
v -1.8 0.5 1.9
v -1.4 1 1.9
v -1.4 1.3 1.9
v -1.2 1 1.9
v -1.2 1.3 1.9
v -0.8 0.3 1.9
v -0.8 0.5 1.9
v -0.5 0.3 1.9
v -0.5 0.5 1.9
v 0.5 0.3 1.9
v 0.5 0.5 1.9
v 0.8 0.3 1.9
v 0.8 0.5 1.9
v 1.8 0.3 1.9
v 1.8 0.5 1.9
v -1.9 0.3 1.8
v -1.9 0.5 1.8
v -1.8 0.3 1.8
v -1.8 0.5 1.8
v -1.8 0.7 1.8
v -1.8 1 1.8
v -1.8 1.1 1.8
v -1.8 1.6 1.8
v -1.7 0.8 1.8
v -1.7 1 1.8
v -1.7 1.1 1.8
v -1.7 1.5 1.8
v -1.6 1 1.8
v -1.6 1.1 1.8
v -1.6 1.3 1.8
v -1.5 1.1 1.8
v -1.5 1.3 1.8
v -1.4 1 1.8
v -1.4 1.3 1.8
v -1.4 1.4 1.8
v -1.4 1.5 1.8
v -1.2 1 1.8
v -1.2 1.3 1.8
v -1.2 1.4 1.8
v -1.2 1.5 1.8
v -1.1 1.1 1.8
v -1.1 1.3 1.8
v -1 1 1.8
v -1 1.1 1.8
v -1 1.3 1.8
v -0.9 0.8 1.8
v -0.9 1 1.8
v -0.9 1.1 1.8
v -0.9 1.5 1.8
v -0.8 0.3 1.8
v -0.8 0.5 1.8
v -0.8 0.7 1.8
v -0.8 1 1.8
v -0.8 1.1 1.8
v -0.8 1.6 1.8
v -0.7 0.3 1.8
v -0.7 0.5 1.8
v -0.6 0.3 1.8
v -0.6 0.5 1.8
v -0.5 0.3 1.8
v -0.5 0.5 1.8
v 0.5 0.3 1.8
v 0.5 0.5 1.8
v 0.6 0.3 1.8
v 0.6 0.5 1.8
v 0.7 0.3 1.8
v 0.7 0.5 1.8
v 0.8 0.3 1.8
v 0.8 0.5 1.8
v 1.8 0.3 1.8
v 1.8 0.5 1.8
v 1.9 0.3 1.8
v 1.9 0.5 1.8
v 0.1 0.6 1.7
v 0.1 0.8 1.7
v 0.3 0.6 1.7
v 0.3 0.8 1.7
v 0.9 0.5 1.7
v 0.9 0.6 1.7
v 1 0.5 1.7
v 1 0.6 1.7
v -1.8 1.6 1.6
v -1.8 1.8 1.6
v -1.7 0.6 1.6
v -1.7 0.7 1.6
v -1.7 1.7 1.6
v -1.7 1.8 1.6
v -1.6 1.6 1.6
v -1.6 1.7 1.6
v -1.5 0.6 1.6
v -1.5 0.7 1.6
v -1.1 0.6 1.6
v -1.1 0.7 1.6
v -1 1.6 1.6
v -1 1.7 1.6
v -0.9 0.6 1.6
v -0.9 0.7 1.6
v -0.9 1.7 1.6
v -0.9 1.8 1.6
v -0.8 1.6 1.6
v -0.8 1.8 1.6
v 0 0.5 1.6
v 0 0.6 1.6
v 0 0.7 1.6
v 0.1 0.6 1.6
v 0.1 0.7 1.6
v 0.2 0.5 1.6
v 0.2 0.6 1.6
v 0.8 0.5 1.6
v 0.8 0.6 1.6
v 0.9 0.5 1.6
v 0.9 0.6 1.6
v 0.9 0.7 1.6
v 1 0.5 1.6
v 1 0.6 1.6
v 1 0.7 1.6
v 1.1 0.5 1.6
v 1.1 0.6 1.6
v -1.9 0.5 1.5
v -1.9 0.6 1.5
v -1.9 0.8 1.5
v -1.9 1.2 1.5
v -1.8 0.5 1.5
v -1.8 0.6 1.5
v -1.8 0.8 1.5
v -1.8 1.2 1.5
v -0.8 0.8 1.5
v -0.8 1.2 1.5
v -0.7 0.8 1.5
v -0.7 1.2 1.5
v -0.1 0.5 1.5
v -0.1 0.6 1.5
v 0 0.5 1.5
v 0 0.6 1.5
v -1.8 0.5 1.4
v -1.8 0.6 1.4
v -1.7 0.6 1.4
v -1.6 0.5 1.4
v -1.6 0.6 1.4
v -1.6 0.5 1.3
v -1.6 0.6 1.3
v -1.5 0.6 1.3
v -1.1 0.6 1.3
v -0.9 0.6 1.3
v -0.7 0.5 1.3
v -0.6 0.5 1.3
v -0.1 0.5 1.3
v -0.1 0.6 1.3
v 1.7 0.8 1.3
v 1.7 0.9 1.3
v 1.8 0.8 1.3
v 1.8 0.9 1.3
v 1.6 0.8 1.2
v 1.6 0.9 1.2
v 1.7 0.7 1.2
v 1.7 0.8 1.2
v 1.7 0.9 1.2
v 1.7 1 1.2
v 1.8 0.7 1.2
v 1.8 0.8 1.2
v 1.8 0.9 1.2
v 1.8 1 1.2
v 1.9 0.8 1.2
v 1.9 0.9 1.2
v -1.8 0.3 0.6
v -1.8 0.5 0.6
v -0.8 0.3 0.6
v -0.8 0.5 0.6
v -0.5 0.3 0.6
v -0.5 0.5 0.6
v 0.5 0.3 0.6
v 0.5 0.5 0.6
v 0.8 0.3 0.6
v 0.8 0.5 0.6
v 1.8 0.3 0.6
v 1.8 0.5 0.6
v -1.9 0.3 0.5
v -1.9 0.5 0.5
v -1.8 0.3 0.5
v -1.8 0.5 0.5
v -0.8 0.3 0.5
v -0.8 0.5 0.5
v -0.7 0.3 0.5
v -0.7 0.5 0.5
v -0.6 0.3 0.5
v -0.6 0.5 0.5
v -0.5 0.3 0.5
v -0.5 0.5 0.5
v 0.5 0.3 0.5
v 0.5 0.5 0.5
v 0.6 0.3 0.5
v 0.6 0.5 0.5
v 0.7 0.3 0.5
v 0.7 0.5 0.5
v 0.8 0.3 0.5
v 0.8 0.5 0.5
v 1.8 0.3 0.5
v 1.8 0.5 0.5
v 1.9 0.3 0.5
v 1.9 0.5 0.5
v -1.8 0.3 -0.7
v -1.8 0.5 -0.7
v -0.8 0.3 -0.7
v -0.8 0.5 -0.7
v -0.5 0.3 -0.7
v -0.5 0.5 -0.7
v 0.5 0.3 -0.7
v 0.5 0.5 -0.7
v 0.8 0.3 -0.7
v 0.8 0.5 -0.7
v 1.8 0.3 -0.7
v 1.8 0.5 -0.7
v -1.9 0.3 -0.8
v -1.9 0.5 -0.8
v -1.9 0.6 -0.8
v -1.9 0.8 -0.8
v -1.8 0.3 -0.8
v -1.8 0.5 -0.8
v -1.6 0.6 -0.8
v -1.6 0.8 -0.8
v -0.8 0.3 -0.8
v -0.8 0.5 -0.8
v -0.7 0.3 -0.8
v -0.7 0.5 -0.8
v -0.6 0.3 -0.8
v -0.6 0.5 -0.8
v -0.5 0.3 -0.8
v -0.5 0.5 -0.8
v 0.5 0.3 -0.8
v 0.5 0.5 -0.8
v 0.6 0.3 -0.8
v 0.6 0.5 -0.8
v 0.7 0.3 -0.8
v 0.7 0.5 -0.8
v 0.8 0.3 -0.8
v 0.8 0.5 -0.8
v 1.8 0.3 -0.8
v 1.8 0.5 -0.8
v 1.9 0.3 -0.8
v 1.9 0.5 -0.8
v -1.8 0.8 -0.9
v -1.8 0.9 -0.9
v -1.6 0.6 -0.9
v -1.6 0.8 -0.9
v -1.5 0.8 -0.9
v -1.5 0.9 -0.9
v -1.4 0.6 -0.9
v -1.4 0.8 -0.9
v 0.9 0.5 -0.9
v 0.9 0.6 -0.9
v 1 0.8 -0.9
v 1 1.4 -0.9
v 1.2 1.1 -0.9
v 1.2 1.4 -0.9
v 1.3 1 -0.9
v 1.3 1.1 -0.9
v 1.6 0.8 -0.9
v 1.6 1 -0.9
v 1.9 0.5 -0.9
v 1.9 0.6 -0.9
v 1.1 0.6 -1
v 1.1 0.8 -1
v 1.6 0.8 -1
v 1.8 0.6 -1
v 1.8 0.8 -1
v -1 0.9 -1.1
v -1 1 -1.1
v -0.9 0.9 -1.1
v -0.9 1 -1.1
v 0.7 0.5 -1.1
v 0.7 0.6 -1.1
v 0.8 0.8 -1.1
v 0.8 1.4 -1.1
v 0.9 0.5 -1.1
v 0.9 0.6 -1.1
v 1 0.6 -1.1
v 1 0.8 -1.1
v 1 1.4 -1.1
v 1 1.6 -1.1
v 1.1 0.6 -1.1
v 1.1 0.8 -1.1
v 1.2 1.4 -1.1
v 1.2 1.5 -1.1
v 1.2 1.6 -1.1
v 1.3 1.4 -1.1
v 1.3 1.5 -1.1
v 1.6 0.8 -1.1
v 1.6 1 -1.1
v 1.6 1.1 -1.1
v 1.7 1 -1.1
v 1.7 1.1 -1.1
v 1.8 0.8 -1.1
v 1.8 1 -1.1
v -1.6 1.5 -1.2
v -1.6 1.6 -1.2
v -1.5 1.4 -1.2
v -1.5 1.5 -1.2
v -1.5 1.6 -1.2
v -1.4 1.3 -1.2
v -1.4 1.4 -1.2
v -1.4 1.5 -1.2
v -1.3 1.2 -1.2
v -1.3 1.3 -1.2
v -1.3 1.4 -1.2
v -1.2 1.1 -1.2
v -1.2 1.2 -1.2
v -1.2 1.3 -1.2
v -1.1 0.9 -1.2
v -1.1 1 -1.2
v -1.1 1.1 -1.2
v -1.1 1.2 -1.2
v -1 0.8 -1.2
v -1 0.9 -1.2
v -1 1 -1.2
v -1 1.1 -1.2
v -0.9 0.8 -1.2
v -0.9 0.9 -1.2
v -0.9 1 -1.2
v -0.9 1.1 -1.2
v -0.8 0.9 -1.2
v -0.8 1 -1.2
v 0.8 0.6 -1.2
v 0.8 0.8 -1.2
v 1 0.6 -1.2
v 1 0.8 -1.2
v 1.2 1.5 -1.2
v 1.2 1.6 -1.2
v 1.3 1.5 -1.2
v 1.4 1.5 -1.2
v 1.4 1.6 -1.2
v 1.7 1 -1.2
v 1.7 1.1 -1.2
v 1.7 1.2 -1.2
v 1.8 0.6 -1.2
v 1.8 0.8 -1.2
v 1.8 1 -1.2
v 1.8 1.2 -1.2
v 1.9 0.6 -1.2
v 1.9 0.8 -1.2
v 0.7 0.6 -1.4
v 0.7 0.7 -1.4
v 0.8 0.6 -1.4
v 0.8 0.7 -1.4
v -1.4 0.6 -1.5
v -1.4 0.7 -1.5
v -1.3 0.6 -1.5
v -1.3 0.7 -1.5
v -1.9 1.1 -1.6
v -1.9 1.2 -1.6
v -1.8 1 -1.6
v -1.8 1.1 -1.6
v -1.8 1.2 -1.6
v -1.7 0.9 -1.6
v -1.7 1 -1.6
v -1.7 1.1 -1.6
v -1.6 0.8 -1.6
v -1.6 0.9 -1.6
v -1.6 1 -1.6
v -1.5 0.6 -1.6
v -1.5 0.7 -1.6
v -1.5 0.8 -1.6
v -1.5 0.9 -1.6
v -1.4 0.5 -1.6
v -1.4 0.6 -1.6
v -1.4 0.7 -1.6
v -1.4 0.8 -1.6
v -1.3 0.5 -1.6
v -1.3 0.6 -1.6
v -1.3 0.7 -1.6
v -1.3 0.8 -1.6
v -1.2 0.6 -1.6
v -1.2 0.7 -1.6
v 0.1 0.5 -1.6
v 0.1 0.6 -1.6
v 0.3 0.6 -1.6
v 0.3 0.7 -1.6
v 0.4 0.7 -1.6
v 0.4 0.8 -1.6
v 0.6 0.5 -1.6
v 0.6 0.8 -1.6
v 0.1 0.7 1.5
v 0.1 0.8 1.5
v 0.2 0.6 1.5
v 0.2 0.7 1.5
v 0.3 0.6 1.5
v 0.3 0.8 1.5
v 0.8 0.5 1.5
v 0.8 0.6 1.5
v 0.9 0.5 1.5
v 0.9 0.6 1.5
v 0.9 0.7 1.5
v 1 0.5 1.5
v 1 0.6 1.5
v 1 0.7 1.5
v 1.1 0.5 1.5
v 1.1 0.6 1.5
v 0 0.6 1.4
v 0 0.7 1.4
v 0.1 0.5 1.4
v 0.1 0.6 1.4
v 0.2 0.5 1.4
v 0.2 0.6 1.4
v 0.2 0.7 1.4
v 0.9 0.5 1.4
v 0.9 0.6 1.4
v 1 0.5 1.4
v 1 0.6 1.4
v -1.8 1.6 1.3
v -1.8 1.8 1.3
v -1.7 1.7 1.3
v -1.7 1.8 1.3
v -1.6 1.6 1.3
v -1.6 1.7 1.3
v -1 1.6 1.3
v -1 1.7 1.3
v -0.9 1.7 1.3
v -0.9 1.8 1.3
v -0.8 1.6 1.3
v -0.8 1.8 1.3
v 0 0.5 1.2
v 0 0.6 1.2
v 0.1 0.5 1.2
v 0.1 0.6 1.2
v -1.7 0.5 1.1
v -1.7 0.6 1.1
v -1.5 0.6 1.1
v -1.1 0.6 1.1
v -0.9 0.6 1.1
v -0.7 0.5 1.1
v -0.6 0.5 1.1
v -0.5 0.5 1.1
v -0.5 0.6 1.1
v -0.3 0.5 1.1
v -0.3 0.6 1.1
v 0 0.5 1.1
v 0 0.6 1.1
v 1.6 0.8 1.1
v 1.6 0.9 1.1
v 1.7 0.7 1.1
v 1.7 0.8 1.1
v 1.7 0.9 1.1
v 1.7 1 1.1
v 1.8 0.7 1.1
v 1.8 0.8 1.1
v 1.8 0.9 1.1
v 1.8 1 1.1
v 1.9 0.8 1.1
v 1.9 0.9 1.1
v -1.9 0.8 1
v -1.9 1.2 1
v -1.8 0.5 1
v -1.8 0.6 1
v -1.8 0.8 1
v -1.8 1.2 1
v -1.7 0.5 1
v -1.7 0.6 1
v -0.8 0.8 1
v -0.8 1.2 1
v -0.7 0.8 1
v -0.7 1.2 1
v 1.7 0.8 1
v 1.7 0.9 1
v 1.8 0.8 1
v 1.8 0.9 1
v -1.9 0.5 0.9
v -1.9 0.6 0.9
v -1.8 0.5 0.9
v -1.8 0.6 0.9
v -1.7 0.6 0.9
v -1.7 0.7 0.9
v -1.5 0.6 0.9
v -1.5 0.7 0.9
v -1.1 0.6 0.9
v -1.1 0.7 0.9
v -0.9 0.6 0.9
v -0.9 0.7 0.9
v -0.5 0.5 0.9
v -0.5 0.6 0.9
v -0.3 0.5 0.9
v -0.3 0.6 0.9
v -1.9 0.3 0.8
v -1.9 0.5 0.8
v -1.8 0.3 0.8
v -1.8 0.5 0.8
v -1.8 0.7 0.8
v -1.8 1.6 0.8
v -1.7 0.7 0.8
v -1.7 1 0.8
v -0.9 0.7 0.8
v -0.9 1 0.8
v -0.8 0.3 0.8
v -0.8 0.5 0.8
v -0.8 0.7 0.8
v -0.8 1.6 0.8
v -0.7 0.3 0.8
v -0.7 0.5 0.8
v -0.6 0.3 0.8
v -0.6 0.5 0.8
v -0.5 0.3 0.8
v -0.5 0.5 0.8
v 0.5 0.3 0.8
v 0.5 0.5 0.8
v 0.6 0.3 0.8
v 0.6 0.5 0.8
v 0.7 0.3 0.8
v 0.7 0.5 0.8
v 0.8 0.3 0.8
v 0.8 0.5 0.8
v 1.8 0.3 0.8
v 1.8 0.5 0.8
v 1.9 0.3 0.8
v 1.9 0.5 0.8
v -1.8 0.3 0.7
v -1.8 0.5 0.7
v -1.7 0.7 0.7
v -1.7 1 0.7
v -0.9 0.7 0.7
v -0.9 1 0.7
v -0.8 0.3 0.7
v -0.8 0.5 0.7
v -0.5 0.3 0.7
v -0.5 0.5 0.7
v 0.5 0.3 0.7
v 0.5 0.5 0.7
v 0.8 0.3 0.7
v 0.8 0.5 0.7
v 1.8 0.3 0.7
v 1.8 0.5 0.7
v -1.9 0.3 -0.5
v -1.9 0.5 -0.5
v -1.8 0.3 -0.5
v -1.8 0.5 -0.5
v -0.8 0.3 -0.5
v -0.8 0.5 -0.5
v -0.7 0.3 -0.5
v -0.7 0.5 -0.5
v -0.6 0.3 -0.5
v -0.6 0.5 -0.5
v -0.5 0.3 -0.5
v -0.5 0.5 -0.5
v 0.5 0.3 -0.5
v 0.5 0.5 -0.5
v 0.6 0.3 -0.5
v 0.6 0.5 -0.5
v 0.7 0.3 -0.5
v 0.7 0.5 -0.5
v 0.8 0.3 -0.5
v 0.8 0.5 -0.5
v 1.8 0.3 -0.5
v 1.8 0.5 -0.5
v 1.9 0.3 -0.5
v 1.9 0.5 -0.5
v -1.8 0.3 -0.6
v -1.8 0.5 -0.6
v -0.8 0.3 -0.6
v -0.8 0.5 -0.6
v -0.5 0.3 -0.6
v -0.5 0.5 -0.6
v 0.5 0.3 -0.6
v 0.5 0.5 -0.6
v 0.8 0.3 -0.6
v 0.8 0.5 -0.6
v 1.8 0.3 -0.6
v 1.8 0.5 -0.6
v -1.9 0.6 -1.1
v -1.9 0.8 -1.1
v -1.8 0.7 -1.1
v -1.8 0.8 -1.1
v -1.7 0.6 -1.1
v -1.7 0.7 -1.1
v -1.8 0.7 -1.2
v -1.8 0.9 -1.2
v -1.7 0.6 -1.2
v -1.7 0.7 -1.2
v -1.5 0.8 -1.2
v -1.5 0.9 -1.2
v -1.4 0.6 -1.2
v -1.4 0.8 -1.2
v -1.6 1.5 -1.3
v -1.6 1.6 -1.3
v -1.5 1.4 -1.3
v -1.5 1.5 -1.3
v -1.5 1.6 -1.3
v -1.4 1.3 -1.3
v -1.4 1.4 -1.3
v -1.4 1.5 -1.3
v -1.3 1.2 -1.3
v -1.3 1.3 -1.3
v -1.3 1.4 -1.3
v -1.2 1.1 -1.3
v -1.2 1.2 -1.3
v -1.2 1.3 -1.3
v -1.1 0.9 -1.3
v -1.1 1 -1.3
v -1.1 1.1 -1.3
v -1.1 1.2 -1.3
v -1 0.8 -1.3
v -1 0.9 -1.3
v -1 1 -1.3
v -1 1.1 -1.3
v -0.9 0.8 -1.3
v -0.9 0.9 -1.3
v -0.9 1 -1.3
v -0.9 1.1 -1.3
v -0.8 0.9 -1.3
v -0.8 1 -1.3
v -1 0.9 -1.4
v -1 1 -1.4
v -0.9 0.9 -1.4
v -0.9 1 -1.4
v 1.2 1.5 -1.6
v 1.2 1.6 -1.6
v 1.3 1.5 -1.6
v 1.4 1.5 -1.6
v 1.4 1.6 -1.6
v 1.7 1 -1.6
v 1.7 1.1 -1.6
v 1.7 1.2 -1.6
v 1.8 1 -1.6
v 1.8 1.2 -1.6
v -1.9 1.1 -1.7
v -1.9 1.2 -1.7
v -1.8 1 -1.7
v -1.8 1.1 -1.7
v -1.8 1.2 -1.7
v -1.7 0.9 -1.7
v -1.7 1 -1.7
v -1.7 1.1 -1.7
v -1.6 0.8 -1.7
v -1.6 0.9 -1.7
v -1.6 1 -1.7
v -1.5 0.6 -1.7
v -1.5 0.7 -1.7
v -1.5 0.8 -1.7
v -1.5 0.9 -1.7
v -1.4 0.5 -1.7
v -1.4 0.6 -1.7
v -1.4 0.7 -1.7
v -1.4 0.8 -1.7
v -1.3 0.5 -1.7
v -1.3 0.6 -1.7
v -1.3 0.7 -1.7
v -1.3 0.8 -1.7
v -1.2 0.6 -1.7
v -1.2 0.7 -1.7
v 0.8 0.8 -1.7
v 0.8 1.4 -1.7
v 1 0.8 -1.7
v 1 1.4 -1.7
v 1 1.6 -1.7
v 1.2 1.4 -1.7
v 1.2 1.5 -1.7
v 1.2 1.6 -1.7
v 1.3 1.4 -1.7
v 1.3 1.5 -1.7
v 1.6 0.8 -1.7
v 1.6 1 -1.7
v 1.6 1.1 -1.7
v 1.7 1 -1.7
v 1.7 1.1 -1.7
v 1.8 0.6 -1.7
v 1.8 0.8 -1.7
v 1.8 1 -1.7
v 1.9 0.6 -1.7
v 1.9 0.8 -1.7
v -1.9 0.3 -1.8
v -1.9 0.5 -1.8
v -1.8 0.3 -1.8
v -1.8 0.5 -1.8
v -1.4 0.6 -1.8
v -1.4 0.7 -1.8
v -1.3 0.6 -1.8
v -1.3 0.7 -1.8
v -0.8 0.3 -1.8
v -0.8 0.5 -1.8
v -0.7 0.3 -1.8
v -0.7 0.5 -1.8
v -0.6 0.3 -1.8
v -0.6 0.5 -1.8
v -0.5 0.3 -1.8
v -0.5 0.5 -1.8
v 0.3 0.6 -1.8
v 0.3 0.7 -1.8
v 0.4 0.7 -1.8
v 0.4 0.8 -1.8
v 0.5 0.3 -1.8
v 0.5 0.5 -1.8
v 0.5 0.6 -1.8
v 0.6 0.3 -1.8
v 0.6 0.5 -1.8
v 0.6 0.8 -1.8
v 0.7 0.3 -1.8
v 0.7 0.7 -1.8
v 0.8 0.3 -1.8
v 0.8 0.7 -1.8
v 1.6 0.7 -1.8
v 1.6 0.8 -1.8
v 1.7 0.6 -1.8
v 1.7 0.7 -1.8
v 1.8 0.3 -1.8
v 1.8 0.6 -1.8
v 1.8 0.8 -1.8
v 1.9 0.3 -1.8
v 1.9 0.6 -1.8
v -1.8 0.3 -1.9
v -1.8 0.5 -1.9
v -0.8 0.3 -1.9
v -0.8 0.5 -1.9
v -0.5 0.3 -1.9
v -0.5 0.5 -1.9
v 0.1 0.5 -1.9
v 0.1 0.6 -1.9
v 0.5 0.3 -1.9
v 0.5 0.5 -1.9
v 0.5 0.6 -1.9
v 0.8 0.3 -1.9
v 0.8 0.8 -1.9
v 1 0.8 -1.9
v 1 1.4 -1.9
v 1.2 1.1 -1.9
v 1.2 1.4 -1.9
v 1.3 1 -1.9
v 1.3 1.1 -1.9
v 1.6 0.7 -1.9
v 1.6 0.8 -1.9
v 1.6 1 -1.9
v 1.7 0.6 -1.9
v 1.7 0.7 -1.9
v 1.8 0.3 -1.9
v 1.8 0.6 -1.9
v -1.8 0.3 1.9
v -0.8 0.3 1.9
v -0.5 0.3 1.9
v 0.5 0.3 1.9
v 0.8 0.3 1.9
v 1.8 0.3 1.9
v -1.9 0.3 1.8
v -1.8 0.3 1.8
v -0.8 0.3 1.8
v -0.7 0.3 1.8
v -0.6 0.3 1.8
v -0.5 0.3 1.8
v 0.5 0.3 1.8
v 0.6 0.3 1.8
v 0.7 0.3 1.8
v 0.8 0.3 1.8
v 1.8 0.3 1.8
v 1.9 0.3 1.8
v -1.9 0.3 0.8
v -1.8 0.3 0.8
v -0.8 0.3 0.8
v -0.7 0.3 0.8
v -0.6 0.3 0.8
v -0.5 0.3 0.8
v 0.5 0.3 0.8
v 0.6 0.3 0.8
v 0.7 0.3 0.8
v 0.8 0.3 0.8
v 1.8 0.3 0.8
v 1.9 0.3 0.8
v -1.8 0.3 0.7
v -0.8 0.3 0.7
v -0.5 0.3 0.7
v 0.5 0.3 0.7
v 0.8 0.3 0.7
v 1.8 0.3 0.7
v -1.8 0.3 0.6
v -0.8 0.3 0.6
v -0.5 0.3 0.6
v 0.5 0.3 0.6
v 0.8 0.3 0.6
v 1.8 0.3 0.6
v -1.9 0.3 0.5
v -1.8 0.3 0.5
v -0.8 0.3 0.5
v -0.7 0.3 0.5
v -0.6 0.3 0.5
v -0.5 0.3 0.5
v 0.5 0.3 0.5
v 0.6 0.3 0.5
v 0.7 0.3 0.5
v 0.8 0.3 0.5
v 1.8 0.3 0.5
v 1.9 0.3 0.5
v -1.9 0.3 -0.5
v -1.8 0.3 -0.5
v -0.8 0.3 -0.5
v -0.7 0.3 -0.5
v -0.6 0.3 -0.5
v -0.5 0.3 -0.5
v 0.5 0.3 -0.5
v 0.6 0.3 -0.5
v 0.7 0.3 -0.5
v 0.8 0.3 -0.5
v 1.8 0.3 -0.5
v 1.9 0.3 -0.5
v -1.8 0.3 -0.6
v -0.8 0.3 -0.6
v -0.5 0.3 -0.6
v 0.5 0.3 -0.6
v 0.8 0.3 -0.6
v 1.8 0.3 -0.6
v -1.8 0.3 -0.7
v -0.8 0.3 -0.7
v -0.5 0.3 -0.7
v 0.5 0.3 -0.7
v 0.8 0.3 -0.7
v 1.8 0.3 -0.7
v -1.9 0.3 -0.8
v -1.8 0.3 -0.8
v -0.8 0.3 -0.8
v -0.7 0.3 -0.8
v -0.6 0.3 -0.8
v -0.5 0.3 -0.8
v 0.5 0.3 -0.8
v 0.6 0.3 -0.8
v 0.7 0.3 -0.8
v 0.8 0.3 -0.8
v 1.8 0.3 -0.8
v 1.9 0.3 -0.8
v 0.7 0.3 -0.9
v 1.9 0.3 -0.9
v -1.9 0.3 -1.8
v -1.8 0.3 -1.8
v -0.8 0.3 -1.8
v -0.7 0.3 -1.8
v -0.6 0.3 -1.8
v -0.5 0.3 -1.8
v 0.5 0.3 -1.8
v 0.6 0.3 -1.8
v 0.7 0.3 -1.8
v 0.8 0.3 -1.8
v 1.8 0.3 -1.8
v 1.9 0.3 -1.8
v -1.8 0.3 -1.9
v -0.8 0.3 -1.9
v -0.5 0.3 -1.9
v 0.5 0.3 -1.9
v 0.8 0.3 -1.9
v 1.8 0.3 -1.9
v -0.7 0.5 1.3
v -0.6 0.5 1.3
v -0.7 0.5 1.1
v -0.6 0.5 1.1
v 0.1 0.6 1.7
v 0.3 0.6 1.7
v -1.7 0.6 1.6
v -1.5 0.6 1.6
v -1.1 0.6 1.6
v -0.9 0.6 1.6
v 0.1 0.6 1.6
v 0.2 0.6 1.6
v 0.2 0.6 1.5
v 0.3 0.6 1.5
v -1.7 0.6 1.4
v -1.6 0.6 1.4
v -1.6 0.6 1.3
v -1.5 0.6 1.3
v -1.1 0.6 1.3
v -0.9 0.6 1.3
v -1.7 0.6 1.1
v -1.5 0.6 1.1
v -1.1 0.6 1.1
v -0.9 0.6 1.1
v -1.7 0.6 1
v -1.7 0.6 0.9
v -1.5 0.6 0.9
v -1.1 0.6 0.9
v -0.9 0.6 0.9
v -1.9 0.6 -0.8
v -1.6 0.6 -0.8
v -1.6 0.6 -0.9
v -1.4 0.6 -0.9
v -1.9 0.6 -1.1
v -1.7 0.6 -1.1
v -1.7 0.6 -1.2
v -1.4 0.6 -1.2
v -1.4 0.6 -1.5
v -1.3 0.6 -1.5
v -1.5 0.6 -1.6
v -1.4 0.6 -1.6
v -1.3 0.6 -1.6
v -1.2 0.6 -1.6
v -1.5 0.6 -1.7
v -1.4 0.6 -1.7
v -1.3 0.6 -1.7
v -1.2 0.6 -1.7
v -1.4 0.6 -1.8
v -1.3 0.6 -1.8
v -1.8 0.7 1.8
v -0.8 0.7 1.8
v -1.7 0.7 1.6
v -1.5 0.7 1.6
v -1.1 0.7 1.6
v -0.9 0.7 1.6
v 1.7 0.7 1.2
v 1.8 0.7 1.2
v 1.7 0.7 1.1
v 1.8 0.7 1.1
v -1.7 0.7 0.9
v -1.5 0.7 0.9
v -1.1 0.7 0.9
v -0.9 0.7 0.9
v -1.8 0.7 0.8
v -1.7 0.7 0.8
v -0.9 0.7 0.8
v -0.8 0.7 0.8
v -1.7 0.7 0.7
v -0.9 0.7 0.7
v -1.8 0.7 -1.1
v -1.7 0.7 -1.1
v -1.8 0.7 -1.2
v -1.7 0.7 -1.2
v -1.9 0.8 1.5
v -1.8 0.8 1.5
v -0.8 0.8 1.5
v -0.7 0.8 1.5
v -1.9 0.8 1.4
v -1.8 0.8 1.4
v -0.8 0.8 1.4
v -0.7 0.8 1.4
v -1.9 0.8 1.3
v -1.8 0.8 1.3
v -0.8 0.8 1.3
v -0.7 0.8 1.3
v 1.7 0.8 1.3
v 1.8 0.8 1.3
v -1.9 0.8 1.2
v -1.8 0.8 1.2
v -0.8 0.8 1.2
v -0.7 0.8 1.2
v 1.6 0.8 1.2
v 1.7 0.8 1.2
v 1.8 0.8 1.2
v 1.9 0.8 1.2
v -1.9 0.8 1.1
v -1.8 0.8 1.1
v -0.8 0.8 1.1
v -0.7 0.8 1.1
v 1.6 0.8 1.1
v 1.7 0.8 1.1
v 1.8 0.8 1.1
v 1.9 0.8 1.1
v -1.9 0.8 1
v -1.8 0.8 1
v -0.8 0.8 1
v -0.7 0.8 1
v 1.7 0.8 1
v 1.8 0.8 1
v 1 0.8 -0.9
v 1.6 0.8 -0.9
v 1.1 0.8 -1
v 1.6 0.8 -1
v 0.8 0.8 -1.1
v 1 0.8 -1.1
v 1.1 0.8 -1.1
v -1 0.8 -1.2
v -0.9 0.8 -1.2
v 0.8 0.8 -1.2
v 1 0.8 -1.2
v -1 0.8 -1.3
v -0.9 0.8 -1.3
v -1.6 0.8 -1.6
v -1.5 0.8 -1.6
v -1.6 0.8 -1.7
v -1.5 0.8 -1.7
v -1 0.9 -1.1
v -0.9 0.9 -1.1
v -1.1 0.9 -1.2
v -1 0.9 -1.2
v -0.9 0.9 -1.2
v -0.8 0.9 -1.2
v -1.1 0.9 -1.3
v -1 0.9 -1.3
v -0.9 0.9 -1.3
v -0.8 0.9 -1.3
v -1 0.9 -1.4
v -0.9 0.9 -1.4
v -1.7 0.9 -1.6
v -1.6 0.9 -1.6
v -1.7 0.9 -1.7
v -1.6 0.9 -1.7
v -1.4 1 1.9
v -1.2 1 1.9
v -1.4 1 1.8
v -1.2 1 1.8
v -1.8 1 -1.6
v -1.7 1 -1.6
v -1.8 1 -1.7
v -1.7 1 -1.7
v -1.2 1.1 -1.2
v -1.1 1.1 -1.2
v -1.2 1.1 -1.3
v -1.1 1.1 -1.3
v -1.9 1.1 -1.6
v -1.8 1.1 -1.6
v -1.9 1.1 -1.7
v -1.8 1.1 -1.7
v -1.3 1.2 -1.2
v -1.2 1.2 -1.2
v -1.3 1.2 -1.3
v -1.2 1.2 -1.3
v -1.4 1.3 -1.2
v -1.3 1.3 -1.2
v -1.4 1.3 -1.3
v -1.3 1.3 -1.3
v 1.2 1.4 -1.1
v 1.3 1.4 -1.1
v -1.5 1.4 -1.2
v -1.4 1.4 -1.2
v -1.5 1.4 -1.3
v -1.4 1.4 -1.3
v 1.2 1.4 -1.7
v 1.3 1.4 -1.7
v -1.6 1.5 -1.2
v -1.5 1.5 -1.2
v 1.3 1.5 -1.2
v 1.4 1.5 -1.2
v -1.6 1.5 -1.3
v -1.5 1.5 -1.3
v 1.3 1.5 -1.6
v 1.4 1.5 -1.6
v -1.8 0.5 1.9
v -0.8 0.5 1.9
v -0.5 0.5 1.9
v 0.5 0.5 1.9
v 0.8 0.5 1.9
v 1.8 0.5 1.9
v -1.9 0.5 1.8
v -1.8 0.5 1.8
v -0.8 0.5 1.8
v -0.7 0.5 1.8
v -0.6 0.5 1.8
v -0.5 0.5 1.8
v 0.5 0.5 1.8
v 0.6 0.5 1.8
v 0.7 0.5 1.8
v 0.8 0.5 1.8
v 1.8 0.5 1.8
v 1.9 0.5 1.8
v 0.9 0.5 1.7
v 1 0.5 1.7
v 0 0.5 1.6
v 0.2 0.5 1.6
v 0.8 0.5 1.6
v 0.9 0.5 1.6
v 1 0.5 1.6
v 1.1 0.5 1.6
v -1.9 0.5 1.5
v -1.8 0.5 1.5
v -0.1 0.5 1.5
v 0 0.5 1.5
v 0.8 0.5 1.5
v 0.9 0.5 1.5
v 1 0.5 1.5
v 1.1 0.5 1.5
v -1.8 0.5 1.4
v -1.6 0.5 1.4
v 0.1 0.5 1.4
v 0.2 0.5 1.4
v 0.9 0.5 1.4
v 1 0.5 1.4
v -1.6 0.5 1.3
v -0.7 0.5 1.3
v -0.6 0.5 1.3
v -0.1 0.5 1.3
v 0 0.5 1.2
v 0.1 0.5 1.2
v -1.7 0.5 1.1
v -0.7 0.5 1.1
v -0.6 0.5 1.1
v -0.5 0.5 1.1
v -0.3 0.5 1.1
v 0 0.5 1.1
v -1.8 0.5 1
v -1.7 0.5 1
v -1.9 0.5 0.9
v -1.8 0.5 0.9
v -0.5 0.5 0.9
v -0.3 0.5 0.9
v -1.9 0.5 0.8
v -1.8 0.5 0.8
v -0.8 0.5 0.8
v -0.7 0.5 0.8
v -0.6 0.5 0.8
v -0.5 0.5 0.8
v 0.5 0.5 0.8
v 0.6 0.5 0.8
v 0.7 0.5 0.8
v 0.8 0.5 0.8
v 1.8 0.5 0.8
v 1.9 0.5 0.8
v -1.8 0.5 0.7
v -0.8 0.5 0.7
v -0.5 0.5 0.7
v 0.5 0.5 0.7
v 0.8 0.5 0.7
v 1.8 0.5 0.7
v -1.8 0.5 0.6
v -0.8 0.5 0.6
v -0.5 0.5 0.6
v 0.5 0.5 0.6
v 0.8 0.5 0.6
v 1.8 0.5 0.6
v -1.9 0.5 0.5
v -1.8 0.5 0.5
v -0.8 0.5 0.5
v -0.7 0.5 0.5
v -0.6 0.5 0.5
v -0.5 0.5 0.5
v 0.5 0.5 0.5
v 0.6 0.5 0.5
v 0.7 0.5 0.5
v 0.8 0.5 0.5
v 1.8 0.5 0.5
v 1.9 0.5 0.5
v -1.9 0.5 -0.5
v -1.8 0.5 -0.5
v -0.8 0.5 -0.5
v -0.7 0.5 -0.5
v -0.6 0.5 -0.5
v -0.5 0.5 -0.5
v 0.5 0.5 -0.5
v 0.6 0.5 -0.5
v 0.7 0.5 -0.5
v 0.8 0.5 -0.5
v 1.8 0.5 -0.5
v 1.9 0.5 -0.5
v -1.8 0.5 -0.6
v -0.8 0.5 -0.6
v -0.5 0.5 -0.6
v 0.5 0.5 -0.6
v 0.8 0.5 -0.6
v 1.8 0.5 -0.6
v -1.8 0.5 -0.7
v -0.8 0.5 -0.7
v -0.5 0.5 -0.7
v 0.5 0.5 -0.7
v 0.8 0.5 -0.7
v 1.8 0.5 -0.7
v -1.9 0.5 -0.8
v -1.8 0.5 -0.8
v -0.8 0.5 -0.8
v -0.7 0.5 -0.8
v -0.6 0.5 -0.8
v -0.5 0.5 -0.8
v 0.5 0.5 -0.8
v 0.6 0.5 -0.8
v 0.7 0.5 -0.8
v 0.8 0.5 -0.8
v 1.8 0.5 -0.8
v 1.9 0.5 -0.8
v 0.7 0.5 -0.9
v 0.9 0.5 -0.9
v 1.9 0.5 -0.9
v 0.7 0.5 -1.1
v 0.9 0.5 -1.1
v -1.4 0.5 -1.6
v -1.3 0.5 -1.6
v 0.1 0.5 -1.6
v 0.6 0.5 -1.6
v -1.4 0.5 -1.7
v -1.3 0.5 -1.7
v -1.9 0.5 -1.8
v -1.8 0.5 -1.8
v -0.8 0.5 -1.8
v -0.7 0.5 -1.8
v -0.6 0.5 -1.8
v -0.5 0.5 -1.8
v -1.8 0.5 -1.9
v -0.8 0.5 -1.9
v -0.5 0.5 -1.9
v 0.1 0.5 -1.9
v 0.9 0.6 1.7
v 1 0.6 1.7
v 0.8 0.6 1.6
v 0.9 0.6 1.6
v 1 0.6 1.6
v 1.1 0.6 1.6
v -1.9 0.6 1.5
v -1.8 0.6 1.5
v -0.1 0.6 1.5
v 0 0.6 1.5
v 0.8 0.6 1.5
v 0.9 0.6 1.5
v 1 0.6 1.5
v 1.1 0.6 1.5
v -1.8 0.6 1.4
v -1.7 0.6 1.4
v 0 0.6 1.4
v 0.1 0.6 1.4
v 0.9 0.6 1.4
v 1 0.6 1.4
v -1.5 0.6 1.3
v -1.1 0.6 1.3
v -0.9 0.6 1.3
v -0.1 0.6 1.3
v 0 0.6 1.2
v 0.1 0.6 1.2
v -1.5 0.6 1.1
v -1.1 0.6 1.1
v -0.9 0.6 1.1
v -0.5 0.6 1.1
v -0.3 0.6 1.1
v 0 0.6 1.1
v -1.8 0.6 1
v -1.7 0.6 1
v -1.9 0.6 0.9
v -1.8 0.6 0.9
v -0.5 0.6 0.9
v -0.3 0.6 0.9
v 0.9 0.6 -0.9
v 1.9 0.6 -0.9
v 1.1 0.6 -1
v 1.8 0.6 -1
v 0.7 0.6 -1.1
v 0.9 0.6 -1.1
v 1 0.6 -1.1
v 1.1 0.6 -1.1
v 0.8 0.6 -1.2
v 1 0.6 -1.2
v 1.8 0.6 -1.2
v 1.9 0.6 -1.2
v 0.7 0.6 -1.4
v 0.8 0.6 -1.4
v 0.1 0.6 -1.6
v 0.3 0.6 -1.6
v 1.8 0.6 -1.7
v 1.9 0.6 -1.7
v 0.3 0.6 -1.8
v 0.5 0.6 -1.8
v 1.7 0.6 -1.8
v 1.8 0.6 -1.8
v 1.9 0.6 -1.8
v 0.1 0.6 -1.9
v 0.5 0.6 -1.9
v 1.7 0.6 -1.9
v 1.8 0.6 -1.9
v 0 0.7 1.6
v 0.1 0.7 1.6
v 0.9 0.7 1.6
v 1 0.7 1.6
v 0.1 0.7 1.5
v 0.2 0.7 1.5
v 0.9 0.7 1.5
v 1 0.7 1.5
v 0 0.7 1.4
v 0.2 0.7 1.4
v 0.7 0.7 -1.4
v 0.8 0.7 -1.4
v -1.4 0.7 -1.5
v -1.3 0.7 -1.5
v -1.5 0.7 -1.6
v -1.4 0.7 -1.6
v -1.3 0.7 -1.6
v -1.2 0.7 -1.6
v 0.3 0.7 -1.6
v 0.4 0.7 -1.6
v -1.5 0.7 -1.7
v -1.4 0.7 -1.7
v -1.3 0.7 -1.7
v -1.2 0.7 -1.7
v -1.4 0.7 -1.8
v -1.3 0.7 -1.8
v 0.3 0.7 -1.8
v 0.4 0.7 -1.8
v 0.7 0.7 -1.8
v 0.8 0.7 -1.8
v 1.6 0.7 -1.8
v 1.7 0.7 -1.8
v 1.6 0.7 -1.9
v 1.7 0.7 -1.9
v 0.1 0.8 1.7
v 0.3 0.8 1.7
v 0.1 0.8 1.5
v 0.3 0.8 1.5
v -1.9 0.8 -0.8
v -1.6 0.8 -0.8
v -1.8 0.8 -0.9
v -1.6 0.8 -0.9
v -1.5 0.8 -0.9
v -1.4 0.8 -0.9
v 1.6 0.8 -1
v 1.8 0.8 -1
v -1.9 0.8 -1.1
v -1.8 0.8 -1.1
v 1.6 0.8 -1.1
v 1.8 0.8 -1.1
v -1.5 0.8 -1.2
v -1.4 0.8 -1.2
v 1.8 0.8 -1.2
v 1.9 0.8 -1.2
v -1.4 0.8 -1.6
v -1.3 0.8 -1.6
v 0.4 0.8 -1.6
v 0.6 0.8 -1.6
v -1.4 0.8 -1.7
v -1.3 0.8 -1.7
v 0.8 0.8 -1.7
v 1 0.8 -1.7
v 1.6 0.8 -1.7
v 1.8 0.8 -1.7
v 1.9 0.8 -1.7
v 0.4 0.8 -1.8
v 0.6 0.8 -1.8
v 1.6 0.8 -1.8
v 1.8 0.8 -1.8
v 0.8 0.8 -1.9
v 1 0.8 -1.9
v 1.7 0.9 1.3
v 1.8 0.9 1.3
v 1.6 0.9 1.2
v 1.7 0.9 1.2
v 1.8 0.9 1.2
v 1.9 0.9 1.2
v 1.6 0.9 1.1
v 1.7 0.9 1.1
v 1.8 0.9 1.1
v 1.9 0.9 1.1
v 1.7 0.9 1
v 1.8 0.9 1
v -1.8 0.9 -0.9
v -1.5 0.9 -0.9
v -1.8 0.9 -1.2
v -1.5 0.9 -1.2
v -1.6 0.9 -1.6
v -1.5 0.9 -1.6
v -1.6 0.9 -1.7
v -1.5 0.9 -1.7
v 1.7 1 1.2
v 1.8 1 1.2
v 1.7 1 1.1
v 1.8 1 1.1
v -1.7 1 0.8
v -0.9 1 0.8
v -1.7 1 0.7
v -0.9 1 0.7
v 1.3 1 -0.9
v 1.6 1 -0.9
v -1 1 -1.1
v -0.9 1 -1.1
v 1.6 1 -1.1
v 1.7 1 -1.1
v 1.8 1 -1.1
v -1.1 1 -1.2
v -1 1 -1.2
v -0.9 1 -1.2
v -0.8 1 -1.2
v 1.7 1 -1.2
v 1.8 1 -1.2
v -1.1 1 -1.3
v -1 1 -1.3
v -0.9 1 -1.3
v -0.8 1 -1.3
v -1 1 -1.4
v -0.9 1 -1.4
v -1.7 1 -1.6
v -1.6 1 -1.6
v 1.7 1 -1.6
v 1.8 1 -1.6
v -1.7 1 -1.7
v -1.6 1 -1.7
v 1.6 1 -1.7
v 1.7 1 -1.7
v 1.8 1 -1.7
v 1.3 1 -1.9
v 1.6 1 -1.9
v 1.2 1.1 -0.9
v 1.3 1.1 -0.9
v 1.6 1.1 -1.1
v 1.7 1.1 -1.1
v -1 1.1 -1.2
v -0.9 1.1 -1.2
v 1.7 1.1 -1.2
v -1 1.1 -1.3
v -0.9 1.1 -1.3
v -1.8 1.1 -1.6
v -1.7 1.1 -1.6
v 1.7 1.1 -1.6
v -1.8 1.1 -1.7
v -1.7 1.1 -1.7
v 1.6 1.1 -1.7
v 1.7 1.1 -1.7
v 1.2 1.1 -1.9
v 1.3 1.1 -1.9
v -1.9 1.2 1.5
v -1.8 1.2 1.5
v -0.8 1.2 1.5
v -0.7 1.2 1.5
v -1.9 1.2 1
v -1.8 1.2 1
v -0.8 1.2 1
v -0.7 1.2 1
v -1.2 1.2 -1.2
v -1.1 1.2 -1.2
v 1.7 1.2 -1.2
v 1.8 1.2 -1.2
v -1.2 1.2 -1.3
v -1.1 1.2 -1.3
v -1.9 1.2 -1.6
v -1.8 1.2 -1.6
v 1.7 1.2 -1.6
v 1.8 1.2 -1.6
v -1.9 1.2 -1.7
v -1.8 1.2 -1.7
v -1.4 1.3 1.9
v -1.2 1.3 1.9
v -1.4 1.3 1.8
v -1.2 1.3 1.8
v -1.3 1.3 -1.2
v -1.2 1.3 -1.2
v -1.3 1.3 -1.3
v -1.2 1.3 -1.3
v 1 1.4 -0.9
v 1.2 1.4 -0.9
v 0.8 1.4 -1.1
v 1 1.4 -1.1
v 1.2 1.4 -1.1
v -1.4 1.4 -1.2
v -1.3 1.4 -1.2
v -1.4 1.4 -1.3
v -1.3 1.4 -1.3
v 0.8 1.4 -1.7
v 1 1.4 -1.7
v 1.2 1.4 -1.7
v 1 1.4 -1.9
v 1.2 1.4 -1.9
v 1.2 1.5 -1.1
v 1.3 1.5 -1.1
v -1.5 1.5 -1.2
v -1.4 1.5 -1.2
v 1.2 1.5 -1.2
v 1.3 1.5 -1.2
v -1.5 1.5 -1.3
v -1.4 1.5 -1.3
v 1.2 1.5 -1.6
v 1.3 1.5 -1.6
v 1.2 1.5 -1.7
v 1.3 1.5 -1.7
v -1.8 1.6 1.8
v -0.8 1.6 1.8
v -1.8 1.6 1.6
v -1.6 1.6 1.6
v -1 1.6 1.6
v -0.8 1.6 1.6
v -1.8 1.6 1.3
v -1.6 1.6 1.3
v -1 1.6 1.3
v -0.8 1.6 1.3
v -1.8 1.6 0.8
v -0.8 1.6 0.8
v 1 1.6 -1.1
v 1.2 1.6 -1.1
v -1.6 1.6 -1.2
v -1.5 1.6 -1.2
v 1.2 1.6 -1.2
v 1.4 1.6 -1.2
v -1.6 1.6 -1.3
v -1.5 1.6 -1.3
v 1.2 1.6 -1.6
v 1.4 1.6 -1.6
v 1 1.6 -1.7
v 1.2 1.6 -1.7
v -1.7 1.7 1.6
v -1.6 1.7 1.6
v -1 1.7 1.6
v -0.9 1.7 1.6
v -1.7 1.7 1.3
v -1.6 1.7 1.3
v -1 1.7 1.3
v -0.9 1.7 1.3
v -1.8 1.8 1.6
v -1.7 1.8 1.6
v -0.9 1.8 1.6
v -0.8 1.8 1.6
v -1.8 1.8 1.3
v -1.7 1.8 1.3
v -0.9 1.8 1.3
v -0.8 1.8 1.3

# faces
f 7/8/1 2/8/1 1/8/1
f 8/8/1 2/8/1 7/8/1
f 9/8/1 2/8/1 8/8/1
f 10/8/1 2/8/1 9/8/1
f 11/8/1 4/8/1 3/8/1
f 12/8/1 4/8/1 11/8/1
f 13/8/1 6/8/1 5/8/1
f 14/8/1 6/8/1 13/8/1
f 15/4/1 9/4/1 8/4/1
f 16/4/1 9/4/1 15/4/1
f 25/7/1 18/7/1 17/7/1
f 26/7/1 18/7/1 25/7/1
f 27/4/1 20/4/1 19/4/1
f 27/1/1 21/1/1 20/1/1
f 28/4/1 22/4/1 21/4/1
f 28/1/1 21/1/1 27/1/1
f 29/1/1 23/1/1 22/1/1
f 29/4/1 22/4/1 28/4/1
f 30/4/1 24/4/1 23/4/1
f 30/1/1 23/1/1 29/1/1
f 33/4/1 29/4/1 28/4/1
f 33/4/1 27/4/1 19/4/1
f 33/4/1 30/4/1 29/4/1
f 33/4/1 28/4/1 27/4/1
f 34/4/1 24/4/1 30/4/1
f 34/4/1 30/4/1 33/4/1
f 35/9/1 32/9/1 31/9/1
f 36/9/1 32/9/1 35/9/1
f 49/8/1 38/8/1 37/8/1
f 50/8/1 38/8/1 49/8/1
f 51/8/1 40/8/1 39/8/1
f 52/8/1 40/8/1 51/8/1
f 53/8/1 42/8/1 41/8/1
f 54/8/1 42/8/1 53/8/1
f 55/8/1 44/8/1 43/8/1
f 56/8/1 44/8/1 55/8/1
f 57/8/1 46/8/1 45/8/1
f 58/8/1 46/8/1 57/8/1
f 59/8/1 48/8/1 47/8/1
f 60/8/1 48/8/1 59/8/1
f 65/4/1 62/4/1 61/4/1
f 66/4/1 62/4/1 65/4/1
f 67/4/1 62/4/1 66/4/1
f 68/4/1 62/4/1 67/4/1
f 69/4/1 62/4/1 68/4/1
f 70/4/1 62/4/1 69/4/1
f 72/7/1 64/7/1 63/7/1
f 73/7/1 72/7/1 71/7/1
f 74/7/1 64/7/1 72/7/1
f 74/7/1 72/7/1 73/7/1
f 75/4/1 65/4/1 61/4/1
f 76/4/1 65/4/1 75/4/1
f 79/2/1 76/2/1 75/2/1
f 80/4/1 65/4/1 76/4/1
f 80/2/1 76/2/1 79/2/1
f 81/9/1 78/9/1 77/9/1
f 82/9/1 78/9/1 81/9/1
f 83/4/1 65/4/1 80/4/1
f 83/4/1 80/4/1 79/4/1
f 84/4/1 62/4/1 70/4/1
f 85/4/1 83/4/1 79/4/1
f 85/4/1 84/4/1 83/4/1
f 86/4/1 84/4/1 85/4/1
f 87/4/1 84/4/1 86/4/1
f 88/4/1 62/4/1 84/4/1
f 88/4/1 84/4/1 87/4/1
f 89/4/1 87/4/1 86/4/1
f 90/4/1 87/4/1 89/4/1
f 97/1/1 92/1/1 91/1/1
f 97/1/1 93/1/1 92/1/1
f 97/1/1 94/1/1 93/1/1
f 98/1/1 94/1/1 97/1/1
f 101/7/1 96/7/1 95/7/1
f 102/7/1 96/7/1 101/7/1
f 105/4/1 100/4/1 99/4/1
f 106/4/1 100/4/1 105/4/1
f 107/9/1 104/9/1 103/9/1
f 108/9/1 104/9/1 107/9/1
f 111/9/1 110/9/1 109/9/1
f 112/9/1 110/9/1 111/9/1
f 115/9/1 114/9/1 113/9/1
f 116/9/1 114/9/1 115/9/1
f 119/6/1 118/6/1 117/6/1
f 120/6/1 118/6/1 119/6/1
f 123/9/1 122/9/1 121/9/1
f 124/9/1 122/9/1 123/9/1
f 128/6/1 126/6/1 125/6/1
f 129/6/1 126/6/1 128/6/1
f 131/6/1 128/6/1 127/6/1
f 132/6/1 128/6/1 131/6/1
f 133/6/1 130/6/1 129/6/1
f 134/6/1 130/6/1 133/6/1
f 135/6/1 133/6/1 132/6/1
f 136/6/1 133/6/1 135/6/1
f 139/6/1 138/6/1 137/6/1
f 140/6/1 138/6/1 139/6/1
f 143/9/1 142/9/1 141/9/1
f 144/9/1 142/9/1 143/9/1
f 147/9/1 146/9/1 145/9/1
f 148/9/1 146/9/1 147/9/1
f 151/9/1 150/9/1 149/9/1
f 152/9/1 150/9/1 151/9/1
f 157/1/1 154/1/1 153/1/1
f 157/1/1 156/1/1 155/1/1
f 157/1/1 155/1/1 154/1/1
f 158/1/1 156/1/1 157/1/1
f 161/6/1 160/6/1 159/6/1
f 162/6/1 160/6/1 161/6/1
f 166/6/1 164/6/1 163/6/1
f 167/6/1 164/6/1 166/6/1
f 169/6/1 166/6/1 165/6/1
f 170/6/1 166/6/1 169/6/1
f 171/6/1 168/6/1 167/6/1
f 172/6/1 168/6/1 171/6/1
f 173/6/1 171/6/1 170/6/1
f 174/6/1 171/6/1 173/6/1
f 177/4/1 176/4/1 175/4/1
f 178/4/1 176/4/1 177/4/1
f 181/4/1 180/4/1 179/4/1
f 182/4/1 180/4/1 181/4/1
f 189/8/1 184/8/1 183/8/1
f 190/8/1 184/8/1 189/8/1
f 191/8/1 184/8/1 190/8/1
f 192/8/1 184/8/1 191/8/1
f 193/8/1 186/8/1 185/8/1
f 194/8/1 186/8/1 193/8/1
f 195/8/1 188/8/1 187/8/1
f 196/8/1 188/8/1 195/8/1
f 209/8/1 198/8/1 197/8/1
f 210/8/1 198/8/1 209/8/1
f 213/8/1 200/8/1 199/8/1
f 214/8/1 200/8/1 213/8/1
f 215/8/1 202/8/1 201/8/1
f 216/8/1 202/8/1 215/8/1
f 217/8/1 204/8/1 203/8/1
f 218/8/1 204/8/1 217/8/1
f 219/8/1 206/8/1 205/8/1
f 220/8/1 206/8/1 219/8/1
f 221/8/1 208/8/1 207/8/1
f 222/8/1 208/8/1 221/8/1
f 223/4/1 212/4/1 211/4/1
f 224/4/1 212/4/1 223/4/1
f 227/4/1 226/4/1 225/4/1
f 228/4/1 226/4/1 227/4/1
f 231/4/1 230/4/1 229/4/1
f 232/4/1 230/4/1 231/4/1
f 234/5/1 232/5/1 231/5/1
f 234/5/1 233/5/1 232/5/1
f 235/5/1 233/5/1 234/5/1
f 240/7/1 237/7/1 236/7/1
f 241/7/1 237/7/1 240/7/1
f 242/5/1 239/5/1 238/5/1
f 244/5/1 242/5/1 238/5/1
f 244/5/1 243/5/1 242/5/1
f 245/5/1 243/5/1 244/5/1
f 248/7/1 247/7/1 246/7/1
f 249/7/1 247/7/1 248/7/1
f 252/7/1 251/7/1 250/7/1
f 253/7/1 251/7/1 252/7/1
f 261/8/1 255/8/1 254/8/1
f 262/8/1 255/8/1 261/8/1
f 263/8/1 257/8/1 256/8/1
f 264/8/1 257/8/1 263/8/1
f 265/8/1 259/8/1 258/8/1
f 266/7/1 260/7/1 259/7/1
f 266/8/1 259/8/1 265/8/1
f 267/7/1 260/7/1 266/7/1
f 268/7/1 260/7/1 267/7/1
f 269/7/1 260/7/1 268/7/1
f 270/7/1 260/7/1 269/7/1
f 271/7/1 260/7/1 270/7/1
f 284/8/1 273/8/1 272/8/1
f 285/8/1 273/8/1 284/8/1
f 288/8/1 275/8/1 274/8/1
f 289/8/1 275/8/1 288/8/1
f 290/8/1 277/8/1 276/8/1
f 291/8/1 277/8/1 290/8/1
f 292/8/1 279/8/1 278/8/1
f 293/8/1 279/8/1 292/8/1
f 294/8/1 281/8/1 280/8/1
f 295/8/1 281/8/1 294/8/1
f 296/6/1 287/6/1 286/6/1
f 297/6/1 287/6/1 296/6/1
f 300/7/1 299/7/1 298/7/1
f 301/7/1 283/7/1 282/7/1
f 303/7/1 300/7/1 298/7/1
f 303/7/1 301/7/1 300/7/1
f 304/7/1 301/7/1 303/7/1
f 305/7/1 283/7/1 301/7/1
f 305/7/1 301/7/1 304/7/1
f 306/6/1 304/6/1 303/6/1
f 306/6/1 303/6/1 302/6/1
f 307/6/1 304/6/1 306/6/1
f 314/6/1 309/6/1 308/6/1
f 315/6/1 309/6/1 314/6/1
f 316/6/1 311/6/1 310/6/1
f 317/6/1 311/6/1 316/6/1
f 318/7/1 313/7/1 312/7/1
f 319/7/1 313/7/1 318/7/1
f 320/6/1 316/6/1 315/6/1
f 321/6/1 316/6/1 320/6/1
f 325/6/1 323/6/1 322/6/1
f 326/6/1 323/6/1 325/6/1
f 329/6/1 325/6/1 324/6/1
f 330/6/1 325/6/1 329/6/1
f 331/6/1 328/6/1 327/6/1
f 332/6/1 328/6/1 331/6/1
f 333/6/1 331/6/1 330/6/1
f 334/6/1 331/6/1 333/6/1
f 337/7/1 336/7/1 335/7/1
f 338/7/1 336/7/1 337/7/1
f 341/6/1 340/6/1 339/6/1
f 342/6/1 340/6/1 341/6/1
f 345/6/1 344/6/1 343/6/1
f 346/6/1 344/6/1 345/6/1
f 350/6/1 348/6/1 347/6/1
f 351/6/1 348/6/1 350/6/1
f 353/6/1 350/6/1 349/6/1
f 354/6/1 350/6/1 353/6/1
f 355/6/1 352/6/1 351/6/1
f 356/6/1 352/6/1 355/6/1
f 357/6/1 355/6/1 354/6/1
f 358/6/1 355/6/1 357/6/1
f 361/6/1 360/6/1 359/6/1
f 362/6/1 360/6/1 361/6/1
f 363/4/2 364/4/2 367/4/2
f 367/4/2 364/4/2 368/4/2
f 365/4/2 366/4/2 369/4/2
f 369/4/2 366/4/2 370/4/2
f 371/9/2 372/9/2 373/9/2
f 373/9/2 372/9/2 374/9/2
f 375/4/2 376/4/2 377/4/2
f 377/4/2 376/4/2 378/4/2
f 379/9/2 380/9/2 381/9/2
f 381/9/2 380/9/2 382/9/2
f 383/4/2 384/4/2 385/4/2
f 385/4/2 384/4/2 386/4/2
f 387/4/2 388/4/2 389/4/2
f 389/4/2 388/4/2 390/4/2
f 391/7/2 392/7/2 393/7/2
f 393/7/2 392/7/2 394/7/2
f 395/9/2 396/9/2 397/9/2
f 397/9/2 396/9/2 398/9/2
f 399/4/2 400/4/2 401/4/2
f 401/4/2 400/4/2 402/4/2
f 403/1/2 404/1/2 407/1/2
f 405/1/2 406/1/2 407/1/2
f 404/1/2 405/1/2 407/1/2
f 407/1/2 406/1/2 408/1/2
f 409/7/2 410/7/2 413/7/2
f 413/7/2 410/7/2 414/7/2
f 411/9/2 412/9/2 415/9/2
f 415/9/2 412/9/2 416/9/2
f 417/9/2 418/9/2 419/9/2
f 419/9/2 418/9/2 420/9/2
f 421/7/2 422/7/2 423/7/2
f 423/7/2 422/7/2 424/7/2
f 425/9/2 426/9/2 427/9/2
f 427/9/2 426/9/2 428/9/2
f 429/6/2 430/6/2 432/6/2
f 432/6/2 430/6/2 433/6/2
f 431/6/2 432/6/2 435/6/2
f 435/6/2 432/6/2 436/6/2
f 433/6/2 434/6/2 437/6/2
f 437/6/2 434/6/2 438/6/2
f 436/6/2 437/6/2 439/6/2
f 439/6/2 437/6/2 440/6/2
f 441/9/2 442/9/2 443/9/2
f 443/9/2 442/9/2 444/9/2
f 445/6/2 446/6/2 447/6/2
f 447/6/2 446/6/2 448/6/2
f 449/6/2 450/6/2 453/6/2
f 453/6/2 450/6/2 454/6/2
f 451/9/2 452/9/2 455/9/2
f 455/9/2 452/9/2 456/9/2
f 457/9/2 458/9/2 459/9/2
f 459/9/2 458/9/2 460/9/2
f 461/1/2 462/1/2 465/1/2
f 463/1/2 464/1/2 465/1/2
f 462/1/2 463/1/2 465/1/2
f 465/1/2 464/1/2 466/1/2
f 469/6/2 470/6/2 472/6/2
f 472/6/2 470/6/2 473/6/2
f 467/4/2 468/4/2 475/4/2
f 475/4/2 468/4/2 476/4/2
f 471/6/2 472/6/2 477/6/2
f 477/6/2 472/6/2 478/6/2
f 473/6/2 474/6/2 479/6/2
f 479/6/2 474/6/2 480/6/2
f 478/6/2 479/6/2 481/6/2
f 481/6/2 479/6/2 482/6/2
f 483/8/2 484/8/2 495/8/2
f 495/8/2 484/8/2 496/8/2
f 485/8/2 486/8/2 497/8/2
f 497/8/2 486/8/2 498/8/2
f 487/8/2 488/8/2 499/8/2
f 499/8/2 488/8/2 500/8/2
f 489/8/2 490/8/2 501/8/2
f 501/8/2 490/8/2 502/8/2
f 491/8/2 492/8/2 503/8/2
f 503/8/2 492/8/2 504/8/2
f 493/8/2 494/8/2 505/8/2
f 505/8/2 494/8/2 506/8/2
f 507/4/2 508/4/2 509/4/2
f 509/4/2 508/4/2 510/4/2
f 510/4/2 508/4/2 511/4/2
f 511/4/2 508/4/2 512/4/2
f 512/4/2 508/4/2 513/4/2
f 513/4/2 508/4/2 514/4/2
f 507/4/2 509/4/2 517/4/2
f 517/4/2 509/4/2 518/4/2
f 515/6/2 516/6/2 519/6/2
f 519/6/2 516/6/2 520/6/2
f 517/2/2 518/2/2 521/2/2
f 518/4/2 509/4/2 522/4/2
f 521/2/2 518/2/2 522/2/2
f 521/4/2 522/4/2 523/4/2
f 522/4/2 509/4/2 523/4/2
f 514/4/2 508/4/2 524/4/2
f 521/4/2 523/4/2 525/4/2
f 523/4/2 524/4/2 525/4/2
f 525/4/2 524/4/2 526/4/2
f 526/4/2 524/4/2 527/4/2
f 524/4/2 508/4/2 528/4/2
f 527/4/2 524/4/2 528/4/2
f 526/4/2 527/4/2 529/4/2
f 529/4/2 527/4/2 530/4/2
f 531/8/2 532/8/2 537/8/2
f 537/8/2 532/8/2 538/8/2
f 538/8/2 532/8/2 539/8/2
f 539/8/2 532/8/2 540/8/2
f 533/8/2 534/8/2 541/8/2
f 541/8/2 534/8/2 542/8/2
f 535/8/2 536/8/2 543/8/2
f 543/8/2 536/8/2 544/8/2
f 545/4/2 546/4/2 551/4/2
f 546/1/2 547/1/2 551/1/2
f 547/4/2 548/4/2 552/4/2
f 551/1/2 547/1/2 552/1/2
f 548/1/2 549/1/2 553/1/2
f 552/4/2 548/4/2 553/4/2
f 549/4/2 550/4/2 554/4/2
f 553/1/2 549/1/2 554/1/2
f 552/4/2 553/4/2 555/4/2
f 551/4/2 552/4/2 555/4/2
f 553/4/2 554/4/2 555/4/2
f 545/4/2 551/4/2 555/4/2
f 554/4/2 550/4/2 556/4/2
f 555/4/2 554/4/2 556/4/2
f 557/4/2 558/4/2 559/4/2
f 559/4/2 558/4/2 560/4/2
f 561/4/2 562/4/2 563/4/2
f 563/4/2 562/4/2 564/4/2
f 565/4/2 566/4/2 567/4/2
f 567/4/2 566/4/2 568/4/2
f 569/4/2 570/4/2 571/4/2
f 571/4/2 570/4/2 572/4/2
f 572/4/2 570/4/2 573/4/2
f 572/5/2 573/5/2 574/5/2
f 574/5/2 573/5/2 575/5/2
f 576/5/2 577/5/2 578/5/2
f 578/5/2 577/5/2 579/5/2
f 580/8/2 581/8/2 592/8/2
f 592/8/2 581/8/2 593/8/2
f 582/8/2 583/8/2 594/8/2
f 594/8/2 583/8/2 595/8/2
f 584/8/2 585/8/2 596/8/2
f 596/8/2 585/8/2 597/8/2
f 586/8/2 587/8/2 598/8/2
f 598/8/2 587/8/2 599/8/2
f 588/8/2 589/8/2 600/8/2
f 600/8/2 589/8/2 601/8/2
f 590/8/2 591/8/2 602/8/2
f 602/8/2 591/8/2 603/8/2
f 602/7/2 603/7/2 604/7/2
f 604/7/2 603/7/2 605/7/2
f 606/8/2 607/8/2 612/8/2
f 612/8/2 607/8/2 613/8/2
f 608/8/2 609/8/2 614/8/2
f 614/8/2 609/8/2 615/8/2
f 610/8/2 611/8/2 616/8/2
f 616/8/2 611/8/2 617/8/2
f 617/8/2 611/8/2 618/8/2
f 617/7/2 618/7/2 619/7/2
f 619/7/2 618/7/2 620/7/2
f 621/6/2 622/6/2 625/6/2
f 625/6/2 622/6/2 626/6/2
f 623/6/2 624/6/2 627/6/2
f 627/6/2 624/6/2 628/6/2
f 626/6/2 627/6/2 629/6/2
f 629/6/2 627/6/2 630/6/2
f 631/6/2 632/6/2 633/6/2
f 633/6/2 632/6/2 634/6/2
f 635/6/2 636/6/2 637/6/2
f 637/6/2 636/6/2 638/6/2
f 638/6/2 636/6/2 639/6/2
f 639/6/2 636/6/2 640/6/2
f 641/6/2 642/6/2 645/6/2
f 645/6/2 642/6/2 646/6/2
f 643/6/2 644/6/2 647/6/2
f 647/6/2 644/6/2 648/6/2
f 649/6/2 650/6/2 651/6/2
f 651/6/2 650/6/2 652/6/2
f 653/6/2 654/6/2 655/6/2
f 655/6/2 654/6/2 656/6/2
f 656/6/2 654/6/2 657/6/2
f 657/6/2 654/6/2 658/6/2
f 659/6/2 660/6/2 661/6/2
f 661/6/2 660/6/2 662/6/2
f 663/7/2 664/7/2 669/7/2
f 669/7/2 664/7/2 670/7/2
f 666/6/2 667/6/2 671/6/2
f 665/6/2 666/6/2 671/6/2
f 671/6/2 667/6/2 672/6/2
f 669/6/2 670/6/2 673/6/2
f 668/6/2 669/6/2 673/6/2
f 673/6/2 670/6/2 674/6/2
f 675/7/2 676/7/2 677/7/2
f 677/7/2 676/7/2 678/7/2
f 679/6/2 680/6/2 683/6/2
f 683/6/2 680/6/2 684/6/2
f 681/6/2 682/6/2 685/6/2
f 685/6/2 682/6/2 686/6/2
f 687/8/2 688/8/2 699/8/2
f 699/8/2 688/8/2 700/8/2
f 689/8/2 690/8/2 701/8/2
f 701/8/2 690/8/2 702/8/2
f 691/8/2 692/8/2 703/8/2
f 703/8/2 692/8/2 704/8/2
f 693/8/2 694/8/2 705/8/2
f 705/8/2 694/8/2 706/8/2
f 695/8/2 696/8/2 707/8/2
f 707/8/2 696/8/2 708/8/2
f 697/7/2 698/7/2 712/7/2
f 712/7/2 698/7/2 713/7/2
f 714/6/2 715/6/2 717/6/2
f 717/6/2 715/6/2 718/6/2
f 709/7/2 710/7/2 720/7/2
f 720/7/2 710/7/2 721/7/2
f 721/7/2 710/7/2 722/7/2
f 711/7/2 712/7/2 723/7/2
f 723/7/2 712/7/2 724/7/2
f 716/6/2 717/6/2 725/6/2
f 725/6/2 717/6/2 726/6/2
f 718/6/2 719/6/2 727/6/2
f 727/6/2 719/6/2 728/6/2
f 726/6/2 727/6/2 729/6/2
f 729/6/2 727/6/2 730/6/2
f 721/6/2 722/6/2 731/6/2
f 722/6/2 723/6/2 731/6/2
f 731/6/2 723/6/2 732/6/2
f 732/6/2 723/6/2 733/6/2
f 733/6/2 723/6/2 734/6/2
f 732/6/2 733/6/2 735/6/2
f 735/6/2 733/6/2 736/6/2
f 737/8/2 738/8/2 744/8/2
f 744/8/2 738/8/2 745/8/2
f 739/8/2 740/8/2 746/8/2
f 746/8/2 740/8/2 747/8/2
f 741/8/2 742/8/2 748/8/2
f 742/7/2 743/7/2 749/7/2
f 748/8/2 742/8/2 749/8/2
f 749/7/2 743/7/2 750/7/2
f 750/7/2 743/7/2 751/7/2
f 751/7/2 743/7/2 752/7/2
f 752/7/2 743/7/2 753/7/2
f 751/7/2 752/7/2 756/7/2
f 756/7/2 752/7/2 757/7/2
f 754/6/2 755/6/2 758/6/2
f 758/6/2 755/6/2 759/6/2
f 764/6/3 763/6/3 762/6/3
f 765/6/3 763/6/3 764/6/3
f 766/8/3 761/8/3 760/8/3
f 767/8/3 761/8/3 766/8/3
f 770/8/3 769/8/3 768/8/3
f 771/8/3 769/8/3 770/8/3
f 774/8/3 773/8/3 772/8/3
f 775/8/3 773/8/3 774/8/3
f 778/8/3 777/8/3 776/8/3
f 779/8/3 777/8/3 778/8/3
f 784/4/3 781/4/3 780/4/3
f 785/2/3 782/2/3 781/2/3
f 785/4/3 781/4/3 784/4/3
f 786/4/3 783/4/3 782/4/3
f 786/2/3 782/2/3 785/2/3
f 787/4/3 783/4/3 786/4/3
f 788/9/3 785/9/3 784/9/3
f 788/2/3 786/2/3 785/2/3
f 789/9/3 787/9/3 786/9/3
f 789/2/3 786/2/3 788/2/3
f 790/9/3 787/9/3 789/9/3
f 791/9/3 789/9/3 788/9/3
f 791/10/3 790/10/3 789/10/3
f 792/9/3 787/9/3 790/9/3
f 792/10/3 790/10/3 791/10/3
f 793/9/3 788/9/3 784/9/3
f 793/9/3 791/9/3 788/9/3
f 793/9/3 792/9/3 791/9/3
f 794/9/3 787/9/3 792/9/3
f 794/9/3 792/9/3 793/9/3
f 795/9/3 787/9/3 794/9/3
f 796/4/3 783/4/3 787/4/3
f 796/9/3 787/9/3 795/9/3
f 797/9/3 793/9/3 784/9/3
f 798/9/3 795/9/3 794/9/3
f 799/4/3 796/4/3 795/4/3
f 799/9/3 795/9/3 798/9/3
f 800/4/3 783/4/3 796/4/3
f 800/4/3 796/4/3 799/4/3
f 801/9/3 799/9/3 798/9/3
f 801/9/3 798/9/3 797/9/3
f 801/9/3 800/9/3 799/9/3
f 802/9/3 800/9/3 801/9/3
f 803/9/3 797/9/3 784/9/3
f 803/9/3 801/9/3 797/9/3
f 804/10/3 802/10/3 801/10/3
f 804/9/3 801/9/3 803/9/3
f 805/9/3 800/9/3 802/9/3
f 805/10/3 802/10/3 804/10/3
f 806/4/3 784/4/3 780/4/3
f 806/9/3 803/9/3 784/9/3
f 807/2/3 804/2/3 803/2/3
f 807/9/3 803/9/3 806/9/3
f 808/9/3 805/9/3 804/9/3
f 808/2/3 804/2/3 807/2/3
f 809/9/3 800/9/3 805/9/3
f 809/9/3 805/9/3 808/9/3
f 809/4/3 783/4/3 800/4/3
f 812/4/3 806/4/3 780/4/3
f 812/4/3 807/4/3 806/4/3
f 813/2/3 808/2/3 807/2/3
f 813/4/3 807/4/3 812/4/3
f 814/4/3 809/4/3 808/4/3
f 814/2/3 808/2/3 813/2/3
f 815/4/3 783/4/3 809/4/3
f 815/4/3 809/4/3 814/4/3
f 816/8/3 811/8/3 810/8/3
f 817/8/3 811/8/3 816/8/3
f 820/8/3 819/8/3 818/8/3
f 821/8/3 819/8/3 820/8/3
f 824/8/3 823/8/3 822/8/3
f 825/8/3 823/8/3 824/8/3
f 828/8/3 827/8/3 826/8/3
f 829/8/3 827/8/3 828/8/3
f 832/8/3 831/8/3 830/8/3
f 833/8/3 831/8/3 832/8/3
f 836/5/3 835/5/3 834/5/3
f 837/5/3 835/5/3 836/5/3
f 840/6/3 839/6/3 838/6/3
f 841/6/3 839/6/3 840/6/3
f 846/4/3 843/4/3 842/4/3
f 847/4/3 843/4/3 846/4/3
f 848/4/3 846/4/3 842/4/3
f 849/4/3 846/4/3 848/4/3
f 850/1/3 845/1/3 844/1/3
f 851/1/3 845/1/3 850/1/3
f 856/1/3 853/1/3 852/1/3
f 857/1/3 853/1/3 856/1/3
f 858/4/3 855/4/3 854/4/3
f 860/4/3 858/4/3 854/4/3
f 860/4/3 859/4/3 858/4/3
f 861/4/3 859/4/3 860/4/3
f 865/4/3 863/4/3 862/4/3
f 865/5/3 864/5/3 863/5/3
f 866/5/3 864/5/3 865/5/3
f 867/4/3 865/4/3 862/4/3
f 868/4/3 865/4/3 867/4/3
f 871/6/3 870/6/3 869/6/3
f 872/6/3 870/6/3 871/6/3
f 875/6/3 873/6/3 872/6/3
f 876/6/3 873/6/3 875/6/3
f 877/6/3 875/6/3 874/6/3
f 878/6/3 875/6/3 877/6/3
f 883/4/3 880/4/3 879/4/3
f 884/4/3 880/4/3 883/4/3
f 885/4/3 882/4/3 881/4/3
f 886/4/3 882/4/3 885/4/3
f 889/4/3 888/4/3 887/4/3
f 890/4/3 888/4/3 889/4/3
f 893/4/3 892/4/3 891/4/3
f 894/4/3 892/4/3 893/4/3
f 897/4/3 896/4/3 895/4/3
f 898/4/3 897/4/3 895/4/3
f 899/4/3 897/4/3 898/4/3
f 902/4/3 901/4/3 900/4/3
f 903/4/3 902/4/3 900/4/3
f 904/4/3 903/4/3 900/4/3
f 905/4/3 904/4/3 900/4/3
f 906/4/3 904/4/3 905/4/3
f 907/4/3 904/4/3 906/4/3
f 908/4/3 904/4/3 907/4/3
f 911/6/3 910/6/3 909/6/3
f 912/6/3 910/6/3 911/6/3
f 916/6/3 914/6/3 913/6/3
f 917/6/3 914/6/3 916/6/3
f 919/6/3 916/6/3 915/6/3
f 920/6/3 916/6/3 919/6/3
f 921/6/3 918/6/3 917/6/3
f 922/6/3 918/6/3 921/6/3
f 923/6/3 921/6/3 920/6/3
f 924/6/3 921/6/3 923/6/3
f 927/8/3 926/8/3 925/8/3
f 928/8/3 926/8/3 927/8/3
f 931/8/3 930/8/3 929/8/3
f 932/8/3 930/8/3 931/8/3
f 935/8/3 934/8/3 933/8/3
f 936/8/3 934/8/3 935/8/3
f 939/8/3 938/8/3 937/8/3
f 940/8/3 938/8/3 939/8/3
f 943/8/3 942/8/3 941/8/3
f 944/8/3 942/8/3 943/8/3
f 947/8/3 946/8/3 945/8/3
f 948/8/3 946/8/3 947/8/3
f 951/8/3 950/8/3 949/8/3
f 952/8/3 950/8/3 951/8/3
f 955/8/3 954/8/3 953/8/3
f 956/8/3 954/8/3 955/8/3
f 959/8/3 958/8/3 957/8/3
f 960/8/3 958/8/3 959/8/3
f 963/8/3 962/8/3 961/8/3
f 964/8/3 962/8/3 963/8/3
f 967/8/3 966/8/3 965/8/3
f 968/8/3 966/8/3 967/8/3
f 971/8/3 970/8/3 969/8/3
f 972/8/3 970/8/3 971/8/3
f 977/8/3 974/8/3 973/8/3
f 978/8/3 974/8/3 977/8/3
f 979/7/3 976/7/3 975/7/3
f 980/7/3 976/7/3 979/7/3
f 983/8/3 982/8/3 981/8/3
f 984/8/3 982/8/3 983/8/3
f 987/8/3 986/8/3 985/8/3
f 988/8/3 986/8/3 987/8/3
f 991/8/3 990/8/3 989/8/3
f 992/8/3 990/8/3 991/8/3
f 995/8/3 994/8/3 993/8/3
f 996/8/3 994/8/3 995/8/3
f 999/8/3 998/8/3 997/8/3
f 1000/8/3 998/8/3 999/8/3
f 1004/7/3 1002/7/3 1001/7/3
f 1005/7/3 1002/7/3 1004/7/3
f 1005/7/3 1004/7/3 1003/7/3
f 1006/7/3 1002/7/3 1005/7/3
f 1007/7/3 1005/7/3 1003/7/3
f 1008/7/3 1005/7/3 1007/7/3
f 1013/6/3 1012/6/3 1011/6/3
f 1014/6/3 1012/6/3 1013/6/3
f 1015/6/3 1013/6/3 1011/6/3
f 1016/6/3 1013/6/3 1015/6/3
f 1017/6/3 1015/6/3 1011/6/3
f 1018/6/3 1015/6/3 1017/6/3
f 1019/7/3 1010/7/3 1009/7/3
f 1020/7/3 1010/7/3 1019/7/3
f 1023/7/3 1022/7/3 1021/7/3
f 1024/7/3 1023/7/3 1021/7/3
f 1025/7/3 1023/7/3 1024/7/3
f 1028/6/3 1027/6/3 1026/6/3
f 1029/6/3 1027/6/3 1028/6/3
f 1034/7/3 1031/7/3 1030/7/3
f 1035/7/3 1031/7/3 1034/7/3
f 1037/6/3 1033/6/3 1032/6/3
f 1038/6/3 1033/6/3 1037/6/3
f 1040/6/3 1037/6/3 1036/6/3
f 1041/6/3 1037/6/3 1040/6/3
f 1042/6/3 1039/6/3 1038/6/3
f 1043/6/3 1039/6/3 1042/6/3
f 1044/6/3 1039/6/3 1043/6/3
f 1045/6/3 1043/6/3 1042/6/3
f 1046/6/3 1043/6/3 1045/6/3
f 1050/6/3 1048/6/3 1047/6/3
f 1050/6/3 1049/6/3 1048/6/3
f 1051/6/3 1049/6/3 1050/6/3
f 1052/6/3 1050/6/3 1047/6/3
f 1053/6/3 1050/6/3 1052/6/3
f 1057/9/3 1055/9/3 1054/9/3
f 1058/9/3 1055/9/3 1057/9/3
f 1060/9/3 1057/9/3 1056/9/3
f 1061/9/3 1057/9/3 1060/9/3
f 1063/9/3 1060/9/3 1059/9/3
f 1064/9/3 1060/9/3 1063/9/3
f 1066/9/3 1063/9/3 1062/9/3
f 1067/9/3 1063/9/3 1066/9/3
f 1070/9/3 1066/9/3 1065/9/3
f 1071/9/3 1066/9/3 1070/9/3
f 1073/6/3 1069/6/3 1068/6/3
f 1074/6/3 1069/6/3 1073/6/3
f 1076/6/3 1073/6/3 1072/6/3
f 1077/6/3 1073/6/3 1076/6/3
f 1078/6/3 1075/6/3 1074/6/3
f 1079/6/3 1075/6/3 1078/6/3
f 1080/6/3 1078/6/3 1077/6/3
f 1081/6/3 1078/6/3 1080/6/3
f 1084/7/3 1083/7/3 1082/7/3
f 1085/7/3 1083/7/3 1084/7/3
f 1088/6/3 1087/6/3 1086/6/3
f 1089/6/3 1087/6/3 1088/6/3
f 1090/6/3 1087/6/3 1089/6/3
f 1096/6/3 1092/6/3 1091/6/3
f 1096/6/3 1093/6/3 1092/6/3
f 1097/6/3 1093/6/3 1096/6/3
f 1098/7/3 1095/7/3 1094/7/3
f 1099/7/3 1095/7/3 1098/7/3
f 1102/7/3 1101/7/3 1100/7/3
f 1103/7/3 1101/7/3 1102/7/3
f 1106/6/3 1105/6/3 1104/6/3
f 1107/6/3 1105/6/3 1106/6/3
f 1111/9/3 1109/9/3 1108/9/3
f 1112/9/3 1109/9/3 1111/9/3
f 1114/9/3 1111/9/3 1110/9/3
f 1115/9/3 1111/9/3 1114/9/3
f 1117/9/3 1114/9/3 1113/9/3
f 1118/9/3 1114/9/3 1117/9/3
f 1121/9/3 1117/9/3 1116/9/3
f 1122/9/3 1117/9/3 1121/9/3
f 1124/6/3 1120/6/3 1119/6/3
f 1125/6/3 1120/6/3 1124/6/3
f 1127/6/3 1124/6/3 1123/6/3
f 1128/6/3 1124/6/3 1127/6/3
f 1129/6/3 1126/6/3 1125/6/3
f 1130/6/3 1126/6/3 1129/6/3
f 1131/6/3 1129/6/3 1128/6/3
f 1132/6/3 1129/6/3 1131/6/3
f 1135/7/3 1134/7/3 1133/7/3
f 1137/7/3 1136/7/3 1135/7/3
f 1139/7/3 1137/7/3 1135/7/3
f 1139/7/3 1138/7/3 1137/7/3
f 1139/7/3 1135/7/3 1133/7/3
f 1140/7/3 1138/7/3 1139/7/3
f 1141/5/4 1142/5/4 1144/5/4
f 1143/5/4 1144/5/4 1145/5/4
f 1144/5/4 1142/5/4 1146/5/4
f 1145/5/4 1144/5/4 1146/5/4
f 1147/6/4 1148/6/4 1149/6/4
f 1149/6/4 1148/6/4 1150/6/4
f 1150/6/4 1151/6/4 1153/6/4
f 1153/6/4 1151/6/4 1154/6/4
f 1152/6/4 1153/6/4 1155/6/4
f 1155/6/4 1153/6/4 1156/6/4
f 1157/5/4 1158/5/4 1160/5/4
f 1159/4/4 1160/4/4 1161/4/4
f 1160/5/4 1158/5/4 1162/5/4
f 1161/4/4 1160/4/4 1162/4/4
f 1162/5/4 1158/5/4 1163/5/4
f 1164/6/4 1165/6/4 1166/6/4
f 1166/6/4 1165/6/4 1167/6/4
f 1168/4/4 1169/4/4 1170/4/4
f 1170/4/4 1169/4/4 1171/4/4
f 1168/4/4 1170/4/4 1172/4/4
f 1172/4/4 1170/4/4 1173/4/4
f 1174/4/4 1175/4/4 1176/4/4
f 1174/4/4 1176/4/4 1178/4/4
f 1176/4/4 1177/4/4 1178/4/4
f 1178/4/4 1177/4/4 1179/4/4
f 1180/4/4 1181/4/4 1182/4/4
f 1182/4/4 1181/4/4 1183/4/4
f 1184/4/4 1185/4/4 1186/4/4
f 1184/4/4 1186/4/4 1187/4/4
f 1184/4/4 1187/4/4 1188/4/4
f 1184/4/4 1188/4/4 1189/4/4
f 1189/4/4 1188/4/4 1190/4/4
f 1190/4/4 1188/4/4 1191/4/4
f 1191/4/4 1188/4/4 1192/4/4
f 1193/4/4 1194/4/4 1195/4/4
f 1195/4/4 1194/4/4 1196/4/4
f 1197/6/4 1198/6/4 1200/6/4
f 1200/6/4 1198/6/4 1201/6/4
f 1199/6/4 1200/6/4 1203/6/4
f 1203/6/4 1200/6/4 1204/6/4
f 1201/6/4 1202/6/4 1205/6/4
f 1205/6/4 1202/6/4 1206/6/4
f 1204/6/4 1205/6/4 1207/6/4
f 1207/6/4 1205/6/4 1208/6/4
f 1209/4/4 1210/4/4 1213/4/4
f 1213/4/4 1210/4/4 1214/4/4
f 1211/4/4 1212/4/4 1215/4/4
f 1215/4/4 1212/4/4 1216/4/4
f 1217/4/4 1218/4/4 1219/4/4
f 1219/4/4 1218/4/4 1220/4/4
f 1221/6/4 1222/6/4 1223/6/4
f 1223/6/4 1222/6/4 1224/6/4
f 1225/4/4 1226/4/4 1227/4/4
f 1227/4/4 1226/4/4 1228/4/4
f 1229/1/4 1230/1/4 1231/1/4
f 1231/1/4 1230/1/4 1232/1/4
f 1233/1/4 1234/1/4 1235/1/4
f 1235/1/4 1234/1/4 1236/1/4
f 1237/4/4 1238/4/4 1239/4/4
f 1239/4/4 1238/4/4 1240/4/4
f 1241/8/4 1242/8/4 1243/8/4
f 1243/8/4 1242/8/4 1244/8/4
f 1245/4/4 1246/4/4 1247/4/4
f 1247/4/4 1246/4/4 1248/4/4
f 1248/4/4 1246/4/4 1250/4/4
f 1249/4/4 1250/4/4 1253/4/4
f 1250/4/4 1246/4/4 1254/4/4
f 1253/4/4 1250/4/4 1254/4/4
f 1251/8/4 1252/8/4 1255/8/4
f 1255/8/4 1252/8/4 1256/8/4
f 1257/8/4 1258/8/4 1259/8/4
f 1259/8/4 1258/8/4 1260/8/4
f 1261/8/4 1262/8/4 1263/8/4
f 1263/8/4 1262/8/4 1264/8/4
f 1265/8/4 1266/8/4 1267/8/4
f 1267/8/4 1266/8/4 1268/8/4
f 1269/8/4 1270/8/4 1271/8/4
f 1271/8/4 1270/8/4 1272/8/4
f 1275/4/4 1276/4/4 1277/4/4
f 1277/4/4 1276/4/4 1278/4/4
f 1273/8/4 1274/8/4 1279/8/4
f 1279/8/4 1274/8/4 1280/8/4
f 1281/8/4 1282/8/4 1283/8/4
f 1283/8/4 1282/8/4 1284/8/4
f 1285/8/4 1286/8/4 1287/8/4
f 1287/8/4 1286/8/4 1288/8/4
f 1289/8/4 1290/8/4 1291/8/4
f 1291/8/4 1290/8/4 1292/8/4
f 1293/8/4 1294/8/4 1295/8/4
f 1295/8/4 1294/8/4 1296/8/4
f 1297/8/4 1298/8/4 1299/8/4
f 1299/8/4 1298/8/4 1300/8/4
f 1301/8/4 1302/8/4 1303/8/4
f 1303/8/4 1302/8/4 1304/8/4
f 1305/8/4 1306/8/4 1307/8/4
f 1307/8/4 1306/8/4 1308/8/4
f 1309/8/4 1310/8/4 1311/8/4
f 1311/8/4 1310/8/4 1312/8/4
f 1313/8/4 1314/8/4 1315/8/4
f 1315/8/4 1314/8/4 1316/8/4
f 1317/8/4 1318/8/4 1319/8/4
f 1319/8/4 1318/8/4 1320/8/4
f 1321/8/4 1322/8/4 1323/8/4
f 1323/8/4 1322/8/4 1324/8/4
f 1325/7/4 1326/7/4 1327/7/4
f 1327/7/4 1326/7/4 1328/7/4
f 1325/7/4 1327/7/4 1329/7/4
f 1329/7/4 1327/7/4 1330/7/4
f 1331/7/4 1332/7/4 1334/7/4
f 1334/7/4 1332/7/4 1335/7/4
f 1333/7/4 1334/7/4 1335/7/4
f 1335/7/4 1332/7/4 1336/7/4
f 1333/7/4 1335/7/4 1337/7/4
f 1337/7/4 1335/7/4 1338/7/4
f 1339/9/4 1340/9/4 1342/9/4
f 1342/9/4 1340/9/4 1343/9/4
f 1341/9/4 1342/9/4 1345/9/4
f 1345/9/4 1342/9/4 1346/9/4
f 1344/9/4 1345/9/4 1348/9/4
f 1348/9/4 1345/9/4 1349/9/4
f 1347/9/4 1348/9/4 1351/9/4
f 1351/9/4 1348/9/4 1352/9/4
f 1350/9/4 1351/9/4 1355/9/4
f 1355/9/4 1351/9/4 1356/9/4
f 1353/6/4 1354/6/4 1358/6/4
f 1358/6/4 1354/6/4 1359/6/4
f 1357/6/4 1358/6/4 1361/6/4
f 1361/6/4 1358/6/4 1362/6/4
f 1359/6/4 1360/6/4 1363/6/4
f 1363/6/4 1360/6/4 1364/6/4
f 1362/6/4 1363/6/4 1365/6/4
f 1365/6/4 1363/6/4 1366/6/4
f 1367/6/4 1368/6/4 1369/6/4
f 1369/6/4 1368/6/4 1370/6/4
f 1371/6/4 1372/6/4 1373/6/4
f 1373/6/4 1372/6/4 1374/6/4
f 1374/6/4 1372/6/4 1375/6/4
f 1376/6/4 1377/6/4 1379/6/4
f 1377/6/4 1378/6/4 1379/6/4
f 1379/6/4 1378/6/4 1380/6/4
f 1381/9/4 1382/9/4 1384/9/4
f 1384/9/4 1382/9/4 1385/9/4
f 1383/9/4 1384/9/4 1387/9/4
f 1387/9/4 1384/9/4 1388/9/4
f 1386/9/4 1387/9/4 1390/9/4
f 1390/9/4 1387/9/4 1391/9/4
f 1389/9/4 1390/9/4 1394/9/4
f 1394/9/4 1390/9/4 1395/9/4
f 1392/6/4 1393/6/4 1397/6/4
f 1397/6/4 1393/6/4 1398/6/4
f 1396/6/4 1397/6/4 1400/6/4
f 1400/6/4 1397/6/4 1401/6/4
f 1398/6/4 1399/6/4 1402/6/4
f 1402/6/4 1399/6/4 1403/6/4
f 1401/6/4 1402/6/4 1404/6/4
f 1404/6/4 1402/6/4 1405/6/4
f 1406/6/4 1407/6/4 1408/6/4
f 1408/6/4 1407/6/4 1409/6/4
f 1409/6/4 1410/6/4 1411/6/4
f 1411/6/4 1410/6/4 1412/6/4
f 1412/6/4 1410/6/4 1413/6/4
f 1411/6/4 1412/6/4 1414/6/4
f 1414/6/4 1412/6/4 1415/6/4
f 1416/6/4 1417/6/4 1419/6/4
f 1417/6/4 1418/6/4 1419/6/4
f 1419/6/4 1418/6/4 1420/6/4
f 1416/6/4 1419/6/4 1422/6/4
f 1422/6/4 1419/6/4 1423/6/4
f 1421/7/4 1422/7/4 1424/7/4
f 1424/7/4 1422/7/4 1425/7/4
f 1426/8/4 1427/8/4 1428/8/4
f 1428/8/4 1427/8/4 1429/8/4
f 1430/6/4 1431/6/4 1432/6/4
f 1432/6/4 1431/6/4 1433/6/4
f 1434/8/4 1435/8/4 1436/8/4
f 1436/8/4 1435/8/4 1437/8/4
f 1438/8/4 1439/8/4 1440/8/4
f 1440/8/4 1439/8/4 1441/8/4
f 1442/7/4 1443/7/4 1444/7/4
f 1442/7/4 1444/7/4 1448/7/4
f 1444/7/4 1445/7/4 1448/7/4
f 1446/8/4 1447/8/4 1449/8/4
f 1447/7/4 1448/7/4 1450/7/4
f 1449/8/4 1447/8/4 1450/8/4
f 1448/7/4 1445/7/4 1451/7/4
f 1450/7/4 1448/7/4 1451/7/4
f 1452/7/4 1453/7/4 1454/7/4
f 1454/7/4 1453/7/4 1455/7/4
f 1456/7/4 1457/7/4 1459/7/4
f 1458/7/4 1459/7/4 1461/7/4
f 1459/7/4 1457/7/4 1462/7/4
f 1461/7/4 1459/7/4 1462/7/4
f 1460/7/4 1461/7/4 1463/7/4
f 1463/7/4 1461/7/4 1464/7/4
f 1465/8/4 1466/8/4 1467/8/4
f 1467/8/4 1466/8/4 1468/8/4
f 1469/8/4 1470/8/4 1471/8/4
f 1469/8/4 1471/8/4 1473/8/4
f 1471/7/4 1472/7/4 1474/7/4
f 1473/8/4 1471/8/4 1474/8/4
f 1474/7/4 1472/7/4 1475/7/4
f 1476/7/4 1477/7/4 1478/7/4
f 1478/6/4 1479/6/4 1480/6/4
f 1480/6/4 1479/6/4 1481/6/4
f 1478/6/4 1480/6/4 1482/6/4
f 1482/6/4 1480/6/4 1483/6/4
f 1476/7/4 1478/7/4 1484/7/4
f 1478/6/4 1482/6/4 1485/6/4
f 1484/7/4 1478/7/4 1485/7/4
f 1485/6/4 1482/6/4 1486/6/4
f 1476/7/4 1484/7/4 1487/7/4
f 1487/7/4 1484/7/4 1488/7/4
f 1476/7/4 1487/7/4 1489/7/4
f 1489/7/4 1487/7/4 1490/7/4
f 1498/8/5 1492/8/5 1491/8/5
f 1499/8/5 1492/8/5 1498/8/5
f 1502/8/5 1494/8/5 1493/8/5
f 1503/8/5 1494/8/5 1502/8/5
f 1506/8/5 1496/8/5 1495/8/5
f 1507/8/5 1496/8/5 1506/8/5
f 1509/8/5 1500/8/5 1499/8/5
f 1509/8/5 1498/8/5 1497/8/5
f 1509/8/5 1499/8/5 1498/8/5
f 1510/8/5 1500/8/5 1509/8/5
f 1511/8/5 1500/8/5 1510/8/5
f 1512/8/5 1500/8/5 1511/8/5
f 1513/8/5 1504/8/5 1503/8/5
f 1513/8/5 1502/8/5 1501/8/5
f 1513/8/5 1503/8/5 1502/8/5
f 1514/8/5 1504/8/5 1513/8/5
f 1515/8/5 1504/8/5 1514/8/5
f 1516/8/5 1504/8/5 1515/8/5
f 1517/8/5 1508/8/5 1507/8/5
f 1517/8/5 1507/8/5 1506/8/5
f 1517/8/5 1506/8/5 1505/8/5
f 1518/8/5 1508/8/5 1517/8/5
f 1519/8/5 1508/8/5 1518/8/5
f 1520/8/5 1508/8/5 1519/8/5
f 1521/8/5 1511/8/5 1510/8/5
f 1522/8/5 1511/8/5 1521/8/5
f 1523/8/5 1515/8/5 1514/8/5
f 1524/8/5 1515/8/5 1523/8/5
f 1525/8/5 1519/8/5 1518/8/5
f 1526/8/5 1519/8/5 1525/8/5
f 1534/8/5 1528/8/5 1527/8/5
f 1535/8/5 1528/8/5 1534/8/5
f 1538/8/5 1530/8/5 1529/8/5
f 1539/8/5 1530/8/5 1538/8/5
f 1542/8/5 1532/8/5 1531/8/5
f 1543/8/5 1532/8/5 1542/8/5
f 1545/8/5 1536/8/5 1535/8/5
f 1545/8/5 1534/8/5 1533/8/5
f 1545/8/5 1535/8/5 1534/8/5
f 1546/8/5 1536/8/5 1545/8/5
f 1547/8/5 1536/8/5 1546/8/5
f 1548/8/5 1536/8/5 1547/8/5
f 1549/8/5 1540/8/5 1539/8/5
f 1549/8/5 1538/8/5 1537/8/5
f 1549/8/5 1539/8/5 1538/8/5
f 1550/8/5 1540/8/5 1549/8/5
f 1551/8/5 1540/8/5 1550/8/5
f 1552/8/5 1540/8/5 1551/8/5
f 1553/8/5 1543/8/5 1542/8/5
f 1553/8/5 1544/8/5 1543/8/5
f 1553/8/5 1542/8/5 1541/8/5
f 1554/8/5 1544/8/5 1553/8/5
f 1555/8/5 1544/8/5 1554/8/5
f 1556/8/5 1544/8/5 1555/8/5
f 1557/8/5 1547/8/5 1546/8/5
f 1558/8/5 1547/8/5 1557/8/5
f 1559/8/5 1551/8/5 1550/8/5
f 1560/8/5 1551/8/5 1559/8/5
f 1561/8/5 1555/8/5 1554/8/5
f 1562/8/5 1555/8/5 1561/8/5
f 1570/8/5 1564/8/5 1563/8/5
f 1571/8/5 1564/8/5 1570/8/5
f 1574/8/5 1566/8/5 1565/8/5
f 1575/8/5 1566/8/5 1574/8/5
f 1578/8/5 1568/8/5 1567/8/5
f 1579/8/5 1568/8/5 1578/8/5
f 1581/8/5 1579/8/5 1578/8/5
f 1581/8/5 1580/8/5 1579/8/5
f 1581/8/5 1578/8/5 1577/8/5
f 1582/8/5 1580/8/5 1581/8/5
f 1583/8/5 1572/8/5 1571/8/5
f 1583/8/5 1570/8/5 1569/8/5
f 1583/8/5 1571/8/5 1570/8/5
f 1584/8/5 1572/8/5 1583/8/5
f 1585/8/5 1572/8/5 1584/8/5
f 1586/8/5 1572/8/5 1585/8/5
f 1587/8/5 1576/8/5 1575/8/5
f 1587/8/5 1574/8/5 1573/8/5
f 1587/8/5 1575/8/5 1574/8/5
f 1588/8/5 1576/8/5 1587/8/5
f 1589/8/5 1576/8/5 1588/8/5
f 1590/8/5 1576/8/5 1589/8/5
f 1591/7/5 1582/7/5 1581/7/5
f 1592/7/5 1582/7/5 1591/7/5
f 1593/7/5 1582/7/5 1592/7/5
f 1594/7/5 1582/7/5 1593/7/5
f 1595/8/5 1585/8/5 1584/8/5
f 1596/8/5 1585/8/5 1595/8/5
f 1597/8/5 1589/8/5 1588/8/5
f 1598/8/5 1589/8/5 1597/8/5
f 1599/7/5 1593/7/5 1592/7/5
f 1600/7/5 1593/7/5 1599/7/5
f 1603/4/5 1602/4/5 1601/4/5
f 1604/4/5 1602/4/5 1603/4/5
f 1611/5/5 1606/5/5 1605/5/5
f 1612/5/5 1606/5/5 1611/5/5
f 1613/5/5 1606/5/5 1612/5/5
f 1614/5/5 1606/5/5 1613/5/5
f 1615/1/5 1608/1/5 1607/1/5
f 1616/1/5 1608/1/5 1615/1/5
f 1617/1/5 1608/1/5 1616/1/5
f 1618/1/5 1608/1/5 1617/1/5
f 1619/1/5 1610/1/5 1609/1/5
f 1620/1/5 1610/1/5 1619/1/5
f 1625/1/5 1622/1/5 1621/1/5
f 1626/1/5 1622/1/5 1625/1/5
f 1627/1/5 1622/1/5 1626/1/5
f 1628/1/5 1624/1/5 1623/1/5
f 1629/1/5 1624/1/5 1628/1/5
f 1632/7/5 1631/7/5 1630/7/5
f 1634/7/5 1632/7/5 1630/7/5
f 1634/7/5 1633/7/5 1632/7/5
f 1635/7/5 1633/7/5 1634/7/5
f 1636/7/5 1633/7/5 1635/7/5
f 1637/7/5 1633/7/5 1636/7/5
f 1641/6/5 1639/6/5 1638/6/5
f 1642/6/5 1639/6/5 1641/6/5
f 1644/6/5 1641/6/5 1640/6/5
f 1645/6/5 1641/6/5 1644/6/5
f 1646/6/5 1643/6/5 1642/6/5
f 1647/6/5 1643/6/5 1646/6/5
f 1648/6/5 1646/6/5 1645/6/5
f 1649/6/5 1646/6/5 1648/6/5
f 1652/4/5 1651/4/5 1650/4/5
f 1653/4/5 1651/4/5 1652/4/5
f 1654/4/5 1651/4/5 1653/4/5
f 1655/4/5 1651/4/5 1654/4/5
f 1658/6/5 1657/6/5 1656/6/5
f 1659/6/5 1657/6/5 1658/6/5
f 1660/4/5 1652/4/5 1650/4/5
f 1661/4/5 1654/4/5 1653/4/5
f 1662/4/5 1654/4/5 1661/4/5
f 1663/4/5 1651/4/5 1655/4/5
f 1664/4/5 1662/4/5 1661/4/5
f 1664/4/5 1663/4/5 1662/4/5
f 1664/4/5 1660/4/5 1650/4/5
f 1664/4/5 1661/4/5 1660/4/5
f 1665/4/5 1663/4/5 1664/4/5
f 1666/4/5 1651/4/5 1663/4/5
f 1666/4/5 1663/4/5 1665/4/5
f 1667/4/5 1651/4/5 1666/4/5
f 1668/4/5 1666/4/5 1665/4/5
f 1669/4/5 1666/4/5 1668/4/5
f 1672/7/5 1671/7/5 1670/7/5
f 1673/7/5 1671/7/5 1672/7/5
f 1678/4/5 1675/4/5 1674/4/5
f 1679/4/5 1675/4/5 1678/4/5
f 1680/4/5 1677/4/5 1676/4/5
f 1681/4/5 1677/4/5 1680/4/5
f 1682/1/5 1679/1/5 1678/1/5
f 1683/1/5 1679/1/5 1682/1/5
f 1684/1/5 1681/1/5 1680/1/5
f 1685/1/5 1681/1/5 1684/1/5
f 1688/4/5 1683/4/5 1682/4/5
f 1689/4/5 1683/4/5 1688/4/5
f 1690/4/5 1685/4/5 1684/4/5
f 1691/4/5 1685/4/5 1690/4/5
f 1693/6/5 1687/6/5 1686/6/5
f 1694/6/5 1687/6/5 1693/6/5
f 1696/1/5 1689/1/5 1688/1/5
f 1697/1/5 1689/1/5 1696/1/5
f 1698/1/5 1691/1/5 1690/1/5
f 1699/1/5 1691/1/5 1698/1/5
f 1700/6/5 1693/6/5 1692/6/5
f 1701/6/5 1693/6/5 1700/6/5
f 1702/6/5 1695/6/5 1694/6/5
f 1703/6/5 1695/6/5 1702/6/5
f 1704/4/5 1697/4/5 1696/4/5
f 1705/4/5 1697/4/5 1704/4/5
f 1706/4/5 1699/4/5 1698/4/5
f 1707/4/5 1699/4/5 1706/4/5
f 1708/6/5 1702/6/5 1701/6/5
f 1709/6/5 1702/6/5 1708/6/5
f 1712/6/5 1711/6/5 1710/6/5
f 1713/6/5 1711/6/5 1712/6/5
f 1715/6/5 1712/6/5 1710/6/5
f 1716/6/5 1712/6/5 1715/6/5
f 1719/6/5 1715/6/5 1714/6/5
f 1720/6/5 1715/6/5 1719/6/5
f 1721/6/5 1718/6/5 1717/6/5
f 1722/6/5 1718/6/5 1721/6/5
f 1725/9/5 1724/9/5 1723/9/5
f 1726/9/5 1724/9/5 1725/9/5
f 1730/6/5 1728/6/5 1727/6/5
f 1731/6/5 1728/6/5 1730/6/5
f 1733/6/5 1730/6/5 1729/6/5
f 1734/6/5 1730/6/5 1733/6/5
f 1735/6/5 1732/6/5 1731/6/5
f 1736/6/5 1732/6/5 1735/6/5
f 1737/6/5 1735/6/5 1734/6/5
f 1738/6/5 1735/6/5 1737/6/5
f 1741/9/5 1740/9/5 1739/9/5
f 1742/9/5 1740/9/5 1741/9/5
f 1745/6/5 1744/6/5 1743/6/5
f 1746/6/5 1744/6/5 1745/6/5
f 1749/9/5 1748/9/5 1747/9/5
f 1750/9/5 1748/9/5 1749/9/5
f 1753/9/5 1752/9/5 1751/9/5
f 1754/9/5 1752/9/5 1753/9/5
f 1757/9/5 1756/9/5 1755/9/5
f 1758/9/5 1756/9/5 1757/9/5
f 1761/9/5 1760/9/5 1759/9/5
f 1762/9/5 1760/9/5 1761/9/5
f 1765/9/5 1764/9/5 1763/9/5
f 1766/9/5 1764/9/5 1765/9/5
f 1771/9/5 1770/9/5 1769/9/5
f 1772/9/5 1770/9/5 1771/9/5
f 1773/6/5 1768/6/5 1767/6/5
f 1774/6/5 1768/6/5 1773/6/5
f 1779/9/5 1776/9/5 1775/9/5
f 1780/9/5 1776/9/5 1779/9/5
f 1781/6/5 1778/6/5 1777/6/5
f 1782/6/5 1778/6/5 1781/6/5
f 1783/8/6 1784/8/6 1790/8/6
f 1790/8/6 1784/8/6 1791/8/6
f 1785/8/6 1786/8/6 1794/8/6
f 1794/8/6 1786/8/6 1795/8/6
f 1787/8/6 1788/8/6 1798/8/6
f 1798/8/6 1788/8/6 1799/8/6
f 1797/8/6 1798/8/6 1801/8/6
f 1799/8/6 1800/8/6 1801/8/6
f 1798/8/6 1799/8/6 1801/8/6
f 1801/8/6 1800/8/6 1802/8/6
f 1795/8/6 1796/8/6 1803/8/6
f 1793/8/6 1794/8/6 1803/8/6
f 1794/8/6 1795/8/6 1803/8/6
f 1803/8/6 1796/8/6 1804/8/6
f 1797/8/6 1801/8/6 1805/8/6
f 1805/8/6 1801/8/6 1806/8/6
f 1802/8/6 1800/8/6 1807/8/6
f 1807/8/6 1800/8/6 1808/8/6
f 1791/8/6 1792/8/6 1809/8/6
f 1789/8/6 1790/8/6 1809/8/6
f 1790/8/6 1791/8/6 1809/8/6
f 1809/8/6 1792/8/6 1810/8/6
f 1793/8/6 1803/8/6 1811/8/6
f 1811/8/6 1803/8/6 1812/8/6
f 1797/8/6 1805/8/6 1813/8/6
f 1808/8/6 1800/8/6 1816/8/6
f 1810/8/6 1792/8/6 1817/8/6
f 1817/8/6 1792/8/6 1818/8/6
f 1804/8/6 1796/8/6 1820/8/6
f 1813/8/6 1814/8/6 1821/8/6
f 1815/8/6 1816/8/6 1822/8/6
f 1818/8/6 1792/8/6 1823/8/6
f 1823/8/6 1792/8/6 1824/8/6
f 1793/8/6 1811/8/6 1825/8/6
f 1825/8/6 1811/8/6 1826/8/6
f 1819/8/6 1820/8/6 1828/8/6
f 1827/8/6 1828/8/6 1834/8/6
f 1829/8/6 1830/8/6 1836/8/6
f 1835/8/6 1836/8/6 1838/8/6
f 1831/8/6 1832/8/6 1839/8/6
f 1833/8/6 1834/8/6 1840/8/6
f 1837/8/6 1838/8/6 1841/8/6
f 1838/8/6 1836/8/6 1842/8/6
f 1841/8/6 1838/8/6 1842/8/6
f 1836/8/6 1830/8/6 1843/8/6
f 1842/8/6 1836/8/6 1843/8/6
f 1843/8/6 1830/8/6 1844/8/6
f 1839/8/6 1840/8/6 1845/8/6
f 1831/8/6 1839/8/6 1845/8/6
f 1845/8/6 1840/8/6 1846/8/6
f 1820/8/6 1796/8/6 1847/8/6
f 1846/8/6 1840/8/6 1847/8/6
f 1828/8/6 1820/8/6 1847/8/6
f 1834/8/6 1828/8/6 1847/8/6
f 1840/8/6 1834/8/6 1847/8/6
f 1847/8/6 1796/8/6 1848/8/6
f 1813/8/6 1821/8/6 1849/8/6
f 1821/8/6 1822/8/6 1849/8/6
f 1797/8/6 1813/8/6 1849/8/6
f 1849/8/6 1822/8/6 1850/8/6
f 1816/8/6 1800/8/6 1851/8/6
f 1850/8/6 1822/8/6 1851/8/6
f 1822/8/6 1816/8/6 1851/8/6
f 1851/8/6 1800/8/6 1852/8/6
f 1842/8/6 1843/8/6 1853/8/6
f 1853/8/6 1843/8/6 1854/8/6
f 1846/8/6 1847/8/6 1855/8/6
f 1855/8/6 1847/8/6 1856/8/6
f 1850/8/6 1851/8/6 1857/8/6
f 1857/8/6 1851/8/6 1858/8/6
f 1859/8/6 1860/8/6 1866/8/6
f 1866/8/6 1860/8/6 1867/8/6
f 1861/8/6 1862/8/6 1870/8/6
f 1870/8/6 1862/8/6 1871/8/6
f 1863/8/6 1864/8/6 1874/8/6
f 1874/8/6 1864/8/6 1875/8/6
f 1867/8/6 1868/8/6 1877/8/6
f 1865/8/6 1866/8/6 1877/8/6
f 1866/8/6 1867/8/6 1877/8/6
f 1877/8/6 1868/8/6 1878/8/6
f 1878/8/6 1868/8/6 1879/8/6
f 1879/8/6 1868/8/6 1880/8/6
f 1871/8/6 1872/8/6 1881/8/6
f 1869/8/6 1870/8/6 1881/8/6
f 1870/8/6 1871/8/6 1881/8/6
f 1881/8/6 1872/8/6 1882/8/6
f 1882/8/6 1872/8/6 1883/8/6
f 1883/8/6 1872/8/6 1884/8/6
f 1874/8/6 1875/8/6 1885/8/6
f 1875/8/6 1876/8/6 1885/8/6
f 1873/8/6 1874/8/6 1885/8/6
f 1885/8/6 1876/8/6 1886/8/6
f 1886/8/6 1876/8/6 1887/8/6
f 1887/8/6 1876/8/6 1888/8/6
f 1878/8/6 1879/8/6 1889/8/6
f 1889/8/6 1879/8/6 1890/8/6
f 1882/8/6 1883/8/6 1891/8/6
f 1891/8/6 1883/8/6 1892/8/6
f 1886/8/6 1887/8/6 1893/8/6
f 1893/8/6 1887/8/6 1894/8/6
f 1895/8/6 1896/8/6 1902/8/6
f 1902/8/6 1896/8/6 1903/8/6
f 1897/8/6 1898/8/6 1906/8/6
f 1906/8/6 1898/8/6 1907/8/6
f 1899/8/6 1900/8/6 1910/8/6
f 1910/8/6 1900/8/6 1911/8/6
f 1910/8/6 1911/8/6 1913/8/6
f 1911/8/6 1912/8/6 1913/8/6
f 1909/8/6 1910/8/6 1913/8/6
f 1913/8/6 1912/8/6 1914/8/6
f 1914/8/6 1912/8/6 1915/8/6
f 1913/7/6 1914/7/6 1916/7/6
f 1916/7/6 1914/7/6 1917/7/6
f 1903/8/6 1904/8/6 1918/8/6
f 1901/8/6 1902/8/6 1918/8/6
f 1902/8/6 1903/8/6 1918/8/6
f 1918/8/6 1904/8/6 1919/8/6
f 1907/8/6 1908/8/6 1920/8/6
f 1905/8/6 1906/8/6 1920/8/6
f 1906/8/6 1907/8/6 1920/8/6
f 1920/8/6 1908/8/6 1921/8/6
f 1901/8/6 1918/8/6 1922/8/6
f 1919/8/6 1904/8/6 1923/8/6
f 1901/8/6 1922/8/6 1924/8/6
f 1922/8/6 1923/8/6 1924/8/6
f 1924/8/6 1923/8/6 1925/8/6
f 1923/8/6 1904/8/6 1926/8/6
f 1925/8/6 1923/8/6 1926/8/6
f 1926/8/6 1904/8/6 1927/8/6
f 1905/8/6 1920/8/6 1928/8/6
f 1928/8/6 1920/8/6 1929/8/6
f 1925/8/6 1926/8/6 1930/8/6
f 1930/8/6 1926/8/6 1931/8/6
f 1929/8/6 1920/8/6 1932/8/6
f 1932/8/6 1920/8/6 1933/8/6
f 1934/6/6 1935/6/6 1937/6/6
f 1937/6/6 1935/6/6 1938/6/6
f 1936/6/6 1937/6/6 1944/6/6
f 1944/6/6 1937/6/6 1945/6/6
f 1938/6/6 1939/6/6 1946/6/6
f 1946/6/6 1939/6/6 1947/6/6
f 1940/4/6 1941/4/6 1948/4/6
f 1942/4/6 1943/4/6 1950/4/6
f 1945/6/6 1946/6/6 1952/6/6
f 1952/6/6 1946/6/6 1953/6/6
f 1950/4/6 1951/4/6 1957/4/6
f 1942/4/6 1950/4/6 1957/4/6
f 1957/4/6 1951/4/6 1958/4/6
f 1956/4/6 1957/4/6 1958/4/6
f 1958/4/6 1951/4/6 1959/4/6
f 1954/4/6 1955/4/6 1960/4/6
f 1960/4/6 1955/4/6 1961/4/6
f 1956/4/6 1958/4/6 1962/4/6
f 1962/4/6 1958/4/6 1963/4/6
f 1963/4/6 1958/4/6 1964/4/6
f 1964/4/6 1958/4/6 1965/4/6
f 1948/4/6 1949/4/6 1966/4/6
f 1940/4/6 1948/4/6 1966/4/6
f 1966/4/6 1949/4/6 1967/4/6
f 1940/4/6 1966/4/6 1968/4/6
f 1968/4/6 1966/4/6 1969/4/6
f 1963/4/6 1964/4/6 1970/4/6
f 1970/4/6 1964/4/6 1971/4/6
f 1972/7/6 1973/7/6 1974/7/6
f 1974/7/6 1973/7/6 1975/7/6
f 1972/7/6 1974/7/6 1977/7/6
f 1977/7/6 1974/7/6 1978/7/6
f 1978/7/6 1974/7/6 1979/7/6
f 1976/7/6 1977/7/6 1980/7/6
f 1977/7/6 1978/7/6 1980/7/6
f 1980/7/6 1978/7/6 1981/7/6
f 1975/7/6 1973/7/6 1982/7/6
f 1982/7/6 1973/7/6 1983/7/6
f 1976/7/6 1980/7/6 1984/7/6
f 1984/7/6 1980/7/6 1985/7/6
f 1986/7/6 1987/7/6 1990/7/6
f 1988/7/6 1989/7/6 1993/7/6
f 1993/7/6 1989/7/6 1994/7/6
f 1990/7/6 1991/7/6 1995/7/6
f 1986/7/6 1990/7/6 1995/7/6
f 1995/7/6 1991/7/6 1996/7/6
f 1992/7/6 1993/7/6 1997/7/6
f 1997/7/6 1993/7/6 1998/7/6
f 1999/5/6 2000/5/6 2003/5/6
f 2001/6/6 2002/6/6 2005/6/6
f 2005/6/6 2002/6/6 2006/6/6
f 2003/5/6 2004/5/6 2007/5/6
f 1999/5/6 2003/5/6 2007/5/6
f 2007/5/6 2004/5/6 2008/5/6
f 2011/6/6 2012/6/6 2014/6/6
f 2014/6/6 2012/6/6 2015/6/6
f 2013/6/6 2014/6/6 2019/6/6
f 2019/6/6 2014/6/6 2020/6/6
f 2015/6/6 2016/6/6 2021/6/6
f 2021/6/6 2016/6/6 2022/6/6
f 2020/6/6 2021/6/6 2023/6/6
f 2023/6/6 2021/6/6 2024/6/6
f 2017/7/6 2018/7/6 2025/7/6
f 2025/7/6 2018/7/6 2026/7/6
f 2009/7/6 2010/7/6 2027/7/6
f 2027/7/6 2010/7/6 2028/7/6
f 2029/7/6 2030/7/6 2031/7/6
f 2031/7/6 2030/7/6 2032/7/6
f 2033/5/6 2034/5/6 2035/5/6
f 2035/5/6 2034/5/6 2036/5/6
f 2037/7/6 2038/7/6 2039/7/6
f 2039/7/6 2038/7/6 2040/7/6
f 2037/7/6 2039/7/6 2045/7/6
f 2045/7/6 2039/7/6 2046/7/6
f 2043/7/6 2044/7/6 2047/7/6
f 2047/7/6 2044/7/6 2048/7/6
f 2041/7/6 2042/7/6 2049/7/6
f 2049/7/6 2042/7/6 2050/7/6
f 2053/6/6 2054/6/6 2057/6/6
f 2057/6/6 2054/6/6 2058/6/6
f 2051/7/6 2052/7/6 2062/7/6
f 2062/7/6 2052/7/6 2063/7/6
f 2055/7/6 2056/7/6 2064/7/6
f 2064/7/6 2056/7/6 2065/7/6
f 2061/7/6 2062/7/6 2066/7/6
f 2066/7/6 2062/7/6 2067/7/6
f 2059/7/6 2060/7/6 2068/7/6
f 2068/7/6 2060/7/6 2069/7/6
f 2070/6/6 2071/6/6 2073/6/6
f 2073/6/6 2071/6/6 2074/6/6
f 2072/6/6 2073/6/6 2076/6/6
f 2076/6/6 2073/6/6 2077/6/6
f 2074/6/6 2075/6/6 2078/6/6
f 2078/6/6 2075/6/6 2079/6/6
f 2077/6/6 2078/6/6 2080/6/6
f 2080/6/6 2078/6/6 2081/6/6
f 2082/7/6 2083/7/6 2084/7/6
f 2084/7/6 2083/7/6 2085/7/6
f 2086/9/6 2087/9/6 2088/9/6
f 2088/9/6 2087/9/6 2089/9/6
f 2090/6/6 2091/6/6 2092/6/6
f 2092/6/6 2091/6/6 2093/6/6
f 2094/4/6 2095/4/6 2096/4/6
f 2096/4/6 2095/4/6 2097/4/6
f 2098/6/6 2099/6/6 2102/6/6
f 2100/6/6 2101/6/6 2106/6/6
f 2106/6/6 2101/6/6 2107/6/6
f 2103/6/6 2104/6/6 2109/6/6
f 2109/6/6 2104/6/6 2110/6/6
f 2105/6/6 2106/6/6 2111/6/6
f 2111/6/6 2106/6/6 2112/6/6
f 2107/6/6 2108/6/6 2113/6/6
f 2113/6/6 2108/6/6 2114/6/6
f 2112/6/6 2113/6/6 2115/6/6
f 2115/6/6 2113/6/6 2116/6/6
f 2117/9/6 2118/9/6 2121/9/6
f 2121/9/6 2118/9/6 2122/9/6
f 2098/6/6 2102/6/6 2123/6/6
f 2119/6/6 2120/6/6 2124/6/6
f 2124/6/6 2120/6/6 2125/6/6
f 2098/6/6 2123/6/6 2126/6/6
f 2126/6/6 2123/6/6 2127/6/6
f 2130/6/6 2131/6/6 2134/6/6
f 2132/6/6 2133/6/6 2135/6/6
f 2135/6/6 2133/6/6 2136/6/6
f 2130/6/6 2134/6/6 2139/6/6
f 2137/9/6 2138/9/6 2140/9/6
f 2140/9/6 2138/9/6 2141/9/6
f 2130/6/6 2139/6/6 2142/6/6
f 2142/6/6 2139/6/6 2143/6/6
f 2128/6/6 2129/6/6 2144/6/6
f 2144/6/6 2129/6/6 2145/6/6
f 2146/4/6 2147/4/6 2150/4/6
f 2150/4/6 2147/4/6 2151/4/6
f 2148/4/6 2149/4/6 2152/4/6
f 2152/4/6 2149/4/6 2153/4/6
f 2154/9/6 2155/9/6 2158/9/6
f 2158/9/6 2155/9/6 2159/9/6
f 2156/6/6 2157/6/6 2162/6/6
f 2162/6/6 2157/6/6 2163/6/6
f 2160/9/6 2161/9/6 2164/9/6
f 2164/9/6 2161/9/6 2165/9/6
f 2166/6/6 2167/6/6 2168/6/6
f 2168/6/6 2167/6/6 2169/6/6
f 2170/9/6 2171/9/6 2172/9/6
f 2172/9/6 2171/9/6 2173/9/6
f 2174/6/6 2175/6/6 2177/6/6
f 2177/6/6 2175/6/6 2178/6/6
f 2179/9/6 2180/9/6 2181/9/6
f 2181/9/6 2180/9/6 2182/9/6
f 2176/6/6 2177/6/6 2183/6/6
f 2183/6/6 2177/6/6 2184/6/6
f 2184/6/6 2185/6/6 2186/6/6
f 2186/6/6 2185/6/6 2187/6/6
f 2188/6/6 2189/6/6 2192/6/6
f 2192/6/6 2189/6/6 2193/6/6
f 2190/9/6 2191/9/6 2194/9/6
f 2194/9/6 2191/9/6 2195/9/6
f 2196/6/6 2197/6/6 2198/6/6
f 2198/6/6 2197/6/6 2199/6/6
f 2200/4/6 2201/4/6 2202/4/6
f 2202/4/6 2201/4/6 2203/4/6
f 2203/4/6 2201/4/6 2204/4/6
f 2204/4/6 2201/4/6 2205/4/6
f 2203/4/6 2204/4/6 2207/4/6
f 2207/4/6 2204/4/6 2208/4/6
f 2206/4/6 2207/4/6 2210/4/6
f 2208/4/6 2209/4/6 2210/4/6
f 2207/4/6 2208/4/6 2210/4/6
f 2210/4/6 2209/4/6 2211/4/6
f 2212/6/6 2213/6/6 2216/6/6
f 2214/9/6 2215/9/6 2218/9/6
f 2218/9/6 2215/9/6 2219/9/6
f 2216/6/6 2217/6/6 2220/6/6
f 2212/6/6 2216/6/6 2220/6/6
f 2220/6/6 2217/6/6 2221/6/6
f 2212/6/6 2220/6/6 2222/6/6
f 2222/6/6 2220/6/6 2223/6/6
f 2224/4/6 2225/4/6 2228/4/6
f 2228/4/6 2225/4/6 2229/4/6
f 2226/4/6 2227/4/6 2230/4/6
f 2230/4/6 2227/4/6 2231/4/6
f 2232/4/6 2233/4/6 2236/4/6
f 2236/4/6 2233/4/6 2237/4/6
f 2234/4/6 2235/4/6 2238/4/6
f 2238/4/6 2235/4/6 2239/4/6
