# MagicaVoxel @ Ephtracy

# group
o 

# material
mtllib chapter_five_tile.mtl
usemtl palette

# normals
vn -1 0 0
vn 1 0 0
vn 0 0 1
vn 0 0 -1
vn 0 -1 0
vn 0 1 0

# texcoords
vt 0.240234 0.5
vt 0.248047 0.5
vt 0.517578 0.5
vt 0.552734 0.5
vt 0.556641 0.5
vt 0.837891 0.5
vt 0.919922 0.5
vt 0.962891 0.5
vt 0.966797 0.5
vt 0.986328 0.5
vt 0.990234 0.5

# verts
v -1.9 0.3 1.8
v -1.9 0.3 0.8
v -1.9 0.3 0.5
v -1.9 0.3 -0.5
v -1.9 0.3 -0.8
v -1.9 0.3 -1.8
v -1.9 0.5 1.8
v -1.9 0.5 0.8
v -1.9 0.5 0.5
v -1.9 0.5 -0.5
v -1.9 0.5 -0.8
v -1.9 0.5 -1.8
v -1.8 0.3 1.9
v -1.8 0.3 1.8
v -1.8 0.3 0.8
v -1.8 0.3 0.7
v -1.8 0.3 0.6
v -1.8 0.3 0.5
v -1.8 0.3 -0.5
v -1.8 0.3 -0.6
v -1.8 0.3 -0.7
v -1.8 0.3 -0.8
v -1.8 0.3 -1.8
v -1.8 0.3 -1.9
v -1.8 0.5 1.9
v -1.8 0.5 1.8
v -1.8 0.5 0.8
v -1.8 0.5 0.7
v -1.8 0.5 0.6
v -1.8 0.5 0.5
v -1.8 0.5 -0.5
v -1.8 0.5 -0.6
v -1.8 0.5 -0.7
v -1.8 0.5 -0.8
v -1.8 0.5 -1.3
v -1.8 0.5 -1.7
v -1.8 0.5 -1.8
v -1.8 0.5 -1.9
v -1.8 0.6 1.8
v -1.8 0.6 0.8
v -1.8 0.7 -1.3
v -1.8 0.7 -1.7
v -1.8 0.8 1.8
v -1.8 0.8 1.7
v -1.8 0.9 1.8
v -1.8 0.9 1.7
v -1.8 1.5 1.8
v -1.8 1.5 0.8
v -1.7 0.5 1.7
v -1.7 0.5 1.4
v -1.7 0.5 1.2
v -1.7 0.5 0.9
v -1.7 0.5 -1.1
v -1.7 0.5 -1.3
v -1.7 0.6 1.7
v -1.7 0.6 1.4
v -1.7 0.6 1.2
v -1.7 0.6 0.9
v -1.7 0.7 -1.1
v -1.7 0.7 -1.3
v -1.7 0.7 -1.7
v -1.7 0.9 -1.3
v -1.7 0.9 -1.7
v -1.7 1.5 1.8
v -1.7 1.5 1.6
v -1.7 1.8 1.8
v -1.7 1.8 1.6
v -1.6 0.5 -1.7
v -1.6 0.5 -1.8
v -1.6 0.9 -1.4
v -1.6 0.9 -1.7
v -1.6 0.9 -1.8
v -1.6 1.1 -1.4
v -1.6 1.1 -1.5
v -1.6 1.2 -1.5
v -1.6 1.2 -1.7
v -1.4 0.7 0.8
v -1.4 0.7 0.7
v -1.4 0.9 0.8
v -1.4 0.9 0.7
v -1.2 1.5 1.8
v -1.2 1.5 1.6
v -1.2 1.8 1.8
v -1.2 1.8 1.6
v -1.1 0.5 1.7
v -1.1 0.5 1.4
v -1.1 0.5 1.2
v -1.1 0.5 0.9
v -1.1 0.6 1.7
v -1.1 0.6 1.4
v -1.1 0.6 1.2
v -1.1 0.6 0.9
v -1.1 1.4 1.9
v -1.1 1.4 1.8
v -1.1 1.5 1.9
v -1.1 1.5 1.8
v -1 1.3 1.9
v -1 1.3 1.8
v -1 1.4 1.9
v -1 1.4 1.8
v -1 1.5 1.9
v -1 1.5 1.8
v -1 1.6 1.9
v -1 1.6 1.8
v -0.6 0.3 1.8
v -0.6 0.3 0.8
v -0.6 0.3 0.5
v -0.6 0.3 -0.5
v -0.6 0.3 -0.8
v -0.6 0.3 -1.8
v -0.6 0.5 1.8
v -0.6 0.5 0.8
v -0.6 0.5 0.5
v -0.6 0.5 -0.5
v -0.6 0.5 -0.8
v -0.6 0.5 -1.8
v -0.5 0.3 1.9
v -0.5 0.3 1.8
v -0.5 0.3 0.8
v -0.5 0.3 0.7
v -0.5 0.3 0.6
v -0.5 0.3 0.5
v -0.5 0.3 -0.5
v -0.5 0.3 -0.6
v -0.5 0.3 -0.7
v -0.5 0.3 -0.8
v -0.5 0.3 -1.8
v -0.5 0.3 -1.9
v -0.5 0.5 1.9
v -0.5 0.5 1.8
v -0.5 0.5 0.8
v -0.5 0.5 0.7
v -0.5 0.5 0.6
v -0.5 0.5 0.5
v -0.5 0.5 -0.5
v -0.5 0.5 -0.6
v -0.5 0.5 -0.7
v -0.5 0.5 -0.8
v -0.5 0.5 -1.8
v -0.5 0.5 -1.9
v 0.1 0.6 -1.2
v 0.1 0.6 -1.5
v 0.1 0.9 -1.2
v 0.1 0.9 -1.5
v 0.2 0.5 -1.2
v 0.2 0.5 -1.5
v 0.2 0.6 -1.1
v 0.2 0.6 -1.2
v 0.2 0.6 -1.5
v 0.2 0.6 -1.6
v 0.2 0.9 -1.1
v 0.2 0.9 -1.2
v 0.2 0.9 -1.5
v 0.2 0.9 -1.6
v 0.2 1.1 -1.2
v 0.2 1.1 -1.5
v 0.7 0.3 1.8
v 0.7 0.3 0.8
v 0.7 0.3 0.5
v 0.7 0.3 -0.5
v 0.7 0.3 -0.8
v 0.7 0.3 -1.8
v 0.7 0.5 1.8
v 0.7 0.5 0.8
v 0.7 0.5 0.5
v 0.7 0.5 -0.5
v 0.7 0.5 -0.8
v 0.7 0.5 -1.8
v 0.8 0.3 1.9
v 0.8 0.3 1.8
v 0.8 0.3 0.8
v 0.8 0.3 0.7
v 0.8 0.3 0.6
v 0.8 0.3 0.5
v 0.8 0.3 -0.5
v 0.8 0.3 -0.6
v 0.8 0.3 -0.7
v 0.8 0.3 -0.8
v 0.8 0.3 -1.8
v 0.8 0.3 -1.9
v 0.8 0.5 1.9
v 0.8 0.5 1.8
v 0.8 0.5 0.8
v 0.8 0.5 0.7
v 0.8 0.5 0.6
v 0.8 0.5 0.5
v 0.8 0.5 -0.5
v 0.8 0.5 -0.6
v 0.8 0.5 -0.7
v 0.8 0.5 -0.8
v 0.8 0.5 -1.8
v 0.8 0.5 -1.9
v 0.8 0.8 -0.9
v 0.8 0.8 -1.7
v 0.8 1.2 -0.9
v 0.8 1.2 -1.7
v 0.9 0.8 -0.8
v 0.9 0.8 -0.9
v 0.9 0.8 -1.7
v 0.9 0.8 -1.8
v 0.9 1.2 -0.8
v 0.9 1.2 -0.9
v 0.9 1.2 -1
v 0.9 1.2 -1.6
v 0.9 1.2 -1.7
v 0.9 1.2 -1.8
v 0.9 1.5 -1
v 0.9 1.5 -1.6
v 1 1.2 -0.9
v 1 1.2 -1
v 1 1.2 -1.6
v 1 1.2 -1.7
v 1 1.5 -0.9
v 1 1.5 -1
v 1 1.5 -1.1
v 1 1.5 -1.5
v 1 1.5 -1.6
v 1 1.5 -1.7
v 1 1.8 -1.1
v 1 1.8 -1.5
v 1.1 0.5 -1.1
v 1.1 0.5 -1.5
v 1.1 0.8 -1.1
v 1.1 0.8 -1.5
v 1.1 1.1 1.6
v 1.1 1.1 1.2
v 1.1 1.2 1.6
v 1.1 1.2 1.2
v 1.1 1.5 -1
v 1.1 1.5 -1.1
v 1.1 1.5 -1.5
v 1.1 1.5 -1.6
v 1.1 1.8 -1
v 1.1 1.8 -1.1
v 1.1 1.8 -1.5
v 1.1 1.8 -1.6
v 1.2 0.5 1.6
v 1.2 0.5 1.2
v 1.2 0.6 1.6
v 1.2 0.6 1.2
v 1.2 0.7 1.6
v 1.2 0.7 1.2
v 1.2 0.8 1.5
v 1.2 0.8 1.3
v 1.2 1 1.5
v 1.2 1 1.3
v 1.2 1.1 1.7
v 1.2 1.1 1.6
v 1.2 1.1 1.2
v 1.2 1.1 1.1
v 1.2 1.2 1.7
v 1.2 1.2 1.6
v 1.2 1.2 1.2
v 1.2 1.2 1.1
v 1.2 1.3 1.6
v 1.2 1.3 1.2
v 1.3 0.6 1.5
v 1.3 0.6 1.3
v 1.3 0.7 1.5
v 1.3 0.7 1.3
v 1.3 0.8 1.5
v 1.3 0.8 1.3
v 1.3 1 1.5
v 1.3 1 1.3
v 1.3 1.3 1.5
v 1.3 1.3 1.3
v 1.3 1.4 1.5
v 1.3 1.4 1.3
v 1.5 0.8 1.6
v 1.5 0.8 1.5
v 1.5 0.8 1.3
v 1.5 0.8 1.2
v 1.5 1 1.6
v 1.5 1 1.5
v 1.5 1 1.3
v 1.5 1 1.2
v -1.5 0.5 1.7
v -1.5 0.5 1.4
v -1.5 0.5 1.2
v -1.5 0.5 0.9
v -1.5 0.6 1.7
v -1.5 0.6 1.4
v -1.5 0.6 1.2
v -1.5 0.6 0.9
v -1.4 0.9 -1.4
v -1.4 0.9 -1.5
v -1.4 1 -1.5
v -1.4 1 -1.7
v -1.4 1.1 -1.4
v -1.4 1.1 -1.5
v -1.4 1.2 -1.5
v -1.4 1.2 -1.7
v -1.4 1.5 1.8
v -1.4 1.5 1.6
v -1.4 1.8 1.8
v -1.4 1.8 1.6
v -1.3 0.7 -1.3
v -1.3 0.7 -1.4
v -1.3 0.8 -1.7
v -1.3 0.8 -1.8
v -1.3 0.9 -1.3
v -1.3 0.9 -1.4
v -1.3 0.9 -1.7
v -1.3 0.9 -1.8
v -1.2 0.5 -1.1
v -1.2 0.5 -1.2
v -1.2 0.5 -1.7
v -1.2 0.5 -1.8
v -1.2 0.7 0.8
v -1.2 0.7 0.7
v -1.2 0.7 -1.1
v -1.2 0.7 -1.2
v -1.2 0.8 -1.7
v -1.2 0.8 -1.8
v -1.2 0.9 0.8
v -1.2 0.9 0.7
v -1.2 0.9 -1.5
v -1.2 0.9 -1.7
v -1.2 1 -1.5
v -1.2 1 -1.7
v -1.1 0.7 -1.4
v -1.1 0.7 -1.7
v -1.1 0.9 -1.4
v -1.1 0.9 -1.7
v -1 0.5 -1.2
v -1 0.5 -1.7
v -1 0.7 -1.2
v -1 0.7 -1.7
v -0.9 0.5 1.7
v -0.9 0.5 1.4
v -0.9 0.5 1.2
v -0.9 0.5 0.9
v -0.9 0.6 1.7
v -0.9 0.6 1.4
v -0.9 0.6 1.2
v -0.9 0.6 0.9
v -0.9 1.3 1.9
v -0.9 1.3 1.8
v -0.9 1.4 1.9
v -0.9 1.4 1.8
v -0.9 1.5 1.9
v -0.9 1.5 1.8
v -0.9 1.5 1.6
v -0.9 1.6 1.9
v -0.9 1.6 1.8
v -0.9 1.8 1.8
v -0.9 1.8 1.6
v -0.8 0.3 1.9
v -0.8 0.3 1.8
v -0.8 0.3 0.8
v -0.8 0.3 0.7
v -0.8 0.3 0.6
v -0.8 0.3 0.5
v -0.8 0.3 -0.5
v -0.8 0.3 -0.6
v -0.8 0.3 -0.7
v -0.8 0.3 -0.8
v -0.8 0.3 -1.8
v -0.8 0.3 -1.9
v -0.8 0.5 1.9
v -0.8 0.5 1.8
v -0.8 0.5 0.8
v -0.8 0.5 0.7
v -0.8 0.5 0.6
v -0.8 0.5 0.5
v -0.8 0.5 -0.5
v -0.8 0.5 -0.6
v -0.8 0.5 -0.7
v -0.8 0.5 -0.8
v -0.8 0.5 -1.8
v -0.8 0.5 -1.9
v -0.8 0.6 1.8
v -0.8 0.6 0.8
v -0.8 0.8 1.8
v -0.8 0.8 1.7
v -0.8 0.9 1.8
v -0.8 0.9 1.7
v -0.8 1.4 1.9
v -0.8 1.4 1.8
v -0.8 1.5 1.9
v -0.8 1.5 1.8
v -0.8 1.5 0.8
v -0.7 0.3 1.8
v -0.7 0.3 0.8
v -0.7 0.3 0.5
v -0.7 0.3 -0.5
v -0.7 0.3 -0.8
v -0.7 0.3 -1.8
v -0.7 0.5 1.8
v -0.7 0.5 0.8
v -0.7 0.5 0.5
v -0.7 0.5 -0.5
v -0.7 0.5 -0.8
v -0.7 0.5 -1.8
v 0.5 0.3 1.9
v 0.5 0.3 1.8
v 0.5 0.3 0.8
v 0.5 0.3 0.7
v 0.5 0.3 0.6
v 0.5 0.3 0.5
v 0.5 0.3 -0.5
v 0.5 0.3 -0.6
v 0.5 0.3 -0.7
v 0.5 0.3 -0.8
v 0.5 0.3 -1.8
v 0.5 0.3 -1.9
v 0.5 0.5 1.9
v 0.5 0.5 1.8
v 0.5 0.5 0.8
v 0.5 0.5 0.7
v 0.5 0.5 0.6
v 0.5 0.5 0.5
v 0.5 0.5 -0.5
v 0.5 0.5 -0.6
v 0.5 0.5 -0.7
v 0.5 0.5 -0.8
v 0.5 0.5 -1.2
v 0.5 0.5 -1.5
v 0.5 0.5 -1.8
v 0.5 0.5 -1.9
v 0.5 0.6 -1.1
v 0.5 0.6 -1.2
v 0.5 0.6 -1.5
v 0.5 0.6 -1.6
v 0.5 0.9 -1.1
v 0.5 0.9 -1.2
v 0.5 0.9 -1.5
v 0.5 0.9 -1.6
v 0.5 1.1 -1.2
v 0.5 1.1 -1.5
v 0.6 0.3 1.8
v 0.6 0.3 0.8
v 0.6 0.3 0.5
v 0.6 0.3 -0.5
v 0.6 0.3 -0.8
v 0.6 0.3 -1.8
v 0.6 0.5 1.8
v 0.6 0.5 0.8
v 0.6 0.5 0.5
v 0.6 0.5 -0.5
v 0.6 0.5 -0.8
v 0.6 0.5 -1.8
v 0.6 0.6 -1.2
v 0.6 0.6 -1.5
v 0.6 0.9 -1.2
v 0.6 0.9 -1.5
v 1.3 0.8 1.6
v 1.3 0.8 1.5
v 1.3 0.8 1.3
v 1.3 0.8 1.2
v 1.3 1 1.6
v 1.3 1 1.5
v 1.3 1 1.3
v 1.3 1 1.2
v 1.5 0.5 -1.1
v 1.5 0.5 -1.5
v 1.5 0.6 1.5
v 1.5 0.6 1.3
v 1.5 0.7 1.5
v 1.5 0.7 1.3
v 1.5 0.8 1.5
v 1.5 0.8 1.3
v 1.5 0.8 -1.1
v 1.5 0.8 -1.5
v 1.5 1 1.5
v 1.5 1 1.3
v 1.5 1.3 1.5
v 1.5 1.3 1.3
v 1.5 1.4 1.5
v 1.5 1.4 1.3
v 1.5 1.5 -1
v 1.5 1.5 -1.1
v 1.5 1.5 -1.5
v 1.5 1.5 -1.6
v 1.5 1.8 -1
v 1.5 1.8 -1.1
v 1.5 1.8 -1.5
v 1.5 1.8 -1.6
v 1.6 0.5 1.6
v 1.6 0.5 1.2
v 1.6 0.6 1.6
v 1.6 0.6 1.2
v 1.6 0.7 1.6
v 1.6 0.7 1.2
v 1.6 0.8 1.5
v 1.6 0.8 1.3
v 1.6 1 1.5
v 1.6 1 1.3
v 1.6 1.1 1.7
v 1.6 1.1 1.6
v 1.6 1.1 1.2
v 1.6 1.1 1.1
v 1.6 1.2 1.7
v 1.6 1.2 1.6
v 1.6 1.2 1.2
v 1.6 1.2 1.1
v 1.6 1.2 -0.9
v 1.6 1.2 -1
v 1.6 1.2 -1.6
v 1.6 1.2 -1.7
v 1.6 1.3 1.6
v 1.6 1.3 1.2
v 1.6 1.5 -0.9
v 1.6 1.5 -1
v 1.6 1.5 -1.1
v 1.6 1.5 -1.5
v 1.6 1.5 -1.6
v 1.6 1.5 -1.7
v 1.6 1.8 -1.1
v 1.6 1.8 -1.5
v 1.7 0.8 -0.8
v 1.7 0.8 -0.9
v 1.7 0.8 -1.7
v 1.7 0.8 -1.8
v 1.7 1.1 1.6
v 1.7 1.1 1.2
v 1.7 1.2 1.6
v 1.7 1.2 1.2
v 1.7 1.2 -0.8
v 1.7 1.2 -0.9
v 1.7 1.2 -1
v 1.7 1.2 -1.6
v 1.7 1.2 -1.7
v 1.7 1.2 -1.8
v 1.7 1.5 -1
v 1.7 1.5 -1.6
v 1.8 0.3 1.9
v 1.8 0.3 1.8
v 1.8 0.3 0.8
v 1.8 0.3 0.7
v 1.8 0.3 0.6
v 1.8 0.3 0.5
v 1.8 0.3 -0.5
v 1.8 0.3 -0.6
v 1.8 0.3 -0.7
v 1.8 0.3 -0.8
v 1.8 0.3 -1.8
v 1.8 0.3 -1.9
v 1.8 0.5 1.9
v 1.8 0.5 1.8
v 1.8 0.5 0.8
v 1.8 0.5 0.7
v 1.8 0.5 0.6
v 1.8 0.5 0.5
v 1.8 0.5 -0.5
v 1.8 0.5 -0.6
v 1.8 0.5 -0.7
v 1.8 0.5 -0.8
v 1.8 0.5 -1.8
v 1.8 0.5 -1.9
v 1.8 0.8 -0.9
v 1.8 0.8 -1.7
v 1.8 1.2 -0.9
v 1.8 1.2 -1.7
v 1.9 0.3 1.8
v 1.9 0.3 0.8
v 1.9 0.3 0.5
v 1.9 0.3 -0.5
v 1.9 0.3 -0.8
v 1.9 0.3 -1.8
v 1.9 0.5 1.8
v 1.9 0.5 0.8
v 1.9 0.5 0.5
v 1.9 0.5 -0.5
v 1.9 0.5 -0.8
v 1.9 0.5 -1.8
v -1.8 0.3 1.9
v -1.8 0.5 1.9
v -1.1 1.4 1.9
v -1.1 1.5 1.9
v -1 1.3 1.9
v -1 1.4 1.9
v -1 1.5 1.9
v -1 1.6 1.9
v -0.9 1.3 1.9
v -0.9 1.4 1.9
v -0.9 1.5 1.9
v -0.9 1.6 1.9
v -0.8 0.3 1.9
v -0.8 0.5 1.9
v -0.8 1.4 1.9
v -0.8 1.5 1.9
v -0.5 0.3 1.9
v -0.5 0.5 1.9
v 0.5 0.3 1.9
v 0.5 0.5 1.9
v 0.8 0.3 1.9
v 0.8 0.5 1.9
v 1.8 0.3 1.9
v 1.8 0.5 1.9
v -1.9 0.3 1.8
v -1.9 0.5 1.8
v -1.8 0.3 1.8
v -1.8 0.5 1.8
v -1.8 0.6 1.8
v -1.8 0.8 1.8
v -1.8 0.9 1.8
v -1.8 1.5 1.8
v -1.7 1.5 1.8
v -1.7 1.8 1.8
v -1.6 0.8 1.8
v -1.6 0.9 1.8
v -1.6 1 1.8
v -1.6 1.2 1.8
v -1.6 1.5 1.8
v -1.6 1.7 1.8
v -1.5 1 1.8
v -1.5 1.2 1.8
v -1.5 1.5 1.8
v -1.5 1.7 1.8
v -1.4 0.9 1.8
v -1.4 1 1.8
v -1.4 1.5 1.8
v -1.4 1.8 1.8
v -1.2 0.9 1.8
v -1.2 1 1.8
v -1.2 1.5 1.8
v -1.2 1.8 1.8
v -1.1 1 1.8
v -1.1 1.2 1.8
v -1.1 1.4 1.8
v -1.1 1.5 1.8
v -1.1 1.7 1.8
v -1 0.8 1.8
v -1 0.9 1.8
v -1 1 1.8
v -1 1.2 1.8
v -1 1.3 1.8
v -1 1.4 1.8
v -1 1.5 1.8
v -1 1.6 1.8
v -1 1.7 1.8
v -0.9 1.3 1.8
v -0.9 1.4 1.8
v -0.9 1.6 1.8
v -0.9 1.8 1.8
v -0.8 0.3 1.8
v -0.8 0.5 1.8
v -0.8 0.6 1.8
v -0.8 0.8 1.8
v -0.8 0.9 1.8
v -0.8 1.4 1.8
v -0.7 0.3 1.8
v -0.7 0.5 1.8
v -0.6 0.3 1.8
v -0.6 0.5 1.8
v -0.5 0.3 1.8
v -0.5 0.5 1.8
v 0.5 0.3 1.8
v 0.5 0.5 1.8
v 0.6 0.3 1.8
v 0.6 0.5 1.8
v 0.7 0.3 1.8
v 0.7 0.5 1.8
v 0.8 0.3 1.8
v 0.8 0.5 1.8
v 1.8 0.3 1.8
v 1.8 0.5 1.8
v 1.9 0.3 1.8
v 1.9 0.5 1.8
v -1.7 0.5 1.7
v -1.7 0.6 1.7
v -1.5 0.5 1.7
v -1.5 0.6 1.7
v -1.1 0.5 1.7
v -1.1 0.6 1.7
v -0.9 0.5 1.7
v -0.9 0.6 1.7
v 1.2 1.1 1.7
v 1.2 1.2 1.7
v 1.6 1.1 1.7
v 1.6 1.2 1.7
v 1.1 1.1 1.6
v 1.1 1.2 1.6
v 1.2 0.5 1.6
v 1.2 0.6 1.6
v 1.2 0.7 1.6
v 1.2 1.1 1.6
v 1.2 1.2 1.6
v 1.2 1.3 1.6
v 1.3 0.8 1.6
v 1.3 1 1.6
v 1.5 0.8 1.6
v 1.5 1 1.6
v 1.6 0.5 1.6
v 1.6 0.6 1.6
v 1.6 0.7 1.6
v 1.6 1.1 1.6
v 1.6 1.2 1.6
v 1.6 1.3 1.6
v 1.7 1.1 1.6
v 1.7 1.2 1.6
v 1.3 0.6 1.5
v 1.3 0.7 1.5
v 1.3 0.8 1.5
v 1.3 1 1.5
v 1.3 1.3 1.5
v 1.3 1.4 1.5
v 1.5 0.6 1.5
v 1.5 0.7 1.5
v 1.5 0.8 1.5
v 1.5 1 1.5
v 1.5 1.3 1.5
v 1.5 1.4 1.5
v 1.2 0.8 1.3
v 1.2 1 1.3
v 1.3 0.8 1.3
v 1.3 1 1.3
v 1.5 0.8 1.3
v 1.5 1 1.3
v 1.6 0.8 1.3
v 1.6 1 1.3
v -1.7 0.5 1.2
v -1.7 0.6 1.2
v -1.5 0.5 1.2
v -1.5 0.6 1.2
v -1.1 0.5 1.2
v -1.1 0.6 1.2
v -0.9 0.5 1.2
v -0.9 0.6 1.2
v -1.8 0.3 0.6
v -1.8 0.5 0.6
v -0.8 0.3 0.6
v -0.8 0.5 0.6
v -0.5 0.3 0.6
v -0.5 0.5 0.6
v 0.5 0.3 0.6
v 0.5 0.5 0.6
v 0.8 0.3 0.6
v 0.8 0.5 0.6
v 1.8 0.3 0.6
v 1.8 0.5 0.6
v -1.9 0.3 0.5
v -1.9 0.5 0.5
v -1.8 0.3 0.5
v -1.8 0.5 0.5
v -0.8 0.3 0.5
v -0.8 0.5 0.5
v -0.7 0.3 0.5
v -0.7 0.5 0.5
v -0.6 0.3 0.5
v -0.6 0.5 0.5
v -0.5 0.3 0.5
v -0.5 0.5 0.5
v 0.5 0.3 0.5
v 0.5 0.5 0.5
v 0.6 0.3 0.5
v 0.6 0.5 0.5
v 0.7 0.3 0.5
v 0.7 0.5 0.5
v 0.8 0.3 0.5
v 0.8 0.5 0.5
v 1.8 0.3 0.5
v 1.8 0.5 0.5
v 1.9 0.3 0.5
v 1.9 0.5 0.5
v -1.8 0.3 -0.7
v -1.8 0.5 -0.7
v -0.8 0.3 -0.7
v -0.8 0.5 -0.7
v -0.5 0.3 -0.7
v -0.5 0.5 -0.7
v 0.5 0.3 -0.7
v 0.5 0.5 -0.7
v 0.8 0.3 -0.7
v 0.8 0.5 -0.7
v 1.8 0.3 -0.7
v 1.8 0.5 -0.7
v -1.9 0.3 -0.8
v -1.9 0.5 -0.8
v -1.8 0.3 -0.8
v -1.8 0.5 -0.8
v -0.8 0.3 -0.8
v -0.8 0.5 -0.8
v -0.7 0.3 -0.8
v -0.7 0.5 -0.8
v -0.6 0.3 -0.8
v -0.6 0.5 -0.8
v -0.5 0.3 -0.8
v -0.5 0.5 -0.8
v 0.5 0.3 -0.8
v 0.5 0.5 -0.8
v 0.6 0.3 -0.8
v 0.6 0.5 -0.8
v 0.7 0.3 -0.8
v 0.7 0.5 -0.8
v 0.8 0.3 -0.8
v 0.8 0.5 -0.8
v 0.9 0.8 -0.8
v 0.9 1.2 -0.8
v 1.7 0.8 -0.8
v 1.7 1.2 -0.8
v 1.8 0.3 -0.8
v 1.8 0.5 -0.8
v 1.9 0.3 -0.8
v 1.9 0.5 -0.8
v 0.8 0.8 -0.9
v 0.8 1.2 -0.9
v 0.9 0.8 -0.9
v 0.9 1.2 -0.9
v 1 1.2 -0.9
v 1 1.5 -0.9
v 1.6 1.2 -0.9
v 1.6 1.5 -0.9
v 1.7 0.8 -0.9
v 1.7 1.2 -0.9
v 1.8 0.8 -0.9
v 1.8 1.2 -0.9
v 0.9 1.2 -1
v 0.9 1.5 -1
v 1 1.2 -1
v 1 1.5 -1
v 1.1 1.5 -1
v 1.1 1.8 -1
v 1.5 1.5 -1
v 1.5 1.8 -1
v 1.6 1.2 -1
v 1.6 1.5 -1
v 1.7 1.2 -1
v 1.7 1.5 -1
v -1.7 0.5 -1.1
v -1.7 0.7 -1.1
v -1.2 0.5 -1.1
v -1.2 0.7 -1.1
v 0.2 0.6 -1.1
v 0.2 0.9 -1.1
v 0.5 0.6 -1.1
v 0.5 0.9 -1.1
v 1 1.5 -1.1
v 1 1.8 -1.1
v 1.1 0.5 -1.1
v 1.1 0.8 -1.1
v 1.1 1.5 -1.1
v 1.1 1.8 -1.1
v 1.5 0.5 -1.1
v 1.5 0.8 -1.1
v 1.5 1.5 -1.1
v 1.5 1.8 -1.1
v 1.6 1.5 -1.1
v 1.6 1.8 -1.1
v -1.2 0.5 -1.2
v -1.2 0.7 -1.2
v -1 0.5 -1.2
v -1 0.7 -1.2
v 0.1 0.6 -1.2
v 0.1 0.9 -1.2
v 0.2 0.5 -1.2
v 0.2 0.6 -1.2
v 0.2 0.9 -1.2
v 0.2 1.1 -1.2
v 0.5 0.5 -1.2
v 0.5 0.6 -1.2
v 0.5 0.9 -1.2
v 0.5 1.1 -1.2
v 0.6 0.6 -1.2
v 0.6 0.9 -1.2
v -1.8 0.5 -1.3
v -1.8 0.7 -1.3
v -1.7 0.5 -1.3
v -1.7 0.7 -1.3
v -1.7 0.9 -1.3
v -1.3 0.7 -1.3
v -1.3 0.9 -1.3
v -1.6 0.9 -1.4
v -1.6 1.1 -1.4
v -1.4 0.9 -1.4
v -1.4 1.1 -1.4
v -1.3 0.7 -1.4
v -1.3 0.9 -1.4
v -1.1 0.7 -1.4
v -1.1 0.9 -1.4
v -1.6 1.1 -1.5
v -1.6 1.2 -1.5
v -1.4 0.9 -1.5
v -1.4 1 -1.5
v -1.4 1.1 -1.5
v -1.4 1.2 -1.5
v -1.2 0.9 -1.5
v -1.2 1 -1.5
v -1.7 1.5 1.6
v -1.7 1.8 1.6
v -1.4 1.5 1.6
v -1.4 1.8 1.6
v -1.2 1.5 1.6
v -1.2 1.8 1.6
v -0.9 1.5 1.6
v -0.9 1.8 1.6
v 1.2 0.8 1.5
v 1.2 1 1.5
v 1.3 0.8 1.5
v 1.3 1 1.5
v 1.5 0.8 1.5
v 1.5 1 1.5
v 1.6 0.8 1.5
v 1.6 1 1.5
v -1.7 0.5 1.4
v -1.7 0.6 1.4
v -1.5 0.5 1.4
v -1.5 0.6 1.4
v -1.1 0.5 1.4
v -1.1 0.6 1.4
v -0.9 0.5 1.4
v -0.9 0.6 1.4
v 1.3 0.6 1.3
v 1.3 0.7 1.3
v 1.3 0.8 1.3
v 1.3 1 1.3
v 1.3 1.3 1.3
v 1.3 1.4 1.3
v 1.5 0.6 1.3
v 1.5 0.7 1.3
v 1.5 0.8 1.3
v 1.5 1 1.3
v 1.5 1.3 1.3
v 1.5 1.4 1.3
v 1.1 1.1 1.2
v 1.1 1.2 1.2
v 1.2 0.5 1.2
v 1.2 0.6 1.2
v 1.2 0.7 1.2
v 1.2 1.1 1.2
v 1.2 1.2 1.2
v 1.2 1.3 1.2
v 1.3 0.8 1.2
v 1.3 1 1.2
v 1.5 0.8 1.2
v 1.5 1 1.2
v 1.6 0.5 1.2
v 1.6 0.6 1.2
v 1.6 0.7 1.2
v 1.6 1.1 1.2
v 1.6 1.2 1.2
v 1.6 1.3 1.2
v 1.7 1.1 1.2
v 1.7 1.2 1.2
v 1.2 1.1 1.1
v 1.2 1.2 1.1
v 1.6 1.1 1.1
v 1.6 1.2 1.1
v -1.7 0.5 0.9
v -1.7 0.6 0.9
v -1.5 0.5 0.9
v -1.5 0.6 0.9
v -1.1 0.5 0.9
v -1.1 0.6 0.9
v -0.9 0.5 0.9
v -0.9 0.6 0.9
v -1.9 0.3 0.8
v -1.9 0.5 0.8
v -1.8 0.3 0.8
v -1.8 0.5 0.8
v -1.8 0.6 0.8
v -1.8 1.5 0.8
v -1.4 0.7 0.8
v -1.4 0.9 0.8
v -1.2 0.7 0.8
v -1.2 0.9 0.8
v -0.8 0.3 0.8
v -0.8 0.5 0.8
v -0.8 0.6 0.8
v -0.8 1.5 0.8
v -0.7 0.3 0.8
v -0.7 0.5 0.8
v -0.6 0.3 0.8
v -0.6 0.5 0.8
v -0.5 0.3 0.8
v -0.5 0.5 0.8
v 0.5 0.3 0.8
v 0.5 0.5 0.8
v 0.6 0.3 0.8
v 0.6 0.5 0.8
v 0.7 0.3 0.8
v 0.7 0.5 0.8
v 0.8 0.3 0.8
v 0.8 0.5 0.8
v 1.8 0.3 0.8
v 1.8 0.5 0.8
v 1.9 0.3 0.8
v 1.9 0.5 0.8
v -1.8 0.3 0.7
v -1.8 0.5 0.7
v -1.4 0.7 0.7
v -1.4 0.9 0.7
v -1.2 0.7 0.7
v -1.2 0.9 0.7
v -0.8 0.3 0.7
v -0.8 0.5 0.7
v -0.5 0.3 0.7
v -0.5 0.5 0.7
v 0.5 0.3 0.7
v 0.5 0.5 0.7
v 0.8 0.3 0.7
v 0.8 0.5 0.7
v 1.8 0.3 0.7
v 1.8 0.5 0.7
v -1.9 0.3 -0.5
v -1.9 0.5 -0.5
v -1.8 0.3 -0.5
v -1.8 0.5 -0.5
v -0.8 0.3 -0.5
v -0.8 0.5 -0.5
v -0.7 0.3 -0.5
v -0.7 0.5 -0.5
v -0.6 0.3 -0.5
v -0.6 0.5 -0.5
v -0.5 0.3 -0.5
v -0.5 0.5 -0.5
v 0.5 0.3 -0.5
v 0.5 0.5 -0.5
v 0.6 0.3 -0.5
v 0.6 0.5 -0.5
v 0.7 0.3 -0.5
v 0.7 0.5 -0.5
v 0.8 0.3 -0.5
v 0.8 0.5 -0.5
v 1.8 0.3 -0.5
v 1.8 0.5 -0.5
v 1.9 0.3 -0.5
v 1.9 0.5 -0.5
v -1.8 0.3 -0.6
v -1.8 0.5 -0.6
v -0.8 0.3 -0.6
v -0.8 0.5 -0.6
v -0.5 0.3 -0.6
v -0.5 0.5 -0.6
v 0.5 0.3 -0.6
v 0.5 0.5 -0.6
v 0.8 0.3 -0.6
v 0.8 0.5 -0.6
v 1.8 0.3 -0.6
v 1.8 0.5 -0.6
v 0.1 0.6 -1.5
v 0.1 0.9 -1.5
v 0.2 0.5 -1.5
v 0.2 0.6 -1.5
v 0.2 0.9 -1.5
v 0.2 1.1 -1.5
v 0.5 0.5 -1.5
v 0.5 0.6 -1.5
v 0.5 0.9 -1.5
v 0.5 1.1 -1.5
v 0.6 0.6 -1.5
v 0.6 0.9 -1.5
v 1 1.5 -1.5
v 1 1.8 -1.5
v 1.1 0.5 -1.5
v 1.1 0.8 -1.5
v 1.1 1.5 -1.5
v 1.1 1.8 -1.5
v 1.5 0.5 -1.5
v 1.5 0.8 -1.5
v 1.5 1.5 -1.5
v 1.5 1.8 -1.5
v 1.6 1.5 -1.5
v 1.6 1.8 -1.5
v 0.2 0.6 -1.6
v 0.2 0.9 -1.6
v 0.5 0.6 -1.6
v 0.5 0.9 -1.6
v 0.9 1.2 -1.6
v 0.9 1.5 -1.6
v 1 1.2 -1.6
v 1 1.5 -1.6
v 1.1 1.5 -1.6
v 1.1 1.8 -1.6
v 1.5 1.5 -1.6
v 1.5 1.8 -1.6
v 1.6 1.2 -1.6
v 1.6 1.5 -1.6
v 1.7 1.2 -1.6
v 1.7 1.5 -1.6
v -1.8 0.5 -1.7
v -1.8 0.7 -1.7
v -1.7 0.7 -1.7
v -1.7 0.9 -1.7
v -1.6 0.5 -1.7
v -1.6 0.9 -1.7
v -1.6 1.2 -1.7
v -1.4 1 -1.7
v -1.4 1.2 -1.7
v -1.3 0.8 -1.7
v -1.3 0.9 -1.7
v -1.2 0.5 -1.7
v -1.2 0.8 -1.7
v -1.2 0.9 -1.7
v -1.2 1 -1.7
v -1.1 0.7 -1.7
v -1.1 0.9 -1.7
v -1 0.5 -1.7
v -1 0.7 -1.7
v 0.8 0.8 -1.7
v 0.8 1.2 -1.7
v 0.9 0.8 -1.7
v 0.9 1.2 -1.7
v 1 1.2 -1.7
v 1 1.5 -1.7
v 1.6 1.2 -1.7
v 1.6 1.5 -1.7
v 1.7 0.8 -1.7
v 1.7 1.2 -1.7
v 1.8 0.8 -1.7
v 1.8 1.2 -1.7
v -1.9 0.3 -1.8
v -1.9 0.5 -1.8
v -1.8 0.3 -1.8
v -1.8 0.5 -1.8
v -1.6 0.5 -1.8
v -1.6 0.9 -1.8
v -1.3 0.8 -1.8
v -1.3 0.9 -1.8
v -1.2 0.5 -1.8
v -1.2 0.8 -1.8
v -0.8 0.3 -1.8
v -0.8 0.5 -1.8
v -0.7 0.3 -1.8
v -0.7 0.5 -1.8
v -0.6 0.3 -1.8
v -0.6 0.5 -1.8
v -0.5 0.3 -1.8
v -0.5 0.5 -1.8
v 0.5 0.3 -1.8
v 0.5 0.5 -1.8
v 0.6 0.3 -1.8
v 0.6 0.5 -1.8
v 0.7 0.3 -1.8
v 0.7 0.5 -1.8
v 0.8 0.3 -1.8
v 0.8 0.5 -1.8
v 0.9 0.8 -1.8
v 0.9 1.2 -1.8
v 1.7 0.8 -1.8
v 1.7 1.2 -1.8
v 1.8 0.3 -1.8
v 1.8 0.5 -1.8
v 1.9 0.3 -1.8
v 1.9 0.5 -1.8
v -1.8 0.3 -1.9
v -1.8 0.5 -1.9
v -0.8 0.3 -1.9
v -0.8 0.5 -1.9
v -0.5 0.3 -1.9
v -0.5 0.5 -1.9
v 0.5 0.3 -1.9
v 0.5 0.5 -1.9
v 0.8 0.3 -1.9
v 0.8 0.5 -1.9
v 1.8 0.3 -1.9
v 1.8 0.5 -1.9
v -1.8 0.3 1.9
v -0.8 0.3 1.9
v -0.5 0.3 1.9
v 0.5 0.3 1.9
v 0.8 0.3 1.9
v 1.8 0.3 1.9
v -1.9 0.3 1.8
v -1.8 0.3 1.8
v -0.8 0.3 1.8
v -0.7 0.3 1.8
v -0.6 0.3 1.8
v -0.5 0.3 1.8
v 0.5 0.3 1.8
v 0.6 0.3 1.8
v 0.7 0.3 1.8
v 0.8 0.3 1.8
v 1.8 0.3 1.8
v 1.9 0.3 1.8
v 1.6 0.3 1.7
v 1.7 0.3 1.7
v 1.6 0.3 1.6
v 1.7 0.3 1.6
v -1.9 0.3 0.8
v -1.8 0.3 0.8
v -0.8 0.3 0.8
v -0.7 0.3 0.8
v -0.6 0.3 0.8
v -0.5 0.3 0.8
v 0.5 0.3 0.8
v 0.6 0.3 0.8
v 0.7 0.3 0.8
v 0.8 0.3 0.8
v 1.8 0.3 0.8
v 1.9 0.3 0.8
v -1.8 0.3 0.7
v -0.8 0.3 0.7
v -0.5 0.3 0.7
v 0.5 0.3 0.7
v 0.8 0.3 0.7
v 1.8 0.3 0.7
v -1.8 0.3 0.6
v -0.8 0.3 0.6
v -0.5 0.3 0.6
v 0.5 0.3 0.6
v 0.8 0.3 0.6
v 1.8 0.3 0.6
v -1.9 0.3 0.5
v -1.8 0.3 0.5
v -0.8 0.3 0.5
v -0.7 0.3 0.5
v -0.6 0.3 0.5
v -0.5 0.3 0.5
v 0.5 0.3 0.5
v 0.6 0.3 0.5
v 0.7 0.3 0.5
v 0.8 0.3 0.5
v 1.8 0.3 0.5
v 1.9 0.3 0.5
v -1.9 0.3 -0.5
v -1.8 0.3 -0.5
v -0.8 0.3 -0.5
v -0.7 0.3 -0.5
v -0.6 0.3 -0.5
v -0.5 0.3 -0.5
v 0.5 0.3 -0.5
v 0.6 0.3 -0.5
v 0.7 0.3 -0.5
v 0.8 0.3 -0.5
v 1.8 0.3 -0.5
v 1.9 0.3 -0.5
v -1.8 0.3 -0.6
v -0.8 0.3 -0.6
v -0.5 0.3 -0.6
v 0.5 0.3 -0.6
v 0.8 0.3 -0.6
v 1.8 0.3 -0.6
v -1.8 0.3 -0.7
v -0.8 0.3 -0.7
v -0.5 0.3 -0.7
v 0.5 0.3 -0.7
v 0.8 0.3 -0.7
v 1.8 0.3 -0.7
v -1.9 0.3 -0.8
v -1.8 0.3 -0.8
v -0.8 0.3 -0.8
v -0.7 0.3 -0.8
v -0.6 0.3 -0.8
v -0.5 0.3 -0.8
v 0.5 0.3 -0.8
v 0.6 0.3 -0.8
v 0.7 0.3 -0.8
v 0.8 0.3 -0.8
v 1.8 0.3 -0.8
v 1.9 0.3 -0.8
v -1.9 0.3 -1.8
v -1.8 0.3 -1.8
v -0.8 0.3 -1.8
v -0.7 0.3 -1.8
v -0.6 0.3 -1.8
v -0.5 0.3 -1.8
v 0.5 0.3 -1.8
v 0.6 0.3 -1.8
v 0.7 0.3 -1.8
v 0.8 0.3 -1.8
v 1.8 0.3 -1.8
v 1.9 0.3 -1.8
v -1.8 0.3 -1.9
v -0.8 0.3 -1.9
v -0.5 0.3 -1.9
v 0.5 0.3 -1.9
v 0.8 0.3 -1.9
v 1.8 0.3 -1.9
v -1.8 0.6 1.8
v -0.8 0.6 1.8
v -1.7 0.6 1.7
v -1.5 0.6 1.7
v -1.1 0.6 1.7
v -0.9 0.6 1.7
v -1.7 0.6 1.4
v -1.5 0.6 1.4
v -1.1 0.6 1.4
v -0.9 0.6 1.4
v -1.7 0.6 1.2
v -1.5 0.6 1.2
v -1.1 0.6 1.2
v -0.9 0.6 1.2
v -1.7 0.6 0.9
v -1.5 0.6 0.9
v -1.1 0.6 0.9
v -0.9 0.6 0.9
v -1.8 0.6 0.8
v -0.8 0.6 0.8
v 0.2 0.6 -1.1
v 0.5 0.6 -1.1
v 0.1 0.6 -1.2
v 0.2 0.6 -1.2
v 0.5 0.6 -1.2
v 0.6 0.6 -1.2
v 0.1 0.6 -1.5
v 0.2 0.6 -1.5
v 0.5 0.6 -1.5
v 0.6 0.6 -1.5
v 0.2 0.6 -1.6
v 0.5 0.6 -1.6
v 1.2 0.7 1.6
v 1.6 0.7 1.6
v 1.3 0.7 1.5
v 1.5 0.7 1.5
v 1.3 0.7 1.3
v 1.5 0.7 1.3
v 1.2 0.7 1.2
v 1.6 0.7 1.2
v -1.4 0.7 0.8
v -1.2 0.7 0.8
v -1.4 0.7 0.7
v -1.2 0.7 0.7
v 0.9 0.8 -0.8
v 1.7 0.8 -0.8
v 0.8 0.8 -0.9
v 0.9 0.8 -0.9
v 1.7 0.8 -0.9
v 1.8 0.8 -0.9
v 1.1 0.8 -1.1
v 1.5 0.8 -1.1
v 1.1 0.8 -1.5
v 1.5 0.8 -1.5
v 0.8 0.8 -1.7
v 0.9 0.8 -1.7
v 1.7 0.8 -1.7
v 1.8 0.8 -1.7
v 0.9 0.8 -1.8
v 1.7 0.8 -1.8
v 1.3 1 1.6
v 1.5 1 1.6
v 1.2 1 1.5
v 1.3 1 1.5
v 1.5 1 1.5
v 1.6 1 1.5
v 1.2 1 1.3
v 1.3 1 1.3
v 1.5 1 1.3
v 1.6 1 1.3
v 1.3 1 1.2
v 1.5 1 1.2
v 1.2 1.1 1.7
v 1.6 1.1 1.7
v 1.1 1.1 1.6
v 1.2 1.1 1.6
v 1.6 1.1 1.6
v 1.7 1.1 1.6
v 1.1 1.1 1.2
v 1.2 1.1 1.2
v 1.6 1.1 1.2
v 1.7 1.1 1.2
v 1.2 1.1 1.1
v 1.6 1.1 1.1
v -1 1.3 1.9
v -0.9 1.3 1.9
v -1 1.3 1.8
v -0.9 1.3 1.8
v -1.1 1.4 1.9
v -1 1.4 1.9
v -0.9 1.4 1.9
v -0.8 1.4 1.9
v -1.1 1.4 1.8
v -1 1.4 1.8
v -0.9 1.4 1.8
v -0.8 1.4 1.8
v -1.8 0.5 1.9
v -0.8 0.5 1.9
v -0.5 0.5 1.9
v 0.5 0.5 1.9
v 0.8 0.5 1.9
v 1.8 0.5 1.9
v -1.9 0.5 1.8
v -1.8 0.5 1.8
v -0.8 0.5 1.8
v -0.7 0.5 1.8
v -0.6 0.5 1.8
v -0.5 0.5 1.8
v 0.5 0.5 1.8
v 0.6 0.5 1.8
v 0.7 0.5 1.8
v 0.8 0.5 1.8
v 1.8 0.5 1.8
v 1.9 0.5 1.8
v -1.7 0.5 1.7
v -1.5 0.5 1.7
v -1.1 0.5 1.7
v -0.9 0.5 1.7
v 1.2 0.5 1.6
v 1.6 0.5 1.6
v -1.7 0.5 1.4
v -1.5 0.5 1.4
v -1.1 0.5 1.4
v -0.9 0.5 1.4
v -1.7 0.5 1.2
v -1.5 0.5 1.2
v -1.1 0.5 1.2
v -0.9 0.5 1.2
v 1.2 0.5 1.2
v 1.6 0.5 1.2
v -1.7 0.5 0.9
v -1.5 0.5 0.9
v -1.1 0.5 0.9
v -0.9 0.5 0.9
v -1.9 0.5 0.8
v -1.8 0.5 0.8
v -0.8 0.5 0.8
v -0.7 0.5 0.8
v -0.6 0.5 0.8
v -0.5 0.5 0.8
v 0.5 0.5 0.8
v 0.6 0.5 0.8
v 0.7 0.5 0.8
v 0.8 0.5 0.8
v 1.8 0.5 0.8
v 1.9 0.5 0.8
v -1.8 0.5 0.7
v -0.8 0.5 0.7
v -0.5 0.5 0.7
v 0.5 0.5 0.7
v 0.8 0.5 0.7
v 1.8 0.5 0.7
v -1.8 0.5 0.6
v -0.8 0.5 0.6
v -0.5 0.5 0.6
v 0.5 0.5 0.6
v 0.8 0.5 0.6
v 1.8 0.5 0.6
v -1.9 0.5 0.5
v -1.8 0.5 0.5
v -0.8 0.5 0.5
v -0.7 0.5 0.5
v -0.6 0.5 0.5
v -0.5 0.5 0.5
v 0.5 0.5 0.5
v 0.6 0.5 0.5
v 0.7 0.5 0.5
v 0.8 0.5 0.5
v 1.8 0.5 0.5
v 1.9 0.5 0.5
v -1.9 0.5 -0.5
v -1.8 0.5 -0.5
v -0.8 0.5 -0.5
v -0.7 0.5 -0.5
v -0.6 0.5 -0.5
v -0.5 0.5 -0.5
v 0.5 0.5 -0.5
v 0.6 0.5 -0.5
v 0.7 0.5 -0.5
v 0.8 0.5 -0.5
v 1.8 0.5 -0.5
v 1.9 0.5 -0.5
v -1.8 0.5 -0.6
v -0.8 0.5 -0.6
v -0.5 0.5 -0.6
v 0.5 0.5 -0.6
v 0.8 0.5 -0.6
v 1.8 0.5 -0.6
v -1.8 0.5 -0.7
v -0.8 0.5 -0.7
v -0.5 0.5 -0.7
v 0.5 0.5 -0.7
v 0.8 0.5 -0.7
v 1.8 0.5 -0.7
v -1.9 0.5 -0.8
v -1.8 0.5 -0.8
v -0.8 0.5 -0.8
v -0.7 0.5 -0.8
v -0.6 0.5 -0.8
v -0.5 0.5 -0.8
v 0.5 0.5 -0.8
v 0.6 0.5 -0.8
v 0.7 0.5 -0.8
v 0.8 0.5 -0.8
v 1.8 0.5 -0.8
v 1.9 0.5 -0.8
v -1.7 0.5 -1.1
v -1.2 0.5 -1.1
v 1.1 0.5 -1.1
v 1.5 0.5 -1.1
v -1.2 0.5 -1.2
v -1 0.5 -1.2
v 0.2 0.5 -1.2
v 0.5 0.5 -1.2
v -1.8 0.5 -1.3
v -1.7 0.5 -1.3
v 0.2 0.5 -1.5
v 0.5 0.5 -1.5
v 1.1 0.5 -1.5
v 1.5 0.5 -1.5
v -1.8 0.5 -1.7
v -1.6 0.5 -1.7
v -1.2 0.5 -1.7
v -1 0.5 -1.7
v -1.9 0.5 -1.8
v -1.8 0.5 -1.8
v -1.6 0.5 -1.8
v -1.2 0.5 -1.8
v -0.8 0.5 -1.8
v -0.7 0.5 -1.8
v -0.6 0.5 -1.8
v -0.5 0.5 -1.8
v 0.5 0.5 -1.8
v 0.6 0.5 -1.8
v 0.7 0.5 -1.8
v 0.8 0.5 -1.8
v 1.8 0.5 -1.8
v 1.9 0.5 -1.8
v -1.8 0.5 -1.9
v -0.8 0.5 -1.9
v -0.5 0.5 -1.9
v 0.5 0.5 -1.9
v 0.8 0.5 -1.9
v 1.8 0.5 -1.9
v 1.2 0.6 1.6
v 1.6 0.6 1.6
v 1.3 0.6 1.5
v 1.5 0.6 1.5
v 1.3 0.6 1.3
v 1.5 0.6 1.3
v 1.2 0.6 1.2
v 1.6 0.6 1.2
v -1.7 0.7 -1.1
v -1.2 0.7 -1.1
v -1.2 0.7 -1.2
v -1 0.7 -1.2
v -1.8 0.7 -1.3
v -1.7 0.7 -1.3
v -1.3 0.7 -1.3
v -1.3 0.7 -1.4
v -1.1 0.7 -1.4
v -1.8 0.7 -1.7
v -1.7 0.7 -1.7
v -1.1 0.7 -1.7
v -1 0.7 -1.7
v 1.3 0.8 1.6
v 1.5 0.8 1.6
v 1.2 0.8 1.5
v 1.3 0.8 1.5
v 1.5 0.8 1.5
v 1.6 0.8 1.5
v 1.2 0.8 1.3
v 1.3 0.8 1.3
v 1.5 0.8 1.3
v 1.6 0.8 1.3
v 1.3 0.8 1.2
v 1.5 0.8 1.2
v -1.3 0.8 -1.7
v -1.2 0.8 -1.7
v -1.3 0.8 -1.8
v -1.2 0.8 -1.8
v -1.4 0.9 0.8
v -1.2 0.9 0.8
v -1.4 0.9 0.7
v -1.2 0.9 0.7
v 0.2 0.9 -1.1
v 0.5 0.9 -1.1
v 0.1 0.9 -1.2
v 0.2 0.9 -1.2
v 0.5 0.9 -1.2
v 0.6 0.9 -1.2
v -1.7 0.9 -1.3
v -1.3 0.9 -1.3
v -1.6 0.9 -1.4
v -1.4 0.9 -1.4
v -1.3 0.9 -1.4
v -1.1 0.9 -1.4
v -1.4 0.9 -1.5
v -1.2 0.9 -1.5
v 0.1 0.9 -1.5
v 0.2 0.9 -1.5
v 0.5 0.9 -1.5
v 0.6 0.9 -1.5
v 0.2 0.9 -1.6
v 0.5 0.9 -1.6
v -1.7 0.9 -1.7
v -1.6 0.9 -1.7
v -1.3 0.9 -1.7
v -1.2 0.9 -1.7
v -1.1 0.9 -1.7
v -1.6 0.9 -1.8
v -1.3 0.9 -1.8
v -1.4 1 -1.5
v -1.2 1 -1.5
v -1.4 1 -1.7
v -1.2 1 -1.7
v 0.2 1.1 -1.2
v 0.5 1.1 -1.2
v -1.6 1.1 -1.4
v -1.4 1.1 -1.4
v -1.6 1.1 -1.5
v -1.4 1.1 -1.5
v 0.2 1.1 -1.5
v 0.5 1.1 -1.5
v 1.2 1.2 1.7
v 1.6 1.2 1.7
v 1.1 1.2 1.6
v 1.2 1.2 1.6
v 1.6 1.2 1.6
v 1.7 1.2 1.6
v 1.1 1.2 1.2
v 1.2 1.2 1.2
v 1.6 1.2 1.2
v 1.7 1.2 1.2
v 1.2 1.2 1.1
v 1.6 1.2 1.1
v 0.9 1.2 -0.8
v 1.7 1.2 -0.8
v 0.8 1.2 -0.9
v 0.9 1.2 -0.9
v 1 1.2 -0.9
v 1.6 1.2 -0.9
v 1.7 1.2 -0.9
v 1.8 1.2 -0.9
v 0.9 1.2 -1
v 1 1.2 -1
v 1.6 1.2 -1
v 1.7 1.2 -1
v -1.6 1.2 -1.5
v -1.4 1.2 -1.5
v 0.9 1.2 -1.6
v 1 1.2 -1.6
v 1.6 1.2 -1.6
v 1.7 1.2 -1.6
v -1.6 1.2 -1.7
v -1.4 1.2 -1.7
v 0.8 1.2 -1.7
v 0.9 1.2 -1.7
v 1 1.2 -1.7
v 1.6 1.2 -1.7
v 1.7 1.2 -1.7
v 1.8 1.2 -1.7
v 0.9 1.2 -1.8
v 1.7 1.2 -1.8
v 1.2 1.3 1.6
v 1.6 1.3 1.6
v 1.3 1.3 1.5
v 1.5 1.3 1.5
v 1.3 1.3 1.3
v 1.5 1.3 1.3
v 1.2 1.3 1.2
v 1.6 1.3 1.2
v 1.3 1.4 1.5
v 1.5 1.4 1.5
v 1.3 1.4 1.3
v 1.5 1.4 1.3
v -1.1 1.5 1.9
v -1 1.5 1.9
v -0.9 1.5 1.9
v -0.8 1.5 1.9
v -1.8 1.5 1.8
v -1.7 1.5 1.8
v -1.4 1.5 1.8
v -1.2 1.5 1.8
v -1.1 1.5 1.8
v -1 1.5 1.8
v -0.9 1.5 1.8
v -0.8 1.5 1.8
v -1.7 1.5 1.6
v -1.4 1.5 1.6
v -1.2 1.5 1.6
v -0.9 1.5 1.6
v -1.8 1.5 0.8
v -0.8 1.5 0.8
v 1 1.5 -0.9
v 1.6 1.5 -0.9
v 0.9 1.5 -1
v 1 1.5 -1
v 1.1 1.5 -1
v 1.5 1.5 -1
v 1.6 1.5 -1
v 1.7 1.5 -1
v 1 1.5 -1.1
v 1.1 1.5 -1.1
v 1.5 1.5 -1.1
v 1.6 1.5 -1.1
v 1 1.5 -1.5
v 1.1 1.5 -1.5
v 1.5 1.5 -1.5
v 1.6 1.5 -1.5
v 0.9 1.5 -1.6
v 1 1.5 -1.6
v 1.1 1.5 -1.6
v 1.5 1.5 -1.6
v 1.6 1.5 -1.6
v 1.7 1.5 -1.6
v 1 1.5 -1.7
v 1.6 1.5 -1.7
v -1 1.6 1.9
v -0.9 1.6 1.9
v -1 1.6 1.8
v -0.9 1.6 1.8
v -1.7 1.8 1.8
v -1.4 1.8 1.8
v -1.2 1.8 1.8
v -0.9 1.8 1.8
v -1.7 1.8 1.6
v -1.4 1.8 1.6
v -1.2 1.8 1.6
v -0.9 1.8 1.6
v 1.1 1.8 -1
v 1.5 1.8 -1
v 1 1.8 -1.1
v 1.1 1.8 -1.1
v 1.5 1.8 -1.1
v 1.6 1.8 -1.1
v 1 1.8 -1.5
v 1.1 1.8 -1.5
v 1.5 1.8 -1.5
v 1.6 1.8 -1.5
v 1.1 1.8 -1.6
v 1.5 1.8 -1.6

# faces
f 7/2/1 2/2/1 1/2/1
f 8/2/1 2/2/1 7/2/1
f 9/2/1 4/2/1 3/2/1
f 10/2/1 4/2/1 9/2/1
f 11/2/1 6/2/1 5/2/1
f 12/2/1 6/2/1 11/2/1
f 25/2/1 14/2/1 13/2/1
f 26/2/1 14/2/1 25/2/1
f 27/2/1 16/2/1 15/2/1
f 28/2/1 16/2/1 27/2/1
f 29/2/1 18/2/1 17/2/1
f 30/2/1 18/2/1 29/2/1
f 31/2/1 20/2/1 19/2/1
f 32/2/1 20/2/1 31/2/1
f 33/2/1 22/2/1 21/2/1
f 34/2/1 22/2/1 33/2/1
f 37/2/1 24/2/1 23/2/1
f 38/2/1 24/2/1 37/2/1
f 41/10/1 36/10/1 35/10/1
f 42/10/1 36/10/1 41/10/1
f 43/1/1 40/1/1 39/1/1
f 44/1/1 40/1/1 43/1/1
f 45/7/1 44/7/1 43/7/1
f 46/1/1 40/1/1 44/1/1
f 46/7/1 44/7/1 45/7/1
f 47/1/1 46/1/1 45/1/1
f 48/1/1 40/1/1 46/1/1
f 48/1/1 46/1/1 47/1/1
f 55/1/1 50/1/1 49/1/1
f 56/1/1 50/1/1 55/1/1
f 57/1/1 52/1/1 51/1/1
f 58/1/1 52/1/1 57/1/1
f 59/10/1 54/10/1 53/10/1
f 60/10/1 54/10/1 59/10/1
f 62/10/1 61/10/1 60/10/1
f 63/10/1 61/10/1 62/10/1
f 66/1/1 65/1/1 64/1/1
f 67/1/1 65/1/1 66/1/1
f 71/10/1 69/10/1 68/10/1
f 72/10/1 69/10/1 71/10/1
f 73/10/1 71/10/1 70/10/1
f 74/10/1 71/10/1 73/10/1
f 75/10/1 71/10/1 74/10/1
f 76/10/1 71/10/1 75/10/1
f 79/1/1 78/1/1 77/1/1
f 80/1/1 78/1/1 79/1/1
f 83/1/1 82/1/1 81/1/1
f 84/1/1 82/1/1 83/1/1
f 89/1/1 86/1/1 85/1/1
f 90/1/1 86/1/1 89/1/1
f 91/1/1 88/1/1 87/1/1
f 92/1/1 88/1/1 91/1/1
f 95/7/1 94/7/1 93/7/1
f 96/7/1 94/7/1 95/7/1
f 99/7/1 98/7/1 97/7/1
f 100/7/1 98/7/1 99/7/1
f 103/7/1 102/7/1 101/7/1
f 104/7/1 102/7/1 103/7/1
f 111/2/1 106/2/1 105/2/1
f 112/2/1 106/2/1 111/2/1
f 113/2/1 108/2/1 107/2/1
f 114/2/1 108/2/1 113/2/1
f 115/2/1 110/2/1 109/2/1
f 116/2/1 110/2/1 115/2/1
f 129/2/1 118/2/1 117/2/1
f 130/2/1 118/2/1 129/2/1
f 131/2/1 120/2/1 119/2/1
f 132/2/1 120/2/1 131/2/1
f 133/2/1 122/2/1 121/2/1
f 134/2/1 122/2/1 133/2/1
f 135/2/1 124/2/1 123/2/1
f 136/2/1 124/2/1 135/2/1
f 137/2/1 126/2/1 125/2/1
f 138/2/1 126/2/1 137/2/1
f 139/2/1 128/2/1 127/2/1
f 140/2/1 128/2/1 139/2/1
f 143/7/1 142/7/1 141/7/1
f 144/7/1 142/7/1 143/7/1
f 148/4/1 146/4/1 145/4/1
f 149/4/1 146/4/1 148/4/1
f 151/7/1 148/7/1 147/7/1
f 152/7/1 148/7/1 151/7/1
f 153/7/1 150/7/1 149/7/1
f 154/7/1 150/7/1 153/7/1
f 155/7/1 153/7/1 152/7/1
f 156/7/1 153/7/1 155/7/1
f 163/2/1 158/2/1 157/2/1
f 164/2/1 158/2/1 163/2/1
f 165/2/1 160/2/1 159/2/1
f 166/2/1 160/2/1 165/2/1
f 167/2/1 162/2/1 161/2/1
f 168/2/1 162/2/1 167/2/1
f 181/2/1 170/2/1 169/2/1
f 182/2/1 170/2/1 181/2/1
f 183/2/1 172/2/1 171/2/1
f 184/2/1 172/2/1 183/2/1
f 185/2/1 174/2/1 173/2/1
f 186/2/1 174/2/1 185/2/1
f 187/2/1 176/2/1 175/2/1
f 188/2/1 176/2/1 187/2/1
f 189/2/1 178/2/1 177/2/1
f 190/2/1 178/2/1 189/2/1
f 191/2/1 180/2/1 179/2/1
f 192/2/1 180/2/1 191/2/1
f 195/7/1 194/7/1 193/7/1
f 196/7/1 194/7/1 195/7/1
f 201/7/1 198/7/1 197/7/1
f 202/7/1 198/7/1 201/7/1
f 205/7/1 200/7/1 199/7/1
f 206/7/1 200/7/1 205/7/1
f 207/7/1 204/7/1 203/7/1
f 208/7/1 204/7/1 207/7/1
f 213/7/1 210/7/1 209/7/1
f 214/7/1 210/7/1 213/7/1
f 217/7/1 212/7/1 211/7/1
f 218/7/1 212/7/1 217/7/1
f 219/7/1 216/7/1 215/7/1
f 220/7/1 216/7/1 219/7/1
f 223/4/1 222/4/1 221/4/1
f 224/4/1 222/4/1 223/4/1
f 227/10/1 226/10/1 225/10/1
f 228/10/1 226/10/1 227/10/1
f 233/7/1 230/7/1 229/7/1
f 234/7/1 230/7/1 233/7/1
f 235/7/1 232/7/1 231/7/1
f 236/7/1 232/7/1 235/7/1
f 239/10/1 238/10/1 237/10/1
f 240/10/1 238/10/1 239/10/1
f 243/10/1 242/10/1 241/10/1
f 244/10/1 242/10/1 243/10/1
f 245/10/1 243/10/1 241/10/1
f 246/10/1 242/10/1 244/10/1
f 248/10/1 245/10/1 241/10/1
f 248/10/1 246/10/1 245/10/1
f 249/10/1 242/10/1 246/10/1
f 249/10/1 246/10/1 248/10/1
f 251/10/1 248/10/1 247/10/1
f 252/10/1 248/10/1 251/10/1
f 253/10/1 250/10/1 249/10/1
f 254/10/1 250/10/1 253/10/1
f 255/10/1 253/10/1 252/10/1
f 256/10/1 253/10/1 255/10/1
f 259/10/1 258/10/1 257/10/1
f 260/10/1 258/10/1 259/10/1
f 263/6/1 262/6/1 261/6/1
f 264/6/1 262/6/1 263/6/1
f 267/10/1 266/10/1 265/10/1
f 268/10/1 266/10/1 267/10/1
f 273/10/1 270/10/1 269/10/1
f 274/10/1 270/10/1 273/10/1
f 275/10/1 272/10/1 271/10/1
f 276/10/1 272/10/1 275/10/1
f 277/1/2 278/1/2 281/1/2
f 281/1/2 278/1/2 282/1/2
f 279/1/2 280/1/2 283/1/2
f 283/1/2 280/1/2 284/1/2
f 285/10/2 286/10/2 287/10/2
f 285/10/2 287/10/2 289/10/2
f 287/10/2 288/10/2 289/10/2
f 289/10/2 288/10/2 290/10/2
f 290/10/2 288/10/2 291/10/2
f 291/10/2 288/10/2 292/10/2
f 293/1/2 294/1/2 295/1/2
f 295/1/2 294/1/2 296/1/2
f 297/10/2 298/10/2 301/10/2
f 301/10/2 298/10/2 302/10/2
f 299/10/2 300/10/2 303/10/2
f 303/10/2 300/10/2 304/10/2
f 305/10/2 306/10/2 311/10/2
f 311/10/2 306/10/2 312/10/2
f 307/10/2 308/10/2 313/10/2
f 313/10/2 308/10/2 314/10/2
f 309/1/2 310/1/2 315/1/2
f 315/1/2 310/1/2 316/1/2
f 317/10/2 318/10/2 319/10/2
f 319/10/2 318/10/2 320/10/2
f 321/10/2 322/10/2 323/10/2
f 323/10/2 322/10/2 324/10/2
f 325/10/2 326/10/2 327/10/2
f 327/10/2 326/10/2 328/10/2
f 329/1/2 330/1/2 333/1/2
f 333/1/2 330/1/2 334/1/2
f 331/1/2 332/1/2 335/1/2
f 335/1/2 332/1/2 336/1/2
f 337/7/2 338/7/2 339/7/2
f 339/7/2 338/7/2 340/7/2
f 341/7/2 342/7/2 344/7/2
f 342/1/2 343/1/2 345/1/2
f 344/7/2 342/7/2 345/7/2
f 345/1/2 343/1/2 346/1/2
f 346/1/2 343/1/2 347/1/2
f 348/2/2 349/2/2 360/2/2
f 360/2/2 349/2/2 361/2/2
f 350/2/2 351/2/2 362/2/2
f 362/2/2 351/2/2 363/2/2
f 352/2/2 353/2/2 364/2/2
f 364/2/2 353/2/2 365/2/2
f 354/2/2 355/2/2 366/2/2
f 366/2/2 355/2/2 367/2/2
f 356/2/2 357/2/2 368/2/2
f 368/2/2 357/2/2 369/2/2
f 358/2/2 359/2/2 370/2/2
f 370/2/2 359/2/2 371/2/2
f 372/1/2 373/1/2 374/1/2
f 374/1/2 373/1/2 375/1/2
f 374/7/2 375/7/2 376/7/2
f 375/1/2 373/1/2 377/1/2
f 376/7/2 375/7/2 377/7/2
f 376/1/2 377/1/2 379/1/2
f 378/7/2 379/7/2 380/7/2
f 379/1/2 377/1/2 381/1/2
f 380/7/2 379/7/2 381/7/2
f 377/1/2 373/1/2 382/1/2
f 381/1/2 377/1/2 382/1/2
f 383/2/2 384/2/2 389/2/2
f 389/2/2 384/2/2 390/2/2
f 385/2/2 386/2/2 391/2/2
f 391/2/2 386/2/2 392/2/2
f 387/2/2 388/2/2 393/2/2
f 393/2/2 388/2/2 394/2/2
f 395/2/2 396/2/2 407/2/2
f 407/2/2 396/2/2 408/2/2
f 397/2/2 398/2/2 409/2/2
f 409/2/2 398/2/2 410/2/2
f 399/2/2 400/2/2 411/2/2
f 411/2/2 400/2/2 412/2/2
f 401/2/2 402/2/2 413/2/2
f 413/2/2 402/2/2 414/2/2
f 403/2/2 404/2/2 415/2/2
f 415/2/2 404/2/2 416/2/2
f 405/2/2 406/2/2 419/2/2
f 419/2/2 406/2/2 420/2/2
f 417/4/2 418/4/2 422/4/2
f 422/4/2 418/4/2 423/4/2
f 421/7/2 422/7/2 425/7/2
f 425/7/2 422/7/2 426/7/2
f 423/7/2 424/7/2 427/7/2
f 427/7/2 424/7/2 428/7/2
f 426/7/2 427/7/2 429/7/2
f 429/7/2 427/7/2 430/7/2
f 431/2/2 432/2/2 437/2/2
f 437/2/2 432/2/2 438/2/2
f 433/2/2 434/2/2 439/2/2
f 439/2/2 434/2/2 440/2/2
f 435/2/2 436/2/2 441/2/2
f 441/2/2 436/2/2 442/2/2
f 443/7/2 444/7/2 445/7/2
f 445/7/2 444/7/2 446/7/2
f 447/10/2 448/10/2 451/10/2
f 451/10/2 448/10/2 452/10/2
f 449/10/2 450/10/2 453/10/2
f 453/10/2 450/10/2 454/10/2
f 457/10/2 458/10/2 459/10/2
f 459/10/2 458/10/2 460/10/2
f 455/4/2 456/4/2 463/4/2
f 463/4/2 456/4/2 464/4/2
f 461/6/2 462/6/2 465/6/2
f 465/6/2 462/6/2 466/6/2
f 467/10/2 468/10/2 469/10/2
f 469/10/2 468/10/2 470/10/2
f 471/7/2 472/7/2 475/7/2
f 475/7/2 472/7/2 476/7/2
f 473/7/2 474/7/2 477/7/2
f 477/7/2 474/7/2 478/7/2
f 479/10/2 480/10/2 481/10/2
f 481/10/2 480/10/2 482/10/2
f 483/10/2 484/10/2 485/10/2
f 485/10/2 484/10/2 486/10/2
f 483/10/2 485/10/2 487/10/2
f 486/10/2 484/10/2 488/10/2
f 483/10/2 487/10/2 490/10/2
f 487/10/2 488/10/2 490/10/2
f 488/10/2 484/10/2 491/10/2
f 490/10/2 488/10/2 491/10/2
f 489/10/2 490/10/2 493/10/2
f 493/10/2 490/10/2 494/10/2
f 491/10/2 492/10/2 495/10/2
f 495/10/2 492/10/2 496/10/2
f 494/10/2 495/10/2 501/10/2
f 501/10/2 495/10/2 502/10/2
f 497/7/2 498/7/2 503/7/2
f 503/7/2 498/7/2 504/7/2
f 499/7/2 500/7/2 507/7/2
f 507/7/2 500/7/2 508/7/2
f 505/7/2 506/7/2 509/7/2
f 509/7/2 506/7/2 510/7/2
f 515/10/2 516/10/2 517/10/2
f 517/10/2 516/10/2 518/10/2
f 511/7/2 512/7/2 519/7/2
f 519/7/2 512/7/2 520/7/2
f 513/7/2 514/7/2 523/7/2
f 523/7/2 514/7/2 524/7/2
f 521/7/2 522/7/2 525/7/2
f 525/7/2 522/7/2 526/7/2
f 527/2/2 528/2/2 539/2/2
f 539/2/2 528/2/2 540/2/2
f 529/2/2 530/2/2 541/2/2
f 541/2/2 530/2/2 542/2/2
f 531/2/2 532/2/2 543/2/2
f 543/2/2 532/2/2 544/2/2
f 533/2/2 534/2/2 545/2/2
f 545/2/2 534/2/2 546/2/2
f 535/2/2 536/2/2 547/2/2
f 547/2/2 536/2/2 548/2/2
f 537/2/2 538/2/2 549/2/2
f 549/2/2 538/2/2 550/2/2
f 551/7/2 552/7/2 553/7/2
f 553/7/2 552/7/2 554/7/2
f 555/2/2 556/2/2 561/2/2
f 561/2/2 556/2/2 562/2/2
f 557/2/2 558/2/2 563/2/2
f 563/2/2 558/2/2 564/2/2
f 559/2/2 560/2/2 565/2/2
f 565/2/2 560/2/2 566/2/2
f 572/7/3 570/7/3 569/7/3
f 573/7/3 570/7/3 572/7/3
f 575/7/3 572/7/3 571/7/3
f 576/6/3 573/6/3 572/6/3
f 576/7/3 572/7/3 575/7/3
f 577/7/3 574/7/3 573/7/3
f 577/6/3 573/6/3 576/6/3
f 578/7/3 574/7/3 577/7/3
f 579/2/3 568/2/3 567/2/3
f 580/2/3 568/2/3 579/2/3
f 581/7/3 577/7/3 576/7/3
f 582/7/3 577/7/3 581/7/3
f 585/2/3 584/2/3 583/2/3
f 586/2/3 584/2/3 585/2/3
f 589/2/3 588/2/3 587/2/3
f 590/2/3 588/2/3 589/2/3
f 593/2/3 592/2/3 591/2/3
f 594/2/3 592/2/3 593/2/3
f 599/1/3 598/1/3 597/1/3
f 601/7/3 597/7/3 596/7/3
f 601/1/3 596/1/3 595/1/3
f 602/1/3 600/1/3 599/1/3
f 602/7/3 597/7/3 601/7/3
f 602/1/3 599/1/3 597/1/3
f 603/1/3 600/1/3 602/1/3
f 604/1/3 600/1/3 603/1/3
f 605/1/3 600/1/3 604/1/3
f 606/1/3 600/1/3 605/1/3
f 607/1/3 602/1/3 601/1/3
f 607/1/3 603/1/3 602/1/3
f 607/11/3 604/11/3 603/11/3
f 608/1/3 605/1/3 604/1/3
f 608/11/3 604/11/3 607/11/3
f 609/7/3 606/7/3 605/7/3
f 609/1/3 605/1/3 608/1/3
f 610/1/3 600/1/3 606/1/3
f 610/7/3 606/7/3 609/7/3
f 611/1/3 609/1/3 608/1/3
f 611/1/3 608/1/3 607/1/3
f 611/1/3 610/1/3 609/1/3
f 611/1/3 607/1/3 601/1/3
f 612/1/3 610/1/3 611/1/3
f 613/1/3 610/1/3 612/1/3
f 614/1/3 600/1/3 610/1/3
f 614/1/3 610/1/3 613/1/3
f 615/1/3 611/1/3 601/1/3
f 615/11/3 612/11/3 611/11/3
f 616/1/3 613/1/3 612/1/3
f 616/11/3 612/11/3 615/11/3
f 617/1/3 613/1/3 616/1/3
f 619/1/3 616/1/3 615/1/3
f 619/1/3 618/1/3 617/1/3
f 619/1/3 617/1/3 616/1/3
f 620/1/3 618/1/3 619/1/3
f 621/1/3 618/1/3 620/1/3
f 622/1/3 618/1/3 621/1/3
f 623/1/3 618/1/3 622/1/3
f 624/1/3 601/1/3 595/1/3
f 624/1/3 615/1/3 601/1/3
f 624/1/3 619/1/3 615/1/3
f 625/1/3 619/1/3 624/1/3
f 626/11/3 620/11/3 619/11/3
f 626/1/3 619/1/3 625/1/3
f 627/1/3 621/1/3 620/1/3
f 627/11/3 620/11/3 626/11/3
f 628/1/3 621/1/3 627/1/3
f 629/1/3 621/1/3 628/1/3
f 630/7/3 623/7/3 622/7/3
f 631/7/3 623/7/3 630/7/3
f 632/1/3 618/1/3 623/1/3
f 632/7/3 623/7/3 631/7/3
f 633/1/3 626/1/3 625/1/3
f 633/1/3 627/1/3 626/1/3
f 633/1/3 628/1/3 627/1/3
f 635/1/3 632/1/3 631/1/3
f 636/1/3 618/1/3 632/1/3
f 636/1/3 632/1/3 635/1/3
f 639/1/3 624/1/3 595/1/3
f 640/7/3 625/7/3 624/7/3
f 640/1/3 624/1/3 639/1/3
f 641/1/3 634/1/3 633/1/3
f 641/7/3 625/7/3 640/7/3
f 641/1/3 633/1/3 625/1/3
f 642/1/3 634/1/3 641/1/3
f 643/2/3 638/2/3 637/2/3
f 644/2/3 638/2/3 643/2/3
f 647/2/3 646/2/3 645/2/3
f 648/2/3 646/2/3 647/2/3
f 651/2/3 650/2/3 649/2/3
f 652/2/3 650/2/3 651/2/3
f 655/2/3 654/2/3 653/2/3
f 656/2/3 654/2/3 655/2/3
f 659/2/3 658/2/3 657/2/3
f 660/2/3 658/2/3 659/2/3
f 663/1/3 662/1/3 661/1/3
f 664/1/3 662/1/3 663/1/3
f 667/1/3 666/1/3 665/1/3
f 668/1/3 666/1/3 667/1/3
f 671/10/3 670/10/3 669/10/3
f 672/10/3 670/10/3 671/10/3
f 678/10/3 674/10/3 673/10/3
f 679/10/3 674/10/3 678/10/3
f 681/10/3 678/10/3 677/10/3
f 682/10/3 678/10/3 681/10/3
f 683/10/3 681/10/3 677/10/3
f 684/10/3 678/10/3 682/10/3
f 685/10/3 676/10/3 675/10/3
f 686/10/3 676/10/3 685/10/3
f 687/10/3 684/10/3 683/10/3
f 687/10/3 683/10/3 677/10/3
f 688/10/3 678/10/3 684/10/3
f 688/10/3 684/10/3 687/10/3
f 689/10/3 680/10/3 679/10/3
f 690/10/3 680/10/3 689/10/3
f 691/10/3 689/10/3 688/10/3
f 692/10/3 689/10/3 691/10/3
f 699/10/3 694/10/3 693/10/3
f 700/10/3 694/10/3 699/10/3
f 701/6/3 696/6/3 695/6/3
f 702/6/3 696/6/3 701/6/3
f 703/10/3 698/10/3 697/10/3
f 704/10/3 698/10/3 703/10/3
f 707/10/3 706/10/3 705/10/3
f 708/10/3 706/10/3 707/10/3
f 711/10/3 710/10/3 709/10/3
f 712/10/3 710/10/3 711/10/3
f 715/1/3 714/1/3 713/1/3
f 716/1/3 714/1/3 715/1/3
f 719/1/3 718/1/3 717/1/3
f 720/1/3 718/1/3 719/1/3
f 723/2/3 722/2/3 721/2/3
f 724/2/3 722/2/3 723/2/3
f 727/2/3 726/2/3 725/2/3
f 728/2/3 726/2/3 727/2/3
f 731/2/3 730/2/3 729/2/3
f 732/2/3 730/2/3 731/2/3
f 735/2/3 734/2/3 733/2/3
f 736/2/3 734/2/3 735/2/3
f 739/2/3 738/2/3 737/2/3
f 740/2/3 738/2/3 739/2/3
f 743/2/3 742/2/3 741/2/3
f 744/2/3 742/2/3 743/2/3
f 747/2/3 746/2/3 745/2/3
f 748/2/3 746/2/3 747/2/3
f 751/2/3 750/2/3 749/2/3
f 752/2/3 750/2/3 751/2/3
f 755/2/3 754/2/3 753/2/3
f 756/2/3 754/2/3 755/2/3
f 759/2/3 758/2/3 757/2/3
f 760/2/3 758/2/3 759/2/3
f 763/2/3 762/2/3 761/2/3
f 764/2/3 762/2/3 763/2/3
f 767/2/3 766/2/3 765/2/3
f 768/2/3 766/2/3 767/2/3
f 771/2/3 770/2/3 769/2/3
f 772/2/3 770/2/3 771/2/3
f 775/2/3 774/2/3 773/2/3
f 776/2/3 774/2/3 775/2/3
f 779/2/3 778/2/3 777/2/3
f 780/2/3 778/2/3 779/2/3
f 783/2/3 782/2/3 781/2/3
f 784/2/3 782/2/3 783/2/3
f 787/2/3 786/2/3 785/2/3
f 788/2/3 786/2/3 787/2/3
f 791/7/3 790/7/3 789/7/3
f 792/7/3 790/7/3 791/7/3
f 795/2/3 794/2/3 793/2/3
f 796/2/3 794/2/3 795/2/3
f 799/7/3 798/7/3 797/7/3
f 800/7/3 798/7/3 799/7/3
f 803/7/3 802/7/3 801/7/3
f 804/7/3 802/7/3 803/7/3
f 807/7/3 806/7/3 805/7/3
f 808/7/3 806/7/3 807/7/3
f 811/7/3 810/7/3 809/7/3
f 812/7/3 810/7/3 811/7/3
f 815/7/3 814/7/3 813/7/3
f 816/7/3 814/7/3 815/7/3
f 819/7/3 818/7/3 817/7/3
f 820/7/3 818/7/3 819/7/3
f 823/10/3 822/10/3 821/10/3
f 824/10/3 822/10/3 823/10/3
f 827/7/3 826/7/3 825/7/3
f 828/7/3 826/7/3 827/7/3
f 833/7/3 830/7/3 829/7/3
f 834/7/3 830/7/3 833/7/3
f 835/4/3 832/4/3 831/4/3
f 836/4/3 832/4/3 835/4/3
f 839/7/3 838/7/3 837/7/3
f 840/7/3 838/7/3 839/7/3
f 843/10/3 842/10/3 841/10/3
f 844/10/3 842/10/3 843/10/3
f 848/7/3 846/7/3 845/7/3
f 849/7/3 846/7/3 848/7/3
f 851/4/3 848/4/3 847/4/3
f 852/4/3 848/4/3 851/4/3
f 853/7/3 850/7/3 849/7/3
f 854/7/3 850/7/3 853/7/3
f 855/7/3 853/7/3 852/7/3
f 856/7/3 853/7/3 855/7/3
f 859/10/3 858/10/3 857/10/3
f 860/10/3 858/10/3 859/10/3
f 862/10/3 861/10/3 860/10/3
f 863/10/3 861/10/3 862/10/3
f 866/10/3 865/10/3 864/10/3
f 867/10/3 865/10/3 866/10/3
f 870/10/3 869/10/3 868/10/3
f 871/10/3 869/10/3 870/10/3
f 876/10/3 873/10/3 872/10/3
f 877/10/3 873/10/3 876/10/3
f 878/10/3 875/10/3 874/10/3
f 879/10/3 875/10/3 878/10/3
f 880/1/4 881/1/4 882/1/4
f 882/1/4 881/1/4 883/1/4
f 884/1/4 885/1/4 886/1/4
f 886/1/4 885/1/4 887/1/4
f 888/10/4 889/10/4 890/10/4
f 890/10/4 889/10/4 891/10/4
f 892/10/4 893/10/4 894/10/4
f 894/10/4 893/10/4 895/10/4
f 896/1/4 897/1/4 898/1/4
f 898/1/4 897/1/4 899/1/4
f 900/1/4 901/1/4 902/1/4
f 902/1/4 901/1/4 903/1/4
f 904/10/4 905/10/4 910/10/4
f 910/10/4 905/10/4 911/10/4
f 906/6/4 907/6/4 912/6/4
f 912/6/4 907/6/4 913/6/4
f 908/10/4 909/10/4 914/10/4
f 914/10/4 909/10/4 915/10/4
f 916/10/4 917/10/4 921/10/4
f 921/10/4 917/10/4 922/10/4
f 920/10/4 921/10/4 924/10/4
f 924/10/4 921/10/4 925/10/4
f 920/10/4 924/10/4 926/10/4
f 925/10/4 921/10/4 927/10/4
f 918/10/4 919/10/4 928/10/4
f 928/10/4 919/10/4 929/10/4
f 926/10/4 927/10/4 930/10/4
f 920/10/4 926/10/4 930/10/4
f 927/10/4 921/10/4 931/10/4
f 930/10/4 927/10/4 931/10/4
f 922/10/4 923/10/4 932/10/4
f 932/10/4 923/10/4 933/10/4
f 931/10/4 932/10/4 934/10/4
f 934/10/4 932/10/4 935/10/4
f 936/10/4 937/10/4 938/10/4
f 938/10/4 937/10/4 939/10/4
f 940/1/4 941/1/4 942/1/4
f 942/1/4 941/1/4 943/1/4
f 944/1/4 945/1/4 946/1/4
f 946/1/4 945/1/4 947/1/4
f 948/2/4 949/2/4 950/2/4
f 950/2/4 949/2/4 951/2/4
f 952/1/4 953/1/4 954/1/4
f 954/1/4 953/1/4 955/1/4
f 952/1/4 954/1/4 956/1/4
f 955/1/4 953/1/4 957/1/4
f 952/1/4 956/1/4 960/1/4
f 956/1/4 957/1/4 960/1/4
f 957/1/4 953/1/4 961/1/4
f 960/1/4 957/1/4 961/1/4
f 958/2/4 959/2/4 962/2/4
f 962/2/4 959/2/4 963/2/4
f 964/2/4 965/2/4 966/2/4
f 966/2/4 965/2/4 967/2/4
f 968/2/4 969/2/4 970/2/4
f 970/2/4 969/2/4 971/2/4
f 972/2/4 973/2/4 974/2/4
f 974/2/4 973/2/4 975/2/4
f 976/2/4 977/2/4 978/2/4
f 978/2/4 977/2/4 979/2/4
f 982/1/4 983/1/4 984/1/4
f 984/1/4 983/1/4 985/1/4
f 980/2/4 981/2/4 986/2/4
f 986/2/4 981/2/4 987/2/4
f 988/2/4 989/2/4 990/2/4
f 990/2/4 989/2/4 991/2/4
f 992/2/4 993/2/4 994/2/4
f 994/2/4 993/2/4 995/2/4
f 996/2/4 997/2/4 998/2/4
f 998/2/4 997/2/4 999/2/4
f 1000/2/4 1001/2/4 1002/2/4
f 1002/2/4 1001/2/4 1003/2/4
f 1004/2/4 1005/2/4 1006/2/4
f 1006/2/4 1005/2/4 1007/2/4
f 1008/2/4 1009/2/4 1010/2/4
f 1010/2/4 1009/2/4 1011/2/4
f 1012/2/4 1013/2/4 1014/2/4
f 1014/2/4 1013/2/4 1015/2/4
f 1016/2/4 1017/2/4 1018/2/4
f 1018/2/4 1017/2/4 1019/2/4
f 1020/2/4 1021/2/4 1022/2/4
f 1022/2/4 1021/2/4 1023/2/4
f 1024/2/4 1025/2/4 1026/2/4
f 1026/2/4 1025/2/4 1027/2/4
f 1028/2/4 1029/2/4 1030/2/4
f 1030/2/4 1029/2/4 1031/2/4
f 1032/7/4 1033/7/4 1035/7/4
f 1035/7/4 1033/7/4 1036/7/4
f 1034/4/4 1035/4/4 1038/4/4
f 1038/4/4 1035/4/4 1039/4/4
f 1036/7/4 1037/7/4 1040/7/4
f 1040/7/4 1037/7/4 1041/7/4
f 1039/7/4 1040/7/4 1042/7/4
f 1042/7/4 1040/7/4 1043/7/4
f 1044/7/4 1045/7/4 1048/7/4
f 1048/7/4 1045/7/4 1049/7/4
f 1046/4/4 1047/4/4 1050/4/4
f 1050/4/4 1047/4/4 1051/4/4
f 1052/7/4 1053/7/4 1054/7/4
f 1054/7/4 1053/7/4 1055/7/4
f 1056/7/4 1057/7/4 1058/7/4
f 1058/7/4 1057/7/4 1059/7/4
f 1060/7/4 1061/7/4 1062/7/4
f 1062/7/4 1061/7/4 1063/7/4
f 1064/7/4 1065/7/4 1066/7/4
f 1066/7/4 1065/7/4 1067/7/4
f 1068/7/4 1069/7/4 1070/7/4
f 1070/7/4 1069/7/4 1071/7/4
f 1072/10/4 1073/10/4 1074/10/4
f 1072/10/4 1074/10/4 1076/10/4
f 1074/10/4 1075/10/4 1076/10/4
f 1076/10/4 1075/10/4 1077/10/4
f 1077/10/4 1078/10/4 1079/10/4
f 1079/10/4 1078/10/4 1080/10/4
f 1077/10/4 1079/10/4 1082/10/4
f 1081/10/4 1082/10/4 1084/10/4
f 1082/10/4 1079/10/4 1085/10/4
f 1084/10/4 1082/10/4 1085/10/4
f 1085/10/4 1079/10/4 1086/10/4
f 1083/10/4 1084/10/4 1087/10/4
f 1084/10/4 1085/10/4 1087/10/4
f 1087/10/4 1085/10/4 1088/10/4
f 1083/10/4 1087/10/4 1089/10/4
f 1089/10/4 1087/10/4 1090/10/4
f 1091/7/4 1092/7/4 1093/7/4
f 1093/7/4 1092/7/4 1094/7/4
f 1095/7/4 1096/7/4 1097/7/4
f 1097/7/4 1096/7/4 1098/7/4
f 1099/7/4 1100/7/4 1101/7/4
f 1101/7/4 1100/7/4 1102/7/4
f 1103/2/4 1104/2/4 1105/2/4
f 1105/2/4 1104/2/4 1106/2/4
f 1107/10/4 1108/10/4 1109/10/4
f 1109/10/4 1108/10/4 1110/10/4
f 1107/10/4 1109/10/4 1111/10/4
f 1111/10/4 1109/10/4 1112/10/4
f 1113/2/4 1114/2/4 1115/2/4
f 1115/2/4 1114/2/4 1116/2/4
f 1117/2/4 1118/2/4 1119/2/4
f 1119/2/4 1118/2/4 1120/2/4
f 1121/2/4 1122/2/4 1123/2/4
f 1123/2/4 1122/2/4 1124/2/4
f 1125/2/4 1126/2/4 1127/2/4
f 1127/2/4 1126/2/4 1128/2/4
f 1129/7/4 1130/7/4 1131/7/4
f 1131/7/4 1130/7/4 1132/7/4
f 1133/2/4 1134/2/4 1135/2/4
f 1135/2/4 1134/2/4 1136/2/4
f 1137/2/4 1138/2/4 1139/2/4
f 1139/2/4 1138/2/4 1140/2/4
f 1141/2/4 1142/2/4 1143/2/4
f 1143/2/4 1142/2/4 1144/2/4
f 1145/2/4 1146/2/4 1147/2/4
f 1147/2/4 1146/2/4 1148/2/4
f 1156/2/5 1150/2/5 1149/2/5
f 1157/2/5 1150/2/5 1156/2/5
f 1160/2/5 1152/2/5 1151/2/5
f 1161/2/5 1152/2/5 1160/2/5
f 1164/2/5 1154/2/5 1153/2/5
f 1165/2/5 1154/2/5 1164/2/5
f 1167/2/5 1164/2/5 1163/2/5
f 1167/2/5 1166/2/5 1165/2/5
f 1167/2/5 1165/2/5 1164/2/5
f 1168/2/5 1166/2/5 1167/2/5
f 1169/2/5 1167/2/5 1163/2/5
f 1169/7/5 1168/7/5 1167/7/5
f 1170/2/5 1166/2/5 1168/2/5
f 1170/7/5 1168/7/5 1169/7/5
f 1171/2/5 1158/2/5 1157/2/5
f 1171/2/5 1156/2/5 1155/2/5
f 1171/2/5 1157/2/5 1156/2/5
f 1172/2/5 1158/2/5 1171/2/5
f 1173/2/5 1158/2/5 1172/2/5
f 1174/2/5 1158/2/5 1173/2/5
f 1175/2/5 1162/2/5 1161/2/5
f 1175/2/5 1160/2/5 1159/2/5
f 1175/2/5 1161/2/5 1160/2/5
f 1176/2/5 1162/2/5 1175/2/5
f 1177/2/5 1162/2/5 1176/2/5
f 1178/2/5 1162/2/5 1177/2/5
f 1179/2/5 1170/2/5 1169/2/5
f 1179/2/5 1169/2/5 1163/2/5
f 1180/2/5 1170/2/5 1179/2/5
f 1181/2/5 1166/2/5 1170/2/5
f 1181/2/5 1170/2/5 1180/2/5
f 1182/2/5 1166/2/5 1181/2/5
f 1183/2/5 1173/2/5 1172/2/5
f 1184/2/5 1173/2/5 1183/2/5
f 1185/2/5 1177/2/5 1176/2/5
f 1186/2/5 1177/2/5 1185/2/5
f 1187/2/5 1181/2/5 1180/2/5
f 1188/2/5 1181/2/5 1187/2/5
f 1196/2/5 1190/2/5 1189/2/5
f 1197/2/5 1190/2/5 1196/2/5
f 1200/2/5 1192/2/5 1191/2/5
f 1201/2/5 1192/2/5 1200/2/5
f 1204/2/5 1194/2/5 1193/2/5
f 1205/2/5 1194/2/5 1204/2/5
f 1207/2/5 1198/2/5 1197/2/5
f 1207/2/5 1196/2/5 1195/2/5
f 1207/2/5 1197/2/5 1196/2/5
f 1208/2/5 1198/2/5 1207/2/5
f 1209/2/5 1198/2/5 1208/2/5
f 1210/2/5 1198/2/5 1209/2/5
f 1211/2/5 1202/2/5 1201/2/5
f 1211/2/5 1200/2/5 1199/2/5
f 1211/2/5 1201/2/5 1200/2/5
f 1212/2/5 1202/2/5 1211/2/5
f 1213/2/5 1202/2/5 1212/2/5
f 1214/2/5 1202/2/5 1213/2/5
f 1215/2/5 1205/2/5 1204/2/5
f 1215/2/5 1206/2/5 1205/2/5
f 1215/2/5 1204/2/5 1203/2/5
f 1216/2/5 1206/2/5 1215/2/5
f 1217/2/5 1206/2/5 1216/2/5
f 1218/2/5 1206/2/5 1217/2/5
f 1219/2/5 1209/2/5 1208/2/5
f 1220/2/5 1209/2/5 1219/2/5
f 1221/2/5 1213/2/5 1212/2/5
f 1222/2/5 1213/2/5 1221/2/5
f 1223/2/5 1217/2/5 1216/2/5
f 1224/2/5 1217/2/5 1223/2/5
f 1232/2/5 1226/2/5 1225/2/5
f 1233/2/5 1226/2/5 1232/2/5
f 1236/2/5 1228/2/5 1227/2/5
f 1237/2/5 1228/2/5 1236/2/5
f 1240/2/5 1230/2/5 1229/2/5
f 1241/2/5 1230/2/5 1240/2/5
f 1243/2/5 1234/2/5 1233/2/5
f 1243/2/5 1232/2/5 1231/2/5
f 1243/2/5 1233/2/5 1232/2/5
f 1244/2/5 1234/2/5 1243/2/5
f 1245/2/5 1234/2/5 1244/2/5
f 1246/2/5 1234/2/5 1245/2/5
f 1247/2/5 1238/2/5 1237/2/5
f 1247/2/5 1236/2/5 1235/2/5
f 1247/2/5 1237/2/5 1236/2/5
f 1248/2/5 1238/2/5 1247/2/5
f 1249/2/5 1238/2/5 1248/2/5
f 1250/2/5 1238/2/5 1249/2/5
f 1251/2/5 1241/2/5 1240/2/5
f 1251/2/5 1242/2/5 1241/2/5
f 1251/2/5 1240/2/5 1239/2/5
f 1252/2/5 1242/2/5 1251/2/5
f 1253/2/5 1242/2/5 1252/2/5
f 1254/2/5 1242/2/5 1253/2/5
f 1255/2/5 1245/2/5 1244/2/5
f 1256/2/5 1245/2/5 1255/2/5
f 1257/2/5 1249/2/5 1248/2/5
f 1258/2/5 1249/2/5 1257/2/5
f 1259/2/5 1253/2/5 1252/2/5
f 1260/2/5 1253/2/5 1259/2/5
f 1263/1/5 1262/1/5 1261/1/5
f 1264/1/5 1262/1/5 1263/1/5
f 1265/1/5 1262/1/5 1264/1/5
f 1266/1/5 1262/1/5 1265/1/5
f 1267/1/5 1263/1/5 1261/1/5
f 1268/1/5 1265/1/5 1264/1/5
f 1269/1/5 1265/1/5 1268/1/5
f 1270/1/5 1262/1/5 1266/1/5
f 1271/1/5 1269/1/5 1268/1/5
f 1271/1/5 1270/1/5 1269/1/5
f 1271/1/5 1267/1/5 1261/1/5
f 1271/1/5 1268/1/5 1267/1/5
f 1272/1/5 1270/1/5 1271/1/5
f 1273/1/5 1270/1/5 1272/1/5
f 1274/1/5 1262/1/5 1270/1/5
f 1274/1/5 1270/1/5 1273/1/5
f 1275/1/5 1271/1/5 1261/1/5
f 1276/1/5 1273/1/5 1272/1/5
f 1277/1/5 1273/1/5 1276/1/5
f 1278/1/5 1262/1/5 1274/1/5
f 1279/1/5 1275/1/5 1261/1/5
f 1279/1/5 1278/1/5 1277/1/5
f 1279/1/5 1277/1/5 1276/1/5
f 1279/1/5 1276/1/5 1275/1/5
f 1280/1/5 1262/1/5 1278/1/5
f 1280/1/5 1278/1/5 1279/1/5
f 1284/7/5 1282/7/5 1281/7/5
f 1285/7/5 1282/7/5 1284/7/5
f 1287/7/5 1284/7/5 1283/7/5
f 1288/7/5 1284/7/5 1287/7/5
f 1289/7/5 1286/7/5 1285/7/5
f 1290/7/5 1286/7/5 1289/7/5
f 1291/7/5 1289/7/5 1288/7/5
f 1292/7/5 1289/7/5 1291/7/5
f 1295/10/5 1294/10/5 1293/10/5
f 1296/10/5 1294/10/5 1295/10/5
f 1297/10/5 1295/10/5 1293/10/5
f 1298/10/5 1294/10/5 1296/10/5
f 1299/10/5 1297/10/5 1293/10/5
f 1299/10/5 1298/10/5 1297/10/5
f 1300/10/5 1294/10/5 1298/10/5
f 1300/10/5 1298/10/5 1299/10/5
f 1303/1/5 1302/1/5 1301/1/5
f 1304/1/5 1302/1/5 1303/1/5
f 1308/7/5 1306/7/5 1305/7/5
f 1309/7/5 1306/7/5 1308/7/5
f 1311/7/5 1308/7/5 1307/7/5
f 1311/7/5 1310/7/5 1309/7/5
f 1311/7/5 1309/7/5 1308/7/5
f 1312/7/5 1310/7/5 1311/7/5
f 1313/7/5 1311/7/5 1307/7/5
f 1314/7/5 1310/7/5 1312/7/5
f 1315/7/5 1313/7/5 1307/7/5
f 1315/7/5 1314/7/5 1313/7/5
f 1316/7/5 1314/7/5 1315/7/5
f 1317/7/5 1310/7/5 1314/7/5
f 1317/7/5 1314/7/5 1316/7/5
f 1318/7/5 1310/7/5 1317/7/5
f 1319/7/5 1317/7/5 1316/7/5
f 1320/7/5 1317/7/5 1319/7/5
f 1324/10/5 1322/10/5 1321/10/5
f 1325/10/5 1322/10/5 1324/10/5
f 1327/10/5 1324/10/5 1323/10/5
f 1328/10/5 1324/10/5 1327/10/5
f 1329/10/5 1326/10/5 1325/10/5
f 1330/10/5 1326/10/5 1329/10/5
f 1331/10/5 1329/10/5 1328/10/5
f 1332/10/5 1329/10/5 1331/10/5
f 1336/10/5 1334/10/5 1333/10/5
f 1337/10/5 1334/10/5 1336/10/5
f 1339/10/5 1336/10/5 1335/10/5
f 1340/10/5 1336/10/5 1339/10/5
f 1341/10/5 1338/10/5 1337/10/5
f 1342/10/5 1338/10/5 1341/10/5
f 1343/10/5 1341/10/5 1340/10/5
f 1344/10/5 1341/10/5 1343/10/5
f 1347/7/5 1346/7/5 1345/7/5
f 1348/7/5 1346/7/5 1347/7/5
f 1353/7/5 1350/7/5 1349/7/5
f 1354/7/5 1350/7/5 1353/7/5
f 1355/7/5 1352/7/5 1351/7/5
f 1356/7/5 1352/7/5 1355/7/5
f 1357/2/6 1358/2/6 1364/2/6
f 1364/2/6 1358/2/6 1365/2/6
f 1359/2/6 1360/2/6 1368/2/6
f 1368/2/6 1360/2/6 1369/2/6
f 1361/2/6 1362/2/6 1372/2/6
f 1372/2/6 1362/2/6 1373/2/6
f 1365/2/6 1366/2/6 1375/2/6
f 1363/2/6 1364/2/6 1375/2/6
f 1364/2/6 1365/2/6 1375/2/6
f 1375/2/6 1366/2/6 1376/2/6
f 1376/2/6 1366/2/6 1377/2/6
f 1377/2/6 1366/2/6 1378/2/6
f 1373/2/6 1374/2/6 1379/2/6
f 1372/2/6 1373/2/6 1379/2/6
f 1371/2/6 1372/2/6 1379/2/6
f 1379/2/6 1374/2/6 1380/2/6
f 1363/2/6 1375/2/6 1381/2/6
f 1376/2/6 1377/2/6 1382/2/6
f 1382/2/6 1377/2/6 1383/2/6
f 1378/2/6 1366/2/6 1384/2/6
f 1382/2/6 1383/2/6 1385/2/6
f 1383/2/6 1384/2/6 1385/2/6
f 1363/2/6 1381/2/6 1385/2/6
f 1381/2/6 1382/2/6 1385/2/6
f 1385/2/6 1384/2/6 1386/2/6
f 1386/2/6 1384/2/6 1387/2/6
f 1384/2/6 1366/2/6 1388/2/6
f 1387/2/6 1384/2/6 1388/2/6
f 1371/2/6 1379/2/6 1389/2/6
f 1380/2/6 1374/2/6 1390/2/6
f 1363/2/6 1385/2/6 1391/2/6
f 1386/2/6 1387/2/6 1392/2/6
f 1392/2/6 1387/2/6 1393/2/6
f 1388/2/6 1366/2/6 1394/2/6
f 1363/2/6 1391/2/6 1395/2/6
f 1393/2/6 1394/2/6 1395/2/6
f 1392/2/6 1393/2/6 1395/2/6
f 1391/2/6 1392/2/6 1395/2/6
f 1395/2/6 1394/2/6 1396/2/6
f 1394/2/6 1366/2/6 1397/2/6
f 1396/2/6 1394/2/6 1397/2/6
f 1397/2/6 1366/2/6 1398/2/6
f 1369/2/6 1370/2/6 1399/2/6
f 1367/2/6 1368/2/6 1399/2/6
f 1368/2/6 1369/2/6 1399/2/6
f 1399/2/6 1370/2/6 1400/2/6
f 1400/2/6 1370/2/6 1401/2/6
f 1401/2/6 1370/2/6 1402/2/6
f 1371/2/6 1389/2/6 1403/2/6
f 1389/2/6 1390/2/6 1403/2/6
f 1403/2/6 1390/2/6 1404/2/6
f 1390/2/6 1374/2/6 1405/2/6
f 1404/2/6 1390/2/6 1405/2/6
f 1405/2/6 1374/2/6 1406/2/6
f 1396/2/6 1397/2/6 1407/2/6
f 1407/2/6 1397/2/6 1408/2/6
f 1400/2/6 1401/2/6 1409/2/6
f 1409/2/6 1401/2/6 1410/2/6
f 1404/2/6 1405/2/6 1411/2/6
f 1411/2/6 1405/2/6 1412/2/6
f 1413/2/6 1414/2/6 1420/2/6
f 1420/2/6 1414/2/6 1421/2/6
f 1415/2/6 1416/2/6 1424/2/6
f 1424/2/6 1416/2/6 1425/2/6
f 1417/2/6 1418/2/6 1428/2/6
f 1428/2/6 1418/2/6 1429/2/6
f 1421/2/6 1422/2/6 1431/2/6
f 1419/2/6 1420/2/6 1431/2/6
f 1420/2/6 1421/2/6 1431/2/6
f 1431/2/6 1422/2/6 1432/2/6
f 1432/2/6 1422/2/6 1433/2/6
f 1433/2/6 1422/2/6 1434/2/6
f 1425/2/6 1426/2/6 1435/2/6
f 1423/2/6 1424/2/6 1435/2/6
f 1424/2/6 1425/2/6 1435/2/6
f 1435/2/6 1426/2/6 1436/2/6
f 1436/2/6 1426/2/6 1437/2/6
f 1437/2/6 1426/2/6 1438/2/6
f 1428/2/6 1429/2/6 1439/2/6
f 1429/2/6 1430/2/6 1439/2/6
f 1427/2/6 1428/2/6 1439/2/6
f 1439/2/6 1430/2/6 1440/2/6
f 1440/2/6 1430/2/6 1441/2/6
f 1441/2/6 1430/2/6 1442/2/6
f 1432/2/6 1433/2/6 1443/2/6
f 1443/2/6 1433/2/6 1444/2/6
f 1436/2/6 1437/2/6 1445/2/6
f 1445/2/6 1437/2/6 1446/2/6
f 1440/2/6 1441/2/6 1447/2/6
f 1447/2/6 1441/2/6 1448/2/6
f 1449/2/6 1450/2/6 1456/2/6
f 1456/2/6 1450/2/6 1457/2/6
f 1451/2/6 1452/2/6 1460/2/6
f 1460/2/6 1452/2/6 1461/2/6
f 1453/2/6 1454/2/6 1464/2/6
f 1464/2/6 1454/2/6 1465/2/6
f 1457/2/6 1458/2/6 1467/2/6
f 1455/2/6 1456/2/6 1467/2/6
f 1456/2/6 1457/2/6 1467/2/6
f 1467/2/6 1458/2/6 1468/2/6
f 1464/2/6 1465/2/6 1469/2/6
f 1465/2/6 1466/2/6 1469/2/6
f 1463/2/6 1464/2/6 1469/2/6
f 1469/2/6 1466/2/6 1470/2/6
f 1468/2/6 1458/2/6 1471/2/6
f 1471/2/6 1458/2/6 1472/2/6
f 1461/2/6 1462/2/6 1473/2/6
f 1459/2/6 1460/2/6 1473/2/6
f 1460/2/6 1461/2/6 1473/2/6
f 1473/2/6 1462/2/6 1474/2/6
f 1455/2/6 1467/2/6 1475/2/6
f 1475/2/6 1467/2/6 1476/2/6
f 1459/2/6 1473/2/6 1477/2/6
f 1474/2/6 1462/2/6 1478/2/6
f 1463/2/6 1469/2/6 1479/2/6
f 1470/2/6 1466/2/6 1480/2/6
f 1455/2/6 1475/2/6 1481/2/6
f 1472/2/6 1458/2/6 1484/2/6
f 1481/2/6 1482/2/6 1485/2/6
f 1455/2/6 1481/2/6 1485/2/6
f 1485/2/6 1482/2/6 1486/2/6
f 1486/2/6 1482/2/6 1487/2/6
f 1483/2/6 1484/2/6 1488/2/6
f 1484/2/6 1458/2/6 1489/2/6
f 1488/2/6 1484/2/6 1489/2/6
f 1489/2/6 1458/2/6 1490/2/6
f 1477/2/6 1478/2/6 1491/2/6
f 1459/2/6 1477/2/6 1491/2/6
f 1491/2/6 1478/2/6 1492/2/6
f 1478/2/6 1462/2/6 1493/2/6
f 1492/2/6 1478/2/6 1493/2/6
f 1493/2/6 1462/2/6 1494/2/6
f 1463/2/6 1479/2/6 1495/2/6
f 1479/2/6 1480/2/6 1495/2/6
f 1495/2/6 1480/2/6 1496/2/6
f 1480/2/6 1466/2/6 1497/2/6
f 1496/2/6 1480/2/6 1497/2/6
f 1497/2/6 1466/2/6 1498/2/6
f 1486/2/6 1487/2/6 1499/2/6
f 1488/2/6 1489/2/6 1499/2/6
f 1487/2/6 1488/2/6 1499/2/6
f 1499/2/6 1489/2/6 1500/2/6
f 1492/2/6 1493/2/6 1501/2/6
f 1501/2/6 1493/2/6 1502/2/6
f 1496/2/6 1497/2/6 1503/2/6
f 1503/2/6 1497/2/6 1504/2/6
f 1505/10/6 1506/10/6 1507/10/6
f 1507/10/6 1506/10/6 1508/10/6
f 1505/10/6 1507/10/6 1509/10/6
f 1508/10/6 1506/10/6 1510/10/6
f 1505/10/6 1509/10/6 1511/10/6
f 1509/10/6 1510/10/6 1511/10/6
f 1510/10/6 1506/10/6 1512/10/6
f 1511/10/6 1510/10/6 1512/10/6
f 1513/10/6 1514/10/6 1515/10/6
f 1513/10/6 1515/10/6 1518/10/6
f 1515/10/6 1516/10/6 1518/10/6
f 1518/10/6 1516/10/6 1519/10/6
f 1519/10/6 1516/10/6 1520/10/6
f 1520/10/6 1516/10/6 1521/10/6
f 1517/10/6 1518/10/6 1522/10/6
f 1522/10/6 1518/10/6 1523/10/6
f 1521/10/6 1516/10/6 1524/10/6
f 1524/10/6 1516/10/6 1525/10/6
f 1526/10/6 1527/10/6 1529/10/6
f 1529/10/6 1527/10/6 1530/10/6
f 1528/10/6 1529/10/6 1532/10/6
f 1532/10/6 1529/10/6 1533/10/6
f 1530/10/6 1531/10/6 1534/10/6
f 1534/10/6 1531/10/6 1535/10/6
f 1533/10/6 1534/10/6 1536/10/6
f 1536/10/6 1534/10/6 1537/10/6
f 1538/10/6 1539/10/6 1540/10/6
f 1540/10/6 1539/10/6 1541/10/6
f 1542/1/6 1543/1/6 1544/1/6
f 1544/1/6 1543/1/6 1545/1/6
f 1546/7/6 1547/7/6 1549/7/6
f 1549/7/6 1547/7/6 1550/7/6
f 1552/10/6 1553/10/6 1554/10/6
f 1554/10/6 1553/10/6 1555/10/6
f 1555/10/6 1553/10/6 1556/10/6
f 1556/10/6 1557/10/6 1558/10/6
f 1555/10/6 1556/10/6 1558/10/6
f 1558/10/6 1557/10/6 1559/10/6
f 1548/7/6 1549/7/6 1560/7/6
f 1560/7/6 1549/7/6 1561/7/6
f 1550/7/6 1551/7/6 1562/7/6
f 1562/7/6 1551/7/6 1563/7/6
f 1561/7/6 1562/7/6 1564/7/6
f 1564/7/6 1562/7/6 1565/7/6
f 1552/10/6 1554/10/6 1566/10/6
f 1566/10/6 1554/10/6 1567/10/6
f 1559/10/6 1557/10/6 1569/10/6
f 1569/10/6 1557/10/6 1570/10/6
f 1567/10/6 1568/10/6 1571/10/6
f 1571/10/6 1568/10/6 1572/10/6
f 1573/10/6 1574/10/6 1575/10/6
f 1575/10/6 1574/10/6 1576/10/6
f 1579/10/6 1580/10/6 1581/10/6
f 1581/10/6 1580/10/6 1582/10/6
f 1577/7/6 1578/7/6 1583/7/6
f 1583/7/6 1578/7/6 1584/7/6
f 1585/10/6 1586/10/6 1588/10/6
f 1588/10/6 1586/10/6 1589/10/6
f 1587/10/6 1588/10/6 1591/10/6
f 1591/10/6 1588/10/6 1592/10/6
f 1589/10/6 1590/10/6 1593/10/6
f 1593/10/6 1590/10/6 1594/10/6
f 1592/10/6 1593/10/6 1595/10/6
f 1595/10/6 1593/10/6 1596/10/6
f 1597/7/6 1598/7/6 1600/7/6
f 1600/7/6 1598/7/6 1601/7/6
f 1601/7/6 1598/7/6 1602/7/6
f 1602/7/6 1598/7/6 1603/7/6
f 1599/7/6 1600/7/6 1605/7/6
f 1600/7/6 1601/7/6 1605/7/6
f 1605/7/6 1601/7/6 1606/7/6
f 1602/7/6 1603/7/6 1607/7/6
f 1603/7/6 1604/7/6 1607/7/6
f 1607/7/6 1604/7/6 1608/7/6
f 1599/7/6 1605/7/6 1611/7/6
f 1608/7/6 1604/7/6 1614/7/6
f 1609/10/6 1610/10/6 1615/10/6
f 1615/10/6 1610/10/6 1616/10/6
f 1611/7/6 1612/7/6 1617/7/6
f 1599/7/6 1611/7/6 1617/7/6
f 1617/7/6 1612/7/6 1618/7/6
f 1618/7/6 1612/7/6 1619/7/6
f 1613/7/6 1614/7/6 1620/7/6
f 1614/7/6 1604/7/6 1621/7/6
f 1620/7/6 1614/7/6 1621/7/6
f 1621/7/6 1604/7/6 1622/7/6
f 1618/7/6 1619/7/6 1623/7/6
f 1620/7/6 1621/7/6 1623/7/6
f 1619/7/6 1620/7/6 1623/7/6
f 1623/7/6 1621/7/6 1624/7/6
f 1625/10/6 1626/10/6 1627/10/6
f 1627/10/6 1626/10/6 1628/10/6
f 1625/10/6 1627/10/6 1629/10/6
f 1628/10/6 1626/10/6 1630/10/6
f 1625/10/6 1629/10/6 1631/10/6
f 1629/10/6 1630/10/6 1631/10/6
f 1630/10/6 1626/10/6 1632/10/6
f 1631/10/6 1630/10/6 1632/10/6
f 1633/10/6 1634/10/6 1635/10/6
f 1635/10/6 1634/10/6 1636/10/6
f 1637/7/6 1638/7/6 1645/7/6
f 1645/7/6 1638/7/6 1646/7/6
f 1639/7/6 1640/7/6 1647/7/6
f 1647/7/6 1640/7/6 1648/7/6
f 1641/1/6 1642/1/6 1649/1/6
f 1643/1/6 1644/1/6 1650/1/6
f 1650/1/6 1644/1/6 1651/1/6
f 1647/1/6 1648/1/6 1652/1/6
f 1641/1/6 1649/1/6 1653/1/6
f 1651/1/6 1652/1/6 1653/1/6
f 1650/1/6 1651/1/6 1653/1/6
f 1649/1/6 1650/1/6 1653/1/6
f 1652/1/6 1648/1/6 1654/1/6
f 1653/1/6 1652/1/6 1654/1/6
f 1655/7/6 1656/7/6 1658/7/6
f 1658/7/6 1656/7/6 1659/7/6
f 1659/7/6 1656/7/6 1660/7/6
f 1660/7/6 1656/7/6 1661/7/6
f 1657/7/6 1658/7/6 1663/7/6
f 1658/7/6 1659/7/6 1663/7/6
f 1663/7/6 1659/7/6 1664/7/6
f 1661/7/6 1662/7/6 1665/7/6
f 1660/7/6 1661/7/6 1665/7/6
f 1665/7/6 1662/7/6 1666/7/6
f 1657/7/6 1663/7/6 1667/7/6
f 1666/7/6 1662/7/6 1670/7/6
f 1667/7/6 1668/7/6 1671/7/6
f 1657/7/6 1667/7/6 1671/7/6
f 1671/7/6 1668/7/6 1672/7/6
f 1672/7/6 1668/7/6 1673/7/6
f 1669/7/6 1670/7/6 1674/7/6
f 1670/7/6 1662/7/6 1675/7/6
f 1674/7/6 1670/7/6 1675/7/6
f 1675/7/6 1662/7/6 1676/7/6
f 1672/7/6 1673/7/6 1677/7/6
f 1673/7/6 1674/7/6 1677/7/6
f 1674/7/6 1675/7/6 1677/7/6
f 1677/7/6 1675/7/6 1678/7/6
f 1679/7/6 1680/7/6 1681/7/6
f 1681/7/6 1680/7/6 1682/7/6
f 1683/1/6 1684/1/6 1687/1/6
f 1687/1/6 1684/1/6 1688/1/6
f 1685/1/6 1686/1/6 1689/1/6
f 1689/1/6 1686/1/6 1690/1/6
f 1691/7/6 1692/7/6 1694/7/6
f 1694/7/6 1692/7/6 1695/7/6
f 1693/7/6 1694/7/6 1697/7/6
f 1695/7/6 1696/7/6 1697/7/6
f 1694/7/6 1695/7/6 1697/7/6
f 1697/7/6 1696/7/6 1698/7/6
f 1698/7/6 1696/7/6 1699/7/6
f 1699/7/6 1696/7/6 1700/7/6
f 1698/7/6 1699/7/6 1701/7/6
f 1701/7/6 1699/7/6 1702/7/6
