# MagicaVoxel @ Ephtracy

# group
o 

# material
mtllib chapter_three_tile.mtl
usemtl palette

# normals
vn -1 0 0
vn 1 0 0
vn 0 0 1
vn 0 0 -1
vn 0 -1 0
vn 0 1 0

# texcoords
vt 0.138672 0.5
vt 0.275391 0.5
vt 0.283203 0.5
vt 0.517578 0.5
vt 0.556641 0.5
vt 0.705078 0.5
vt 0.720703 0.5
vt 0.751953 0.5
vt 0.837891 0.5
vt 0.958984 0.5
vt 0.962891 0.5
vt 0.966797 0.5
vt 0.990234 0.5

# verts
v -1.9 0.3 1.8
v -1.9 0.3 0.5
v -1.9 0.3 -1.7
v -1.9 0.5 0.5
v -1.9 0.5 -0.1
v -1.9 0.5 -1.7
v -1.9 0.6 1.8
v -1.9 0.6 -0.1
v -1.9 0.8 1.6
v -1.9 0.8 1.2
v -1.9 1.2 1.6
v -1.9 1.2 1.2
v -1.8 0.3 1.9
v -1.8 0.3 1.8
v -1.8 0.3 -1.7
v -1.8 0.3 -1.8
v -1.8 0.5 -1.7
v -1.8 0.5 -1.8
v -1.8 0.6 1.9
v -1.8 0.6 1.8
v -1.8 0.7 1.9
v -1.8 0.7 0.9
v -1.8 0.8 1.6
v -1.8 0.8 1.2
v -1.8 1.2 1.6
v -1.8 1.2 1.2
v -1.8 1.7 1.9
v -1.8 1.7 0.9
v -1.7 0.5 -0.8
v -1.7 0.5 -1.7
v -1.7 0.6 1.7
v -1.7 0.6 1
v -1.7 0.6 -0.8
v -1.7 0.6 -1.7
v -1.7 0.7 1.7
v -1.7 0.7 1
v -1.5 0.5 -1.7
v -1.5 0.5 -1.8
v -1.5 0.6 -1.7
v -1.5 0.6 -1.8
v -1.3 0.5 -0.4
v -1.3 0.5 -0.8
v -1.3 0.6 -0.4
v -1.3 0.6 -0.8
v -1.1 0.6 1.7
v -1.1 0.6 1
v -1.1 0.7 1.7
v -1.1 0.7 1
v -0.5 0.6 1.9
v -0.5 0.6 1.4
v -0.5 0.6 1.3
v -0.5 0.6 1.2
v -0.5 0.7 1.9
v -0.5 0.7 1.4
v -0.5 0.7 1.3
v -0.5 0.7 1.2
v -0.4 0.6 1.4
v -0.4 0.6 1.3
v -0.4 0.7 1.4
v -0.4 0.7 1.3
v 0.4 0.5 0.5
v 0.4 0.5 0.1
v 0.4 0.6 0.5
v 0.4 0.6 0.1
v 0.8 0.5 -0.8
v 0.8 0.5 -1.8
v 0.8 0.7 -0.8
v 0.8 0.7 -1.8
v 0.9 0.5 1.5
v 0.9 0.5 1.3
v 0.9 0.7 1.5
v 0.9 0.7 1.3
v 1 0.5 -0.6
v 1 0.5 -0.8
v 1 0.7 -0.6
v 1 0.7 -0.8
v 1 0.7 -1
v 1 0.7 -1.8
v 1 0.9 -1
v 1 0.9 -1.8
v 1.1 0.5 1.7
v 1.1 0.5 1.5
v 1.1 0.5 1.3
v 1.1 0.5 1.1
v 1.1 0.7 1.7
v 1.1 0.7 1.5
v 1.1 0.7 1.3
v 1.1 0.7 1.1
v 1.1 0.9 1.5
v 1.1 0.9 1.3
v 1.2 0.7 -0.8
v 1.2 0.7 -1
v 1.2 0.9 -0.8
v 1.2 0.9 -1
v 1.4 0.9 -1.4
v 1.4 0.9 -1.8
v 1.4 1.1 -1.4
v 1.4 1.1 -1.8
v -1.5 0.6 1.7
v -1.5 0.6 1
v -1.5 0.7 1.7
v -1.5 0.7 1
v -0.9 0.6 1.7
v -0.9 0.6 1
v -0.9 0.7 1.7
v -0.9 0.7 1
v -0.8 0.5 0.3
v -0.8 0.5 -0.1
v -0.8 0.6 0.3
v -0.8 0.6 -0.1
v -0.8 0.7 1.9
v -0.8 0.7 0.9
v -0.8 0.8 1.6
v -0.8 0.8 1.2
v -0.8 1.2 1.6
v -0.8 1.2 1.2
v -0.8 1.7 1.9
v -0.8 1.7 0.9
v -0.7 0.8 1.6
v -0.7 0.8 1.2
v -0.7 1.2 1.6
v -0.7 1.2 1.2
v -0.6 0.5 0.5
v -0.6 0.5 0.3
v -0.6 0.6 0.5
v -0.6 0.6 0.3
v -0.4 0.5 0.9
v -0.4 0.5 0.5
v -0.4 0.6 0.9
v -0.4 0.6 0.5
v -0.3 0.5 -0.4
v -0.3 0.5 -0.6
v -0.3 0.5 -1.6
v -0.3 0.5 -1.8
v -0.3 0.6 -0.4
v -0.3 0.6 -0.6
v -0.3 0.6 -1.6
v -0.3 0.6 -1.8
v -0.2 0.6 1.9
v -0.2 0.6 1.8
v -0.2 0.6 1.4
v -0.2 0.6 1.3
v -0.2 0.7 1.9
v -0.2 0.7 1.8
v -0.2 0.7 1.4
v -0.2 0.7 1.3
v -0.1 0.5 -0.6
v -0.1 0.5 -1.6
v -0.1 0.6 1.8
v -0.1 0.6 1.4
v -0.1 0.6 1.3
v -0.1 0.6 1.2
v -0.1 0.6 -0.6
v -0.1 0.6 -1.6
v -0.1 0.7 1.8
v -0.1 0.7 1.4
v -0.1 0.7 1.3
v -0.1 0.7 1.2
v 0.1 0.5 1.9
v 0.1 0.5 0.9
v 0.1 0.6 1.9
v 0.1 0.6 0.9
v 0.8 0.5 0.5
v 0.8 0.5 0.1
v 0.8 0.6 0.5
v 0.8 0.6 0.1
v 1.5 0.5 1.7
v 1.5 0.5 1.5
v 1.5 0.5 1.3
v 1.5 0.5 1.1
v 1.5 0.7 1.7
v 1.5 0.7 1.5
v 1.5 0.7 1.3
v 1.5 0.7 1.1
v 1.5 0.9 1.5
v 1.5 0.9 1.3
v 1.7 0.5 1.5
v 1.7 0.5 1.3
v 1.7 0.7 1.5
v 1.7 0.7 1.3
v 1.8 0.3 1.9
v 1.8 0.3 1.8
v 1.8 0.3 -1.7
v 1.8 0.3 -1.8
v 1.8 0.5 1.9
v 1.8 0.5 1.8
v 1.8 0.9 -1.4
v 1.8 0.9 -1.7
v 1.8 1.1 -1.4
v 1.8 1.1 -1.8
v 1.9 0.3 1.8
v 1.9 0.3 -0.6
v 1.9 0.3 -1.7
v 1.9 0.5 1.8
v 1.9 0.5 -0.6
v 1.9 0.7 -0.6
v 1.9 0.7 -0.8
v 1.9 0.9 -0.8
v 1.9 0.9 -1.7
v -1.8 0.3 1.9
v -1.8 0.6 1.9
v -1.8 0.7 1.9
v -1.8 1.7 1.9
v -1.7 0.8 1.9
v -1.7 1.6 1.9
v -1.5 1.2 1.9
v -1.5 1.4 1.9
v -1.4 1.1 1.9
v -1.4 1.2 1.9
v -1.4 1.4 1.9
v -1.4 1.5 1.9
v -1.4 1.6 1.9
v -1.2 1.1 1.9
v -1.2 1.2 1.9
v -1.2 1.4 1.9
v -1.2 1.5 1.9
v -1.2 1.6 1.9
v -1.1 1.2 1.9
v -1.1 1.4 1.9
v -0.9 0.8 1.9
v -0.9 1.6 1.9
v -0.8 0.7 1.9
v -0.8 1.7 1.9
v -0.5 0.6 1.9
v -0.5 0.7 1.9
v -0.2 0.6 1.9
v -0.2 0.7 1.9
v 0.1 0.3 1.9
v 0.1 0.5 1.9
v 0.1 0.6 1.9
v 1.8 0.3 1.9
v 1.8 0.5 1.9
v -1.9 0.3 1.8
v -1.9 0.6 1.8
v -1.8 0.3 1.8
v -1.8 0.6 1.8
v -0.2 0.6 1.8
v -0.2 0.7 1.8
v -0.1 0.6 1.8
v -0.1 0.7 1.8
v 1.8 0.3 1.8
v 1.8 0.5 1.8
v 1.9 0.3 1.8
v 1.9 0.5 1.8
v -1.7 0.6 1.7
v -1.7 0.7 1.7
v -1.5 0.6 1.7
v -1.5 0.7 1.7
v -1.1 0.6 1.7
v -1.1 0.7 1.7
v -0.9 0.6 1.7
v -0.9 0.7 1.7
v 1.1 0.5 1.7
v 1.1 0.7 1.7
v 1.5 0.5 1.7
v 1.5 0.7 1.7
v -1.9 0.8 1.6
v -1.9 1.2 1.6
v -1.8 0.8 1.6
v -1.8 1.2 1.6
v -0.8 0.8 1.6
v -0.8 1.2 1.6
v -0.7 0.8 1.6
v -0.7 1.2 1.6
v 0.9 0.5 1.5
v 0.9 0.7 1.5
v 1.1 0.5 1.5
v 1.1 0.7 1.5
v 1.1 0.9 1.5
v 1.5 0.5 1.5
v 1.5 0.7 1.5
v 1.5 0.9 1.5
v 1.7 0.5 1.5
v 1.7 0.7 1.5
v -0.5 0.6 1.3
v -0.5 0.7 1.3
v -0.4 0.6 1.3
v -0.4 0.7 1.3
v -0.2 0.6 1.3
v -0.2 0.7 1.3
v -0.1 0.6 1.3
v -0.1 0.7 1.3
v 0.4 0.5 0.5
v 0.4 0.6 0.5
v 0.8 0.5 0.5
v 0.8 0.6 0.5
v -1.3 0.5 -0.4
v -1.3 0.6 -0.4
v -0.3 0.5 -0.4
v -0.3 0.6 -0.4
v -0.3 0.5 -0.6
v -0.3 0.6 -0.6
v -0.1 0.5 -0.6
v -0.1 0.6 -0.6
v 1 0.5 -0.6
v 1 0.7 -0.6
v 1.9 0.5 -0.6
v 1.9 0.7 -0.6
v -1.7 0.5 -0.8
v -1.7 0.6 -0.8
v -1.3 0.5 -0.8
v -1.3 0.6 -0.8
v 0.8 0.5 -0.8
v 0.8 0.7 -0.8
v 1 0.5 -0.8
v 1 0.7 -0.8
v 1.2 0.7 -0.8
v 1.2 0.9 -0.8
v 1.9 0.7 -0.8
v 1.9 0.9 -0.8
v 1 0.7 -1
v 1 0.9 -1
v 1.2 0.7 -1
v 1.2 0.9 -1
v 1.4 0.9 -1.4
v 1.4 1.1 -1.4
v 1.8 0.9 -1.4
v 1.8 1.1 -1.4
v -0.5 0.6 1.4
v -0.5 0.7 1.4
v -0.4 0.6 1.4
v -0.4 0.7 1.4
v -0.2 0.6 1.4
v -0.2 0.7 1.4
v -0.1 0.6 1.4
v -0.1 0.7 1.4
v 0.9 0.5 1.3
v 0.9 0.7 1.3
v 1.1 0.5 1.3
v 1.1 0.7 1.3
v 1.1 0.9 1.3
v 1.5 0.5 1.3
v 1.5 0.7 1.3
v 1.5 0.9 1.3
v 1.7 0.5 1.3
v 1.7 0.7 1.3
v -1.9 0.8 1.2
v -1.9 1.2 1.2
v -1.8 0.8 1.2
v -1.8 1.2 1.2
v -0.8 0.8 1.2
v -0.8 1.2 1.2
v -0.7 0.8 1.2
v -0.7 1.2 1.2
v -0.5 0.6 1.2
v -0.5 0.7 1.2
v -0.1 0.6 1.2
v -0.1 0.7 1.2
v 1.1 0.5 1.1
v 1.1 0.7 1.1
v 1.5 0.5 1.1
v 1.5 0.7 1.1
v -1.7 0.6 1
v -1.7 0.7 1
v -1.5 0.6 1
v -1.5 0.7 1
v -1.1 0.6 1
v -1.1 0.7 1
v -0.9 0.6 1
v -0.9 0.7 1
v -1.8 0.7 0.9
v -1.8 1.7 0.9
v -0.8 0.7 0.9
v -0.8 1.7 0.9
v -0.4 0.5 0.9
v -0.4 0.6 0.9
v 0.1 0.5 0.9
v 0.1 0.6 0.9
v -0.6 0.5 0.5
v -0.6 0.6 0.5
v -0.4 0.5 0.5
v -0.4 0.6 0.5
v -0.8 0.5 0.3
v -0.8 0.6 0.3
v -0.6 0.5 0.3
v -0.6 0.6 0.3
v 0.4 0.5 0.1
v 0.4 0.6 0.1
v 0.8 0.5 0.1
v 0.8 0.6 0.1
v -1.9 0.5 -0.1
v -1.9 0.6 -0.1
v -0.8 0.5 -0.1
v -0.8 0.6 -0.1
v -0.3 0.5 -1.6
v -0.3 0.6 -1.6
v -0.1 0.5 -1.6
v -0.1 0.6 -1.6
v -1.9 0.3 -1.7
v -1.9 0.5 -1.7
v -1.8 0.3 -1.7
v -1.8 0.5 -1.7
v -1.7 0.5 -1.7
v -1.7 0.6 -1.7
v -1.5 0.5 -1.7
v -1.5 0.6 -1.7
v 1.8 0.3 -1.7
v 1.8 0.9 -1.7
v 1.9 0.3 -1.7
v 1.9 0.9 -1.7
v -1.8 0.3 -1.8
v -1.8 0.5 -1.8
v -1.5 0.5 -1.8
v -1.5 0.6 -1.8
v -0.3 0.5 -1.8
v -0.3 0.6 -1.8
v 0.8 0.3 -1.8
v 0.8 0.5 -1.8
v 0.8 0.7 -1.8
v 1 0.7 -1.8
v 1 0.9 -1.8
v 1.4 0.9 -1.8
v 1.4 1.1 -1.8
v 1.8 0.3 -1.8
v 1.8 1.1 -1.8
v -1.8 0.3 1.9
v 0.1 0.3 1.9
v 1.8 0.3 1.9
v -1.9 0.3 1.8
v -1.8 0.3 1.8
v 1.8 0.3 1.8
v 1.9 0.3 1.8
v -0.4 0.3 1.7
v 0.1 0.3 1.7
v -1.9 0.3 0.5
v -0.4 0.3 0.5
v 0.8 0.3 -0.6
v 1.9 0.3 -0.6
v -1.9 0.3 -1.7
v -1.8 0.3 -1.7
v 1.8 0.3 -1.7
v 1.9 0.3 -1.7
v -1.8 0.3 -1.8
v 0.8 0.3 -1.8
v 1.8 0.3 -1.8
v -1.8 0.7 1.9
v -0.8 0.7 1.9
v -1.7 0.7 1.7
v -1.5 0.7 1.7
v -1.1 0.7 1.7
v -0.9 0.7 1.7
v -1.7 0.7 1
v -1.5 0.7 1
v -1.1 0.7 1
v -0.9 0.7 1
v -1.8 0.7 0.9
v -0.8 0.7 0.9
v -1.9 0.8 1.6
v -1.8 0.8 1.6
v -0.8 0.8 1.6
v -0.7 0.8 1.6
v -1.9 0.8 1.2
v -1.8 0.8 1.2
v -0.8 0.8 1.2
v -0.7 0.8 1.2
v 0.1 0.5 1.9
v 1.8 0.5 1.9
v 1.8 0.5 1.8
v 1.9 0.5 1.8
v 1.1 0.5 1.7
v 1.5 0.5 1.7
v 0.9 0.5 1.5
v 1.1 0.5 1.5
v 1.5 0.5 1.5
v 1.7 0.5 1.5
v 0.9 0.5 1.3
v 1.1 0.5 1.3
v 1.5 0.5 1.3
v 1.7 0.5 1.3
v 1.1 0.5 1.1
v 1.5 0.5 1.1
v -0.4 0.5 0.9
v 0.1 0.5 0.9
v -0.6 0.5 0.5
v -0.4 0.5 0.5
v 0.4 0.5 0.5
v 0.8 0.5 0.5
v -0.8 0.5 0.3
v -0.6 0.5 0.3
v 0.4 0.5 0.1
v 0.8 0.5 0.1
v -1.9 0.5 -0.1
v -0.8 0.5 -0.1
v -1.3 0.5 -0.4
v -0.3 0.5 -0.4
v -0.3 0.5 -0.6
v -0.1 0.5 -0.6
v 0.8 0.5 -0.6
v 1 0.5 -0.6
v 1.9 0.5 -0.6
v -1.7 0.5 -0.8
v -1.3 0.5 -0.8
v 0.8 0.5 -0.8
v 1 0.5 -0.8
v -0.3 0.5 -1.6
v -0.1 0.5 -1.6
v -1.9 0.5 -1.7
v -1.8 0.5 -1.7
v -1.7 0.5 -1.7
v -1.5 0.5 -1.7
v -1.8 0.5 -1.8
v -1.5 0.5 -1.8
v -0.3 0.5 -1.8
v 0.8 0.5 -1.8
v -1.8 0.6 1.9
v -0.5 0.6 1.9
v -0.2 0.6 1.9
v 0.1 0.6 1.9
v -1.9 0.6 1.8
v -1.8 0.6 1.8
v -0.2 0.6 1.8
v -0.1 0.6 1.8
v -1.7 0.6 1.7
v -1.5 0.6 1.7
v -1.1 0.6 1.7
v -0.9 0.6 1.7
v -0.5 0.6 1.4
v -0.4 0.6 1.4
v -0.2 0.6 1.4
v -0.1 0.6 1.4
v -0.5 0.6 1.3
v -0.4 0.6 1.3
v -0.2 0.6 1.3
v -0.1 0.6 1.3
v -0.5 0.6 1.2
v -0.1 0.6 1.2
v -1.7 0.6 1
v -1.5 0.6 1
v -1.1 0.6 1
v -0.9 0.6 1
v -0.4 0.6 0.9
v 0.1 0.6 0.9
v -0.6 0.6 0.5
v -0.4 0.6 0.5
v 0.4 0.6 0.5
v 0.8 0.6 0.5
v -0.8 0.6 0.3
v -0.6 0.6 0.3
v 0.5 0.6 0.3
v 0.6 0.6 0.3
v 0.5 0.6 0.2
v 0.6 0.6 0.2
v 0.4 0.6 0.1
v 0.8 0.6 0.1
v -1.9 0.6 -0.1
v -0.8 0.6 -0.1
v -1.3 0.6 -0.4
v -0.3 0.6 -0.4
v -0.3 0.6 -0.6
v -0.1 0.6 -0.6
v -1.7 0.6 -0.8
v -1.3 0.6 -0.8
v -1.4 0.6 -1.6
v -1 0.6 -1.6
v -0.8 0.6 -1.6
v -0.7 0.6 -1.6
v -0.3 0.6 -1.6
v -0.1 0.6 -1.6
v -1.7 0.6 -1.7
v -1.5 0.6 -1.7
v -1.4 0.6 -1.7
v -1 0.6 -1.7
v -0.8 0.6 -1.7
v -0.7 0.6 -1.7
v -1.5 0.6 -1.8
v -0.3 0.6 -1.8
v -0.5 0.7 1.9
v -0.2 0.7 1.9
v -0.4 0.7 1.8
v -0.3 0.7 1.8
v -0.2 0.7 1.8
v -0.1 0.7 1.8
v -0.4 0.7 1.7
v -0.3 0.7 1.7
v 1.1 0.7 1.7
v 1.5 0.7 1.7
v 0.9 0.7 1.5
v 1.1 0.7 1.5
v 1.5 0.7 1.5
v 1.7 0.7 1.5
v -0.5 0.7 1.4
v -0.4 0.7 1.4
v -0.2 0.7 1.4
v -0.1 0.7 1.4
v -0.5 0.7 1.3
v -0.4 0.7 1.3
v -0.2 0.7 1.3
v -0.1 0.7 1.3
v 0.9 0.7 1.3
v 1.1 0.7 1.3
v 1.5 0.7 1.3
v 1.7 0.7 1.3
v -0.5 0.7 1.2
v -0.1 0.7 1.2
v 1.1 0.7 1.1
v 1.5 0.7 1.1
v 1 0.7 -0.6
v 1.9 0.7 -0.6
v 0.8 0.7 -0.8
v 1 0.7 -0.8
v 1.2 0.7 -0.8
v 1.9 0.7 -0.8
v 1 0.7 -1
v 1.2 0.7 -1
v 0.8 0.7 -1.8
v 1 0.7 -1.8
v 1.1 0.9 1.5
v 1.5 0.9 1.5
v 1.1 0.9 1.3
v 1.5 0.9 1.3
v 1.2 0.9 -0.8
v 1.9 0.9 -0.8
v 1 0.9 -1
v 1.2 0.9 -1
v 1.4 0.9 -1.4
v 1.8 0.9 -1.4
v 1.8 0.9 -1.7
v 1.9 0.9 -1.7
v 1 0.9 -1.8
v 1.4 0.9 -1.8
v 1.4 1.1 -1.4
v 1.8 1.1 -1.4
v 1.4 1.1 -1.8
v 1.8 1.1 -1.8
v -1.9 1.2 1.6
v -1.8 1.2 1.6
v -0.8 1.2 1.6
v -0.7 1.2 1.6
v -1.9 1.2 1.2
v -1.8 1.2 1.2
v -0.8 1.2 1.2
v -0.7 1.2 1.2
v -1.8 1.7 1.9
v -0.8 1.7 1.9
v -1.8 1.7 0.9
v -0.8 1.7 0.9

# faces
f 4/3/1 2/3/1 1/3/1
f 4/8/1 3/8/1 2/8/1
f 5/8/1 3/8/1 4/8/1
f 6/8/1 3/8/1 5/8/1
f 7/3/1 4/3/1 1/3/1
f 7/3/1 5/3/1 4/3/1
f 8/3/1 5/3/1 7/3/1
f 11/1/1 10/1/1 9/1/1
f 12/1/1 10/1/1 11/1/1
f 17/8/1 16/8/1 15/8/1
f 18/8/1 16/8/1 17/8/1
f 19/3/1 14/3/1 13/3/1
f 20/3/1 14/3/1 19/3/1
f 23/1/1 22/1/1 21/1/1
f 24/1/1 22/1/1 23/1/1
f 25/1/1 23/1/1 21/1/1
f 26/1/1 22/1/1 24/1/1
f 27/1/1 25/1/1 21/1/1
f 27/1/1 26/1/1 25/1/1
f 28/1/1 22/1/1 26/1/1
f 28/1/1 26/1/1 27/1/1
f 33/3/1 30/3/1 29/3/1
f 34/3/1 30/3/1 33/3/1
f 35/2/1 32/2/1 31/2/1
f 36/2/1 32/2/1 35/2/1
f 39/3/1 38/3/1 37/3/1
f 40/3/1 38/3/1 39/3/1
f 43/3/1 42/3/1 41/3/1
f 44/3/1 42/3/1 43/3/1
f 47/2/1 46/2/1 45/2/1
f 48/2/1 46/2/1 47/2/1
f 53/8/1 50/8/1 49/8/1
f 54/8/1 50/8/1 53/8/1
f 55/8/1 52/8/1 51/8/1
f 56/8/1 52/8/1 55/8/1
f 59/8/1 58/8/1 57/8/1
f 60/8/1 58/8/1 59/8/1
f 63/3/1 62/3/1 61/3/1
f 64/3/1 62/3/1 63/3/1
f 67/3/1 66/3/1 65/3/1
f 68/3/1 66/3/1 67/3/1
f 71/3/1 70/3/1 69/3/1
f 72/3/1 70/3/1 71/3/1
f 75/3/1 74/3/1 73/3/1
f 76/3/1 74/3/1 75/3/1
f 79/3/1 78/3/1 77/3/1
f 80/3/1 78/3/1 79/3/1
f 85/3/1 82/3/1 81/3/1
f 86/3/1 82/3/1 85/3/1
f 87/3/1 84/3/1 83/3/1
f 88/3/1 84/3/1 87/3/1
f 89/3/1 87/3/1 86/3/1
f 90/3/1 87/3/1 89/3/1
f 93/3/1 92/3/1 91/3/1
f 94/3/1 92/3/1 93/3/1
f 97/3/1 96/3/1 95/3/1
f 98/3/1 96/3/1 97/3/1
f 99/2/2 100/2/2 101/2/2
f 101/2/2 100/2/2 102/2/2
f 103/2/2 104/2/2 105/2/2
f 105/2/2 104/2/2 106/2/2
f 107/3/2 108/3/2 109/3/2
f 109/3/2 108/3/2 110/3/2
f 111/1/2 112/1/2 113/1/2
f 113/1/2 112/1/2 114/1/2
f 111/1/2 113/1/2 115/1/2
f 114/1/2 112/1/2 116/1/2
f 111/1/2 115/1/2 117/1/2
f 115/1/2 116/1/2 117/1/2
f 116/1/2 112/1/2 118/1/2
f 117/1/2 116/1/2 118/1/2
f 119/1/2 120/1/2 121/1/2
f 121/1/2 120/1/2 122/1/2
f 123/3/2 124/3/2 125/3/2
f 125/3/2 124/3/2 126/3/2
f 127/3/2 128/3/2 129/3/2
f 129/3/2 128/3/2 130/3/2
f 131/3/2 132/3/2 135/3/2
f 135/3/2 132/3/2 136/3/2
f 133/3/2 134/3/2 137/3/2
f 137/3/2 134/3/2 138/3/2
f 139/8/2 140/8/2 143/8/2
f 143/8/2 140/8/2 144/8/2
f 141/8/2 142/8/2 145/8/2
f 145/8/2 142/8/2 146/8/2
f 147/3/2 148/3/2 153/3/2
f 153/3/2 148/3/2 154/3/2
f 149/8/2 150/8/2 155/8/2
f 155/8/2 150/8/2 156/8/2
f 151/8/2 152/8/2 157/8/2
f 157/8/2 152/8/2 158/8/2
f 159/3/2 160/3/2 161/3/2
f 161/3/2 160/3/2 162/3/2
f 163/3/2 164/3/2 165/3/2
f 165/3/2 164/3/2 166/3/2
f 167/3/2 168/3/2 171/3/2
f 171/3/2 168/3/2 172/3/2
f 169/3/2 170/3/2 173/3/2
f 173/3/2 170/3/2 174/3/2
f 172/3/2 173/3/2 175/3/2
f 175/3/2 173/3/2 176/3/2
f 177/3/2 178/3/2 179/3/2
f 179/3/2 178/3/2 180/3/2
f 181/8/2 182/8/2 185/8/2
f 185/8/2 182/8/2 186/8/2
f 183/3/2 184/3/2 188/3/2
f 187/3/2 188/3/2 189/3/2
f 188/3/2 184/3/2 190/3/2
f 189/3/2 188/3/2 190/3/2
f 191/8/2 192/8/2 194/8/2
f 192/3/2 193/3/2 195/3/2
f 194/8/2 192/8/2 195/8/2
f 195/3/2 193/3/2 196/3/2
f 196/3/2 193/3/2 197/3/2
f 197/3/2 193/3/2 198/3/2
f 198/3/2 193/3/2 199/3/2
f 204/1/3 203/1/3 202/1/3
f 205/1/3 203/1/3 204/1/3
f 206/10/3 205/10/3 204/10/3
f 207/10/3 205/10/3 206/10/3
f 208/10/3 206/10/3 204/10/3
f 209/13/3 207/13/3 206/13/3
f 209/10/3 206/10/3 208/10/3
f 210/10/3 205/10/3 207/10/3
f 210/13/3 207/13/3 209/13/3
f 211/10/3 205/10/3 210/10/3
f 212/1/3 203/1/3 205/1/3
f 212/10/3 205/10/3 211/10/3
f 213/2/3 209/2/3 208/2/3
f 213/10/3 208/10/3 204/10/3
f 214/10/3 211/10/3 210/10/3
f 214/2/3 209/2/3 213/2/3
f 214/10/3 210/10/3 209/10/3
f 215/10/3 211/10/3 214/10/3
f 216/1/3 212/1/3 211/1/3
f 216/10/3 211/10/3 215/10/3
f 217/1/3 203/1/3 212/1/3
f 217/1/3 212/1/3 216/1/3
f 218/13/3 215/13/3 214/13/3
f 218/10/3 214/10/3 213/10/3
f 219/10/3 216/10/3 215/10/3
f 219/13/3 215/13/3 218/13/3
f 219/10/3 217/10/3 216/10/3
f 220/1/3 204/1/3 202/1/3
f 220/10/3 213/10/3 204/10/3
f 220/10/3 219/10/3 218/10/3
f 220/10/3 218/10/3 213/10/3
f 221/10/3 217/10/3 219/10/3
f 221/10/3 219/10/3 220/10/3
f 221/1/3 203/1/3 217/1/3
f 222/1/3 220/1/3 202/1/3
f 222/1/3 221/1/3 220/1/3
f 223/1/3 203/1/3 221/1/3
f 223/1/3 221/1/3 222/1/3
f 224/3/3 201/3/3 200/3/3
f 226/3/3 224/3/3 200/3/3
f 226/8/3 225/8/3 224/8/3
f 227/8/3 225/8/3 226/8/3
f 228/3/3 226/3/3 200/3/3
f 229/3/3 226/3/3 228/3/3
f 230/3/3 226/3/3 229/3/3
f 231/8/3 229/8/3 228/8/3
f 232/8/3 229/8/3 231/8/3
f 235/3/3 234/3/3 233/3/3
f 236/3/3 234/3/3 235/3/3
f 239/8/3 238/8/3 237/8/3
f 240/8/3 238/8/3 239/8/3
f 243/8/3 242/8/3 241/8/3
f 244/8/3 242/8/3 243/8/3
f 247/2/3 246/2/3 245/2/3
f 248/2/3 246/2/3 247/2/3
f 251/2/3 250/2/3 249/2/3
f 252/2/3 250/2/3 251/2/3
f 255/3/3 254/3/3 253/3/3
f 256/3/3 254/3/3 255/3/3
f 259/1/3 258/1/3 257/1/3
f 260/1/3 258/1/3 259/1/3
f 263/1/3 262/1/3 261/1/3
f 264/1/3 262/1/3 263/1/3
f 267/3/3 266/3/3 265/3/3
f 268/3/3 266/3/3 267/3/3
f 271/3/3 269/3/3 268/3/3
f 272/3/3 269/3/3 271/3/3
f 273/3/3 271/3/3 270/3/3
f 274/3/3 271/3/3 273/3/3
f 277/8/3 276/8/3 275/8/3
f 278/8/3 276/8/3 277/8/3
f 281/8/3 280/8/3 279/8/3
f 282/8/3 280/8/3 281/8/3
f 285/3/3 284/3/3 283/3/3
f 286/3/3 284/3/3 285/3/3
f 289/3/3 288/3/3 287/3/3
f 290/3/3 288/3/3 289/3/3
f 293/3/3 292/3/3 291/3/3
f 294/3/3 292/3/3 293/3/3
f 297/3/3 296/3/3 295/3/3
f 298/3/3 296/3/3 297/3/3
f 301/3/3 300/3/3 299/3/3
f 302/3/3 300/3/3 301/3/3
f 305/3/3 304/3/3 303/3/3
f 306/3/3 304/3/3 305/3/3
f 309/3/3 308/3/3 307/3/3
f 310/3/3 308/3/3 309/3/3
f 313/3/3 312/3/3 311/3/3
f 314/3/3 312/3/3 313/3/3
f 317/3/3 316/3/3 315/3/3
f 318/3/3 316/3/3 317/3/3
f 319/8/4 320/8/4 321/8/4
f 321/8/4 320/8/4 322/8/4
f 323/8/4 324/8/4 325/8/4
f 325/8/4 324/8/4 326/8/4
f 327/3/4 328/3/4 329/3/4
f 329/3/4 328/3/4 330/3/4
f 330/3/4 331/3/4 333/3/4
f 333/3/4 331/3/4 334/3/4
f 332/3/4 333/3/4 335/3/4
f 335/3/4 333/3/4 336/3/4
f 337/1/4 338/1/4 339/1/4
f 339/1/4 338/1/4 340/1/4
f 341/1/4 342/1/4 343/1/4
f 343/1/4 342/1/4 344/1/4
f 345/8/4 346/8/4 347/8/4
f 347/8/4 346/8/4 348/8/4
f 349/3/4 350/3/4 351/3/4
f 351/3/4 350/3/4 352/3/4
f 353/2/4 354/2/4 355/2/4
f 355/2/4 354/2/4 356/2/4
f 357/2/4 358/2/4 359/2/4
f 359/2/4 358/2/4 360/2/4
f 361/1/4 362/1/4 363/1/4
f 363/1/4 362/1/4 364/1/4
f 365/3/4 366/3/4 367/3/4
f 367/3/4 366/3/4 368/3/4
f 369/3/4 370/3/4 371/3/4
f 371/3/4 370/3/4 372/3/4
f 373/3/4 374/3/4 375/3/4
f 375/3/4 374/3/4 376/3/4
f 377/3/4 378/3/4 379/3/4
f 379/3/4 378/3/4 380/3/4
f 381/3/4 382/3/4 383/3/4
f 383/3/4 382/3/4 384/3/4
f 385/3/4 386/3/4 387/3/4
f 387/3/4 386/3/4 388/3/4
f 389/8/4 390/8/4 391/8/4
f 391/8/4 390/8/4 392/8/4
f 393/3/4 394/3/4 395/3/4
f 395/3/4 394/3/4 396/3/4
f 397/3/4 398/3/4 399/3/4
f 399/3/4 398/3/4 400/3/4
f 401/8/4 402/8/4 403/8/4
f 401/8/4 403/8/4 405/8/4
f 403/3/4 404/3/4 405/3/4
f 405/3/4 404/3/4 406/3/4
f 401/8/4 405/8/4 407/8/4
f 407/8/4 405/8/4 408/8/4
f 407/3/4 408/3/4 410/3/4
f 408/3/4 409/3/4 410/3/4
f 410/3/4 411/3/4 412/3/4
f 407/3/4 410/3/4 414/3/4
f 412/3/4 413/3/4 414/3/4
f 410/3/4 412/3/4 414/3/4
f 414/3/4 413/3/4 415/3/4
f 420/3/5 417/3/5 416/3/5
f 421/8/5 418/8/5 417/8/5
f 423/3/5 420/3/5 419/3/5
f 423/3/5 417/3/5 420/3/5
f 424/8/5 422/8/5 421/8/5
f 424/3/5 417/3/5 423/3/5
f 424/8/5 421/8/5 417/8/5
f 425/3/5 423/3/5 419/3/5
f 426/8/5 424/8/5 423/8/5
f 426/3/5 423/3/5 425/3/5
f 427/8/5 422/8/5 424/8/5
f 427/8/5 424/8/5 426/8/5
f 427/8/5 426/8/5 425/8/5
f 428/8/5 422/8/5 427/8/5
f 429/8/5 427/8/5 425/8/5
f 430/8/5 427/8/5 429/8/5
f 431/3/5 428/3/5 427/3/5
f 432/3/5 428/3/5 431/3/5
f 433/8/5 427/8/5 430/8/5
f 434/3/5 431/3/5 427/3/5
f 434/8/5 427/8/5 433/8/5
f 435/3/5 431/3/5 434/3/5
f 438/1/5 437/1/5 436/1/5
f 439/1/5 437/1/5 438/1/5
f 440/1/5 437/1/5 439/1/5
f 441/1/5 437/1/5 440/1/5
f 442/1/5 438/1/5 436/1/5
f 443/1/5 440/1/5 439/1/5
f 444/1/5 440/1/5 443/1/5
f 445/1/5 437/1/5 441/1/5
f 446/1/5 444/1/5 443/1/5
f 446/1/5 445/1/5 444/1/5
f 446/1/5 442/1/5 436/1/5
f 446/1/5 443/1/5 442/1/5
f 447/1/5 437/1/5 445/1/5
f 447/1/5 445/1/5 446/1/5
f 452/1/5 449/1/5 448/1/5
f 453/1/5 449/1/5 452/1/5
f 454/1/5 451/1/5 450/1/5
f 455/1/5 451/1/5 454/1/5
f 456/8/6 457/8/6 458/8/6
f 456/8/6 458/8/6 460/8/6
f 458/8/6 459/8/6 460/8/6
f 460/8/6 459/8/6 461/8/6
f 456/8/6 460/8/6 462/8/6
f 462/8/6 460/8/6 463/8/6
f 461/8/6 459/8/6 464/8/6
f 464/8/6 459/8/6 465/8/6
f 456/8/6 462/8/6 466/8/6
f 465/8/6 459/8/6 469/8/6
f 466/8/6 467/8/6 470/8/6
f 468/8/6 469/8/6 471/8/6
f 466/8/6 470/8/6 473/8/6
f 470/8/6 471/8/6 473/8/6
f 456/8/6 466/8/6 473/8/6
f 472/8/6 473/8/6 475/8/6
f 473/8/6 471/8/6 476/8/6
f 475/8/6 473/8/6 476/8/6
f 476/8/6 471/8/6 477/8/6
f 474/8/6 475/8/6 479/8/6
f 475/8/6 476/8/6 479/8/6
f 479/8/6 476/8/6 480/8/6
f 478/8/6 479/8/6 480/8/6
f 477/8/6 471/8/6 481/8/6
f 478/8/6 480/8/6 483/8/6
f 480/8/6 481/8/6 483/8/6
f 482/8/6 483/8/6 484/8/6
f 483/8/6 481/8/6 485/8/6
f 484/8/6 483/8/6 485/8/6
f 485/8/6 481/8/6 486/8/6
f 486/8/6 481/8/6 487/8/6
f 481/8/6 471/8/6 488/8/6
f 487/8/6 481/8/6 488/8/6
f 488/8/6 471/8/6 489/8/6
f 471/8/6 469/8/6 490/8/6
f 489/8/6 471/8/6 490/8/6
f 469/8/6 459/8/6 490/8/6
f 482/8/6 484/8/6 491/8/6
f 491/8/6 484/8/6 492/8/6
f 488/3/6 489/3/6 493/3/6
f 487/8/6 488/8/6 493/8/6
f 493/3/6 489/3/6 494/3/6
f 487/8/6 493/8/6 496/8/6
f 482/8/6 491/8/6 497/8/6
f 497/8/6 491/8/6 498/8/6
f 498/8/6 491/8/6 499/8/6
f 499/8/6 500/8/6 501/8/6
f 498/8/6 499/8/6 501/8/6
f 501/8/6 500/8/6 502/8/6
f 495/8/6 496/8/6 503/8/6
f 496/8/6 493/8/6 504/8/6
f 503/8/6 496/8/6 504/8/6
f 505/3/6 506/3/6 510/3/6
f 507/3/6 508/3/6 511/3/6
f 511/3/6 508/3/6 512/3/6
f 509/3/6 510/3/6 513/3/6
f 510/3/6 506/3/6 513/3/6
f 513/3/6 506/3/6 514/3/6
f 514/3/6 506/3/6 515/3/6
f 515/3/6 506/3/6 516/3/6
f 516/3/6 506/3/6 517/3/6
f 512/3/6 508/3/6 520/3/6
f 517/3/6 518/3/6 521/3/6
f 516/3/6 517/3/6 521/3/6
f 521/3/6 518/3/6 522/3/6
f 519/3/6 520/3/6 523/3/6
f 520/3/6 508/3/6 524/3/6
f 523/3/6 520/3/6 524/3/6
f 516/3/6 521/3/6 525/3/6
f 524/3/6 508/3/6 526/3/6
f 509/3/6 513/3/6 527/3/6
f 514/3/6 515/3/6 528/3/6
f 528/3/6 515/3/6 529/3/6
f 516/3/6 525/3/6 530/3/6
f 525/3/6 526/3/6 530/3/6
f 528/3/6 529/3/6 531/3/6
f 529/3/6 530/3/6 531/3/6
f 530/3/6 526/3/6 531/3/6
f 527/3/6 528/3/6 531/3/6
f 526/3/6 508/3/6 532/3/6
f 531/3/6 526/3/6 532/3/6
f 527/3/6 531/3/6 533/3/6
f 533/3/6 531/3/6 534/3/6
f 527/3/6 533/3/6 537/3/6
f 537/3/6 533/3/6 538/3/6
f 535/3/6 536/3/6 539/3/6
f 539/3/6 536/3/6 540/3/6
f 535/3/6 539/3/6 541/3/6
f 539/10/6 540/10/6 541/10/6
f 540/3/6 536/3/6 542/3/6
f 541/10/6 540/10/6 542/10/6
f 535/3/6 541/3/6 543/3/6
f 541/3/6 542/3/6 543/3/6
f 542/3/6 536/3/6 544/3/6
f 543/3/6 542/3/6 544/3/6
f 509/3/6 527/3/6 545/3/6
f 527/3/6 537/3/6 545/3/6
f 545/3/6 537/3/6 546/3/6
f 547/3/6 548/3/6 549/3/6
f 547/3/6 549/3/6 552/3/6
f 549/3/6 550/3/6 552/3/6
f 551/3/6 552/3/6 553/3/6
f 552/3/6 550/3/6 554/3/6
f 553/3/6 552/3/6 554/3/6
f 554/3/6 550/3/6 555/3/6
f 555/3/6 550/3/6 556/3/6
f 556/3/6 550/3/6 557/3/6
f 557/3/6 550/3/6 558/3/6
f 551/3/6 553/3/6 559/3/6
f 559/3/6 553/3/6 560/3/6
f 553/10/6 554/10/6 561/10/6
f 560/3/6 553/3/6 561/3/6
f 554/3/6 555/3/6 562/3/6
f 561/10/6 554/10/6 562/10/6
f 555/10/6 556/10/6 563/10/6
f 562/3/6 555/3/6 563/3/6
f 556/3/6 557/3/6 564/3/6
f 563/10/6 556/10/6 564/10/6
f 560/3/6 561/3/6 565/3/6
f 563/3/6 564/3/6 565/3/6
f 561/3/6 562/3/6 565/3/6
f 562/3/6 563/3/6 565/3/6
f 564/3/6 557/3/6 566/3/6
f 565/3/6 564/3/6 566/3/6
f 567/8/6 568/8/6 569/8/6
f 569/8/6 568/8/6 570/8/6
f 570/8/6 568/8/6 571/8/6
f 567/8/6 569/8/6 573/8/6
f 569/13/6 570/13/6 573/13/6
f 571/8/6 572/8/6 574/8/6
f 573/13/6 570/13/6 574/13/6
f 570/8/6 571/8/6 574/8/6
f 575/3/6 576/3/6 578/3/6
f 578/3/6 576/3/6 579/3/6
f 567/8/6 573/8/6 581/8/6
f 573/8/6 574/8/6 581/8/6
f 581/8/6 574/8/6 582/8/6
f 574/8/6 572/8/6 583/8/6
f 582/8/6 574/8/6 583/8/6
f 583/8/6 572/8/6 584/8/6
f 582/8/6 583/8/6 586/8/6
f 586/8/6 583/8/6 587/8/6
f 577/3/6 578/3/6 589/3/6
f 589/3/6 578/3/6 590/3/6
f 579/3/6 580/3/6 591/3/6
f 591/3/6 580/3/6 592/3/6
f 587/8/6 588/8/6 593/8/6
f 586/8/6 587/8/6 593/8/6
f 585/8/6 586/8/6 593/8/6
f 593/8/6 588/8/6 594/8/6
f 590/3/6 591/3/6 595/3/6
f 595/3/6 591/3/6 596/3/6
f 597/3/6 598/3/6 600/3/6
f 600/3/6 598/3/6 601/3/6
f 601/3/6 598/3/6 602/3/6
f 599/3/6 600/3/6 603/3/6
f 600/3/6 601/3/6 603/3/6
f 603/3/6 601/3/6 604/3/6
f 599/3/6 603/3/6 605/3/6
f 605/3/6 603/3/6 606/3/6
f 607/3/6 608/3/6 609/3/6
f 609/3/6 608/3/6 610/3/6
f 611/3/6 612/3/6 614/3/6
f 614/3/6 612/3/6 615/3/6
f 613/3/6 614/3/6 615/3/6
f 615/3/6 612/3/6 616/3/6
f 616/3/6 612/3/6 617/3/6
f 617/3/6 612/3/6 618/3/6
f 613/3/6 615/3/6 619/3/6
f 619/3/6 615/3/6 620/3/6
f 621/3/6 622/3/6 623/3/6
f 623/3/6 622/3/6 624/3/6
f 625/1/6 626/1/6 629/1/6
f 629/1/6 626/1/6 630/1/6
f 627/1/6 628/1/6 631/1/6
f 631/1/6 628/1/6 632/1/6
f 633/1/6 634/1/6 635/1/6
f 635/1/6 634/1/6 636/1/6
