# MagicaVoxel @ Ephtracy

# group
o 

# material
mtllib chapter_one_tile.mtl
usemtl palette

# normals
vn -1 0 0
vn 1 0 0
vn 0 0 1
vn 0 0 -1
vn 0 -1 0
vn 0 1 0

# texcoords
vt 0.423828 0.5
vt 0.548828 0.5
vt 0.689453 0.5
vt 0.720703 0.5
vt 0.837891 0.5
vt 0.958984 0.5

# verts
v -2 0.1 1.8
v -2 0.1 -1.8
v -2 0.3 1.8
v -2 0.3 -1.8
v -2 0.5 1.8
v -2 0.5 -1.8
v -1.8 0.1 2
v -1.8 0.1 1.8
v -1.8 0.1 -1.8
v -1.8 0.1 -2
v -1.8 0.3 2
v -1.8 0.3 1.8
v -1.8 0.3 -1.8
v -1.8 0.3 -2
v -1.8 0.5 2
v -1.8 0.5 1.8
v -1.8 0.5 -1.8
v -1.8 0.5 -2
v -1.7 0.6 0.6
v -1.7 0.6 0.4
v -1.7 0.7 1.6
v -1.7 0.7 1
v -1.7 0.7 0.6
v -1.7 0.7 0.4
v -1.7 0.8 1.3
v -1.7 0.8 1.2
v -1.7 0.9 1.3
v -1.7 0.9 1.2
v -1.7 1 1.6
v -1.7 1 1
v -1.6 0.5 0.6
v -1.6 0.5 0.4
v -1.6 0.5 -1.2
v -1.6 0.5 -1.6
v -1.6 0.6 0.7
v -1.6 0.6 0.6
v -1.6 0.6 0.4
v -1.6 0.6 0.3
v -1.6 0.7 1.7
v -1.6 0.7 1.6
v -1.6 0.7 1
v -1.6 0.7 0.9
v -1.6 0.7 0.7
v -1.6 0.7 0.6
v -1.6 0.7 0.4
v -1.6 0.7 0.3
v -1.6 0.7 -1.2
v -1.6 0.7 -1.4
v -1.6 0.8 0.6
v -1.6 0.8 0.4
v -1.6 0.9 -1.4
v -1.6 0.9 -1.6
v -1.6 1 1.7
v -1.6 1 1.6
v -1.6 1 1.5
v -1.6 1 1.1
v -1.6 1 1
v -1.6 1 0.9
v -1.6 1.1 1.5
v -1.6 1.1 1.1
v -1.5 0.5 1.5
v -1.5 0.5 1.1
v -1.5 0.7 1.5
v -1.5 0.7 1.1
v -1.5 1 1.6
v -1.5 1 1.5
v -1.5 1 1.1
v -1.5 1 1
v -1.5 1.1 1.6
v -1.5 1.1 1.5
v -1.5 1.1 1.1
v -1.5 1.1 1
v 1 0.5 -1.4
v 1 0.5 -1.6
v 1 0.6 -1.4
v 1 0.6 -1.6
v 1.2 0.5 -1.2
v 1.2 0.5 -1.3
v 1.2 0.6 -1.2
v 1.2 0.6 -1.3
v 1.3 0.5 1.7
v 1.3 0.5 1.5
v 1.3 0.9 1.7
v 1.3 0.9 1.5
v 1.4 0.5 -1.3
v 1.4 0.5 -1.6
v 1.4 0.6 -1.3
v 1.4 0.6 -1.6
v 1.5 0.5 1.5
v 1.5 0.5 1.3
v 1.5 0.5 -0.9
v 1.5 0.5 -1.1
v 1.5 0.7 1.5
v 1.5 0.7 1.3
v 1.5 0.7 -0.9
v 1.5 0.7 -1.1
v -1.4 0.5 0.6
v -1.4 0.5 0.4
v -1.4 0.5 -1.4
v -1.4 0.5 -1.6
v -1.4 0.6 0.7
v -1.4 0.6 0.6
v -1.4 0.6 0.4
v -1.4 0.6 0.3
v -1.4 0.7 0.7
v -1.4 0.7 0.6
v -1.4 0.7 0.5
v -1.4 0.7 0.4
v -1.4 0.7 0.3
v -1.4 0.7 -1.4
v -1.4 0.8 0.6
v -1.4 0.8 0.5
v -1.4 0.8 0.4
v -1.4 0.9 -1.4
v -1.4 0.9 -1.6
v -1.3 0.6 0.6
v -1.3 0.6 0.4
v -1.3 0.7 0.6
v -1.3 0.7 0.4
v -1.2 0.5 -1.2
v -1.2 0.5 -1.4
v -1.2 0.7 -1.2
v -1.2 0.7 -1.4
v -1.1 0.5 1.5
v -1.1 0.5 1.1
v -1.1 0.7 1.5
v -1.1 0.7 1.1
v -1.1 1 1.6
v -1.1 1 1.5
v -1.1 1 1.1
v -1.1 1 1
v -1.1 1.1 1.6
v -1.1 1.1 1.5
v -1.1 1.1 1.1
v -1.1 1.1 1
v -1 0.7 1.7
v -1 0.7 1.6
v -1 0.7 1
v -1 0.7 0.9
v -1 1 1.7
v -1 1 1.6
v -1 1 1.5
v -1 1 1.1
v -1 1 1
v -1 1 0.9
v -1 1.1 1.5
v -1 1.1 1.1
v -0.9 0.7 1.6
v -0.9 0.7 1
v -0.9 0.8 1.2
v -0.9 0.8 1.1
v -0.9 0.9 1.2
v -0.9 0.9 1.1
v -0.9 1 1.6
v -0.9 1 1
v 1.2 0.5 -1.4
v 1.2 0.5 -1.6
v 1.2 0.6 -1.4
v 1.2 0.6 -1.6
v 1.3 0.5 -1.2
v 1.3 0.5 -1.3
v 1.3 0.6 -1.2
v 1.3 0.6 -1.3
v 1.5 0.5 1.7
v 1.5 0.5 1.5
v 1.5 0.7 1.5
v 1.5 0.9 1.7
v 1.5 0.9 1.5
v 1.7 0.5 1.5
v 1.7 0.5 1.3
v 1.7 0.5 -0.9
v 1.7 0.5 -1.1
v 1.7 0.5 -1.3
v 1.7 0.5 -1.6
v 1.7 0.6 -1.3
v 1.7 0.6 -1.6
v 1.7 0.7 1.5
v 1.7 0.7 1.3
v 1.7 0.7 -0.9
v 1.7 0.7 -1.1
v 1.8 0.1 2
v 1.8 0.1 1.8
v 1.8 0.1 -1.8
v 1.8 0.1 -2
v 1.8 0.3 2
v 1.8 0.3 1.8
v 1.8 0.3 -1.8
v 1.8 0.3 -2
v 1.8 0.5 2
v 1.8 0.5 1.8
v 1.8 0.5 -1.8
v 1.8 0.5 -2
v 2 0.1 1.8
v 2 0.1 -1.8
v 2 0.3 1.8
v 2 0.3 -1.8
v 2 0.5 1.8
v 2 0.5 -1.8
v -1.8 0.1 2
v -1.8 0.3 2
v -1.8 0.5 2
v 1.8 0.1 2
v 1.8 0.3 2
v 1.8 0.5 2
v -2 0.1 1.8
v -2 0.3 1.8
v -2 0.5 1.8
v -1.8 0.1 1.8
v -1.8 0.3 1.8
v -1.8 0.5 1.8
v 1.8 0.1 1.8
v 1.8 0.3 1.8
v 1.8 0.5 1.8
v 2 0.1 1.8
v 2 0.3 1.8
v 2 0.5 1.8
v -1.6 0.7 1.7
v -1.6 1 1.7
v -1.5 0.8 1.7
v -1.5 0.9 1.7
v -1.4 0.8 1.7
v -1.4 0.9 1.7
v -1 0.7 1.7
v -1 1 1.7
v 1.3 0.5 1.7
v 1.3 0.9 1.7
v 1.5 0.5 1.7
v 1.5 0.9 1.7
v -1.7 0.7 1.6
v -1.7 1 1.6
v -1.6 0.7 1.6
v -1.6 1 1.6
v -1.5 1 1.6
v -1.5 1.1 1.6
v -1.1 1 1.6
v -1.1 1.1 1.6
v -1 0.7 1.6
v -1 1 1.6
v -0.9 0.7 1.6
v -0.9 1 1.6
v -1.6 1 1.5
v -1.6 1.1 1.5
v -1.5 0.5 1.5
v -1.5 0.7 1.5
v -1.5 1 1.5
v -1.5 1.1 1.5
v -1.1 0.5 1.5
v -1.1 0.7 1.5
v -1.1 1 1.5
v -1.1 1.1 1.5
v -1 1 1.5
v -1 1.1 1.5
v 1.5 0.5 1.5
v 1.5 0.7 1.5
v 1.7 0.5 1.5
v 1.7 0.7 1.5
v -1.6 0.6 0.7
v -1.6 0.7 0.7
v -1.4 0.6 0.7
v -1.4 0.7 0.7
v -1.7 0.6 0.6
v -1.7 0.7 0.6
v -1.6 0.5 0.6
v -1.6 0.6 0.6
v -1.6 0.7 0.6
v -1.6 0.8 0.6
v -1.4 0.5 0.6
v -1.4 0.6 0.6
v -1.4 0.7 0.6
v -1.4 0.8 0.6
v -1.3 0.6 0.6
v -1.3 0.7 0.6
v 1.5 0.5 -0.9
v 1.5 0.7 -0.9
v 1.7 0.5 -0.9
v 1.7 0.7 -0.9
v -1.6 0.5 -1.2
v -1.6 0.7 -1.2
v -1.2 0.5 -1.2
v -1.2 0.7 -1.2
v 1.2 0.5 -1.2
v 1.2 0.6 -1.2
v 1.3 0.5 -1.2
v 1.3 0.6 -1.2
v 1.4 0.5 -1.3
v 1.4 0.6 -1.3
v 1.7 0.5 -1.3
v 1.7 0.6 -1.3
v -1.6 0.7 -1.4
v -1.6 0.9 -1.4
v -1.4 0.7 -1.4
v -1.4 0.9 -1.4
v 1 0.5 -1.4
v 1 0.6 -1.4
v 1.2 0.5 -1.4
v 1.2 0.6 -1.4
v 1.3 0.5 1.5
v 1.3 0.9 1.5
v 1.5 0.5 1.5
v 1.5 0.7 1.5
v 1.5 0.9 1.5
v 1.5 0.5 1.3
v 1.5 0.7 1.3
v 1.7 0.5 1.3
v 1.7 0.7 1.3
v -1.6 1 1.1
v -1.6 1.1 1.1
v -1.5 0.5 1.1
v -1.5 0.7 1.1
v -1.5 1 1.1
v -1.5 1.1 1.1
v -1.1 0.5 1.1
v -1.1 0.7 1.1
v -1.1 1 1.1
v -1.1 1.1 1.1
v -1 1 1.1
v -1 1.1 1.1
v -1.7 0.7 1
v -1.7 1 1
v -1.6 0.7 1
v -1.6 1 1
v -1.5 1 1
v -1.5 1.1 1
v -1.1 1 1
v -1.1 1.1 1
v -1 0.7 1
v -1 1 1
v -0.9 0.7 1
v -0.9 1 1
v -1.6 0.7 0.9
v -1.6 1 0.9
v -1.4 0.7 0.9
v -1.4 0.8 0.9
v -1.3 0.7 0.9
v -1.3 0.8 0.9
v -1 0.7 0.9
v -1 1 0.9
v -1.7 0.6 0.4
v -1.7 0.7 0.4
v -1.6 0.5 0.4
v -1.6 0.6 0.4
v -1.6 0.7 0.4
v -1.6 0.8 0.4
v -1.5 0.7 0.4
v -1.5 0.8 0.4
v -1.4 0.5 0.4
v -1.4 0.6 0.4
v -1.4 0.7 0.4
v -1.4 0.8 0.4
v -1.3 0.6 0.4
v -1.3 0.7 0.4
v -1.6 0.6 0.3
v -1.6 0.7 0.3
v -1.4 0.6 0.3
v -1.4 0.7 0.3
v 1.5 0.5 -1.1
v 1.5 0.7 -1.1
v 1.7 0.5 -1.1
v 1.7 0.7 -1.1
v 1.2 0.5 -1.3
v 1.2 0.6 -1.3
v 1.3 0.5 -1.3
v 1.3 0.6 -1.3
v -1.4 0.5 -1.4
v -1.4 0.7 -1.4
v -1.2 0.5 -1.4
v -1.2 0.7 -1.4
v -1.6 0.5 -1.6
v -1.6 0.9 -1.6
v -1.4 0.5 -1.6
v -1.4 0.9 -1.6
v 1 0.5 -1.6
v 1 0.6 -1.6
v 1.2 0.5 -1.6
v 1.2 0.6 -1.6
v 1.4 0.5 -1.6
v 1.4 0.6 -1.6
v 1.7 0.5 -1.6
v 1.7 0.6 -1.6
v -2 0.1 -1.8
v -2 0.3 -1.8
v -2 0.5 -1.8
v -1.8 0.1 -1.8
v -1.8 0.3 -1.8
v -1.8 0.5 -1.8
v 1.8 0.1 -1.8
v 1.8 0.3 -1.8
v 1.8 0.5 -1.8
v 2 0.1 -1.8
v 2 0.3 -1.8
v 2 0.5 -1.8
v -1.8 0.1 -2
v -1.8 0.3 -2
v -1.8 0.5 -2
v 1.8 0.1 -2
v 1.8 0.3 -2
v 1.8 0.5 -2
v -1.8 0.1 2
v 1.8 0.1 2
v -2 0.1 1.8
v -1.8 0.1 1.8
v 1.8 0.1 1.8
v 2 0.1 1.8
v -2 0.1 -1.8
v -1.8 0.1 -1.8
v 1.8 0.1 -1.8
v 2 0.1 -1.8
v -1.8 0.1 -2
v 1.8 0.1 -2
v -1.6 0.6 0.7
v -1.4 0.6 0.7
v -1.7 0.6 0.6
v -1.6 0.6 0.6
v -1.4 0.6 0.6
v -1.3 0.6 0.6
v -1.7 0.6 0.4
v -1.6 0.6 0.4
v -1.4 0.6 0.4
v -1.3 0.6 0.4
v -1.6 0.6 0.3
v -1.4 0.6 0.3
v -1.6 0.7 1.7
v -1 0.7 1.7
v -1.7 0.7 1.6
v -1.6 0.7 1.6
v -1 0.7 1.6
v -0.9 0.7 1.6
v -1.5 0.7 1.5
v -1.1 0.7 1.5
v -1.5 0.7 1.1
v -1.1 0.7 1.1
v -1.7 0.7 1
v -1.6 0.7 1
v -1.4 0.7 1
v -1.3 0.7 1
v -1 0.7 1
v -0.9 0.7 1
v -1.6 0.7 0.9
v -1.4 0.7 0.9
v -1.3 0.7 0.9
v -1 0.7 0.9
v -1.8 0.5 2
v 1.8 0.5 2
v -2 0.5 1.8
v -1.8 0.5 1.8
v 1.8 0.5 1.8
v 2 0.5 1.8
v 1.3 0.5 1.7
v 1.5 0.5 1.7
v -1.5 0.5 1.5
v -1.1 0.5 1.5
v 1.3 0.5 1.5
v 1.5 0.5 1.5
v 1.7 0.5 1.5
v 1.5 0.5 1.3
v 1.7 0.5 1.3
v -1.5 0.5 1.1
v -1.1 0.5 1.1
v -1.6 0.5 0.6
v -1.4 0.5 0.6
v -1.6 0.5 0.4
v -1.4 0.5 0.4
v 1.5 0.5 -0.9
v 1.7 0.5 -0.9
v 1.5 0.5 -1.1
v 1.7 0.5 -1.1
v -1.6 0.5 -1.2
v -1.2 0.5 -1.2
v 1.2 0.5 -1.2
v 1.3 0.5 -1.2
v 1.2 0.5 -1.3
v 1.3 0.5 -1.3
v 1.4 0.5 -1.3
v 1.7 0.5 -1.3
v -1.4 0.5 -1.4
v -1.2 0.5 -1.4
v 1 0.5 -1.4
v 1.2 0.5 -1.4
v -1.6 0.5 -1.6
v -1.4 0.5 -1.6
v 1 0.5 -1.6
v 1.2 0.5 -1.6
v 1.4 0.5 -1.6
v 1.7 0.5 -1.6
v -2 0.5 -1.8
v -1.8 0.5 -1.8
v 1.8 0.5 -1.8
v 2 0.5 -1.8
v -1.8 0.5 -2
v 1.8 0.5 -2
v 1.2 0.6 -1.2
v 1.3 0.6 -1.2
v 1.2 0.6 -1.3
v 1.3 0.6 -1.3
v 1.4 0.6 -1.3
v 1.7 0.6 -1.3
v 1 0.6 -1.4
v 1.2 0.6 -1.4
v 1.5 0.6 -1.4
v 1.6 0.6 -1.4
v 1.5 0.6 -1.5
v 1.6 0.6 -1.5
v 1 0.6 -1.6
v 1.2 0.6 -1.6
v 1.4 0.6 -1.6
v 1.7 0.6 -1.6
v 1.5 0.7 1.5
v 1.7 0.7 1.5
v 1.5 0.7 1.3
v 1.7 0.7 1.3
v -1.6 0.7 0.7
v -1.4 0.7 0.7
v -1.7 0.7 0.6
v -1.6 0.7 0.6
v -1.4 0.7 0.6
v -1.3 0.7 0.6
v -1.4 0.7 0.5
v -1.7 0.7 0.4
v -1.6 0.7 0.4
v -1.5 0.7 0.4
v -1.4 0.7 0.4
v -1.3 0.7 0.4
v -1.6 0.7 0.3
v -1.4 0.7 0.3
v 1.5 0.7 -0.9
v 1.7 0.7 -0.9
v 1.5 0.7 -1.1
v 1.7 0.7 -1.1
v -1.6 0.7 -1.2
v -1.2 0.7 -1.2
v -1.6 0.7 -1.4
v -1.4 0.7 -1.4
v -1.2 0.7 -1.4
v -1.6 0.8 0.6
v -1.4 0.8 0.6
v -1.5 0.8 0.5
v -1.4 0.8 0.5
v -1.6 0.8 0.4
v -1.5 0.8 0.4
v -1.4 0.8 0.4
v 1.3 0.9 1.7
v 1.5 0.9 1.7
v 1.3 0.9 1.5
v 1.5 0.9 1.5
v -1.6 0.9 -1.4
v -1.4 0.9 -1.4
v -1.6 0.9 -1.6
v -1.4 0.9 -1.6
v -1.6 1 1.7
v -1 1 1.7
v -1.7 1 1.6
v -1.6 1 1.6
v -1.5 1 1.6
v -1.1 1 1.6
v -1 1 1.6
v -0.9 1 1.6
v -1.6 1 1.5
v -1.5 1 1.5
v -1.1 1 1.5
v -1 1 1.5
v -1.6 1 1.1
v -1.5 1 1.1
v -1.1 1 1.1
v -1 1 1.1
v -1.7 1 1
v -1.6 1 1
v -1.5 1 1
v -1.1 1 1
v -1 1 1
v -0.9 1 1
v -1.6 1 0.9
v -1 1 0.9
v -1.5 1.1 1.6
v -1.1 1.1 1.6
v -1.6 1.1 1.5
v -1.5 1.1 1.5
v -1.2 1.1 1.5
v -1.1 1.1 1.5
v -1 1.1 1.5
v -1.2 1.1 1.4
v -1.1 1.1 1.4
v -1.5 1.1 1.2
v -1.4 1.1 1.2
v -1.6 1.1 1.1
v -1.5 1.1 1.1
v -1.4 1.1 1.1
v -1.1 1.1 1.1
v -1 1.1 1.1
v -1.5 1.1 1
v -1.1 1.1 1

# faces
f 3/2/1 2/2/1 1/2/1
f 4/2/1 2/2/1 3/2/1
f 5/1/1 4/1/1 3/1/1
f 6/1/1 4/1/1 5/1/1
f 11/2/1 8/2/1 7/2/1
f 12/2/1 8/2/1 11/2/1
f 13/2/1 10/2/1 9/2/1
f 14/2/1 10/2/1 13/2/1
f 15/1/1 12/1/1 11/1/1
f 16/1/1 12/1/1 15/1/1
f 17/1/1 14/1/1 13/1/1
f 18/1/1 14/1/1 17/1/1
f 23/4/1 20/4/1 19/4/1
f 24/4/1 20/4/1 23/4/1
f 25/4/1 22/4/1 21/4/1
f 26/4/1 22/4/1 25/4/1
f 27/4/1 25/4/1 21/4/1
f 27/6/1 26/6/1 25/6/1
f 28/4/1 22/4/1 26/4/1
f 28/6/1 26/6/1 27/6/1
f 29/4/1 27/4/1 21/4/1
f 29/4/1 28/4/1 27/4/1
f 30/4/1 22/4/1 28/4/1
f 30/4/1 28/4/1 29/4/1
f 36/3/1 32/3/1 31/3/1
f 37/3/1 32/3/1 36/3/1
f 43/4/1 36/4/1 35/4/1
f 44/4/1 36/4/1 43/4/1
f 45/4/1 38/4/1 37/4/1
f 46/4/1 38/4/1 45/4/1
f 47/1/1 34/1/1 33/1/1
f 48/1/1 34/1/1 47/1/1
f 49/4/1 45/4/1 44/4/1
f 50/4/1 45/4/1 49/4/1
f 51/1/1 34/1/1 48/1/1
f 52/1/1 34/1/1 51/1/1
f 53/4/1 40/4/1 39/4/1
f 54/4/1 40/4/1 53/4/1
f 57/4/1 42/4/1 41/4/1
f 58/4/1 42/4/1 57/4/1
f 59/4/1 56/4/1 55/4/1
f 60/4/1 56/4/1 59/4/1
f 63/3/1 62/3/1 61/3/1
f 64/3/1 62/3/1 63/3/1
f 69/4/1 66/4/1 65/4/1
f 70/4/1 66/4/1 69/4/1
f 71/4/1 68/4/1 67/4/1
f 72/4/1 68/4/1 71/4/1
f 75/4/1 74/4/1 73/4/1
f 76/4/1 74/4/1 75/4/1
f 79/4/1 78/4/1 77/4/1
f 80/4/1 78/4/1 79/4/1
f 83/1/1 82/1/1 81/1/1
f 84/1/1 82/1/1 83/1/1
f 87/4/1 86/4/1 85/4/1
f 88/4/1 86/4/1 87/4/1
f 93/1/1 90/1/1 89/1/1
f 94/1/1 90/1/1 93/1/1
f 95/1/1 92/1/1 91/1/1
f 96/1/1 92/1/1 95/1/1
f 97/3/2 98/3/2 102/3/2
f 102/3/2 98/3/2 103/3/2
f 101/4/2 102/4/2 105/4/2
f 105/4/2 102/4/2 106/4/2
f 103/4/2 104/4/2 108/4/2
f 108/4/2 104/4/2 109/4/2
f 99/1/2 100/1/2 110/1/2
f 106/4/2 107/4/2 111/4/2
f 107/6/2 108/6/2 112/6/2
f 111/4/2 107/4/2 112/4/2
f 112/6/2 108/6/2 113/6/2
f 110/1/2 100/1/2 114/1/2
f 114/1/2 100/1/2 115/1/2
f 116/4/2 117/4/2 118/4/2
f 118/4/2 117/4/2 119/4/2
f 120/1/2 121/1/2 122/1/2
f 122/1/2 121/1/2 123/1/2
f 124/3/2 125/3/2 126/3/2
f 126/3/2 125/3/2 127/3/2
f 128/4/2 129/4/2 132/4/2
f 132/4/2 129/4/2 133/4/2
f 130/4/2 131/4/2 134/4/2
f 134/4/2 131/4/2 135/4/2
f 136/4/2 137/4/2 140/4/2
f 140/4/2 137/4/2 141/4/2
f 138/4/2 139/4/2 144/4/2
f 144/4/2 139/4/2 145/4/2
f 142/4/2 143/4/2 146/4/2
f 146/4/2 143/4/2 147/4/2
f 148/4/2 149/4/2 150/4/2
f 150/4/2 149/4/2 151/4/2
f 148/4/2 150/4/2 152/4/2
f 150/6/2 151/6/2 152/6/2
f 151/4/2 149/4/2 153/4/2
f 152/6/2 151/6/2 153/6/2
f 148/4/2 152/4/2 154/4/2
f 152/4/2 153/4/2 154/4/2
f 153/4/2 149/4/2 155/4/2
f 154/4/2 153/4/2 155/4/2
f 156/4/2 157/4/2 158/4/2
f 158/4/2 157/4/2 159/4/2
f 160/4/2 161/4/2 162/4/2
f 162/4/2 161/4/2 163/4/2
f 164/1/2 165/1/2 166/1/2
f 164/1/2 166/1/2 167/1/2
f 167/1/2 166/1/2 168/1/2
f 173/4/2 174/4/2 175/4/2
f 175/4/2 174/4/2 176/4/2
f 169/1/2 170/1/2 177/1/2
f 177/1/2 170/1/2 178/1/2
f 171/1/2 172/1/2 179/1/2
f 179/1/2 172/1/2 180/1/2
f 181/2/2 182/2/2 185/2/2
f 185/2/2 182/2/2 186/2/2
f 183/2/2 184/2/2 187/2/2
f 187/2/2 184/2/2 188/2/2
f 185/1/2 186/1/2 189/1/2
f 189/1/2 186/1/2 190/1/2
f 187/1/2 188/1/2 191/1/2
f 191/1/2 188/1/2 192/1/2
f 193/2/2 194/2/2 195/2/2
f 195/2/2 194/2/2 196/2/2
f 195/1/2 196/1/2 197/1/2
f 197/1/2 196/1/2 198/1/2
f 202/2/3 200/2/3 199/2/3
f 203/1/3 201/1/3 200/1/3
f 203/2/3 200/2/3 202/2/3
f 204/1/3 201/1/3 203/1/3
f 208/2/3 206/2/3 205/2/3
f 209/1/3 207/1/3 206/1/3
f 209/2/3 206/2/3 208/2/3
f 210/1/3 207/1/3 209/1/3
f 214/2/3 212/2/3 211/2/3
f 215/1/3 213/1/3 212/1/3
f 215/2/3 212/2/3 214/2/3
f 216/1/3 213/1/3 215/1/3
f 219/4/3 218/4/3 217/4/3
f 220/4/3 218/4/3 219/4/3
f 221/4/3 219/4/3 217/4/3
f 221/6/3 220/6/3 219/6/3
f 222/4/3 218/4/3 220/4/3
f 222/6/3 220/6/3 221/6/3
f 223/4/3 221/4/3 217/4/3
f 223/4/3 222/4/3 221/4/3
f 224/4/3 218/4/3 222/4/3
f 224/4/3 222/4/3 223/4/3
f 227/1/3 226/1/3 225/1/3
f 228/1/3 226/1/3 227/1/3
f 231/4/3 230/4/3 229/4/3
f 232/4/3 230/4/3 231/4/3
f 235/4/3 234/4/3 233/4/3
f 236/4/3 234/4/3 235/4/3
f 239/4/3 238/4/3 237/4/3
f 240/4/3 238/4/3 239/4/3
f 245/4/3 242/4/3 241/4/3
f 246/4/3 242/4/3 245/4/3
f 247/3/3 244/3/3 243/3/3
f 248/3/3 244/3/3 247/3/3
f 251/4/3 250/4/3 249/4/3
f 252/4/3 250/4/3 251/4/3
f 255/1/3 254/1/3 253/1/3
f 256/1/3 254/1/3 255/1/3
f 259/4/3 258/4/3 257/4/3
f 260/4/3 258/4/3 259/4/3
f 264/4/3 262/4/3 261/4/3
f 265/4/3 262/4/3 264/4/3
f 267/3/3 264/3/3 263/3/3
f 268/3/3 264/3/3 267/3/3
f 269/4/3 266/4/3 265/4/3
f 270/4/3 266/4/3 269/4/3
f 271/4/3 269/4/3 268/4/3
f 272/4/3 269/4/3 271/4/3
f 275/1/3 274/1/3 273/1/3
f 276/1/3 274/1/3 275/1/3
f 279/1/3 278/1/3 277/1/3
f 280/1/3 278/1/3 279/1/3
f 283/4/3 282/4/3 281/4/3
f 284/4/3 282/4/3 283/4/3
f 287/4/3 286/4/3 285/4/3
f 288/4/3 286/4/3 287/4/3
f 291/1/3 290/1/3 289/1/3
f 292/1/3 290/1/3 291/1/3
f 295/4/3 294/4/3 293/4/3
f 296/4/3 294/4/3 295/4/3
f 297/1/4 298/1/4 299/1/4
f 299/1/4 298/1/4 300/1/4
f 300/1/4 298/1/4 301/1/4
f 302/1/4 303/1/4 304/1/4
f 304/1/4 303/1/4 305/1/4
f 306/4/4 307/4/4 310/4/4
f 310/4/4 307/4/4 311/4/4
f 308/3/4 309/3/4 312/3/4
f 312/3/4 309/3/4 313/3/4
f 314/4/4 315/4/4 316/4/4
f 316/4/4 315/4/4 317/4/4
f 318/4/4 319/4/4 320/4/4
f 320/4/4 319/4/4 321/4/4
f 322/4/4 323/4/4 324/4/4
f 324/4/4 323/4/4 325/4/4
f 326/4/4 327/4/4 328/4/4
f 328/4/4 327/4/4 329/4/4
f 330/4/4 331/4/4 332/4/4
f 332/4/4 331/4/4 333/4/4
f 332/6/4 333/6/4 334/6/4
f 333/4/4 331/4/4 335/4/4
f 334/6/4 333/6/4 335/6/4
f 334/4/4 335/4/4 336/4/4
f 335/4/4 331/4/4 337/4/4
f 336/4/4 335/4/4 337/4/4
f 338/4/4 339/4/4 341/4/4
f 341/4/4 339/4/4 342/4/4
f 342/4/4 343/4/4 344/4/4
f 344/4/4 343/4/4 345/4/4
f 340/3/4 341/3/4 346/3/4
f 346/3/4 341/3/4 347/3/4
f 344/6/4 345/6/4 348/6/4
f 348/6/4 345/6/4 349/6/4
f 347/4/4 348/4/4 350/4/4
f 350/4/4 348/4/4 351/4/4
f 352/4/4 353/4/4 354/4/4
f 354/4/4 353/4/4 355/4/4
f 356/1/4 357/1/4 358/1/4
f 358/1/4 357/1/4 359/1/4
f 360/4/4 361/4/4 362/4/4
f 362/4/4 361/4/4 363/4/4
f 364/1/4 365/1/4 366/1/4
f 366/1/4 365/1/4 367/1/4
f 368/1/4 369/1/4 370/1/4
f 370/1/4 369/1/4 371/1/4
f 372/4/4 373/4/4 374/4/4
f 374/4/4 373/4/4 375/4/4
f 376/4/4 377/4/4 378/4/4
f 378/4/4 377/4/4 379/4/4
f 380/2/4 381/2/4 383/2/4
f 381/1/4 382/1/4 384/1/4
f 383/2/4 381/2/4 384/2/4
f 384/1/4 382/1/4 385/1/4
f 386/2/4 387/2/4 389/2/4
f 387/1/4 388/1/4 390/1/4
f 389/2/4 387/2/4 390/2/4
f 390/1/4 388/1/4 391/1/4
f 392/2/4 393/2/4 395/2/4
f 393/1/4 394/1/4 396/1/4
f 395/2/4 393/2/4 396/2/4
f 396/1/4 394/1/4 397/1/4
f 401/2/5 399/2/5 398/2/5
f 402/2/5 399/2/5 401/2/5
f 404/2/5 401/2/5 400/2/5
f 404/2/5 403/2/5 402/2/5
f 404/2/5 402/2/5 401/2/5
f 405/2/5 403/2/5 404/2/5
f 406/2/5 403/2/5 405/2/5
f 407/2/5 403/2/5 406/2/5
f 408/2/5 406/2/5 405/2/5
f 409/2/5 406/2/5 408/2/5
f 413/4/5 411/4/5 410/4/5
f 414/4/5 411/4/5 413/4/5
f 416/4/5 413/4/5 412/4/5
f 417/4/5 413/4/5 416/4/5
f 418/4/5 415/4/5 414/4/5
f 419/4/5 415/4/5 418/4/5
f 420/4/5 418/4/5 417/4/5
f 421/4/5 418/4/5 420/4/5
f 425/4/5 423/4/5 422/4/5
f 426/4/5 423/4/5 425/4/5
f 428/6/5 426/6/5 425/6/5
f 429/6/5 426/6/5 428/6/5
f 430/6/5 428/6/5 425/6/5
f 431/6/5 426/6/5 429/6/5
f 432/4/5 425/4/5 424/4/5
f 433/6/5 431/6/5 430/6/5
f 433/4/5 425/4/5 432/4/5
f 433/6/5 430/6/5 425/6/5
f 434/6/5 431/6/5 433/6/5
f 435/6/5 431/6/5 434/6/5
f 436/4/5 427/4/5 426/4/5
f 436/6/5 431/6/5 435/6/5
f 436/6/5 426/6/5 431/6/5
f 437/4/5 427/4/5 436/4/5
f 438/4/5 434/4/5 433/4/5
f 439/6/5 435/6/5 434/6/5
f 439/4/5 434/4/5 438/4/5
f 440/4/5 436/4/5 435/4/5
f 440/6/5 435/6/5 439/6/5
f 441/4/5 436/4/5 440/4/5
f 442/1/6 443/1/6 445/1/6
f 445/1/6 443/1/6 446/1/6
f 444/1/6 445/1/6 448/1/6
f 446/1/6 447/1/6 448/1/6
f 445/1/6 446/1/6 448/1/6
f 448/1/6 447/1/6 449/1/6
f 444/1/6 448/1/6 450/1/6
f 450/1/6 448/1/6 451/1/6
f 451/1/6 448/1/6 452/1/6
f 449/1/6 447/1/6 453/1/6
f 453/1/6 447/1/6 454/1/6
f 451/1/6 452/1/6 455/1/6
f 452/1/6 453/1/6 455/1/6
f 454/1/6 447/1/6 456/1/6
f 444/1/6 450/1/6 457/1/6
f 451/1/6 455/1/6 458/1/6
f 455/1/6 456/1/6 458/1/6
f 444/1/6 457/1/6 459/1/6
f 457/1/6 458/1/6 459/1/6
f 459/1/6 458/1/6 460/1/6
f 444/1/6 459/1/6 461/1/6
f 460/1/6 458/1/6 462/1/6
f 458/1/6 456/1/6 463/1/6
f 461/1/6 462/1/6 463/1/6
f 462/1/6 458/1/6 463/1/6
f 456/1/6 447/1/6 464/1/6
f 463/1/6 456/1/6 464/1/6
f 461/1/6 463/1/6 465/1/6
f 464/1/6 447/1/6 466/1/6
f 461/1/6 465/1/6 467/1/6
f 465/1/6 466/1/6 467/1/6
f 444/1/6 461/1/6 467/1/6
f 467/1/6 466/1/6 468/1/6
f 468/1/6 466/1/6 469/1/6
f 469/1/6 466/1/6 470/1/6
f 468/1/6 469/1/6 471/1/6
f 470/1/6 466/1/6 472/1/6
f 472/1/6 466/1/6 473/1/6
f 466/1/6 447/1/6 474/1/6
f 473/1/6 466/1/6 474/1/6
f 472/1/6 473/1/6 476/1/6
f 468/1/6 471/1/6 476/1/6
f 471/1/6 472/1/6 476/1/6
f 476/1/6 473/1/6 477/1/6
f 477/1/6 473/1/6 478/1/6
f 444/1/6 467/1/6 479/1/6
f 475/1/6 476/1/6 480/1/6
f 476/1/6 477/1/6 480/1/6
f 480/1/6 477/1/6 481/1/6
f 478/1/6 473/1/6 482/1/6
f 482/1/6 473/1/6 483/1/6
f 474/1/6 447/1/6 484/1/6
f 482/1/6 483/1/6 485/1/6
f 483/1/6 484/1/6 485/1/6
f 480/1/6 481/1/6 485/1/6
f 444/1/6 479/1/6 485/1/6
f 481/1/6 482/1/6 485/1/6
f 479/1/6 480/1/6 485/1/6
f 485/1/6 484/1/6 486/1/6
f 484/1/6 447/1/6 487/1/6
f 486/1/6 484/1/6 487/1/6
f 487/1/6 447/1/6 488/1/6
f 486/1/6 487/1/6 489/1/6
f 489/1/6 487/1/6 490/1/6
f 491/4/6 492/4/6 493/4/6
f 493/4/6 492/4/6 494/4/6
f 495/4/6 496/4/6 499/4/6
f 499/4/6 496/4/6 500/4/6
f 495/4/6 499/4/6 501/4/6
f 499/5/6 500/5/6 501/5/6
f 500/4/6 496/4/6 502/4/6
f 501/5/6 500/5/6 502/5/6
f 497/4/6 498/4/6 503/4/6
f 503/4/6 498/4/6 504/4/6
f 495/4/6 501/4/6 505/4/6
f 501/4/6 502/4/6 505/4/6
f 502/4/6 496/4/6 506/4/6
f 505/4/6 502/4/6 506/4/6
f 507/1/6 508/1/6 509/1/6
f 509/1/6 508/1/6 510/1/6
f 511/4/6 512/4/6 514/4/6
f 514/4/6 512/4/6 515/4/6
f 515/4/6 516/4/6 517/4/6
f 513/4/6 514/4/6 518/4/6
f 518/4/6 514/4/6 519/4/6
f 517/4/6 516/4/6 521/4/6
f 521/4/6 516/4/6 522/4/6
f 519/4/6 520/4/6 523/4/6
f 520/4/6 521/4/6 523/4/6
f 523/4/6 521/4/6 524/4/6
f 525/1/6 526/1/6 527/1/6
f 527/1/6 526/1/6 528/1/6
f 529/1/6 530/1/6 531/1/6
f 531/1/6 530/1/6 532/1/6
f 532/1/6 530/1/6 533/1/6
f 534/4/6 535/4/6 536/4/6
f 536/4/6 535/4/6 537/4/6
f 534/4/6 536/4/6 538/4/6
f 536/6/6 537/6/6 539/6/6
f 538/4/6 536/4/6 539/4/6
f 539/6/6 537/6/6 540/6/6
f 541/1/6 542/1/6 543/1/6
f 543/1/6 542/1/6 544/1/6
f 545/1/6 546/1/6 547/1/6
f 547/1/6 546/1/6 548/1/6
f 549/4/6 550/4/6 552/4/6
f 552/4/6 550/4/6 553/4/6
f 553/4/6 550/4/6 554/4/6
f 554/4/6 550/4/6 555/4/6
f 551/4/6 552/4/6 557/4/6
f 552/4/6 553/4/6 557/4/6
f 557/4/6 553/4/6 558/4/6
f 555/4/6 556/4/6 559/4/6
f 554/4/6 555/4/6 559/4/6
f 559/4/6 556/4/6 560/4/6
f 551/4/6 557/4/6 561/4/6
f 560/4/6 556/4/6 564/4/6
f 561/4/6 562/4/6 565/4/6
f 551/4/6 561/4/6 565/4/6
f 565/4/6 562/4/6 566/4/6
f 566/4/6 562/4/6 567/4/6
f 563/4/6 564/4/6 568/4/6
f 564/4/6 556/4/6 569/4/6
f 568/4/6 564/4/6 569/4/6
f 569/4/6 556/4/6 570/4/6
f 566/4/6 567/4/6 571/4/6
f 567/4/6 568/4/6 571/4/6
f 568/4/6 569/4/6 571/4/6
f 571/4/6 569/4/6 572/4/6
f 573/4/6 574/4/6 576/4/6
f 576/4/6 574/4/6 577/4/6
f 577/4/6 574/4/6 578/4/6
f 575/4/6 576/4/6 580/4/6
f 576/4/6 577/4/6 580/4/6
f 577/6/6 578/6/6 580/6/6
f 578/4/6 579/4/6 581/4/6
f 580/6/6 578/6/6 581/6/6
f 575/4/6 580/4/6 582/4/6
f 580/4/6 581/4/6 582/4/6
f 582/4/6 581/4/6 583/4/6
f 575/4/6 582/4/6 584/4/6
f 582/6/6 583/6/6 585/6/6
f 584/4/6 582/4/6 585/4/6
f 583/4/6 581/4/6 586/4/6
f 585/6/6 583/6/6 586/6/6
f 581/4/6 579/4/6 587/4/6
f 586/4/6 581/4/6 587/4/6
f 587/4/6 579/4/6 588/4/6
f 585/4/6 586/4/6 589/4/6
f 586/4/6 587/4/6 589/4/6
f 589/4/6 587/4/6 590/4/6
