# MagicaVoxel @ Ephtracy

# group
o 

# material
mtllib chapter_one_tile.mtl
usemtl palette

# normals
vn -1 0 0
vn 1 0 0
vn 0 0 1
vn 0 0 -1
vn 0 -1 0
vn 0 1 0

# texcoords
vt 0.517578 0.5
vt 0.556641 0.5
vt 0.837891 0.5
vt 0.931641 0.5
vt 0.962891 0.5
vt 0.990234 0.5

# verts
v -1.9 0.3 1.8
v -1.9 0.3 -1.8
v -1.9 0.5 1.8
v -1.9 0.5 -1.8
v -1.8 0.3 1.9
v -1.8 0.3 1.8
v -1.8 0.3 -1.8
v -1.8 0.3 -1.9
v -1.8 0.5 1.9
v -1.8 0.5 1.8
v -1.8 0.5 -1.8
v -1.8 0.5 -1.9
v -1.8 0.6 1.8
v -1.8 0.6 0.7
v -1.8 1.1 0.9
v -1.8 1.1 0.7
v -1.8 1.5 1.8
v -1.8 1.5 0.9
v -1.6 0.5 1.6
v -1.6 0.5 1
v -1.6 0.5 -1.2
v -1.6 0.5 -1.3
v -1.6 0.5 -1.4
v -1.6 0.5 -1.5
v -1.6 0.5 -1.6
v -1.6 0.6 1.6
v -1.6 0.6 1
v -1.6 0.6 -1.2
v -1.6 0.6 -1.3
v -1.6 0.6 -1.4
v -1.6 0.6 -1.5
v -1.6 0.7 -1.2
v -1.6 0.7 -1.4
v -1.6 0.7 -1.5
v -1.6 0.7 -1.6
v -1.6 0.8 -1.5
v -1.6 0.8 -1.6
v -1.6 0.9 -1.4
v -1.6 0.9 -1.6
v -1.5 1.5 1.6
v -1.5 1.5 1.1
v -1.5 1.7 1.6
v -1.5 1.7 1.1
v -1.4 0.9 1.9
v -1.4 0.9 1.8
v -1.4 1 1.9
v -1.4 1 1.8
v -1.2 0.5 1.6
v -1.2 0.5 1
v -1.2 0.6 1.6
v -1.2 0.6 1
v 1 0.5 -1.4
v 1 0.5 -1.6
v 1 0.6 -1.4
v 1 0.6 -1.6
v 1.2 0.5 -1.2
v 1.2 0.5 -1.3
v 1.2 0.6 -1.2
v 1.2 0.6 -1.3
v 1.3 0.5 1.7
v 1.3 0.5 1.5
v 1.3 0.6 1.6
v 1.3 0.6 1.5
v 1.3 0.7 1.6
v 1.3 0.7 1.5
v 1.3 0.8 1.6
v 1.3 0.8 1.5
v 1.3 0.9 1.7
v 1.3 0.9 1.6
v 1.3 0.9 1.5
v 1.4 0.5 -1.3
v 1.4 0.5 -1.6
v 1.4 0.6 -1.3
v 1.4 0.6 -1.6
v 1.5 0.5 1.5
v 1.5 0.5 1.3
v 1.5 0.5 -0.9
v 1.5 0.5 -1.1
v 1.5 0.6 1.4
v 1.5 0.6 1.3
v 1.5 0.6 -0.9
v 1.5 0.6 -1.1
v 1.5 0.7 1.5
v 1.5 0.7 1.4
v 1.5 0.7 1.3
v -1.4 0.5 1.6
v -1.4 0.5 1
v -1.4 0.5 -1.4
v -1.4 0.5 -1.5
v -1.4 0.5 -1.6
v -1.4 0.6 1.6
v -1.4 0.6 1
v -1.4 0.6 -1.4
v -1.4 0.6 -1.5
v -1.4 0.6 -1.6
v -1.4 0.7 -1.4
v -1.4 0.9 -1.4
v -1.4 0.9 -1.6
v -1.2 0.5 -1.2
v -1.2 0.5 -1.4
v -1.2 0.6 -1.3
v -1.2 0.6 -1.4
v -1.2 0.7 -1.2
v -1.2 0.7 -1.3
v -1.2 0.7 -1.4
v -1.2 0.9 1.9
v -1.2 0.9 1.8
v -1.2 1 1.9
v -1.2 1 1.8
v -1.1 1.5 1.6
v -1.1 1.5 1.1
v -1.1 1.7 1.6
v -1.1 1.7 1.1
v -1 0.5 1.6
v -1 0.5 1
v -1 0.6 1.6
v -1 0.6 1
v -0.8 0.6 1.8
v -0.8 0.6 0.7
v -0.8 1.1 0.9
v -0.8 1.1 0.7
v -0.8 1.5 1.8
v -0.8 1.5 0.9
v 1.2 0.5 -1.4
v 1.2 0.5 -1.6
v 1.2 0.6 -1.4
v 1.2 0.6 -1.6
v 1.3 0.5 -1.2
v 1.3 0.5 -1.3
v 1.3 0.6 -1.2
v 1.3 0.6 -1.3
v 1.5 0.5 1.7
v 1.5 0.5 1.5
v 1.5 0.6 1.7
v 1.5 0.6 1.6
v 1.5 0.7 1.7
v 1.5 0.7 1.6
v 1.5 0.7 1.5
v 1.5 0.9 1.7
v 1.5 0.9 1.5
v 1.7 0.5 1.5
v 1.7 0.5 1.4
v 1.7 0.5 1.3
v 1.7 0.5 -0.9
v 1.7 0.5 -1.1
v 1.7 0.5 -1.3
v 1.7 0.5 -1.6
v 1.7 0.6 1.5
v 1.7 0.6 1.4
v 1.7 0.6 -0.9
v 1.7 0.6 -1.1
v 1.7 0.6 -1.3
v 1.7 0.6 -1.6
v 1.7 0.7 1.5
v 1.7 0.7 1.3
v 1.8 0.3 1.9
v 1.8 0.3 1.8
v 1.8 0.3 -1.8
v 1.8 0.3 -1.9
v 1.8 0.5 1.9
v 1.8 0.5 1.8
v 1.8 0.5 -1.8
v 1.8 0.5 -1.9
v 1.9 0.3 1.8
v 1.9 0.3 -1.8
v 1.9 0.5 1.8
v 1.9 0.5 -1.8
v -1.8 0.3 1.9
v -1.8 0.5 1.9
v -1.4 0.9 1.9
v -1.4 1 1.9
v -1.2 0.9 1.9
v -1.2 1 1.9
v 1.8 0.3 1.9
v 1.8 0.5 1.9
v -1.9 0.3 1.8
v -1.9 0.5 1.8
v -1.8 0.3 1.8
v -1.8 0.5 1.8
v -1.8 0.6 1.8
v -1.8 1.5 1.8
v -1.5 1 1.8
v -1.5 1.2 1.8
v -1.4 0.9 1.8
v -1.4 1 1.8
v -1.4 1.2 1.8
v -1.2 0.9 1.8
v -1.2 1 1.8
v -1.2 1.2 1.8
v -1.1 1 1.8
v -1.1 1.2 1.8
v -0.8 0.6 1.8
v -0.8 1.5 1.8
v 1.8 0.3 1.8
v 1.8 0.5 1.8
v 1.9 0.3 1.8
v 1.9 0.5 1.8
v 1.3 0.5 1.7
v 1.3 0.9 1.7
v 1.4 0.6 1.7
v 1.4 0.7 1.7
v 1.5 0.5 1.7
v 1.5 0.6 1.7
v 1.5 0.7 1.7
v 1.5 0.9 1.7
v -1.6 0.5 1.6
v -1.6 0.6 1.6
v -1.5 1.5 1.6
v -1.5 1.7 1.6
v -1.4 0.5 1.6
v -1.4 0.6 1.6
v -1.2 0.5 1.6
v -1.2 0.6 1.6
v -1.1 1.5 1.6
v -1.1 1.7 1.6
v -1 0.5 1.6
v -1 0.6 1.6
v 1.5 0.5 1.5
v 1.5 0.7 1.5
v 1.6 0.5 1.5
v 1.6 0.6 1.5
v 1.7 0.5 1.5
v 1.7 0.6 1.5
v 1.7 0.7 1.5
v 1.5 0.5 -0.9
v 1.5 0.6 -0.9
v 1.7 0.5 -0.9
v 1.7 0.6 -0.9
v -1.6 0.5 -1.2
v -1.6 0.6 -1.2
v -1.6 0.7 -1.2
v -1.5 0.5 -1.2
v -1.5 0.6 -1.2
v -1.5 0.7 -1.2
v -1.4 0.6 -1.2
v -1.4 0.7 -1.2
v -1.2 0.5 -1.2
v -1.2 0.7 -1.2
v 1.2 0.5 -1.2
v 1.2 0.6 -1.2
v 1.3 0.5 -1.2
v 1.3 0.6 -1.2
v 1.4 0.5 -1.3
v 1.4 0.6 -1.3
v 1.7 0.5 -1.3
v 1.7 0.6 -1.3
v -1.6 0.7 -1.4
v -1.6 0.9 -1.4
v -1.4 0.7 -1.4
v -1.4 0.9 -1.4
v 1 0.5 -1.4
v 1 0.6 -1.4
v 1.2 0.5 -1.4
v 1.2 0.6 -1.4
v 1.3 0.5 1.5
v 1.3 0.6 1.5
v 1.3 0.7 1.5
v 1.3 0.8 1.5
v 1.3 0.9 1.5
v 1.4 0.6 1.5
v 1.4 0.7 1.5
v 1.4 0.8 1.5
v 1.4 0.9 1.5
v 1.5 0.5 1.5
v 1.5 0.7 1.5
v 1.5 0.9 1.5
v 1.5 0.5 1.3
v 1.5 0.6 1.3
v 1.5 0.7 1.3
v 1.6 0.6 1.3
v 1.6 0.7 1.3
v 1.7 0.5 1.3
v 1.7 0.7 1.3
v -1.5 1.5 1.1
v -1.5 1.7 1.1
v -1.1 1.5 1.1
v -1.1 1.7 1.1
v -1.6 0.5 1
v -1.6 0.6 1
v -1.4 0.5 1
v -1.4 0.6 1
v -1.2 0.5 1
v -1.2 0.6 1
v -1 0.5 1
v -1 0.6 1
v -1.8 1.1 0.9
v -1.8 1.5 0.9
v -0.8 1.1 0.9
v -0.8 1.5 0.9
v -1.8 0.6 0.7
v -1.8 1.1 0.7
v -0.8 0.6 0.7
v -0.8 1.1 0.7
v 1.5 0.5 -1.1
v 1.5 0.6 -1.1
v 1.7 0.5 -1.1
v 1.7 0.6 -1.1
v 1.2 0.5 -1.3
v 1.2 0.6 -1.3
v 1.3 0.5 -1.3
v 1.3 0.6 -1.3
v -1.4 0.5 -1.4
v -1.4 0.6 -1.4
v -1.4 0.7 -1.4
v -1.3 0.5 -1.4
v -1.3 0.6 -1.4
v -1.3 0.7 -1.4
v -1.2 0.5 -1.4
v -1.2 0.6 -1.4
v -1.2 0.7 -1.4
v -1.6 0.5 -1.6
v -1.6 0.7 -1.6
v -1.6 0.8 -1.6
v -1.6 0.9 -1.6
v -1.5 0.5 -1.6
v -1.5 0.6 -1.6
v -1.5 0.7 -1.6
v -1.5 0.8 -1.6
v -1.4 0.5 -1.6
v -1.4 0.6 -1.6
v -1.4 0.9 -1.6
v 1 0.5 -1.6
v 1 0.6 -1.6
v 1.2 0.5 -1.6
v 1.2 0.6 -1.6
v 1.4 0.5 -1.6
v 1.4 0.6 -1.6
v 1.7 0.5 -1.6
v 1.7 0.6 -1.6
v -1.9 0.3 -1.8
v -1.9 0.5 -1.8
v -1.8 0.3 -1.8
v -1.8 0.5 -1.8
v 1.8 0.3 -1.8
v 1.8 0.5 -1.8
v 1.9 0.3 -1.8
v 1.9 0.5 -1.8
v -1.8 0.3 -1.9
v -1.8 0.5 -1.9
v 1.8 0.3 -1.9
v 1.8 0.5 -1.9
v -1.8 0.3 1.9
v 1.8 0.3 1.9
v -1.9 0.3 1.8
v -1.8 0.3 1.8
v 1.8 0.3 1.8
v 1.9 0.3 1.8
v -1.9 0.3 -1.8
v -1.8 0.3 -1.8
v 1.8 0.3 -1.8
v 1.9 0.3 -1.8
v -1.8 0.3 -1.9
v 1.8 0.3 -1.9
v -1.8 0.6 1.8
v -0.8 0.6 1.8
v -1.6 0.6 1.6
v -1.4 0.6 1.6
v -1.2 0.6 1.6
v -1 0.6 1.6
v -1.6 0.6 1
v -1.4 0.6 1
v -1.2 0.6 1
v -1 0.6 1
v -1.8 0.6 0.7
v -0.8 0.6 0.7
v -1.4 0.9 1.9
v -1.2 0.9 1.9
v -1.4 0.9 1.8
v -1.2 0.9 1.8
v -1.8 0.5 1.9
v 1.8 0.5 1.9
v -1.9 0.5 1.8
v -1.8 0.5 1.8
v 1.8 0.5 1.8
v 1.9 0.5 1.8
v 1.3 0.5 1.7
v 1.5 0.5 1.7
v -1.6 0.5 1.6
v -1.4 0.5 1.6
v -1.2 0.5 1.6
v -1 0.5 1.6
v 1.3 0.5 1.5
v 1.5 0.5 1.5
v 1.6 0.5 1.5
v 1.7 0.5 1.5
v 1.7 0.5 1.4
v 1.5 0.5 1.3
v 1.7 0.5 1.3
v -1.6 0.5 1
v -1.4 0.5 1
v -1.2 0.5 1
v -1 0.5 1
v 1.5 0.5 -0.9
v 1.7 0.5 -0.9
v 1.5 0.5 -1.1
v 1.7 0.5 -1.1
v -1.6 0.5 -1.2
v -1.5 0.5 -1.2
v -1.2 0.5 -1.2
v 1.2 0.5 -1.2
v 1.3 0.5 -1.2
v -1.6 0.5 -1.3
v 1.2 0.5 -1.3
v 1.3 0.5 -1.3
v 1.4 0.5 -1.3
v 1.7 0.5 -1.3
v -1.6 0.5 -1.4
v -1.4 0.5 -1.4
v -1.3 0.5 -1.4
v -1.2 0.5 -1.4
v 1 0.5 -1.4
v 1.2 0.5 -1.4
v -1.6 0.5 -1.5
v -1.4 0.5 -1.5
v -1.6 0.5 -1.6
v -1.5 0.5 -1.6
v -1.4 0.5 -1.6
v 1 0.5 -1.6
v 1.2 0.5 -1.6
v 1.4 0.5 -1.6
v 1.7 0.5 -1.6
v -1.9 0.5 -1.8
v -1.8 0.5 -1.8
v 1.8 0.5 -1.8
v 1.9 0.5 -1.8
v -1.8 0.5 -1.9
v 1.8 0.5 -1.9
v 1.5 0.6 -0.9
v 1.7 0.6 -0.9
v 1.5 0.6 -1.1
v 1.7 0.6 -1.1
v 1.2 0.6 -1.2
v 1.3 0.6 -1.2
v 1.2 0.6 -1.3
v 1.3 0.6 -1.3
v 1.4 0.6 -1.3
v 1.7 0.6 -1.3
v 1 0.6 -1.4
v 1.2 0.6 -1.4
v 1.5 0.6 -1.4
v 1.6 0.6 -1.4
v 1.5 0.6 -1.5
v 1.6 0.6 -1.5
v 1 0.6 -1.6
v 1.2 0.6 -1.6
v 1.4 0.6 -1.6
v 1.7 0.6 -1.6
v 1.5 0.7 1.5
v 1.7 0.7 1.5
v 1.5 0.7 1.4
v 1.6 0.7 1.4
v 1.5 0.7 1.3
v 1.6 0.7 1.3
v 1.7 0.7 1.3
v -1.6 0.7 -1.2
v -1.5 0.7 -1.2
v -1.4 0.7 -1.2
v -1.2 0.7 -1.2
v -1.5 0.7 -1.3
v -1.4 0.7 -1.3
v -1.3 0.7 -1.3
v -1.2 0.7 -1.3
v -1.6 0.7 -1.4
v -1.4 0.7 -1.4
v -1.3 0.7 -1.4
v -1.2 0.7 -1.4
v 1.3 0.9 1.7
v 1.5 0.9 1.7
v 1.3 0.9 1.6
v 1.4 0.9 1.6
v 1.3 0.9 1.5
v 1.4 0.9 1.5
v 1.5 0.9 1.5
v -1.6 0.9 -1.4
v -1.4 0.9 -1.4
v -1.6 0.9 -1.6
v -1.4 0.9 -1.6
v -1.4 1 1.9
v -1.2 1 1.9
v -1.4 1 1.8
v -1.2 1 1.8
v -1.8 1.1 0.9
v -0.8 1.1 0.9
v -1.8 1.1 0.7
v -0.8 1.1 0.7
v -1.8 1.5 1.8
v -0.8 1.5 1.8
v -1.5 1.5 1.6
v -1.1 1.5 1.6
v -1.5 1.5 1.1
v -1.1 1.5 1.1
v -1.8 1.5 0.9
v -0.8 1.5 0.9
v -1.5 1.7 1.6
v -1.1 1.7 1.6
v -1.5 1.7 1.1
v -1.1 1.7 1.1

# faces
f 3/4/1 2/4/1 1/4/1
f 4/4/1 2/4/1 3/4/1
f 9/4/1 6/4/1 5/4/1
f 10/4/1 6/4/1 9/4/1
f 11/4/1 8/4/1 7/4/1
f 12/4/1 8/4/1 11/4/1
f 15/5/1 14/5/1 13/5/1
f 16/5/1 14/5/1 15/5/1
f 17/5/1 15/5/1 13/5/1
f 18/5/1 15/5/1 17/5/1
f 26/3/1 20/3/1 19/3/1
f 27/3/1 20/3/1 26/3/1
f 28/3/1 22/3/1 21/3/1
f 29/4/1 23/4/1 22/4/1
f 29/3/1 22/3/1 28/3/1
f 30/3/1 24/3/1 23/3/1
f 30/4/1 23/4/1 29/4/1
f 31/4/1 25/4/1 24/4/1
f 31/3/1 24/3/1 30/3/1
f 32/4/1 30/4/1 29/4/1
f 32/4/1 31/4/1 30/4/1
f 32/4/1 29/4/1 28/4/1
f 33/4/1 31/4/1 32/4/1
f 34/4/1 25/4/1 31/4/1
f 34/4/1 31/4/1 33/4/1
f 35/4/1 25/4/1 34/4/1
f 36/4/1 34/4/1 33/4/1
f 36/3/1 35/3/1 34/3/1
f 37/3/1 35/3/1 36/3/1
f 38/4/1 36/4/1 33/4/1
f 38/4/1 37/4/1 36/4/1
f 39/4/1 37/4/1 38/4/1
f 42/3/1 41/3/1 40/3/1
f 43/3/1 41/3/1 42/3/1
f 46/3/1 45/3/1 44/3/1
f 47/3/1 45/3/1 46/3/1
f 50/3/1 49/3/1 48/3/1
f 51/3/1 49/3/1 50/3/1
f 54/3/1 53/3/1 52/3/1
f 55/3/1 53/3/1 54/3/1
f 58/3/1 57/3/1 56/3/1
f 59/3/1 57/3/1 58/3/1
f 62/4/1 61/4/1 60/4/1
f 63/4/1 61/4/1 62/4/1
f 64/4/1 62/4/1 60/4/1
f 64/3/1 63/3/1 62/3/1
f 65/3/1 63/3/1 64/3/1
f 66/4/1 64/4/1 60/4/1
f 66/4/1 65/4/1 64/4/1
f 67/4/1 65/4/1 66/4/1
f 68/4/1 66/4/1 60/4/1
f 69/3/1 67/3/1 66/3/1
f 69/4/1 66/4/1 68/4/1
f 70/3/1 67/3/1 69/3/1
f 73/3/1 72/3/1 71/3/1
f 74/3/1 72/3/1 73/3/1
f 79/4/1 76/4/1 75/4/1
f 80/4/1 76/4/1 79/4/1
f 81/3/1 78/3/1 77/3/1
f 82/3/1 78/3/1 81/3/1
f 83/4/1 79/4/1 75/4/1
f 84/3/1 80/3/1 79/3/1
f 84/4/1 79/4/1 83/4/1
f 85/3/1 80/3/1 84/3/1
f 86/3/2 87/3/2 91/3/2
f 91/3/2 87/3/2 92/3/2
f 88/4/2 89/4/2 93/4/2
f 89/3/2 90/3/2 94/3/2
f 93/4/2 89/4/2 94/4/2
f 94/3/2 90/3/2 95/3/2
f 93/4/2 94/4/2 96/4/2
f 94/4/2 95/4/2 96/4/2
f 96/4/2 95/4/2 97/4/2
f 97/4/2 95/4/2 98/4/2
f 99/4/2 100/4/2 101/4/2
f 101/4/2 100/4/2 102/4/2
f 99/4/2 101/4/2 103/4/2
f 101/3/2 102/3/2 104/3/2
f 103/4/2 101/4/2 104/4/2
f 104/3/2 102/3/2 105/3/2
f 106/3/2 107/3/2 108/3/2
f 108/3/2 107/3/2 109/3/2
f 110/3/2 111/3/2 112/3/2
f 112/3/2 111/3/2 113/3/2
f 114/3/2 115/3/2 116/3/2
f 116/3/2 115/3/2 117/3/2
f 118/5/2 119/5/2 120/5/2
f 120/5/2 119/5/2 121/5/2
f 118/5/2 120/5/2 122/5/2
f 122/5/2 120/5/2 123/5/2
f 124/3/2 125/3/2 126/3/2
f 126/3/2 125/3/2 127/3/2
f 128/3/2 129/3/2 130/3/2
f 130/3/2 129/3/2 131/3/2
f 132/4/2 133/4/2 134/4/2
f 134/4/2 133/4/2 135/4/2
f 134/3/2 135/3/2 136/3/2
f 135/4/2 133/4/2 137/4/2
f 136/3/2 135/3/2 137/3/2
f 137/4/2 133/4/2 138/4/2
f 136/4/2 137/4/2 139/4/2
f 137/4/2 138/4/2 139/4/2
f 139/4/2 138/4/2 140/4/2
f 141/3/2 142/3/2 148/3/2
f 142/4/2 143/4/2 149/4/2
f 148/3/2 142/3/2 149/3/2
f 144/3/2 145/3/2 150/3/2
f 150/3/2 145/3/2 151/3/2
f 146/3/2 147/3/2 152/3/2
f 152/3/2 147/3/2 153/3/2
f 148/4/2 149/4/2 154/4/2
f 149/4/2 143/4/2 155/4/2
f 154/4/2 149/4/2 155/4/2
f 156/4/2 157/4/2 160/4/2
f 160/4/2 157/4/2 161/4/2
f 158/4/2 159/4/2 162/4/2
f 162/4/2 159/4/2 163/4/2
f 164/4/2 165/4/2 166/4/2
f 166/4/2 165/4/2 167/4/2
f 172/3/3 171/3/3 170/3/3
f 173/3/3 171/3/3 172/3/3
f 174/4/3 169/4/3 168/4/3
f 175/4/3 169/4/3 174/4/3
f 178/4/3 177/4/3 176/4/3
f 179/4/3 177/4/3 178/4/3
f 182/5/3 181/5/3 180/5/3
f 183/5/3 181/5/3 182/5/3
f 184/5/3 182/5/3 180/5/3
f 185/6/3 183/6/3 182/6/3
f 185/5/3 182/5/3 184/5/3
f 186/5/3 181/5/3 183/5/3
f 186/6/3 183/6/3 185/6/3
f 187/5/3 184/5/3 180/5/3
f 188/5/3 186/5/3 185/5/3
f 189/5/3 181/5/3 186/5/3
f 189/5/3 186/5/3 188/5/3
f 190/5/3 188/5/3 187/5/3
f 190/6/3 189/6/3 188/6/3
f 191/5/3 181/5/3 189/5/3
f 191/6/3 189/6/3 190/6/3
f 192/5/3 190/5/3 187/5/3
f 192/5/3 187/5/3 180/5/3
f 192/5/3 191/5/3 190/5/3
f 193/5/3 181/5/3 191/5/3
f 193/5/3 191/5/3 192/5/3
f 196/4/3 195/4/3 194/4/3
f 197/4/3 195/4/3 196/4/3
f 200/4/3 199/4/3 198/4/3
f 201/4/3 199/4/3 200/4/3
f 202/4/3 200/4/3 198/4/3
f 203/3/3 201/3/3 200/3/3
f 203/4/3 200/4/3 202/4/3
f 204/4/3 199/4/3 201/4/3
f 204/3/3 201/3/3 203/3/3
f 205/4/3 199/4/3 204/4/3
f 210/3/3 207/3/3 206/3/3
f 211/3/3 207/3/3 210/3/3
f 214/3/3 209/3/3 208/3/3
f 215/3/3 209/3/3 214/3/3
f 216/3/3 213/3/3 212/3/3
f 217/3/3 213/3/3 216/3/3
f 220/4/3 219/4/3 218/4/3
f 221/4/3 219/4/3 220/4/3
f 222/3/3 221/3/3 220/3/3
f 223/4/3 219/4/3 221/4/3
f 223/3/3 221/3/3 222/3/3
f 224/4/3 219/4/3 223/4/3
f 227/3/3 226/3/3 225/3/3
f 228/3/3 226/3/3 227/3/3
f 232/3/3 230/3/3 229/3/3
f 233/4/3 231/4/3 230/4/3
f 233/3/3 230/3/3 232/3/3
f 234/4/3 231/4/3 233/4/3
f 235/4/3 233/4/3 232/4/3
f 235/3/3 234/3/3 233/3/3
f 236/3/3 234/3/3 235/3/3
f 237/4/3 235/4/3 232/4/3
f 237/4/3 236/4/3 235/4/3
f 238/4/3 236/4/3 237/4/3
f 241/3/3 240/3/3 239/3/3
f 242/3/3 240/3/3 241/3/3
f 245/3/3 244/3/3 243/3/3
f 246/3/3 244/3/3 245/3/3
f 249/4/3 248/4/3 247/4/3
f 250/4/3 248/4/3 249/4/3
f 253/3/3 252/3/3 251/3/3
f 254/3/3 252/3/3 253/3/3
f 255/4/4 256/4/4 260/4/4
f 256/3/4 257/3/4 260/3/4
f 257/4/4 258/4/4 261/4/4
f 260/3/4 257/3/4 261/3/4
f 258/3/4 259/3/4 262/3/4
f 261/4/4 258/4/4 262/4/4
f 262/3/4 259/3/4 263/3/4
f 260/4/4 261/4/4 264/4/4
f 255/4/4 260/4/4 264/4/4
f 262/4/4 263/4/4 264/4/4
f 261/4/4 262/4/4 264/4/4
f 264/4/4 263/4/4 265/4/4
f 265/4/4 263/4/4 266/4/4
f 267/4/4 268/4/4 270/4/4
f 268/3/4 269/3/4 270/3/4
f 270/3/4 269/3/4 271/3/4
f 267/4/4 270/4/4 272/4/4
f 270/4/4 271/4/4 272/4/4
f 272/4/4 271/4/4 273/4/4
f 274/3/4 275/3/4 276/3/4
f 276/3/4 275/3/4 277/3/4
f 278/3/4 279/3/4 280/3/4
f 280/3/4 279/3/4 281/3/4
f 282/3/4 283/3/4 284/3/4
f 284/3/4 283/3/4 285/3/4
f 286/5/4 287/5/4 288/5/4
f 288/5/4 287/5/4 289/5/4
f 290/5/4 291/5/4 292/5/4
f 292/5/4 291/5/4 293/5/4
f 294/3/4 295/3/4 296/3/4
f 296/3/4 295/3/4 297/3/4
f 298/3/4 299/3/4 300/3/4
f 300/3/4 299/3/4 301/3/4
f 302/3/4 303/3/4 305/3/4
f 303/4/4 304/4/4 306/4/4
f 305/3/4 303/3/4 306/3/4
f 306/4/4 304/4/4 307/4/4
f 305/4/4 306/4/4 308/4/4
f 306/3/4 307/3/4 309/3/4
f 308/4/4 306/4/4 309/4/4
f 309/3/4 307/3/4 310/3/4
f 311/4/4 312/4/4 315/4/4
f 315/4/4 312/4/4 316/4/4
f 312/3/4 313/3/4 317/3/4
f 316/4/4 312/4/4 317/4/4
f 313/4/4 314/4/4 318/4/4
f 317/3/4 313/3/4 318/3/4
f 315/3/4 316/3/4 319/3/4
f 316/4/4 317/4/4 320/4/4
f 319/3/4 316/3/4 320/3/4
f 317/4/4 318/4/4 320/4/4
f 318/4/4 314/4/4 321/4/4
f 320/4/4 318/4/4 321/4/4
f 322/3/4 323/3/4 324/3/4
f 324/3/4 323/3/4 325/3/4
f 326/3/4 327/3/4 328/3/4
f 328/3/4 327/3/4 329/3/4
f 330/4/4 331/4/4 332/4/4
f 332/4/4 331/4/4 333/4/4
f 334/4/4 335/4/4 336/4/4
f 336/4/4 335/4/4 337/4/4
f 338/4/4 339/4/4 340/4/4
f 340/4/4 339/4/4 341/4/4
f 345/4/5 343/4/5 342/4/5
f 346/4/5 343/4/5 345/4/5
f 348/4/5 345/4/5 344/4/5
f 348/4/5 347/4/5 346/4/5
f 348/4/5 346/4/5 345/4/5
f 349/4/5 347/4/5 348/4/5
f 350/4/5 347/4/5 349/4/5
f 351/4/5 347/4/5 350/4/5
f 352/4/5 350/4/5 349/4/5
f 353/4/5 350/4/5 352/4/5
f 356/5/5 355/5/5 354/5/5
f 357/5/5 355/5/5 356/5/5
f 358/5/5 355/5/5 357/5/5
f 359/5/5 355/5/5 358/5/5
f 360/5/5 356/5/5 354/5/5
f 361/5/5 358/5/5 357/5/5
f 362/5/5 358/5/5 361/5/5
f 363/5/5 355/5/5 359/5/5
f 364/5/5 362/5/5 361/5/5
f 364/5/5 363/5/5 362/5/5
f 364/5/5 360/5/5 354/5/5
f 364/5/5 361/5/5 360/5/5
f 365/5/5 355/5/5 363/5/5
f 365/5/5 363/5/5 364/5/5
f 368/3/5 367/3/5 366/3/5
f 369/3/5 367/3/5 368/3/5
f 370/4/6 371/4/6 373/4/6
f 373/4/6 371/4/6 374/4/6
f 372/4/6 373/4/6 376/4/6
f 374/4/6 375/4/6 376/4/6
f 373/4/6 374/4/6 376/4/6
f 376/4/6 375/4/6 377/4/6
f 372/4/6 376/4/6 378/4/6
f 378/4/6 376/4/6 379/4/6
f 379/4/6 376/4/6 380/4/6
f 380/4/6 376/4/6 381/4/6
f 381/4/6 376/4/6 382/4/6
f 377/4/6 375/4/6 383/4/6
f 383/4/6 375/4/6 384/4/6
f 384/4/6 375/4/6 385/4/6
f 385/4/6 375/4/6 386/4/6
f 382/4/6 383/4/6 387/4/6
f 386/4/6 375/4/6 388/4/6
f 372/4/6 378/4/6 389/4/6
f 379/4/6 380/4/6 390/4/6
f 390/4/6 380/4/6 391/4/6
f 381/4/6 382/4/6 392/4/6
f 387/4/6 388/4/6 392/4/6
f 382/4/6 387/4/6 392/4/6
f 390/4/6 391/4/6 393/4/6
f 391/4/6 392/4/6 393/4/6
f 392/4/6 388/4/6 393/4/6
f 389/4/6 390/4/6 393/4/6
f 388/4/6 375/4/6 394/4/6
f 393/4/6 388/4/6 394/4/6
f 389/4/6 393/4/6 395/4/6
f 394/4/6 375/4/6 396/4/6
f 389/4/6 395/4/6 397/4/6
f 395/4/6 396/4/6 397/4/6
f 372/4/6 389/4/6 397/4/6
f 397/4/6 396/4/6 398/4/6
f 398/4/6 396/4/6 399/4/6
f 399/4/6 396/4/6 400/4/6
f 400/4/6 396/4/6 401/4/6
f 372/4/6 397/4/6 402/4/6
f 399/4/6 400/4/6 403/4/6
f 401/4/6 396/4/6 404/4/6
f 404/4/6 396/4/6 405/4/6
f 396/4/6 375/4/6 406/4/6
f 405/4/6 396/4/6 406/4/6
f 372/4/6 402/4/6 407/4/6
f 404/4/6 405/4/6 410/4/6
f 399/4/6 403/4/6 410/4/6
f 403/4/6 404/4/6 410/4/6
f 410/4/6 405/4/6 411/4/6
f 411/4/6 405/4/6 412/4/6
f 372/4/6 407/4/6 413/4/6
f 408/4/6 409/4/6 414/4/6
f 409/4/6 410/4/6 414/4/6
f 410/4/6 411/4/6 414/4/6
f 372/4/6 413/4/6 415/4/6
f 414/4/6 411/4/6 417/4/6
f 417/4/6 411/4/6 418/4/6
f 412/4/6 405/4/6 419/4/6
f 419/4/6 405/4/6 420/4/6
f 406/4/6 375/4/6 421/4/6
f 415/4/6 416/4/6 422/4/6
f 420/4/6 421/4/6 422/4/6
f 417/4/6 418/4/6 422/4/6
f 419/4/6 420/4/6 422/4/6
f 418/4/6 419/4/6 422/4/6
f 372/4/6 415/4/6 422/4/6
f 416/4/6 417/4/6 422/4/6
f 422/4/6 421/4/6 423/4/6
f 421/4/6 375/4/6 424/4/6
f 423/4/6 421/4/6 424/4/6
f 424/4/6 375/4/6 425/4/6
f 423/4/6 424/4/6 426/4/6
f 426/4/6 424/4/6 427/4/6
f 428/3/6 429/3/6 430/3/6
f 430/3/6 429/3/6 431/3/6
f 432/3/6 433/3/6 434/3/6
f 434/3/6 433/3/6 435/3/6
f 436/3/6 437/3/6 440/3/6
f 440/3/6 437/3/6 441/3/6
f 436/3/6 440/3/6 442/3/6
f 440/5/6 441/5/6 442/5/6
f 441/3/6 437/3/6 443/3/6
f 442/5/6 441/5/6 443/5/6
f 438/3/6 439/3/6 444/3/6
f 444/3/6 439/3/6 445/3/6
f 436/3/6 442/3/6 446/3/6
f 442/3/6 443/3/6 446/3/6
f 443/3/6 437/3/6 447/3/6
f 446/3/6 443/3/6 447/3/6
f 448/4/6 449/4/6 450/4/6
f 450/4/6 449/4/6 451/4/6
f 450/3/6 451/3/6 452/3/6
f 451/4/6 449/4/6 453/4/6
f 452/3/6 451/3/6 453/3/6
f 453/4/6 449/4/6 454/4/6
f 455/4/6 456/4/6 459/4/6
f 456/3/6 457/3/6 459/3/6
f 457/4/6 458/4/6 460/4/6
f 459/3/6 457/3/6 460/3/6
f 460/4/6 458/4/6 461/4/6
f 461/4/6 458/4/6 462/4/6
f 455/4/6 459/4/6 463/4/6
f 459/4/6 460/4/6 463/4/6
f 460/4/6 461/4/6 463/4/6
f 463/4/6 461/4/6 464/4/6
f 461/3/6 462/3/6 465/3/6
f 464/4/6 461/4/6 465/4/6
f 465/3/6 462/3/6 466/3/6
f 467/4/6 468/4/6 469/4/6
f 469/4/6 468/4/6 470/4/6
f 469/3/6 470/3/6 471/3/6
f 470/4/6 468/4/6 472/4/6
f 471/3/6 470/3/6 472/3/6
f 472/4/6 468/4/6 473/4/6
f 474/4/6 475/4/6 476/4/6
f 476/4/6 475/4/6 477/4/6
f 478/3/6 479/3/6 480/3/6
f 480/3/6 479/3/6 481/3/6
f 482/5/6 483/5/6 484/5/6
f 484/5/6 483/5/6 485/5/6
f 486/5/6 487/5/6 488/5/6
f 488/5/6 487/5/6 489/5/6
f 486/5/6 488/5/6 490/5/6
f 489/5/6 487/5/6 491/5/6
f 486/5/6 490/5/6 492/5/6
f 490/5/6 491/5/6 492/5/6
f 491/5/6 487/5/6 493/5/6
f 492/5/6 491/5/6 493/5/6
f 494/3/6 495/3/6 496/3/6
f 496/3/6 495/3/6 497/3/6
