# MagicaVoxel @ Ephtracy

# group
o 

# material
mtllib chapter_three_tile.mtl
usemtl palette

# normals
vn -1 0 0
vn 1 0 0
vn 0 0 1
vn 0 0 -1
vn 0 -1 0
vn 0 1 0

# texcoords
vt 0.138672 0.5
vt 0.275391 0.5
vt 0.283203 0.5
vt 0.517578 0.5
vt 0.556641 0.5
vt 0.705078 0.5
vt 0.720703 0.5
vt 0.751953 0.5
vt 0.837891 0.5
vt 0.958984 0.5
vt 0.962891 0.5
vt 0.966797 0.5
vt 0.990234 0.5

# verts
v -1.9 0.3 1.8
v -1.9 0.3 0.8
v -1.9 0.3 0.5
v -1.9 0.3 -0.4
v -1.9 0.3 -0.8
v -1.9 0.3 -1.8
v -1.9 0.5 0.5
v -1.9 0.5 -0.4
v -1.9 0.5 -0.8
v -1.9 0.5 -1.8
v -1.9 0.6 1.8
v -1.9 0.6 0.8
v -1.9 0.8 1.5
v -1.9 0.8 1.1
v -1.9 1.2 1.5
v -1.9 1.2 1.1
v -1.8 0.3 1.9
v -1.8 0.3 1.8
v -1.8 0.3 0.8
v -1.8 0.3 0.7
v -1.8 0.3 0.6
v -1.8 0.3 0.5
v -1.8 0.3 -0.4
v -1.8 0.3 -0.6
v -1.8 0.3 -0.7
v -1.8 0.3 -0.8
v -1.8 0.3 -1.8
v -1.8 0.3 -1.9
v -1.8 0.5 0.6
v -1.8 0.5 0.5
v -1.8 0.5 -0.4
v -1.8 0.5 -0.6
v -1.8 0.5 -0.7
v -1.8 0.5 -0.8
v -1.8 0.5 -1.8
v -1.8 0.5 -1.9
v -1.8 0.6 1.9
v -1.8 0.6 1.8
v -1.8 0.6 0.8
v -1.8 0.6 0.7
v -1.8 0.7 1.8
v -1.8 0.7 0.8
v -1.8 0.8 1.5
v -1.8 0.8 1.1
v -1.8 1.2 1.5
v -1.8 1.2 1.1
v -1.8 1.7 1.8
v -1.8 1.7 0.8
v -1.7 0.5 -1.1
v -1.7 0.5 -1.7
v -1.7 0.6 1.6
v -1.7 0.6 0.9
v -1.7 0.6 -1.1
v -1.7 0.6 -1.7
v -1.7 0.7 1.6
v -1.7 0.7 0.9
v -1.5 0.5 -0.9
v -1.5 0.5 -1.1
v -1.5 0.5 -1.7
v -1.5 0.5 -1.9
v -1.5 0.6 -0.9
v -1.5 0.6 -1.1
v -1.5 0.6 -1.7
v -1.5 0.6 -1.9
v -1.4 1.1 1.9
v -1.4 1.1 1.8
v -1.4 1.2 1.9
v -1.4 1.2 1.8
v -1.3 0.5 -0.7
v -1.3 0.5 -0.9
v -1.3 0.6 -0.7
v -1.3 0.6 -0.9
v -1.1 0.6 1.6
v -1.1 0.6 0.9
v -1.1 0.7 1.6
v -1.1 0.7 0.9
v -0.6 0.3 1.8
v -0.6 0.3 0.8
v -0.6 0.3 0.5
v -0.6 0.3 -0.5
v -0.6 0.3 -0.8
v -0.6 0.3 -1.8
v -0.6 0.5 0.5
v -0.6 0.5 -0.5
v -0.6 0.5 -0.8
v -0.6 0.5 -1.8
v -0.6 0.6 1.8
v -0.6 0.6 0.8
v -0.5 0.3 1.9
v -0.5 0.3 1.8
v -0.5 0.3 0.8
v -0.5 0.3 0.7
v -0.5 0.3 0.6
v -0.5 0.3 0.5
v -0.5 0.3 -0.5
v -0.5 0.3 -0.6
v -0.5 0.3 -0.7
v -0.5 0.3 -0.8
v -0.5 0.3 -1.8
v -0.5 0.3 -1.9
v -0.5 0.5 0.8
v -0.5 0.5 0.7
v -0.5 0.5 0.6
v -0.5 0.5 0.5
v -0.5 0.5 -0.5
v -0.5 0.5 -0.6
v -0.5 0.5 -0.7
v -0.5 0.5 -0.8
v -0.5 0.5 -1.8
v -0.5 0.5 -1.9
v -0.5 0.6 1.9
v -0.5 0.6 1.8
v -0.5 0.6 1.3
v -0.5 0.6 1.2
v -0.5 0.6 1.1
v -0.5 0.7 1.8
v -0.5 0.7 1.3
v -0.5 0.7 1.2
v -0.5 0.7 1.1
v -0.4 0.6 1.3
v -0.4 0.6 1.2
v -0.4 0.7 1.3
v -0.4 0.7 1.2
v 0.7 0.3 1.8
v 0.7 0.3 0.8
v 0.7 0.3 0.5
v 0.7 0.3 -0.5
v 0.7 0.3 -0.8
v 0.7 0.3 -1.8
v 0.7 0.5 1.8
v 0.7 0.5 0.8
v 0.7 0.5 0.5
v 0.7 0.5 -0.5
v 0.7 0.5 -0.8
v 0.7 0.5 -1.8
v 0.8 0.3 1.9
v 0.8 0.3 1.8
v 0.8 0.3 0.8
v 0.8 0.3 0.7
v 0.8 0.3 0.6
v 0.8 0.3 0.5
v 0.8 0.3 -0.5
v 0.8 0.3 -0.6
v 0.8 0.3 -0.7
v 0.8 0.3 -0.8
v 0.8 0.3 -1.8
v 0.8 0.3 -1.9
v 0.8 0.5 1.9
v 0.8 0.5 1.8
v 0.8 0.5 0.8
v 0.8 0.5 0.7
v 0.8 0.5 0.6
v 0.8 0.5 0.5
v 0.8 0.5 -0.5
v 0.8 0.5 -0.6
v 0.8 0.5 -0.8
v 0.8 0.5 -1.8
v 0.8 0.6 -0.7
v 0.8 0.6 -0.9
v 0.8 0.7 -0.9
v 0.8 0.7 -1.9
v 0.9 0.5 1.5
v 0.9 0.5 1.3
v 0.9 0.7 1.5
v 0.9 0.7 1.3
v 1 0.6 -0.7
v 1 0.6 -0.9
v 1 0.7 -0.7
v 1 0.7 -0.9
v 1 0.7 -1.1
v 1 0.7 -1.9
v 1 0.9 -1.1
v 1 0.9 -1.9
v 1.1 0.5 1.7
v 1.1 0.5 1.5
v 1.1 0.5 1.3
v 1.1 0.5 1.1
v 1.1 0.7 1.7
v 1.1 0.7 1.5
v 1.1 0.7 1.3
v 1.1 0.7 1.1
v 1.1 0.9 1.5
v 1.1 0.9 1.3
v 1.2 0.7 -0.9
v 1.2 0.7 -1.1
v 1.2 0.9 -0.9
v 1.2 0.9 -1.1
v 1.4 0.9 -1.5
v 1.4 0.9 -1.9
v 1.4 1.1 -1.5
v 1.4 1.1 -1.9
v -1.5 0.6 1.6
v -1.5 0.6 0.9
v -1.5 0.7 1.6
v -1.5 0.7 0.9
v -1.2 1.1 1.9
v -1.2 1.1 1.8
v -1.2 1.2 1.9
v -1.2 1.2 1.8
v -0.9 0.6 1.6
v -0.9 0.6 0.9
v -0.9 0.7 1.6
v -0.9 0.7 0.9
v -0.8 0.3 1.9
v -0.8 0.3 1.8
v -0.8 0.3 0.8
v -0.8 0.3 0.7
v -0.8 0.3 0.6
v -0.8 0.3 0.5
v -0.8 0.3 -0.5
v -0.8 0.3 -0.6
v -0.8 0.3 -0.7
v -0.8 0.3 -0.8
v -0.8 0.3 -1.8
v -0.8 0.3 -1.9
v -0.8 0.5 0.6
v -0.8 0.5 0.5
v -0.8 0.5 -0.5
v -0.8 0.5 -0.6
v -0.8 0.5 -0.7
v -0.8 0.5 -0.8
v -0.8 0.5 -1.8
v -0.8 0.5 -1.9
v -0.8 0.6 1.9
v -0.8 0.6 1.8
v -0.8 0.6 0.8
v -0.8 0.6 0.7
v -0.8 0.6 -0.7
v -0.8 0.6 -0.8
v -0.8 0.6 -1.8
v -0.8 0.6 -1.9
v -0.8 0.7 1.8
v -0.8 0.7 0.8
v -0.8 0.8 1.5
v -0.8 0.8 1.1
v -0.8 1.2 1.5
v -0.8 1.2 1.1
v -0.8 1.7 1.8
v -0.8 1.7 0.8
v -0.7 0.3 1.8
v -0.7 0.3 0.8
v -0.7 0.3 0.5
v -0.7 0.3 -0.5
v -0.7 0.3 -0.8
v -0.7 0.3 -1.8
v -0.7 0.5 0.5
v -0.7 0.5 -0.5
v -0.7 0.5 -0.8
v -0.7 0.5 -1.8
v -0.7 0.6 1.8
v -0.7 0.6 0.8
v -0.7 0.6 -0.8
v -0.7 0.6 -1.8
v -0.7 0.8 1.5
v -0.7 0.8 1.1
v -0.7 1.2 1.5
v -0.7 1.2 1.1
v -0.4 0.5 0.9
v -0.4 0.5 0.8
v -0.4 0.6 0.9
v -0.4 0.6 0.8
v -0.2 0.6 1.8
v -0.2 0.6 1.7
v -0.2 0.6 1.3
v -0.2 0.6 1.2
v -0.2 0.7 1.8
v -0.2 0.7 1.7
v -0.2 0.7 1.3
v -0.2 0.7 1.2
v -0.1 0.6 1.7
v -0.1 0.6 1.3
v -0.1 0.6 1.2
v -0.1 0.6 1.1
v -0.1 0.7 1.7
v -0.1 0.7 1.3
v -0.1 0.7 1.2
v -0.1 0.7 1.1
v 0.1 0.5 1.9
v 0.1 0.5 0.9
v 0.1 0.6 1.9
v 0.1 0.6 0.9
v 0.5 0.3 1.9
v 0.5 0.3 1.8
v 0.5 0.3 0.8
v 0.5 0.3 0.7
v 0.5 0.3 0.6
v 0.5 0.3 0.5
v 0.5 0.3 -0.5
v 0.5 0.3 -0.6
v 0.5 0.3 -0.7
v 0.5 0.3 -0.8
v 0.5 0.3 -1.8
v 0.5 0.3 -1.9
v 0.5 0.5 1.9
v 0.5 0.5 1.8
v 0.5 0.5 0.8
v 0.5 0.5 0.7
v 0.5 0.5 0.6
v 0.5 0.5 0.5
v 0.5 0.5 -0.5
v 0.5 0.5 -0.6
v 0.5 0.5 -0.7
v 0.5 0.5 -0.8
v 0.5 0.5 -1.8
v 0.5 0.5 -1.9
v 0.6 0.3 1.8
v 0.6 0.3 0.8
v 0.6 0.3 0.5
v 0.6 0.3 -0.5
v 0.6 0.3 -0.8
v 0.6 0.3 -1.8
v 0.6 0.5 1.8
v 0.6 0.5 0.8
v 0.6 0.5 0.5
v 0.6 0.5 -0.5
v 0.6 0.5 -0.8
v 0.6 0.5 -1.8
v 1.5 0.5 1.7
v 1.5 0.5 1.5
v 1.5 0.5 1.3
v 1.5 0.5 1.1
v 1.5 0.7 1.7
v 1.5 0.7 1.5
v 1.5 0.7 1.3
v 1.5 0.7 1.1
v 1.5 0.9 1.5
v 1.5 0.9 1.3
v 1.7 0.5 1.5
v 1.7 0.5 1.3
v 1.7 0.7 1.5
v 1.7 0.7 1.3
v 1.8 0.3 1.9
v 1.8 0.3 1.8
v 1.8 0.3 0.8
v 1.8 0.3 0.7
v 1.8 0.3 0.6
v 1.8 0.3 0.5
v 1.8 0.3 -0.5
v 1.8 0.3 -0.6
v 1.8 0.3 -0.7
v 1.8 0.3 -0.8
v 1.8 0.3 -1.8
v 1.8 0.3 -1.9
v 1.8 0.5 1.9
v 1.8 0.5 1.8
v 1.8 0.5 0.8
v 1.8 0.5 0.7
v 1.8 0.5 0.6
v 1.8 0.5 0.5
v 1.8 0.5 -0.5
v 1.8 0.5 -0.6
v 1.8 0.7 -0.7
v 1.8 0.7 -0.8
v 1.8 0.9 -1.5
v 1.8 0.9 -1.8
v 1.8 1.1 -1.5
v 1.8 1.1 -1.9
v 1.9 0.3 1.8
v 1.9 0.3 0.8
v 1.9 0.3 0.5
v 1.9 0.3 -0.5
v 1.9 0.3 -0.8
v 1.9 0.3 -1.8
v 1.9 0.5 1.8
v 1.9 0.5 0.8
v 1.9 0.5 0.5
v 1.9 0.5 -0.5
v 1.9 0.7 -0.8
v 1.9 0.7 -0.9
v 1.9 0.9 -0.9
v 1.9 0.9 -1.8
v -1.8 0.3 1.9
v -1.8 0.6 1.9
v -1.4 1.1 1.9
v -1.4 1.2 1.9
v -1.2 1.1 1.9
v -1.2 1.2 1.9
v -0.8 0.3 1.9
v -0.8 0.6 1.9
v -0.5 0.3 1.9
v -0.5 0.6 1.9
v 0.1 0.3 1.9
v 0.1 0.5 1.9
v 0.1 0.6 1.9
v 0.5 0.3 1.9
v 0.5 0.5 1.9
v 0.8 0.3 1.9
v 0.8 0.5 1.9
v 1.8 0.3 1.9
v 1.8 0.5 1.9
v -1.9 0.3 1.8
v -1.9 0.6 1.8
v -1.8 0.3 1.8
v -1.8 0.6 1.8
v -1.8 0.7 1.8
v -1.8 1.7 1.8
v -1.7 0.8 1.8
v -1.7 1.6 1.8
v -1.5 1.2 1.8
v -1.5 1.4 1.8
v -1.4 1.1 1.8
v -1.4 1.2 1.8
v -1.4 1.4 1.8
v -1.4 1.5 1.8
v -1.4 1.6 1.8
v -1.2 1.1 1.8
v -1.2 1.2 1.8
v -1.2 1.4 1.8
v -1.2 1.5 1.8
v -1.2 1.6 1.8
v -1.1 1.2 1.8
v -1.1 1.4 1.8
v -0.9 0.8 1.8
v -0.9 1.6 1.8
v -0.8 0.3 1.8
v -0.8 0.6 1.8
v -0.8 0.7 1.8
v -0.8 1.7 1.8
v -0.7 0.3 1.8
v -0.7 0.6 1.8
v -0.6 0.3 1.8
v -0.6 0.6 1.8
v -0.5 0.3 1.8
v -0.5 0.6 1.8
v -0.5 0.7 1.8
v -0.2 0.6 1.8
v -0.2 0.7 1.8
v 0.5 0.3 1.8
v 0.5 0.5 1.8
v 0.6 0.3 1.8
v 0.6 0.5 1.8
v 0.7 0.3 1.8
v 0.7 0.5 1.8
v 0.8 0.3 1.8
v 0.8 0.5 1.8
v 1.8 0.3 1.8
v 1.8 0.5 1.8
v 1.9 0.3 1.8
v 1.9 0.5 1.8
v -0.2 0.6 1.7
v -0.2 0.7 1.7
v -0.1 0.6 1.7
v -0.1 0.7 1.7
v 1.1 0.5 1.7
v 1.1 0.7 1.7
v 1.5 0.5 1.7
v 1.5 0.7 1.7
v -1.7 0.6 1.6
v -1.7 0.7 1.6
v -1.5 0.6 1.6
v -1.5 0.7 1.6
v -1.1 0.6 1.6
v -1.1 0.7 1.6
v -0.9 0.6 1.6
v -0.9 0.7 1.6
v -1.9 0.8 1.5
v -1.9 1.2 1.5
v -1.8 0.8 1.5
v -1.8 1.2 1.5
v -0.8 0.8 1.5
v -0.8 1.2 1.5
v -0.7 0.8 1.5
v -0.7 1.2 1.5
v 0.9 0.5 1.5
v 0.9 0.7 1.5
v 1.1 0.5 1.5
v 1.1 0.7 1.5
v 1.1 0.9 1.5
v 1.5 0.5 1.5
v 1.5 0.7 1.5
v 1.5 0.9 1.5
v 1.7 0.5 1.5
v 1.7 0.7 1.5
v -0.5 0.6 1.2
v -0.5 0.7 1.2
v -0.4 0.6 1.2
v -0.4 0.7 1.2
v -0.2 0.6 1.2
v -0.2 0.7 1.2
v -0.1 0.6 1.2
v -0.1 0.7 1.2
v -1.8 0.3 0.6
v -1.8 0.5 0.6
v -0.8 0.3 0.6
v -0.8 0.5 0.6
v -0.5 0.3 0.6
v -0.5 0.5 0.6
v 0.5 0.3 0.6
v 0.5 0.5 0.6
v 0.8 0.3 0.6
v 0.8 0.5 0.6
v 1.8 0.3 0.6
v 1.8 0.5 0.6
v -1.9 0.3 0.5
v -1.9 0.5 0.5
v -1.8 0.3 0.5
v -1.8 0.5 0.5
v -0.8 0.3 0.5
v -0.8 0.5 0.5
v -0.7 0.3 0.5
v -0.7 0.5 0.5
v -0.6 0.3 0.5
v -0.6 0.5 0.5
v -0.5 0.3 0.5
v -0.5 0.5 0.5
v 0.5 0.3 0.5
v 0.5 0.5 0.5
v 0.6 0.3 0.5
v 0.6 0.5 0.5
v 0.7 0.3 0.5
v 0.7 0.5 0.5
v 0.8 0.3 0.5
v 0.8 0.5 0.5
v 1.8 0.3 0.5
v 1.8 0.5 0.5
v 1.9 0.3 0.5
v 1.9 0.5 0.5
v -1.8 0.3 -0.7
v -1.8 0.5 -0.7
v -1.3 0.5 -0.7
v -1.3 0.6 -0.7
v -0.8 0.3 -0.7
v -0.8 0.5 -0.7
v -0.8 0.6 -0.7
v -0.5 0.3 -0.7
v -0.5 0.5 -0.7
v 0.5 0.3 -0.7
v 0.5 0.5 -0.7
v 0.8 0.3 -0.7
v 0.8 0.6 -0.7
v 1 0.6 -0.7
v 1 0.7 -0.7
v 1.8 0.3 -0.7
v 1.8 0.7 -0.7
v -1.9 0.3 -0.8
v -1.9 0.5 -0.8
v -1.8 0.3 -0.8
v -1.8 0.5 -0.8
v -0.8 0.3 -0.8
v -0.8 0.5 -0.8
v -0.8 0.6 -0.8
v -0.7 0.3 -0.8
v -0.7 0.5 -0.8
v -0.7 0.6 -0.8
v -0.6 0.3 -0.8
v -0.6 0.5 -0.8
v -0.5 0.3 -0.8
v -0.5 0.5 -0.8
v 0.5 0.3 -0.8
v 0.5 0.5 -0.8
v 0.6 0.3 -0.8
v 0.6 0.5 -0.8
v 0.7 0.3 -0.8
v 0.7 0.5 -0.8
v 0.8 0.3 -0.8
v 0.8 0.5 -0.8
v 1.8 0.3 -0.8
v 1.8 0.7 -0.8
v 1.9 0.3 -0.8
v 1.9 0.7 -0.8
v -1.5 0.5 -0.9
v -1.5 0.6 -0.9
v -1.3 0.5 -0.9
v -1.3 0.6 -0.9
v 0.8 0.6 -0.9
v 0.8 0.7 -0.9
v 1 0.6 -0.9
v 1 0.7 -0.9
v 1.2 0.7 -0.9
v 1.2 0.9 -0.9
v 1.9 0.7 -0.9
v 1.9 0.9 -0.9
v -1.7 0.5 -1.1
v -1.7 0.6 -1.1
v -1.5 0.5 -1.1
v -1.5 0.6 -1.1
v 1 0.7 -1.1
v 1 0.9 -1.1
v 1.2 0.7 -1.1
v 1.2 0.9 -1.1
v 1.4 0.9 -1.5
v 1.4 1.1 -1.5
v 1.8 0.9 -1.5
v 1.8 1.1 -1.5
v -0.5 0.6 1.3
v -0.5 0.7 1.3
v -0.4 0.6 1.3
v -0.4 0.7 1.3
v -0.2 0.6 1.3
v -0.2 0.7 1.3
v -0.1 0.6 1.3
v -0.1 0.7 1.3
v 0.9 0.5 1.3
v 0.9 0.7 1.3
v 1.1 0.5 1.3
v 1.1 0.7 1.3
v 1.1 0.9 1.3
v 1.5 0.5 1.3
v 1.5 0.7 1.3
v 1.5 0.9 1.3
v 1.7 0.5 1.3
v 1.7 0.7 1.3
v -1.9 0.8 1.1
v -1.9 1.2 1.1
v -1.8 0.8 1.1
v -1.8 1.2 1.1
v -0.8 0.8 1.1
v -0.8 1.2 1.1
v -0.7 0.8 1.1
v -0.7 1.2 1.1
v -0.5 0.6 1.1
v -0.5 0.7 1.1
v -0.1 0.6 1.1
v -0.1 0.7 1.1
v 1.1 0.5 1.1
v 1.1 0.7 1.1
v 1.5 0.5 1.1
v 1.5 0.7 1.1
v -1.7 0.6 0.9
v -1.7 0.7 0.9
v -1.5 0.6 0.9
v -1.5 0.7 0.9
v -1.1 0.6 0.9
v -1.1 0.7 0.9
v -0.9 0.6 0.9
v -0.9 0.7 0.9
v -0.4 0.5 0.9
v -0.4 0.6 0.9
v 0.1 0.5 0.9
v 0.1 0.6 0.9
v -1.9 0.3 0.8
v -1.9 0.6 0.8
v -1.8 0.3 0.8
v -1.8 0.6 0.8
v -1.8 0.7 0.8
v -1.8 1.7 0.8
v -0.8 0.3 0.8
v -0.8 0.6 0.8
v -0.8 0.7 0.8
v -0.8 1.7 0.8
v -0.7 0.3 0.8
v -0.7 0.6 0.8
v -0.6 0.3 0.8
v -0.6 0.6 0.8
v -0.5 0.3 0.8
v -0.5 0.5 0.8
v -0.4 0.5 0.8
v -0.4 0.6 0.8
v 0.5 0.3 0.8
v 0.5 0.5 0.8
v 0.6 0.3 0.8
v 0.6 0.5 0.8
v 0.7 0.3 0.8
v 0.7 0.5 0.8
v 0.8 0.3 0.8
v 0.8 0.5 0.8
v 1.8 0.3 0.8
v 1.8 0.5 0.8
v 1.9 0.3 0.8
v 1.9 0.5 0.8
v -1.8 0.3 0.7
v -1.8 0.6 0.7
v -0.8 0.3 0.7
v -0.8 0.6 0.7
v -0.5 0.3 0.7
v -0.5 0.5 0.7
v 0.5 0.3 0.7
v 0.5 0.5 0.7
v 0.8 0.3 0.7
v 0.8 0.5 0.7
v 1.8 0.3 0.7
v 1.8 0.5 0.7
v -1.9 0.3 -0.4
v -1.9 0.5 -0.4
v -1.8 0.3 -0.4
v -1.8 0.5 -0.4
v -0.8 0.3 -0.5
v -0.8 0.5 -0.5
v -0.7 0.3 -0.5
v -0.7 0.5 -0.5
v -0.6 0.3 -0.5
v -0.6 0.5 -0.5
v -0.5 0.3 -0.5
v -0.5 0.5 -0.5
v 0.5 0.3 -0.5
v 0.5 0.5 -0.5
v 0.6 0.3 -0.5
v 0.6 0.5 -0.5
v 0.7 0.3 -0.5
v 0.7 0.5 -0.5
v 0.8 0.3 -0.5
v 0.8 0.5 -0.5
v 1.8 0.3 -0.5
v 1.8 0.5 -0.5
v 1.9 0.3 -0.5
v 1.9 0.5 -0.5
v -1.8 0.3 -0.6
v -1.8 0.5 -0.6
v -0.8 0.3 -0.6
v -0.8 0.5 -0.6
v -0.5 0.3 -0.6
v -0.5 0.5 -0.6
v 0.5 0.3 -0.6
v 0.5 0.5 -0.6
v 0.8 0.3 -0.6
v 0.8 0.5 -0.6
v 1.8 0.3 -0.6
v 1.8 0.5 -0.6
v -1.7 0.5 -1.7
v -1.7 0.6 -1.7
v -1.5 0.5 -1.7
v -1.5 0.6 -1.7
v -1.9 0.3 -1.8
v -1.9 0.5 -1.8
v -1.8 0.3 -1.8
v -1.8 0.5 -1.8
v -0.8 0.3 -1.8
v -0.8 0.5 -1.8
v -0.8 0.6 -1.8
v -0.7 0.3 -1.8
v -0.7 0.5 -1.8
v -0.7 0.6 -1.8
v -0.6 0.3 -1.8
v -0.6 0.5 -1.8
v -0.5 0.3 -1.8
v -0.5 0.5 -1.8
v 0.5 0.3 -1.8
v 0.5 0.5 -1.8
v 0.6 0.3 -1.8
v 0.6 0.5 -1.8
v 0.7 0.3 -1.8
v 0.7 0.5 -1.8
v 0.8 0.3 -1.8
v 0.8 0.5 -1.8
v 1.8 0.3 -1.8
v 1.8 0.9 -1.8
v 1.9 0.3 -1.8
v 1.9 0.9 -1.8
v -1.8 0.3 -1.9
v -1.8 0.5 -1.9
v -1.5 0.5 -1.9
v -1.5 0.6 -1.9
v -0.8 0.3 -1.9
v -0.8 0.5 -1.9
v -0.8 0.6 -1.9
v -0.5 0.3 -1.9
v -0.5 0.5 -1.9
v 0.5 0.3 -1.9
v 0.5 0.5 -1.9
v 0.8 0.3 -1.9
v 0.8 0.7 -1.9
v 1 0.7 -1.9
v 1 0.9 -1.9
v 1.4 0.9 -1.9
v 1.4 1.1 -1.9
v 1.8 0.3 -1.9
v 1.8 1.1 -1.9
v -1.8 0.3 1.9
v -0.8 0.3 1.9
v -0.5 0.3 1.9
v 0.1 0.3 1.9
v 0.5 0.3 1.9
v 0.8 0.3 1.9
v 1.8 0.3 1.9
v -1.9 0.3 1.8
v -1.8 0.3 1.8
v -0.8 0.3 1.8
v -0.7 0.3 1.8
v -0.6 0.3 1.8
v -0.5 0.3 1.8
v 0.5 0.3 1.8
v 0.6 0.3 1.8
v 0.7 0.3 1.8
v 0.8 0.3 1.8
v 1.8 0.3 1.8
v 1.9 0.3 1.8
v -0.4 0.3 1.7
v 0.1 0.3 1.7
v -1.9 0.3 0.8
v -1.8 0.3 0.8
v -0.8 0.3 0.8
v -0.7 0.3 0.8
v -0.6 0.3 0.8
v -0.5 0.3 0.8
v -0.4 0.3 0.8
v 0.5 0.3 0.8
v 0.6 0.3 0.8
v 0.7 0.3 0.8
v 0.8 0.3 0.8
v 1.8 0.3 0.8
v 1.9 0.3 0.8
v -1.8 0.3 0.7
v -0.8 0.3 0.7
v -0.5 0.3 0.7
v 0.5 0.3 0.7
v 0.8 0.3 0.7
v 1.8 0.3 0.7
v -1.8 0.3 0.6
v -0.8 0.3 0.6
v -0.5 0.3 0.6
v 0.5 0.3 0.6
v 0.8 0.3 0.6
v 1.8 0.3 0.6
v -1.9 0.3 0.5
v -1.8 0.3 0.5
v -0.8 0.3 0.5
v -0.7 0.3 0.5
v -0.6 0.3 0.5
v -0.5 0.3 0.5
v 0.5 0.3 0.5
v 0.6 0.3 0.5
v 0.7 0.3 0.5
v 0.8 0.3 0.5
v 1.8 0.3 0.5
v 1.9 0.3 0.5
v -1.9 0.3 -0.4
v -1.8 0.3 -0.4
v -0.8 0.3 -0.5
v -0.7 0.3 -0.5
v -0.6 0.3 -0.5
v -0.5 0.3 -0.5
v 0.5 0.3 -0.5
v 0.6 0.3 -0.5
v 0.7 0.3 -0.5
v 0.8 0.3 -0.5
v 1.8 0.3 -0.5
v 1.9 0.3 -0.5
v -1.8 0.3 -0.6
v -0.8 0.3 -0.6
v -0.5 0.3 -0.6
v 0.5 0.3 -0.6
v 0.8 0.3 -0.6
v 1.8 0.3 -0.6
v -1.8 0.3 -0.7
v -0.8 0.3 -0.7
v -0.5 0.3 -0.7
v 0.5 0.3 -0.7
v 0.8 0.3 -0.7
v 1.8 0.3 -0.7
v -1.9 0.3 -0.8
v -1.8 0.3 -0.8
v -0.8 0.3 -0.8
v -0.7 0.3 -0.8
v -0.6 0.3 -0.8
v -0.5 0.3 -0.8
v 0.5 0.3 -0.8
v 0.6 0.3 -0.8
v 0.7 0.3 -0.8
v 0.8 0.3 -0.8
v 1.8 0.3 -0.8
v 1.9 0.3 -0.8
v -1.9 0.3 -1.8
v -1.8 0.3 -1.8
v -0.8 0.3 -1.8
v -0.7 0.3 -1.8
v -0.6 0.3 -1.8
v -0.5 0.3 -1.8
v 0.5 0.3 -1.8
v 0.6 0.3 -1.8
v 0.7 0.3 -1.8
v 0.8 0.3 -1.8
v 1.8 0.3 -1.8
v 1.9 0.3 -1.8
v -1.8 0.3 -1.9
v -0.8 0.3 -1.9
v -0.5 0.3 -1.9
v 0.5 0.3 -1.9
v 0.8 0.3 -1.9
v 1.8 0.3 -1.9
v -1.8 0.7 1.8
v -0.8 0.7 1.8
v -1.7 0.7 1.6
v -1.5 0.7 1.6
v -1.1 0.7 1.6
v -0.9 0.7 1.6
v -1.7 0.7 0.9
v -1.5 0.7 0.9
v -1.1 0.7 0.9
v -0.9 0.7 0.9
v -1.8 0.7 0.8
v -0.8 0.7 0.8
v -1.9 0.8 1.5
v -1.8 0.8 1.5
v -0.8 0.8 1.5
v -0.7 0.8 1.5
v -1.9 0.8 1.1
v -1.8 0.8 1.1
v -0.8 0.8 1.1
v -0.7 0.8 1.1
v -1.4 1.1 1.9
v -1.2 1.1 1.9
v -1.4 1.1 1.8
v -1.2 1.1 1.8
v 0.1 0.5 1.9
v 0.5 0.5 1.9
v 0.8 0.5 1.9
v 1.8 0.5 1.9
v 0.5 0.5 1.8
v 0.6 0.5 1.8
v 0.7 0.5 1.8
v 0.8 0.5 1.8
v 1.8 0.5 1.8
v 1.9 0.5 1.8
v 1.1 0.5 1.7
v 1.5 0.5 1.7
v 0.9 0.5 1.5
v 1.1 0.5 1.5
v 1.5 0.5 1.5
v 1.7 0.5 1.5
v 0.9 0.5 1.3
v 1.1 0.5 1.3
v 1.5 0.5 1.3
v 1.7 0.5 1.3
v 1.1 0.5 1.1
v 1.5 0.5 1.1
v -0.4 0.5 0.9
v 0.1 0.5 0.9
v -0.5 0.5 0.8
v -0.4 0.5 0.8
v 0.5 0.5 0.8
v 0.6 0.5 0.8
v 0.7 0.5 0.8
v 0.8 0.5 0.8
v 1.8 0.5 0.8
v 1.9 0.5 0.8
v -0.5 0.5 0.7
v 0.5 0.5 0.7
v 0.8 0.5 0.7
v 1.8 0.5 0.7
v -1.8 0.5 0.6
v -0.8 0.5 0.6
v -0.5 0.5 0.6
v 0.5 0.5 0.6
v 0.8 0.5 0.6
v 1.8 0.5 0.6
v -1.9 0.5 0.5
v -1.8 0.5 0.5
v -0.8 0.5 0.5
v -0.7 0.5 0.5
v -0.6 0.5 0.5
v -0.5 0.5 0.5
v 0.5 0.5 0.5
v 0.6 0.5 0.5
v 0.7 0.5 0.5
v 0.8 0.5 0.5
v 1.8 0.5 0.5
v 1.9 0.5 0.5
v -1.9 0.5 -0.4
v -1.8 0.5 -0.4
v -0.8 0.5 -0.5
v -0.7 0.5 -0.5
v -0.6 0.5 -0.5
v -0.5 0.5 -0.5
v 0.5 0.5 -0.5
v 0.6 0.5 -0.5
v 0.7 0.5 -0.5
v 0.8 0.5 -0.5
v 1.8 0.5 -0.5
v 1.9 0.5 -0.5
v -1.8 0.5 -0.6
v -0.8 0.5 -0.6
v -0.5 0.5 -0.6
v 0.5 0.5 -0.6
v 0.8 0.5 -0.6
v 1.8 0.5 -0.6
v -1.8 0.5 -0.7
v -1.3 0.5 -0.7
v -0.5 0.5 -0.7
v 0.5 0.5 -0.7
v -1.9 0.5 -0.8
v -1.8 0.5 -0.8
v -0.6 0.5 -0.8
v -0.5 0.5 -0.8
v 0.5 0.5 -0.8
v 0.6 0.5 -0.8
v 0.7 0.5 -0.8
v 0.8 0.5 -0.8
v -1.5 0.5 -0.9
v -1.3 0.5 -0.9
v -1.7 0.5 -1.1
v -1.5 0.5 -1.1
v -1.7 0.5 -1.7
v -1.5 0.5 -1.7
v -1.9 0.5 -1.8
v -1.8 0.5 -1.8
v -0.6 0.5 -1.8
v -0.5 0.5 -1.8
v 0.5 0.5 -1.8
v 0.6 0.5 -1.8
v 0.7 0.5 -1.8
v 0.8 0.5 -1.8
v -1.8 0.5 -1.9
v -1.5 0.5 -1.9
v -0.5 0.5 -1.9
v 0.5 0.5 -1.9
v -1.8 0.6 1.9
v -0.8 0.6 1.9
v -0.5 0.6 1.9
v 0.1 0.6 1.9
v -1.9 0.6 1.8
v -1.8 0.6 1.8
v -0.8 0.6 1.8
v -0.7 0.6 1.8
v -0.6 0.6 1.8
v -0.5 0.6 1.8
v -0.2 0.6 1.8
v -0.2 0.6 1.7
v -0.1 0.6 1.7
v -1.7 0.6 1.6
v -1.5 0.6 1.6
v -1.1 0.6 1.6
v -0.9 0.6 1.6
v -0.5 0.6 1.3
v -0.4 0.6 1.3
v -0.2 0.6 1.3
v -0.1 0.6 1.3
v -0.5 0.6 1.2
v -0.4 0.6 1.2
v -0.2 0.6 1.2
v -0.1 0.6 1.2
v -0.5 0.6 1.1
v -0.1 0.6 1.1
v -1.7 0.6 0.9
v -1.5 0.6 0.9
v -1.1 0.6 0.9
v -0.9 0.6 0.9
v -0.4 0.6 0.9
v 0.1 0.6 0.9
v -1.9 0.6 0.8
v -1.8 0.6 0.8
v -0.8 0.6 0.8
v -0.7 0.6 0.8
v -0.6 0.6 0.8
v -0.4 0.6 0.8
v -1.8 0.6 0.7
v -0.8 0.6 0.7
v -1.3 0.6 -0.7
v -0.8 0.6 -0.7
v 0.8 0.6 -0.7
v 1 0.6 -0.7
v -0.8 0.6 -0.8
v -0.7 0.6 -0.8
v -1.5 0.6 -0.9
v -1.3 0.6 -0.9
v 0.8 0.6 -0.9
v 1 0.6 -0.9
v -1.7 0.6 -1.1
v -1.5 0.6 -1.1
v -1.7 0.6 -1.7
v -1.5 0.6 -1.7
v -0.8 0.6 -1.8
v -0.7 0.6 -1.8
v -1.5 0.6 -1.9
v -0.8 0.6 -1.9
v -0.5 0.7 1.8
v -0.2 0.7 1.8
v -0.4 0.7 1.7
v -0.3 0.7 1.7
v -0.2 0.7 1.7
v -0.1 0.7 1.7
v 1.1 0.7 1.7
v 1.5 0.7 1.7
v -0.4 0.7 1.6
v -0.3 0.7 1.6
v 0.9 0.7 1.5
v 1.1 0.7 1.5
v 1.5 0.7 1.5
v 1.7 0.7 1.5
v -0.5 0.7 1.3
v -0.4 0.7 1.3
v -0.2 0.7 1.3
v -0.1 0.7 1.3
v 0.9 0.7 1.3
v 1.1 0.7 1.3
v 1.5 0.7 1.3
v 1.7 0.7 1.3
v -0.5 0.7 1.2
v -0.4 0.7 1.2
v -0.2 0.7 1.2
v -0.1 0.7 1.2
v -0.5 0.7 1.1
v -0.1 0.7 1.1
v 1.1 0.7 1.1
v 1.5 0.7 1.1
v 1 0.7 -0.7
v 1.8 0.7 -0.7
v 1.8 0.7 -0.8
v 1.9 0.7 -0.8
v 0.8 0.7 -0.9
v 1 0.7 -0.9
v 1.2 0.7 -0.9
v 1.9 0.7 -0.9
v 1 0.7 -1.1
v 1.2 0.7 -1.1
v 0.8 0.7 -1.9
v 1 0.7 -1.9
v 1.1 0.9 1.5
v 1.5 0.9 1.5
v 1.1 0.9 1.3
v 1.5 0.9 1.3
v 1.2 0.9 -0.9
v 1.9 0.9 -0.9
v 1 0.9 -1.1
v 1.2 0.9 -1.1
v 1.4 0.9 -1.5
v 1.8 0.9 -1.5
v 1.8 0.9 -1.8
v 1.9 0.9 -1.8
v 1 0.9 -1.9
v 1.4 0.9 -1.9
v 1.4 1.1 -1.5
v 1.8 1.1 -1.5
v 1.4 1.1 -1.9
v 1.8 1.1 -1.9
v -1.4 1.2 1.9
v -1.2 1.2 1.9
v -1.4 1.2 1.8
v -1.2 1.2 1.8
v -1.9 1.2 1.5
v -1.8 1.2 1.5
v -0.8 1.2 1.5
v -0.7 1.2 1.5
v -1.9 1.2 1.1
v -1.8 1.2 1.1
v -0.8 1.2 1.1
v -0.7 1.2 1.1
v -1.8 1.7 1.8
v -0.8 1.7 1.8
v -1.8 1.7 0.8
v -0.8 1.7 0.8

# faces
f 7/8/1 4/8/1 3/8/1
f 8/8/1 4/8/1 7/8/1
f 9/8/1 6/8/1 5/8/1
f 10/8/1 6/8/1 9/8/1
f 11/3/1 2/3/1 1/3/1
f 12/3/1 2/3/1 11/3/1
f 15/1/1 14/1/1 13/1/1
f 16/1/1 14/1/1 15/1/1
f 29/8/1 22/8/1 21/8/1
f 30/8/1 22/8/1 29/8/1
f 31/8/1 24/8/1 23/8/1
f 32/8/1 24/8/1 31/8/1
f 33/8/1 26/8/1 25/8/1
f 34/8/1 26/8/1 33/8/1
f 35/8/1 28/8/1 27/8/1
f 36/8/1 28/8/1 35/8/1
f 37/3/1 18/3/1 17/3/1
f 38/3/1 18/3/1 37/3/1
f 39/3/1 20/3/1 19/3/1
f 40/3/1 20/3/1 39/3/1
f 43/1/1 42/1/1 41/1/1
f 44/1/1 42/1/1 43/1/1
f 45/1/1 43/1/1 41/1/1
f 46/1/1 42/1/1 44/1/1
f 47/1/1 45/1/1 41/1/1
f 47/1/1 46/1/1 45/1/1
f 48/1/1 42/1/1 46/1/1
f 48/1/1 46/1/1 47/1/1
f 53/3/1 50/3/1 49/3/1
f 54/3/1 50/3/1 53/3/1
f 55/2/1 52/2/1 51/2/1
f 56/2/1 52/2/1 55/2/1
f 61/3/1 58/3/1 57/3/1
f 62/3/1 58/3/1 61/3/1
f 63/3/1 60/3/1 59/3/1
f 64/3/1 60/3/1 63/3/1
f 67/2/1 66/2/1 65/2/1
f 68/2/1 66/2/1 67/2/1
f 71/3/1 70/3/1 69/3/1
f 72/3/1 70/3/1 71/3/1
f 75/2/1 74/2/1 73/2/1
f 76/2/1 74/2/1 75/2/1
f 83/8/1 80/8/1 79/8/1
f 84/8/1 80/8/1 83/8/1
f 85/8/1 82/8/1 81/8/1
f 86/8/1 82/8/1 85/8/1
f 87/3/1 78/3/1 77/3/1
f 88/3/1 78/3/1 87/3/1
f 101/8/1 92/8/1 91/8/1
f 102/8/1 92/8/1 101/8/1
f 103/8/1 94/8/1 93/8/1
f 104/8/1 94/8/1 103/8/1
f 105/8/1 96/8/1 95/8/1
f 106/8/1 96/8/1 105/8/1
f 107/8/1 98/8/1 97/8/1
f 108/8/1 98/8/1 107/8/1
f 109/8/1 100/8/1 99/8/1
f 110/8/1 100/8/1 109/8/1
f 111/3/1 90/3/1 89/3/1
f 112/3/1 90/3/1 111/3/1
f 116/8/1 113/8/1 112/8/1
f 117/8/1 113/8/1 116/8/1
f 118/8/1 115/8/1 114/8/1
f 119/8/1 115/8/1 118/8/1
f 122/8/1 121/8/1 120/8/1
f 123/8/1 121/8/1 122/8/1
f 130/8/1 125/8/1 124/8/1
f 131/8/1 125/8/1 130/8/1
f 132/8/1 127/8/1 126/8/1
f 133/8/1 127/8/1 132/8/1
f 134/3/1 129/3/1 128/3/1
f 135/3/1 129/3/1 134/3/1
f 148/8/1 137/8/1 136/8/1
f 149/8/1 137/8/1 148/8/1
f 150/8/1 139/8/1 138/8/1
f 151/8/1 139/8/1 150/8/1
f 152/8/1 141/8/1 140/8/1
f 153/8/1 141/8/1 152/8/1
f 154/8/1 143/8/1 142/8/1
f 155/8/1 143/8/1 154/8/1
f 156/3/1 145/3/1 144/3/1
f 157/3/1 147/3/1 146/3/1
f 158/3/1 156/3/1 144/3/1
f 158/3/1 157/3/1 156/3/1
f 159/3/1 157/3/1 158/3/1
f 160/3/1 157/3/1 159/3/1
f 161/3/1 147/3/1 157/3/1
f 161/3/1 157/3/1 160/3/1
f 164/3/1 163/3/1 162/3/1
f 165/3/1 163/3/1 164/3/1
f 168/3/1 167/3/1 166/3/1
f 169/3/1 167/3/1 168/3/1
f 172/3/1 171/3/1 170/3/1
f 173/3/1 171/3/1 172/3/1
f 178/3/1 175/3/1 174/3/1
f 179/3/1 175/3/1 178/3/1
f 180/3/1 177/3/1 176/3/1
f 181/3/1 177/3/1 180/3/1
f 182/3/1 180/3/1 179/3/1
f 183/3/1 180/3/1 182/3/1
f 186/3/1 185/3/1 184/3/1
f 187/3/1 185/3/1 186/3/1
f 190/3/1 189/3/1 188/3/1
f 191/3/1 189/3/1 190/3/1
f 192/2/2 193/2/2 194/2/2
f 194/2/2 193/2/2 195/2/2
f 196/2/2 197/2/2 198/2/2
f 198/2/2 197/2/2 199/2/2
f 200/2/2 201/2/2 202/2/2
f 202/2/2 201/2/2 203/2/2
f 208/8/2 209/8/2 216/8/2
f 216/8/2 209/8/2 217/8/2
f 210/8/2 211/8/2 218/8/2
f 218/8/2 211/8/2 219/8/2
f 212/8/2 213/8/2 220/8/2
f 220/8/2 213/8/2 221/8/2
f 214/8/2 215/8/2 222/8/2
f 222/8/2 215/8/2 223/8/2
f 204/3/2 205/3/2 224/3/2
f 224/3/2 205/3/2 225/3/2
f 206/3/2 207/3/2 226/3/2
f 226/3/2 207/3/2 227/3/2
f 220/3/2 221/3/2 228/3/2
f 228/3/2 221/3/2 229/3/2
f 222/3/2 223/3/2 230/3/2
f 230/3/2 223/3/2 231/3/2
f 232/1/2 233/1/2 234/1/2
f 234/1/2 233/1/2 235/1/2
f 232/1/2 234/1/2 236/1/2
f 235/1/2 233/1/2 237/1/2
f 232/1/2 236/1/2 238/1/2
f 236/1/2 237/1/2 238/1/2
f 237/1/2 233/1/2 239/1/2
f 238/1/2 237/1/2 239/1/2
f 242/8/2 243/8/2 246/8/2
f 246/8/2 243/8/2 247/8/2
f 244/8/2 245/8/2 248/8/2
f 248/8/2 245/8/2 249/8/2
f 240/3/2 241/3/2 250/3/2
f 250/3/2 241/3/2 251/3/2
f 248/3/2 249/3/2 252/3/2
f 252/3/2 249/3/2 253/3/2
f 254/1/2 255/1/2 256/1/2
f 256/1/2 255/1/2 257/1/2
f 258/3/2 259/3/2 260/3/2
f 260/3/2 259/3/2 261/3/2
f 262/8/2 263/8/2 266/8/2
f 266/8/2 263/8/2 267/8/2
f 264/8/2 265/8/2 268/8/2
f 268/8/2 265/8/2 269/8/2
f 270/8/2 271/8/2 274/8/2
f 274/8/2 271/8/2 275/8/2
f 272/8/2 273/8/2 276/8/2
f 276/8/2 273/8/2 277/8/2
f 278/3/2 279/3/2 280/3/2
f 280/3/2 279/3/2 281/3/2
f 282/8/2 283/8/2 294/8/2
f 294/8/2 283/8/2 295/8/2
f 284/8/2 285/8/2 296/8/2
f 296/8/2 285/8/2 297/8/2
f 286/8/2 287/8/2 298/8/2
f 298/8/2 287/8/2 299/8/2
f 288/8/2 289/8/2 300/8/2
f 300/8/2 289/8/2 301/8/2
f 290/8/2 291/8/2 302/8/2
f 302/8/2 291/8/2 303/8/2
f 292/8/2 293/8/2 304/8/2
f 304/8/2 293/8/2 305/8/2
f 306/8/2 307/8/2 312/8/2
f 312/8/2 307/8/2 313/8/2
f 308/8/2 309/8/2 314/8/2
f 314/8/2 309/8/2 315/8/2
f 310/8/2 311/8/2 316/8/2
f 316/8/2 311/8/2 317/8/2
f 318/3/2 319/3/2 322/3/2
f 322/3/2 319/3/2 323/3/2
f 320/3/2 321/3/2 324/3/2
f 324/3/2 321/3/2 325/3/2
f 323/3/2 324/3/2 326/3/2
f 326/3/2 324/3/2 327/3/2
f 328/3/2 329/3/2 330/3/2
f 330/3/2 329/3/2 331/3/2
f 332/8/2 333/8/2 344/8/2
f 344/8/2 333/8/2 345/8/2
f 334/8/2 335/8/2 346/8/2
f 346/8/2 335/8/2 347/8/2
f 336/8/2 337/8/2 348/8/2
f 348/8/2 337/8/2 349/8/2
f 338/8/2 339/8/2 350/8/2
f 350/8/2 339/8/2 351/8/2
f 340/3/2 341/3/2 352/3/2
f 352/3/2 341/3/2 353/3/2
f 342/3/2 343/3/2 355/3/2
f 354/3/2 355/3/2 356/3/2
f 355/3/2 343/3/2 357/3/2
f 356/3/2 355/3/2 357/3/2
f 358/8/2 359/8/2 364/8/2
f 364/8/2 359/8/2 365/8/2
f 360/8/2 361/8/2 366/8/2
f 366/8/2 361/8/2 367/8/2
f 362/3/2 363/3/2 368/3/2
f 368/3/2 363/3/2 369/3/2
f 369/3/2 363/3/2 370/3/2
f 370/3/2 363/3/2 371/3/2
f 376/2/3 375/2/3 374/2/3
f 377/2/3 375/2/3 376/2/3
f 378/3/3 373/3/3 372/3/3
f 379/3/3 373/3/3 378/3/3
f 382/3/3 381/3/3 380/3/3
f 383/3/3 381/3/3 382/3/3
f 384/3/3 381/3/3 383/3/3
f 385/8/3 383/8/3 382/8/3
f 386/8/3 383/8/3 385/8/3
f 389/8/3 388/8/3 387/8/3
f 390/8/3 388/8/3 389/8/3
f 393/3/3 392/3/3 391/3/3
f 394/3/3 392/3/3 393/3/3
f 397/1/3 396/1/3 395/1/3
f 398/1/3 396/1/3 397/1/3
f 399/10/3 398/10/3 397/10/3
f 400/10/3 398/10/3 399/10/3
f 401/10/3 399/10/3 397/10/3
f 402/13/3 400/13/3 399/13/3
f 402/10/3 399/10/3 401/10/3
f 403/10/3 398/10/3 400/10/3
f 403/13/3 400/13/3 402/13/3
f 404/10/3 398/10/3 403/10/3
f 405/1/3 396/1/3 398/1/3
f 405/10/3 398/10/3 404/10/3
f 406/10/3 401/10/3 397/10/3
f 407/10/3 404/10/3 403/10/3
f 407/10/3 403/10/3 402/10/3
f 408/10/3 404/10/3 407/10/3
f 409/1/3 405/1/3 404/1/3
f 409/10/3 404/10/3 408/10/3
f 410/1/3 396/1/3 405/1/3
f 410/1/3 405/1/3 409/1/3
f 411/13/3 408/13/3 407/13/3
f 411/10/3 407/10/3 406/10/3
f 412/10/3 409/10/3 408/10/3
f 412/13/3 408/13/3 411/13/3
f 412/10/3 410/10/3 409/10/3
f 413/1/3 397/1/3 395/1/3
f 413/10/3 406/10/3 397/10/3
f 413/10/3 412/10/3 411/10/3
f 413/10/3 411/10/3 406/10/3
f 414/10/3 410/10/3 412/10/3
f 414/10/3 412/10/3 413/10/3
f 414/1/3 396/1/3 410/1/3
f 417/1/3 413/1/3 395/1/3
f 417/1/3 414/1/3 413/1/3
f 418/1/3 396/1/3 414/1/3
f 418/1/3 414/1/3 417/1/3
f 419/3/3 416/3/3 415/3/3
f 420/3/3 416/3/3 419/3/3
f 423/3/3 422/3/3 421/3/3
f 424/3/3 422/3/3 423/3/3
f 426/8/3 425/8/3 424/8/3
f 427/8/3 425/8/3 426/8/3
f 430/8/3 429/8/3 428/8/3
f 431/8/3 429/8/3 430/8/3
f 434/8/3 433/8/3 432/8/3
f 435/8/3 433/8/3 434/8/3
f 438/8/3 437/8/3 436/8/3
f 439/8/3 437/8/3 438/8/3
f 442/8/3 441/8/3 440/8/3
f 443/8/3 441/8/3 442/8/3
f 446/3/3 445/3/3 444/3/3
f 447/3/3 445/3/3 446/3/3
f 450/2/3 449/2/3 448/2/3
f 451/2/3 449/2/3 450/2/3
f 454/2/3 453/2/3 452/2/3
f 455/2/3 453/2/3 454/2/3
f 458/1/3 457/1/3 456/1/3
f 459/1/3 457/1/3 458/1/3
f 462/1/3 461/1/3 460/1/3
f 463/1/3 461/1/3 462/1/3
f 466/3/3 465/3/3 464/3/3
f 467/3/3 465/3/3 466/3/3
f 470/3/3 468/3/3 467/3/3
f 471/3/3 468/3/3 470/3/3
f 472/3/3 470/3/3 469/3/3
f 473/3/3 470/3/3 472/3/3
f 476/8/3 475/8/3 474/8/3
f 477/8/3 475/8/3 476/8/3
f 480/8/3 479/8/3 478/8/3
f 481/8/3 479/8/3 480/8/3
f 484/8/3 483/8/3 482/8/3
f 485/8/3 483/8/3 484/8/3
f 488/8/3 487/8/3 486/8/3
f 489/8/3 487/8/3 488/8/3
f 492/8/3 491/8/3 490/8/3
f 493/8/3 491/8/3 492/8/3
f 496/8/3 495/8/3 494/8/3
f 497/8/3 495/8/3 496/8/3
f 500/8/3 499/8/3 498/8/3
f 501/8/3 499/8/3 500/8/3
f 504/8/3 503/8/3 502/8/3
f 505/8/3 503/8/3 504/8/3
f 508/8/3 507/8/3 506/8/3
f 509/8/3 507/8/3 508/8/3
f 512/8/3 511/8/3 510/8/3
f 513/8/3 511/8/3 512/8/3
f 516/8/3 515/8/3 514/8/3
f 517/8/3 515/8/3 516/8/3
f 520/8/3 519/8/3 518/8/3
f 522/8/3 520/8/3 518/8/3
f 523/3/3 521/3/3 520/3/3
f 523/8/3 520/8/3 522/8/3
f 524/3/3 521/3/3 523/3/3
f 527/8/3 526/8/3 525/8/3
f 528/8/3 526/8/3 527/8/3
f 531/3/3 530/3/3 529/3/3
f 533/3/3 531/3/3 529/3/3
f 533/3/3 532/3/3 531/3/3
f 534/3/3 532/3/3 533/3/3
f 537/8/3 536/8/3 535/8/3
f 538/8/3 536/8/3 537/8/3
f 542/8/3 540/8/3 539/8/3
f 543/3/3 541/3/3 540/3/3
f 543/8/3 540/8/3 542/8/3
f 544/3/3 541/3/3 543/3/3
f 547/8/3 546/8/3 545/8/3
f 548/8/3 546/8/3 547/8/3
f 551/8/3 550/8/3 549/8/3
f 552/8/3 550/8/3 551/8/3
f 555/3/3 554/3/3 553/3/3
f 556/3/3 554/3/3 555/3/3
f 559/3/3 558/3/3 557/3/3
f 560/3/3 558/3/3 559/3/3
f 563/3/3 562/3/3 561/3/3
f 564/3/3 562/3/3 563/3/3
f 567/3/3 566/3/3 565/3/3
f 568/3/3 566/3/3 567/3/3
f 571/3/3 570/3/3 569/3/3
f 572/3/3 570/3/3 571/3/3
f 575/3/3 574/3/3 573/3/3
f 576/3/3 574/3/3 575/3/3
f 579/3/3 578/3/3 577/3/3
f 580/3/3 578/3/3 579/3/3
f 583/3/3 582/3/3 581/3/3
f 584/3/3 582/3/3 583/3/3
f 585/8/4 586/8/4 587/8/4
f 587/8/4 586/8/4 588/8/4
f 589/8/4 590/8/4 591/8/4
f 591/8/4 590/8/4 592/8/4
f 593/3/4 594/3/4 595/3/4
f 595/3/4 594/3/4 596/3/4
f 596/3/4 597/3/4 599/3/4
f 599/3/4 597/3/4 600/3/4
f 598/3/4 599/3/4 601/3/4
f 601/3/4 599/3/4 602/3/4
f 603/1/4 604/1/4 605/1/4
f 605/1/4 604/1/4 606/1/4
f 607/1/4 608/1/4 609/1/4
f 609/1/4 608/1/4 610/1/4
f 611/8/4 612/8/4 613/8/4
f 613/8/4 612/8/4 614/8/4
f 615/3/4 616/3/4 617/3/4
f 617/3/4 616/3/4 618/3/4
f 619/2/4 620/2/4 621/2/4
f 621/2/4 620/2/4 622/2/4
f 623/2/4 624/2/4 625/2/4
f 625/2/4 624/2/4 626/2/4
f 627/3/4 628/3/4 629/3/4
f 629/3/4 628/3/4 630/3/4
f 631/3/4 632/3/4 633/3/4
f 633/3/4 632/3/4 634/3/4
f 635/1/4 636/1/4 639/1/4
f 639/1/4 636/1/4 640/1/4
f 637/3/4 638/3/4 641/3/4
f 641/3/4 638/3/4 642/3/4
f 643/3/4 644/3/4 645/3/4
f 645/3/4 644/3/4 646/3/4
f 646/3/4 644/3/4 647/3/4
f 647/3/4 644/3/4 648/3/4
f 649/8/4 650/8/4 651/8/4
f 651/8/4 650/8/4 652/8/4
f 653/8/4 654/8/4 655/8/4
f 655/8/4 654/8/4 656/8/4
f 657/8/4 658/8/4 659/8/4
f 659/8/4 658/8/4 660/8/4
f 661/3/4 662/3/4 663/3/4
f 663/3/4 662/3/4 664/3/4
f 665/8/4 666/8/4 667/8/4
f 667/8/4 666/8/4 668/8/4
f 669/8/4 670/8/4 671/8/4
f 671/8/4 670/8/4 672/8/4
f 673/8/4 674/8/4 675/8/4
f 675/8/4 674/8/4 676/8/4
f 677/8/4 678/8/4 679/8/4
f 679/8/4 678/8/4 680/8/4
f 681/8/4 682/8/4 683/8/4
f 683/8/4 682/8/4 684/8/4
f 685/8/4 686/8/4 687/8/4
f 687/8/4 686/8/4 688/8/4
f 689/8/4 690/8/4 691/8/4
f 691/8/4 690/8/4 692/8/4
f 693/8/4 694/8/4 695/8/4
f 695/8/4 694/8/4 696/8/4
f 697/8/4 698/8/4 699/8/4
f 699/8/4 698/8/4 700/8/4
f 701/8/4 702/8/4 703/8/4
f 703/8/4 702/8/4 704/8/4
f 705/8/4 706/8/4 707/8/4
f 707/8/4 706/8/4 708/8/4
f 709/3/4 710/3/4 711/3/4
f 711/3/4 710/3/4 712/3/4
f 713/8/4 714/8/4 715/8/4
f 715/8/4 714/8/4 716/8/4
f 717/8/4 718/8/4 720/8/4
f 718/3/4 719/3/4 721/3/4
f 720/8/4 718/8/4 721/8/4
f 721/3/4 719/3/4 722/3/4
f 723/8/4 724/8/4 725/8/4
f 725/8/4 724/8/4 726/8/4
f 727/8/4 728/8/4 729/8/4
f 729/8/4 728/8/4 730/8/4
f 731/3/4 732/3/4 733/3/4
f 733/3/4 732/3/4 734/3/4
f 735/3/4 736/3/4 737/3/4
f 737/3/4 736/3/4 738/3/4
f 739/8/4 740/8/4 741/8/4
f 739/8/4 741/8/4 743/8/4
f 741/3/4 742/3/4 744/3/4
f 743/8/4 741/8/4 744/8/4
f 744/3/4 742/3/4 745/3/4
f 746/8/4 747/8/4 748/8/4
f 748/8/4 747/8/4 749/8/4
f 750/3/4 751/3/4 752/3/4
f 752/3/4 753/3/4 754/3/4
f 750/3/4 752/3/4 756/3/4
f 754/3/4 755/3/4 756/3/4
f 752/3/4 754/3/4 756/3/4
f 756/3/4 755/3/4 757/3/4
f 766/3/5 759/3/5 758/3/5
f 767/3/5 759/3/5 766/3/5
f 770/3/5 761/3/5 760/3/5
f 771/8/5 762/8/5 761/8/5
f 774/8/5 764/8/5 763/8/5
f 775/8/5 764/8/5 774/8/5
f 777/3/5 770/3/5 769/3/5
f 777/3/5 761/3/5 770/3/5
f 778/8/5 772/8/5 771/8/5
f 778/3/5 761/3/5 777/3/5
f 778/8/5 771/8/5 761/8/5
f 779/3/5 768/3/5 767/3/5
f 779/3/5 766/3/5 765/3/5
f 779/3/5 767/3/5 766/3/5
f 780/3/5 768/3/5 779/3/5
f 781/3/5 768/3/5 780/3/5
f 782/3/5 768/3/5 781/3/5
f 783/3/5 777/3/5 769/3/5
f 784/3/5 777/3/5 783/3/5
f 785/8/5 778/8/5 777/8/5
f 785/3/5 777/3/5 784/3/5
f 786/8/5 772/8/5 778/8/5
f 786/8/5 778/8/5 785/8/5
f 787/8/5 772/8/5 786/8/5
f 788/8/5 776/8/5 775/8/5
f 788/8/5 775/8/5 774/8/5
f 788/8/5 774/8/5 773/8/5
f 789/8/5 776/8/5 788/8/5
f 790/8/5 776/8/5 789/8/5
f 791/8/5 776/8/5 790/8/5
f 792/3/5 781/3/5 780/3/5
f 793/3/5 781/3/5 792/3/5
f 794/8/5 785/8/5 784/8/5
f 794/8/5 786/8/5 785/8/5
f 795/8/5 786/8/5 794/8/5
f 796/8/5 790/8/5 789/8/5
f 797/8/5 790/8/5 796/8/5
f 805/8/5 799/8/5 798/8/5
f 806/8/5 799/8/5 805/8/5
f 809/8/5 801/8/5 800/8/5
f 810/8/5 801/8/5 809/8/5
f 813/8/5 803/8/5 802/8/5
f 814/8/5 803/8/5 813/8/5
f 816/8/5 807/8/5 806/8/5
f 816/8/5 805/8/5 804/8/5
f 816/8/5 806/8/5 805/8/5
f 817/8/5 807/8/5 816/8/5
f 818/8/5 807/8/5 817/8/5
f 819/8/5 807/8/5 818/8/5
f 820/8/5 811/8/5 810/8/5
f 820/8/5 809/8/5 808/8/5
f 820/8/5 810/8/5 809/8/5
f 821/8/5 811/8/5 820/8/5
f 822/8/5 811/8/5 821/8/5
f 823/8/5 811/8/5 822/8/5
f 824/8/5 814/8/5 813/8/5
f 824/8/5 815/8/5 814/8/5
f 824/8/5 813/8/5 812/8/5
f 825/8/5 815/8/5 824/8/5
f 826/8/5 815/8/5 825/8/5
f 827/8/5 815/8/5 826/8/5
f 828/8/5 818/8/5 817/8/5
f 829/8/5 818/8/5 828/8/5
f 830/8/5 822/8/5 821/8/5
f 831/8/5 822/8/5 830/8/5
f 832/8/5 826/8/5 825/8/5
f 833/8/5 826/8/5 832/8/5
f 841/8/5 835/8/5 834/8/5
f 842/8/5 835/8/5 841/8/5
f 845/8/5 837/8/5 836/8/5
f 846/8/5 837/8/5 845/8/5
f 849/3/5 839/3/5 838/3/5
f 850/3/5 839/3/5 849/3/5
f 852/8/5 843/8/5 842/8/5
f 852/8/5 841/8/5 840/8/5
f 852/8/5 842/8/5 841/8/5
f 853/8/5 843/8/5 852/8/5
f 854/8/5 843/8/5 853/8/5
f 855/8/5 843/8/5 854/8/5
f 856/8/5 847/8/5 846/8/5
f 856/8/5 845/8/5 844/8/5
f 856/8/5 846/8/5 845/8/5
f 857/8/5 847/8/5 856/8/5
f 858/8/5 847/8/5 857/8/5
f 859/8/5 847/8/5 858/8/5
f 860/3/5 850/3/5 849/3/5
f 860/3/5 851/3/5 850/3/5
f 860/3/5 849/3/5 848/3/5
f 861/3/5 851/3/5 860/3/5
f 862/3/5 851/3/5 861/3/5
f 863/3/5 851/3/5 862/3/5
f 864/8/5 854/8/5 853/8/5
f 865/8/5 854/8/5 864/8/5
f 866/8/5 858/8/5 857/8/5
f 867/8/5 858/8/5 866/8/5
f 868/3/5 862/3/5 861/3/5
f 869/3/5 862/3/5 868/3/5
f 872/1/5 871/1/5 870/1/5
f 873/1/5 871/1/5 872/1/5
f 874/1/5 871/1/5 873/1/5
f 875/1/5 871/1/5 874/1/5
f 876/1/5 872/1/5 870/1/5
f 877/1/5 874/1/5 873/1/5
f 878/1/5 874/1/5 877/1/5
f 879/1/5 871/1/5 875/1/5
f 880/1/5 878/1/5 877/1/5
f 880/1/5 879/1/5 878/1/5
f 880/1/5 876/1/5 870/1/5
f 880/1/5 877/1/5 876/1/5
f 881/1/5 871/1/5 879/1/5
f 881/1/5 879/1/5 880/1/5
f 886/1/5 883/1/5 882/1/5
f 887/1/5 883/1/5 886/1/5
f 888/1/5 885/1/5 884/1/5
f 889/1/5 885/1/5 888/1/5
f 892/2/5 891/2/5 890/2/5
f 893/2/5 891/2/5 892/2/5
f 894/8/6 895/8/6 898/8/6
f 896/8/6 897/8/6 901/8/6
f 901/8/6 897/8/6 902/8/6
f 900/8/6 901/8/6 904/8/6
f 902/8/6 903/8/6 904/8/6
f 901/8/6 902/8/6 904/8/6
f 904/8/6 903/8/6 905/8/6
f 900/8/6 904/8/6 906/8/6
f 906/8/6 904/8/6 907/8/6
f 905/8/6 903/8/6 908/8/6
f 908/8/6 903/8/6 909/8/6
f 900/8/6 906/8/6 910/8/6
f 909/8/6 903/8/6 913/8/6
f 910/8/6 911/8/6 914/8/6
f 912/8/6 913/8/6 915/8/6
f 898/8/6 899/8/6 917/8/6
f 894/8/6 898/8/6 917/8/6
f 916/8/6 917/8/6 919/8/6
f 917/8/6 899/8/6 920/8/6
f 919/8/6 917/8/6 920/8/6
f 920/8/6 899/8/6 921/8/6
f 914/8/6 915/8/6 922/8/6
f 910/8/6 914/8/6 922/8/6
f 900/8/6 910/8/6 922/8/6
f 922/8/6 915/8/6 923/8/6
f 915/8/6 913/8/6 924/8/6
f 923/8/6 915/8/6 924/8/6
f 913/8/6 903/8/6 924/8/6
f 924/8/6 903/8/6 925/8/6
f 919/8/6 920/8/6 926/8/6
f 918/8/6 919/8/6 926/8/6
f 926/8/6 920/8/6 927/8/6
f 923/8/6 924/8/6 928/8/6
f 928/8/6 924/8/6 929/8/6
f 930/8/6 931/8/6 937/8/6
f 937/8/6 931/8/6 938/8/6
f 932/8/6 933/8/6 941/8/6
f 941/8/6 933/8/6 942/8/6
f 934/8/6 935/8/6 945/8/6
f 945/8/6 935/8/6 946/8/6
f 938/8/6 939/8/6 948/8/6
f 936/8/6 937/8/6 948/8/6
f 937/8/6 938/8/6 948/8/6
f 948/8/6 939/8/6 949/8/6
f 949/8/6 939/8/6 950/8/6
f 950/8/6 939/8/6 951/8/6
f 942/8/6 943/8/6 952/8/6
f 940/8/6 941/8/6 952/8/6
f 941/8/6 942/8/6 952/8/6
f 952/8/6 943/8/6 953/8/6
f 953/8/6 943/8/6 954/8/6
f 954/8/6 943/8/6 955/8/6
f 945/8/6 946/8/6 956/8/6
f 946/8/6 947/8/6 956/8/6
f 944/8/6 945/8/6 956/8/6
f 956/8/6 947/8/6 957/8/6
f 957/8/6 947/8/6 958/8/6
f 958/8/6 947/8/6 959/8/6
f 949/8/6 950/8/6 960/8/6
f 960/8/6 950/8/6 961/8/6
f 953/8/6 954/8/6 962/8/6
f 962/8/6 954/8/6 963/8/6
f 957/8/6 958/8/6 964/8/6
f 964/8/6 958/8/6 965/8/6
f 966/8/6 967/8/6 971/8/6
f 968/8/6 969/8/6 973/8/6
f 973/8/6 969/8/6 974/8/6
f 970/8/6 971/8/6 978/8/6
f 971/8/6 967/8/6 978/8/6
f 978/8/6 967/8/6 979/8/6
f 970/8/6 978/8/6 980/8/6
f 980/8/6 978/8/6 981/8/6
f 970/8/6 980/8/6 982/8/6
f 970/8/6 982/8/6 984/8/6
f 982/8/6 983/8/6 984/8/6
f 984/8/6 983/8/6 985/8/6
f 974/8/6 975/8/6 986/8/6
f 972/8/6 973/8/6 986/8/6
f 973/8/6 974/8/6 986/8/6
f 986/8/6 975/8/6 987/8/6
f 987/8/6 975/8/6 988/8/6
f 988/8/6 975/8/6 989/8/6
f 976/3/6 977/3/6 990/3/6
f 990/3/6 977/3/6 991/3/6
f 985/8/6 983/8/6 992/8/6
f 992/8/6 983/8/6 993/8/6
f 987/8/6 988/8/6 994/8/6
f 994/8/6 988/8/6 995/8/6
f 996/3/6 997/3/6 1001/3/6
f 1001/3/6 997/3/6 1002/3/6
f 998/3/6 999/3/6 1005/3/6
f 1005/3/6 999/3/6 1006/3/6
f 1006/3/6 999/3/6 1007/3/6
f 1007/3/6 999/3/6 1008/3/6
f 1002/3/6 1003/3/6 1009/3/6
f 1000/3/6 1001/3/6 1009/3/6
f 1001/3/6 1002/3/6 1009/3/6
f 1009/3/6 1003/3/6 1010/3/6
f 1010/3/6 1003/3/6 1011/3/6
f 1011/3/6 1003/3/6 1012/3/6
f 1004/3/6 1005/3/6 1013/3/6
f 1008/3/6 999/3/6 1016/3/6
f 1013/3/6 1014/3/6 1017/3/6
f 1004/3/6 1013/3/6 1017/3/6
f 1017/3/6 1014/3/6 1018/3/6
f 1015/3/6 1016/3/6 1019/3/6
f 1016/3/6 999/3/6 1020/3/6
f 1019/3/6 1016/3/6 1020/3/6
f 1004/3/6 1017/3/6 1021/3/6
f 1020/3/6 999/3/6 1022/3/6
f 1000/3/6 1009/3/6 1023/3/6
f 1010/3/6 1011/3/6 1024/3/6
f 1024/3/6 1011/3/6 1025/3/6
f 1012/3/6 1003/3/6 1026/3/6
f 1021/3/6 1022/3/6 1027/3/6
f 1022/3/6 999/3/6 1028/3/6
f 1027/3/6 1022/3/6 1028/3/6
f 1024/3/6 1025/3/6 1029/3/6
f 1025/3/6 1026/3/6 1029/3/6
f 1000/3/6 1023/3/6 1029/3/6
f 1023/3/6 1024/3/6 1029/3/6
f 1029/3/6 1026/3/6 1030/3/6
f 1026/3/6 1003/3/6 1031/3/6
f 1030/3/6 1026/3/6 1031/3/6
f 1031/3/6 1003/3/6 1032/3/6
f 1004/3/6 1021/3/6 1033/3/6
f 1021/3/6 1027/3/6 1033/3/6
f 1033/3/6 1027/3/6 1034/3/6
f 1030/3/6 1031/3/6 1035/3/6
f 1035/3/6 1031/3/6 1036/3/6
f 1037/3/6 1038/3/6 1041/3/6
f 1037/3/6 1041/3/6 1044/3/6
f 1041/3/6 1042/3/6 1044/3/6
f 1039/3/6 1040/3/6 1045/3/6
f 1045/3/6 1040/3/6 1046/3/6
f 1043/3/6 1044/3/6 1048/3/6
f 1047/3/6 1048/3/6 1049/3/6
f 1048/3/6 1044/3/6 1050/3/6
f 1049/3/6 1048/3/6 1050/3/6
f 1044/3/6 1042/3/6 1051/3/6
f 1050/3/6 1044/3/6 1051/3/6
f 1051/3/6 1042/3/6 1052/3/6
f 1050/3/6 1051/3/6 1053/3/6
f 1053/3/6 1051/3/6 1054/3/6
f 1055/8/6 1056/8/6 1057/8/6
f 1057/8/6 1056/8/6 1058/8/6
f 1058/8/6 1056/8/6 1059/8/6
f 1055/8/6 1057/8/6 1063/8/6
f 1057/13/6 1058/13/6 1063/13/6
f 1059/8/6 1060/8/6 1064/8/6
f 1063/13/6 1058/13/6 1064/13/6
f 1058/8/6 1059/8/6 1064/8/6
f 1061/3/6 1062/3/6 1066/3/6
f 1066/3/6 1062/3/6 1067/3/6
f 1055/8/6 1063/8/6 1069/8/6
f 1063/8/6 1064/8/6 1069/8/6
f 1069/8/6 1064/8/6 1070/8/6
f 1064/8/6 1060/8/6 1071/8/6
f 1070/8/6 1064/8/6 1071/8/6
f 1071/8/6 1060/8/6 1072/8/6
f 1065/3/6 1066/3/6 1073/3/6
f 1073/3/6 1066/3/6 1074/3/6
f 1067/3/6 1068/3/6 1075/3/6
f 1075/3/6 1068/3/6 1076/3/6
f 1070/8/6 1071/8/6 1078/8/6
f 1078/8/6 1071/8/6 1079/8/6
f 1077/8/6 1078/8/6 1081/8/6
f 1079/8/6 1080/8/6 1081/8/6
f 1078/8/6 1079/8/6 1081/8/6
f 1081/8/6 1080/8/6 1082/8/6
f 1074/3/6 1075/3/6 1083/3/6
f 1083/3/6 1075/3/6 1084/3/6
f 1085/3/6 1086/3/6 1087/3/6
f 1085/3/6 1087/3/6 1090/3/6
f 1087/3/6 1088/3/6 1090/3/6
f 1090/3/6 1088/3/6 1091/3/6
f 1091/3/6 1088/3/6 1092/3/6
f 1089/3/6 1090/3/6 1093/3/6
f 1090/3/6 1091/3/6 1093/3/6
f 1093/3/6 1091/3/6 1094/3/6
f 1089/3/6 1093/3/6 1095/3/6
f 1095/3/6 1093/3/6 1096/3/6
f 1097/3/6 1098/3/6 1099/3/6
f 1099/3/6 1098/3/6 1100/3/6
f 1101/3/6 1102/3/6 1104/3/6
f 1104/3/6 1102/3/6 1105/3/6
f 1103/3/6 1104/3/6 1105/3/6
f 1105/3/6 1102/3/6 1106/3/6
f 1106/3/6 1102/3/6 1107/3/6
f 1107/3/6 1102/3/6 1108/3/6
f 1103/3/6 1105/3/6 1109/3/6
f 1109/3/6 1105/3/6 1110/3/6
f 1111/3/6 1112/3/6 1113/3/6
f 1113/3/6 1112/3/6 1114/3/6
f 1115/2/6 1116/2/6 1117/2/6
f 1117/2/6 1116/2/6 1118/2/6
f 1119/1/6 1120/1/6 1123/1/6
f 1123/1/6 1120/1/6 1124/1/6
f 1121/1/6 1122/1/6 1125/1/6
f 1125/1/6 1122/1/6 1126/1/6
f 1127/1/6 1128/1/6 1129/1/6
f 1129/1/6 1128/1/6 1130/1/6
