# MagicaVoxel @ Ephtracy

# group
o 

# material
mtllib chapter_seven_tile.mtl
usemtl palette

# normals
vn -1 0 0
vn 1 0 0
vn 0 0 1
vn 0 0 -1
vn 0 -1 0
vn 0 1 0

# texcoords
vt 0.130859 0.5
vt 0.513672 0.5
vt 0.556641 0.5
vt 0.619141 0.5
vt 0.693359 0.5
vt 0.837891 0.5
vt 0.947266 0.5
vt 0.951172 0.5
vt 0.962891 0.5
vt 0.990234 0.5

# verts
v -1.9 0.3 1.8
v -1.9 0.3 0.8
v -1.9 0.3 0.5
v -1.9 0.3 -0.5
v -1.9 0.3 -0.8
v -1.9 0.3 -1.8
v -1.9 0.5 1.8
v -1.9 0.5 1.5
v -1.9 0.5 0.9
v -1.9 0.5 0.8
v -1.9 0.5 0.5
v -1.9 0.5 -0.5
v -1.9 0.5 -0.8
v -1.9 0.5 -1.8
v -1.9 0.6 1.5
v -1.9 0.6 0.9
v -1.9 0.6 -0.8
v -1.9 0.6 -1.1
v -1.9 0.8 1.5
v -1.9 0.8 1.4
v -1.9 0.8 1.3
v -1.9 0.8 1.2
v -1.9 0.8 1.1
v -1.9 0.8 1
v -1.9 0.8 -0.8
v -1.9 0.8 -1.1
v -1.9 1 1.4
v -1.9 1 1.3
v -1.9 1 1.2
v -1.9 1 1.1
v -1.9 1.2 1.5
v -1.9 1.2 1
v -1.8 0.3 1.9
v -1.8 0.3 1.8
v -1.8 0.3 0.8
v -1.8 0.3 0.7
v -1.8 0.3 0.6
v -1.8 0.3 0.5
v -1.8 0.3 -0.5
v -1.8 0.3 -0.6
v -1.8 0.3 -0.7
v -1.8 0.3 -0.8
v -1.8 0.3 -1.8
v -1.8 0.3 -1.9
v -1.8 0.5 1.9
v -1.8 0.5 1.8
v -1.8 0.5 0.8
v -1.8 0.5 0.7
v -1.8 0.5 0.6
v -1.8 0.5 0.5
v -1.8 0.5 -0.5
v -1.8 0.5 -0.6
v -1.8 0.5 -0.7
v -1.8 0.5 -0.8
v -1.8 0.5 -1.8
v -1.8 0.5 -1.9
v -1.8 0.7 1.8
v -1.8 0.7 0.8
v -1.8 0.7 -1.1
v -1.8 0.7 -1.2
v -1.8 0.8 1.5
v -1.8 0.8 1.4
v -1.8 0.8 1.3
v -1.8 0.8 1.2
v -1.8 0.8 1.1
v -1.8 0.8 1
v -1.8 0.8 -0.9
v -1.8 0.8 -1.1
v -1.8 0.9 -0.9
v -1.8 0.9 -1.2
v -1.8 1 1.8
v -1.8 1 1.7
v -1.8 1.1 1.8
v -1.8 1.1 1.7
v -1.8 1.2 1.5
v -1.8 1.2 1
v -1.8 1.6 1.8
v -1.8 1.6 1.6
v -1.8 1.6 1.3
v -1.8 1.6 0.8
v -1.8 1.8 1.6
v -1.8 1.8 1.3
v -1.7 0.6 1.6
v -1.7 0.6 1.4
v -1.7 0.6 1
v -1.7 0.6 0.9
v -1.7 0.6 -1.1
v -1.7 0.6 -1.2
v -1.7 0.7 1.6
v -1.7 0.7 0.9
v -1.7 0.7 0.8
v -1.7 0.7 0.7
v -1.7 0.7 -1.1
v -1.7 0.7 -1.2
v -1.7 1 0.8
v -1.7 1 0.7
v -1.6 0.5 -1.5
v -1.6 0.5 -1.9
v -1.6 0.6 -1.5
v -1.6 0.6 -1.9
v -1.5 0.6 -1.7
v -1.5 0.6 -1.9
v -1.5 0.7 -1.7
v -1.5 0.7 -1.9
v -1.4 1 1.9
v -1.4 1 1.8
v -1.4 1.3 1.9
v -1.4 1.3 1.8
v -1.1 0.6 1.6
v -1.1 0.6 1.3
v -1.1 0.6 1.1
v -1.1 0.6 0.9
v -1.1 0.7 1.6
v -1.1 0.7 0.9
v -1 1.6 1.6
v -1 1.6 1.3
v -1 1.7 1.6
v -1 1.7 1.3
v -0.9 1.7 1.6
v -0.9 1.7 1.3
v -0.9 1.8 1.6
v -0.9 1.8 1.3
v -0.6 0.3 1.8
v -0.6 0.3 0.8
v -0.6 0.3 0.5
v -0.6 0.3 -0.5
v -0.6 0.3 -0.8
v -0.6 0.3 -1.8
v -0.6 0.5 1.8
v -0.6 0.5 1.3
v -0.6 0.5 1.1
v -0.6 0.5 0.8
v -0.6 0.5 0.5
v -0.6 0.5 -0.5
v -0.6 0.5 -0.8
v -0.6 0.5 -1.8
v -0.5 0.3 1.9
v -0.5 0.3 1.8
v -0.5 0.3 0.8
v -0.5 0.3 0.7
v -0.5 0.3 0.6
v -0.5 0.3 0.5
v -0.5 0.3 -0.5
v -0.5 0.3 -0.6
v -0.5 0.3 -0.7
v -0.5 0.3 -0.8
v -0.5 0.3 -1.8
v -0.5 0.3 -1.9
v -0.5 0.5 1.9
v -0.5 0.5 1.8
v -0.5 0.5 1.1
v -0.5 0.5 0.9
v -0.5 0.5 0.8
v -0.5 0.5 0.7
v -0.5 0.5 0.6
v -0.5 0.5 0.5
v -0.5 0.5 -0.5
v -0.5 0.5 -0.6
v -0.5 0.5 -0.7
v -0.5 0.5 -0.8
v -0.5 0.5 -1.8
v -0.5 0.5 -1.9
v -0.5 0.6 1.1
v -0.5 0.6 0.9
v -0.1 0.5 1.5
v -0.1 0.5 1.3
v -0.1 0.6 1.5
v -0.1 0.6 1.3
v 0 0.5 1.6
v 0 0.5 1.5
v 0 0.6 1.6
v 0 0.6 1.5
v 0 0.6 1.4
v 0 0.7 1.6
v 0 0.7 1.4
v 0.1 0.6 1.7
v 0.1 0.6 1.6
v 0.1 0.7 1.6
v 0.1 0.7 1.5
v 0.1 0.8 1.7
v 0.1 0.8 1.5
v 0.7 0.3 1.8
v 0.7 0.3 0.8
v 0.7 0.3 0.5
v 0.7 0.3 -0.5
v 0.7 0.3 -0.8
v 0.7 0.3 -0.9
v 0.7 0.3 -1.8
v 0.7 0.4 -0.9
v 0.7 0.4 -1.1
v 0.7 0.5 1.8
v 0.7 0.5 0.8
v 0.7 0.5 0.5
v 0.7 0.5 -0.5
v 0.7 0.5 -0.8
v 0.7 0.5 -1.1
v 0.7 0.6 -1.1
v 0.7 0.6 -1.4
v 0.7 0.7 -1.4
v 0.7 0.7 -1.8
v 0.8 0.3 1.9
v 0.8 0.3 1.8
v 0.8 0.3 0.8
v 0.8 0.3 0.7
v 0.8 0.3 0.6
v 0.8 0.3 0.5
v 0.8 0.3 -0.5
v 0.8 0.3 -0.6
v 0.8 0.3 -0.7
v 0.8 0.3 -0.8
v 0.8 0.3 -1.8
v 0.8 0.3 -1.9
v 0.8 0.5 1.9
v 0.8 0.5 1.8
v 0.8 0.5 0.8
v 0.8 0.5 0.7
v 0.8 0.5 0.6
v 0.8 0.5 0.5
v 0.8 0.5 -0.5
v 0.8 0.5 -0.6
v 0.8 0.5 -0.7
v 0.8 0.5 -0.8
v 0.8 0.6 -1.2
v 0.8 0.6 -1.4
v 0.8 0.7 -1.4
v 0.8 0.7 -1.8
v 0.8 0.8 -1.1
v 0.8 0.8 -1.2
v 0.8 0.8 -1.7
v 0.8 0.8 -1.9
v 0.8 1.4 -1.1
v 0.8 1.4 -1.7
v 0.9 0.5 -0.9
v 0.9 0.5 -1.1
v 0.9 0.6 1
v 0.9 0.6 0.9
v 0.9 0.6 -0.9
v 0.9 0.6 -1.1
v 0.9 0.7 1
v 0.9 0.7 0.9
v 1 0.6 -1.1
v 1 0.6 -1.2
v 1 0.8 -0.9
v 1 0.8 -1.1
v 1 0.8 -1.2
v 1 0.8 -1.7
v 1 0.8 -1.9
v 1 1.4 -0.9
v 1 1.4 -1.1
v 1 1.4 -1.7
v 1 1.4 -1.9
v 1 1.6 -1.1
v 1 1.6 -1.7
v 1.1 0.6 -1
v 1.1 0.6 -1.1
v 1.1 0.7 1.3
v 1.1 0.7 1.2
v 1.1 0.8 1.3
v 1.1 0.8 1.2
v 1.1 0.8 -1
v 1.1 0.8 -1.1
v 1.2 0.5 1.8
v 1.2 0.5 1.7
v 1.2 0.5 1.3
v 1.2 0.5 1.2
v 1.2 0.6 1.8
v 1.2 0.6 1.7
v 1.2 0.7 1.4
v 1.2 0.7 1.3
v 1.2 0.7 1.2
v 1.2 0.7 1.1
v 1.2 0.8 1.4
v 1.2 0.8 1.3
v 1.2 0.8 1.2
v 1.2 0.8 1.1
v 1.2 0.9 1.3
v 1.2 0.9 1.2
v 1.3 0.6 1.4
v 1.3 0.6 1.3
v 1.3 0.6 1.2
v 1.3 0.6 1.1
v 1.3 0.7 1.5
v 1.3 0.7 1.4
v 1.3 0.7 1.3
v 1.3 0.7 1.2
v 1.3 0.7 1.1
v 1.3 0.7 1
v 1.3 0.8 1.5
v 1.3 0.8 1.4
v 1.3 0.8 1.3
v 1.3 0.8 1.2
v 1.3 0.8 1.1
v 1.3 0.8 1
v 1.3 0.9 1.4
v 1.3 0.9 1.3
v 1.3 0.9 1.2
v 1.3 0.9 1.1
v 1.3 1 1.3
v 1.3 1 1.2
v 1.4 0.5 1.3
v 1.4 0.5 1.2
v 1.4 0.6 1.3
v 1.4 0.6 1.2
v 1.6 1 -1.1
v 1.6 1 -1.7
v 1.6 1.1 -1.1
v 1.6 1.1 -1.7
v 1.7 0.5 1.3
v 1.7 0.5 1.2
v 1.7 0.6 1.3
v 1.7 0.6 1.2
v 1.7 1.1 -1.2
v 1.7 1.1 -1.6
v 1.7 1.2 -1.2
v 1.7 1.2 -1.6
v -1.8 0.5 1.5
v -1.8 0.5 1.4
v -1.8 0.5 1
v -1.8 0.5 0.9
v -1.8 0.6 1.5
v -1.8 0.6 1.4
v -1.8 0.6 1
v -1.8 0.6 0.9
v -1.7 0.5 1.1
v -1.7 0.5 1
v -1.7 0.6 1.1
v -1.7 0.6 1
v -1.7 1.7 1.6
v -1.7 1.7 1.3
v -1.7 1.8 1.6
v -1.7 1.8 1.3
v -1.6 0.5 1.4
v -1.6 0.5 1.3
v -1.6 0.6 1.4
v -1.6 0.6 1.3
v -1.6 0.6 -0.8
v -1.6 0.6 -0.9
v -1.6 0.8 -0.8
v -1.6 0.8 -0.9
v -1.6 1.6 1.6
v -1.6 1.6 1.3
v -1.6 1.7 1.6
v -1.6 1.7 1.3
v -1.5 0.6 1.6
v -1.5 0.6 1.3
v -1.5 0.6 1.1
v -1.5 0.6 0.9
v -1.5 0.7 1.6
v -1.5 0.7 0.9
v -1.5 0.8 -0.9
v -1.5 0.8 -1.2
v -1.5 0.9 -0.9
v -1.5 0.9 -1.2
v -1.4 0.6 -0.9
v -1.4 0.6 -1.2
v -1.4 0.8 -0.9
v -1.4 0.8 -1.2
v -1.2 1 1.9
v -1.2 1 1.8
v -1.2 1.3 1.9
v -1.2 1.3 1.8
v -1.1 0.6 -1.7
v -1.1 0.6 -1.9
v -1.1 0.7 -1.7
v -1.1 0.7 -1.9
v -0.9 0.5 -1.5
v -0.9 0.5 -1.9
v -0.9 0.6 1.6
v -0.9 0.6 1.3
v -0.9 0.6 1.1
v -0.9 0.6 0.9
v -0.9 0.6 -1.5
v -0.9 0.6 -1.9
v -0.9 0.7 1.6
v -0.9 0.7 0.9
v -0.9 0.7 0.8
v -0.9 0.7 0.7
v -0.9 1 0.8
v -0.9 1 0.7
v -0.8 0.3 1.9
v -0.8 0.3 1.8
v -0.8 0.3 0.8
v -0.8 0.3 0.7
v -0.8 0.3 0.6
v -0.8 0.3 0.5
v -0.8 0.3 -0.5
v -0.8 0.3 -0.6
v -0.8 0.3 -0.7
v -0.8 0.3 -0.8
v -0.8 0.3 -1.8
v -0.8 0.3 -1.9
v -0.8 0.5 1.9
v -0.8 0.5 1.8
v -0.8 0.5 0.8
v -0.8 0.5 0.7
v -0.8 0.5 0.6
v -0.8 0.5 0.5
v -0.8 0.5 -0.5
v -0.8 0.5 -0.6
v -0.8 0.5 -0.7
v -0.8 0.5 -0.8
v -0.8 0.5 -1.8
v -0.8 0.5 -1.9
v -0.8 0.7 1.8
v -0.8 0.7 0.8
v -0.8 0.8 1.5
v -0.8 0.8 1.4
v -0.8 0.8 1.3
v -0.8 0.8 1.2
v -0.8 0.8 1.1
v -0.8 0.8 1
v -0.8 1 1.8
v -0.8 1 1.7
v -0.8 1.1 1.8
v -0.8 1.1 1.7
v -0.8 1.2 1.5
v -0.8 1.2 1
v -0.8 1.6 1.8
v -0.8 1.6 1.6
v -0.8 1.6 1.3
v -0.8 1.6 0.8
v -0.8 1.8 1.6
v -0.8 1.8 1.3
v -0.7 0.3 1.8
v -0.7 0.3 0.8
v -0.7 0.3 0.5
v -0.7 0.3 -0.5
v -0.7 0.3 -0.8
v -0.7 0.3 -1.8
v -0.7 0.5 1.8
v -0.7 0.5 1.3
v -0.7 0.5 1.1
v -0.7 0.5 0.8
v -0.7 0.5 0.5
v -0.7 0.5 -0.5
v -0.7 0.5 -0.8
v -0.7 0.5 -1.8
v -0.7 0.8 1.5
v -0.7 0.8 1.4
v -0.7 0.8 1.3
v -0.7 0.8 1.2
v -0.7 0.8 1.1
v -0.7 0.8 1
v -0.7 1 1.4
v -0.7 1 1.3
v -0.7 1 1.2
v -0.7 1 1.1
v -0.7 1.2 1.5
v -0.7 1.2 1
v -0.3 0.5 1.1
v -0.3 0.5 0.9
v -0.3 0.6 1.1
v -0.3 0.6 0.9
v 0 0.5 1.2
v 0 0.5 1.1
v 0 0.6 1.2
v 0 0.6 1.1
v 0.1 0.5 1.4
v 0.1 0.5 1.2
v 0.1 0.6 1.4
v 0.1 0.6 1.2
v 0.2 0.5 1.6
v 0.2 0.5 1.4
v 0.2 0.6 1.6
v 0.2 0.6 1.5
v 0.2 0.6 1.4
v 0.2 0.7 1.5
v 0.2 0.7 1.4
v 0.3 0.6 1.7
v 0.3 0.6 1.5
v 0.3 0.8 1.7
v 0.3 0.8 1.5
v 0.5 0.3 1.9
v 0.5 0.3 1.8
v 0.5 0.3 0.8
v 0.5 0.3 0.7
v 0.5 0.3 0.6
v 0.5 0.3 0.5
v 0.5 0.3 -0.5
v 0.5 0.3 -0.6
v 0.5 0.3 -0.7
v 0.5 0.3 -0.8
v 0.5 0.3 -1.8
v 0.5 0.3 -1.9
v 0.5 0.5 1.9
v 0.5 0.5 1.8
v 0.5 0.5 0.8
v 0.5 0.5 0.7
v 0.5 0.5 0.6
v 0.5 0.5 0.5
v 0.5 0.5 -0.5
v 0.5 0.5 -0.6
v 0.5 0.5 -0.7
v 0.5 0.5 -0.8
v 0.5 0.5 -1.8
v 0.5 0.5 -1.9
v 0.6 0.3 1.8
v 0.6 0.3 0.8
v 0.6 0.3 0.5
v 0.6 0.3 -0.5
v 0.6 0.3 -0.8
v 0.6 0.3 -1.8
v 0.6 0.5 1.8
v 0.6 0.5 0.8
v 0.6 0.5 0.5
v 0.6 0.5 -0.5
v 0.6 0.5 -0.8
v 0.6 0.5 -1.8
v 1 0.6 1
v 1 0.6 0.9
v 1 0.7 1
v 1 0.7 0.9
v 1.2 1.1 -0.9
v 1.2 1.1 -1.9
v 1.2 1.4 -0.9
v 1.2 1.4 -1.1
v 1.2 1.4 -1.7
v 1.2 1.4 -1.9
v 1.2 1.5 -1.1
v 1.2 1.5 -1.2
v 1.2 1.5 -1.6
v 1.2 1.5 -1.7
v 1.2 1.6 -1.1
v 1.2 1.6 -1.2
v 1.2 1.6 -1.6
v 1.2 1.6 -1.7
v 1.3 0.5 1.8
v 1.3 0.5 1.7
v 1.3 0.5 1.3
v 1.3 0.5 1.2
v 1.3 0.6 1.8
v 1.3 0.6 1.7
v 1.3 0.6 1.3
v 1.3 0.6 1.2
v 1.3 1 -0.9
v 1.3 1 -1.9
v 1.3 1.1 -0.9
v 1.3 1.1 -1.9
v 1.3 1.4 -1.1
v 1.3 1.4 -1.7
v 1.3 1.5 -1.1
v 1.3 1.5 -1.2
v 1.3 1.5 -1.6
v 1.3 1.5 -1.7
v 1.4 0.6 1.4
v 1.4 0.6 1.3
v 1.4 0.6 1.2
v 1.4 0.6 1.1
v 1.4 0.7 1.5
v 1.4 0.7 1.4
v 1.4 0.7 1.3
v 1.4 0.7 1.2
v 1.4 0.7 1.1
v 1.4 0.7 1
v 1.4 0.8 1.5
v 1.4 0.8 1.4
v 1.4 0.8 1.3
v 1.4 0.8 1.2
v 1.4 0.8 1.1
v 1.4 0.8 1
v 1.4 0.9 1.4
v 1.4 0.9 1.3
v 1.4 0.9 1.2
v 1.4 0.9 1.1
v 1.4 1 1.3
v 1.4 1 1.2
v 1.4 1.5 -1.2
v 1.4 1.5 -1.6
v 1.4 1.6 -1.2
v 1.4 1.6 -1.6
v 1.5 0.5 1.3
v 1.5 0.5 1.2
v 1.5 0.7 1.4
v 1.5 0.7 1.3
v 1.5 0.7 1.2
v 1.5 0.7 1.1
v 1.5 0.8 1.4
v 1.5 0.8 1.3
v 1.5 0.8 1.2
v 1.5 0.8 1.1
v 1.5 0.9 1.3
v 1.5 0.9 1.2
v 1.6 0.7 1.3
v 1.6 0.7 1.2
v 1.6 0.7 -1.8
v 1.6 0.7 -1.9
v 1.6 0.8 1.3
v 1.6 0.8 1.2
v 1.6 0.8 -0.9
v 1.6 0.8 -1
v 1.6 0.8 -1.1
v 1.6 0.8 -1.7
v 1.6 0.8 -1.8
v 1.6 0.8 -1.9
v 1.6 1 -0.9
v 1.6 1 -1.1
v 1.6 1 -1.7
v 1.6 1 -1.9
v 1.7 0.6 -1.8
v 1.7 0.6 -1.9
v 1.7 0.7 -1.8
v 1.7 0.7 -1.9
v 1.7 1 -1.1
v 1.7 1 -1.2
v 1.7 1 -1.6
v 1.7 1 -1.7
v 1.7 1.1 -1.1
v 1.7 1.1 -1.2
v 1.7 1.1 -1.6
v 1.7 1.1 -1.7
v 1.8 0.3 1.9
v 1.8 0.3 1.8
v 1.8 0.3 0.8
v 1.8 0.3 0.7
v 1.8 0.3 0.6
v 1.8 0.3 0.5
v 1.8 0.3 -0.5
v 1.8 0.3 -0.6
v 1.8 0.3 -0.7
v 1.8 0.3 -0.8
v 1.8 0.3 -1.8
v 1.8 0.3 -1.9
v 1.8 0.5 1.9
v 1.8 0.5 1.8
v 1.8 0.5 1.3
v 1.8 0.5 1.2
v 1.8 0.5 0.8
v 1.8 0.5 0.7
v 1.8 0.5 0.6
v 1.8 0.5 0.5
v 1.8 0.5 -0.5
v 1.8 0.5 -0.6
v 1.8 0.5 -0.7
v 1.8 0.5 -0.8
v 1.8 0.6 1.3
v 1.8 0.6 1.2
v 1.8 0.6 -1
v 1.8 0.6 -1.2
v 1.8 0.6 -1.7
v 1.8 0.6 -1.8
v 1.8 0.6 -1.9
v 1.8 0.8 -1
v 1.8 0.8 -1.1
v 1.8 0.8 -1.2
v 1.8 0.8 -1.7
v 1.8 0.8 -1.8
v 1.8 1 -1.1
v 1.8 1 -1.2
v 1.8 1 -1.6
v 1.8 1 -1.7
v 1.8 1.2 -1.2
v 1.8 1.2 -1.6
v 1.9 0.3 1.8
v 1.9 0.3 0.8
v 1.9 0.3 0.5
v 1.9 0.3 -0.5
v 1.9 0.3 -0.8
v 1.9 0.3 -0.9
v 1.9 0.3 -1.8
v 1.9 0.5 1.8
v 1.9 0.5 0.8
v 1.9 0.5 0.5
v 1.9 0.5 -0.5
v 1.9 0.5 -0.8
v 1.9 0.5 -0.9
v 1.9 0.6 -0.9
v 1.9 0.6 -1.2
v 1.9 0.6 -1.7
v 1.9 0.6 -1.8
v 1.9 0.8 -1.2
v 1.9 0.8 -1.7
v -1.8 0.3 1.9
v -1.8 0.5 1.9
v -1.4 1 1.9
v -1.4 1.3 1.9
v -1.2 1 1.9
v -1.2 1.3 1.9
v -0.8 0.3 1.9
v -0.8 0.5 1.9
v -0.5 0.3 1.9
v -0.5 0.5 1.9
v 0.5 0.3 1.9
v 0.5 0.5 1.9
v 0.8 0.3 1.9
v 0.8 0.5 1.9
v 1.8 0.3 1.9
v 1.8 0.5 1.9
v -1.9 0.3 1.8
v -1.9 0.5 1.8
v -1.8 0.3 1.8
v -1.8 0.5 1.8
v -1.8 0.7 1.8
v -1.8 1 1.8
v -1.8 1.1 1.8
v -1.8 1.6 1.8
v -1.7 0.8 1.8
v -1.7 1 1.8
v -1.7 1.1 1.8
v -1.7 1.5 1.8
v -1.6 1 1.8
v -1.6 1.1 1.8
v -1.6 1.3 1.8
v -1.5 1.1 1.8
v -1.5 1.3 1.8
v -1.4 1 1.8
v -1.4 1.3 1.8
v -1.4 1.4 1.8
v -1.4 1.5 1.8
v -1.2 1 1.8
v -1.2 1.3 1.8
v -1.2 1.4 1.8
v -1.2 1.5 1.8
v -1.1 1.1 1.8
v -1.1 1.3 1.8
v -1 1 1.8
v -1 1.1 1.8
v -1 1.3 1.8
v -0.9 0.8 1.8
v -0.9 1 1.8
v -0.9 1.1 1.8
v -0.9 1.5 1.8
v -0.8 0.3 1.8
v -0.8 0.5 1.8
v -0.8 0.7 1.8
v -0.8 1 1.8
v -0.8 1.1 1.8
v -0.8 1.6 1.8
v -0.7 0.3 1.8
v -0.7 0.5 1.8
v -0.6 0.3 1.8
v -0.6 0.5 1.8
v -0.5 0.3 1.8
v -0.5 0.5 1.8
v 0.5 0.3 1.8
v 0.5 0.5 1.8
v 0.6 0.3 1.8
v 0.6 0.5 1.8
v 0.7 0.3 1.8
v 0.7 0.5 1.8
v 0.8 0.3 1.8
v 0.8 0.5 1.8
v 1.2 0.5 1.8
v 1.2 0.6 1.8
v 1.3 0.5 1.8
v 1.3 0.6 1.8
v 1.8 0.3 1.8
v 1.8 0.5 1.8
v 1.9 0.3 1.8
v 1.9 0.5 1.8
v 0.1 0.6 1.7
v 0.1 0.8 1.7
v 0.3 0.6 1.7
v 0.3 0.8 1.7
v -1.8 1.6 1.6
v -1.8 1.8 1.6
v -1.7 0.6 1.6
v -1.7 0.7 1.6
v -1.7 1.7 1.6
v -1.7 1.8 1.6
v -1.6 1.6 1.6
v -1.6 1.7 1.6
v -1.5 0.6 1.6
v -1.5 0.7 1.6
v -1.1 0.6 1.6
v -1.1 0.7 1.6
v -1 1.6 1.6
v -1 1.7 1.6
v -0.9 0.6 1.6
v -0.9 0.7 1.6
v -0.9 1.7 1.6
v -0.9 1.8 1.6
v -0.8 1.6 1.6
v -0.8 1.8 1.6
v 0 0.5 1.6
v 0 0.6 1.6
v 0 0.7 1.6
v 0.1 0.6 1.6
v 0.1 0.7 1.6
v 0.2 0.5 1.6
v 0.2 0.6 1.6
v -1.9 0.5 1.5
v -1.9 0.6 1.5
v -1.9 0.8 1.5
v -1.9 1.2 1.5
v -1.8 0.5 1.5
v -1.8 0.6 1.5
v -1.8 0.8 1.5
v -1.8 1.2 1.5
v -0.8 0.8 1.5
v -0.8 1.2 1.5
v -0.7 0.8 1.5
v -0.7 1.2 1.5
v -0.1 0.5 1.5
v -0.1 0.6 1.5
v 0 0.5 1.5
v 0 0.6 1.5
v 1.3 0.7 1.5
v 1.3 0.8 1.5
v 1.4 0.7 1.5
v 1.4 0.8 1.5
v -1.8 0.5 1.4
v -1.8 0.6 1.4
v -1.7 0.6 1.4
v -1.6 0.5 1.4
v -1.6 0.6 1.4
v 1.2 0.7 1.4
v 1.2 0.8 1.4
v 1.3 0.6 1.4
v 1.3 0.7 1.4
v 1.3 0.8 1.4
v 1.3 0.9 1.4
v 1.4 0.6 1.4
v 1.4 0.7 1.4
v 1.4 0.8 1.4
v 1.4 0.9 1.4
v 1.5 0.7 1.4
v 1.5 0.8 1.4
v -1.6 0.5 1.3
v -1.6 0.6 1.3
v -1.5 0.6 1.3
v -1.1 0.6 1.3
v -0.9 0.6 1.3
v -0.7 0.5 1.3
v -0.6 0.5 1.3
v -0.1 0.5 1.3
v -0.1 0.6 1.3
v 1.1 0.7 1.3
v 1.1 0.8 1.3
v 1.2 0.5 1.3
v 1.2 0.7 1.3
v 1.2 0.8 1.3
v 1.2 0.9 1.3
v 1.3 0.5 1.3
v 1.3 0.6 1.3
v 1.3 0.7 1.3
v 1.3 0.8 1.3
v 1.3 0.9 1.3
v 1.3 1 1.3
v 1.4 0.5 1.3
v 1.4 0.6 1.3
v 1.4 0.7 1.3
v 1.4 0.8 1.3
v 1.4 0.9 1.3
v 1.4 1 1.3
v 1.5 0.5 1.3
v 1.5 0.7 1.3
v 1.5 0.8 1.3
v 1.5 0.9 1.3
v 1.6 0.7 1.3
v 1.6 0.8 1.3
v 1.7 0.5 1.3
v 1.7 0.6 1.3
v 1.8 0.5 1.3
v 1.8 0.6 1.3
v 0.9 0.6 1
v 0.9 0.7 1
v 1 0.6 1
v 1 0.7 1
v -1.8 0.3 0.6
v -1.8 0.5 0.6
v -0.8 0.3 0.6
v -0.8 0.5 0.6
v -0.5 0.3 0.6
v -0.5 0.5 0.6
v 0.5 0.3 0.6
v 0.5 0.5 0.6
v 0.8 0.3 0.6
v 0.8 0.5 0.6
v 1.8 0.3 0.6
v 1.8 0.5 0.6
v -1.9 0.3 0.5
v -1.9 0.5 0.5
v -1.8 0.3 0.5
v -1.8 0.5 0.5
v -0.8 0.3 0.5
v -0.8 0.5 0.5
v -0.7 0.3 0.5
v -0.7 0.5 0.5
v -0.6 0.3 0.5
v -0.6 0.5 0.5
v -0.5 0.3 0.5
v -0.5 0.5 0.5
v 0.5 0.3 0.5
v 0.5 0.5 0.5
v 0.6 0.3 0.5
v 0.6 0.5 0.5
v 0.7 0.3 0.5
v 0.7 0.5 0.5
v 0.8 0.3 0.5
v 0.8 0.5 0.5
v 1.8 0.3 0.5
v 1.8 0.5 0.5
v 1.9 0.3 0.5
v 1.9 0.5 0.5
v -1.8 0.3 -0.7
v -1.8 0.5 -0.7
v -0.8 0.3 -0.7
v -0.8 0.5 -0.7
v -0.5 0.3 -0.7
v -0.5 0.5 -0.7
v 0.5 0.3 -0.7
v 0.5 0.5 -0.7
v 0.8 0.3 -0.7
v 0.8 0.5 -0.7
v 1.8 0.3 -0.7
v 1.8 0.5 -0.7
v -1.9 0.3 -0.8
v -1.9 0.5 -0.8
v -1.9 0.6 -0.8
v -1.9 0.8 -0.8
v -1.8 0.3 -0.8
v -1.8 0.5 -0.8
v -1.6 0.6 -0.8
v -1.6 0.8 -0.8
v -0.8 0.3 -0.8
v -0.8 0.5 -0.8
v -0.7 0.3 -0.8
v -0.7 0.5 -0.8
v -0.6 0.3 -0.8
v -0.6 0.5 -0.8
v -0.5 0.3 -0.8
v -0.5 0.5 -0.8
v 0.5 0.3 -0.8
v 0.5 0.5 -0.8
v 0.6 0.3 -0.8
v 0.6 0.5 -0.8
v 0.7 0.3 -0.8
v 0.7 0.5 -0.8
v 0.8 0.3 -0.8
v 0.8 0.5 -0.8
v 1.8 0.3 -0.8
v 1.8 0.5 -0.8
v 1.9 0.3 -0.8
v 1.9 0.5 -0.8
v -1.8 0.8 -0.9
v -1.8 0.9 -0.9
v -1.6 0.6 -0.9
v -1.6 0.8 -0.9
v -1.5 0.8 -0.9
v -1.5 0.9 -0.9
v -1.4 0.6 -0.9
v -1.4 0.8 -0.9
v 0.9 0.5 -0.9
v 0.9 0.6 -0.9
v 1 0.8 -0.9
v 1 1.4 -0.9
v 1.2 1.1 -0.9
v 1.2 1.4 -0.9
v 1.3 1 -0.9
v 1.3 1.1 -0.9
v 1.6 0.8 -0.9
v 1.6 1 -0.9
v 1.9 0.5 -0.9
v 1.9 0.6 -0.9
v 1.1 0.6 -1
v 1.1 0.8 -1
v 1.6 0.8 -1
v 1.8 0.6 -1
v 1.8 0.8 -1
v 0.7 0.5 -1.1
v 0.7 0.6 -1.1
v 0.8 0.8 -1.1
v 0.8 1.4 -1.1
v 0.9 0.5 -1.1
v 0.9 0.6 -1.1
v 1 0.6 -1.1
v 1 0.8 -1.1
v 1 1.4 -1.1
v 1 1.6 -1.1
v 1.1 0.6 -1.1
v 1.1 0.8 -1.1
v 1.2 1.4 -1.1
v 1.2 1.5 -1.1
v 1.2 1.6 -1.1
v 1.3 1.4 -1.1
v 1.3 1.5 -1.1
v 1.6 0.8 -1.1
v 1.6 1 -1.1
v 1.6 1.1 -1.1
v 1.7 1 -1.1
v 1.7 1.1 -1.1
v 1.8 0.8 -1.1
v 1.8 1 -1.1
v 0.8 0.6 -1.2
v 0.8 0.8 -1.2
v 1 0.6 -1.2
v 1 0.8 -1.2
v 1.2 1.5 -1.2
v 1.2 1.6 -1.2
v 1.3 1.5 -1.2
v 1.4 1.5 -1.2
v 1.4 1.6 -1.2
v 1.7 1 -1.2
v 1.7 1.1 -1.2
v 1.7 1.2 -1.2
v 1.8 0.6 -1.2
v 1.8 0.8 -1.2
v 1.8 1 -1.2
v 1.8 1.2 -1.2
v 1.9 0.6 -1.2
v 1.9 0.8 -1.2
v 0.7 0.6 -1.4
v 0.7 0.7 -1.4
v 0.8 0.6 -1.4
v 0.8 0.7 -1.4
v -1.6 0.5 -1.5
v -1.6 0.6 -1.5
v -0.9 0.5 -1.5
v -0.9 0.6 -1.5
v -1.5 0.6 -1.7
v -1.5 0.7 -1.7
v -1.1 0.6 -1.7
v -1.1 0.7 -1.7
v 1.2 0.5 1.7
v 1.2 0.6 1.7
v 1.3 0.5 1.7
v 1.3 0.6 1.7
v 0.1 0.7 1.5
v 0.1 0.8 1.5
v 0.2 0.6 1.5
v 0.2 0.7 1.5
v 0.3 0.6 1.5
v 0.3 0.8 1.5
v 0 0.6 1.4
v 0 0.7 1.4
v 0.1 0.5 1.4
v 0.1 0.6 1.4
v 0.2 0.5 1.4
v 0.2 0.6 1.4
v 0.2 0.7 1.4
v -1.8 1.6 1.3
v -1.8 1.8 1.3
v -1.7 1.7 1.3
v -1.7 1.8 1.3
v -1.6 1.6 1.3
v -1.6 1.7 1.3
v -1 1.6 1.3
v -1 1.7 1.3
v -0.9 1.7 1.3
v -0.9 1.8 1.3
v -0.8 1.6 1.3
v -0.8 1.8 1.3
v 0 0.5 1.2
v 0 0.6 1.2
v 0.1 0.5 1.2
v 0.1 0.6 1.2
v 1.1 0.7 1.2
v 1.1 0.8 1.2
v 1.2 0.5 1.2
v 1.2 0.7 1.2
v 1.2 0.8 1.2
v 1.2 0.9 1.2
v 1.3 0.5 1.2
v 1.3 0.6 1.2
v 1.3 0.7 1.2
v 1.3 0.8 1.2
v 1.3 0.9 1.2
v 1.3 1 1.2
v 1.4 0.5 1.2
v 1.4 0.6 1.2
v 1.4 0.7 1.2
v 1.4 0.8 1.2
v 1.4 0.9 1.2
v 1.4 1 1.2
v 1.5 0.5 1.2
v 1.5 0.7 1.2
v 1.5 0.8 1.2
v 1.5 0.9 1.2
v 1.6 0.7 1.2
v 1.6 0.8 1.2
v 1.7 0.5 1.2
v 1.7 0.6 1.2
v 1.8 0.5 1.2
v 1.8 0.6 1.2
v -1.7 0.5 1.1
v -1.7 0.6 1.1
v -1.5 0.6 1.1
v -1.1 0.6 1.1
v -0.9 0.6 1.1
v -0.7 0.5 1.1
v -0.6 0.5 1.1
v -0.5 0.5 1.1
v -0.5 0.6 1.1
v -0.3 0.5 1.1
v -0.3 0.6 1.1
v 0 0.5 1.1
v 0 0.6 1.1
v 1.2 0.7 1.1
v 1.2 0.8 1.1
v 1.3 0.6 1.1
v 1.3 0.7 1.1
v 1.3 0.8 1.1
v 1.3 0.9 1.1
v 1.4 0.6 1.1
v 1.4 0.7 1.1
v 1.4 0.8 1.1
v 1.4 0.9 1.1
v 1.5 0.7 1.1
v 1.5 0.8 1.1
v -1.9 0.8 1
v -1.9 1.2 1
v -1.8 0.5 1
v -1.8 0.6 1
v -1.8 0.8 1
v -1.8 1.2 1
v -1.7 0.5 1
v -1.7 0.6 1
v -0.8 0.8 1
v -0.8 1.2 1
v -0.7 0.8 1
v -0.7 1.2 1
v 1.3 0.7 1
v 1.3 0.8 1
v 1.4 0.7 1
v 1.4 0.8 1
v -1.9 0.5 0.9
v -1.9 0.6 0.9
v -1.8 0.5 0.9
v -1.8 0.6 0.9
v -1.7 0.6 0.9
v -1.7 0.7 0.9
v -1.5 0.6 0.9
v -1.5 0.7 0.9
v -1.1 0.6 0.9
v -1.1 0.7 0.9
v -0.9 0.6 0.9
v -0.9 0.7 0.9
v -0.5 0.5 0.9
v -0.5 0.6 0.9
v -0.3 0.5 0.9
v -0.3 0.6 0.9
v 0.9 0.6 0.9
v 0.9 0.7 0.9
v 1 0.6 0.9
v 1 0.7 0.9
v -1.9 0.3 0.8
v -1.9 0.5 0.8
v -1.8 0.3 0.8
v -1.8 0.5 0.8
v -1.8 0.7 0.8
v -1.8 1.6 0.8
v -1.7 0.7 0.8
v -1.7 1 0.8
v -0.9 0.7 0.8
v -0.9 1 0.8
v -0.8 0.3 0.8
v -0.8 0.5 0.8
v -0.8 0.7 0.8
v -0.8 1.6 0.8
v -0.7 0.3 0.8
v -0.7 0.5 0.8
v -0.6 0.3 0.8
v -0.6 0.5 0.8
v -0.5 0.3 0.8
v -0.5 0.5 0.8
v 0.5 0.3 0.8
v 0.5 0.5 0.8
v 0.6 0.3 0.8
v 0.6 0.5 0.8
v 0.7 0.3 0.8
v 0.7 0.5 0.8
v 0.8 0.3 0.8
v 0.8 0.5 0.8
v 1.8 0.3 0.8
v 1.8 0.5 0.8
v 1.9 0.3 0.8
v 1.9 0.5 0.8
v -1.8 0.3 0.7
v -1.8 0.5 0.7
v -1.7 0.7 0.7
v -1.7 1 0.7
v -0.9 0.7 0.7
v -0.9 1 0.7
v -0.8 0.3 0.7
v -0.8 0.5 0.7
v -0.5 0.3 0.7
v -0.5 0.5 0.7
v 0.5 0.3 0.7
v 0.5 0.5 0.7
v 0.8 0.3 0.7
v 0.8 0.5 0.7
v 1.8 0.3 0.7
v 1.8 0.5 0.7
v -1.9 0.3 -0.5
v -1.9 0.5 -0.5
v -1.8 0.3 -0.5
v -1.8 0.5 -0.5
v -0.8 0.3 -0.5
v -0.8 0.5 -0.5
v -0.7 0.3 -0.5
v -0.7 0.5 -0.5
v -0.6 0.3 -0.5
v -0.6 0.5 -0.5
v -0.5 0.3 -0.5
v -0.5 0.5 -0.5
v 0.5 0.3 -0.5
v 0.5 0.5 -0.5
v 0.6 0.3 -0.5
v 0.6 0.5 -0.5
v 0.7 0.3 -0.5
v 0.7 0.5 -0.5
v 0.8 0.3 -0.5
v 0.8 0.5 -0.5
v 1.8 0.3 -0.5
v 1.8 0.5 -0.5
v 1.9 0.3 -0.5
v 1.9 0.5 -0.5
v -1.8 0.3 -0.6
v -1.8 0.5 -0.6
v -0.8 0.3 -0.6
v -0.8 0.5 -0.6
v -0.5 0.3 -0.6
v -0.5 0.5 -0.6
v 0.5 0.3 -0.6
v 0.5 0.5 -0.6
v 0.8 0.3 -0.6
v 0.8 0.5 -0.6
v 1.8 0.3 -0.6
v 1.8 0.5 -0.6
v -1.9 0.6 -1.1
v -1.9 0.8 -1.1
v -1.8 0.7 -1.1
v -1.8 0.8 -1.1
v -1.7 0.6 -1.1
v -1.7 0.7 -1.1
v -1.8 0.7 -1.2
v -1.8 0.9 -1.2
v -1.7 0.6 -1.2
v -1.7 0.7 -1.2
v -1.5 0.8 -1.2
v -1.5 0.9 -1.2
v -1.4 0.6 -1.2
v -1.4 0.8 -1.2
v 1.2 1.5 -1.6
v 1.2 1.6 -1.6
v 1.3 1.5 -1.6
v 1.4 1.5 -1.6
v 1.4 1.6 -1.6
v 1.7 1 -1.6
v 1.7 1.1 -1.6
v 1.7 1.2 -1.6
v 1.8 1 -1.6
v 1.8 1.2 -1.6
v 0.8 0.8 -1.7
v 0.8 1.4 -1.7
v 1 0.8 -1.7
v 1 1.4 -1.7
v 1 1.6 -1.7
v 1.2 1.4 -1.7
v 1.2 1.5 -1.7
v 1.2 1.6 -1.7
v 1.3 1.4 -1.7
v 1.3 1.5 -1.7
v 1.6 0.8 -1.7
v 1.6 1 -1.7
v 1.6 1.1 -1.7
v 1.7 1 -1.7
v 1.7 1.1 -1.7
v 1.8 0.6 -1.7
v 1.8 0.8 -1.7
v 1.8 1 -1.7
v 1.9 0.6 -1.7
v 1.9 0.8 -1.7
v -1.9 0.3 -1.8
v -1.9 0.5 -1.8
v -1.8 0.3 -1.8
v -1.8 0.5 -1.8
v -0.8 0.3 -1.8
v -0.8 0.5 -1.8
v -0.7 0.3 -1.8
v -0.7 0.5 -1.8
v -0.6 0.3 -1.8
v -0.6 0.5 -1.8
v -0.5 0.3 -1.8
v -0.5 0.5 -1.8
v 0.5 0.3 -1.8
v 0.5 0.5 -1.8
v 0.6 0.3 -1.8
v 0.6 0.5 -1.8
v 0.7 0.3 -1.8
v 0.7 0.7 -1.8
v 0.8 0.3 -1.8
v 0.8 0.7 -1.8
v 1.6 0.7 -1.8
v 1.6 0.8 -1.8
v 1.7 0.6 -1.8
v 1.7 0.7 -1.8
v 1.8 0.3 -1.8
v 1.8 0.6 -1.8
v 1.8 0.8 -1.8
v 1.9 0.3 -1.8
v 1.9 0.6 -1.8
v -1.8 0.3 -1.9
v -1.8 0.5 -1.9
v -1.6 0.5 -1.9
v -1.6 0.6 -1.9
v -1.5 0.6 -1.9
v -1.5 0.7 -1.9
v -1.1 0.6 -1.9
v -1.1 0.7 -1.9
v -0.9 0.3 -1.9
v -0.9 0.5 -1.9
v -0.9 0.6 -1.9
v -0.8 0.3 -1.9
v -0.8 0.5 -1.9
v -0.5 0.3 -1.9
v -0.5 0.5 -1.9
v 0.5 0.3 -1.9
v 0.5 0.5 -1.9
v 0.8 0.3 -1.9
v 0.8 0.8 -1.9
v 1 0.8 -1.9
v 1 1.4 -1.9
v 1.2 1.1 -1.9
v 1.2 1.4 -1.9
v 1.3 1 -1.9
v 1.3 1.1 -1.9
v 1.6 0.7 -1.9
v 1.6 0.8 -1.9
v 1.6 1 -1.9
v 1.7 0.6 -1.9
v 1.7 0.7 -1.9
v 1.8 0.3 -1.9
v 1.8 0.6 -1.9
v -1.8 0.3 1.9
v -0.8 0.3 1.9
v -0.5 0.3 1.9
v 0.5 0.3 1.9
v 0.8 0.3 1.9
v 1.8 0.3 1.9
v -1.9 0.3 1.8
v -1.8 0.3 1.8
v -0.8 0.3 1.8
v -0.7 0.3 1.8
v -0.6 0.3 1.8
v -0.5 0.3 1.8
v 0.5 0.3 1.8
v 0.6 0.3 1.8
v 0.7 0.3 1.8
v 0.8 0.3 1.8
v 1.8 0.3 1.8
v 1.9 0.3 1.8
v -1.9 0.3 0.8
v -1.8 0.3 0.8
v -0.8 0.3 0.8
v -0.7 0.3 0.8
v -0.6 0.3 0.8
v -0.5 0.3 0.8
v 0.5 0.3 0.8
v 0.6 0.3 0.8
v 0.7 0.3 0.8
v 0.8 0.3 0.8
v 1.8 0.3 0.8
v 1.9 0.3 0.8
v -1.8 0.3 0.7
v -0.8 0.3 0.7
v -0.5 0.3 0.7
v 0.5 0.3 0.7
v 0.8 0.3 0.7
v 1.8 0.3 0.7
v -1.8 0.3 0.6
v -0.8 0.3 0.6
v -0.5 0.3 0.6
v 0.5 0.3 0.6
v 0.8 0.3 0.6
v 1.8 0.3 0.6
v -1.9 0.3 0.5
v -1.8 0.3 0.5
v -0.8 0.3 0.5
v -0.7 0.3 0.5
v -0.6 0.3 0.5
v -0.5 0.3 0.5
v 0.5 0.3 0.5
v 0.6 0.3 0.5
v 0.7 0.3 0.5
v 0.8 0.3 0.5
v 1.8 0.3 0.5
v 1.9 0.3 0.5
v -1.9 0.3 -0.5
v -1.8 0.3 -0.5
v -0.8 0.3 -0.5
v -0.7 0.3 -0.5
v -0.6 0.3 -0.5
v -0.5 0.3 -0.5
v 0.5 0.3 -0.5
v 0.6 0.3 -0.5
v 0.7 0.3 -0.5
v 0.8 0.3 -0.5
v 1.8 0.3 -0.5
v 1.9 0.3 -0.5
v -1.8 0.3 -0.6
v -0.8 0.3 -0.6
v -0.5 0.3 -0.6
v 0.5 0.3 -0.6
v 0.8 0.3 -0.6
v 1.8 0.3 -0.6
v -1.8 0.3 -0.7
v -0.8 0.3 -0.7
v -0.5 0.3 -0.7
v 0.5 0.3 -0.7
v 0.8 0.3 -0.7
v 1.8 0.3 -0.7
v -1.9 0.3 -0.8
v -1.8 0.3 -0.8
v -0.8 0.3 -0.8
v -0.7 0.3 -0.8
v -0.6 0.3 -0.8
v -0.5 0.3 -0.8
v 0.5 0.3 -0.8
v 0.6 0.3 -0.8
v 0.7 0.3 -0.8
v 0.8 0.3 -0.8
v 1.8 0.3 -0.8
v 1.9 0.3 -0.8
v 0.7 0.3 -0.9
v 1.9 0.3 -0.9
v -1.8 0.3 -1.5
v -1.7 0.3 -1.5
v -1.5 0.3 -1.5
v -1.3 0.3 -1.5
v -1.6 0.3 -1.6
v -1.5 0.3 -1.6
v -1.3 0.3 -1.6
v -0.9 0.3 -1.6
v -1.9 0.3 -1.8
v -1.8 0.3 -1.8
v -1.7 0.3 -1.8
v -1.6 0.3 -1.8
v -0.8 0.3 -1.8
v -0.7 0.3 -1.8
v -0.6 0.3 -1.8
v -0.5 0.3 -1.8
v 0.5 0.3 -1.8
v 0.6 0.3 -1.8
v 0.7 0.3 -1.8
v 0.8 0.3 -1.8
v 1.8 0.3 -1.8
v 1.9 0.3 -1.8
v -1.8 0.3 -1.9
v -0.9 0.3 -1.9
v -0.8 0.3 -1.9
v -0.5 0.3 -1.9
v 0.5 0.3 -1.9
v 0.8 0.3 -1.9
v 1.8 0.3 -1.9
v -0.7 0.5 1.3
v -0.6 0.5 1.3
v -0.7 0.5 1.1
v -0.6 0.5 1.1
v 0.1 0.6 1.7
v 0.3 0.6 1.7
v -1.7 0.6 1.6
v -1.5 0.6 1.6
v -1.1 0.6 1.6
v -0.9 0.6 1.6
v 0.1 0.6 1.6
v 0.2 0.6 1.6
v 0.2 0.6 1.5
v 0.3 0.6 1.5
v -1.7 0.6 1.4
v -1.6 0.6 1.4
v 1.3 0.6 1.4
v 1.4 0.6 1.4
v -1.6 0.6 1.3
v -1.5 0.6 1.3
v -1.1 0.6 1.3
v -0.9 0.6 1.3
v 1.3 0.6 1.3
v 1.4 0.6 1.3
v 1.3 0.6 1.2
v 1.4 0.6 1.2
v -1.7 0.6 1.1
v -1.5 0.6 1.1
v -1.1 0.6 1.1
v -0.9 0.6 1.1
v 1.3 0.6 1.1
v 1.4 0.6 1.1
v -1.7 0.6 1
v 0.9 0.6 1
v 1 0.6 1
v -1.7 0.6 0.9
v -1.5 0.6 0.9
v -1.1 0.6 0.9
v -0.9 0.6 0.9
v 0.9 0.6 0.9
v 1 0.6 0.9
v -1.9 0.6 -0.8
v -1.6 0.6 -0.8
v -1.6 0.6 -0.9
v -1.4 0.6 -0.9
v -1.9 0.6 -1.1
v -1.7 0.6 -1.1
v -1.7 0.6 -1.2
v -1.4 0.6 -1.2
v -1.8 0.7 1.8
v -0.8 0.7 1.8
v -1.7 0.7 1.6
v -1.5 0.7 1.6
v -1.1 0.7 1.6
v -0.9 0.7 1.6
v 1.3 0.7 1.5
v 1.4 0.7 1.5
v 1.2 0.7 1.4
v 1.3 0.7 1.4
v 1.4 0.7 1.4
v 1.5 0.7 1.4
v 1.1 0.7 1.3
v 1.2 0.7 1.3
v 1.3 0.7 1.3
v 1.4 0.7 1.3
v 1.5 0.7 1.3
v 1.6 0.7 1.3
v 1.1 0.7 1.2
v 1.2 0.7 1.2
v 1.3 0.7 1.2
v 1.4 0.7 1.2
v 1.5 0.7 1.2
v 1.6 0.7 1.2
v 1.2 0.7 1.1
v 1.3 0.7 1.1
v 1.4 0.7 1.1
v 1.5 0.7 1.1
v 1.3 0.7 1
v 1.4 0.7 1
v -1.7 0.7 0.9
v -1.5 0.7 0.9
v -1.1 0.7 0.9
v -0.9 0.7 0.9
v -1.8 0.7 0.8
v -1.7 0.7 0.8
v -0.9 0.7 0.8
v -0.8 0.7 0.8
v -1.7 0.7 0.7
v -0.9 0.7 0.7
v -1.8 0.7 -1.1
v -1.7 0.7 -1.1
v -1.8 0.7 -1.2
v -1.7 0.7 -1.2
v -1.9 0.8 1.5
v -1.8 0.8 1.5
v -0.8 0.8 1.5
v -0.7 0.8 1.5
v -1.9 0.8 1.4
v -1.8 0.8 1.4
v -0.8 0.8 1.4
v -0.7 0.8 1.4
v -1.9 0.8 1.3
v -1.8 0.8 1.3
v -0.8 0.8 1.3
v -0.7 0.8 1.3
v -1.9 0.8 1.2
v -1.8 0.8 1.2
v -0.8 0.8 1.2
v -0.7 0.8 1.2
v -1.9 0.8 1.1
v -1.8 0.8 1.1
v -0.8 0.8 1.1
v -0.7 0.8 1.1
v -1.9 0.8 1
v -1.8 0.8 1
v -0.8 0.8 1
v -0.7 0.8 1
v 1 0.8 -0.9
v 1.6 0.8 -0.9
v 1.1 0.8 -1
v 1.6 0.8 -1
v 0.8 0.8 -1.1
v 1 0.8 -1.1
v 1.1 0.8 -1.1
v 0.8 0.8 -1.2
v 1 0.8 -1.2
v -1.4 1 1.9
v -1.2 1 1.9
v -1.4 1 1.8
v -1.2 1 1.8
v 1.2 1.4 -1.1
v 1.3 1.4 -1.1
v 1.2 1.4 -1.7
v 1.3 1.4 -1.7
v 1.3 1.5 -1.2
v 1.4 1.5 -1.2
v 1.3 1.5 -1.6
v 1.4 1.5 -1.6
v -1.8 0.5 1.9
v -0.8 0.5 1.9
v -0.5 0.5 1.9
v 0.5 0.5 1.9
v 0.8 0.5 1.9
v 1.8 0.5 1.9
v -1.9 0.5 1.8
v -1.8 0.5 1.8
v -0.8 0.5 1.8
v -0.7 0.5 1.8
v -0.6 0.5 1.8
v -0.5 0.5 1.8
v 0.5 0.5 1.8
v 0.6 0.5 1.8
v 0.7 0.5 1.8
v 0.8 0.5 1.8
v 1.2 0.5 1.8
v 1.3 0.5 1.8
v 1.8 0.5 1.8
v 1.9 0.5 1.8
v 1.2 0.5 1.7
v 1.3 0.5 1.7
v 0 0.5 1.6
v 0.2 0.5 1.6
v -1.9 0.5 1.5
v -1.8 0.5 1.5
v -0.1 0.5 1.5
v 0 0.5 1.5
v -1.8 0.5 1.4
v -1.6 0.5 1.4
v 0.1 0.5 1.4
v 0.2 0.5 1.4
v -1.6 0.5 1.3
v -0.7 0.5 1.3
v -0.6 0.5 1.3
v -0.1 0.5 1.3
v 1.2 0.5 1.3
v 1.3 0.5 1.3
v 1.4 0.5 1.3
v 1.5 0.5 1.3
v 1.7 0.5 1.3
v 1.8 0.5 1.3
v 0 0.5 1.2
v 0.1 0.5 1.2
v 1.2 0.5 1.2
v 1.3 0.5 1.2
v 1.4 0.5 1.2
v 1.5 0.5 1.2
v 1.7 0.5 1.2
v 1.8 0.5 1.2
v -1.7 0.5 1.1
v -0.7 0.5 1.1
v -0.6 0.5 1.1
v -0.5 0.5 1.1
v -0.3 0.5 1.1
v 0 0.5 1.1
v -1.8 0.5 1
v -1.7 0.5 1
v -1.9 0.5 0.9
v -1.8 0.5 0.9
v -0.5 0.5 0.9
v -0.3 0.5 0.9
v -1.9 0.5 0.8
v -1.8 0.5 0.8
v -0.8 0.5 0.8
v -0.7 0.5 0.8
v -0.6 0.5 0.8
v -0.5 0.5 0.8
v 0.5 0.5 0.8
v 0.6 0.5 0.8
v 0.7 0.5 0.8
v 0.8 0.5 0.8
v 1.8 0.5 0.8
v 1.9 0.5 0.8
v -1.8 0.5 0.7
v -0.8 0.5 0.7
v -0.5 0.5 0.7
v 0.5 0.5 0.7
v 0.8 0.5 0.7
v 1.8 0.5 0.7
v -1.8 0.5 0.6
v -0.8 0.5 0.6
v -0.5 0.5 0.6
v 0.5 0.5 0.6
v 0.8 0.5 0.6
v 1.8 0.5 0.6
v -1.9 0.5 0.5
v -1.8 0.5 0.5
v -0.8 0.5 0.5
v -0.7 0.5 0.5
v -0.6 0.5 0.5
v -0.5 0.5 0.5
v 0.5 0.5 0.5
v 0.6 0.5 0.5
v 0.7 0.5 0.5
v 0.8 0.5 0.5
v 1.8 0.5 0.5
v 1.9 0.5 0.5
v -1.9 0.5 -0.5
v -1.8 0.5 -0.5
v -0.8 0.5 -0.5
v -0.7 0.5 -0.5
v -0.6 0.5 -0.5
v -0.5 0.5 -0.5
v 0.5 0.5 -0.5
v 0.6 0.5 -0.5
v 0.7 0.5 -0.5
v 0.8 0.5 -0.5
v 1.8 0.5 -0.5
v 1.9 0.5 -0.5
v -1.8 0.5 -0.6
v -0.8 0.5 -0.6
v -0.5 0.5 -0.6
v 0.5 0.5 -0.6
v 0.8 0.5 -0.6
v 1.8 0.5 -0.6
v -1.8 0.5 -0.7
v -0.8 0.5 -0.7
v -0.5 0.5 -0.7
v 0.5 0.5 -0.7
v 0.8 0.5 -0.7
v 1.8 0.5 -0.7
v -1.9 0.5 -0.8
v -1.8 0.5 -0.8
v -0.8 0.5 -0.8
v -0.7 0.5 -0.8
v -0.6 0.5 -0.8
v -0.5 0.5 -0.8
v 0.5 0.5 -0.8
v 0.6 0.5 -0.8
v 0.7 0.5 -0.8
v 0.8 0.5 -0.8
v 1.8 0.5 -0.8
v 1.9 0.5 -0.8
v 0.9 0.5 -0.9
v 1.9 0.5 -0.9
v 0.7 0.5 -1.1
v 0.9 0.5 -1.1
v -1.8 0.5 -1.5
v -1.6 0.5 -1.5
v -0.9 0.5 -1.5
v -1.9 0.5 -1.8
v -1.8 0.5 -1.8
v -0.8 0.5 -1.8
v -0.7 0.5 -1.8
v -0.6 0.5 -1.8
v -0.5 0.5 -1.8
v 0.5 0.5 -1.8
v 0.6 0.5 -1.8
v -1.8 0.5 -1.9
v -1.6 0.5 -1.9
v -0.9 0.5 -1.9
v -0.8 0.5 -1.9
v -0.5 0.5 -1.9
v 0.5 0.5 -1.9
v 1.2 0.6 1.8
v 1.3 0.6 1.8
v 1.2 0.6 1.7
v 1.3 0.6 1.7
v -1.9 0.6 1.5
v -1.8 0.6 1.5
v -0.1 0.6 1.5
v 0 0.6 1.5
v -1.8 0.6 1.4
v -1.7 0.6 1.4
v 0 0.6 1.4
v 0.1 0.6 1.4
v -1.5 0.6 1.3
v -1.1 0.6 1.3
v -0.9 0.6 1.3
v -0.1 0.6 1.3
v 1.7 0.6 1.3
v 1.8 0.6 1.3
v 0 0.6 1.2
v 0.1 0.6 1.2
v 1.7 0.6 1.2
v 1.8 0.6 1.2
v -1.5 0.6 1.1
v -1.1 0.6 1.1
v -0.9 0.6 1.1
v -0.5 0.6 1.1
v -0.3 0.6 1.1
v 0 0.6 1.1
v -1.8 0.6 1
v -1.7 0.6 1
v -1.9 0.6 0.9
v -1.8 0.6 0.9
v -0.5 0.6 0.9
v -0.3 0.6 0.9
v 0.9 0.6 -0.9
v 1.9 0.6 -0.9
v 1.1 0.6 -1
v 1.8 0.6 -1
v 0.7 0.6 -1.1
v 0.9 0.6 -1.1
v 1 0.6 -1.1
v 1.1 0.6 -1.1
v 0.8 0.6 -1.2
v 1 0.6 -1.2
v 1.8 0.6 -1.2
v 1.9 0.6 -1.2
v 0.7 0.6 -1.4
v 0.8 0.6 -1.4
v -1.6 0.6 -1.5
v -0.9 0.6 -1.5
v -1.5 0.6 -1.7
v -1.1 0.6 -1.7
v 1.8 0.6 -1.7
v 1.9 0.6 -1.7
v 1.7 0.6 -1.8
v 1.8 0.6 -1.8
v 1.9 0.6 -1.8
v -1.6 0.6 -1.9
v -1.5 0.6 -1.9
v -1.1 0.6 -1.9
v -0.9 0.6 -1.9
v 1.7 0.6 -1.9
v 1.8 0.6 -1.9
v 0 0.7 1.6
v 0.1 0.7 1.6
v 0.1 0.7 1.5
v 0.2 0.7 1.5
v 0 0.7 1.4
v 0.2 0.7 1.4
v 0.9 0.7 1
v 1 0.7 1
v 0.9 0.7 0.9
v 1 0.7 0.9
v 0.7 0.7 -1.4
v 0.8 0.7 -1.4
v -1.5 0.7 -1.7
v -1.1 0.7 -1.7
v 0.7 0.7 -1.8
v 0.8 0.7 -1.8
v 1.6 0.7 -1.8
v 1.7 0.7 -1.8
v -1.5 0.7 -1.9
v -1.1 0.7 -1.9
v 1.6 0.7 -1.9
v 1.7 0.7 -1.9
v 0.1 0.8 1.7
v 0.3 0.8 1.7
v 0.1 0.8 1.5
v 0.3 0.8 1.5
v 1.3 0.8 1.5
v 1.4 0.8 1.5
v 1.2 0.8 1.4
v 1.3 0.8 1.4
v 1.4 0.8 1.4
v 1.5 0.8 1.4
v 1.1 0.8 1.3
v 1.2 0.8 1.3
v 1.3 0.8 1.3
v 1.4 0.8 1.3
v 1.5 0.8 1.3
v 1.6 0.8 1.3
v 1.1 0.8 1.2
v 1.2 0.8 1.2
v 1.3 0.8 1.2
v 1.4 0.8 1.2
v 1.5 0.8 1.2
v 1.6 0.8 1.2
v 1.2 0.8 1.1
v 1.3 0.8 1.1
v 1.4 0.8 1.1
v 1.5 0.8 1.1
v 1.3 0.8 1
v 1.4 0.8 1
v -1.9 0.8 -0.8
v -1.6 0.8 -0.8
v -1.8 0.8 -0.9
v -1.6 0.8 -0.9
v -1.5 0.8 -0.9
v -1.4 0.8 -0.9
v 1.6 0.8 -1
v 1.8 0.8 -1
v -1.9 0.8 -1.1
v -1.8 0.8 -1.1
v 1.6 0.8 -1.1
v 1.8 0.8 -1.1
v -1.5 0.8 -1.2
v -1.4 0.8 -1.2
v 1.8 0.8 -1.2
v 1.9 0.8 -1.2
v 0.8 0.8 -1.7
v 1 0.8 -1.7
v 1.6 0.8 -1.7
v 1.8 0.8 -1.7
v 1.9 0.8 -1.7
v 1.6 0.8 -1.8
v 1.8 0.8 -1.8
v 0.8 0.8 -1.9
v 1 0.8 -1.9
v 1.3 0.9 1.4
v 1.4 0.9 1.4
v 1.2 0.9 1.3
v 1.3 0.9 1.3
v 1.4 0.9 1.3
v 1.5 0.9 1.3
v 1.2 0.9 1.2
v 1.3 0.9 1.2
v 1.4 0.9 1.2
v 1.5 0.9 1.2
v 1.3 0.9 1.1
v 1.4 0.9 1.1
v -1.8 0.9 -0.9
v -1.5 0.9 -0.9
v -1.8 0.9 -1.2
v -1.5 0.9 -1.2
v 1.3 1 1.3
v 1.4 1 1.3
v 1.3 1 1.2
v 1.4 1 1.2
v -1.7 1 0.8
v -0.9 1 0.8
v -1.7 1 0.7
v -0.9 1 0.7
v 1.3 1 -0.9
v 1.6 1 -0.9
v 1.6 1 -1.1
v 1.7 1 -1.1
v 1.8 1 -1.1
v 1.7 1 -1.2
v 1.8 1 -1.2
v 1.7 1 -1.6
v 1.8 1 -1.6
v 1.6 1 -1.7
v 1.7 1 -1.7
v 1.8 1 -1.7
v 1.3 1 -1.9
v 1.6 1 -1.9
v 1.2 1.1 -0.9
v 1.3 1.1 -0.9
v 1.6 1.1 -1.1
v 1.7 1.1 -1.1
v 1.7 1.1 -1.2
v 1.7 1.1 -1.6
v 1.6 1.1 -1.7
v 1.7 1.1 -1.7
v 1.2 1.1 -1.9
v 1.3 1.1 -1.9
v -1.9 1.2 1.5
v -1.8 1.2 1.5
v -0.8 1.2 1.5
v -0.7 1.2 1.5
v -1.9 1.2 1
v -1.8 1.2 1
v -0.8 1.2 1
v -0.7 1.2 1
v 1.7 1.2 -1.2
v 1.8 1.2 -1.2
v 1.7 1.2 -1.6
v 1.8 1.2 -1.6
v -1.4 1.3 1.9
v -1.2 1.3 1.9
v -1.4 1.3 1.8
v -1.2 1.3 1.8
v 1 1.4 -0.9
v 1.2 1.4 -0.9
v 0.8 1.4 -1.1
v 1 1.4 -1.1
v 1.2 1.4 -1.1
v 0.8 1.4 -1.7
v 1 1.4 -1.7
v 1.2 1.4 -1.7
v 1 1.4 -1.9
v 1.2 1.4 -1.9
v 1.2 1.5 -1.1
v 1.3 1.5 -1.1
v 1.2 1.5 -1.2
v 1.3 1.5 -1.2
v 1.2 1.5 -1.6
v 1.3 1.5 -1.6
v 1.2 1.5 -1.7
v 1.3 1.5 -1.7
v -1.8 1.6 1.8
v -0.8 1.6 1.8
v -1.8 1.6 1.6
v -1.6 1.6 1.6
v -1 1.6 1.6
v -0.8 1.6 1.6
v -1.8 1.6 1.3
v -1.6 1.6 1.3
v -1 1.6 1.3
v -0.8 1.6 1.3
v -1.8 1.6 0.8
v -0.8 1.6 0.8
v 1 1.6 -1.1
v 1.2 1.6 -1.1
v 1.2 1.6 -1.2
v 1.4 1.6 -1.2
v 1.2 1.6 -1.6
v 1.4 1.6 -1.6
v 1 1.6 -1.7
v 1.2 1.6 -1.7
v -1.7 1.7 1.6
v -1.6 1.7 1.6
v -1 1.7 1.6
v -0.9 1.7 1.6
v -1.7 1.7 1.3
v -1.6 1.7 1.3
v -1 1.7 1.3
v -0.9 1.7 1.3
v -1.8 1.8 1.6
v -1.7 1.8 1.6
v -0.9 1.8 1.6
v -0.8 1.8 1.6
v -1.8 1.8 1.3
v -1.7 1.8 1.3
v -0.9 1.8 1.3
v -0.8 1.8 1.3

# faces
f 7/8/1 2/8/1 1/8/1
f 8/8/1 2/8/1 7/8/1
f 9/8/1 2/8/1 8/8/1
f 10/8/1 2/8/1 9/8/1
f 11/8/1 4/8/1 3/8/1
f 12/8/1 4/8/1 11/8/1
f 13/8/1 6/8/1 5/8/1
f 14/8/1 6/8/1 13/8/1
f 15/4/1 9/4/1 8/4/1
f 16/4/1 9/4/1 15/4/1
f 25/7/1 18/7/1 17/7/1
f 26/7/1 18/7/1 25/7/1
f 27/4/1 20/4/1 19/4/1
f 27/1/1 21/1/1 20/1/1
f 28/4/1 22/4/1 21/4/1
f 28/1/1 21/1/1 27/1/1
f 29/1/1 23/1/1 22/1/1
f 29/4/1 22/4/1 28/4/1
f 30/4/1 24/4/1 23/4/1
f 30/1/1 23/1/1 29/1/1
f 31/4/1 29/4/1 28/4/1
f 31/4/1 27/4/1 19/4/1
f 31/4/1 30/4/1 29/4/1
f 31/4/1 28/4/1 27/4/1
f 32/4/1 24/4/1 30/4/1
f 32/4/1 30/4/1 31/4/1
f 45/8/1 34/8/1 33/8/1
f 46/8/1 34/8/1 45/8/1
f 47/8/1 36/8/1 35/8/1
f 48/8/1 36/8/1 47/8/1
f 49/8/1 38/8/1 37/8/1
f 50/8/1 38/8/1 49/8/1
f 51/8/1 40/8/1 39/8/1
f 52/8/1 40/8/1 51/8/1
f 53/8/1 42/8/1 41/8/1
f 54/8/1 42/8/1 53/8/1
f 55/7/1 44/7/1 43/7/1
f 56/7/1 44/7/1 55/7/1
f 61/4/1 58/4/1 57/4/1
f 62/4/1 58/4/1 61/4/1
f 63/4/1 58/4/1 62/4/1
f 64/4/1 58/4/1 63/4/1
f 65/4/1 58/4/1 64/4/1
f 66/4/1 58/4/1 65/4/1
f 68/7/1 60/7/1 59/7/1
f 69/7/1 68/7/1 67/7/1
f 70/7/1 60/7/1 68/7/1
f 70/7/1 68/7/1 69/7/1
f 71/4/1 61/4/1 57/4/1
f 72/4/1 61/4/1 71/4/1
f 73/2/1 72/2/1 71/2/1
f 74/4/1 61/4/1 72/4/1
f 74/2/1 72/2/1 73/2/1
f 75/4/1 74/4/1 73/4/1
f 75/4/1 61/4/1 74/4/1
f 76/4/1 58/4/1 66/4/1
f 77/4/1 75/4/1 73/4/1
f 77/4/1 76/4/1 75/4/1
f 78/4/1 76/4/1 77/4/1
f 79/4/1 76/4/1 78/4/1
f 80/4/1 58/4/1 76/4/1
f 80/4/1 76/4/1 79/4/1
f 81/4/1 79/4/1 78/4/1
f 82/4/1 79/4/1 81/4/1
f 89/1/1 84/1/1 83/1/1
f 89/1/1 85/1/1 84/1/1
f 89/1/1 86/1/1 85/1/1
f 90/1/1 86/1/1 89/1/1
f 93/7/1 88/7/1 87/7/1
f 94/7/1 88/7/1 93/7/1
f 95/4/1 92/4/1 91/4/1
f 96/4/1 92/4/1 95/4/1
f 99/7/1 98/7/1 97/7/1
f 100/7/1 98/7/1 99/7/1
f 103/7/1 102/7/1 101/7/1
f 104/7/1 102/7/1 103/7/1
f 107/6/1 106/6/1 105/6/1
f 108/6/1 106/6/1 107/6/1
f 113/1/1 110/1/1 109/1/1
f 113/1/1 112/1/1 111/1/1
f 113/1/1 111/1/1 110/1/1
f 114/1/1 112/1/1 113/1/1
f 117/4/1 116/4/1 115/4/1
f 118/4/1 116/4/1 117/4/1
f 121/4/1 120/4/1 119/4/1
f 122/4/1 120/4/1 121/4/1
f 129/8/1 124/8/1 123/8/1
f 130/8/1 124/8/1 129/8/1
f 131/8/1 124/8/1 130/8/1
f 132/8/1 124/8/1 131/8/1
f 133/8/1 126/8/1 125/8/1
f 134/8/1 126/8/1 133/8/1
f 135/8/1 128/8/1 127/8/1
f 136/8/1 128/8/1 135/8/1
f 149/8/1 138/8/1 137/8/1
f 150/8/1 138/8/1 149/8/1
f 153/8/1 140/8/1 139/8/1
f 154/8/1 140/8/1 153/8/1
f 155/8/1 142/8/1 141/8/1
f 156/8/1 142/8/1 155/8/1
f 157/8/1 144/8/1 143/8/1
f 158/8/1 144/8/1 157/8/1
f 159/8/1 146/8/1 145/8/1
f 160/8/1 146/8/1 159/8/1
f 161/8/1 148/8/1 147/8/1
f 162/8/1 148/8/1 161/8/1
f 163/4/1 152/4/1 151/4/1
f 164/4/1 152/4/1 163/4/1
f 167/4/1 166/4/1 165/4/1
f 168/4/1 166/4/1 167/4/1
f 171/4/1 170/4/1 169/4/1
f 172/4/1 170/4/1 171/4/1
f 174/5/1 172/5/1 171/5/1
f 174/5/1 173/5/1 172/5/1
f 175/5/1 173/5/1 174/5/1
f 178/5/1 177/5/1 176/5/1
f 180/5/1 178/5/1 176/5/1
f 180/5/1 179/5/1 178/5/1
f 181/5/1 179/5/1 180/5/1
f 189/8/1 187/8/1 186/8/1
f 189/7/1 188/7/1 187/7/1
f 190/7/1 188/7/1 189/7/1
f 191/8/1 183/8/1 182/8/1
f 192/8/1 183/8/1 191/8/1
f 193/8/1 185/8/1 184/8/1
f 194/8/1 185/8/1 193/8/1
f 195/8/1 189/8/1 186/8/1
f 195/8/1 190/8/1 189/8/1
f 196/7/1 188/7/1 190/7/1
f 196/8/1 190/8/1 195/8/1
f 197/7/1 188/7/1 196/7/1
f 198/7/1 188/7/1 197/7/1
f 199/7/1 188/7/1 198/7/1
f 200/7/1 188/7/1 199/7/1
f 213/8/1 202/8/1 201/8/1
f 214/8/1 202/8/1 213/8/1
f 215/8/1 204/8/1 203/8/1
f 216/8/1 204/8/1 215/8/1
f 217/8/1 206/8/1 205/8/1
f 218/8/1 206/8/1 217/8/1
f 219/8/1 208/8/1 207/8/1
f 220/8/1 208/8/1 219/8/1
f 221/8/1 210/8/1 209/8/1
f 222/8/1 210/8/1 221/8/1
f 225/7/1 224/7/1 223/7/1
f 226/7/1 212/7/1 211/7/1
f 228/7/1 225/7/1 223/7/1
f 228/7/1 226/7/1 225/7/1
f 229/7/1 226/7/1 228/7/1
f 230/7/1 212/7/1 226/7/1
f 230/7/1 226/7/1 229/7/1
f 231/6/1 229/6/1 228/6/1
f 231/6/1 228/6/1 227/6/1
f 232/6/1 229/6/1 231/6/1
f 237/7/1 234/7/1 233/7/1
f 238/7/1 234/7/1 237/7/1
f 239/9/1 236/9/1 235/9/1
f 240/9/1 236/9/1 239/9/1
f 244/6/1 242/6/1 241/6/1
f 245/6/1 242/6/1 244/6/1
f 248/6/1 244/6/1 243/6/1
f 249/6/1 244/6/1 248/6/1
f 250/6/1 247/6/1 246/6/1
f 251/6/1 247/6/1 250/6/1
f 252/6/1 250/6/1 249/6/1
f 253/6/1 250/6/1 252/6/1
f 258/6/1 257/6/1 256/6/1
f 259/6/1 257/6/1 258/6/1
f 260/7/1 255/7/1 254/7/1
f 261/7/1 255/7/1 260/7/1
f 266/9/1 263/9/1 262/9/1
f 267/9/1 263/9/1 266/9/1
f 269/6/1 265/6/1 264/6/1
f 270/6/1 265/6/1 269/6/1
f 272/6/1 269/6/1 268/6/1
f 273/6/1 269/6/1 272/6/1
f 274/6/1 271/6/1 270/6/1
f 275/6/1 271/6/1 274/6/1
f 276/6/1 274/6/1 273/6/1
f 277/6/1 274/6/1 276/6/1
f 283/6/1 279/6/1 278/6/1
f 284/6/1 279/6/1 283/6/1
f 285/6/1 281/6/1 280/6/1
f 286/6/1 281/6/1 285/6/1
f 288/6/1 283/6/1 282/6/1
f 289/6/1 283/6/1 288/6/1
f 292/6/1 287/6/1 286/6/1
f 293/6/1 287/6/1 292/6/1
f 294/6/1 290/6/1 289/6/1
f 295/6/1 290/6/1 294/6/1
f 296/6/1 292/6/1 291/6/1
f 297/6/1 292/6/1 296/6/1
f 298/6/1 296/6/1 295/6/1
f 299/6/1 296/6/1 298/6/1
f 302/6/1 301/6/1 300/6/1
f 303/6/1 301/6/1 302/6/1
f 306/6/1 305/6/1 304/6/1
f 307/6/1 305/6/1 306/6/1
f 310/9/1 309/9/1 308/9/1
f 311/9/1 309/9/1 310/9/1
f 314/6/1 313/6/1 312/6/1
f 315/6/1 313/6/1 314/6/1
f 316/4/2 317/4/2 320/4/2
f 320/4/2 317/4/2 321/4/2
f 318/4/2 319/4/2 322/4/2
f 322/4/2 319/4/2 323/4/2
f 324/4/2 325/4/2 326/4/2
f 326/4/2 325/4/2 327/4/2
f 328/4/2 329/4/2 330/4/2
f 330/4/2 329/4/2 331/4/2
f 332/4/2 333/4/2 334/4/2
f 334/4/2 333/4/2 335/4/2
f 336/7/2 337/7/2 338/7/2
f 338/7/2 337/7/2 339/7/2
f 340/4/2 341/4/2 342/4/2
f 342/4/2 341/4/2 343/4/2
f 344/1/2 345/1/2 348/1/2
f 346/1/2 347/1/2 348/1/2
f 345/1/2 346/1/2 348/1/2
f 348/1/2 347/1/2 349/1/2
f 350/7/2 351/7/2 352/7/2
f 352/7/2 351/7/2 353/7/2
f 354/7/2 355/7/2 356/7/2
f 356/7/2 355/7/2 357/7/2
f 358/6/2 359/6/2 360/6/2
f 360/6/2 359/6/2 361/6/2
f 362/7/2 363/7/2 364/7/2
f 364/7/2 363/7/2 365/7/2
f 366/7/2 367/7/2 372/7/2
f 372/7/2 367/7/2 373/7/2
f 370/1/2 371/1/2 374/1/2
f 368/1/2 369/1/2 374/1/2
f 369/1/2 370/1/2 374/1/2
f 374/1/2 371/1/2 375/1/2
f 376/4/2 377/4/2 378/4/2
f 378/4/2 377/4/2 379/4/2
f 380/8/2 381/8/2 392/8/2
f 392/8/2 381/8/2 393/8/2
f 382/8/2 383/8/2 394/8/2
f 394/8/2 383/8/2 395/8/2
f 384/8/2 385/8/2 396/8/2
f 396/8/2 385/8/2 397/8/2
f 386/8/2 387/8/2 398/8/2
f 398/8/2 387/8/2 399/8/2
f 388/8/2 389/8/2 400/8/2
f 400/8/2 389/8/2 401/8/2
f 390/8/2 391/8/2 402/8/2
f 402/8/2 391/8/2 403/8/2
f 404/4/2 405/4/2 406/4/2
f 406/4/2 405/4/2 407/4/2
f 407/4/2 405/4/2 408/4/2
f 408/4/2 405/4/2 409/4/2
f 409/4/2 405/4/2 410/4/2
f 410/4/2 405/4/2 411/4/2
f 404/4/2 406/4/2 412/4/2
f 412/4/2 406/4/2 413/4/2
f 412/2/2 413/2/2 414/2/2
f 413/4/2 406/4/2 415/4/2
f 414/2/2 413/2/2 415/2/2
f 414/4/2 415/4/2 416/4/2
f 415/4/2 406/4/2 416/4/2
f 411/4/2 405/4/2 417/4/2
f 414/4/2 416/4/2 418/4/2
f 416/4/2 417/4/2 418/4/2
f 418/4/2 417/4/2 419/4/2
f 419/4/2 417/4/2 420/4/2
f 417/4/2 405/4/2 421/4/2
f 420/4/2 417/4/2 421/4/2
f 419/4/2 420/4/2 422/4/2
f 422/4/2 420/4/2 423/4/2
f 424/8/2 425/8/2 430/8/2
f 430/8/2 425/8/2 431/8/2
f 431/8/2 425/8/2 432/8/2
f 432/8/2 425/8/2 433/8/2
f 426/8/2 427/8/2 434/8/2
f 434/8/2 427/8/2 435/8/2
f 428/8/2 429/8/2 436/8/2
f 436/8/2 429/8/2 437/8/2
f 438/4/2 439/4/2 444/4/2
f 439/1/2 440/1/2 444/1/2
f 440/4/2 441/4/2 445/4/2
f 444/1/2 440/1/2 445/1/2
f 441/1/2 442/1/2 446/1/2
f 445/4/2 441/4/2 446/4/2
f 442/4/2 443/4/2 447/4/2
f 446/1/2 442/1/2 447/1/2
f 445/4/2 446/4/2 448/4/2
f 444/4/2 445/4/2 448/4/2
f 446/4/2 447/4/2 448/4/2
f 438/4/2 444/4/2 448/4/2
f 447/4/2 443/4/2 449/4/2
f 448/4/2 447/4/2 449/4/2
f 450/4/2 451/4/2 452/4/2
f 452/4/2 451/4/2 453/4/2
f 454/4/2 455/4/2 456/4/2
f 456/4/2 455/4/2 457/4/2
f 458/4/2 459/4/2 460/4/2
f 460/4/2 459/4/2 461/4/2
f 462/4/2 463/4/2 464/4/2
f 464/4/2 463/4/2 465/4/2
f 465/4/2 463/4/2 466/4/2
f 465/5/2 466/5/2 467/5/2
f 467/5/2 466/5/2 468/5/2
f 469/5/2 470/5/2 471/5/2
f 471/5/2 470/5/2 472/5/2
f 473/8/2 474/8/2 485/8/2
f 485/8/2 474/8/2 486/8/2
f 475/8/2 476/8/2 487/8/2
f 487/8/2 476/8/2 488/8/2
f 477/8/2 478/8/2 489/8/2
f 489/8/2 478/8/2 490/8/2
f 479/8/2 480/8/2 491/8/2
f 491/8/2 480/8/2 492/8/2
f 481/8/2 482/8/2 493/8/2
f 493/8/2 482/8/2 494/8/2
f 483/8/2 484/8/2 495/8/2
f 495/8/2 484/8/2 496/8/2
f 497/8/2 498/8/2 503/8/2
f 503/8/2 498/8/2 504/8/2
f 499/8/2 500/8/2 505/8/2
f 505/8/2 500/8/2 506/8/2
f 501/8/2 502/8/2 507/8/2
f 507/8/2 502/8/2 508/8/2
f 509/9/2 510/9/2 511/9/2
f 511/9/2 510/9/2 512/9/2
f 513/6/2 514/6/2 515/6/2
f 515/6/2 514/6/2 516/6/2
f 516/6/2 514/6/2 517/6/2
f 517/6/2 514/6/2 518/6/2
f 519/6/2 520/6/2 523/6/2
f 523/6/2 520/6/2 524/6/2
f 521/6/2 522/6/2 525/6/2
f 525/6/2 522/6/2 526/6/2
f 527/9/2 528/9/2 531/9/2
f 531/9/2 528/9/2 532/9/2
f 529/6/2 530/6/2 533/6/2
f 533/6/2 530/6/2 534/6/2
f 535/6/2 536/6/2 537/6/2
f 537/6/2 536/6/2 538/6/2
f 539/6/2 540/6/2 541/6/2
f 541/6/2 540/6/2 542/6/2
f 542/6/2 540/6/2 543/6/2
f 543/6/2 540/6/2 544/6/2
f 545/6/2 546/6/2 550/6/2
f 550/6/2 546/6/2 551/6/2
f 547/6/2 548/6/2 552/6/2
f 552/6/2 548/6/2 553/6/2
f 549/6/2 550/6/2 555/6/2
f 555/6/2 550/6/2 556/6/2
f 553/6/2 554/6/2 559/6/2
f 559/6/2 554/6/2 560/6/2
f 556/6/2 557/6/2 561/6/2
f 561/6/2 557/6/2 562/6/2
f 558/6/2 559/6/2 563/6/2
f 563/6/2 559/6/2 564/6/2
f 562/6/2 563/6/2 565/6/2
f 565/6/2 563/6/2 566/6/2
f 567/6/2 568/6/2 569/6/2
f 569/6/2 568/6/2 570/6/2
f 571/6/2 572/6/2 574/6/2
f 574/6/2 572/6/2 575/6/2
f 573/6/2 574/6/2 577/6/2
f 577/6/2 574/6/2 578/6/2
f 575/6/2 576/6/2 579/6/2
f 579/6/2 576/6/2 580/6/2
f 578/6/2 579/6/2 581/6/2
f 581/6/2 579/6/2 582/6/2
f 583/6/2 584/6/2 587/6/2
f 587/6/2 584/6/2 588/6/2
f 585/7/2 586/7/2 593/7/2
f 593/7/2 586/7/2 594/7/2
f 590/6/2 591/6/2 595/6/2
f 589/6/2 590/6/2 595/6/2
f 595/6/2 591/6/2 596/6/2
f 593/6/2 594/6/2 597/6/2
f 592/6/2 593/6/2 597/6/2
f 597/6/2 594/6/2 598/6/2
f 599/7/2 600/7/2 601/7/2
f 601/7/2 600/7/2 602/7/2
f 603/6/2 604/6/2 607/6/2
f 607/6/2 604/6/2 608/6/2
f 605/6/2 606/6/2 609/6/2
f 609/6/2 606/6/2 610/6/2
f 611/8/2 612/8/2 623/8/2
f 623/8/2 612/8/2 624/8/2
f 613/8/2 614/8/2 627/8/2
f 627/8/2 614/8/2 628/8/2
f 615/8/2 616/8/2 629/8/2
f 629/8/2 616/8/2 630/8/2
f 617/8/2 618/8/2 631/8/2
f 631/8/2 618/8/2 632/8/2
f 619/8/2 620/8/2 633/8/2
f 633/8/2 620/8/2 634/8/2
f 625/9/2 626/9/2 635/9/2
f 635/9/2 626/9/2 636/9/2
f 621/7/2 622/7/2 640/7/2
f 640/7/2 622/7/2 641/7/2
f 637/7/2 638/7/2 642/7/2
f 642/7/2 638/7/2 643/7/2
f 643/7/2 638/7/2 644/7/2
f 639/7/2 640/7/2 645/7/2
f 645/7/2 640/7/2 646/7/2
f 643/6/2 644/6/2 647/6/2
f 644/6/2 645/6/2 647/6/2
f 647/6/2 645/6/2 648/6/2
f 648/6/2 645/6/2 649/6/2
f 649/6/2 645/6/2 650/6/2
f 648/6/2 649/6/2 651/6/2
f 651/6/2 649/6/2 652/6/2
f 653/8/2 654/8/2 660/8/2
f 660/8/2 654/8/2 661/8/2
f 655/8/2 656/8/2 662/8/2
f 662/8/2 656/8/2 663/8/2
f 657/8/2 658/8/2 664/8/2
f 658/7/2 659/7/2 665/7/2
f 664/8/2 658/8/2 665/8/2
f 665/7/2 659/7/2 666/7/2
f 666/7/2 659/7/2 667/7/2
f 667/7/2 659/7/2 668/7/2
f 668/7/2 659/7/2 669/7/2
f 667/7/2 668/7/2 670/7/2
f 670/7/2 668/7/2 671/7/2
f 676/6/3 675/6/3 674/6/3
f 677/6/3 675/6/3 676/6/3
f 678/8/3 673/8/3 672/8/3
f 679/8/3 673/8/3 678/8/3
f 682/8/3 681/8/3 680/8/3
f 683/8/3 681/8/3 682/8/3
f 686/8/3 685/8/3 684/8/3
f 687/8/3 685/8/3 686/8/3
f 690/8/3 689/8/3 688/8/3
f 691/8/3 689/8/3 690/8/3
f 696/4/3 693/4/3 692/4/3
f 697/2/3 694/2/3 693/2/3
f 697/4/3 693/4/3 696/4/3
f 698/4/3 695/4/3 694/4/3
f 698/2/3 694/2/3 697/2/3
f 699/4/3 695/4/3 698/4/3
f 700/9/3 697/9/3 696/9/3
f 700/2/3 698/2/3 697/2/3
f 701/9/3 699/9/3 698/9/3
f 701/2/3 698/2/3 700/2/3
f 702/9/3 699/9/3 701/9/3
f 703/9/3 701/9/3 700/9/3
f 703/10/3 702/10/3 701/10/3
f 704/9/3 699/9/3 702/9/3
f 704/10/3 702/10/3 703/10/3
f 705/9/3 700/9/3 696/9/3
f 705/9/3 703/9/3 700/9/3
f 705/9/3 704/9/3 703/9/3
f 706/9/3 699/9/3 704/9/3
f 706/9/3 704/9/3 705/9/3
f 707/9/3 699/9/3 706/9/3
f 708/4/3 695/4/3 699/4/3
f 708/9/3 699/9/3 707/9/3
f 709/9/3 705/9/3 696/9/3
f 710/9/3 707/9/3 706/9/3
f 711/4/3 708/4/3 707/4/3
f 711/9/3 707/9/3 710/9/3
f 712/4/3 695/4/3 708/4/3
f 712/4/3 708/4/3 711/4/3
f 713/9/3 711/9/3 710/9/3
f 713/9/3 710/9/3 709/9/3
f 713/9/3 712/9/3 711/9/3
f 714/9/3 712/9/3 713/9/3
f 715/9/3 709/9/3 696/9/3
f 715/9/3 713/9/3 709/9/3
f 716/10/3 714/10/3 713/10/3
f 716/9/3 713/9/3 715/9/3
f 717/9/3 712/9/3 714/9/3
f 717/10/3 714/10/3 716/10/3
f 718/4/3 696/4/3 692/4/3
f 718/9/3 715/9/3 696/9/3
f 719/2/3 716/2/3 715/2/3
f 719/9/3 715/9/3 718/9/3
f 720/9/3 717/9/3 716/9/3
f 720/2/3 716/2/3 719/2/3
f 721/9/3 712/9/3 717/9/3
f 721/9/3 717/9/3 720/9/3
f 721/4/3 695/4/3 712/4/3
f 724/4/3 718/4/3 692/4/3
f 724/4/3 719/4/3 718/4/3
f 725/2/3 720/2/3 719/2/3
f 725/4/3 719/4/3 724/4/3
f 726/4/3 721/4/3 720/4/3
f 726/2/3 720/2/3 725/2/3
f 727/4/3 695/4/3 721/4/3
f 727/4/3 721/4/3 726/4/3
f 728/8/3 723/8/3 722/8/3
f 729/8/3 723/8/3 728/8/3
f 732/8/3 731/8/3 730/8/3
f 733/8/3 731/8/3 732/8/3
f 736/8/3 735/8/3 734/8/3
f 737/8/3 735/8/3 736/8/3
f 740/8/3 739/8/3 738/8/3
f 741/8/3 739/8/3 740/8/3
f 744/9/3 743/9/3 742/9/3
f 745/9/3 743/9/3 744/9/3
f 748/8/3 747/8/3 746/8/3
f 749/8/3 747/8/3 748/8/3
f 752/5/3 751/5/3 750/5/3
f 753/5/3 751/5/3 752/5/3
f 758/4/3 755/4/3 754/4/3
f 759/4/3 755/4/3 758/4/3
f 760/4/3 758/4/3 754/4/3
f 761/4/3 758/4/3 760/4/3
f 762/1/3 757/1/3 756/1/3
f 763/1/3 757/1/3 762/1/3
f 768/1/3 765/1/3 764/1/3
f 769/1/3 765/1/3 768/1/3
f 770/4/3 767/4/3 766/4/3
f 772/4/3 770/4/3 766/4/3
f 772/4/3 771/4/3 770/4/3
f 773/4/3 771/4/3 772/4/3
f 777/4/3 775/4/3 774/4/3
f 777/5/3 776/5/3 775/5/3
f 778/5/3 776/5/3 777/5/3
f 779/4/3 777/4/3 774/4/3
f 780/4/3 777/4/3 779/4/3
f 785/4/3 782/4/3 781/4/3
f 786/4/3 782/4/3 785/4/3
f 787/4/3 784/4/3 783/4/3
f 788/4/3 784/4/3 787/4/3
f 791/4/3 790/4/3 789/4/3
f 792/4/3 790/4/3 791/4/3
f 795/4/3 794/4/3 793/4/3
f 796/4/3 794/4/3 795/4/3
f 799/6/3 798/6/3 797/6/3
f 800/6/3 798/6/3 799/6/3
f 803/4/3 802/4/3 801/4/3
f 804/4/3 803/4/3 801/4/3
f 805/4/3 803/4/3 804/4/3
f 809/6/3 807/6/3 806/6/3
f 810/6/3 807/6/3 809/6/3
f 812/6/3 809/6/3 808/6/3
f 813/6/3 809/6/3 812/6/3
f 814/6/3 811/6/3 810/6/3
f 815/6/3 811/6/3 814/6/3
f 816/6/3 814/6/3 813/6/3
f 817/6/3 814/6/3 816/6/3
f 820/4/3 819/4/3 818/4/3
f 821/4/3 820/4/3 818/4/3
f 822/4/3 821/4/3 818/4/3
f 823/4/3 822/4/3 818/4/3
f 824/4/3 822/4/3 823/4/3
f 825/4/3 822/4/3 824/4/3
f 826/4/3 822/4/3 825/4/3
f 830/6/3 828/6/3 827/6/3
f 831/6/3 828/6/3 830/6/3
f 833/6/3 830/6/3 829/6/3
f 834/6/3 830/6/3 833/6/3
f 835/6/3 830/6/3 834/6/3
f 836/6/3 832/6/3 831/6/3
f 837/6/3 832/6/3 836/6/3
f 843/6/3 838/6/3 837/6/3
f 844/6/3 838/6/3 843/6/3
f 845/6/3 841/6/3 840/6/3
f 845/6/3 840/6/3 839/6/3
f 846/6/3 841/6/3 845/6/3
f 847/6/3 843/6/3 842/6/3
f 848/6/3 843/6/3 847/6/3
f 849/6/3 847/6/3 846/6/3
f 850/6/3 847/6/3 849/6/3
f 853/9/3 852/9/3 851/9/3
f 854/9/3 852/9/3 853/9/3
f 857/9/3 856/9/3 855/9/3
f 858/9/3 856/9/3 857/9/3
f 861/8/3 860/8/3 859/8/3
f 862/8/3 860/8/3 861/8/3
f 865/8/3 864/8/3 863/8/3
f 866/8/3 864/8/3 865/8/3
f 869/8/3 868/8/3 867/8/3
f 870/8/3 868/8/3 869/8/3
f 873/8/3 872/8/3 871/8/3
f 874/8/3 872/8/3 873/8/3
f 877/8/3 876/8/3 875/8/3
f 878/8/3 876/8/3 877/8/3
f 881/8/3 880/8/3 879/8/3
f 882/8/3 880/8/3 881/8/3
f 885/8/3 884/8/3 883/8/3
f 886/8/3 884/8/3 885/8/3
f 889/8/3 888/8/3 887/8/3
f 890/8/3 888/8/3 889/8/3
f 893/8/3 892/8/3 891/8/3
f 894/8/3 892/8/3 893/8/3
f 897/8/3 896/8/3 895/8/3
f 898/8/3 896/8/3 897/8/3
f 901/8/3 900/8/3 899/8/3
f 902/8/3 900/8/3 901/8/3
f 905/8/3 904/8/3 903/8/3
f 906/8/3 904/8/3 905/8/3
f 911/8/3 908/8/3 907/8/3
f 912/8/3 908/8/3 911/8/3
f 913/7/3 910/7/3 909/7/3
f 914/7/3 910/7/3 913/7/3
f 917/8/3 916/8/3 915/8/3
f 918/8/3 916/8/3 917/8/3
f 921/8/3 920/8/3 919/8/3
f 922/8/3 920/8/3 921/8/3
f 925/8/3 924/8/3 923/8/3
f 926/8/3 924/8/3 925/8/3
f 929/8/3 928/8/3 927/8/3
f 930/8/3 928/8/3 929/8/3
f 933/8/3 932/8/3 931/8/3
f 934/8/3 932/8/3 933/8/3
f 938/7/3 936/7/3 935/7/3
f 939/7/3 936/7/3 938/7/3
f 939/7/3 938/7/3 937/7/3
f 940/7/3 936/7/3 939/7/3
f 941/7/3 939/7/3 937/7/3
f 942/7/3 939/7/3 941/7/3
f 947/6/3 946/6/3 945/6/3
f 948/6/3 946/6/3 947/6/3
f 949/6/3 947/6/3 945/6/3
f 950/6/3 947/6/3 949/6/3
f 951/6/3 949/6/3 945/6/3
f 952/6/3 949/6/3 951/6/3
f 953/7/3 944/7/3 943/7/3
f 954/7/3 944/7/3 953/7/3
f 957/7/3 956/7/3 955/7/3
f 958/7/3 957/7/3 955/7/3
f 959/7/3 957/7/3 958/7/3
f 964/7/3 961/7/3 960/7/3
f 965/7/3 961/7/3 964/7/3
f 967/6/3 963/6/3 962/6/3
f 968/6/3 963/6/3 967/6/3
f 970/6/3 967/6/3 966/6/3
f 971/6/3 967/6/3 970/6/3
f 972/6/3 969/6/3 968/6/3
f 973/6/3 969/6/3 972/6/3
f 974/6/3 969/6/3 973/6/3
f 975/6/3 973/6/3 972/6/3
f 976/6/3 973/6/3 975/6/3
f 980/6/3 978/6/3 977/6/3
f 980/6/3 979/6/3 978/6/3
f 981/6/3 979/6/3 980/6/3
f 982/6/3 980/6/3 977/6/3
f 983/6/3 980/6/3 982/6/3
f 986/7/3 985/7/3 984/7/3
f 987/7/3 985/7/3 986/7/3
f 990/6/3 989/6/3 988/6/3
f 991/6/3 989/6/3 990/6/3
f 992/6/3 989/6/3 991/6/3
f 998/6/3 994/6/3 993/6/3
f 998/6/3 995/6/3 994/6/3
f 999/6/3 995/6/3 998/6/3
f 1000/7/3 997/7/3 996/7/3
f 1001/7/3 997/7/3 1000/7/3
f 1004/7/3 1003/7/3 1002/7/3
f 1005/7/3 1003/7/3 1004/7/3
f 1008/7/3 1007/7/3 1006/7/3
f 1009/7/3 1007/7/3 1008/7/3
f 1012/7/3 1011/7/3 1010/7/3
f 1013/7/3 1011/7/3 1012/7/3
f 1014/9/4 1015/9/4 1016/9/4
f 1016/9/4 1015/9/4 1017/9/4
f 1018/5/4 1019/5/4 1021/5/4
f 1020/5/4 1021/5/4 1022/5/4
f 1021/5/4 1019/5/4 1023/5/4
f 1022/5/4 1021/5/4 1023/5/4
f 1024/5/4 1025/5/4 1027/5/4
f 1026/4/4 1027/4/4 1028/4/4
f 1027/5/4 1025/5/4 1029/5/4
f 1028/4/4 1027/4/4 1029/4/4
f 1029/5/4 1025/5/4 1030/5/4
f 1031/4/4 1032/4/4 1033/4/4
f 1033/4/4 1032/4/4 1034/4/4
f 1031/4/4 1033/4/4 1035/4/4
f 1035/4/4 1033/4/4 1036/4/4
f 1037/4/4 1038/4/4 1039/4/4
f 1037/4/4 1039/4/4 1041/4/4
f 1039/4/4 1040/4/4 1041/4/4
f 1041/4/4 1040/4/4 1042/4/4
f 1043/4/4 1044/4/4 1045/4/4
f 1045/4/4 1044/4/4 1046/4/4
f 1047/6/4 1048/6/4 1050/6/4
f 1050/6/4 1048/6/4 1051/6/4
f 1049/6/4 1050/6/4 1053/6/4
f 1053/6/4 1050/6/4 1054/6/4
f 1054/6/4 1050/6/4 1055/6/4
f 1051/6/4 1052/6/4 1056/6/4
f 1056/6/4 1052/6/4 1057/6/4
f 1057/6/4 1058/6/4 1063/6/4
f 1063/6/4 1058/6/4 1064/6/4
f 1060/6/4 1061/6/4 1065/6/4
f 1059/6/4 1060/6/4 1065/6/4
f 1065/6/4 1061/6/4 1066/6/4
f 1062/6/4 1063/6/4 1067/6/4
f 1067/6/4 1063/6/4 1068/6/4
f 1066/6/4 1067/6/4 1069/6/4
f 1069/6/4 1067/6/4 1070/6/4
f 1071/9/4 1072/9/4 1073/9/4
f 1073/9/4 1072/9/4 1074/9/4
f 1075/4/4 1076/4/4 1077/4/4
f 1075/4/4 1077/4/4 1078/4/4
f 1075/4/4 1078/4/4 1079/4/4
f 1075/4/4 1079/4/4 1080/4/4
f 1080/4/4 1079/4/4 1081/4/4
f 1081/4/4 1079/4/4 1082/4/4
f 1082/4/4 1079/4/4 1083/4/4
f 1084/4/4 1085/4/4 1086/4/4
f 1086/4/4 1085/4/4 1087/4/4
f 1088/6/4 1089/6/4 1091/6/4
f 1091/6/4 1089/6/4 1092/6/4
f 1090/6/4 1091/6/4 1094/6/4
f 1094/6/4 1091/6/4 1095/6/4
f 1092/6/4 1093/6/4 1096/6/4
f 1096/6/4 1093/6/4 1097/6/4
f 1095/6/4 1096/6/4 1098/6/4
f 1098/6/4 1096/6/4 1099/6/4
f 1100/4/4 1101/4/4 1104/4/4
f 1104/4/4 1101/4/4 1105/4/4
f 1102/4/4 1103/4/4 1106/4/4
f 1106/4/4 1103/4/4 1107/4/4
f 1108/4/4 1109/4/4 1110/4/4
f 1110/4/4 1109/4/4 1111/4/4
f 1112/6/4 1113/6/4 1114/6/4
f 1114/6/4 1113/6/4 1115/6/4
f 1116/4/4 1117/4/4 1118/4/4
f 1118/4/4 1117/4/4 1119/4/4
f 1120/1/4 1121/1/4 1122/1/4
f 1122/1/4 1121/1/4 1123/1/4
f 1124/1/4 1125/1/4 1126/1/4
f 1126/1/4 1125/1/4 1127/1/4
f 1128/4/4 1129/4/4 1130/4/4
f 1130/4/4 1129/4/4 1131/4/4
f 1132/9/4 1133/9/4 1134/9/4
f 1134/9/4 1133/9/4 1135/9/4
f 1136/8/4 1137/8/4 1138/8/4
f 1138/8/4 1137/8/4 1139/8/4
f 1140/4/4 1141/4/4 1142/4/4
f 1142/4/4 1141/4/4 1143/4/4
f 1143/4/4 1141/4/4 1145/4/4
f 1144/4/4 1145/4/4 1148/4/4
f 1145/4/4 1141/4/4 1149/4/4
f 1148/4/4 1145/4/4 1149/4/4
f 1146/8/4 1147/8/4 1150/8/4
f 1150/8/4 1147/8/4 1151/8/4
f 1152/8/4 1153/8/4 1154/8/4
f 1154/8/4 1153/8/4 1155/8/4
f 1156/8/4 1157/8/4 1158/8/4
f 1158/8/4 1157/8/4 1159/8/4
f 1160/8/4 1161/8/4 1162/8/4
f 1162/8/4 1161/8/4 1163/8/4
f 1164/8/4 1165/8/4 1166/8/4
f 1166/8/4 1165/8/4 1167/8/4
f 1170/4/4 1171/4/4 1172/4/4
f 1172/4/4 1171/4/4 1173/4/4
f 1168/8/4 1169/8/4 1174/8/4
f 1174/8/4 1169/8/4 1175/8/4
f 1176/8/4 1177/8/4 1178/8/4
f 1178/8/4 1177/8/4 1179/8/4
f 1180/8/4 1181/8/4 1182/8/4
f 1182/8/4 1181/8/4 1183/8/4
f 1184/8/4 1185/8/4 1186/8/4
f 1186/8/4 1185/8/4 1187/8/4
f 1188/8/4 1189/8/4 1190/8/4
f 1190/8/4 1189/8/4 1191/8/4
f 1192/8/4 1193/8/4 1194/8/4
f 1194/8/4 1193/8/4 1195/8/4
f 1196/8/4 1197/8/4 1198/8/4
f 1198/8/4 1197/8/4 1199/8/4
f 1200/8/4 1201/8/4 1202/8/4
f 1202/8/4 1201/8/4 1203/8/4
f 1204/8/4 1205/8/4 1206/8/4
f 1206/8/4 1205/8/4 1207/8/4
f 1208/8/4 1209/8/4 1210/8/4
f 1210/8/4 1209/8/4 1211/8/4
f 1212/8/4 1213/8/4 1214/8/4
f 1214/8/4 1213/8/4 1215/8/4
f 1216/8/4 1217/8/4 1218/8/4
f 1218/8/4 1217/8/4 1219/8/4
f 1220/7/4 1221/7/4 1222/7/4
f 1222/7/4 1221/7/4 1223/7/4
f 1220/7/4 1222/7/4 1224/7/4
f 1224/7/4 1222/7/4 1225/7/4
f 1226/7/4 1227/7/4 1229/7/4
f 1229/7/4 1227/7/4 1230/7/4
f 1228/7/4 1229/7/4 1230/7/4
f 1230/7/4 1227/7/4 1231/7/4
f 1228/7/4 1230/7/4 1232/7/4
f 1232/7/4 1230/7/4 1233/7/4
f 1234/6/4 1235/6/4 1236/6/4
f 1236/6/4 1235/6/4 1237/6/4
f 1237/6/4 1235/6/4 1238/6/4
f 1239/6/4 1240/6/4 1242/6/4
f 1240/6/4 1241/6/4 1242/6/4
f 1242/6/4 1241/6/4 1243/6/4
f 1244/6/4 1245/6/4 1246/6/4
f 1246/6/4 1245/6/4 1247/6/4
f 1247/6/4 1248/6/4 1249/6/4
f 1249/6/4 1248/6/4 1250/6/4
f 1250/6/4 1248/6/4 1251/6/4
f 1249/6/4 1250/6/4 1252/6/4
f 1252/6/4 1250/6/4 1253/6/4
f 1254/6/4 1255/6/4 1257/6/4
f 1255/6/4 1256/6/4 1257/6/4
f 1257/6/4 1256/6/4 1258/6/4
f 1254/6/4 1257/6/4 1260/6/4
f 1260/6/4 1257/6/4 1261/6/4
f 1259/7/4 1260/7/4 1262/7/4
f 1262/7/4 1260/7/4 1263/7/4
f 1264/8/4 1265/8/4 1266/8/4
f 1266/8/4 1265/8/4 1267/8/4
f 1268/8/4 1269/8/4 1270/8/4
f 1270/8/4 1269/8/4 1271/8/4
f 1272/8/4 1273/8/4 1274/8/4
f 1274/8/4 1273/8/4 1275/8/4
f 1276/8/4 1277/8/4 1278/8/4
f 1278/8/4 1277/8/4 1279/8/4
f 1280/7/4 1281/7/4 1282/7/4
f 1282/7/4 1281/7/4 1283/7/4
f 1284/7/4 1285/7/4 1287/7/4
f 1286/7/4 1287/7/4 1289/7/4
f 1287/7/4 1285/7/4 1290/7/4
f 1289/7/4 1287/7/4 1290/7/4
f 1288/7/4 1289/7/4 1291/7/4
f 1291/7/4 1289/7/4 1292/7/4
f 1293/7/4 1294/7/4 1295/7/4
f 1295/7/4 1296/7/4 1297/7/4
f 1295/7/4 1297/7/4 1299/7/4
f 1297/7/4 1298/7/4 1299/7/4
f 1299/7/4 1298/7/4 1300/7/4
f 1293/7/4 1295/7/4 1301/7/4
f 1295/7/4 1299/7/4 1301/7/4
f 1301/7/4 1299/7/4 1302/7/4
f 1302/7/4 1299/7/4 1303/7/4
f 1301/8/4 1302/8/4 1304/8/4
f 1304/8/4 1302/8/4 1305/8/4
f 1306/8/4 1307/8/4 1308/8/4
f 1308/8/4 1307/8/4 1309/8/4
f 1310/7/4 1311/7/4 1312/7/4
f 1312/6/4 1313/6/4 1314/6/4
f 1314/6/4 1313/6/4 1315/6/4
f 1312/6/4 1314/6/4 1316/6/4
f 1316/6/4 1314/6/4 1317/6/4
f 1310/7/4 1312/7/4 1318/7/4
f 1312/6/4 1316/6/4 1319/6/4
f 1318/7/4 1312/7/4 1319/7/4
f 1319/6/4 1316/6/4 1320/6/4
f 1310/7/4 1318/7/4 1321/7/4
f 1321/7/4 1318/7/4 1322/7/4
f 1310/7/4 1321/7/4 1323/7/4
f 1323/7/4 1321/7/4 1324/7/4
f 1332/8/5 1326/8/5 1325/8/5
f 1333/8/5 1326/8/5 1332/8/5
f 1336/8/5 1328/8/5 1327/8/5
f 1337/8/5 1328/8/5 1336/8/5
f 1340/8/5 1330/8/5 1329/8/5
f 1341/8/5 1330/8/5 1340/8/5
f 1343/8/5 1334/8/5 1333/8/5
f 1343/8/5 1332/8/5 1331/8/5
f 1343/8/5 1333/8/5 1332/8/5
f 1344/8/5 1334/8/5 1343/8/5
f 1345/8/5 1334/8/5 1344/8/5
f 1346/8/5 1334/8/5 1345/8/5
f 1347/8/5 1338/8/5 1337/8/5
f 1347/8/5 1336/8/5 1335/8/5
f 1347/8/5 1337/8/5 1336/8/5
f 1348/8/5 1338/8/5 1347/8/5
f 1349/8/5 1338/8/5 1348/8/5
f 1350/8/5 1338/8/5 1349/8/5
f 1351/8/5 1342/8/5 1341/8/5
f 1351/8/5 1341/8/5 1340/8/5
f 1351/8/5 1340/8/5 1339/8/5
f 1352/8/5 1342/8/5 1351/8/5
f 1353/8/5 1342/8/5 1352/8/5
f 1354/8/5 1342/8/5 1353/8/5
f 1355/8/5 1345/8/5 1344/8/5
f 1356/8/5 1345/8/5 1355/8/5
f 1357/8/5 1349/8/5 1348/8/5
f 1358/8/5 1349/8/5 1357/8/5
f 1359/8/5 1353/8/5 1352/8/5
f 1360/8/5 1353/8/5 1359/8/5
f 1368/8/5 1362/8/5 1361/8/5
f 1369/8/5 1362/8/5 1368/8/5
f 1372/8/5 1364/8/5 1363/8/5
f 1373/8/5 1364/8/5 1372/8/5
f 1376/8/5 1366/8/5 1365/8/5
f 1377/8/5 1366/8/5 1376/8/5
f 1379/8/5 1370/8/5 1369/8/5
f 1379/8/5 1368/8/5 1367/8/5
f 1379/8/5 1369/8/5 1368/8/5
f 1380/8/5 1370/8/5 1379/8/5
f 1381/8/5 1370/8/5 1380/8/5
f 1382/8/5 1370/8/5 1381/8/5
f 1383/8/5 1374/8/5 1373/8/5
f 1383/8/5 1372/8/5 1371/8/5
f 1383/8/5 1373/8/5 1372/8/5
f 1384/8/5 1374/8/5 1383/8/5
f 1385/8/5 1374/8/5 1384/8/5
f 1386/8/5 1374/8/5 1385/8/5
f 1387/8/5 1377/8/5 1376/8/5
f 1387/8/5 1378/8/5 1377/8/5
f 1387/8/5 1376/8/5 1375/8/5
f 1388/8/5 1378/8/5 1387/8/5
f 1389/8/5 1378/8/5 1388/8/5
f 1390/8/5 1378/8/5 1389/8/5
f 1391/8/5 1381/8/5 1380/8/5
f 1392/8/5 1381/8/5 1391/8/5
f 1393/8/5 1385/8/5 1384/8/5
f 1394/8/5 1385/8/5 1393/8/5
f 1395/8/5 1389/8/5 1388/8/5
f 1396/8/5 1389/8/5 1395/8/5
f 1404/8/5 1398/8/5 1397/8/5
f 1405/8/5 1398/8/5 1404/8/5
f 1408/8/5 1400/8/5 1399/8/5
f 1409/8/5 1400/8/5 1408/8/5
f 1412/8/5 1402/8/5 1401/8/5
f 1413/8/5 1402/8/5 1412/8/5
f 1415/8/5 1413/8/5 1412/8/5
f 1415/8/5 1414/8/5 1413/8/5
f 1415/8/5 1412/8/5 1411/8/5
f 1416/8/5 1414/8/5 1415/8/5
f 1417/8/5 1406/8/5 1405/8/5
f 1417/8/5 1404/8/5 1403/8/5
f 1417/8/5 1405/8/5 1404/8/5
f 1418/8/5 1406/8/5 1417/8/5
f 1419/8/5 1406/8/5 1418/8/5
f 1420/8/5 1406/8/5 1419/8/5
f 1421/8/5 1419/8/5 1418/8/5
f 1422/7/5 1420/7/5 1419/7/5
f 1422/8/5 1419/8/5 1421/8/5
f 1423/8/5 1406/8/5 1420/8/5
f 1423/7/5 1420/7/5 1422/7/5
f 1424/8/5 1406/8/5 1423/8/5
f 1425/8/5 1417/8/5 1403/8/5
f 1426/7/5 1418/7/5 1417/7/5
f 1426/8/5 1417/8/5 1425/8/5
f 1427/8/5 1421/8/5 1418/8/5
f 1427/7/5 1418/7/5 1426/7/5
f 1428/7/5 1422/7/5 1421/7/5
f 1428/8/5 1421/8/5 1427/8/5
f 1428/7/5 1423/7/5 1422/7/5
f 1428/7/5 1424/7/5 1423/7/5
f 1429/8/5 1406/8/5 1424/8/5
f 1430/8/5 1406/8/5 1429/8/5
f 1431/8/5 1410/8/5 1409/8/5
f 1431/8/5 1408/8/5 1407/8/5
f 1431/8/5 1409/8/5 1408/8/5
f 1432/8/5 1410/8/5 1431/8/5
f 1433/8/5 1410/8/5 1432/8/5
f 1434/8/5 1410/8/5 1433/8/5
f 1435/7/5 1416/7/5 1415/7/5
f 1436/7/5 1416/7/5 1435/7/5
f 1437/7/5 1416/7/5 1436/7/5
f 1438/7/5 1416/7/5 1437/7/5
f 1439/7/5 1428/7/5 1427/7/5
f 1439/7/5 1427/7/5 1426/7/5
f 1440/8/5 1429/8/5 1424/8/5
f 1440/7/5 1428/7/5 1439/7/5
f 1440/7/5 1424/7/5 1428/7/5
f 1441/8/5 1429/8/5 1440/8/5
f 1442/8/5 1433/8/5 1432/8/5
f 1443/8/5 1433/8/5 1442/8/5
f 1444/7/5 1437/7/5 1436/7/5
f 1445/7/5 1437/7/5 1444/7/5
f 1448/4/5 1447/4/5 1446/4/5
f 1449/4/5 1447/4/5 1448/4/5
f 1456/5/5 1451/5/5 1450/5/5
f 1457/5/5 1451/5/5 1456/5/5
f 1458/5/5 1451/5/5 1457/5/5
f 1459/5/5 1451/5/5 1458/5/5
f 1460/1/5 1453/1/5 1452/1/5
f 1461/1/5 1453/1/5 1460/1/5
f 1464/1/5 1453/1/5 1461/1/5
f 1465/1/5 1453/1/5 1464/1/5
f 1466/1/5 1455/1/5 1454/1/5
f 1467/1/5 1455/1/5 1466/1/5
f 1468/6/5 1463/6/5 1462/6/5
f 1469/6/5 1463/6/5 1468/6/5
f 1470/6/5 1469/6/5 1468/6/5
f 1471/6/5 1469/6/5 1470/6/5
f 1476/6/5 1471/6/5 1470/6/5
f 1477/6/5 1471/6/5 1476/6/5
f 1478/1/5 1473/1/5 1472/1/5
f 1481/1/5 1473/1/5 1478/1/5
f 1482/1/5 1473/1/5 1481/1/5
f 1483/1/5 1475/1/5 1474/1/5
f 1484/1/5 1475/1/5 1483/1/5
f 1485/9/5 1480/9/5 1479/9/5
f 1486/9/5 1480/9/5 1485/9/5
f 1489/7/5 1488/7/5 1487/7/5
f 1491/7/5 1489/7/5 1487/7/5
f 1491/7/5 1490/7/5 1489/7/5
f 1492/7/5 1490/7/5 1491/7/5
f 1493/7/5 1490/7/5 1492/7/5
f 1494/7/5 1490/7/5 1493/7/5
f 1497/4/5 1496/4/5 1495/4/5
f 1498/4/5 1496/4/5 1497/4/5
f 1499/4/5 1496/4/5 1498/4/5
f 1500/4/5 1496/4/5 1499/4/5
f 1504/6/5 1502/6/5 1501/6/5
f 1505/6/5 1502/6/5 1504/6/5
f 1508/6/5 1504/6/5 1503/6/5
f 1509/6/5 1504/6/5 1508/6/5
f 1510/6/5 1506/6/5 1505/6/5
f 1511/6/5 1506/6/5 1510/6/5
f 1513/6/5 1508/6/5 1507/6/5
f 1514/6/5 1508/6/5 1513/6/5
f 1517/6/5 1512/6/5 1511/6/5
f 1518/6/5 1512/6/5 1517/6/5
f 1519/6/5 1515/6/5 1514/6/5
f 1520/6/5 1515/6/5 1519/6/5
f 1521/6/5 1517/6/5 1516/6/5
f 1522/6/5 1517/6/5 1521/6/5
f 1523/6/5 1521/6/5 1520/6/5
f 1524/6/5 1521/6/5 1523/6/5
f 1525/4/5 1497/4/5 1495/4/5
f 1526/4/5 1499/4/5 1498/4/5
f 1527/4/5 1499/4/5 1526/4/5
f 1528/4/5 1496/4/5 1500/4/5
f 1529/4/5 1527/4/5 1526/4/5
f 1529/4/5 1528/4/5 1527/4/5
f 1529/4/5 1525/4/5 1495/4/5
f 1529/4/5 1526/4/5 1525/4/5
f 1530/4/5 1528/4/5 1529/4/5
f 1531/4/5 1496/4/5 1528/4/5
f 1531/4/5 1528/4/5 1530/4/5
f 1532/4/5 1496/4/5 1531/4/5
f 1533/4/5 1531/4/5 1530/4/5
f 1534/4/5 1531/4/5 1533/4/5
f 1537/7/5 1536/7/5 1535/7/5
f 1538/7/5 1536/7/5 1537/7/5
f 1543/4/5 1540/4/5 1539/4/5
f 1544/4/5 1540/4/5 1543/4/5
f 1545/4/5 1542/4/5 1541/4/5
f 1546/4/5 1542/4/5 1545/4/5
f 1547/1/5 1544/1/5 1543/1/5
f 1548/1/5 1544/1/5 1547/1/5
f 1549/1/5 1546/1/5 1545/1/5
f 1550/1/5 1546/1/5 1549/1/5
f 1551/4/5 1548/4/5 1547/4/5
f 1552/4/5 1548/4/5 1551/4/5
f 1553/4/5 1550/4/5 1549/4/5
f 1554/4/5 1550/4/5 1553/4/5
f 1555/1/5 1552/1/5 1551/1/5
f 1556/1/5 1552/1/5 1555/1/5
f 1557/1/5 1554/1/5 1553/1/5
f 1558/1/5 1554/1/5 1557/1/5
f 1559/4/5 1556/4/5 1555/4/5
f 1560/4/5 1556/4/5 1559/4/5
f 1561/4/5 1558/4/5 1557/4/5
f 1562/4/5 1558/4/5 1561/4/5
f 1565/6/5 1564/6/5 1563/6/5
f 1566/6/5 1564/6/5 1565/6/5
f 1568/6/5 1565/6/5 1563/6/5
f 1569/6/5 1565/6/5 1568/6/5
f 1570/6/5 1568/6/5 1567/6/5
f 1571/6/5 1568/6/5 1570/6/5
f 1574/6/5 1573/6/5 1572/6/5
f 1575/6/5 1573/6/5 1574/6/5
f 1578/6/5 1577/6/5 1576/6/5
f 1579/6/5 1577/6/5 1578/6/5
f 1582/6/5 1581/6/5 1580/6/5
f 1583/6/5 1581/6/5 1582/6/5
f 1584/8/6 1585/8/6 1591/8/6
f 1591/8/6 1585/8/6 1592/8/6
f 1586/8/6 1587/8/6 1595/8/6
f 1595/8/6 1587/8/6 1596/8/6
f 1588/8/6 1589/8/6 1599/8/6
f 1599/8/6 1589/8/6 1600/8/6
f 1600/8/6 1589/8/6 1601/8/6
f 1601/8/6 1589/8/6 1602/8/6
f 1598/8/6 1599/8/6 1604/8/6
f 1599/8/6 1600/8/6 1604/8/6
f 1602/8/6 1603/8/6 1605/8/6
f 1601/8/6 1602/8/6 1605/8/6
f 1596/8/6 1597/8/6 1606/8/6
f 1594/8/6 1595/8/6 1606/8/6
f 1595/8/6 1596/8/6 1606/8/6
f 1606/8/6 1597/8/6 1607/8/6
f 1592/8/6 1593/8/6 1608/8/6
f 1590/8/6 1591/8/6 1608/8/6
f 1591/8/6 1592/8/6 1608/8/6
f 1608/8/6 1593/8/6 1609/8/6
f 1594/8/6 1606/8/6 1610/8/6
f 1610/8/6 1606/8/6 1611/8/6
f 1609/8/6 1593/8/6 1612/8/6
f 1612/8/6 1593/8/6 1613/8/6
f 1607/8/6 1597/8/6 1615/8/6
f 1613/8/6 1593/8/6 1616/8/6
f 1616/8/6 1593/8/6 1617/8/6
f 1594/8/6 1610/8/6 1618/8/6
f 1618/8/6 1610/8/6 1619/8/6
f 1604/8/6 1605/8/6 1620/8/6
f 1598/8/6 1604/8/6 1620/8/6
f 1605/8/6 1603/8/6 1621/8/6
f 1620/8/6 1605/8/6 1621/8/6
f 1621/8/6 1603/8/6 1622/8/6
f 1622/8/6 1603/8/6 1623/8/6
f 1623/8/6 1603/8/6 1624/8/6
f 1624/8/6 1603/8/6 1625/8/6
f 1614/8/6 1615/8/6 1627/8/6
f 1598/8/6 1620/8/6 1628/8/6
f 1621/8/6 1622/8/6 1629/8/6
f 1629/8/6 1622/8/6 1630/8/6
f 1623/8/6 1624/8/6 1631/8/6
f 1631/8/6 1624/8/6 1632/8/6
f 1625/8/6 1603/8/6 1633/8/6
f 1626/8/6 1627/8/6 1639/8/6
f 1634/8/6 1635/8/6 1641/8/6
f 1640/8/6 1641/8/6 1643/8/6
f 1636/8/6 1637/8/6 1644/8/6
f 1638/8/6 1639/8/6 1645/8/6
f 1642/8/6 1643/8/6 1646/8/6
f 1643/8/6 1641/8/6 1647/8/6
f 1646/8/6 1643/8/6 1647/8/6
f 1641/8/6 1635/8/6 1648/8/6
f 1647/8/6 1641/8/6 1648/8/6
f 1648/8/6 1635/8/6 1649/8/6
f 1644/8/6 1645/8/6 1650/8/6
f 1636/8/6 1644/8/6 1650/8/6
f 1650/8/6 1645/8/6 1651/8/6
f 1615/8/6 1597/8/6 1652/8/6
f 1651/8/6 1645/8/6 1652/8/6
f 1627/8/6 1615/8/6 1652/8/6
f 1639/8/6 1627/8/6 1652/8/6
f 1645/8/6 1639/8/6 1652/8/6
f 1652/8/6 1597/8/6 1653/8/6
f 1631/8/6 1632/8/6 1654/8/6
f 1598/8/6 1628/8/6 1654/8/6
f 1629/8/6 1630/8/6 1654/8/6
f 1628/8/6 1629/8/6 1654/8/6
f 1630/8/6 1631/8/6 1654/8/6
f 1632/8/6 1633/8/6 1654/8/6
f 1654/8/6 1633/8/6 1655/8/6
f 1633/8/6 1603/8/6 1656/8/6
f 1655/8/6 1633/8/6 1656/8/6
f 1656/8/6 1603/8/6 1657/8/6
f 1647/8/6 1648/8/6 1658/8/6
f 1658/8/6 1648/8/6 1659/8/6
f 1651/8/6 1652/8/6 1660/8/6
f 1660/8/6 1652/8/6 1661/8/6
f 1655/8/6 1656/8/6 1662/8/6
f 1662/8/6 1656/8/6 1663/8/6
f 1664/8/6 1665/8/6 1671/8/6
f 1671/8/6 1665/8/6 1672/8/6
f 1666/8/6 1667/8/6 1675/8/6
f 1675/8/6 1667/8/6 1676/8/6
f 1668/8/6 1669/8/6 1679/8/6
f 1679/8/6 1669/8/6 1680/8/6
f 1672/8/6 1673/8/6 1682/8/6
f 1670/8/6 1671/8/6 1682/8/6
f 1671/8/6 1672/8/6 1682/8/6
f 1682/8/6 1673/8/6 1683/8/6
f 1683/8/6 1673/8/6 1684/8/6
f 1684/8/6 1673/8/6 1685/8/6
f 1676/8/6 1677/8/6 1686/8/6
f 1674/8/6 1675/8/6 1686/8/6
f 1675/8/6 1676/8/6 1686/8/6
f 1686/8/6 1677/8/6 1687/8/6
f 1687/8/6 1677/8/6 1688/8/6
f 1688/8/6 1677/8/6 1689/8/6
f 1679/8/6 1680/8/6 1690/8/6
f 1680/8/6 1681/8/6 1690/8/6
f 1678/8/6 1679/8/6 1690/8/6
f 1690/8/6 1681/8/6 1691/8/6
f 1691/8/6 1681/8/6 1692/8/6
f 1692/8/6 1681/8/6 1693/8/6
f 1683/8/6 1684/8/6 1694/8/6
f 1694/8/6 1684/8/6 1695/8/6
f 1687/8/6 1688/8/6 1696/8/6
f 1696/8/6 1688/8/6 1697/8/6
f 1691/8/6 1692/8/6 1698/8/6
f 1698/8/6 1692/8/6 1699/8/6
f 1700/8/6 1701/8/6 1707/8/6
f 1707/8/6 1701/8/6 1708/8/6
f 1702/8/6 1703/8/6 1711/8/6
f 1711/8/6 1703/8/6 1712/8/6
f 1704/8/6 1705/8/6 1715/8/6
f 1715/8/6 1705/8/6 1716/8/6
f 1715/8/6 1716/8/6 1718/8/6
f 1716/8/6 1717/8/6 1718/8/6
f 1714/8/6 1715/8/6 1718/8/6
f 1718/8/6 1717/8/6 1719/8/6
f 1714/8/6 1718/8/6 1720/8/6
f 1720/8/6 1718/8/6 1721/8/6
f 1708/8/6 1709/8/6 1722/8/6
f 1706/8/6 1707/8/6 1722/8/6
f 1707/8/6 1708/8/6 1722/8/6
f 1722/8/6 1709/8/6 1723/8/6
f 1723/8/6 1709/8/6 1724/8/6
f 1706/8/6 1722/8/6 1725/8/6
f 1722/7/6 1723/7/6 1726/7/6
f 1725/8/6 1722/8/6 1726/8/6
f 1724/8/6 1709/8/6 1727/8/6
f 1727/8/6 1709/8/6 1728/8/6
f 1712/8/6 1713/8/6 1729/8/6
f 1710/8/6 1711/8/6 1729/8/6
f 1711/8/6 1712/8/6 1729/8/6
f 1729/8/6 1713/8/6 1730/8/6
f 1730/8/6 1713/8/6 1731/8/6
f 1731/8/6 1713/8/6 1732/8/6
f 1726/7/6 1723/7/6 1733/7/6
f 1733/7/6 1723/7/6 1734/7/6
f 1724/8/6 1727/8/6 1735/8/6
f 1735/8/6 1727/8/6 1736/8/6
f 1730/8/6 1731/8/6 1737/8/6
f 1737/8/6 1731/8/6 1738/8/6
f 1739/9/6 1740/9/6 1741/9/6
f 1741/9/6 1740/9/6 1742/9/6
f 1743/4/6 1744/4/6 1747/4/6
f 1745/4/6 1746/4/6 1749/4/6
f 1745/4/6 1749/4/6 1754/4/6
f 1749/4/6 1750/4/6 1754/4/6
f 1753/4/6 1754/4/6 1757/4/6
f 1754/4/6 1750/4/6 1757/4/6
f 1757/4/6 1750/4/6 1758/4/6
f 1755/9/6 1756/9/6 1759/9/6
f 1759/9/6 1756/9/6 1760/9/6
f 1751/4/6 1752/4/6 1761/4/6
f 1761/4/6 1752/4/6 1762/4/6
f 1753/4/6 1757/4/6 1763/4/6
f 1763/4/6 1757/4/6 1764/4/6
f 1764/4/6 1757/4/6 1765/4/6
f 1765/4/6 1757/4/6 1766/4/6
f 1747/4/6 1748/4/6 1767/4/6
f 1743/4/6 1747/4/6 1767/4/6
f 1767/4/6 1748/4/6 1768/4/6
f 1743/4/6 1767/4/6 1769/4/6
f 1769/4/6 1767/4/6 1770/4/6
f 1764/4/6 1765/4/6 1771/4/6
f 1771/4/6 1765/4/6 1772/4/6
f 1773/7/6 1774/7/6 1775/7/6
f 1775/7/6 1774/7/6 1776/7/6
f 1773/7/6 1775/7/6 1778/7/6
f 1778/7/6 1775/7/6 1779/7/6
f 1779/7/6 1775/7/6 1780/7/6
f 1777/7/6 1778/7/6 1781/7/6
f 1778/7/6 1779/7/6 1781/7/6
f 1781/7/6 1779/7/6 1782/7/6
f 1776/7/6 1774/7/6 1783/7/6
f 1783/7/6 1774/7/6 1784/7/6
f 1777/7/6 1781/7/6 1785/7/6
f 1785/7/6 1781/7/6 1786/7/6
f 1787/7/6 1788/7/6 1789/7/6
f 1789/7/6 1788/7/6 1790/7/6
f 1791/7/6 1792/7/6 1794/7/6
f 1794/7/6 1792/7/6 1795/7/6
f 1787/7/6 1789/7/6 1796/7/6
f 1796/7/6 1789/7/6 1797/7/6
f 1790/7/6 1788/7/6 1798/7/6
f 1798/7/6 1788/7/6 1799/7/6
f 1793/7/6 1794/7/6 1800/7/6
f 1800/7/6 1794/7/6 1801/7/6
f 1802/5/6 1803/5/6 1804/5/6
f 1802/5/6 1804/5/6 1806/5/6
f 1804/5/6 1805/5/6 1806/5/6
f 1806/5/6 1805/5/6 1807/5/6
f 1808/9/6 1809/9/6 1810/9/6
f 1810/9/6 1809/9/6 1811/9/6
f 1812/7/6 1813/7/6 1816/7/6
f 1816/7/6 1813/7/6 1817/7/6
f 1814/7/6 1815/7/6 1820/7/6
f 1820/7/6 1815/7/6 1821/7/6
f 1818/7/6 1819/7/6 1822/7/6
f 1822/7/6 1819/7/6 1823/7/6
f 1824/5/6 1825/5/6 1826/5/6
f 1826/5/6 1825/5/6 1827/5/6
f 1828/6/6 1829/6/6 1831/6/6
f 1831/6/6 1829/6/6 1832/6/6
f 1830/6/6 1831/6/6 1835/6/6
f 1835/6/6 1831/6/6 1836/6/6
f 1832/6/6 1833/6/6 1837/6/6
f 1837/6/6 1833/6/6 1838/6/6
f 1834/6/6 1835/6/6 1840/6/6
f 1840/6/6 1835/6/6 1841/6/6
f 1838/6/6 1839/6/6 1844/6/6
f 1844/6/6 1839/6/6 1845/6/6
f 1841/6/6 1842/6/6 1846/6/6
f 1846/6/6 1842/6/6 1847/6/6
f 1843/6/6 1844/6/6 1848/6/6
f 1848/6/6 1844/6/6 1849/6/6
f 1847/6/6 1848/6/6 1850/6/6
f 1850/6/6 1848/6/6 1851/6/6
f 1852/7/6 1853/7/6 1854/7/6
f 1854/7/6 1853/7/6 1855/7/6
f 1852/7/6 1854/7/6 1860/7/6
f 1860/7/6 1854/7/6 1861/7/6
f 1858/7/6 1859/7/6 1862/7/6
f 1862/7/6 1859/7/6 1863/7/6
f 1856/7/6 1857/7/6 1864/7/6
f 1864/7/6 1857/7/6 1865/7/6
f 1866/7/6 1867/7/6 1871/7/6
f 1871/7/6 1867/7/6 1872/7/6
f 1870/7/6 1871/7/6 1873/7/6
f 1873/7/6 1871/7/6 1874/7/6
f 1868/7/6 1869/7/6 1875/7/6
f 1875/7/6 1869/7/6 1876/7/6
f 1877/6/6 1878/6/6 1880/6/6
f 1880/6/6 1878/6/6 1881/6/6
f 1879/6/6 1880/6/6 1883/6/6
f 1883/6/6 1880/6/6 1884/6/6
f 1881/6/6 1882/6/6 1885/6/6
f 1885/6/6 1882/6/6 1886/6/6
f 1884/6/6 1885/6/6 1887/6/6
f 1887/6/6 1885/6/6 1888/6/6
f 1889/7/6 1890/7/6 1891/7/6
f 1891/7/6 1890/7/6 1892/7/6
f 1893/6/6 1894/6/6 1895/6/6
f 1895/6/6 1894/6/6 1896/6/6
f 1897/4/6 1898/4/6 1899/4/6
f 1899/4/6 1898/4/6 1900/4/6
f 1901/6/6 1902/6/6 1903/6/6
f 1904/6/6 1905/6/6 1906/6/6
f 1906/6/6 1905/6/6 1907/6/6
f 1901/6/6 1903/6/6 1910/6/6
f 1908/6/6 1909/6/6 1911/6/6
f 1911/6/6 1909/6/6 1912/6/6
f 1901/6/6 1910/6/6 1913/6/6
f 1913/6/6 1910/6/6 1914/6/6
f 1917/6/6 1918/6/6 1919/6/6
f 1917/6/6 1919/6/6 1920/6/6
f 1917/6/6 1920/6/6 1921/6/6
f 1921/6/6 1920/6/6 1922/6/6
f 1915/6/6 1916/6/6 1923/6/6
f 1923/6/6 1916/6/6 1924/6/6
f 1925/4/6 1926/4/6 1929/4/6
f 1929/4/6 1926/4/6 1930/4/6
f 1927/4/6 1928/4/6 1931/4/6
f 1931/4/6 1928/4/6 1932/4/6
f 1933/6/6 1934/6/6 1935/6/6
f 1935/6/6 1934/6/6 1936/6/6
f 1937/6/6 1938/6/6 1939/6/6
f 1939/6/6 1938/6/6 1940/6/6
f 1941/6/6 1942/6/6 1944/6/6
f 1944/6/6 1942/6/6 1945/6/6
f 1943/6/6 1944/6/6 1946/6/6
f 1946/6/6 1944/6/6 1947/6/6
f 1947/6/6 1948/6/6 1949/6/6
f 1949/6/6 1948/6/6 1950/6/6
f 1951/6/6 1952/6/6 1953/6/6
f 1953/6/6 1952/6/6 1954/6/6
f 1955/6/6 1956/6/6 1957/6/6
f 1957/6/6 1956/6/6 1958/6/6
f 1959/4/6 1960/4/6 1961/4/6
f 1961/4/6 1960/4/6 1962/4/6
f 1962/4/6 1960/4/6 1963/4/6
f 1963/4/6 1960/4/6 1964/4/6
f 1962/4/6 1963/4/6 1966/4/6
f 1966/4/6 1963/4/6 1967/4/6
f 1965/4/6 1966/4/6 1969/4/6
f 1967/4/6 1968/4/6 1969/4/6
f 1966/4/6 1967/4/6 1969/4/6
f 1969/4/6 1968/4/6 1970/4/6
f 1971/6/6 1972/6/6 1973/6/6
f 1971/6/6 1973/6/6 1975/6/6
f 1973/6/6 1974/6/6 1975/6/6
f 1975/6/6 1974/6/6 1976/6/6
f 1971/6/6 1975/6/6 1977/6/6
f 1977/6/6 1975/6/6 1978/6/6
f 1979/4/6 1980/4/6 1983/4/6
f 1983/4/6 1980/4/6 1984/4/6
f 1981/4/6 1982/4/6 1985/4/6
f 1985/4/6 1982/4/6 1986/4/6
f 1987/4/6 1988/4/6 1991/4/6
f 1991/4/6 1988/4/6 1992/4/6
f 1989/4/6 1990/4/6 1993/4/6
f 1993/4/6 1990/4/6 1994/4/6
