# MagicaVoxel @ Ephtracy

# group
o 

# material
mtllib chapter_four_tile.mtl
usemtl palette

# normals
vn -1 0 0
vn 1 0 0
vn 0 0 1
vn 0 0 -1
vn 0 -1 0
vn 0 1 0

# texcoords
vt 0.517578 0.5
vt 0.556641 0.5
vt 0.677734 0.5
vt 0.681641 0.5
vt 0.892578 0.5
vt 0.916016 0.5
vt 0.958984 0.5
vt 0.962891 0.5
vt 0.990234 0.5

# verts
v -1.9 0.3 1.8
v -1.9 0.3 0.8
v -1.9 0.3 0.5
v -1.9 0.3 -0.5
v -1.9 0.3 -0.8
v -1.9 0.3 -1.8
v -1.9 0.5 1.8
v -1.9 0.5 0.8
v -1.9 0.5 0.5
v -1.9 0.5 -0.5
v -1.9 0.5 -0.8
v -1.9 0.5 -1.8
v -1.9 0.6 -1.5
v -1.9 0.6 -1.7
v -1.9 0.8 -1.5
v -1.9 0.8 -1.7
v -1.8 0.3 1.9
v -1.8 0.3 1.8
v -1.8 0.3 0.8
v -1.8 0.3 0.7
v -1.8 0.3 0.6
v -1.8 0.3 0.5
v -1.8 0.3 -0.5
v -1.8 0.3 -0.6
v -1.8 0.3 -0.7
v -1.8 0.3 -0.8
v -1.8 0.3 -1.8
v -1.8 0.3 -1.9
v -1.8 0.5 1.9
v -1.8 0.5 1.8
v -1.8 0.5 0.8
v -1.8 0.5 0.7
v -1.8 0.5 0.6
v -1.8 0.5 0.5
v -1.8 0.5 -0.5
v -1.8 0.5 -0.6
v -1.8 0.5 -0.7
v -1.8 0.5 -0.8
v -1.8 0.5 -1.8
v -1.8 0.5 -1.9
v -1.8 0.6 1.8
v -1.8 0.6 0.8
v -1.8 0.6 -1.3
v -1.8 0.6 -1.5
v -1.8 0.7 -1.4
v -1.8 0.7 -1.5
v -1.8 0.9 -1.3
v -1.8 0.9 -1.4
v -1.8 1 -1.3
v -1.8 1 -1.4
v -1.8 1.5 1.6
v -1.8 1.5 0.8
v -1.8 1.8 1.8
v -1.8 1.8 1.6
v -1.7 0.5 1.7
v -1.7 0.5 1.4
v -1.7 0.5 1.2
v -1.7 0.5 0.9
v -1.7 0.5 -1.5
v -1.7 0.5 -1.7
v -1.7 0.6 1.7
v -1.7 0.6 1.4
v -1.7 0.6 1.2
v -1.7 0.6 0.9
v -1.7 0.6 -1.5
v -1.7 0.6 -1.7
v -1.7 0.6 -1.9
v -1.7 0.7 -1.7
v -1.7 0.7 -1.8
v -1.7 0.9 -1.8
v -1.7 0.9 -1.9
v -1.7 1 -1.8
v -1.7 1 -1.9
v -1.6 0.7 -1.4
v -1.6 0.7 -1.7
v -1.6 0.8 -1.5
v -1.6 0.8 -1.7
v -1.6 0.9 -1.4
v -1.6 1 -1.3
v -1.6 1 -1.4
v -1.6 1.1 -1.4
v -1.6 1.1 -1.5
v -1.6 1.3 -1.3
v -1.6 1.3 -1.4
v -1.6 1.4 -1.3
v -1.6 1.4 -1.4
v -1.5 0.8 1.9
v -1.5 0.8 1.8
v -1.5 1 1.9
v -1.5 1 1.8
v -1.4 0.6 0.8
v -1.4 0.6 0.6
v -1.4 0.7 0.8
v -1.4 0.7 0.6
v -1.4 1 0.8
v -1.4 1 0.6
v -1.3 0.8 -1.5
v -1.3 0.8 -1.7
v -1.3 1 -1.5
v -1.3 1 -1.6
v -1.3 1 -1.7
v -1.3 1.1 -1.6
v -1.3 1.1 -1.7
v -1.1 0.5 1.7
v -1.1 0.5 1.4
v -1.1 0.5 1.2
v -1.1 0.5 0.9
v -1.1 0.6 1.7
v -1.1 0.6 1.4
v -1.1 0.6 1.2
v -1.1 0.6 0.9
v -1.1 1.5 1.8
v -1.1 1.5 1.6
v -1.1 1.7 1.8
v -1.1 1.7 1.6
v -1 1.7 1.8
v -1 1.7 1.6
v -1 1.8 1.8
v -1 1.8 1.6
v -0.6 0.3 1.8
v -0.6 0.3 0.8
v -0.6 0.3 0.5
v -0.6 0.3 -0.5
v -0.6 0.3 -0.8
v -0.6 0.3 -1.8
v -0.6 0.5 1.8
v -0.6 0.5 0.8
v -0.6 0.5 0.5
v -0.6 0.5 -0.5
v -0.6 0.5 -0.8
v -0.6 0.5 -1.8
v -0.5 0.3 1.9
v -0.5 0.3 1.8
v -0.5 0.3 0.8
v -0.5 0.3 0.7
v -0.5 0.3 0.6
v -0.5 0.3 0.5
v -0.5 0.3 -0.5
v -0.5 0.3 -0.6
v -0.5 0.3 -0.7
v -0.5 0.3 -0.8
v -0.5 0.3 -1.8
v -0.5 0.3 -1.9
v -0.5 0.5 1.9
v -0.5 0.5 1.8
v -0.5 0.5 0.8
v -0.5 0.5 0.7
v -0.5 0.5 0.6
v -0.5 0.5 0.5
v -0.5 0.5 -0.5
v -0.5 0.5 -0.6
v -0.5 0.5 -0.7
v -0.5 0.5 -0.8
v -0.5 0.5 -1.8
v -0.5 0.5 -1.9
v 0.7 0.3 1.8
v 0.7 0.3 0.8
v 0.7 0.3 0.5
v 0.7 0.3 -0.5
v 0.7 0.3 -0.8
v 0.7 0.3 -1.8
v 0.7 0.5 1.8
v 0.7 0.5 0.8
v 0.7 0.5 0.5
v 0.7 0.5 -0.5
v 0.7 0.5 -0.8
v 0.7 0.5 -1
v 0.7 0.6 -1
v 0.7 0.6 -1.8
v 0.7 0.8 -1
v 0.7 0.8 -1.8
v 0.7 0.9 -1
v 0.7 0.9 -1.8
v 0.8 0.3 1.9
v 0.8 0.3 1.8
v 0.8 0.3 0.8
v 0.8 0.3 0.7
v 0.8 0.3 0.6
v 0.8 0.3 0.5
v 0.8 0.3 -0.5
v 0.8 0.3 -0.6
v 0.8 0.3 -0.7
v 0.8 0.3 -0.8
v 0.8 0.3 -1.8
v 0.8 0.3 -1.9
v 0.8 0.5 1.9
v 0.8 0.5 1.8
v 0.8 0.5 0.8
v 0.8 0.5 0.7
v 0.8 0.5 0.6
v 0.8 0.5 0.5
v 0.8 0.5 -0.5
v 0.8 0.5 -0.6
v 0.8 0.5 -0.7
v 0.8 0.5 -0.8
v 0.8 0.6 -1.8
v 0.8 0.6 -1.9
v 0.8 0.8 -1.8
v 0.8 0.8 -1.9
v 0.8 0.9 -1
v 0.8 0.9 -1.8
v 0.8 0.9 -1.9
v 0.8 1 -1
v 0.8 1 -1.9
v 0.8 1.2 -1
v 0.8 1.2 -1.9
v 0.9 0.5 -0.8
v 0.9 0.5 -1
v 0.9 0.6 -1
v 0.9 0.7 -0.8
v 0.9 0.7 -1
v 0.9 0.8 -0.8
v 0.9 0.8 -1
v 0.9 0.9 -0.8
v 0.9 0.9 -1
v 0.9 1 -1
v 0.9 1.2 -0.8
v 0.9 1.2 -1
v 0.9 1.2 -1.9
v 0.9 1.4 -1
v 0.9 1.4 -1.9
v 1 0.5 1.8
v 1 0.5 1.7
v 1 0.5 -0.7
v 1 0.5 -0.8
v 1 0.7 1.8
v 1 0.7 1.7
v 1 0.7 -0.7
v 1 0.7 -0.8
v 1 0.8 -0.7
v 1 0.8 -0.8
v 1.1 0.8 -0.7
v 1.1 0.8 -0.8
v 1.1 0.9 -0.7
v 1.1 0.9 -0.8
v 1.1 1.1 -0.7
v 1.1 1.1 -0.8
v 1.2 0.5 1.8
v 1.2 0.5 1.7
v 1.2 0.6 1.8
v 1.2 0.6 1.7
v 1.2 1.4 -1.4
v 1.2 1.4 -1.9
v 1.2 1.6 -1.4
v 1.2 1.6 -1.9
v 1.3 0.5 1.6
v 1.3 0.5 1.5
v 1.3 0.7 1.6
v 1.3 0.7 1.5
v 1.3 0.8 -1.6
v 1.3 0.8 -1.7
v 1.3 0.9 -1.6
v 1.3 0.9 -1.7
v 1.4 1.4 -1.2
v 1.4 1.4 -1.4
v 1.4 1.6 -1.2
v 1.4 1.6 -1.4
v 1.5 0.5 1.4
v 1.5 0.5 1.3
v 1.5 0.5 0
v 1.5 0.5 -0.3
v 1.5 0.6 1.4
v 1.5 0.6 1.3
v 1.5 0.6 0
v 1.5 0.6 -0.3
v 1.5 0.8 0
v 1.5 0.8 -0.3
v 1.5 0.9 0
v 1.5 0.9 -0.3
v 1.5 1 0
v 1.5 1 -0.3
v 1.5 1 -0.4
v 1.5 1.1 -0.4
v 1.5 1.1 -0.7
v 1.5 1.1 -0.8
v 1.5 1.2 0
v 1.5 1.2 -0.8
v 1.6 0.5 1.7
v 1.6 0.5 1.6
v 1.6 0.7 1.7
v 1.6 0.7 1.6
v 1.7 0.5 1.2
v 1.7 0.5 1.1
v 1.7 0.5 0.2
v 1.7 0.5 0
v 1.7 0.6 0.2
v 1.7 0.6 0
v 1.7 0.8 1.2
v 1.7 0.8 1.1
v 1.7 0.8 0.2
v 1.7 0.8 0
v 1.7 0.8 -1.1
v 1.7 0.8 -1.3
v 1.7 0.9 0.2
v 1.7 0.9 0
v 1.7 0.9 -1
v 1.7 0.9 -1.1
v 1.7 0.9 -1.3
v 1.7 1 0.2
v 1.7 1 0
v 1.7 1 -1
v 1.7 1 -1.1
v 1.7 1.2 0.2
v 1.7 1.2 0
v 1.7 1.2 -1
v 1.7 1.4 0
v 1.7 1.4 -1
v 1.8 0.7 -1.2
v 1.8 0.7 -1.3
v 1.8 0.8 -1.2
v 1.8 0.8 -1.3
v 1.8 0.8 -1.6
v 1.8 0.9 -1.3
v 1.8 0.9 -1.6
v -1.8 0.7 -1.5
v -1.8 0.7 -1.7
v -1.8 0.8 -1.5
v -1.8 0.8 -1.7
v -1.7 0.9 -1.3
v -1.7 0.9 -1.4
v -1.7 1 -1.3
v -1.7 1 -1.4
v -1.6 0.6 -1.3
v -1.6 0.6 -1.5
v -1.6 0.7 -1.4
v -1.6 0.7 -1.5
v -1.6 0.9 -1.3
v -1.6 0.9 -1.4
v -1.6 0.9 -1.8
v -1.6 0.9 -1.9
v -1.6 1 -1.8
v -1.6 1 -1.9
v -1.6 1.7 1.8
v -1.6 1.7 1.6
v -1.6 1.8 1.8
v -1.6 1.8 1.6
v -1.5 0.5 1.7
v -1.5 0.5 1.4
v -1.5 0.5 1.2
v -1.5 0.5 0.9
v -1.5 0.5 -1.5
v -1.5 0.5 -1.7
v -1.5 0.6 1.7
v -1.5 0.6 1.4
v -1.5 0.6 1.2
v -1.5 0.6 0.9
v -1.5 0.6 -1.7
v -1.5 0.6 -1.9
v -1.5 0.7 -1.5
v -1.5 0.7 -1.7
v -1.5 0.7 -1.8
v -1.5 0.9 -1.8
v -1.5 0.9 -1.9
v -1.5 1.3 -1.3
v -1.5 1.3 -1.4
v -1.5 1.4 -1.3
v -1.5 1.4 -1.4
v -1.5 1.5 1.8
v -1.5 1.5 1.6
v -1.5 1.7 1.8
v -1.5 1.7 1.6
v -1.4 0.7 -1.4
v -1.4 0.7 -1.5
v -1.4 0.8 -1.5
v -1.4 1 -1.3
v -1.4 1 -1.4
v -1.4 1.1 -1.4
v -1.4 1.1 -1.5
v -1.4 1.3 -1.3
v -1.4 1.3 -1.4
v -1.2 0.6 0.8
v -1.2 0.6 0.6
v -1.2 0.7 0.8
v -1.2 0.7 0.6
v -1.2 0.7 -1.5
v -1.2 0.7 -1.7
v -1.2 1 0.8
v -1.2 1 0.6
v -1.2 1 -1.5
v -1.2 1 -1.6
v -1.2 1 -1.7
v -1.2 1.1 -1.6
v -1.2 1.1 -1.7
v -1.1 0.8 1.9
v -1.1 0.8 1.8
v -1.1 1 1.9
v -1.1 1 1.8
v -0.9 0.5 1.7
v -0.9 0.5 1.4
v -0.9 0.5 1.2
v -0.9 0.5 0.9
v -0.9 0.6 1.7
v -0.9 0.6 1.4
v -0.9 0.6 1.2
v -0.9 0.6 0.9
v -0.8 0.3 1.9
v -0.8 0.3 1.8
v -0.8 0.3 0.8
v -0.8 0.3 0.7
v -0.8 0.3 0.6
v -0.8 0.3 0.5
v -0.8 0.3 -0.5
v -0.8 0.3 -0.6
v -0.8 0.3 -0.7
v -0.8 0.3 -0.8
v -0.8 0.3 -1.8
v -0.8 0.3 -1.9
v -0.8 0.5 1.9
v -0.8 0.5 1.8
v -0.8 0.5 0.8
v -0.8 0.5 0.7
v -0.8 0.5 0.6
v -0.8 0.5 0.5
v -0.8 0.5 -0.5
v -0.8 0.5 -0.6
v -0.8 0.5 -0.7
v -0.8 0.5 -0.8
v -0.8 0.5 -1.8
v -0.8 0.5 -1.9
v -0.8 0.6 1.8
v -0.8 0.6 0.8
v -0.8 1.5 1.6
v -0.8 1.5 0.8
v -0.8 1.8 1.8
v -0.8 1.8 1.6
v -0.7 0.3 1.8
v -0.7 0.3 0.8
v -0.7 0.3 0.5
v -0.7 0.3 -0.5
v -0.7 0.3 -0.8
v -0.7 0.3 -1.8
v -0.7 0.5 1.8
v -0.7 0.5 0.8
v -0.7 0.5 0.5
v -0.7 0.5 -0.5
v -0.7 0.5 -0.8
v -0.7 0.5 -1.8
v 0.5 0.3 1.9
v 0.5 0.3 1.8
v 0.5 0.3 0.8
v 0.5 0.3 0.7
v 0.5 0.3 0.6
v 0.5 0.3 0.5
v 0.5 0.3 -0.5
v 0.5 0.3 -0.6
v 0.5 0.3 -0.7
v 0.5 0.3 -0.8
v 0.5 0.3 -1.8
v 0.5 0.3 -1.9
v 0.5 0.5 1.9
v 0.5 0.5 1.8
v 0.5 0.5 0.8
v 0.5 0.5 0.7
v 0.5 0.5 0.6
v 0.5 0.5 0.5
v 0.5 0.5 -0.5
v 0.5 0.5 -0.6
v 0.5 0.5 -0.7
v 0.5 0.5 -0.8
v 0.5 0.5 -1.8
v 0.5 0.5 -1.9
v 0.6 0.3 1.8
v 0.6 0.3 0.8
v 0.6 0.3 0.5
v 0.6 0.3 -0.5
v 0.6 0.3 -0.8
v 0.6 0.3 -1.8
v 0.6 0.5 1.8
v 0.6 0.5 0.8
v 0.6 0.5 0.5
v 0.6 0.5 -0.5
v 0.6 0.5 -0.8
v 0.6 0.5 -1.8
v 0.9 0.8 -1.2
v 0.9 0.8 -1.3
v 0.9 0.9 -1.2
v 0.9 0.9 -1.3
v 1 0.8 -1.3
v 1 0.8 -1.6
v 1 0.9 -1.3
v 1 0.9 -1.6
v 1.1 0.5 1.8
v 1.1 0.5 1.7
v 1.1 0.7 1.8
v 1.1 0.7 1.7
v 1.1 0.8 -1.6
v 1.1 0.8 -1.7
v 1.1 0.9 -1.6
v 1.1 0.9 -1.7
v 1.2 0.8 -1.1
v 1.2 0.8 -1.2
v 1.2 0.9 -1.1
v 1.2 0.9 -1.2
v 1.3 0.5 1.8
v 1.3 0.5 1.7
v 1.3 0.6 1.8
v 1.3 0.6 1.7
v 1.4 0.5 1.6
v 1.4 0.5 1.5
v 1.4 0.7 1.6
v 1.4 0.7 1.5
v 1.6 0.5 1.4
v 1.6 0.5 1.3
v 1.6 0.6 1.4
v 1.6 0.6 1.3
v 1.6 0.9 -1
v 1.6 0.9 -1.1
v 1.6 1 -1
v 1.6 1 -1.1
v 1.7 0.5 1.7
v 1.7 0.5 1.6
v 1.7 0.7 1.7
v 1.7 0.7 1.6
v 1.7 0.7 -1.2
v 1.7 0.7 -1.3
v 1.7 0.8 -1.2
v 1.7 0.8 -1.3
v 1.8 0.3 1.9
v 1.8 0.3 1.8
v 1.8 0.3 0.8
v 1.8 0.3 0.7
v 1.8 0.3 0.6
v 1.8 0.3 0.5
v 1.8 0.3 -0.5
v 1.8 0.3 -0.6
v 1.8 0.3 -0.7
v 1.8 0.3 -0.8
v 1.8 0.3 -1.8
v 1.8 0.3 -1.9
v 1.8 0.5 1.9
v 1.8 0.5 1.8
v 1.8 0.5 1.2
v 1.8 0.5 1.1
v 1.8 0.5 0.8
v 1.8 0.5 0.7
v 1.8 0.5 0.6
v 1.8 0.5 0.5
v 1.8 0.5 -0.5
v 1.8 0.5 -0.6
v 1.8 0.5 -0.7
v 1.8 0.5 -0.8
v 1.8 0.6 -1.8
v 1.8 0.6 -1.9
v 1.8 0.7 -0.7
v 1.8 0.7 -0.8
v 1.8 0.8 1.2
v 1.8 0.8 1.1
v 1.8 0.8 -0.7
v 1.8 0.8 -0.8
v 1.8 0.8 -1.8
v 1.8 0.8 -1.9
v 1.8 0.9 -0.7
v 1.8 0.9 -0.8
v 1.8 0.9 -1.8
v 1.8 0.9 -1.9
v 1.8 1 -1.8
v 1.8 1 -1.9
v 1.8 1.1 -0.7
v 1.8 1.1 -0.8
v 1.8 1.6 -1.8
v 1.8 1.6 -1.9
v 1.9 0.3 1.8
v 1.9 0.3 0.8
v 1.9 0.3 0.5
v 1.9 0.3 -0.5
v 1.9 0.3 -0.8
v 1.9 0.3 -1.8
v 1.9 0.5 1.8
v 1.9 0.5 0.8
v 1.9 0.5 0.5
v 1.9 0.5 0.2
v 1.9 0.5 -0.3
v 1.9 0.5 -0.5
v 1.9 0.5 -0.8
v 1.9 0.5 -1.1
v 1.9 0.6 0.2
v 1.9 0.6 -0.3
v 1.9 0.6 -1.1
v 1.9 0.6 -1.8
v 1.9 0.7 -0.8
v 1.9 0.7 -1.1
v 1.9 0.8 0.2
v 1.9 0.8 -0.3
v 1.9 0.8 -0.8
v 1.9 0.8 -1.1
v 1.9 0.9 0.2
v 1.9 0.9 -0.3
v 1.9 0.9 -0.8
v 1.9 0.9 -1.1
v 1.9 1 0.2
v 1.9 1 -0.3
v 1.9 1 -0.4
v 1.9 1 -1.1
v 1.9 1 -1.8
v 1.9 1.1 -0.4
v 1.9 1.1 -0.8
v 1.9 1.2 0.2
v 1.9 1.2 0
v 1.9 1.4 0
v 1.9 1.4 -1.2
v 1.9 1.6 -1.2
v 1.9 1.6 -1.8
v -1.8 0.3 1.9
v -1.8 0.5 1.9
v -1.5 0.8 1.9
v -1.5 1 1.9
v -1.4 0.9 1.9
v -1.4 1 1.9
v -1.2 0.9 1.9
v -1.2 1 1.9
v -1.1 0.8 1.9
v -1.1 1 1.9
v -0.8 0.3 1.9
v -0.8 0.5 1.9
v -0.5 0.3 1.9
v -0.5 0.5 1.9
v 0.5 0.3 1.9
v 0.5 0.5 1.9
v 0.8 0.3 1.9
v 0.8 0.5 1.9
v 1.8 0.3 1.9
v 1.8 0.5 1.9
v -1.9 0.3 1.8
v -1.9 0.5 1.8
v -1.8 0.3 1.8
v -1.8 0.5 1.8
v -1.8 0.6 1.8
v -1.8 1.8 1.8
v -1.7 1.5 1.8
v -1.7 1.7 1.8
v -1.6 1 1.8
v -1.6 1.2 1.8
v -1.6 1.5 1.8
v -1.6 1.7 1.8
v -1.6 1.8 1.8
v -1.5 0.8 1.8
v -1.5 1 1.8
v -1.5 1.2 1.8
v -1.5 1.5 1.8
v -1.5 1.7 1.8
v -1.4 1 1.8
v -1.2 1 1.8
v -1.1 0.8 1.8
v -1.1 1 1.8
v -1.1 1.2 1.8
v -1.1 1.5 1.8
v -1.1 1.7 1.8
v -1 1 1.8
v -1 1.2 1.8
v -1 1.5 1.8
v -1 1.7 1.8
v -1 1.8 1.8
v -0.9 1.5 1.8
v -0.9 1.7 1.8
v -0.8 0.3 1.8
v -0.8 0.5 1.8
v -0.8 0.6 1.8
v -0.8 1.8 1.8
v -0.7 0.3 1.8
v -0.7 0.5 1.8
v -0.6 0.3 1.8
v -0.6 0.5 1.8
v -0.5 0.3 1.8
v -0.5 0.5 1.8
v 0.5 0.3 1.8
v 0.5 0.5 1.8
v 0.6 0.3 1.8
v 0.6 0.5 1.8
v 0.7 0.3 1.8
v 0.7 0.5 1.8
v 0.8 0.3 1.8
v 0.8 0.5 1.8
v 1 0.5 1.8
v 1 0.7 1.8
v 1.1 0.5 1.8
v 1.1 0.7 1.8
v 1.2 0.5 1.8
v 1.2 0.6 1.8
v 1.3 0.5 1.8
v 1.3 0.6 1.8
v 1.8 0.3 1.8
v 1.8 0.5 1.8
v 1.9 0.3 1.8
v 1.9 0.5 1.8
v -1.7 0.5 1.7
v -1.7 0.6 1.7
v -1.5 0.5 1.7
v -1.5 0.6 1.7
v -1.1 0.5 1.7
v -1.1 0.6 1.7
v -0.9 0.5 1.7
v -0.9 0.6 1.7
v 1.6 0.5 1.7
v 1.6 0.7 1.7
v 1.7 0.5 1.7
v 1.7 0.7 1.7
v 1.3 0.5 1.6
v 1.3 0.7 1.6
v 1.4 0.5 1.6
v 1.4 0.7 1.6
v 1.5 0.5 1.4
v 1.5 0.6 1.4
v 1.6 0.5 1.4
v 1.6 0.6 1.4
v -1.7 0.5 1.2
v -1.7 0.6 1.2
v -1.5 0.5 1.2
v -1.5 0.6 1.2
v -1.1 0.5 1.2
v -1.1 0.6 1.2
v -0.9 0.5 1.2
v -0.9 0.6 1.2
v 1.7 0.5 1.2
v 1.7 0.8 1.2
v 1.8 0.5 1.2
v 1.8 0.8 1.2
v -1.8 0.3 0.6
v -1.8 0.5 0.6
v -0.8 0.3 0.6
v -0.8 0.5 0.6
v -0.5 0.3 0.6
v -0.5 0.5 0.6
v 0.5 0.3 0.6
v 0.5 0.5 0.6
v 0.8 0.3 0.6
v 0.8 0.5 0.6
v 1.8 0.3 0.6
v 1.8 0.5 0.6
v -1.9 0.3 0.5
v -1.9 0.5 0.5
v -1.8 0.3 0.5
v -1.8 0.5 0.5
v -0.8 0.3 0.5
v -0.8 0.5 0.5
v -0.7 0.3 0.5
v -0.7 0.5 0.5
v -0.6 0.3 0.5
v -0.6 0.5 0.5
v -0.5 0.3 0.5
v -0.5 0.5 0.5
v 0.5 0.3 0.5
v 0.5 0.5 0.5
v 0.6 0.3 0.5
v 0.6 0.5 0.5
v 0.7 0.3 0.5
v 0.7 0.5 0.5
v 0.8 0.3 0.5
v 0.8 0.5 0.5
v 1.8 0.3 0.5
v 1.8 0.5 0.5
v 1.9 0.3 0.5
v 1.9 0.5 0.5
v 1.7 0.5 0.2
v 1.7 0.6 0.2
v 1.7 0.8 0.2
v 1.7 0.9 0.2
v 1.7 1 0.2
v 1.7 1.2 0.2
v 1.9 0.5 0.2
v 1.9 0.6 0.2
v 1.9 0.8 0.2
v 1.9 0.9 0.2
v 1.9 1 0.2
v 1.9 1.2 0.2
v 1.5 0.5 0
v 1.5 0.6 0
v 1.5 0.8 0
v 1.5 0.9 0
v 1.5 1 0
v 1.5 1.2 0
v 1.7 0.5 0
v 1.7 0.6 0
v 1.7 0.8 0
v 1.7 0.9 0
v 1.7 1 0
v 1.7 1.2 0
v 1.7 1.4 0
v 1.9 1.2 0
v 1.9 1.4 0
v -1.8 0.3 -0.7
v -1.8 0.5 -0.7
v -0.8 0.3 -0.7
v -0.8 0.5 -0.7
v -0.5 0.3 -0.7
v -0.5 0.5 -0.7
v 0.5 0.3 -0.7
v 0.5 0.5 -0.7
v 0.8 0.3 -0.7
v 0.8 0.5 -0.7
v 1 0.5 -0.7
v 1 0.7 -0.7
v 1 0.8 -0.7
v 1.1 0.8 -0.7
v 1.1 0.9 -0.7
v 1.1 1.1 -0.7
v 1.5 1.1 -0.7
v 1.8 0.3 -0.7
v 1.8 0.5 -0.7
v 1.8 0.7 -0.7
v 1.8 0.8 -0.7
v 1.8 0.9 -0.7
v 1.8 1.1 -0.7
v -1.9 0.3 -0.8
v -1.9 0.5 -0.8
v -1.8 0.3 -0.8
v -1.8 0.5 -0.8
v -0.8 0.3 -0.8
v -0.8 0.5 -0.8
v -0.7 0.3 -0.8
v -0.7 0.5 -0.8
v -0.6 0.3 -0.8
v -0.6 0.5 -0.8
v -0.5 0.3 -0.8
v -0.5 0.5 -0.8
v 0.5 0.3 -0.8
v 0.5 0.5 -0.8
v 0.6 0.3 -0.8
v 0.6 0.5 -0.8
v 0.7 0.3 -0.8
v 0.7 0.5 -0.8
v 0.8 0.3 -0.8
v 0.8 0.5 -0.8
v 0.9 0.5 -0.8
v 0.9 0.7 -0.8
v 0.9 0.8 -0.8
v 0.9 0.9 -0.8
v 0.9 1.2 -0.8
v 1 0.5 -0.8
v 1 0.7 -0.8
v 1 0.8 -0.8
v 1.1 0.8 -0.8
v 1.1 0.9 -0.8
v 1.1 1.1 -0.8
v 1.5 1.1 -0.8
v 1.5 1.2 -0.8
v 1.8 0.3 -0.8
v 1.8 0.5 -0.8
v 1.8 0.7 -0.8
v 1.8 0.8 -0.8
v 1.8 0.9 -0.8
v 1.8 1.1 -0.8
v 1.9 0.3 -0.8
v 1.9 0.5 -0.8
v 1.9 0.7 -0.8
v 1.9 0.8 -0.8
v 1.9 0.9 -0.8
v 1.9 1.1 -0.8
v 0.7 0.5 -1
v 0.7 0.6 -1
v 0.7 0.8 -1
v 0.7 0.9 -1
v 0.8 0.9 -1
v 0.8 1 -1
v 0.8 1.2 -1
v 0.9 0.5 -1
v 0.9 0.6 -1
v 0.9 0.7 -1
v 0.9 0.8 -1
v 0.9 0.9 -1
v 0.9 1 -1
v 0.9 1.2 -1
v 0.9 1.4 -1
v 1.7 1.2 -1
v 1.7 1.4 -1
v 1.6 0.9 -1.1
v 1.6 1 -1.1
v 1.7 0.9 -1.1
v 1.7 1 -1.1
v 1.4 1.4 -1.2
v 1.4 1.6 -1.2
v 1.9 1.4 -1.2
v 1.9 1.6 -1.2
v -1.8 0.6 -1.3
v -1.8 0.9 -1.3
v -1.8 1 -1.3
v -1.7 0.9 -1.3
v -1.7 1 -1.3
v -1.6 0.6 -1.3
v -1.6 0.9 -1.3
v -1.6 1 -1.3
v -1.6 1.3 -1.3
v -1.6 1.4 -1.3
v -1.5 1.3 -1.3
v -1.5 1.4 -1.3
v -1.4 1 -1.3
v -1.4 1.3 -1.3
v 0.9 0.8 -1.3
v 0.9 0.9 -1.3
v 1 0.8 -1.3
v 1 0.9 -1.3
v 1.7 0.7 -1.3
v 1.7 0.8 -1.3
v 1.8 0.7 -1.3
v 1.8 0.8 -1.3
v -1.6 0.7 -1.4
v -1.6 0.9 -1.4
v -1.6 1 -1.4
v -1.4 0.7 -1.4
v -1.4 1 -1.4
v 1.2 1.4 -1.4
v 1.2 1.6 -1.4
v 1.4 1.4 -1.4
v 1.4 1.6 -1.4
v -1.9 0.6 -1.5
v -1.9 0.8 -1.5
v -1.8 0.6 -1.5
v -1.8 0.7 -1.5
v -1.8 0.8 -1.5
v -1.7 0.5 -1.5
v -1.7 0.6 -1.5
v -1.6 0.6 -1.5
v -1.6 0.7 -1.5
v -1.5 0.5 -1.5
v -1.5 0.7 -1.5
v -1.4 0.7 -1.5
v -1.4 0.8 -1.5
v -1.3 0.8 -1.5
v -1.3 1 -1.5
v -1.2 0.7 -1.5
v -1.2 1 -1.5
v -1.3 1 -1.6
v -1.3 1.1 -1.6
v -1.2 1 -1.6
v -1.2 1.1 -1.6
v 1 0.8 -1.6
v 1 0.9 -1.6
v 1.1 0.8 -1.6
v 1.1 0.9 -1.6
v 1.3 0.8 -1.6
v 1.3 0.9 -1.6
v 1.5 0.8 -1.6
v 1.5 0.9 -1.6
v 1.8 0.8 -1.6
v 1.8 0.9 -1.6
v 1.1 0.8 -1.7
v 1.1 0.9 -1.7
v 1.3 0.8 -1.7
v 1.3 0.9 -1.7
v -1.7 0.7 -1.8
v -1.7 0.9 -1.8
v -1.7 1 -1.8
v -1.6 0.9 -1.8
v -1.6 1 -1.8
v -1.5 0.7 -1.8
v -1.5 0.9 -1.8
v 1 0.5 1.7
v 1 0.7 1.7
v 1.1 0.5 1.7
v 1.1 0.7 1.7
v 1.2 0.5 1.7
v 1.2 0.6 1.7
v 1.3 0.5 1.7
v 1.3 0.6 1.7
v -1.8 1.5 1.6
v -1.8 1.8 1.6
v -1.6 1.7 1.6
v -1.6 1.8 1.6
v -1.5 1.5 1.6
v -1.5 1.7 1.6
v -1.1 1.5 1.6
v -1.1 1.7 1.6
v -1 1.7 1.6
v -1 1.8 1.6
v -0.8 1.5 1.6
v -0.8 1.8 1.6
v 1.6 0.5 1.6
v 1.6 0.7 1.6
v 1.7 0.5 1.6
v 1.7 0.7 1.6
v 1.3 0.5 1.5
v 1.3 0.7 1.5
v 1.4 0.5 1.5
v 1.4 0.7 1.5
v -1.7 0.5 1.4
v -1.7 0.6 1.4
v -1.5 0.5 1.4
v -1.5 0.6 1.4
v -1.1 0.5 1.4
v -1.1 0.6 1.4
v -0.9 0.5 1.4
v -0.9 0.6 1.4
v 1.5 0.5 1.3
v 1.5 0.6 1.3
v 1.6 0.5 1.3
v 1.6 0.6 1.3
v 1.7 0.5 1.1
v 1.7 0.8 1.1
v 1.8 0.5 1.1
v 1.8 0.8 1.1
v -1.7 0.5 0.9
v -1.7 0.6 0.9
v -1.5 0.5 0.9
v -1.5 0.6 0.9
v -1.1 0.5 0.9
v -1.1 0.6 0.9
v -0.9 0.5 0.9
v -0.9 0.6 0.9
v -1.9 0.3 0.8
v -1.9 0.5 0.8
v -1.8 0.3 0.8
v -1.8 0.5 0.8
v -1.8 0.6 0.8
v -1.8 1.5 0.8
v -1.4 0.6 0.8
v -1.4 0.7 0.8
v -1.4 1 0.8
v -1.2 0.6 0.8
v -1.2 0.7 0.8
v -1.2 1 0.8
v -0.8 0.3 0.8
v -0.8 0.5 0.8
v -0.8 0.6 0.8
v -0.8 1.5 0.8
v -0.7 0.3 0.8
v -0.7 0.5 0.8
v -0.6 0.3 0.8
v -0.6 0.5 0.8
v -0.5 0.3 0.8
v -0.5 0.5 0.8
v 0.5 0.3 0.8
v 0.5 0.5 0.8
v 0.6 0.3 0.8
v 0.6 0.5 0.8
v 0.7 0.3 0.8
v 0.7 0.5 0.8
v 0.8 0.3 0.8
v 0.8 0.5 0.8
v 1.8 0.3 0.8
v 1.8 0.5 0.8
v 1.9 0.3 0.8
v 1.9 0.5 0.8
v -1.8 0.3 0.7
v -1.8 0.5 0.7
v -0.8 0.3 0.7
v -0.8 0.5 0.7
v -0.5 0.3 0.7
v -0.5 0.5 0.7
v 0.5 0.3 0.7
v 0.5 0.5 0.7
v 0.8 0.3 0.7
v 0.8 0.5 0.7
v 1.8 0.3 0.7
v 1.8 0.5 0.7
v -1.4 0.6 0.6
v -1.4 0.7 0.6
v -1.4 1 0.6
v -1.2 0.6 0.6
v -1.2 0.7 0.6
v -1.2 1 0.6
v 1.5 0.5 -0.3
v 1.5 0.6 -0.3
v 1.5 0.8 -0.3
v 1.5 0.9 -0.3
v 1.5 1 -0.3
v 1.9 0.5 -0.3
v 1.9 0.6 -0.3
v 1.9 0.8 -0.3
v 1.9 0.9 -0.3
v 1.9 1 -0.3
v 1.5 1 -0.4
v 1.5 1.1 -0.4
v 1.9 1 -0.4
v 1.9 1.1 -0.4
v -1.9 0.3 -0.5
v -1.9 0.5 -0.5
v -1.8 0.3 -0.5
v -1.8 0.5 -0.5
v -0.8 0.3 -0.5
v -0.8 0.5 -0.5
v -0.7 0.3 -0.5
v -0.7 0.5 -0.5
v -0.6 0.3 -0.5
v -0.6 0.5 -0.5
v -0.5 0.3 -0.5
v -0.5 0.5 -0.5
v 0.5 0.3 -0.5
v 0.5 0.5 -0.5
v 0.6 0.3 -0.5
v 0.6 0.5 -0.5
v 0.7 0.3 -0.5
v 0.7 0.5 -0.5
v 0.8 0.3 -0.5
v 0.8 0.5 -0.5
v 1.8 0.3 -0.5
v 1.8 0.5 -0.5
v 1.9 0.3 -0.5
v 1.9 0.5 -0.5
v -1.8 0.3 -0.6
v -1.8 0.5 -0.6
v -0.8 0.3 -0.6
v -0.8 0.5 -0.6
v -0.5 0.3 -0.6
v -0.5 0.5 -0.6
v 0.5 0.3 -0.6
v 0.5 0.5 -0.6
v 0.8 0.3 -0.6
v 0.8 0.5 -0.6
v 1.8 0.3 -0.6
v 1.8 0.5 -0.6
v 1.6 0.9 -1
v 1.6 1 -1
v 1.7 0.9 -1
v 1.7 1 -1
v 1.2 0.8 -1.1
v 1.2 0.9 -1.1
v 1.5 0.8 -1.1
v 1.7 0.8 -1.1
v 1.7 0.9 -1.1
v 0.9 0.8 -1.2
v 0.9 0.9 -1.2
v 1.2 0.8 -1.2
v 1.2 0.9 -1.2
v 1.7 0.7 -1.2
v 1.7 0.8 -1.2
v 1.8 0.7 -1.2
v 1.8 0.8 -1.2
v 1.7 0.8 -1.3
v 1.7 0.9 -1.3
v 1.8 0.8 -1.3
v 1.8 0.9 -1.3
v -1.8 0.7 -1.4
v -1.8 0.9 -1.4
v -1.8 1 -1.4
v -1.7 0.9 -1.4
v -1.7 1 -1.4
v -1.6 0.7 -1.4
v -1.6 0.9 -1.4
v -1.6 1.1 -1.4
v -1.6 1.3 -1.4
v -1.6 1.4 -1.4
v -1.5 1.3 -1.4
v -1.5 1.4 -1.4
v -1.4 1.1 -1.4
v -1.4 1.3 -1.4
v -1.6 0.8 -1.5
v -1.6 1.1 -1.5
v -1.4 0.8 -1.5
v -1.4 1.1 -1.5
v -1.9 0.6 -1.7
v -1.9 0.8 -1.7
v -1.8 0.7 -1.7
v -1.8 0.8 -1.7
v -1.7 0.5 -1.7
v -1.7 0.6 -1.7
v -1.7 0.7 -1.7
v -1.6 0.7 -1.7
v -1.6 0.8 -1.7
v -1.5 0.5 -1.7
v -1.5 0.6 -1.7
v -1.5 0.7 -1.7
v -1.3 0.8 -1.7
v -1.3 1 -1.7
v -1.3 1.1 -1.7
v -1.2 0.7 -1.7
v -1.2 1 -1.7
v -1.2 1.1 -1.7
v -1.9 0.3 -1.8
v -1.9 0.5 -1.8
v -1.8 0.3 -1.8
v -1.8 0.5 -1.8
v -0.8 0.3 -1.8
v -0.8 0.5 -1.8
v -0.7 0.3 -1.8
v -0.7 0.5 -1.8
v -0.6 0.3 -1.8
v -0.6 0.5 -1.8
v -0.5 0.3 -1.8
v -0.5 0.5 -1.8
v 0.5 0.3 -1.8
v 0.5 0.5 -1.8
v 0.6 0.3 -1.8
v 0.6 0.5 -1.8
v 0.7 0.3 -1.8
v 0.7 0.6 -1.8
v 0.7 0.8 -1.8
v 0.7 0.9 -1.8
v 0.8 0.3 -1.8
v 0.8 0.6 -1.8
v 0.8 0.8 -1.8
v 0.8 0.9 -1.8
v 1.8 0.3 -1.8
v 1.8 0.6 -1.8
v 1.8 0.8 -1.8
v 1.8 0.9 -1.8
v 1.8 1 -1.8
v 1.8 1.6 -1.8
v 1.9 0.3 -1.8
v 1.9 0.6 -1.8
v 1.9 1 -1.8
v 1.9 1.6 -1.8
v -1.8 0.3 -1.9
v -1.8 0.5 -1.9
v -1.7 0.6 -1.9
v -1.7 0.9 -1.9
v -1.7 1 -1.9
v -1.6 0.9 -1.9
v -1.6 1 -1.9
v -1.5 0.6 -1.9
v -1.5 0.9 -1.9
v -0.8 0.3 -1.9
v -0.8 0.5 -1.9
v -0.5 0.3 -1.9
v -0.5 0.5 -1.9
v 0.5 0.3 -1.9
v 0.5 0.5 -1.9
v 0.8 0.3 -1.9
v 0.8 0.6 -1.9
v 0.8 0.8 -1.9
v 0.8 0.9 -1.9
v 0.8 1 -1.9
v 0.8 1.2 -1.9
v 0.9 1.2 -1.9
v 0.9 1.4 -1.9
v 1.2 1.4 -1.9
v 1.2 1.6 -1.9
v 1.8 0.3 -1.9
v 1.8 0.6 -1.9
v 1.8 0.8 -1.9
v 1.8 0.9 -1.9
v 1.8 1 -1.9
v 1.8 1.6 -1.9
v -1.8 0.3 1.9
v -0.8 0.3 1.9
v -0.5 0.3 1.9
v 0.5 0.3 1.9
v 0.8 0.3 1.9
v 1.8 0.3 1.9
v -1.9 0.3 1.8
v -1.8 0.3 1.8
v -0.8 0.3 1.8
v -0.7 0.3 1.8
v -0.6 0.3 1.8
v -0.5 0.3 1.8
v 0.5 0.3 1.8
v 0.6 0.3 1.8
v 0.7 0.3 1.8
v 0.8 0.3 1.8
v 1.8 0.3 1.8
v 1.9 0.3 1.8
v -1.9 0.3 0.8
v -1.8 0.3 0.8
v -0.8 0.3 0.8
v -0.7 0.3 0.8
v -0.6 0.3 0.8
v -0.5 0.3 0.8
v 0.5 0.3 0.8
v 0.6 0.3 0.8
v 0.7 0.3 0.8
v 0.8 0.3 0.8
v 1.8 0.3 0.8
v 1.9 0.3 0.8
v -1.8 0.3 0.7
v -0.8 0.3 0.7
v -0.5 0.3 0.7
v 0.5 0.3 0.7
v 0.8 0.3 0.7
v 1.8 0.3 0.7
v -1.8 0.3 0.6
v -0.8 0.3 0.6
v -0.5 0.3 0.6
v 0.5 0.3 0.6
v 0.8 0.3 0.6
v 1.8 0.3 0.6
v -1.9 0.3 0.5
v -1.8 0.3 0.5
v -0.8 0.3 0.5
v -0.7 0.3 0.5
v -0.6 0.3 0.5
v -0.5 0.3 0.5
v 0.5 0.3 0.5
v 0.6 0.3 0.5
v 0.7 0.3 0.5
v 0.8 0.3 0.5
v 1.8 0.3 0.5
v 1.9 0.3 0.5
v -1.9 0.3 -0.5
v -1.8 0.3 -0.5
v -0.8 0.3 -0.5
v -0.7 0.3 -0.5
v -0.6 0.3 -0.5
v -0.5 0.3 -0.5
v 0.5 0.3 -0.5
v 0.6 0.3 -0.5
v 0.7 0.3 -0.5
v 0.8 0.3 -0.5
v 1.8 0.3 -0.5
v 1.9 0.3 -0.5
v -1.8 0.3 -0.6
v -0.8 0.3 -0.6
v -0.5 0.3 -0.6
v 0.5 0.3 -0.6
v 0.8 0.3 -0.6
v 1.8 0.3 -0.6
v -1.8 0.3 -0.7
v -0.8 0.3 -0.7
v -0.5 0.3 -0.7
v 0.5 0.3 -0.7
v 0.8 0.3 -0.7
v 1.8 0.3 -0.7
v -1.9 0.3 -0.8
v -1.8 0.3 -0.8
v -0.8 0.3 -0.8
v -0.7 0.3 -0.8
v -0.6 0.3 -0.8
v -0.5 0.3 -0.8
v 0.5 0.3 -0.8
v 0.6 0.3 -0.8
v 0.7 0.3 -0.8
v 0.8 0.3 -0.8
v 1.8 0.3 -0.8
v 1.9 0.3 -0.8
v -1.9 0.3 -1.8
v -1.8 0.3 -1.8
v -0.8 0.3 -1.8
v -0.7 0.3 -1.8
v -0.6 0.3 -1.8
v -0.5 0.3 -1.8
v 0.5 0.3 -1.8
v 0.6 0.3 -1.8
v 0.7 0.3 -1.8
v 0.8 0.3 -1.8
v 1.8 0.3 -1.8
v 1.9 0.3 -1.8
v -1.8 0.3 -1.9
v -0.8 0.3 -1.9
v -0.5 0.3 -1.9
v 0.5 0.3 -1.9
v 0.8 0.3 -1.9
v 1.8 0.3 -1.9
v -1.8 0.6 1.8
v -0.8 0.6 1.8
v -1.7 0.6 1.7
v -1.5 0.6 1.7
v -1.1 0.6 1.7
v -0.9 0.6 1.7
v -1.7 0.6 1.4
v -1.5 0.6 1.4
v -1.1 0.6 1.4
v -0.9 0.6 1.4
v -1.7 0.6 1.2
v -1.5 0.6 1.2
v -1.1 0.6 1.2
v -0.9 0.6 1.2
v -1.7 0.6 0.9
v -1.5 0.6 0.9
v -1.1 0.6 0.9
v -0.9 0.6 0.9
v -1.8 0.6 0.8
v -1.4 0.6 0.8
v -1.2 0.6 0.8
v -0.8 0.6 0.8
v -1.4 0.6 0.6
v -1.2 0.6 0.6
v -1.8 0.6 -1.3
v -1.6 0.6 -1.3
v -1.9 0.6 -1.5
v -1.8 0.6 -1.5
v -1.7 0.6 -1.5
v -1.6 0.6 -1.5
v -1.9 0.6 -1.7
v -1.7 0.6 -1.7
v -1.5 0.6 -1.7
v -1.7 0.6 -1.9
v -1.5 0.6 -1.9
v -1.6 0.7 -1.4
v -1.4 0.7 -1.4
v -1.6 0.7 -1.5
v -1.5 0.7 -1.5
v -1.4 0.7 -1.5
v -1.2 0.7 -1.5
v -1.5 0.7 -1.7
v -1.2 0.7 -1.7
v -1.5 0.8 1.9
v -1.1 0.8 1.9
v -1.5 0.8 1.8
v -1.1 0.8 1.8
v 1.7 0.8 -1.2
v 1.8 0.8 -1.2
v 1.7 0.8 -1.3
v 1.8 0.8 -1.3
v 1.2 0.9 -1.1
v 1.7 0.9 -1.1
v 0.9 0.9 -1.2
v 1.2 0.9 -1.2
v 0.9 0.9 -1.3
v 1 0.9 -1.3
v 1.7 0.9 -1.3
v 1.8 0.9 -1.3
v 1 0.9 -1.6
v 1.1 0.9 -1.6
v 1.3 0.9 -1.6
v 1.5 0.9 -1.6
v 1.8 0.9 -1.6
v 1.1 0.9 -1.7
v 1.3 0.9 -1.7
v 1.5 1 -0.3
v 1.9 1 -0.3
v 1.5 1 -0.4
v 1.9 1 -0.4
v 1.6 1 -1
v 1.7 1 -1
v 1.6 1 -1.1
v 1.7 1 -1.1
v -1.6 1 -1.3
v -1.4 1 -1.3
v -1.6 1 -1.4
v -1.4 1 -1.4
v 1.5 1.1 -0.4
v 1.9 1.1 -0.4
v 1.5 1.1 -0.7
v 1.8 1.1 -0.7
v 1.8 1.1 -0.8
v 1.9 1.1 -0.8
v -1.8 0.5 1.9
v -0.8 0.5 1.9
v -0.5 0.5 1.9
v 0.5 0.5 1.9
v 0.8 0.5 1.9
v 1.8 0.5 1.9
v -1.9 0.5 1.8
v -1.8 0.5 1.8
v -0.8 0.5 1.8
v -0.7 0.5 1.8
v -0.6 0.5 1.8
v -0.5 0.5 1.8
v 0.5 0.5 1.8
v 0.6 0.5 1.8
v 0.7 0.5 1.8
v 0.8 0.5 1.8
v 1 0.5 1.8
v 1.1 0.5 1.8
v 1.2 0.5 1.8
v 1.3 0.5 1.8
v 1.8 0.5 1.8
v 1.9 0.5 1.8
v -1.7 0.5 1.7
v -1.5 0.5 1.7
v -1.1 0.5 1.7
v -0.9 0.5 1.7
v 1 0.5 1.7
v 1.1 0.5 1.7
v 1.2 0.5 1.7
v 1.3 0.5 1.7
v 1.6 0.5 1.7
v 1.7 0.5 1.7
v 1.3 0.5 1.6
v 1.4 0.5 1.6
v 1.6 0.5 1.6
v 1.7 0.5 1.6
v 1.3 0.5 1.5
v 1.4 0.5 1.5
v -1.7 0.5 1.4
v -1.5 0.5 1.4
v -1.1 0.5 1.4
v -0.9 0.5 1.4
v 1.5 0.5 1.4
v 1.6 0.5 1.4
v 1.5 0.5 1.3
v 1.6 0.5 1.3
v -1.7 0.5 1.2
v -1.5 0.5 1.2
v -1.1 0.5 1.2
v -0.9 0.5 1.2
v 1.7 0.5 1.2
v 1.8 0.5 1.2
v 1.7 0.5 1.1
v 1.8 0.5 1.1
v -1.7 0.5 0.9
v -1.5 0.5 0.9
v -1.1 0.5 0.9
v -0.9 0.5 0.9
v -1.9 0.5 0.8
v -1.8 0.5 0.8
v -0.8 0.5 0.8
v -0.7 0.5 0.8
v -0.6 0.5 0.8
v -0.5 0.5 0.8
v 0.5 0.5 0.8
v 0.6 0.5 0.8
v 0.7 0.5 0.8
v 0.8 0.5 0.8
v 1.8 0.5 0.8
v 1.9 0.5 0.8
v -1.8 0.5 0.7
v -0.8 0.5 0.7
v -0.5 0.5 0.7
v 0.5 0.5 0.7
v 0.8 0.5 0.7
v 1.8 0.5 0.7
v -1.8 0.5 0.6
v -0.8 0.5 0.6
v -0.5 0.5 0.6
v 0.5 0.5 0.6
v 0.8 0.5 0.6
v 1.8 0.5 0.6
v -1.9 0.5 0.5
v -1.8 0.5 0.5
v -0.8 0.5 0.5
v -0.7 0.5 0.5
v -0.6 0.5 0.5
v -0.5 0.5 0.5
v 0.5 0.5 0.5
v 0.6 0.5 0.5
v 0.7 0.5 0.5
v 0.8 0.5 0.5
v 1.8 0.5 0.5
v 1.9 0.5 0.5
v 1.7 0.5 0.2
v 1.9 0.5 0.2
v 1.5 0.5 0
v 1.7 0.5 0
v 1.5 0.5 -0.3
v 1.9 0.5 -0.3
v -1.9 0.5 -0.5
v -1.8 0.5 -0.5
v -0.8 0.5 -0.5
v -0.7 0.5 -0.5
v -0.6 0.5 -0.5
v -0.5 0.5 -0.5
v 0.5 0.5 -0.5
v 0.6 0.5 -0.5
v 0.7 0.5 -0.5
v 0.8 0.5 -0.5
v 1.8 0.5 -0.5
v 1.9 0.5 -0.5
v -1.8 0.5 -0.6
v -0.8 0.5 -0.6
v -0.5 0.5 -0.6
v 0.5 0.5 -0.6
v 0.8 0.5 -0.6
v 1.8 0.5 -0.6
v -1.8 0.5 -0.7
v -0.8 0.5 -0.7
v -0.5 0.5 -0.7
v 0.5 0.5 -0.7
v 0.8 0.5 -0.7
v 1 0.5 -0.7
v -1.9 0.5 -0.8
v -1.8 0.5 -0.8
v -0.8 0.5 -0.8
v -0.7 0.5 -0.8
v -0.6 0.5 -0.8
v -0.5 0.5 -0.8
v 0.5 0.5 -0.8
v 0.6 0.5 -0.8
v 0.7 0.5 -0.8
v 0.8 0.5 -0.8
v 0.9 0.5 -0.8
v 1 0.5 -0.8
v 0.7 0.5 -1
v 0.9 0.5 -1
v -1.7 0.5 -1.5
v -1.5 0.5 -1.5
v -1.7 0.5 -1.7
v -1.5 0.5 -1.7
v -1.9 0.5 -1.8
v -1.8 0.5 -1.8
v -0.8 0.5 -1.8
v -0.7 0.5 -1.8
v -0.6 0.5 -1.8
v -0.5 0.5 -1.8
v 0.5 0.5 -1.8
v 0.6 0.5 -1.8
v -1.8 0.5 -1.9
v -0.8 0.5 -1.9
v -0.5 0.5 -1.9
v 0.5 0.5 -1.9
v 1.2 0.6 1.8
v 1.3 0.6 1.8
v 1.2 0.6 1.7
v 1.3 0.6 1.7
v 1.5 0.6 1.4
v 1.6 0.6 1.4
v 1.5 0.6 1.3
v 1.6 0.6 1.3
v 1 0.7 1.8
v 1.1 0.7 1.8
v 1 0.7 1.7
v 1.1 0.7 1.7
v 1.6 0.7 1.7
v 1.7 0.7 1.7
v 1.3 0.7 1.6
v 1.4 0.7 1.6
v 1.6 0.7 1.6
v 1.7 0.7 1.6
v 1.3 0.7 1.5
v 1.4 0.7 1.5
v 1.7 0.7 -1.2
v 1.8 0.7 -1.2
v 1.7 0.7 -1.3
v 1.8 0.7 -1.3
v -1.8 0.7 -1.4
v -1.6 0.7 -1.4
v -1.8 0.7 -1.5
v -1.8 0.7 -1.7
v -1.7 0.7 -1.7
v -1.6 0.7 -1.7
v -1.5 0.7 -1.7
v -1.7 0.7 -1.8
v -1.5 0.7 -1.8
v 1.7 0.8 1.2
v 1.8 0.8 1.2
v 1.7 0.8 1.1
v 1.8 0.8 1.1
v 1 0.8 -0.7
v 1.1 0.8 -0.7
v 1 0.8 -0.8
v 1.1 0.8 -0.8
v 1.2 0.8 -1.1
v 1.5 0.8 -1.1
v 1.7 0.8 -1.1
v 0.9 0.8 -1.2
v 1.2 0.8 -1.2
v 0.9 0.8 -1.3
v 1 0.8 -1.3
v 1.7 0.8 -1.3
v 1.8 0.8 -1.3
v -1.9 0.8 -1.5
v -1.8 0.8 -1.5
v -1.6 0.8 -1.5
v -1.4 0.8 -1.5
v -1.3 0.8 -1.5
v 1 0.8 -1.6
v 1.1 0.8 -1.6
v 1.3 0.8 -1.6
v 1.5 0.8 -1.6
v 1.8 0.8 -1.6
v -1.9 0.8 -1.7
v -1.8 0.8 -1.7
v -1.6 0.8 -1.7
v -1.3 0.8 -1.7
v 1.1 0.8 -1.7
v 1.3 0.8 -1.7
v 0.7 0.9 -1
v 0.8 0.9 -1
v 1.6 0.9 -1
v 1.7 0.9 -1
v 1.6 0.9 -1.1
v 1.7 0.9 -1.1
v -1.7 0.9 -1.3
v -1.6 0.9 -1.3
v -1.7 0.9 -1.4
v -1.6 0.9 -1.4
v -1.6 0.9 -1.8
v -1.5 0.9 -1.8
v 0.7 0.9 -1.8
v 0.8 0.9 -1.8
v -1.6 0.9 -1.9
v -1.5 0.9 -1.9
v -1.5 1 1.9
v -1.4 1 1.9
v -1.2 1 1.9
v -1.1 1 1.9
v -1.5 1 1.8
v -1.4 1 1.8
v -1.2 1 1.8
v -1.1 1 1.8
v -1.4 1 0.8
v -1.2 1 0.8
v -1.4 1 0.6
v -1.2 1 0.6
v -1.8 1 -1.3
v -1.7 1 -1.3
v -1.8 1 -1.4
v -1.7 1 -1.4
v -1.3 1 -1.5
v -1.2 1 -1.5
v -1.3 1 -1.6
v -1.2 1 -1.6
v -1.7 1 -1.8
v -1.6 1 -1.8
v -1.7 1 -1.9
v -1.6 1 -1.9
v 1.1 1.1 -0.7
v 1.5 1.1 -0.7
v 1.1 1.1 -0.8
v 1.5 1.1 -0.8
v -1.6 1.1 -1.4
v -1.4 1.1 -1.4
v -1.6 1.1 -1.5
v -1.4 1.1 -1.5
v -1.3 1.1 -1.6
v -1.2 1.1 -1.6
v -1.3 1.1 -1.7
v -1.2 1.1 -1.7
v 1.7 1.2 0.2
v 1.9 1.2 0.2
v 1.5 1.2 0
v 1.7 1.2 0
v 1.9 1.2 0
v 0.9 1.2 -0.8
v 1.5 1.2 -0.8
v 0.8 1.2 -1
v 0.9 1.2 -1
v 1.7 1.2 -1
v 0.8 1.2 -1.9
v 0.9 1.2 -1.9
v -1.5 1.3 -1.3
v -1.4 1.3 -1.3
v -1.5 1.3 -1.4
v -1.4 1.3 -1.4
v 1.7 1.4 0
v 1.9 1.4 0
v 0.9 1.4 -1
v 1.7 1.4 -1
v 1.4 1.4 -1.2
v 1.9 1.4 -1.2
v -1.6 1.4 -1.3
v -1.5 1.4 -1.3
v -1.6 1.4 -1.4
v -1.5 1.4 -1.4
v 1.2 1.4 -1.4
v 1.4 1.4 -1.4
v 0.9 1.4 -1.9
v 1.2 1.4 -1.9
v -1.5 1.5 1.8
v -1.1 1.5 1.8
v -1.8 1.5 1.6
v -1.5 1.5 1.6
v -1.1 1.5 1.6
v -0.8 1.5 1.6
v -1.8 1.5 0.8
v -0.8 1.5 0.8
v 1.4 1.6 -1.2
v 1.9 1.6 -1.2
v 1.2 1.6 -1.4
v 1.4 1.6 -1.4
v 1.8 1.6 -1.8
v 1.9 1.6 -1.8
v 1.2 1.6 -1.9
v 1.8 1.6 -1.9
v -1.6 1.7 1.8
v -1.5 1.7 1.8
v -1.1 1.7 1.8
v -1 1.7 1.8
v -1.6 1.7 1.6
v -1.5 1.7 1.6
v -1.1 1.7 1.6
v -1 1.7 1.6
v -1.8 1.8 1.8
v -1.6 1.8 1.8
v -1 1.8 1.8
v -0.8 1.8 1.8
v -1.8 1.8 1.6
v -1.6 1.8 1.6
v -1 1.8 1.6
v -0.8 1.8 1.6

# faces
f 7/4/1 2/4/1 1/4/1
f 8/4/1 2/4/1 7/4/1
f 9/4/1 4/4/1 3/4/1
f 10/4/1 4/4/1 9/4/1
f 11/4/1 6/4/1 5/4/1
f 12/4/1 6/4/1 11/4/1
f 15/5/1 14/5/1 13/5/1
f 16/5/1 14/5/1 15/5/1
f 29/4/1 18/4/1 17/4/1
f 30/4/1 18/4/1 29/4/1
f 31/4/1 20/4/1 19/4/1
f 32/4/1 20/4/1 31/4/1
f 33/4/1 22/4/1 21/4/1
f 34/4/1 22/4/1 33/4/1
f 35/4/1 24/4/1 23/4/1
f 36/4/1 24/4/1 35/4/1
f 37/4/1 26/4/1 25/4/1
f 38/4/1 26/4/1 37/4/1
f 39/4/1 28/4/1 27/4/1
f 40/4/1 28/4/1 39/4/1
f 45/5/1 44/5/1 43/5/1
f 46/5/1 44/5/1 45/5/1
f 47/5/1 45/5/1 43/5/1
f 48/5/1 45/5/1 47/5/1
f 49/6/1 48/6/1 47/6/1
f 50/6/1 48/6/1 49/6/1
f 51/3/1 42/3/1 41/3/1
f 52/3/1 42/3/1 51/3/1
f 53/3/1 51/3/1 41/3/1
f 54/3/1 51/3/1 53/3/1
f 61/3/1 56/3/1 55/3/1
f 62/3/1 56/3/1 61/3/1
f 63/3/1 58/3/1 57/3/1
f 64/3/1 58/3/1 63/3/1
f 65/5/1 60/5/1 59/5/1
f 66/5/1 60/5/1 65/5/1
f 68/5/1 67/5/1 66/5/1
f 69/5/1 67/5/1 68/5/1
f 70/5/1 67/5/1 69/5/1
f 71/5/1 67/5/1 70/5/1
f 72/6/1 71/6/1 70/6/1
f 73/6/1 71/6/1 72/6/1
f 76/5/1 75/5/1 74/5/1
f 77/5/1 75/5/1 76/5/1
f 78/5/1 76/5/1 74/5/1
f 80/5/1 76/5/1 78/5/1
f 81/5/1 76/5/1 80/5/1
f 81/5/1 80/5/1 79/5/1
f 82/5/1 76/5/1 81/5/1
f 83/5/1 81/5/1 79/5/1
f 84/5/1 81/5/1 83/5/1
f 85/6/1 84/6/1 83/6/1
f 86/6/1 84/6/1 85/6/1
f 89/7/1 88/7/1 87/7/1
f 90/7/1 88/7/1 89/7/1
f 93/7/1 92/7/1 91/7/1
f 94/7/1 92/7/1 93/7/1
f 95/3/1 94/3/1 93/3/1
f 96/3/1 94/3/1 95/3/1
f 99/5/1 98/5/1 97/5/1
f 100/5/1 98/5/1 99/5/1
f 101/5/1 98/5/1 100/5/1
f 102/6/1 101/6/1 100/6/1
f 103/6/1 101/6/1 102/6/1
f 108/3/1 105/3/1 104/3/1
f 109/3/1 105/3/1 108/3/1
f 110/3/1 107/3/1 106/3/1
f 111/3/1 107/3/1 110/3/1
f 114/3/1 113/3/1 112/3/1
f 115/3/1 113/3/1 114/3/1
f 118/3/1 117/3/1 116/3/1
f 119/3/1 117/3/1 118/3/1
f 126/4/1 121/4/1 120/4/1
f 127/4/1 121/4/1 126/4/1
f 128/4/1 123/4/1 122/4/1
f 129/4/1 123/4/1 128/4/1
f 130/4/1 125/4/1 124/4/1
f 131/4/1 125/4/1 130/4/1
f 144/4/1 133/4/1 132/4/1
f 145/4/1 133/4/1 144/4/1
f 146/4/1 135/4/1 134/4/1
f 147/4/1 135/4/1 146/4/1
f 148/4/1 137/4/1 136/4/1
f 149/4/1 137/4/1 148/4/1
f 150/4/1 139/4/1 138/4/1
f 151/4/1 139/4/1 150/4/1
f 152/4/1 141/4/1 140/4/1
f 153/4/1 141/4/1 152/4/1
f 154/4/1 143/4/1 142/4/1
f 155/4/1 143/4/1 154/4/1
f 162/4/1 157/4/1 156/4/1
f 163/4/1 157/4/1 162/4/1
f 164/4/1 159/4/1 158/4/1
f 165/4/1 159/4/1 164/4/1
f 166/4/1 161/4/1 160/4/1
f 167/4/1 161/4/1 166/4/1
f 168/4/1 161/4/1 167/4/1
f 169/4/1 161/4/1 168/4/1
f 170/3/1 169/3/1 168/3/1
f 171/3/1 169/3/1 170/3/1
f 172/4/1 171/4/1 170/4/1
f 173/4/1 171/4/1 172/4/1
f 186/4/1 175/4/1 174/4/1
f 187/4/1 175/4/1 186/4/1
f 188/4/1 177/4/1 176/4/1
f 189/4/1 177/4/1 188/4/1
f 190/4/1 179/4/1 178/4/1
f 191/4/1 179/4/1 190/4/1
f 192/4/1 181/4/1 180/4/1
f 193/4/1 181/4/1 192/4/1
f 194/4/1 183/4/1 182/4/1
f 195/4/1 183/4/1 194/4/1
f 196/4/1 185/4/1 184/4/1
f 197/4/1 185/4/1 196/4/1
f 198/3/1 197/3/1 196/3/1
f 199/3/1 197/3/1 198/3/1
f 201/4/1 199/4/1 198/4/1
f 202/4/1 199/4/1 201/4/1
f 203/3/1 201/3/1 200/3/1
f 203/3/1 202/3/1 201/3/1
f 204/3/1 202/3/1 203/3/1
f 205/4/1 204/4/1 203/4/1
f 206/4/1 204/4/1 205/4/1
f 209/3/1 208/3/1 207/3/1
f 210/3/1 209/3/1 207/3/1
f 211/3/1 209/3/1 210/3/1
f 212/4/1 211/4/1 210/4/1
f 213/4/1 211/4/1 212/4/1
f 214/3/1 213/3/1 212/3/1
f 215/3/1 213/3/1 214/3/1
f 216/4/1 215/4/1 214/4/1
f 217/4/1 216/4/1 214/4/1
f 218/4/1 216/4/1 217/4/1
f 220/4/1 219/4/1 218/4/1
f 221/4/1 219/4/1 220/4/1
f 226/5/1 223/5/1 222/5/1
f 227/5/1 223/5/1 226/5/1
f 228/3/1 225/3/1 224/3/1
f 229/3/1 225/3/1 228/3/1
f 230/4/1 229/4/1 228/4/1
f 231/4/1 229/4/1 230/4/1
f 234/3/1 233/3/1 232/3/1
f 235/3/1 233/3/1 234/3/1
f 236/4/1 235/4/1 234/4/1
f 237/4/1 235/4/1 236/4/1
f 240/5/1 239/5/1 238/5/1
f 241/5/1 239/5/1 240/5/1
f 244/4/1 243/4/1 242/4/1
f 245/4/1 243/4/1 244/4/1
f 248/5/1 247/5/1 246/5/1
f 249/5/1 247/5/1 248/5/1
f 252/4/1 251/4/1 250/4/1
f 253/4/1 251/4/1 252/4/1
f 256/4/1 255/4/1 254/4/1
f 257/4/1 255/4/1 256/4/1
f 262/5/1 259/5/1 258/5/1
f 263/5/1 259/5/1 262/5/1
f 264/4/1 261/4/1 260/4/1
f 265/4/1 261/4/1 264/4/1
f 266/3/1 265/3/1 264/3/1
f 267/3/1 265/3/1 266/3/1
f 268/4/1 267/4/1 266/4/1
f 269/4/1 267/4/1 268/4/1
f 270/3/1 269/3/1 268/3/1
f 271/3/1 269/3/1 270/3/1
f 273/4/1 271/4/1 270/4/1
f 273/4/1 272/4/1 271/4/1
f 276/4/1 273/4/1 270/4/1
f 276/4/1 275/4/1 274/4/1
f 276/4/1 274/4/1 273/4/1
f 277/4/1 275/4/1 276/4/1
f 280/5/1 279/5/1 278/5/1
f 281/5/1 279/5/1 280/5/1
f 286/4/1 285/4/1 284/4/1
f 287/4/1 285/4/1 286/4/1
f 288/5/1 283/5/1 282/5/1
f 289/5/1 283/5/1 288/5/1
f 290/3/1 287/3/1 286/3/1
f 291/3/1 287/3/1 290/3/1
f 294/4/1 291/4/1 290/4/1
f 295/4/1 291/4/1 294/4/1
f 297/3/1 293/3/1 292/3/1
f 298/3/1 293/3/1 297/3/1
f 299/3/1 295/3/1 294/3/1
f 300/3/1 295/3/1 299/3/1
f 301/3/1 297/3/1 296/3/1
f 302/3/1 297/3/1 301/3/1
f 303/4/1 300/4/1 299/4/1
f 304/4/1 300/4/1 303/4/1
f 306/4/1 305/4/1 304/4/1
f 307/4/1 305/4/1 306/4/1
f 310/3/1 309/3/1 308/3/1
f 311/3/1 309/3/1 310/3/1
f 313/3/1 312/3/1 311/3/1
f 314/3/1 312/3/1 313/3/1
f 315/5/2 316/5/2 317/5/2
f 317/5/2 316/5/2 318/5/2
f 319/6/2 320/6/2 321/6/2
f 321/6/2 320/6/2 322/6/2
f 323/5/2 324/5/2 325/5/2
f 325/5/2 324/5/2 326/5/2
f 323/5/2 325/5/2 327/5/2
f 327/5/2 325/5/2 328/5/2
f 329/6/2 330/6/2 331/6/2
f 331/6/2 330/6/2 332/6/2
f 333/3/2 334/3/2 335/3/2
f 335/3/2 334/3/2 336/3/2
f 337/3/2 338/3/2 343/3/2
f 343/3/2 338/3/2 344/3/2
f 339/3/2 340/3/2 345/3/2
f 345/3/2 340/3/2 346/3/2
f 341/5/2 342/5/2 347/5/2
f 347/5/2 348/5/2 349/5/2
f 341/5/2 347/5/2 349/5/2
f 349/5/2 348/5/2 350/5/2
f 350/5/2 348/5/2 351/5/2
f 351/5/2 348/5/2 352/5/2
f 352/5/2 348/5/2 353/5/2
f 354/6/2 355/6/2 356/6/2
f 356/6/2 355/6/2 357/6/2
f 358/3/2 359/3/2 360/3/2
f 360/3/2 359/3/2 361/3/2
f 362/5/2 363/5/2 364/5/2
f 362/5/2 364/5/2 366/5/2
f 366/5/2 364/5/2 367/5/2
f 365/5/2 366/5/2 367/5/2
f 367/5/2 364/5/2 368/5/2
f 365/5/2 367/5/2 369/5/2
f 369/5/2 367/5/2 370/5/2
f 371/7/2 372/7/2 373/7/2
f 373/7/2 372/7/2 374/7/2
f 373/3/2 374/3/2 377/3/2
f 377/3/2 374/3/2 378/3/2
f 375/5/2 376/5/2 379/5/2
f 379/5/2 376/5/2 380/5/2
f 380/5/2 376/5/2 381/5/2
f 380/6/2 381/6/2 382/6/2
f 382/6/2 381/6/2 383/6/2
f 384/7/2 385/7/2 386/7/2
f 386/7/2 385/7/2 387/7/2
f 388/3/2 389/3/2 392/3/2
f 392/3/2 389/3/2 393/3/2
f 390/3/2 391/3/2 394/3/2
f 394/3/2 391/3/2 395/3/2
f 396/4/2 397/4/2 408/4/2
f 408/4/2 397/4/2 409/4/2
f 398/4/2 399/4/2 410/4/2
f 410/4/2 399/4/2 411/4/2
f 400/4/2 401/4/2 412/4/2
f 412/4/2 401/4/2 413/4/2
f 402/4/2 403/4/2 414/4/2
f 414/4/2 403/4/2 415/4/2
f 404/4/2 405/4/2 416/4/2
f 416/4/2 405/4/2 417/4/2
f 406/4/2 407/4/2 418/4/2
f 418/4/2 407/4/2 419/4/2
f 420/3/2 421/3/2 422/3/2
f 422/3/2 421/3/2 423/3/2
f 420/3/2 422/3/2 424/3/2
f 424/3/2 422/3/2 425/3/2
f 426/4/2 427/4/2 432/4/2
f 432/4/2 427/4/2 433/4/2
f 428/4/2 429/4/2 434/4/2
f 434/4/2 429/4/2 435/4/2
f 430/4/2 431/4/2 436/4/2
f 436/4/2 431/4/2 437/4/2
f 438/4/2 439/4/2 450/4/2
f 450/4/2 439/4/2 451/4/2
f 440/4/2 441/4/2 452/4/2
f 452/4/2 441/4/2 453/4/2
f 442/4/2 443/4/2 454/4/2
f 454/4/2 443/4/2 455/4/2
f 444/4/2 445/4/2 456/4/2
f 456/4/2 445/4/2 457/4/2
f 446/4/2 447/4/2 458/4/2
f 458/4/2 447/4/2 459/4/2
f 448/4/2 449/4/2 460/4/2
f 460/4/2 449/4/2 461/4/2
f 462/4/2 463/4/2 468/4/2
f 468/4/2 463/4/2 469/4/2
f 464/4/2 465/4/2 470/4/2
f 470/4/2 465/4/2 471/4/2
f 466/4/2 467/4/2 472/4/2
f 472/4/2 467/4/2 473/4/2
f 474/4/2 475/4/2 476/4/2
f 476/4/2 475/4/2 477/4/2
f 478/4/2 479/4/2 480/4/2
f 480/4/2 479/4/2 481/4/2
f 482/5/2 483/5/2 484/5/2
f 484/5/2 483/5/2 485/5/2
f 486/4/2 487/4/2 488/4/2
f 488/4/2 487/4/2 489/4/2
f 490/3/2 491/3/2 492/3/2
f 492/3/2 491/3/2 493/3/2
f 494/5/2 495/5/2 496/5/2
f 496/5/2 495/5/2 497/5/2
f 498/5/2 499/5/2 500/5/2
f 500/5/2 499/5/2 501/5/2
f 502/5/2 503/5/2 504/5/2
f 504/5/2 503/5/2 505/5/2
f 506/4/2 507/4/2 508/4/2
f 508/4/2 507/4/2 509/4/2
f 510/5/2 511/5/2 512/5/2
f 512/5/2 511/5/2 513/5/2
f 514/3/2 515/3/2 516/3/2
f 516/3/2 515/3/2 517/3/2
f 518/4/2 519/4/2 530/4/2
f 530/4/2 519/4/2 531/4/2
f 520/4/2 521/4/2 534/4/2
f 534/4/2 521/4/2 535/4/2
f 522/4/2 523/4/2 536/4/2
f 536/4/2 523/4/2 537/4/2
f 524/4/2 525/4/2 538/4/2
f 538/4/2 525/4/2 539/4/2
f 526/4/2 527/4/2 540/4/2
f 540/4/2 527/4/2 541/4/2
f 528/4/2 529/4/2 542/4/2
f 542/4/2 529/4/2 543/4/2
f 540/3/2 541/3/2 544/3/2
f 544/3/2 541/3/2 545/3/2
f 532/5/2 533/5/2 546/5/2
f 546/5/2 533/5/2 547/5/2
f 544/4/2 545/4/2 548/4/2
f 548/4/2 545/4/2 549/4/2
f 542/3/2 543/3/2 550/3/2
f 550/3/2 543/3/2 551/3/2
f 548/3/2 549/3/2 552/3/2
f 552/3/2 549/3/2 553/3/2
f 550/4/2 551/4/2 554/4/2
f 554/4/2 551/4/2 555/4/2
f 554/3/2 555/3/2 556/3/2
f 556/3/2 555/3/2 557/3/2
f 552/4/2 553/4/2 558/4/2
f 558/4/2 553/4/2 559/4/2
f 556/4/2 557/4/2 560/4/2
f 560/4/2 557/4/2 561/4/2
f 562/4/2 563/4/2 568/4/2
f 568/4/2 563/4/2 569/4/2
f 564/4/2 565/4/2 570/4/2
f 570/4/2 565/4/2 571/4/2
f 571/4/2 565/4/2 572/4/2
f 572/4/2 565/4/2 573/4/2
f 566/4/2 567/4/2 574/4/2
f 574/4/2 567/4/2 575/4/2
f 571/4/2 572/4/2 576/4/2
f 576/4/2 572/4/2 577/4/2
f 575/4/2 567/4/2 578/4/2
f 574/3/2 575/3/2 578/3/2
f 578/4/2 567/4/2 579/4/2
f 574/3/2 578/3/2 580/3/2
f 578/3/2 579/3/2 580/3/2
f 580/3/2 579/3/2 581/3/2
f 576/3/2 577/3/2 582/3/2
f 582/3/2 577/3/2 583/3/2
f 580/4/2 581/4/2 584/4/2
f 581/3/2 579/3/2 585/3/2
f 584/4/2 581/4/2 585/4/2
f 582/4/2 583/4/2 586/4/2
f 586/4/2 583/4/2 587/4/2
f 584/3/2 585/3/2 588/3/2
f 585/3/2 579/3/2 589/3/2
f 588/3/2 585/3/2 589/3/2
f 586/3/2 587/3/2 590/3/2
f 590/3/2 587/3/2 591/3/2
f 589/3/2 579/3/2 593/3/2
f 588/4/2 589/4/2 593/4/2
f 593/3/2 579/3/2 594/3/2
f 591/4/2 592/4/2 595/4/2
f 590/4/2 591/4/2 595/4/2
f 593/4/2 594/4/2 596/4/2
f 588/4/2 593/4/2 596/4/2
f 590/4/2 595/4/2 597/4/2
f 595/4/2 596/4/2 597/4/2
f 597/4/2 596/4/2 598/4/2
f 598/4/2 596/4/2 599/4/2
f 596/4/2 594/4/2 600/4/2
f 599/4/2 596/4/2 600/4/2
f 600/4/2 594/4/2 601/4/2
f 601/4/2 594/4/2 602/4/2
f 607/7/3 606/7/3 605/7/3
f 608/7/3 606/7/3 607/7/3
f 609/7/3 607/7/3 605/7/3
f 609/9/3 608/9/3 607/9/3
f 610/9/3 608/9/3 609/9/3
f 611/7/3 609/7/3 605/7/3
f 611/7/3 610/7/3 609/7/3
f 612/7/3 610/7/3 611/7/3
f 613/4/3 604/4/3 603/4/3
f 614/4/3 604/4/3 613/4/3
f 617/4/3 616/4/3 615/4/3
f 618/4/3 616/4/3 617/4/3
f 621/4/3 620/4/3 619/4/3
f 622/4/3 620/4/3 621/4/3
f 625/4/3 624/4/3 623/4/3
f 626/4/3 624/4/3 625/4/3
f 629/3/3 628/3/3 627/3/3
f 630/3/3 628/3/3 629/3/3
f 631/3/3 629/3/3 627/3/3
f 632/3/3 629/3/3 631/3/3
f 633/7/3 630/7/3 629/7/3
f 633/3/3 629/3/3 632/3/3
f 634/3/3 628/3/3 630/3/3
f 634/7/3 630/7/3 633/7/3
f 635/3/3 628/3/3 634/3/3
f 636/3/3 631/3/3 627/3/3
f 637/9/3 632/9/3 631/9/3
f 637/3/3 631/3/3 636/3/3
f 638/3/3 633/3/3 632/3/3
f 638/9/3 632/9/3 637/9/3
f 638/3/3 634/3/3 633/3/3
f 639/3/3 634/3/3 638/3/3
f 640/3/3 634/3/3 639/3/3
f 641/3/3 638/3/3 637/3/3
f 641/3/3 639/3/3 638/3/3
f 642/3/3 639/3/3 641/3/3
f 643/3/3 636/3/3 627/3/3
f 644/3/3 639/3/3 642/3/3
f 645/3/3 639/3/3 644/3/3
f 646/3/3 639/3/3 645/3/3
f 648/3/3 644/3/3 643/3/3
f 648/9/3 645/9/3 644/9/3
f 649/3/3 647/3/3 646/3/3
f 649/9/3 645/9/3 648/9/3
f 649/3/3 646/3/3 645/3/3
f 650/3/3 647/3/3 649/3/3
f 651/3/3 647/3/3 650/3/3
f 653/7/3 651/7/3 650/7/3
f 653/3/3 649/3/3 648/3/3
f 653/3/3 650/3/3 649/3/3
f 654/3/3 652/3/3 651/3/3
f 654/7/3 651/7/3 653/7/3
f 657/3/3 653/3/3 648/3/3
f 657/3/3 643/3/3 627/3/3
f 657/3/3 648/3/3 643/3/3
f 657/3/3 654/3/3 653/3/3
f 658/3/3 652/3/3 654/3/3
f 658/3/3 654/3/3 657/3/3
f 659/4/3 656/4/3 655/4/3
f 660/4/3 656/4/3 659/4/3
f 663/4/3 662/4/3 661/4/3
f 664/4/3 662/4/3 663/4/3
f 667/4/3 666/4/3 665/4/3
f 668/4/3 666/4/3 667/4/3
f 671/4/3 670/4/3 669/4/3
f 672/4/3 670/4/3 671/4/3
f 675/5/3 674/5/3 673/5/3
f 676/5/3 674/5/3 675/5/3
f 679/5/3 678/5/3 677/5/3
f 680/5/3 678/5/3 679/5/3
f 683/4/3 682/4/3 681/4/3
f 684/4/3 682/4/3 683/4/3
f 687/3/3 686/3/3 685/3/3
f 688/3/3 686/3/3 687/3/3
f 691/3/3 690/3/3 689/3/3
f 692/3/3 690/3/3 691/3/3
f 695/5/3 694/5/3 693/5/3
f 696/5/3 694/5/3 695/5/3
f 699/5/3 698/5/3 697/5/3
f 700/5/3 698/5/3 699/5/3
f 703/5/3 702/5/3 701/5/3
f 704/5/3 702/5/3 703/5/3
f 707/3/3 706/3/3 705/3/3
f 708/3/3 706/3/3 707/3/3
f 711/3/3 710/3/3 709/3/3
f 712/3/3 710/3/3 711/3/3
f 715/5/3 714/5/3 713/5/3
f 716/5/3 714/5/3 715/5/3
f 719/4/3 718/4/3 717/4/3
f 720/4/3 718/4/3 719/4/3
f 723/4/3 722/4/3 721/4/3
f 724/4/3 722/4/3 723/4/3
f 727/4/3 726/4/3 725/4/3
f 728/4/3 726/4/3 727/4/3
f 731/4/3 730/4/3 729/4/3
f 732/4/3 730/4/3 731/4/3
f 735/4/3 734/4/3 733/4/3
f 736/4/3 734/4/3 735/4/3
f 739/4/3 738/4/3 737/4/3
f 740/4/3 738/4/3 739/4/3
f 743/4/3 742/4/3 741/4/3
f 744/4/3 742/4/3 743/4/3
f 747/4/3 746/4/3 745/4/3
f 748/4/3 746/4/3 747/4/3
f 751/4/3 750/4/3 749/4/3
f 752/4/3 750/4/3 751/4/3
f 759/4/3 754/4/3 753/4/3
f 760/3/3 755/3/3 754/3/3
f 760/4/3 754/4/3 759/4/3
f 761/4/3 756/4/3 755/4/3
f 761/3/3 755/3/3 760/3/3
f 762/3/3 757/3/3 756/3/3
f 762/4/3 756/4/3 761/4/3
f 763/4/3 758/4/3 757/4/3
f 763/3/3 757/3/3 762/3/3
f 764/4/3 758/4/3 763/4/3
f 771/4/3 766/4/3 765/4/3
f 772/3/3 767/3/3 766/3/3
f 772/4/3 766/4/3 771/4/3
f 773/4/3 768/4/3 767/4/3
f 773/3/3 767/3/3 772/3/3
f 774/3/3 769/3/3 768/3/3
f 774/4/3 768/4/3 773/4/3
f 775/4/3 770/4/3 769/4/3
f 775/3/3 769/3/3 774/3/3
f 776/4/3 770/4/3 775/4/3
f 778/4/3 777/4/3 776/4/3
f 779/4/3 777/4/3 778/4/3
f 782/4/3 781/4/3 780/4/3
f 783/4/3 781/4/3 782/4/3
f 786/4/3 785/4/3 784/4/3
f 787/4/3 785/4/3 786/4/3
f 790/4/3 789/4/3 788/4/3
f 793/4/3 792/4/3 791/4/3
f 796/4/3 795/4/3 794/4/3
f 797/4/3 790/4/3 788/4/3
f 798/3/3 791/3/3 790/3/3
f 798/4/3 790/4/3 797/4/3
f 799/4/3 793/4/3 791/4/3
f 799/3/3 791/3/3 798/3/3
f 800/3/3 794/3/3 793/3/3
f 800/4/3 793/4/3 799/4/3
f 801/4/3 796/4/3 794/4/3
f 801/3/3 794/3/3 800/3/3
f 802/4/3 796/4/3 801/4/3
f 805/4/3 804/4/3 803/4/3
f 806/4/3 804/4/3 805/4/3
f 809/4/3 808/4/3 807/4/3
f 810/4/3 808/4/3 809/4/3
f 813/4/3 812/4/3 811/4/3
f 814/4/3 812/4/3 813/4/3
f 817/4/3 816/4/3 815/4/3
f 818/4/3 816/4/3 817/4/3
f 821/4/3 820/4/3 819/4/3
f 822/4/3 820/4/3 821/4/3
f 828/3/3 824/3/3 823/3/3
f 829/4/3 825/4/3 824/4/3
f 829/3/3 824/3/3 828/3/3
f 830/3/3 826/3/3 825/3/3
f 830/4/3 825/4/3 829/4/3
f 831/3/3 826/3/3 830/3/3
f 832/4/3 827/4/3 826/4/3
f 832/3/3 826/3/3 831/3/3
f 833/4/3 827/4/3 832/4/3
f 834/4/3 827/4/3 833/4/3
f 835/4/3 827/4/3 834/4/3
f 842/4/3 837/4/3 836/4/3
f 843/3/3 838/3/3 837/3/3
f 843/4/3 837/4/3 842/4/3
f 844/4/3 839/4/3 838/4/3
f 844/3/3 838/3/3 843/3/3
f 845/3/3 840/3/3 839/3/3
f 845/4/3 839/4/3 844/4/3
f 846/4/3 841/4/3 840/4/3
f 846/3/3 840/3/3 845/3/3
f 847/4/3 841/4/3 846/4/3
f 852/4/3 851/4/3 850/4/3
f 855/4/3 849/4/3 848/4/3
f 856/3/3 850/3/3 849/3/3
f 856/4/3 849/4/3 855/4/3
f 857/3/3 850/3/3 856/3/3
f 858/4/3 852/4/3 850/4/3
f 858/3/3 850/3/3 857/3/3
f 859/3/3 853/3/3 852/3/3
f 859/4/3 852/4/3 858/4/3
f 860/4/3 854/4/3 853/4/3
f 860/3/3 853/3/3 859/3/3
f 861/4/3 854/4/3 860/4/3
f 863/4/3 862/4/3 861/4/3
f 864/4/3 862/4/3 863/4/3
f 867/3/3 866/3/3 865/3/3
f 868/3/3 866/3/3 867/3/3
f 871/4/3 870/4/3 869/4/3
f 872/4/3 870/4/3 871/4/3
f 876/5/3 874/5/3 873/5/3
f 876/6/3 875/6/3 874/6/3
f 877/6/3 875/6/3 876/6/3
f 878/5/3 876/5/3 873/5/3
f 879/5/3 876/5/3 878/5/3
f 883/6/3 882/6/3 881/6/3
f 883/5/3 881/5/3 880/5/3
f 884/6/3 882/6/3 883/6/3
f 885/5/3 883/5/3 880/5/3
f 886/5/3 883/5/3 885/5/3
f 889/4/3 888/4/3 887/4/3
f 890/4/3 888/4/3 889/4/3
f 893/3/3 892/3/3 891/3/3
f 894/3/3 892/3/3 893/3/3
f 898/5/3 896/5/3 895/5/3
f 898/5/3 897/5/3 896/5/3
f 899/5/3 897/5/3 898/5/3
f 902/4/3 901/4/3 900/4/3
f 903/4/3 901/4/3 902/4/3
f 906/5/3 905/5/3 904/5/3
f 907/5/3 905/5/3 906/5/3
f 908/5/3 905/5/3 907/5/3
f 911/5/3 910/5/3 909/5/3
f 913/5/3 911/5/3 909/5/3
f 913/5/3 912/5/3 911/5/3
f 914/5/3 912/5/3 913/5/3
f 917/5/3 916/5/3 915/5/3
f 919/5/3 917/5/3 915/5/3
f 919/5/3 918/5/3 917/5/3
f 920/5/3 918/5/3 919/5/3
f 923/6/3 922/6/3 921/6/3
f 924/6/3 922/6/3 923/6/3
f 927/4/3 926/4/3 925/4/3
f 928/4/3 926/4/3 927/4/3
f 931/4/3 930/4/3 929/4/3
f 932/4/3 930/4/3 931/4/3
f 933/3/3 932/3/3 931/3/3
f 934/3/3 932/3/3 933/3/3
f 937/4/3 936/4/3 935/4/3
f 938/4/3 936/4/3 937/4/3
f 942/5/3 940/5/3 939/5/3
f 942/6/3 941/6/3 940/6/3
f 943/6/3 941/6/3 942/6/3
f 944/5/3 942/5/3 939/5/3
f 945/5/3 942/5/3 944/5/3
f 946/5/4 947/5/4 948/5/4
f 948/5/4 947/5/4 949/5/4
f 950/5/4 951/5/4 952/5/4
f 952/5/4 951/5/4 953/5/4
f 954/3/4 955/3/4 956/3/4
f 956/3/4 955/3/4 957/3/4
f 954/3/4 956/3/4 958/3/4
f 958/3/4 956/3/4 959/3/4
f 960/3/4 961/3/4 962/3/4
f 960/3/4 962/3/4 964/3/4
f 962/3/4 963/3/4 964/3/4
f 964/3/4 963/3/4 965/3/4
f 966/5/4 967/5/4 968/5/4
f 968/5/4 967/5/4 969/5/4
f 970/5/4 971/5/4 972/5/4
f 972/5/4 971/5/4 973/5/4
f 974/3/4 975/3/4 976/3/4
f 976/3/4 975/3/4 977/3/4
f 978/3/4 979/3/4 980/3/4
f 980/3/4 979/3/4 981/3/4
f 982/5/4 983/5/4 984/5/4
f 984/5/4 983/5/4 985/5/4
f 986/5/4 987/5/4 988/5/4
f 988/5/4 987/5/4 989/5/4
f 990/3/4 991/3/4 992/3/4
f 992/3/4 991/3/4 993/3/4
f 994/3/4 995/3/4 996/3/4
f 996/3/4 995/3/4 997/3/4
f 998/4/4 999/4/4 1000/4/4
f 1000/4/4 999/4/4 1001/4/4
f 1002/3/4 1003/3/4 1004/3/4
f 1004/3/4 1003/3/4 1005/3/4
f 1005/3/4 1003/3/4 1006/3/4
f 1006/3/4 1003/3/4 1009/3/4
f 1007/3/4 1008/3/4 1012/3/4
f 1008/3/4 1009/3/4 1012/3/4
f 1009/3/4 1003/3/4 1013/3/4
f 1012/3/4 1009/3/4 1013/3/4
f 1010/4/4 1011/4/4 1014/4/4
f 1014/4/4 1011/4/4 1015/4/4
f 1016/4/4 1017/4/4 1018/4/4
f 1018/4/4 1017/4/4 1019/4/4
f 1020/4/4 1021/4/4 1022/4/4
f 1022/4/4 1021/4/4 1023/4/4
f 1024/4/4 1025/4/4 1026/4/4
f 1026/4/4 1025/4/4 1027/4/4
f 1028/4/4 1029/4/4 1030/4/4
f 1030/4/4 1029/4/4 1031/4/4
f 1032/4/4 1033/4/4 1034/4/4
f 1034/4/4 1033/4/4 1035/4/4
f 1036/4/4 1037/4/4 1038/4/4
f 1038/4/4 1037/4/4 1039/4/4
f 1040/4/4 1041/4/4 1042/4/4
f 1042/4/4 1041/4/4 1043/4/4
f 1044/7/4 1045/7/4 1047/7/4
f 1045/3/4 1046/3/4 1048/3/4
f 1047/7/4 1045/7/4 1048/7/4
f 1048/3/4 1046/3/4 1049/3/4
f 1050/4/4 1051/4/4 1055/4/4
f 1051/3/4 1052/3/4 1056/3/4
f 1055/4/4 1051/4/4 1056/4/4
f 1052/4/4 1053/4/4 1057/4/4
f 1056/3/4 1052/3/4 1057/3/4
f 1053/3/4 1054/3/4 1058/3/4
f 1057/4/4 1053/4/4 1058/4/4
f 1058/3/4 1054/3/4 1059/3/4
f 1060/4/4 1061/4/4 1062/4/4
f 1062/4/4 1061/4/4 1063/4/4
f 1064/4/4 1065/4/4 1066/4/4
f 1066/4/4 1065/4/4 1067/4/4
f 1068/4/4 1069/4/4 1070/4/4
f 1070/4/4 1069/4/4 1071/4/4
f 1072/4/4 1073/4/4 1074/4/4
f 1074/4/4 1073/4/4 1075/4/4
f 1076/4/4 1077/4/4 1078/4/4
f 1078/4/4 1077/4/4 1079/4/4
f 1080/4/4 1081/4/4 1082/4/4
f 1082/4/4 1081/4/4 1083/4/4
f 1084/4/4 1085/4/4 1086/4/4
f 1086/4/4 1085/4/4 1087/4/4
f 1088/4/4 1089/4/4 1090/4/4
f 1090/4/4 1089/4/4 1091/4/4
f 1092/4/4 1093/4/4 1094/4/4
f 1094/4/4 1093/4/4 1095/4/4
f 1096/4/4 1097/4/4 1098/4/4
f 1098/4/4 1097/4/4 1099/4/4
f 1100/3/4 1101/3/4 1102/3/4
f 1102/3/4 1101/3/4 1103/3/4
f 1104/3/4 1105/3/4 1106/3/4
f 1106/3/4 1105/3/4 1107/3/4
f 1107/3/4 1105/3/4 1108/3/4
f 1109/3/4 1110/3/4 1111/3/4
f 1111/3/4 1110/3/4 1112/3/4
f 1113/3/4 1114/3/4 1115/3/4
f 1115/3/4 1114/3/4 1116/3/4
f 1117/3/4 1118/3/4 1119/3/4
f 1119/3/4 1118/3/4 1120/3/4
f 1121/5/4 1122/5/4 1124/5/4
f 1122/6/4 1123/6/4 1124/6/4
f 1124/6/4 1123/6/4 1125/6/4
f 1121/5/4 1124/5/4 1126/5/4
f 1126/5/4 1124/5/4 1127/5/4
f 1129/6/4 1130/6/4 1131/6/4
f 1128/5/4 1129/5/4 1131/5/4
f 1131/6/4 1130/6/4 1132/6/4
f 1128/5/4 1131/5/4 1133/5/4
f 1133/5/4 1131/5/4 1134/5/4
f 1135/5/4 1136/5/4 1137/5/4
f 1137/5/4 1136/5/4 1138/5/4
f 1139/5/4 1140/5/4 1141/5/4
f 1141/5/4 1140/5/4 1142/5/4
f 1139/5/4 1141/5/4 1144/5/4
f 1144/5/4 1141/5/4 1145/5/4
f 1143/5/4 1144/5/4 1148/5/4
f 1148/5/4 1144/5/4 1149/5/4
f 1146/5/4 1147/5/4 1150/5/4
f 1150/5/4 1147/5/4 1151/5/4
f 1150/5/4 1151/5/4 1154/5/4
f 1151/5/4 1152/5/4 1154/5/4
f 1152/6/4 1153/6/4 1155/6/4
f 1154/5/4 1152/5/4 1155/5/4
f 1155/6/4 1153/6/4 1156/6/4
f 1157/4/4 1158/4/4 1159/4/4
f 1159/4/4 1158/4/4 1160/4/4
f 1161/4/4 1162/4/4 1163/4/4
f 1163/4/4 1162/4/4 1164/4/4
f 1165/4/4 1166/4/4 1167/4/4
f 1167/4/4 1166/4/4 1168/4/4
f 1169/4/4 1170/4/4 1171/4/4
f 1171/4/4 1170/4/4 1172/4/4
f 1173/4/4 1174/4/4 1177/4/4
f 1174/3/4 1175/3/4 1178/3/4
f 1177/4/4 1174/4/4 1178/4/4
f 1175/4/4 1176/4/4 1179/4/4
f 1178/3/4 1175/3/4 1179/3/4
f 1179/4/4 1176/4/4 1180/4/4
f 1181/4/4 1182/4/4 1187/4/4
f 1183/3/4 1184/3/4 1188/3/4
f 1187/4/4 1182/4/4 1188/4/4
f 1182/3/4 1183/3/4 1188/3/4
f 1184/3/4 1185/3/4 1188/3/4
f 1185/4/4 1186/4/4 1189/4/4
f 1188/3/4 1185/3/4 1189/3/4
f 1189/4/4 1186/4/4 1190/4/4
f 1193/5/4 1194/5/4 1196/5/4
f 1194/6/4 1195/6/4 1196/6/4
f 1196/6/4 1195/6/4 1197/6/4
f 1193/5/4 1196/5/4 1198/5/4
f 1198/5/4 1196/5/4 1199/5/4
f 1191/4/4 1192/4/4 1200/4/4
f 1200/4/4 1192/4/4 1201/4/4
f 1202/4/4 1203/4/4 1204/4/4
f 1204/4/4 1203/4/4 1205/4/4
f 1210/4/4 1211/4/4 1212/4/4
f 1212/4/4 1213/4/4 1214/4/4
f 1206/4/4 1207/4/4 1216/4/4
f 1207/3/4 1208/3/4 1217/3/4
f 1216/4/4 1207/4/4 1217/4/4
f 1208/4/4 1209/4/4 1218/4/4
f 1217/3/4 1208/3/4 1218/3/4
f 1209/3/4 1210/3/4 1219/3/4
f 1218/4/4 1209/4/4 1219/4/4
f 1214/4/4 1215/4/4 1220/4/4
f 1219/3/4 1210/3/4 1220/3/4
f 1210/4/4 1212/4/4 1220/4/4
f 1212/4/4 1214/4/4 1220/4/4
f 1220/4/4 1215/4/4 1221/4/4
f 1229/4/5 1223/4/5 1222/4/5
f 1230/4/5 1223/4/5 1229/4/5
f 1233/4/5 1225/4/5 1224/4/5
f 1234/4/5 1225/4/5 1233/4/5
f 1237/4/5 1227/4/5 1226/4/5
f 1238/4/5 1227/4/5 1237/4/5
f 1240/4/5 1231/4/5 1230/4/5
f 1240/4/5 1229/4/5 1228/4/5
f 1240/4/5 1230/4/5 1229/4/5
f 1241/4/5 1231/4/5 1240/4/5
f 1242/4/5 1231/4/5 1241/4/5
f 1243/4/5 1231/4/5 1242/4/5
f 1244/4/5 1235/4/5 1234/4/5
f 1244/4/5 1233/4/5 1232/4/5
f 1244/4/5 1234/4/5 1233/4/5
f 1245/4/5 1235/4/5 1244/4/5
f 1246/4/5 1235/4/5 1245/4/5
f 1247/4/5 1235/4/5 1246/4/5
f 1248/4/5 1239/4/5 1238/4/5
f 1248/4/5 1238/4/5 1237/4/5
f 1248/4/5 1237/4/5 1236/4/5
f 1249/4/5 1239/4/5 1248/4/5
f 1250/4/5 1239/4/5 1249/4/5
f 1251/4/5 1239/4/5 1250/4/5
f 1252/4/5 1242/4/5 1241/4/5
f 1253/4/5 1242/4/5 1252/4/5
f 1254/4/5 1246/4/5 1245/4/5
f 1255/4/5 1246/4/5 1254/4/5
f 1256/4/5 1250/4/5 1249/4/5
f 1257/4/5 1250/4/5 1256/4/5
f 1265/4/5 1259/4/5 1258/4/5
f 1266/4/5 1259/4/5 1265/4/5
f 1269/4/5 1261/4/5 1260/4/5
f 1270/4/5 1261/4/5 1269/4/5
f 1273/4/5 1263/4/5 1262/4/5
f 1274/4/5 1263/4/5 1273/4/5
f 1276/4/5 1267/4/5 1266/4/5
f 1276/4/5 1265/4/5 1264/4/5
f 1276/4/5 1266/4/5 1265/4/5
f 1277/4/5 1267/4/5 1276/4/5
f 1278/4/5 1267/4/5 1277/4/5
f 1279/4/5 1267/4/5 1278/4/5
f 1280/4/5 1271/4/5 1270/4/5
f 1280/4/5 1269/4/5 1268/4/5
f 1280/4/5 1270/4/5 1269/4/5
f 1281/4/5 1271/4/5 1280/4/5
f 1282/4/5 1271/4/5 1281/4/5
f 1283/4/5 1271/4/5 1282/4/5
f 1284/4/5 1274/4/5 1273/4/5
f 1284/4/5 1275/4/5 1274/4/5
f 1284/4/5 1273/4/5 1272/4/5
f 1285/4/5 1275/4/5 1284/4/5
f 1286/4/5 1275/4/5 1285/4/5
f 1287/4/5 1275/4/5 1286/4/5
f 1288/4/5 1278/4/5 1277/4/5
f 1289/4/5 1278/4/5 1288/4/5
f 1290/4/5 1282/4/5 1281/4/5
f 1291/4/5 1282/4/5 1290/4/5
f 1292/4/5 1286/4/5 1285/4/5
f 1293/4/5 1286/4/5 1292/4/5
f 1301/4/5 1295/4/5 1294/4/5
f 1302/4/5 1295/4/5 1301/4/5
f 1305/4/5 1297/4/5 1296/4/5
f 1306/4/5 1297/4/5 1305/4/5
f 1309/4/5 1299/4/5 1298/4/5
f 1310/4/5 1299/4/5 1309/4/5
f 1312/4/5 1303/4/5 1302/4/5
f 1312/4/5 1301/4/5 1300/4/5
f 1312/4/5 1302/4/5 1301/4/5
f 1313/4/5 1303/4/5 1312/4/5
f 1314/4/5 1303/4/5 1313/4/5
f 1315/4/5 1303/4/5 1314/4/5
f 1316/4/5 1307/4/5 1306/4/5
f 1316/4/5 1305/4/5 1304/4/5
f 1316/4/5 1306/4/5 1305/4/5
f 1317/4/5 1307/4/5 1316/4/5
f 1318/4/5 1307/4/5 1317/4/5
f 1319/4/5 1307/4/5 1318/4/5
f 1320/4/5 1310/4/5 1309/4/5
f 1320/4/5 1311/4/5 1310/4/5
f 1320/4/5 1309/4/5 1308/4/5
f 1321/4/5 1311/4/5 1320/4/5
f 1322/4/5 1311/4/5 1321/4/5
f 1323/4/5 1311/4/5 1322/4/5
f 1324/4/5 1314/4/5 1313/4/5
f 1325/4/5 1314/4/5 1324/4/5
f 1326/4/5 1318/4/5 1317/4/5
f 1327/4/5 1318/4/5 1326/4/5
f 1328/4/5 1322/4/5 1321/4/5
f 1329/4/5 1322/4/5 1328/4/5
f 1332/3/5 1331/3/5 1330/3/5
f 1333/3/5 1331/3/5 1332/3/5
f 1334/3/5 1331/3/5 1333/3/5
f 1335/3/5 1331/3/5 1334/3/5
f 1336/3/5 1332/3/5 1330/3/5
f 1337/3/5 1334/3/5 1333/3/5
f 1338/3/5 1334/3/5 1337/3/5
f 1339/3/5 1331/3/5 1335/3/5
f 1340/3/5 1338/3/5 1337/3/5
f 1340/3/5 1339/3/5 1338/3/5
f 1340/3/5 1336/3/5 1330/3/5
f 1340/3/5 1337/3/5 1336/3/5
f 1341/3/5 1339/3/5 1340/3/5
f 1342/3/5 1339/3/5 1341/3/5
f 1343/3/5 1331/3/5 1339/3/5
f 1343/3/5 1339/3/5 1342/3/5
f 1344/3/5 1340/3/5 1330/3/5
f 1345/3/5 1342/3/5 1341/3/5
f 1346/3/5 1342/3/5 1345/3/5
f 1347/3/5 1331/3/5 1343/3/5
f 1348/3/5 1344/3/5 1330/3/5
f 1348/3/5 1347/3/5 1346/3/5
f 1348/3/5 1346/3/5 1345/3/5
f 1348/3/5 1345/3/5 1344/3/5
f 1349/3/5 1347/3/5 1348/3/5
f 1350/3/5 1347/3/5 1349/3/5
f 1351/3/5 1331/3/5 1347/3/5
f 1351/3/5 1347/3/5 1350/3/5
f 1352/7/5 1350/7/5 1349/7/5
f 1353/7/5 1350/7/5 1352/7/5
f 1357/5/5 1355/5/5 1354/5/5
f 1358/5/5 1355/5/5 1357/5/5
f 1359/5/5 1355/5/5 1358/5/5
f 1360/5/5 1357/5/5 1356/5/5
f 1360/5/5 1358/5/5 1357/5/5
f 1361/5/5 1358/5/5 1360/5/5
f 1363/5/5 1362/5/5 1361/5/5
f 1364/5/5 1362/5/5 1363/5/5
f 1367/5/5 1366/5/5 1365/5/5
f 1368/5/5 1366/5/5 1367/5/5
f 1369/5/5 1366/5/5 1368/5/5
f 1371/5/5 1370/5/5 1369/5/5
f 1371/5/5 1369/5/5 1368/5/5
f 1372/5/5 1370/5/5 1371/5/5
f 1375/7/5 1374/7/5 1373/7/5
f 1376/7/5 1374/7/5 1375/7/5
f 1379/3/5 1378/3/5 1377/3/5
f 1380/3/5 1378/3/5 1379/3/5
f 1384/3/5 1382/3/5 1381/3/5
f 1385/3/5 1384/3/5 1383/3/5
f 1386/3/5 1384/3/5 1385/3/5
f 1387/3/5 1382/3/5 1384/3/5
f 1387/3/5 1384/3/5 1386/3/5
f 1389/3/5 1388/3/5 1387/3/5
f 1389/3/5 1387/3/5 1386/3/5
f 1390/3/5 1388/3/5 1389/3/5
f 1391/3/5 1388/3/5 1390/3/5
f 1392/3/5 1388/3/5 1391/3/5
f 1393/3/5 1388/3/5 1392/3/5
f 1394/3/5 1391/3/5 1390/3/5
f 1395/3/5 1391/3/5 1394/3/5
f 1398/4/5 1397/4/5 1396/4/5
f 1399/4/5 1397/4/5 1398/4/5
f 1402/4/5 1401/4/5 1400/4/5
f 1403/4/5 1401/4/5 1402/4/5
f 1406/5/5 1405/5/5 1404/5/5
f 1407/5/5 1405/5/5 1406/5/5
f 1410/4/5 1409/4/5 1408/4/5
f 1411/4/5 1409/4/5 1410/4/5
f 1412/4/5 1409/4/5 1411/4/5
f 1413/4/5 1409/4/5 1412/4/5
f 1414/4/6 1415/4/6 1421/4/6
f 1421/4/6 1415/4/6 1422/4/6
f 1416/4/6 1417/4/6 1425/4/6
f 1425/4/6 1417/4/6 1426/4/6
f 1418/4/6 1419/4/6 1429/4/6
f 1429/4/6 1419/4/6 1430/4/6
f 1430/4/6 1419/4/6 1431/4/6
f 1431/4/6 1419/4/6 1432/4/6
f 1432/4/6 1419/4/6 1433/4/6
f 1433/4/6 1419/4/6 1434/4/6
f 1422/4/6 1423/4/6 1436/4/6
f 1420/4/6 1421/4/6 1436/4/6
f 1421/4/6 1422/4/6 1436/4/6
f 1436/4/6 1423/4/6 1437/4/6
f 1437/4/6 1423/4/6 1438/4/6
f 1438/4/6 1423/4/6 1439/4/6
f 1428/4/6 1429/4/6 1440/4/6
f 1429/4/6 1430/4/6 1440/4/6
f 1431/4/6 1432/4/6 1441/4/6
f 1441/4/6 1432/4/6 1442/4/6
f 1434/4/6 1435/4/6 1443/4/6
f 1433/4/6 1434/4/6 1443/4/6
f 1443/4/6 1435/4/6 1444/4/6
f 1444/4/6 1435/4/6 1445/4/6
f 1441/4/6 1442/4/6 1446/4/6
f 1440/4/6 1441/4/6 1446/4/6
f 1443/4/6 1444/4/6 1446/4/6
f 1442/4/6 1443/4/6 1446/4/6
f 1446/4/6 1444/4/6 1447/4/6
f 1447/4/6 1444/4/6 1448/4/6
f 1445/4/6 1435/4/6 1449/4/6
f 1440/4/6 1446/4/6 1450/4/6
f 1447/4/6 1448/4/6 1451/4/6
f 1448/4/6 1449/4/6 1451/4/6
f 1420/4/6 1436/4/6 1452/4/6
f 1437/4/6 1438/4/6 1453/4/6
f 1453/4/6 1438/4/6 1454/4/6
f 1439/4/6 1423/4/6 1455/4/6
f 1450/4/6 1451/4/6 1456/4/6
f 1451/4/6 1449/4/6 1456/4/6
f 1456/4/6 1449/4/6 1457/4/6
f 1450/4/6 1456/4/6 1458/4/6
f 1457/4/6 1449/4/6 1459/4/6
f 1453/4/6 1454/4/6 1460/4/6
f 1454/4/6 1455/4/6 1460/4/6
f 1420/4/6 1452/4/6 1460/4/6
f 1452/4/6 1453/4/6 1460/4/6
f 1460/4/6 1455/4/6 1461/4/6
f 1461/4/6 1455/4/6 1462/4/6
f 1455/4/6 1423/4/6 1463/4/6
f 1462/4/6 1455/4/6 1463/4/6
f 1458/4/6 1459/4/6 1464/4/6
f 1459/4/6 1449/4/6 1464/4/6
f 1449/4/6 1435/4/6 1464/4/6
f 1464/4/6 1435/4/6 1465/4/6
f 1458/4/6 1464/4/6 1466/4/6
f 1465/4/6 1435/4/6 1467/4/6
f 1420/4/6 1460/4/6 1468/4/6
f 1461/4/6 1462/4/6 1469/4/6
f 1469/4/6 1462/4/6 1470/4/6
f 1463/4/6 1423/4/6 1471/4/6
f 1469/4/6 1470/4/6 1472/4/6
f 1470/4/6 1471/4/6 1472/4/6
f 1420/4/6 1468/4/6 1472/4/6
f 1468/4/6 1469/4/6 1472/4/6
f 1472/4/6 1471/4/6 1473/4/6
f 1471/4/6 1423/4/6 1474/4/6
f 1473/4/6 1471/4/6 1474/4/6
f 1474/4/6 1423/4/6 1475/4/6
f 1426/4/6 1427/4/6 1476/4/6
f 1424/4/6 1425/4/6 1476/4/6
f 1425/4/6 1426/4/6 1476/4/6
f 1476/4/6 1427/4/6 1477/4/6
f 1477/4/6 1427/4/6 1478/4/6
f 1478/4/6 1427/4/6 1479/4/6
f 1440/4/6 1450/4/6 1480/4/6
f 1428/4/6 1440/4/6 1480/4/6
f 1458/4/6 1466/4/6 1480/4/6
f 1466/4/6 1467/4/6 1480/4/6
f 1450/4/6 1458/4/6 1480/4/6
f 1480/4/6 1467/4/6 1481/4/6
f 1467/4/6 1435/4/6 1482/4/6
f 1481/4/6 1467/4/6 1482/4/6
f 1482/4/6 1435/4/6 1483/4/6
f 1473/4/6 1474/4/6 1484/4/6
f 1484/4/6 1474/4/6 1485/4/6
f 1477/4/6 1478/4/6 1486/4/6
f 1486/4/6 1478/4/6 1487/4/6
f 1481/4/6 1482/4/6 1488/4/6
f 1488/4/6 1482/4/6 1489/4/6
f 1490/4/6 1491/4/6 1497/4/6
f 1497/4/6 1491/4/6 1498/4/6
f 1492/4/6 1493/4/6 1501/4/6
f 1501/4/6 1493/4/6 1502/4/6
f 1494/4/6 1495/4/6 1505/4/6
f 1505/4/6 1495/4/6 1506/4/6
f 1505/4/6 1506/4/6 1508/4/6
f 1506/4/6 1507/4/6 1508/4/6
f 1504/4/6 1505/4/6 1508/4/6
f 1508/4/6 1507/4/6 1509/4/6
f 1504/4/6 1508/4/6 1510/4/6
f 1510/4/6 1508/4/6 1511/4/6
f 1504/4/6 1510/4/6 1512/4/6
f 1498/4/6 1499/4/6 1514/4/6
f 1496/4/6 1497/4/6 1514/4/6
f 1497/4/6 1498/4/6 1514/4/6
f 1514/4/6 1499/4/6 1515/4/6
f 1515/4/6 1499/4/6 1516/4/6
f 1516/4/6 1499/4/6 1517/4/6
f 1502/4/6 1503/4/6 1518/4/6
f 1500/4/6 1501/4/6 1518/4/6
f 1501/4/6 1502/4/6 1518/4/6
f 1518/4/6 1503/4/6 1519/4/6
f 1519/4/6 1503/4/6 1520/4/6
f 1520/4/6 1503/4/6 1521/4/6
f 1512/4/6 1513/4/6 1522/4/6
f 1504/4/6 1512/4/6 1522/4/6
f 1522/4/6 1513/4/6 1523/4/6
f 1523/4/6 1513/4/6 1524/4/6
f 1524/4/6 1513/4/6 1525/4/6
f 1515/4/6 1516/4/6 1526/4/6
f 1526/4/6 1516/4/6 1527/4/6
f 1519/4/6 1520/4/6 1528/4/6
f 1528/4/6 1520/4/6 1529/4/6
f 1523/4/6 1524/4/6 1530/4/6
f 1530/4/6 1524/4/6 1531/4/6
f 1532/4/6 1533/4/6 1539/4/6
f 1539/4/6 1533/4/6 1540/4/6
f 1534/4/6 1535/4/6 1543/4/6
f 1543/4/6 1535/4/6 1544/4/6
f 1536/4/6 1537/4/6 1547/4/6
f 1547/4/6 1537/4/6 1548/4/6
f 1548/4/6 1537/4/6 1549/4/6
f 1546/4/6 1547/4/6 1550/4/6
f 1547/4/6 1548/4/6 1550/4/6
f 1550/4/6 1548/4/6 1551/4/6
f 1540/4/6 1541/4/6 1552/4/6
f 1538/4/6 1539/4/6 1552/4/6
f 1539/4/6 1540/4/6 1552/4/6
f 1552/4/6 1541/4/6 1553/4/6
f 1538/4/6 1552/4/6 1554/4/6
f 1553/4/6 1541/4/6 1555/4/6
f 1538/4/6 1554/4/6 1556/4/6
f 1554/4/6 1555/4/6 1556/4/6
f 1556/4/6 1555/4/6 1557/4/6
f 1555/4/6 1541/4/6 1558/4/6
f 1557/4/6 1555/4/6 1558/4/6
f 1558/4/6 1541/4/6 1559/4/6
f 1544/4/6 1545/4/6 1560/4/6
f 1542/4/6 1543/4/6 1560/4/6
f 1543/4/6 1544/4/6 1560/4/6
f 1560/4/6 1545/4/6 1561/4/6
f 1561/4/6 1545/4/6 1562/4/6
f 1562/4/6 1545/4/6 1563/4/6
f 1557/4/6 1558/4/6 1564/4/6
f 1564/4/6 1558/4/6 1565/4/6
f 1561/4/6 1562/4/6 1566/4/6
f 1566/4/6 1562/4/6 1567/4/6
f 1568/5/6 1569/5/6 1570/5/6
f 1570/5/6 1569/5/6 1571/5/6
f 1572/5/6 1573/5/6 1574/5/6
f 1574/5/6 1573/5/6 1575/5/6
f 1576/5/6 1577/5/6 1578/5/6
f 1578/5/6 1577/5/6 1579/5/6
f 1580/5/6 1581/5/6 1584/5/6
f 1584/5/6 1581/5/6 1585/5/6
f 1582/5/6 1583/5/6 1586/5/6
f 1586/5/6 1583/5/6 1587/5/6
f 1588/3/6 1589/3/6 1590/3/6
f 1590/3/6 1589/3/6 1591/3/6
f 1592/5/6 1593/5/6 1594/5/6
f 1594/5/6 1593/5/6 1595/5/6
f 1595/5/6 1593/5/6 1596/5/6
f 1596/5/6 1593/5/6 1597/5/6
f 1597/5/6 1598/5/6 1599/5/6
f 1596/5/6 1597/5/6 1599/5/6
f 1599/5/6 1598/5/6 1600/5/6
f 1601/5/6 1602/5/6 1603/5/6
f 1603/5/6 1602/5/6 1604/5/6
f 1605/4/6 1606/4/6 1607/4/6
f 1607/4/6 1606/4/6 1608/4/6
f 1609/4/6 1610/4/6 1613/4/6
f 1612/4/6 1613/4/6 1614/4/6
f 1614/4/6 1613/4/6 1615/4/6
f 1610/3/6 1611/3/6 1616/3/6
f 1615/4/6 1613/4/6 1623/4/6
f 1623/4/6 1613/4/6 1624/4/6
f 1613/4/6 1610/4/6 1625/4/6
f 1624/4/6 1613/4/6 1625/4/6
f 1616/3/6 1617/3/6 1626/3/6
f 1625/4/6 1610/4/6 1626/4/6
f 1610/3/6 1616/3/6 1626/3/6
f 1626/3/6 1617/3/6 1627/3/6
f 1618/5/6 1619/5/6 1628/5/6
f 1628/5/6 1619/5/6 1629/5/6
f 1621/5/6 1622/5/6 1630/5/6
f 1620/5/6 1621/5/6 1630/5/6
f 1630/5/6 1622/5/6 1631/5/6
f 1624/4/6 1625/4/6 1632/4/6
f 1632/4/6 1625/4/6 1633/4/6
f 1636/3/6 1637/3/6 1638/3/6
f 1638/3/6 1637/3/6 1639/3/6
f 1640/5/6 1641/5/6 1642/5/6
f 1642/5/6 1641/5/6 1643/5/6
f 1634/4/6 1635/4/6 1646/4/6
f 1646/4/6 1635/4/6 1647/4/6
f 1644/5/6 1645/5/6 1648/5/6
f 1648/5/6 1645/5/6 1649/5/6
f 1650/7/6 1651/7/6 1654/7/6
f 1651/9/6 1652/9/6 1655/9/6
f 1654/7/6 1651/7/6 1655/7/6
f 1652/7/6 1653/7/6 1656/7/6
f 1655/9/6 1652/9/6 1656/9/6
f 1656/7/6 1653/7/6 1657/7/6
f 1658/3/6 1659/3/6 1660/3/6
f 1660/3/6 1659/3/6 1661/3/6
f 1662/6/6 1663/6/6 1664/6/6
f 1664/6/6 1663/6/6 1665/6/6
f 1666/5/6 1667/5/6 1668/5/6
f 1668/5/6 1667/5/6 1669/5/6
f 1670/6/6 1671/6/6 1672/6/6
f 1672/6/6 1671/6/6 1673/6/6
f 1674/4/6 1675/4/6 1676/4/6
f 1676/4/6 1675/4/6 1677/4/6
f 1678/5/6 1679/5/6 1680/5/6
f 1680/5/6 1679/5/6 1681/5/6
f 1682/6/6 1683/6/6 1684/6/6
f 1684/6/6 1683/6/6 1685/6/6
f 1686/4/6 1687/4/6 1689/4/6
f 1689/4/6 1687/4/6 1690/4/6
f 1688/4/6 1689/4/6 1692/4/6
f 1691/4/6 1692/4/6 1694/4/6
f 1692/4/6 1689/4/6 1695/4/6
f 1694/4/6 1692/4/6 1695/4/6
f 1693/4/6 1694/4/6 1696/4/6
f 1696/4/6 1694/4/6 1697/4/6
f 1698/5/6 1699/5/6 1700/5/6
f 1700/5/6 1699/5/6 1701/5/6
f 1702/4/6 1703/4/6 1705/4/6
f 1704/4/6 1705/4/6 1706/4/6
f 1705/4/6 1703/4/6 1707/4/6
f 1706/4/6 1705/4/6 1707/4/6
f 1708/6/6 1709/6/6 1710/6/6
f 1710/6/6 1709/6/6 1711/6/6
f 1704/4/6 1706/4/6 1712/4/6
f 1712/4/6 1706/4/6 1713/4/6
f 1704/4/6 1712/4/6 1714/4/6
f 1714/4/6 1712/4/6 1715/4/6
f 1716/3/6 1717/3/6 1719/3/6
f 1719/3/6 1717/3/6 1720/3/6
f 1718/3/6 1719/3/6 1722/3/6
f 1720/3/6 1721/3/6 1722/3/6
f 1719/3/6 1720/3/6 1722/3/6
f 1722/3/6 1721/3/6 1723/3/6
f 1724/4/6 1725/4/6 1727/4/6
f 1727/4/6 1725/4/6 1728/4/6
f 1726/4/6 1727/4/6 1728/4/6
f 1728/4/6 1725/4/6 1729/4/6
f 1726/4/6 1728/4/6 1730/4/6
f 1730/4/6 1728/4/6 1731/4/6
f 1732/3/6 1733/3/6 1736/3/6
f 1736/3/6 1733/3/6 1737/3/6
f 1734/3/6 1735/3/6 1738/3/6
f 1738/3/6 1735/3/6 1739/3/6
f 1740/3/6 1741/3/6 1744/3/6
f 1744/3/6 1741/3/6 1745/3/6
f 1742/3/6 1743/3/6 1746/3/6
f 1746/3/6 1743/3/6 1747/3/6
