# MagicaVoxel @ Ephtracy

# group
o 

# material
mtllib chapter_one_tile.mtl
usemtl palette

# normals
vn -1 0 0
vn 1 0 0
vn 0 0 1
vn 0 0 -1
vn 0 -1 0
vn 0 1 0

# texcoords
vt 0.517578 0.5
vt 0.556641 0.5
vt 0.708984 0.5
vt 0.712891 0.5
vt 0.716797 0.5
vt 0.931641 0.5
vt 0.958984 0.5
vt 0.990234 0.5

# verts
v -1.9 0.3 1.8
v -1.9 0.3 0.8
v -1.9 0.3 0.5
v -1.9 0.3 -0.5
v -1.9 0.3 -0.8
v -1.9 0.3 -1.9
v -1.9 0.4 -1.8
v -1.9 0.4 -1.9
v -1.9 0.5 1.8
v -1.9 0.5 0.8
v -1.9 0.5 0.5
v -1.9 0.5 -0.5
v -1.9 0.5 -0.8
v -1.9 0.5 -1.8
v -1.9 0.7 1.4
v -1.9 0.7 0.8
v -1.9 1 1.4
v -1.9 1 0.8
v -1.8 0.3 1.9
v -1.8 0.3 1.8
v -1.8 0.3 0.8
v -1.8 0.3 0.7
v -1.8 0.3 0.6
v -1.8 0.3 0.5
v -1.8 0.3 -0.5
v -1.8 0.3 -0.6
v -1.8 0.3 -0.7
v -1.8 0.3 -0.8
v -1.8 0.4 -1.8
v -1.8 0.4 -1.9
v -1.8 0.5 1.9
v -1.8 0.5 1.8
v -1.8 0.5 0.8
v -1.8 0.5 0.7
v -1.8 0.5 0.6
v -1.8 0.5 0.5
v -1.8 0.5 -0.5
v -1.8 0.5 -0.6
v -1.8 0.5 -0.7
v -1.8 0.5 -0.8
v -1.8 0.5 -0.9
v -1.8 0.5 -1.1
v -1.8 0.5 -1.6
v -1.8 0.5 -1.7
v -1.8 0.5 -1.8
v -1.8 0.5 -1.9
v -1.8 0.6 1.8
v -1.8 0.6 0.7
v -1.8 0.6 -0.9
v -1.8 0.6 -1.1
v -1.8 0.6 -1.6
v -1.8 0.6 -1.7
v -1.8 0.7 1.4
v -1.8 0.7 0.8
v -1.8 1 1.4
v -1.8 1 0.8
v -1.8 1.1 0.9
v -1.8 1.1 0.7
v -1.8 1.5 1.8
v -1.8 1.5 0.9
v -1.7 0.5 -1.3
v -1.7 0.5 -1.6
v -1.7 0.6 -1.3
v -1.7 0.6 -1.6
v -1.6 0.5 1.6
v -1.6 0.5 1
v -1.6 0.6 1.6
v -1.6 0.6 1
v -1.5 0.5 -1.7
v -1.5 0.5 -1.8
v -1.5 0.6 -1.7
v -1.5 0.6 -1.8
v -1.5 1.5 1.6
v -1.5 1.5 1.1
v -1.5 1.7 1.6
v -1.5 1.7 1.1
v -1.4 0.5 -1.1
v -1.4 0.5 -1.2
v -1.4 0.6 -1.1
v -1.4 0.6 -1.2
v -1.4 0.9 1.9
v -1.4 0.9 1.8
v -1.4 1 1.9
v -1.4 1 1.8
v -1.2 0.5 1.6
v -1.2 0.5 1
v -1.2 0.5 -1.2
v -1.2 0.5 -1.4
v -1.2 0.5 -1.6
v -1.2 0.5 -1.7
v -1.2 0.6 1.6
v -1.2 0.6 1
v -1.2 0.6 -1.2
v -1.2 0.6 -1.4
v -1.2 0.6 -1.6
v -1.2 0.6 -1.7
v -0.6 0.3 1.8
v -0.6 0.3 0.8
v -0.6 0.3 0.5
v -0.6 0.3 -0.5
v -0.6 0.3 -0.8
v -0.6 0.3 -1.8
v -0.6 0.5 1.8
v -0.6 0.5 0.8
v -0.6 0.5 0.5
v -0.6 0.5 -0.5
v -0.6 0.5 -0.8
v -0.6 0.5 -1.8
v -0.5 0.3 1.9
v -0.5 0.3 1.8
v -0.5 0.3 0.8
v -0.5 0.3 0.7
v -0.5 0.3 0.6
v -0.5 0.3 0.5
v -0.5 0.3 -0.5
v -0.5 0.3 -0.6
v -0.5 0.3 -0.7
v -0.5 0.3 -0.8
v -0.5 0.3 -1.8
v -0.5 0.3 -1.9
v -0.5 0.5 1.9
v -0.5 0.5 1.8
v -0.5 0.5 0.8
v -0.5 0.5 0.7
v -0.5 0.5 0.6
v -0.5 0.5 0.5
v -0.5 0.5 -0.5
v -0.5 0.5 -0.6
v -0.5 0.5 -0.7
v -0.5 0.5 -0.8
v -0.5 0.5 -1.8
v -0.5 0.5 -1.9
v 0.7 0.3 1.8
v 0.7 0.3 0.8
v 0.7 0.3 0.5
v 0.7 0.3 -0.5
v 0.7 0.3 -0.8
v 0.7 0.3 -1.8
v 0.7 0.5 1.8
v 0.7 0.5 0.8
v 0.7 0.5 0.5
v 0.7 0.5 -0.5
v 0.7 0.5 -0.8
v 0.7 0.5 -1.8
v 0.8 0.3 1.9
v 0.8 0.3 1.8
v 0.8 0.3 0.8
v 0.8 0.3 0.7
v 0.8 0.3 0.6
v 0.8 0.3 0.5
v 0.8 0.3 -0.5
v 0.8 0.3 -0.6
v 0.8 0.3 -0.7
v 0.8 0.3 -0.8
v 0.8 0.3 -1.8
v 0.8 0.3 -1.9
v 0.8 0.5 1.9
v 0.8 0.5 1.8
v 0.8 0.5 0.8
v 0.8 0.5 0.7
v 0.8 0.5 0.6
v 0.8 0.5 0.5
v 0.8 0.5 -0.5
v 0.8 0.5 -0.6
v 0.8 0.5 -0.7
v 0.8 0.5 -0.8
v 0.8 0.5 -1.5
v 0.8 0.5 -1.6
v 0.8 0.5 -1.7
v 0.8 0.5 -1.8
v 0.8 0.5 -1.9
v 0.8 0.6 -1.5
v 0.8 0.6 -1.6
v 0.8 0.6 -1.7
v 0.8 0.6 -1.8
v 0.8 0.7 -1.4
v 0.8 0.7 -1.5
v 0.8 0.7 -1.6
v 0.8 0.7 -1.7
v 0.8 0.8 -1.4
v 0.8 0.8 -1.5
v 0.8 0.8 -1.7
v 0.8 0.8 -1.8
v 0.8 0.9 -1.7
v 0.8 0.9 -1.8
v 0.9 0.5 -1.4
v 0.9 0.5 -1.5
v 0.9 0.5 -1.6
v 0.9 0.5 -1.7
v 0.9 0.6 -1.5
v 0.9 0.6 -1.6
v 0.9 0.6 -1.7
v 0.9 0.6 -1.8
v 0.9 0.7 -1.4
v 0.9 0.7 -1.5
v 0.9 0.7 -1.6
v 0.9 0.7 -1.7
v 0.9 0.7 -1.8
v 0.9 0.8 -1.4
v 0.9 0.8 -1.5
v 0.9 0.8 -1.7
v 0.9 0.8 -1.8
v 0.9 0.9 -1.4
v 0.9 0.9 -1.7
v 1.1 0.5 1.8
v 1.1 0.5 1.5
v 1.1 0.6 1.7
v 1.1 0.6 1.6
v 1.1 0.7 1.7
v 1.1 0.7 1.6
v 1.1 0.8 1.8
v 1.1 0.8 1.5
v 1.2 0.6 -1
v 1.2 0.6 -1.1
v 1.2 0.7 -1
v 1.2 0.7 -1.1
v 1.3 0.5 -1
v 1.3 0.5 -1.1
v 1.3 0.6 -0.9
v 1.3 0.6 -1
v 1.3 0.6 -1.1
v 1.3 0.6 -1.2
v 1.3 0.7 -0.9
v 1.3 0.7 -1
v 1.3 0.7 -1.1
v 1.3 0.7 -1.2
v 1.5 0.5 1.5
v 1.5 0.5 1.4
v 1.5 0.5 1.3
v 1.5 0.5 0.9
v 1.5 0.6 1.5
v 1.5 0.6 1.4
v 1.5 0.6 1.3
v 1.5 0.6 1.1
v 1.5 0.6 1
v 1.5 0.6 -0.8
v 1.5 0.6 -0.9
v 1.5 0.7 1.5
v 1.5 0.7 1.1
v 1.5 0.7 1
v 1.5 0.7 -0.8
v 1.5 0.7 -0.9
v 1.5 0.7 -1.2
v 1.5 0.7 -1.3
v 1.5 0.8 1.5
v 1.5 0.8 0.9
v 1.5 0.8 -1.2
v 1.5 0.8 -1.3
v 1.6 0.5 -0.8
v 1.6 0.5 -0.9
v 1.6 0.5 -1.2
v 1.6 0.5 -1.3
v 1.6 0.6 -0.7
v 1.6 0.6 -0.8
v 1.6 0.6 -0.9
v 1.6 0.6 -1
v 1.6 0.7 -0.7
v 1.6 0.7 -0.8
v 1.6 0.7 -0.9
v 1.6 0.7 -1
v 1.6 0.7 -1.1
v 1.6 0.7 -1.2
v 1.6 0.7 -1.3
v 1.6 0.7 -1.4
v 1.6 0.8 -1.1
v 1.6 0.8 -1.2
v 1.6 0.8 -1.3
v 1.6 0.8 -1.4
v -1.7 0.5 -1.6
v -1.7 0.5 -1.7
v -1.7 0.6 -1.6
v -1.7 0.6 -1.7
v -1.6 0.5 -0.9
v -1.6 0.5 -1.1
v -1.6 0.6 -0.9
v -1.6 0.6 -1.1
v -1.4 0.5 1.6
v -1.4 0.5 1
v -1.4 0.5 -1.3
v -1.4 0.5 -1.6
v -1.4 0.5 -1.7
v -1.4 0.5 -1.8
v -1.4 0.6 1.6
v -1.4 0.6 1
v -1.4 0.6 -1.3
v -1.4 0.6 -1.6
v -1.4 0.6 -1.7
v -1.4 0.6 -1.8
v -1.3 0.5 -1.1
v -1.3 0.5 -1.2
v -1.3 0.6 -1.1
v -1.3 0.6 -1.2
v -1.2 0.9 1.9
v -1.2 0.9 1.8
v -1.2 1 1.9
v -1.2 1 1.8
v -1.1 0.5 -1.6
v -1.1 0.5 -1.7
v -1.1 0.6 -1.6
v -1.1 0.6 -1.7
v -1.1 1.5 1.6
v -1.1 1.5 1.1
v -1.1 1.7 1.6
v -1.1 1.7 1.1
v -1 0.5 1.6
v -1 0.5 1
v -1 0.5 -1.2
v -1 0.5 -1.4
v -1 0.6 1.6
v -1 0.6 1
v -1 0.6 -1.2
v -1 0.6 -1.4
v -0.8 0.3 1.9
v -0.8 0.3 1.8
v -0.8 0.3 0.8
v -0.8 0.3 0.7
v -0.8 0.3 0.6
v -0.8 0.3 0.5
v -0.8 0.3 -0.5
v -0.8 0.3 -0.6
v -0.8 0.3 -0.7
v -0.8 0.3 -0.8
v -0.8 0.3 -1.8
v -0.8 0.3 -1.9
v -0.8 0.5 1.9
v -0.8 0.5 1.8
v -0.8 0.5 0.8
v -0.8 0.5 0.7
v -0.8 0.5 0.6
v -0.8 0.5 0.5
v -0.8 0.5 -0.5
v -0.8 0.5 -0.6
v -0.8 0.5 -0.7
v -0.8 0.5 -0.8
v -0.8 0.5 -1.8
v -0.8 0.5 -1.9
v -0.8 0.6 1.8
v -0.8 0.6 0.7
v -0.8 0.7 1.4
v -0.8 0.7 0.8
v -0.8 1 1.4
v -0.8 1 0.8
v -0.8 1.1 0.9
v -0.8 1.1 0.7
v -0.8 1.5 1.8
v -0.8 1.5 0.9
v -0.7 0.3 1.8
v -0.7 0.3 0.8
v -0.7 0.3 0.5
v -0.7 0.3 -0.5
v -0.7 0.3 -0.8
v -0.7 0.3 -1.8
v -0.7 0.5 1.8
v -0.7 0.5 0.8
v -0.7 0.5 0.5
v -0.7 0.5 -0.5
v -0.7 0.5 -0.8
v -0.7 0.5 -1.8
v -0.7 0.7 1.4
v -0.7 0.7 0.8
v -0.7 1 1.4
v -0.7 1 0.8
v 0.5 0.3 1.9
v 0.5 0.3 1.8
v 0.5 0.3 0.8
v 0.5 0.3 0.7
v 0.5 0.3 0.6
v 0.5 0.3 0.5
v 0.5 0.3 -0.5
v 0.5 0.3 -0.6
v 0.5 0.3 -0.7
v 0.5 0.3 -0.8
v 0.5 0.3 -1.8
v 0.5 0.3 -1.9
v 0.5 0.5 1.9
v 0.5 0.5 1.8
v 0.5 0.5 0.8
v 0.5 0.5 0.7
v 0.5 0.5 0.6
v 0.5 0.5 0.5
v 0.5 0.5 -0.5
v 0.5 0.5 -0.6
v 0.5 0.5 -0.7
v 0.5 0.5 -0.8
v 0.5 0.5 -1.8
v 0.5 0.5 -1.9
v 0.6 0.3 1.8
v 0.6 0.3 0.8
v 0.6 0.3 0.5
v 0.6 0.3 -0.5
v 0.6 0.3 -0.8
v 0.6 0.3 -1.8
v 0.6 0.5 1.8
v 0.6 0.5 0.8
v 0.6 0.5 0.5
v 0.6 0.5 -0.5
v 0.6 0.5 -0.8
v 0.6 0.5 -1.8
v 1.4 0.5 -1
v 1.4 0.5 -1.1
v 1.4 0.6 -0.9
v 1.4 0.6 -1
v 1.4 0.6 -1.1
v 1.4 0.6 -1.2
v 1.4 0.7 -0.9
v 1.4 0.7 -1
v 1.4 0.7 -1.1
v 1.4 0.7 -1.2
v 1.5 0.5 1.8
v 1.5 0.5 1.5
v 1.5 0.6 1.6
v 1.5 0.6 1.5
v 1.5 0.6 -1
v 1.5 0.6 -1.1
v 1.5 0.7 1.6
v 1.5 0.7 1.5
v 1.5 0.7 -1
v 1.5 0.7 -1.1
v 1.5 0.8 1.8
v 1.5 0.8 1.5
v 1.7 0.5 -0.8
v 1.7 0.5 -0.9
v 1.7 0.5 -1.2
v 1.7 0.5 -1.3
v 1.7 0.5 -1.5
v 1.7 0.5 -1.6
v 1.7 0.5 -1.7
v 1.7 0.5 -1.8
v 1.7 0.6 -0.7
v 1.7 0.6 -0.8
v 1.7 0.6 -0.9
v 1.7 0.6 -1
v 1.7 0.6 -1.4
v 1.7 0.6 -1.5
v 1.7 0.6 -1.6
v 1.7 0.6 -1.7
v 1.7 0.6 -1.8
v 1.7 0.7 -0.7
v 1.7 0.7 -0.8
v 1.7 0.7 -0.9
v 1.7 0.7 -1
v 1.7 0.7 -1.1
v 1.7 0.7 -1.2
v 1.7 0.7 -1.3
v 1.7 0.7 -1.4
v 1.7 0.7 -1.5
v 1.7 0.7 -1.6
v 1.7 0.7 -1.7
v 1.7 0.7 -1.8
v 1.7 0.8 -1.1
v 1.7 0.8 -1.2
v 1.7 0.8 -1.3
v 1.7 0.8 -1.4
v 1.7 0.8 -1.5
v 1.7 0.8 -1.6
v 1.7 0.8 -1.7
v 1.7 0.8 -1.8
v 1.7 0.9 -1.4
v 1.7 0.9 -1.7
v 1.7 0.9 -1.8
v 1.8 0.3 1.9
v 1.8 0.3 1.8
v 1.8 0.3 0.8
v 1.8 0.3 0.7
v 1.8 0.3 0.6
v 1.8 0.3 0.5
v 1.8 0.3 -0.5
v 1.8 0.3 -0.6
v 1.8 0.3 -0.7
v 1.8 0.3 -0.8
v 1.8 0.3 -1.8
v 1.8 0.3 -1.9
v 1.8 0.5 1.9
v 1.8 0.5 1.8
v 1.8 0.5 1.5
v 1.8 0.5 0.9
v 1.8 0.5 0.8
v 1.8 0.5 0.7
v 1.8 0.5 0.6
v 1.8 0.5 0.5
v 1.8 0.5 -0.5
v 1.8 0.5 -0.6
v 1.8 0.5 -0.7
v 1.8 0.5 -0.8
v 1.8 0.5 -1.4
v 1.8 0.5 -1.5
v 1.8 0.5 -1.6
v 1.8 0.5 -1.7
v 1.8 0.5 -1.8
v 1.8 0.5 -1.9
v 1.8 0.6 1.5
v 1.8 0.6 1.4
v 1.8 0.6 -0.8
v 1.8 0.6 -0.9
v 1.8 0.6 -1.4
v 1.8 0.6 -1.5
v 1.8 0.6 -1.6
v 1.8 0.6 -1.7
v 1.8 0.6 -1.8
v 1.8 0.7 1.5
v 1.8 0.7 1.4
v 1.8 0.7 1
v 1.8 0.7 0.9
v 1.8 0.7 -0.8
v 1.8 0.7 -0.9
v 1.8 0.7 -1.2
v 1.8 0.7 -1.3
v 1.8 0.7 -1.5
v 1.8 0.7 -1.6
v 1.8 0.7 -1.7
v 1.8 0.7 -1.8
v 1.8 0.8 1.5
v 1.8 0.8 1
v 1.8 0.8 0.9
v 1.8 0.8 -1.2
v 1.8 0.8 -1.3
v 1.8 0.8 -1.5
v 1.8 0.8 -1.6
v 1.9 0.3 1.8
v 1.9 0.3 0.8
v 1.9 0.3 0.5
v 1.9 0.3 -0.5
v 1.9 0.3 -0.8
v 1.9 0.3 -1.8
v 1.9 0.5 1.8
v 1.9 0.5 0.8
v 1.9 0.5 0.5
v 1.9 0.5 -0.5
v 1.9 0.5 -0.8
v 1.9 0.5 -1.8
v -1.8 0.3 1.9
v -1.8 0.5 1.9
v -1.4 0.9 1.9
v -1.4 1 1.9
v -1.2 0.9 1.9
v -1.2 1 1.9
v -0.8 0.3 1.9
v -0.8 0.5 1.9
v -0.5 0.3 1.9
v -0.5 0.5 1.9
v 0.5 0.3 1.9
v 0.5 0.5 1.9
v 0.8 0.3 1.9
v 0.8 0.5 1.9
v 1.8 0.3 1.9
v 1.8 0.5 1.9
v -1.9 0.3 1.8
v -1.9 0.5 1.8
v -1.8 0.3 1.8
v -1.8 0.5 1.8
v -1.8 0.6 1.8
v -1.8 1.5 1.8
v -1.5 1 1.8
v -1.5 1.2 1.8
v -1.4 0.9 1.8
v -1.4 1 1.8
v -1.4 1.2 1.8
v -1.2 0.9 1.8
v -1.2 1 1.8
v -1.2 1.2 1.8
v -1.1 1 1.8
v -1.1 1.2 1.8
v -0.8 0.3 1.8
v -0.8 0.5 1.8
v -0.8 0.6 1.8
v -0.8 1.5 1.8
v -0.7 0.3 1.8
v -0.7 0.5 1.8
v -0.6 0.3 1.8
v -0.6 0.5 1.8
v -0.5 0.3 1.8
v -0.5 0.5 1.8
v 0.5 0.3 1.8
v 0.5 0.5 1.8
v 0.6 0.3 1.8
v 0.6 0.5 1.8
v 0.7 0.3 1.8
v 0.7 0.5 1.8
v 0.8 0.3 1.8
v 0.8 0.5 1.8
v 1.1 0.5 1.8
v 1.1 0.8 1.8
v 1.3 0.6 1.8
v 1.3 0.7 1.8
v 1.4 0.6 1.8
v 1.4 0.7 1.8
v 1.5 0.5 1.8
v 1.5 0.8 1.8
v 1.8 0.3 1.8
v 1.8 0.5 1.8
v 1.9 0.3 1.8
v 1.9 0.5 1.8
v -1.6 0.5 1.6
v -1.6 0.6 1.6
v -1.5 1.5 1.6
v -1.5 1.7 1.6
v -1.4 0.5 1.6
v -1.4 0.6 1.6
v -1.2 0.5 1.6
v -1.2 0.6 1.6
v -1.1 1.5 1.6
v -1.1 1.7 1.6
v -1 0.5 1.6
v -1 0.6 1.6
v 1.5 0.5 1.5
v 1.5 0.6 1.5
v 1.5 0.7 1.5
v 1.5 0.8 1.5
v 1.7 0.6 1.5
v 1.7 0.7 1.5
v 1.8 0.5 1.5
v 1.8 0.6 1.5
v 1.8 0.7 1.5
v 1.8 0.8 1.5
v -1.9 0.7 1.4
v -1.9 1 1.4
v -1.8 0.7 1.4
v -1.8 1 1.4
v -0.8 0.7 1.4
v -0.8 1 1.4
v -0.7 0.7 1.4
v -0.7 1 1.4
v -1.8 0.3 0.6
v -1.8 0.5 0.6
v -0.8 0.3 0.6
v -0.8 0.5 0.6
v -0.5 0.3 0.6
v -0.5 0.5 0.6
v 0.5 0.3 0.6
v 0.5 0.5 0.6
v 0.8 0.3 0.6
v 0.8 0.5 0.6
v 1.8 0.3 0.6
v 1.8 0.5 0.6
v -1.9 0.3 0.5
v -1.9 0.5 0.5
v -1.8 0.3 0.5
v -1.8 0.5 0.5
v -0.8 0.3 0.5
v -0.8 0.5 0.5
v -0.7 0.3 0.5
v -0.7 0.5 0.5
v -0.6 0.3 0.5
v -0.6 0.5 0.5
v -0.5 0.3 0.5
v -0.5 0.5 0.5
v 0.5 0.3 0.5
v 0.5 0.5 0.5
v 0.6 0.3 0.5
v 0.6 0.5 0.5
v 0.7 0.3 0.5
v 0.7 0.5 0.5
v 0.8 0.3 0.5
v 0.8 0.5 0.5
v 1.8 0.3 0.5
v 1.8 0.5 0.5
v 1.9 0.3 0.5
v 1.9 0.5 0.5
v -1.8 0.3 -0.7
v -1.8 0.5 -0.7
v -0.8 0.3 -0.7
v -0.8 0.5 -0.7
v -0.5 0.3 -0.7
v -0.5 0.5 -0.7
v 0.5 0.3 -0.7
v 0.5 0.5 -0.7
v 0.8 0.3 -0.7
v 0.8 0.5 -0.7
v 1.6 0.6 -0.7
v 1.6 0.7 -0.7
v 1.7 0.6 -0.7
v 1.7 0.7 -0.7
v 1.8 0.3 -0.7
v 1.8 0.5 -0.7
v -1.9 0.3 -0.8
v -1.9 0.5 -0.8
v -1.8 0.3 -0.8
v -1.8 0.5 -0.8
v -0.8 0.3 -0.8
v -0.8 0.5 -0.8
v -0.7 0.3 -0.8
v -0.7 0.5 -0.8
v -0.6 0.3 -0.8
v -0.6 0.5 -0.8
v -0.5 0.3 -0.8
v -0.5 0.5 -0.8
v 0.5 0.3 -0.8
v 0.5 0.5 -0.8
v 0.6 0.3 -0.8
v 0.6 0.5 -0.8
v 0.7 0.3 -0.8
v 0.7 0.5 -0.8
v 0.8 0.3 -0.8
v 0.8 0.5 -0.8
v 1.5 0.6 -0.8
v 1.5 0.7 -0.8
v 1.6 0.5 -0.8
v 1.6 0.6 -0.8
v 1.6 0.7 -0.8
v 1.7 0.5 -0.8
v 1.7 0.6 -0.8
v 1.7 0.7 -0.8
v 1.8 0.3 -0.8
v 1.8 0.5 -0.8
v 1.8 0.6 -0.8
v 1.8 0.7 -0.8
v 1.9 0.3 -0.8
v 1.9 0.5 -0.8
v -1.8 0.5 -0.9
v -1.8 0.6 -0.9
v -1.6 0.5 -0.9
v -1.6 0.6 -0.9
v 1.3 0.6 -0.9
v 1.3 0.7 -0.9
v 1.4 0.6 -0.9
v 1.4 0.7 -0.9
v 1.2 0.6 -1
v 1.2 0.7 -1
v 1.3 0.5 -1
v 1.3 0.6 -1
v 1.3 0.7 -1
v 1.4 0.5 -1
v 1.4 0.6 -1
v 1.4 0.7 -1
v 1.5 0.6 -1
v 1.5 0.7 -1
v -1.4 0.5 -1.1
v -1.4 0.6 -1.1
v -1.3 0.5 -1.1
v -1.3 0.6 -1.1
v 1.6 0.7 -1.1
v 1.6 0.8 -1.1
v 1.7 0.7 -1.1
v 1.7 0.8 -1.1
v -1.2 0.5 -1.2
v -1.2 0.6 -1.2
v -1 0.5 -1.2
v -1 0.6 -1.2
v 1.5 0.7 -1.2
v 1.5 0.8 -1.2
v 1.6 0.5 -1.2
v 1.6 0.7 -1.2
v 1.6 0.8 -1.2
v 1.7 0.5 -1.2
v 1.7 0.7 -1.2
v 1.7 0.8 -1.2
v 1.8 0.7 -1.2
v 1.8 0.8 -1.2
v -1.7 0.5 -1.3
v -1.7 0.6 -1.3
v -1.4 0.5 -1.3
v -1.4 0.6 -1.3
v 0.8 0.7 -1.4
v 0.8 0.8 -1.4
v 0.9 0.5 -1.4
v 0.9 0.7 -1.4
v 0.9 0.8 -1.4
v 0.9 0.9 -1.4
v 1 0.5 -1.4
v 1 0.7 -1.4
v 1 0.8 -1.4
v 1 0.9 -1.4
v 1.1 0.5 -1.4
v 1.1 0.7 -1.4
v 1.1 0.8 -1.4
v 1.1 0.9 -1.4
v 1.5 0.5 -1.4
v 1.5 0.7 -1.4
v 1.5 0.8 -1.4
v 1.5 0.9 -1.4
v 1.6 0.5 -1.4
v 1.6 0.7 -1.4
v 1.6 0.8 -1.4
v 1.6 0.9 -1.4
v 1.7 0.6 -1.4
v 1.7 0.7 -1.4
v 1.7 0.8 -1.4
v 1.7 0.9 -1.4
v 1.8 0.5 -1.4
v 1.8 0.6 -1.4
v 0.8 0.5 -1.5
v 0.8 0.6 -1.5
v 0.9 0.5 -1.5
v 0.9 0.6 -1.5
v 1.7 0.7 -1.5
v 1.7 0.8 -1.5
v 1.8 0.7 -1.5
v 1.8 0.8 -1.5
v -1.8 0.5 -1.6
v -1.8 0.6 -1.6
v -1.7 0.5 -1.6
v -1.7 0.6 -1.6
v -1.2 0.5 -1.6
v -1.2 0.6 -1.6
v -1.1 0.5 -1.6
v -1.1 0.6 -1.6
v 0.8 0.6 -1.6
v 0.8 0.7 -1.6
v 0.9 0.6 -1.6
v 0.9 0.7 -1.6
v 1.7 0.5 -1.6
v 1.7 0.6 -1.6
v 1.8 0.5 -1.6
v 1.8 0.6 -1.6
v -1.5 0.5 -1.7
v -1.5 0.6 -1.7
v -1.4 0.5 -1.7
v -1.4 0.6 -1.7
v 0.8 0.5 -1.7
v 0.8 0.6 -1.7
v 0.8 0.8 -1.7
v 0.8 0.9 -1.7
v 0.9 0.5 -1.7
v 0.9 0.6 -1.7
v 0.9 0.8 -1.7
v 0.9 0.9 -1.7
v 1.7 0.6 -1.7
v 1.7 0.7 -1.7
v 1.8 0.6 -1.7
v 1.8 0.7 -1.7
v 1.1 0.5 1.5
v 1.1 0.8 1.5
v 1.2 0.7 1.5
v 1.2 0.8 1.5
v 1.3 0.7 1.5
v 1.3 0.8 1.5
v 1.4 0.6 1.5
v 1.4 0.7 1.5
v 1.5 0.5 1.5
v 1.5 0.6 1.5
v 1.5 0.7 1.5
v 1.5 0.8 1.5
v -1.5 1.5 1.1
v -1.5 1.7 1.1
v -1.1 1.5 1.1
v -1.1 1.7 1.1
v -1.6 0.5 1
v -1.6 0.6 1
v -1.4 0.5 1
v -1.4 0.6 1
v -1.2 0.5 1
v -1.2 0.6 1
v -1 0.5 1
v -1 0.6 1
v -1.8 1.1 0.9
v -1.8 1.5 0.9
v -0.8 1.1 0.9
v -0.8 1.5 0.9
v 1.5 0.5 0.9
v 1.5 0.8 0.9
v 1.7 0.7 0.9
v 1.7 0.8 0.9
v 1.8 0.5 0.9
v 1.8 0.7 0.9
v 1.8 0.8 0.9
v -1.9 0.3 0.8
v -1.9 0.5 0.8
v -1.9 0.7 0.8
v -1.9 1 0.8
v -1.8 0.3 0.8
v -1.8 0.5 0.8
v -1.8 0.7 0.8
v -1.8 1 0.8
v -0.8 0.3 0.8
v -0.8 0.5 0.8
v -0.8 0.7 0.8
v -0.8 1 0.8
v -0.7 0.3 0.8
v -0.7 0.5 0.8
v -0.7 0.7 0.8
v -0.7 1 0.8
v -0.6 0.3 0.8
v -0.6 0.5 0.8
v -0.5 0.3 0.8
v -0.5 0.5 0.8
v 0.5 0.3 0.8
v 0.5 0.5 0.8
v 0.6 0.3 0.8
v 0.6 0.5 0.8
v 0.7 0.3 0.8
v 0.7 0.5 0.8
v 0.8 0.3 0.8
v 0.8 0.5 0.8
v 1.8 0.3 0.8
v 1.8 0.5 0.8
v 1.9 0.3 0.8
v 1.9 0.5 0.8
v -1.8 0.3 0.7
v -1.8 0.5 0.7
v -1.8 0.6 0.7
v -1.8 1.1 0.7
v -0.8 0.3 0.7
v -0.8 0.5 0.7
v -0.8 0.6 0.7
v -0.8 1.1 0.7
v -0.5 0.3 0.7
v -0.5 0.5 0.7
v 0.5 0.3 0.7
v 0.5 0.5 0.7
v 0.8 0.3 0.7
v 0.8 0.5 0.7
v 1.8 0.3 0.7
v 1.8 0.5 0.7
v -1.9 0.3 -0.5
v -1.9 0.5 -0.5
v -1.8 0.3 -0.5
v -1.8 0.5 -0.5
v -0.8 0.3 -0.5
v -0.8 0.5 -0.5
v -0.7 0.3 -0.5
v -0.7 0.5 -0.5
v -0.6 0.3 -0.5
v -0.6 0.5 -0.5
v -0.5 0.3 -0.5
v -0.5 0.5 -0.5
v 0.5 0.3 -0.5
v 0.5 0.5 -0.5
v 0.6 0.3 -0.5
v 0.6 0.5 -0.5
v 0.7 0.3 -0.5
v 0.7 0.5 -0.5
v 0.8 0.3 -0.5
v 0.8 0.5 -0.5
v 1.8 0.3 -0.5
v 1.8 0.5 -0.5
v 1.9 0.3 -0.5
v 1.9 0.5 -0.5
v -1.8 0.3 -0.6
v -1.8 0.5 -0.6
v -0.8 0.3 -0.6
v -0.8 0.5 -0.6
v -0.5 0.3 -0.6
v -0.5 0.5 -0.6
v 0.5 0.3 -0.6
v 0.5 0.5 -0.6
v 0.8 0.3 -0.6
v 0.8 0.5 -0.6
v 1.8 0.3 -0.6
v 1.8 0.5 -0.6
v 1.5 0.6 -0.9
v 1.5 0.7 -0.9
v 1.6 0.5 -0.9
v 1.6 0.6 -0.9
v 1.6 0.7 -0.9
v 1.7 0.5 -0.9
v 1.7 0.6 -0.9
v 1.7 0.7 -0.9
v 1.8 0.6 -0.9
v 1.8 0.7 -0.9
v 1.6 0.6 -1
v 1.6 0.7 -1
v 1.7 0.6 -1
v 1.7 0.7 -1
v -1.8 0.5 -1.1
v -1.8 0.6 -1.1
v -1.6 0.5 -1.1
v -1.6 0.6 -1.1
v 1.2 0.6 -1.1
v 1.2 0.7 -1.1
v 1.3 0.5 -1.1
v 1.3 0.6 -1.1
v 1.3 0.7 -1.1
v 1.4 0.5 -1.1
v 1.4 0.6 -1.1
v 1.4 0.7 -1.1
v 1.5 0.6 -1.1
v 1.5 0.7 -1.1
v -1.4 0.5 -1.2
v -1.4 0.6 -1.2
v -1.3 0.5 -1.2
v -1.3 0.6 -1.2
v 1.3 0.6 -1.2
v 1.3 0.7 -1.2
v 1.4 0.6 -1.2
v 1.4 0.7 -1.2
v 1.5 0.7 -1.3
v 1.5 0.8 -1.3
v 1.6 0.5 -1.3
v 1.6 0.7 -1.3
v 1.6 0.8 -1.3
v 1.7 0.5 -1.3
v 1.7 0.7 -1.3
v 1.7 0.8 -1.3
v 1.8 0.7 -1.3
v 1.8 0.8 -1.3
v -1.2 0.5 -1.4
v -1.2 0.6 -1.4
v -1 0.5 -1.4
v -1 0.6 -1.4
v 0.8 0.7 -1.5
v 0.8 0.8 -1.5
v 0.9 0.7 -1.5
v 0.9 0.8 -1.5
v 1.7 0.5 -1.5
v 1.7 0.6 -1.5
v 1.8 0.5 -1.5
v 1.8 0.6 -1.5
v -1.7 0.5 -1.6
v -1.7 0.6 -1.6
v -1.4 0.5 -1.6
v -1.4 0.6 -1.6
v 0.8 0.5 -1.6
v 0.8 0.6 -1.6
v 0.9 0.5 -1.6
v 0.9 0.6 -1.6
v 1.7 0.7 -1.6
v 1.7 0.8 -1.6
v 1.8 0.7 -1.6
v 1.8 0.8 -1.6
v -1.8 0.5 -1.7
v -1.8 0.6 -1.7
v -1.7 0.5 -1.7
v -1.7 0.6 -1.7
v -1.2 0.5 -1.7
v -1.2 0.6 -1.7
v -1.1 0.5 -1.7
v -1.1 0.6 -1.7
v 0.8 0.6 -1.7
v 0.8 0.7 -1.7
v 0.9 0.6 -1.7
v 0.9 0.7 -1.7
v 1.7 0.5 -1.7
v 1.7 0.6 -1.7
v 1.8 0.5 -1.7
v 1.8 0.6 -1.7
v -1.9 0.4 -1.8
v -1.9 0.5 -1.8
v -1.8 0.4 -1.8
v -1.8 0.5 -1.8
v -1.5 0.5 -1.8
v -1.5 0.6 -1.8
v -1.4 0.5 -1.8
v -1.4 0.6 -1.8
v -0.8 0.3 -1.8
v -0.8 0.5 -1.8
v -0.7 0.3 -1.8
v -0.7 0.5 -1.8
v -0.6 0.3 -1.8
v -0.6 0.5 -1.8
v -0.5 0.3 -1.8
v -0.5 0.5 -1.8
v 0.5 0.3 -1.8
v 0.5 0.5 -1.8
v 0.6 0.3 -1.8
v 0.6 0.5 -1.8
v 0.7 0.3 -1.8
v 0.7 0.5 -1.8
v 0.8 0.3 -1.8
v 0.8 0.5 -1.8
v 0.8 0.6 -1.8
v 0.8 0.8 -1.8
v 0.8 0.9 -1.8
v 0.9 0.5 -1.8
v 0.9 0.6 -1.8
v 0.9 0.7 -1.8
v 0.9 0.8 -1.8
v 1 0.5 -1.8
v 1 0.6 -1.8
v 1 0.7 -1.8
v 1 0.8 -1.8
v 1 0.9 -1.8
v 1.1 0.5 -1.8
v 1.1 0.6 -1.8
v 1.1 0.7 -1.8
v 1.1 0.8 -1.8
v 1.1 0.9 -1.8
v 1.5 0.5 -1.8
v 1.5 0.6 -1.8
v 1.5 0.7 -1.8
v 1.5 0.8 -1.8
v 1.5 0.9 -1.8
v 1.6 0.5 -1.8
v 1.6 0.7 -1.8
v 1.6 0.8 -1.8
v 1.6 0.9 -1.8
v 1.7 0.5 -1.8
v 1.7 0.6 -1.8
v 1.7 0.7 -1.8
v 1.7 0.8 -1.8
v 1.7 0.9 -1.8
v 1.8 0.3 -1.8
v 1.8 0.5 -1.8
v 1.8 0.6 -1.8
v 1.8 0.7 -1.8
v 1.9 0.3 -1.8
v 1.9 0.5 -1.8
v -1.9 0.3 -1.9
v -1.9 0.4 -1.9
v -1.8 0.4 -1.9
v -1.8 0.5 -1.9
v -0.8 0.3 -1.9
v -0.8 0.5 -1.9
v -0.5 0.3 -1.9
v -0.5 0.5 -1.9
v 0.5 0.3 -1.9
v 0.5 0.5 -1.9
v 0.8 0.3 -1.9
v 0.8 0.5 -1.9
v 1.8 0.3 -1.9
v 1.8 0.5 -1.9
v -1.8 0.3 1.9
v -0.8 0.3 1.9
v -0.5 0.3 1.9
v 0.5 0.3 1.9
v 0.8 0.3 1.9
v 1.8 0.3 1.9
v -1.9 0.3 1.8
v -1.8 0.3 1.8
v -0.8 0.3 1.8
v -0.7 0.3 1.8
v -0.6 0.3 1.8
v -0.5 0.3 1.8
v 0.5 0.3 1.8
v 0.6 0.3 1.8
v 0.7 0.3 1.8
v 0.8 0.3 1.8
v 1.8 0.3 1.8
v 1.9 0.3 1.8
v -1.9 0.3 0.8
v -1.8 0.3 0.8
v -0.8 0.3 0.8
v -0.7 0.3 0.8
v -0.6 0.3 0.8
v -0.5 0.3 0.8
v 0.5 0.3 0.8
v 0.6 0.3 0.8
v 0.7 0.3 0.8
v 0.8 0.3 0.8
v 1.8 0.3 0.8
v 1.9 0.3 0.8
v -1.8 0.3 0.7
v -0.8 0.3 0.7
v -0.5 0.3 0.7
v 0.5 0.3 0.7
v 0.8 0.3 0.7
v 1.8 0.3 0.7
v -1.8 0.3 0.6
v -0.8 0.3 0.6
v -0.5 0.3 0.6
v 0.5 0.3 0.6
v 0.8 0.3 0.6
v 1.8 0.3 0.6
v -1.9 0.3 0.5
v -1.8 0.3 0.5
v -0.8 0.3 0.5
v -0.7 0.3 0.5
v -0.6 0.3 0.5
v -0.5 0.3 0.5
v 0.5 0.3 0.5
v 0.6 0.3 0.5
v 0.7 0.3 0.5
v 0.8 0.3 0.5
v 1.8 0.3 0.5
v 1.9 0.3 0.5
v -1.9 0.3 -0.5
v -1.8 0.3 -0.5
v -0.8 0.3 -0.5
v -0.7 0.3 -0.5
v -0.6 0.3 -0.5
v -0.5 0.3 -0.5
v 0.5 0.3 -0.5
v 0.6 0.3 -0.5
v 0.7 0.3 -0.5
v 0.8 0.3 -0.5
v 1.8 0.3 -0.5
v 1.9 0.3 -0.5
v -1.8 0.3 -0.6
v -0.8 0.3 -0.6
v -0.5 0.3 -0.6
v 0.5 0.3 -0.6
v 0.8 0.3 -0.6
v 1.8 0.3 -0.6
v -1.8 0.3 -0.7
v -0.8 0.3 -0.7
v -0.5 0.3 -0.7
v 0.5 0.3 -0.7
v 0.8 0.3 -0.7
v 1.8 0.3 -0.7
v -1.9 0.3 -0.8
v -1.8 0.3 -0.8
v -0.8 0.3 -0.8
v -0.7 0.3 -0.8
v -0.6 0.3 -0.8
v -0.5 0.3 -0.8
v 0.5 0.3 -0.8
v 0.6 0.3 -0.8
v 0.7 0.3 -0.8
v 0.8 0.3 -0.8
v 1.8 0.3 -0.8
v 1.9 0.3 -0.8
v -0.8 0.3 -1.8
v -0.7 0.3 -1.8
v -0.6 0.3 -1.8
v -0.5 0.3 -1.8
v 0.5 0.3 -1.8
v 0.6 0.3 -1.8
v 0.7 0.3 -1.8
v 0.8 0.3 -1.8
v 1.8 0.3 -1.8
v 1.9 0.3 -1.8
v -1.9 0.3 -1.9
v -0.8 0.3 -1.9
v -0.5 0.3 -1.9
v 0.5 0.3 -1.9
v 0.8 0.3 -1.9
v 1.8 0.3 -1.9
v -1.8 0.6 1.8
v -0.8 0.6 1.8
v -1.6 0.6 1.6
v -1.4 0.6 1.6
v -1.2 0.6 1.6
v -1 0.6 1.6
v -1.6 0.6 1
v -1.4 0.6 1
v -1.2 0.6 1
v -1 0.6 1
v -1.8 0.6 0.7
v -0.8 0.6 0.7
v 1.6 0.6 -0.7
v 1.7 0.6 -0.7
v 1.5 0.6 -0.8
v 1.6 0.6 -0.8
v 1.7 0.6 -0.8
v 1.8 0.6 -0.8
v 1.3 0.6 -0.9
v 1.4 0.6 -0.9
v 1.5 0.6 -0.9
v 1.6 0.6 -0.9
v 1.7 0.6 -0.9
v 1.8 0.6 -0.9
v 1.2 0.6 -1
v 1.3 0.6 -1
v 1.4 0.6 -1
v 1.5 0.6 -1
v 1.6 0.6 -1
v 1.7 0.6 -1
v 1.2 0.6 -1.1
v 1.3 0.6 -1.1
v 1.4 0.6 -1.1
v 1.5 0.6 -1.1
v 1.3 0.6 -1.2
v 1.4 0.6 -1.2
v 0.8 0.6 -1.6
v 0.9 0.6 -1.6
v 0.8 0.6 -1.7
v 0.9 0.6 -1.7
v 1.7 0.6 -1.7
v 1.8 0.6 -1.7
v 1.7 0.6 -1.8
v 1.8 0.6 -1.8
v -1.9 0.7 1.4
v -1.8 0.7 1.4
v -0.8 0.7 1.4
v -0.7 0.7 1.4
v -1.9 0.7 0.8
v -1.8 0.7 0.8
v -0.8 0.7 0.8
v -0.7 0.7 0.8
v 1.6 0.7 -1.1
v 1.7 0.7 -1.1
v 1.5 0.7 -1.2
v 1.6 0.7 -1.2
v 1.7 0.7 -1.2
v 1.8 0.7 -1.2
v 1.5 0.7 -1.3
v 1.6 0.7 -1.3
v 1.7 0.7 -1.3
v 1.8 0.7 -1.3
v 0.8 0.7 -1.4
v 0.9 0.7 -1.4
v 1.6 0.7 -1.4
v 1.7 0.7 -1.4
v 0.8 0.7 -1.5
v 0.9 0.7 -1.5
v 1.7 0.7 -1.5
v 1.8 0.7 -1.5
v 1.7 0.7 -1.6
v 1.8 0.7 -1.6
v 0.8 0.8 -1.7
v 0.9 0.8 -1.7
v 0.8 0.8 -1.8
v 0.9 0.8 -1.8
v -1.4 0.9 1.9
v -1.2 0.9 1.9
v -1.4 0.9 1.8
v -1.2 0.9 1.8
v -1.9 0.4 -1.8
v -1.8 0.4 -1.8
v -1.9 0.4 -1.9
v -1.8 0.4 -1.9
v -1.8 0.5 1.9
v -0.8 0.5 1.9
v -0.5 0.5 1.9
v 0.5 0.5 1.9
v 0.8 0.5 1.9
v 1.8 0.5 1.9
v -1.9 0.5 1.8
v -1.8 0.5 1.8
v -0.8 0.5 1.8
v -0.7 0.5 1.8
v -0.6 0.5 1.8
v -0.5 0.5 1.8
v 0.5 0.5 1.8
v 0.6 0.5 1.8
v 0.7 0.5 1.8
v 0.8 0.5 1.8
v 1.1 0.5 1.8
v 1.5 0.5 1.8
v 1.8 0.5 1.8
v 1.9 0.5 1.8
v -1.6 0.5 1.6
v -1.4 0.5 1.6
v -1.2 0.5 1.6
v -1 0.5 1.6
v 1.1 0.5 1.5
v 1.5 0.5 1.5
v 1.8 0.5 1.5
v 1.5 0.5 1.4
v 1.5 0.5 1.3
v -1.6 0.5 1
v -1.4 0.5 1
v -1.2 0.5 1
v -1 0.5 1
v 1.5 0.5 0.9
v 1.8 0.5 0.9
v -1.9 0.5 0.8
v -1.8 0.5 0.8
v -0.8 0.5 0.8
v -0.7 0.5 0.8
v -0.6 0.5 0.8
v -0.5 0.5 0.8
v 0.5 0.5 0.8
v 0.6 0.5 0.8
v 0.7 0.5 0.8
v 0.8 0.5 0.8
v 1.8 0.5 0.8
v 1.9 0.5 0.8
v -1.8 0.5 0.7
v -0.8 0.5 0.7
v -0.5 0.5 0.7
v 0.5 0.5 0.7
v 0.8 0.5 0.7
v 1.8 0.5 0.7
v -1.8 0.5 0.6
v -0.8 0.5 0.6
v -0.5 0.5 0.6
v 0.5 0.5 0.6
v 0.8 0.5 0.6
v 1.8 0.5 0.6
v -1.9 0.5 0.5
v -1.8 0.5 0.5
v -0.8 0.5 0.5
v -0.7 0.5 0.5
v -0.6 0.5 0.5
v -0.5 0.5 0.5
v 0.5 0.5 0.5
v 0.6 0.5 0.5
v 0.7 0.5 0.5
v 0.8 0.5 0.5
v 1.8 0.5 0.5
v 1.9 0.5 0.5
v -1.9 0.5 -0.5
v -1.8 0.5 -0.5
v -0.8 0.5 -0.5
v -0.7 0.5 -0.5
v -0.6 0.5 -0.5
v -0.5 0.5 -0.5
v 0.5 0.5 -0.5
v 0.6 0.5 -0.5
v 0.7 0.5 -0.5
v 0.8 0.5 -0.5
v 1.8 0.5 -0.5
v 1.9 0.5 -0.5
v -1.8 0.5 -0.6
v -0.8 0.5 -0.6
v -0.5 0.5 -0.6
v 0.5 0.5 -0.6
v 0.8 0.5 -0.6
v 1.8 0.5 -0.6
v -1.8 0.5 -0.7
v -0.8 0.5 -0.7
v -0.5 0.5 -0.7
v 0.5 0.5 -0.7
v 0.8 0.5 -0.7
v 1.8 0.5 -0.7
v -1.9 0.5 -0.8
v -1.8 0.5 -0.8
v -0.8 0.5 -0.8
v -0.7 0.5 -0.8
v -0.6 0.5 -0.8
v -0.5 0.5 -0.8
v 0.5 0.5 -0.8
v 0.6 0.5 -0.8
v 0.7 0.5 -0.8
v 0.8 0.5 -0.8
v 1.6 0.5 -0.8
v 1.7 0.5 -0.8
v 1.8 0.5 -0.8
v 1.9 0.5 -0.8
v -1.8 0.5 -0.9
v -1.6 0.5 -0.9
v 1.6 0.5 -0.9
v 1.7 0.5 -0.9
v 1.3 0.5 -1
v 1.4 0.5 -1
v -1.8 0.5 -1.1
v -1.6 0.5 -1.1
v -1.4 0.5 -1.1
v -1.3 0.5 -1.1
v 1.3 0.5 -1.1
v 1.4 0.5 -1.1
v -1.4 0.5 -1.2
v -1.3 0.5 -1.2
v -1.2 0.5 -1.2
v -1 0.5 -1.2
v 1.6 0.5 -1.2
v 1.7 0.5 -1.2
v -1.7 0.5 -1.3
v -1.4 0.5 -1.3
v 1.6 0.5 -1.3
v 1.7 0.5 -1.3
v -1.2 0.5 -1.4
v -1 0.5 -1.4
v 0.9 0.5 -1.4
v 1 0.5 -1.4
v 1.1 0.5 -1.4
v 1.5 0.5 -1.4
v 1.6 0.5 -1.4
v 1.8 0.5 -1.4
v 0.8 0.5 -1.5
v 0.9 0.5 -1.5
v 1.7 0.5 -1.5
v 1.8 0.5 -1.5
v -1.8 0.5 -1.6
v -1.7 0.5 -1.6
v -1.4 0.5 -1.6
v -1.2 0.5 -1.6
v -1.1 0.5 -1.6
v 0.8 0.5 -1.6
v 0.9 0.5 -1.6
v 1.7 0.5 -1.6
v 1.8 0.5 -1.6
v -1.8 0.5 -1.7
v -1.7 0.5 -1.7
v -1.5 0.5 -1.7
v -1.4 0.5 -1.7
v -1.2 0.5 -1.7
v -1.1 0.5 -1.7
v 0.8 0.5 -1.7
v 0.9 0.5 -1.7
v 1.7 0.5 -1.7
v 1.8 0.5 -1.7
v -1.9 0.5 -1.8
v -1.8 0.5 -1.8
v -1.5 0.5 -1.8
v -1.4 0.5 -1.8
v -0.8 0.5 -1.8
v -0.7 0.5 -1.8
v -0.6 0.5 -1.8
v -0.5 0.5 -1.8
v 0.5 0.5 -1.8
v 0.6 0.5 -1.8
v 0.7 0.5 -1.8
v 0.8 0.5 -1.8
v 0.9 0.5 -1.8
v 1 0.5 -1.8
v 1.1 0.5 -1.8
v 1.5 0.5 -1.8
v 1.6 0.5 -1.8
v 1.7 0.5 -1.8
v 1.8 0.5 -1.8
v 1.9 0.5 -1.8
v -1.8 0.5 -1.9
v -0.8 0.5 -1.9
v -0.5 0.5 -1.9
v 0.5 0.5 -1.9
v 0.8 0.5 -1.9
v 1.8 0.5 -1.9
v -1.8 0.6 -0.9
v -1.6 0.6 -0.9
v -1.8 0.6 -1.1
v -1.6 0.6 -1.1
v -1.4 0.6 -1.1
v -1.3 0.6 -1.1
v -1.4 0.6 -1.2
v -1.3 0.6 -1.2
v -1.2 0.6 -1.2
v -1 0.6 -1.2
v -1.7 0.6 -1.3
v -1.4 0.6 -1.3
v -1.6 0.6 -1.4
v -1.5 0.6 -1.4
v -1.2 0.6 -1.4
v -1 0.6 -1.4
v 1.7 0.6 -1.4
v 1.8 0.6 -1.4
v -1.6 0.6 -1.5
v -1.5 0.6 -1.5
v 0.8 0.6 -1.5
v 0.9 0.6 -1.5
v 1.7 0.6 -1.5
v 1.8 0.6 -1.5
v -1.8 0.6 -1.6
v -1.7 0.6 -1.6
v -1.4 0.6 -1.6
v -1.2 0.6 -1.6
v -1.1 0.6 -1.6
v 0.8 0.6 -1.6
v 0.9 0.6 -1.6
v 1.7 0.6 -1.6
v 1.8 0.6 -1.6
v -1.8 0.6 -1.7
v -1.7 0.6 -1.7
v -1.5 0.6 -1.7
v -1.4 0.6 -1.7
v -1.2 0.6 -1.7
v -1.1 0.6 -1.7
v 0.8 0.6 -1.7
v 0.9 0.6 -1.7
v 1.7 0.6 -1.7
v 1.8 0.6 -1.7
v -1.5 0.6 -1.8
v -1.4 0.6 -1.8
v 0.8 0.6 -1.8
v 0.9 0.6 -1.8
v 1.6 0.7 -0.7
v 1.7 0.7 -0.7
v 1.5 0.7 -0.8
v 1.6 0.7 -0.8
v 1.7 0.7 -0.8
v 1.8 0.7 -0.8
v 1.3 0.7 -0.9
v 1.4 0.7 -0.9
v 1.5 0.7 -0.9
v 1.6 0.7 -0.9
v 1.7 0.7 -0.9
v 1.8 0.7 -0.9
v 1.2 0.7 -1
v 1.3 0.7 -1
v 1.4 0.7 -1
v 1.5 0.7 -1
v 1.6 0.7 -1
v 1.7 0.7 -1
v 1.2 0.7 -1.1
v 1.3 0.7 -1.1
v 1.4 0.7 -1.1
v 1.5 0.7 -1.1
v 1.3 0.7 -1.2
v 1.4 0.7 -1.2
v 0.8 0.7 -1.6
v 0.9 0.7 -1.6
v 0.8 0.7 -1.7
v 0.9 0.7 -1.7
v 1.7 0.7 -1.7
v 1.8 0.7 -1.7
v 1.7 0.7 -1.8
v 1.8 0.7 -1.8
v 1.1 0.8 1.8
v 1.5 0.8 1.8
v 1.2 0.8 1.6
v 1.3 0.8 1.6
v 1.1 0.8 1.5
v 1.2 0.8 1.5
v 1.3 0.8 1.5
v 1.5 0.8 1.5
v 1.8 0.8 1.5
v 1.6 0.8 1.3
v 1.7 0.8 1.3
v 1.6 0.8 1.2
v 1.7 0.8 1.2
v 1.7 0.8 1
v 1.8 0.8 1
v 1.5 0.8 0.9
v 1.7 0.8 0.9
v 1.8 0.8 0.9
v 1.6 0.8 -1.1
v 1.7 0.8 -1.1
v 1.5 0.8 -1.2
v 1.6 0.8 -1.2
v 1.7 0.8 -1.2
v 1.8 0.8 -1.2
v 1.5 0.8 -1.3
v 1.6 0.8 -1.3
v 1.7 0.8 -1.3
v 1.8 0.8 -1.3
v 0.8 0.8 -1.4
v 0.9 0.8 -1.4
v 1.6 0.8 -1.4
v 1.7 0.8 -1.4
v 0.8 0.8 -1.5
v 0.9 0.8 -1.5
v 1.7 0.8 -1.5
v 1.8 0.8 -1.5
v 1.7 0.8 -1.6
v 1.8 0.8 -1.6
v 0.9 0.9 -1.4
v 1 0.9 -1.4
v 1.1 0.9 -1.4
v 1.5 0.9 -1.4
v 1.6 0.9 -1.4
v 1.7 0.9 -1.4
v 0.8 0.9 -1.7
v 0.9 0.9 -1.7
v 1 0.9 -1.7
v 1.1 0.9 -1.7
v 1.5 0.9 -1.7
v 1.6 0.9 -1.7
v 1.7 0.9 -1.7
v 0.8 0.9 -1.8
v 1 0.9 -1.8
v 1.1 0.9 -1.8
v 1.5 0.9 -1.8
v 1.6 0.9 -1.8
v 1.7 0.9 -1.8
v -1.4 1 1.9
v -1.2 1 1.9
v -1.4 1 1.8
v -1.2 1 1.8
v -1.9 1 1.4
v -1.8 1 1.4
v -0.8 1 1.4
v -0.7 1 1.4
v -1.9 1 0.8
v -1.8 1 0.8
v -0.8 1 0.8
v -0.7 1 0.8
v -1.8 1.1 0.9
v -0.8 1.1 0.9
v -1.8 1.1 0.7
v -0.8 1.1 0.7
v -1.8 1.5 1.8
v -0.8 1.5 1.8
v -1.5 1.5 1.6
v -1.1 1.5 1.6
v -1.5 1.5 1.1
v -1.1 1.5 1.1
v -1.8 1.5 0.9
v -0.8 1.5 0.9
v -1.5 1.7 1.6
v -1.1 1.7 1.6
v -1.5 1.7 1.1
v -1.1 1.7 1.1

# faces
f 7/6/1 6/6/1 5/6/1
f 8/6/1 6/6/1 7/6/1
f 9/6/1 2/6/1 1/6/1
f 10/6/1 2/6/1 9/6/1
f 11/6/1 4/6/1 3/6/1
f 12/6/1 4/6/1 11/6/1
f 13/6/1 7/6/1 5/6/1
f 14/6/1 7/6/1 13/6/1
f 17/7/1 16/7/1 15/7/1
f 18/7/1 16/7/1 17/7/1
f 31/6/1 20/6/1 19/6/1
f 32/6/1 20/6/1 31/6/1
f 33/6/1 22/6/1 21/6/1
f 34/6/1 22/6/1 33/6/1
f 35/6/1 24/6/1 23/6/1
f 36/6/1 24/6/1 35/6/1
f 37/6/1 26/6/1 25/6/1
f 38/6/1 26/6/1 37/6/1
f 39/6/1 28/6/1 27/6/1
f 40/6/1 28/6/1 39/6/1
f 45/6/1 30/6/1 29/6/1
f 46/6/1 30/6/1 45/6/1
f 49/3/1 42/3/1 41/3/1
f 50/3/1 42/3/1 49/3/1
f 51/7/1 44/7/1 43/7/1
f 52/7/1 44/7/1 51/7/1
f 53/7/1 48/7/1 47/7/1
f 54/7/1 48/7/1 53/7/1
f 55/7/1 53/7/1 47/7/1
f 56/7/1 48/7/1 54/7/1
f 57/7/1 56/7/1 55/7/1
f 58/7/1 48/7/1 56/7/1
f 58/7/1 56/7/1 57/7/1
f 59/7/1 55/7/1 47/7/1
f 59/7/1 57/7/1 55/7/1
f 60/7/1 57/7/1 59/7/1
f 63/3/1 62/3/1 61/3/1
f 64/3/1 62/3/1 63/3/1
f 67/3/1 66/3/1 65/3/1
f 68/3/1 66/3/1 67/3/1
f 71/3/1 70/3/1 69/3/1
f 72/3/1 70/3/1 71/3/1
f 75/3/1 74/3/1 73/3/1
f 76/3/1 74/3/1 75/3/1
f 79/7/1 78/7/1 77/7/1
f 80/7/1 78/7/1 79/7/1
f 83/3/1 82/3/1 81/3/1
f 84/3/1 82/3/1 83/3/1
f 91/3/1 86/3/1 85/3/1
f 92/3/1 86/3/1 91/3/1
f 93/3/1 88/3/1 87/3/1
f 94/3/1 88/3/1 93/3/1
f 95/3/1 90/3/1 89/3/1
f 96/3/1 90/3/1 95/3/1
f 103/6/1 98/6/1 97/6/1
f 104/6/1 98/6/1 103/6/1
f 105/6/1 100/6/1 99/6/1
f 106/6/1 100/6/1 105/6/1
f 107/6/1 102/6/1 101/6/1
f 108/6/1 102/6/1 107/6/1
f 121/6/1 110/6/1 109/6/1
f 122/6/1 110/6/1 121/6/1
f 123/6/1 112/6/1 111/6/1
f 124/6/1 112/6/1 123/6/1
f 125/6/1 114/6/1 113/6/1
f 126/6/1 114/6/1 125/6/1
f 127/6/1 116/6/1 115/6/1
f 128/6/1 116/6/1 127/6/1
f 129/6/1 118/6/1 117/6/1
f 130/6/1 118/6/1 129/6/1
f 131/6/1 120/6/1 119/6/1
f 132/6/1 120/6/1 131/6/1
f 139/6/1 134/6/1 133/6/1
f 140/6/1 134/6/1 139/6/1
f 141/6/1 136/6/1 135/6/1
f 142/6/1 136/6/1 141/6/1
f 143/6/1 138/6/1 137/6/1
f 144/6/1 138/6/1 143/6/1
f 157/6/1 146/6/1 145/6/1
f 158/6/1 146/6/1 157/6/1
f 159/6/1 148/6/1 147/6/1
f 160/6/1 148/6/1 159/6/1
f 161/6/1 150/6/1 149/6/1
f 162/6/1 150/6/1 161/6/1
f 163/6/1 152/6/1 151/6/1
f 164/6/1 152/6/1 163/6/1
f 165/6/1 154/6/1 153/6/1
f 166/6/1 154/6/1 165/6/1
f 170/6/1 156/6/1 155/6/1
f 171/6/1 156/6/1 170/6/1
f 172/5/1 168/5/1 167/5/1
f 173/5/1 168/5/1 172/5/1
f 174/5/1 170/5/1 169/5/1
f 175/5/1 170/5/1 174/5/1
f 178/5/1 174/5/1 173/5/1
f 179/5/1 174/5/1 178/5/1
f 180/5/1 177/5/1 176/5/1
f 181/5/1 177/5/1 180/5/1
f 184/5/1 183/5/1 182/5/1
f 185/5/1 183/5/1 184/5/1
f 190/3/1 187/3/1 186/3/1
f 191/3/1 189/3/1 188/3/1
f 192/3/1 189/3/1 191/3/1
f 194/3/1 190/3/1 186/3/1
f 194/3/1 191/3/1 190/3/1
f 195/3/1 191/3/1 194/3/1
f 196/3/1 191/3/1 195/3/1
f 197/5/1 193/5/1 192/5/1
f 198/5/1 193/5/1 197/5/1
f 200/3/1 196/3/1 195/3/1
f 200/3/1 198/3/1 197/3/1
f 200/3/1 197/3/1 196/3/1
f 201/3/1 198/3/1 200/3/1
f 202/3/1 198/3/1 201/3/1
f 203/3/1 200/3/1 199/3/1
f 203/3/1 201/3/1 200/3/1
f 204/3/1 201/3/1 203/3/1
f 207/6/1 206/6/1 205/6/1
f 208/6/1 206/6/1 207/6/1
f 209/6/1 207/6/1 205/6/1
f 209/3/1 208/3/1 207/3/1
f 210/6/1 206/6/1 208/6/1
f 210/3/1 208/3/1 209/3/1
f 211/6/1 209/6/1 205/6/1
f 211/6/1 210/6/1 209/6/1
f 212/6/1 206/6/1 210/6/1
f 212/6/1 210/6/1 211/6/1
f 215/7/1 214/7/1 213/7/1
f 216/7/1 214/7/1 215/7/1
f 220/6/1 218/6/1 217/6/1
f 221/6/1 218/6/1 220/6/1
f 223/7/1 220/7/1 219/7/1
f 224/7/1 220/7/1 223/7/1
f 225/7/1 222/7/1 221/7/1
f 226/7/1 222/7/1 225/7/1
f 231/6/1 228/6/1 227/6/1
f 232/3/1 229/3/1 228/3/1
f 232/6/1 228/6/1 231/6/1
f 233/6/1 230/6/1 229/6/1
f 233/3/1 229/3/1 232/3/1
f 234/6/1 230/6/1 233/6/1
f 235/6/1 230/6/1 234/6/1
f 238/6/1 232/6/1 231/6/1
f 238/6/1 233/6/1 232/6/1
f 238/6/1 234/6/1 233/6/1
f 239/3/1 235/3/1 234/3/1
f 239/6/1 234/6/1 238/6/1
f 240/6/1 230/6/1 235/6/1
f 240/3/1 235/3/1 239/3/1
f 241/7/1 237/7/1 236/7/1
f 242/7/1 237/7/1 241/7/1
f 245/6/1 239/6/1 238/6/1
f 245/6/1 240/6/1 239/6/1
f 246/6/1 230/6/1 240/6/1
f 246/6/1 240/6/1 245/6/1
f 247/7/1 244/7/1 243/7/1
f 248/7/1 244/7/1 247/7/1
f 254/6/1 250/6/1 249/6/1
f 255/6/1 250/6/1 254/6/1
f 257/7/1 254/7/1 253/7/1
f 258/7/1 254/7/1 257/7/1
f 259/7/1 256/7/1 255/7/1
f 260/7/1 256/7/1 259/7/1
f 262/6/1 252/6/1 251/6/1
f 263/6/1 252/6/1 262/6/1
f 265/7/1 262/7/1 261/7/1
f 266/7/1 262/7/1 265/7/1
f 267/7/1 264/7/1 263/7/1
f 268/7/1 264/7/1 267/7/1
f 269/7/2 270/7/2 271/7/2
f 271/7/2 270/7/2 272/7/2
f 273/3/2 274/3/2 275/3/2
f 275/3/2 274/3/2 276/3/2
f 277/3/2 278/3/2 283/3/2
f 283/3/2 278/3/2 284/3/2
f 279/3/2 280/3/2 285/3/2
f 285/3/2 280/3/2 286/3/2
f 281/3/2 282/3/2 287/3/2
f 287/3/2 282/3/2 288/3/2
f 289/7/2 290/7/2 291/7/2
f 291/7/2 290/7/2 292/7/2
f 293/3/2 294/3/2 295/3/2
f 295/3/2 294/3/2 296/3/2
f 297/3/2 298/3/2 299/3/2
f 299/3/2 298/3/2 300/3/2
f 301/3/2 302/3/2 303/3/2
f 303/3/2 302/3/2 304/3/2
f 305/3/2 306/3/2 309/3/2
f 309/3/2 306/3/2 310/3/2
f 307/3/2 308/3/2 311/3/2
f 311/3/2 308/3/2 312/3/2
f 313/6/2 314/6/2 325/6/2
f 325/6/2 314/6/2 326/6/2
f 315/6/2 316/6/2 327/6/2
f 327/6/2 316/6/2 328/6/2
f 317/6/2 318/6/2 329/6/2
f 329/6/2 318/6/2 330/6/2
f 319/6/2 320/6/2 331/6/2
f 331/6/2 320/6/2 332/6/2
f 321/6/2 322/6/2 333/6/2
f 333/6/2 322/6/2 334/6/2
f 323/6/2 324/6/2 335/6/2
f 335/6/2 324/6/2 336/6/2
f 337/7/2 338/7/2 339/7/2
f 339/7/2 338/7/2 340/7/2
f 337/7/2 339/7/2 341/7/2
f 340/7/2 338/7/2 342/7/2
f 341/7/2 342/7/2 343/7/2
f 342/7/2 338/7/2 344/7/2
f 343/7/2 342/7/2 344/7/2
f 337/7/2 341/7/2 345/7/2
f 341/7/2 343/7/2 345/7/2
f 345/7/2 343/7/2 346/7/2
f 347/6/2 348/6/2 353/6/2
f 353/6/2 348/6/2 354/6/2
f 349/6/2 350/6/2 355/6/2
f 355/6/2 350/6/2 356/6/2
f 351/6/2 352/6/2 357/6/2
f 357/6/2 352/6/2 358/6/2
f 359/7/2 360/7/2 361/7/2
f 361/7/2 360/7/2 362/7/2
f 363/6/2 364/6/2 375/6/2
f 375/6/2 364/6/2 376/6/2
f 365/6/2 366/6/2 377/6/2
f 377/6/2 366/6/2 378/6/2
f 367/6/2 368/6/2 379/6/2
f 379/6/2 368/6/2 380/6/2
f 369/6/2 370/6/2 381/6/2
f 381/6/2 370/6/2 382/6/2
f 371/6/2 372/6/2 383/6/2
f 383/6/2 372/6/2 384/6/2
f 373/6/2 374/6/2 385/6/2
f 385/6/2 374/6/2 386/6/2
f 387/6/2 388/6/2 393/6/2
f 393/6/2 388/6/2 394/6/2
f 389/6/2 390/6/2 395/6/2
f 395/6/2 390/6/2 396/6/2
f 391/6/2 392/6/2 397/6/2
f 397/6/2 392/6/2 398/6/2
f 399/6/2 400/6/2 402/6/2
f 402/6/2 400/6/2 403/6/2
f 401/7/2 402/7/2 405/7/2
f 405/7/2 402/7/2 406/7/2
f 403/7/2 404/7/2 407/7/2
f 407/7/2 404/7/2 408/7/2
f 409/6/2 410/6/2 411/6/2
f 411/6/2 410/6/2 412/6/2
f 409/6/2 411/6/2 415/6/2
f 411/3/2 412/3/2 415/3/2
f 415/3/2 412/3/2 416/3/2
f 413/7/2 414/7/2 417/7/2
f 417/7/2 414/7/2 418/7/2
f 415/6/2 416/6/2 419/6/2
f 409/6/2 415/6/2 419/6/2
f 419/6/2 416/6/2 420/6/2
f 421/6/2 422/6/2 430/6/2
f 430/6/2 422/6/2 431/6/2
f 425/5/2 426/5/2 434/5/2
f 434/5/2 426/5/2 435/5/2
f 427/5/2 428/5/2 436/5/2
f 436/5/2 428/5/2 437/5/2
f 429/7/2 430/7/2 438/7/2
f 438/7/2 430/7/2 439/7/2
f 431/7/2 432/7/2 440/7/2
f 440/7/2 432/7/2 441/7/2
f 423/6/2 424/6/2 443/6/2
f 443/6/2 424/6/2 444/6/2
f 434/3/2 435/3/2 445/3/2
f 433/3/2 434/3/2 445/3/2
f 445/3/2 435/3/2 446/3/2
f 435/5/2 436/5/2 447/5/2
f 446/3/2 435/3/2 447/3/2
f 447/5/2 436/5/2 448/5/2
f 442/7/2 443/7/2 450/7/2
f 450/7/2 443/7/2 451/7/2
f 444/7/2 445/7/2 452/7/2
f 445/5/2 446/5/2 453/5/2
f 452/7/2 445/7/2 453/7/2
f 453/5/2 446/5/2 454/5/2
f 448/3/2 449/3/2 455/3/2
f 447/3/2 448/3/2 455/3/2
f 455/3/2 449/3/2 456/3/2
f 456/3/2 449/3/2 457/3/2
f 453/3/2 454/3/2 458/3/2
f 455/3/2 456/3/2 458/3/2
f 454/3/2 455/3/2 458/3/2
f 456/5/2 457/5/2 459/5/2
f 458/3/2 456/3/2 459/3/2
f 459/5/2 457/5/2 460/5/2
f 461/6/2 462/6/2 473/6/2
f 473/6/2 462/6/2 474/6/2
f 463/6/2 464/6/2 477/6/2
f 477/6/2 464/6/2 478/6/2
f 465/6/2 466/6/2 479/6/2
f 479/6/2 466/6/2 480/6/2
f 467/6/2 468/6/2 481/6/2
f 481/6/2 468/6/2 482/6/2
f 469/6/2 470/6/2 483/6/2
f 483/6/2 470/6/2 484/6/2
f 471/6/2 472/6/2 489/6/2
f 489/6/2 472/6/2 490/6/2
f 475/6/2 476/6/2 491/6/2
f 491/6/2 476/6/2 492/6/2
f 485/3/2 486/3/2 495/3/2
f 495/3/2 486/3/2 496/3/2
f 487/3/2 488/3/2 497/3/2
f 497/3/2 488/3/2 498/3/2
f 491/3/2 492/3/2 500/3/2
f 492/6/2 476/6/2 501/6/2
f 500/3/2 492/3/2 501/3/2
f 501/6/2 476/6/2 502/6/2
f 502/6/2 476/6/2 503/6/2
f 493/7/2 494/7/2 504/7/2
f 504/7/2 494/7/2 505/7/2
f 498/5/2 499/5/2 510/5/2
f 510/5/2 499/5/2 511/5/2
f 500/6/2 501/6/2 512/6/2
f 501/6/2 502/6/2 512/6/2
f 502/3/2 503/3/2 513/3/2
f 512/6/2 502/6/2 513/6/2
f 513/3/2 503/3/2 514/3/2
f 506/7/2 507/7/2 515/7/2
f 515/7/2 507/7/2 516/7/2
f 508/3/2 509/3/2 517/3/2
f 517/3/2 509/3/2 518/3/2
f 519/6/2 520/6/2 525/6/2
f 525/6/2 520/6/2 526/6/2
f 521/6/2 522/6/2 527/6/2
f 527/6/2 522/6/2 528/6/2
f 523/6/2 524/6/2 529/6/2
f 529/6/2 524/6/2 530/6/2
f 535/3/3 534/3/3 533/3/3
f 536/3/3 534/3/3 535/3/3
f 537/6/3 532/6/3 531/6/3
f 538/6/3 532/6/3 537/6/3
f 541/6/3 540/6/3 539/6/3
f 542/6/3 540/6/3 541/6/3
f 545/6/3 544/6/3 543/6/3
f 546/6/3 544/6/3 545/6/3
f 549/6/3 548/6/3 547/6/3
f 550/6/3 548/6/3 549/6/3
f 553/7/3 552/7/3 551/7/3
f 554/7/3 552/7/3 553/7/3
f 555/7/3 553/7/3 551/7/3
f 556/8/3 554/8/3 553/8/3
f 556/7/3 553/7/3 555/7/3
f 557/7/3 552/7/3 554/7/3
f 557/8/3 554/8/3 556/8/3
f 558/7/3 555/7/3 551/7/3
f 559/7/3 557/7/3 556/7/3
f 560/7/3 552/7/3 557/7/3
f 560/7/3 557/7/3 559/7/3
f 561/7/3 559/7/3 558/7/3
f 561/8/3 560/8/3 559/8/3
f 562/7/3 552/7/3 560/7/3
f 562/8/3 560/8/3 561/8/3
f 565/7/3 561/7/3 558/7/3
f 565/7/3 558/7/3 551/7/3
f 565/7/3 562/7/3 561/7/3
f 566/7/3 552/7/3 562/7/3
f 566/7/3 562/7/3 565/7/3
f 567/6/3 564/6/3 563/6/3
f 568/6/3 564/6/3 567/6/3
f 571/6/3 570/6/3 569/6/3
f 572/6/3 570/6/3 571/6/3
f 575/6/3 574/6/3 573/6/3
f 576/6/3 574/6/3 575/6/3
f 579/6/3 578/6/3 577/6/3
f 580/6/3 578/6/3 579/6/3
f 583/6/3 582/6/3 581/6/3
f 584/6/3 582/6/3 583/6/3
f 585/6/3 583/6/3 581/6/3
f 585/3/3 584/3/3 583/3/3
f 586/6/3 582/6/3 584/6/3
f 586/3/3 584/3/3 585/3/3
f 587/6/3 585/6/3 581/6/3
f 587/6/3 586/6/3 585/6/3
f 588/6/3 582/6/3 586/6/3
f 588/6/3 586/6/3 587/6/3
f 591/6/3 590/6/3 589/6/3
f 592/6/3 590/6/3 591/6/3
f 597/3/3 594/3/3 593/3/3
f 598/3/3 594/3/3 597/3/3
f 601/3/3 596/3/3 595/3/3
f 602/3/3 596/3/3 601/3/3
f 603/3/3 600/3/3 599/3/3
f 604/3/3 600/3/3 603/3/3
f 609/6/3 606/6/3 605/6/3
f 609/6/3 608/6/3 607/6/3
f 609/6/3 607/6/3 606/6/3
f 610/6/3 608/6/3 609/6/3
f 611/6/3 609/6/3 605/6/3
f 612/3/3 610/3/3 609/3/3
f 612/6/3 609/6/3 611/6/3
f 613/6/3 608/6/3 610/6/3
f 613/3/3 610/3/3 612/3/3
f 614/6/3 608/6/3 613/6/3
f 617/7/3 616/7/3 615/7/3
f 618/7/3 616/7/3 617/7/3
f 621/7/3 620/7/3 619/7/3
f 622/7/3 620/7/3 621/7/3
f 625/6/3 624/6/3 623/6/3
f 626/6/3 624/6/3 625/6/3
f 629/6/3 628/6/3 627/6/3
f 630/6/3 628/6/3 629/6/3
f 633/6/3 632/6/3 631/6/3
f 634/6/3 632/6/3 633/6/3
f 637/6/3 636/6/3 635/6/3
f 638/6/3 636/6/3 637/6/3
f 641/6/3 640/6/3 639/6/3
f 642/6/3 640/6/3 641/6/3
f 645/6/3 644/6/3 643/6/3
f 646/6/3 644/6/3 645/6/3
f 649/6/3 648/6/3 647/6/3
f 650/6/3 648/6/3 649/6/3
f 653/6/3 652/6/3 651/6/3
f 654/6/3 652/6/3 653/6/3
f 657/6/3 656/6/3 655/6/3
f 658/6/3 656/6/3 657/6/3
f 661/6/3 660/6/3 659/6/3
f 662/6/3 660/6/3 661/6/3
f 665/6/3 664/6/3 663/6/3
f 666/6/3 664/6/3 665/6/3
f 671/7/3 670/7/3 669/7/3
f 672/7/3 670/7/3 671/7/3
f 673/6/3 668/6/3 667/6/3
f 674/6/3 668/6/3 673/6/3
f 677/6/3 676/6/3 675/6/3
f 678/6/3 676/6/3 677/6/3
f 681/6/3 680/6/3 679/6/3
f 682/6/3 680/6/3 681/6/3
f 685/6/3 684/6/3 683/6/3
f 686/6/3 684/6/3 685/6/3
f 689/6/3 688/6/3 687/6/3
f 690/6/3 688/6/3 689/6/3
f 693/6/3 692/6/3 691/6/3
f 694/6/3 692/6/3 693/6/3
f 698/7/3 696/7/3 695/7/3
f 699/7/3 696/7/3 698/7/3
f 700/6/3 698/6/3 697/6/3
f 701/6/3 698/6/3 700/6/3
f 705/7/3 702/7/3 701/7/3
f 706/7/3 702/7/3 705/7/3
f 707/6/3 704/6/3 703/6/3
f 708/6/3 704/6/3 707/6/3
f 711/3/3 710/3/3 709/3/3
f 712/3/3 710/3/3 711/3/3
f 715/7/3 714/7/3 713/7/3
f 716/7/3 714/7/3 715/7/3
f 720/7/3 718/7/3 717/7/3
f 721/7/3 718/7/3 720/7/3
f 722/6/3 720/6/3 719/6/3
f 723/6/3 720/6/3 722/6/3
f 725/7/3 724/7/3 723/7/3
f 726/7/3 724/7/3 725/7/3
f 729/7/3 728/7/3 727/7/3
f 730/7/3 728/7/3 729/7/3
f 733/7/3 732/7/3 731/7/3
f 734/7/3 732/7/3 733/7/3
f 737/3/3 736/3/3 735/3/3
f 738/3/3 736/3/3 737/3/3
f 742/7/3 740/7/3 739/7/3
f 743/7/3 740/7/3 742/7/3
f 744/6/3 742/6/3 741/6/3
f 745/6/3 742/6/3 744/6/3
f 747/7/3 746/7/3 745/7/3
f 748/7/3 746/7/3 747/7/3
f 751/3/3 750/3/3 749/3/3
f 752/3/3 750/3/3 751/3/3
f 756/5/3 754/5/3 753/5/3
f 757/5/3 754/5/3 756/5/3
f 759/3/3 756/3/3 755/3/3
f 760/5/3 757/5/3 756/5/3
f 760/3/3 756/3/3 759/3/3
f 761/3/3 758/3/3 757/3/3
f 761/5/3 757/5/3 760/5/3
f 762/3/3 758/3/3 761/3/3
f 763/4/3 760/4/3 759/4/3
f 763/4/3 761/4/3 760/4/3
f 763/4/3 762/4/3 761/4/3
f 764/4/3 762/4/3 763/4/3
f 765/4/3 762/4/3 764/4/3
f 766/4/3 762/4/3 765/4/3
f 767/3/3 764/3/3 763/3/3
f 768/5/3 765/5/3 764/5/3
f 768/3/3 764/3/3 767/3/3
f 769/3/3 766/3/3 765/3/3
f 769/5/3 765/5/3 768/5/3
f 770/3/3 766/3/3 769/3/3
f 771/4/3 768/4/3 767/4/3
f 771/4/3 769/4/3 768/4/3
f 771/4/3 770/4/3 769/4/3
f 772/4/3 770/4/3 771/4/3
f 773/4/3 770/4/3 772/4/3
f 774/4/3 770/4/3 773/4/3
f 775/3/3 772/3/3 771/3/3
f 776/3/3 772/3/3 775/3/3
f 777/3/3 774/3/3 773/3/3
f 778/3/3 774/3/3 777/3/3
f 779/3/3 775/3/3 771/3/3
f 780/3/3 775/3/3 779/3/3
f 783/5/3 782/5/3 781/5/3
f 784/5/3 782/5/3 783/5/3
f 787/3/3 786/3/3 785/3/3
f 788/3/3 786/3/3 787/3/3
f 791/7/3 790/7/3 789/7/3
f 792/7/3 790/7/3 791/7/3
f 795/3/3 794/3/3 793/3/3
f 796/3/3 794/3/3 795/3/3
f 799/5/3 798/5/3 797/5/3
f 800/5/3 798/5/3 799/5/3
f 803/3/3 802/3/3 801/3/3
f 804/3/3 802/3/3 803/3/3
f 807/3/3 806/3/3 805/3/3
f 808/3/3 806/3/3 807/3/3
f 813/5/3 810/5/3 809/5/3
f 814/5/3 810/5/3 813/5/3
f 815/5/3 812/5/3 811/5/3
f 816/5/3 812/5/3 815/5/3
f 819/5/3 818/5/3 817/5/3
f 820/5/3 818/5/3 819/5/3
f 821/6/4 822/6/4 823/6/4
f 823/6/4 822/6/4 824/6/4
f 821/6/4 823/6/4 825/6/4
f 823/3/4 824/3/4 825/3/4
f 825/3/4 824/3/4 826/3/4
f 821/6/4 825/6/4 827/6/4
f 825/6/4 826/6/4 827/6/4
f 827/6/4 826/6/4 828/6/4
f 821/6/4 827/6/4 829/6/4
f 827/3/4 828/3/4 830/3/4
f 829/6/4 827/6/4 830/6/4
f 828/6/4 826/6/4 831/6/4
f 830/3/4 828/3/4 831/3/4
f 831/6/4 826/6/4 832/6/4
f 833/3/4 834/3/4 835/3/4
f 835/3/4 834/3/4 836/3/4
f 837/3/4 838/3/4 839/3/4
f 839/3/4 838/3/4 840/3/4
f 841/3/4 842/3/4 843/3/4
f 843/3/4 842/3/4 844/3/4
f 845/7/4 846/7/4 847/7/4
f 847/7/4 846/7/4 848/7/4
f 849/6/4 850/6/4 851/6/4
f 851/6/4 850/6/4 852/6/4
f 849/6/4 851/6/4 853/6/4
f 851/3/4 852/3/4 854/3/4
f 853/6/4 851/6/4 854/6/4
f 854/3/4 852/3/4 855/3/4
f 856/6/4 857/6/4 860/6/4
f 860/6/4 857/6/4 861/6/4
f 858/7/4 859/7/4 862/7/4
f 862/7/4 859/7/4 863/7/4
f 864/6/4 865/6/4 868/6/4
f 868/6/4 865/6/4 869/6/4
f 866/7/4 867/7/4 870/7/4
f 870/7/4 867/7/4 871/7/4
f 872/6/4 873/6/4 874/6/4
f 874/6/4 873/6/4 875/6/4
f 876/6/4 877/6/4 878/6/4
f 878/6/4 877/6/4 879/6/4
f 880/6/4 881/6/4 882/6/4
f 882/6/4 881/6/4 883/6/4
f 884/6/4 885/6/4 886/6/4
f 886/6/4 885/6/4 887/6/4
f 888/6/4 889/6/4 892/6/4
f 892/6/4 889/6/4 893/6/4
f 890/7/4 891/7/4 894/7/4
f 894/7/4 891/7/4 895/7/4
f 896/6/4 897/6/4 898/6/4
f 898/6/4 897/6/4 899/6/4
f 900/6/4 901/6/4 902/6/4
f 902/6/4 901/6/4 903/6/4
f 904/6/4 905/6/4 906/6/4
f 906/6/4 905/6/4 907/6/4
f 908/6/4 909/6/4 910/6/4
f 910/6/4 909/6/4 911/6/4
f 912/6/4 913/6/4 914/6/4
f 914/6/4 913/6/4 915/6/4
f 916/6/4 917/6/4 918/6/4
f 918/6/4 917/6/4 919/6/4
f 920/6/4 921/6/4 922/6/4
f 922/6/4 921/6/4 923/6/4
f 924/6/4 925/6/4 926/6/4
f 926/6/4 925/6/4 927/6/4
f 928/6/4 929/6/4 930/6/4
f 930/6/4 929/6/4 931/6/4
f 932/6/4 933/6/4 934/6/4
f 934/6/4 933/6/4 935/6/4
f 936/6/4 937/6/4 938/6/4
f 938/6/4 937/6/4 939/6/4
f 940/7/4 941/7/4 943/7/4
f 943/7/4 941/7/4 944/7/4
f 942/6/4 943/6/4 945/6/4
f 945/6/4 943/6/4 946/6/4
f 946/7/4 947/7/4 948/7/4
f 948/7/4 947/7/4 949/7/4
f 950/7/4 951/7/4 952/7/4
f 952/7/4 951/7/4 953/7/4
f 954/3/4 955/3/4 956/3/4
f 956/3/4 955/3/4 957/3/4
f 958/7/4 959/7/4 961/7/4
f 961/7/4 959/7/4 962/7/4
f 960/6/4 961/6/4 963/6/4
f 963/6/4 961/6/4 964/6/4
f 964/7/4 965/7/4 966/7/4
f 966/7/4 965/7/4 967/7/4
f 968/7/4 969/7/4 970/7/4
f 970/7/4 969/7/4 971/7/4
f 972/7/4 973/7/4 974/7/4
f 974/7/4 973/7/4 975/7/4
f 976/7/4 977/7/4 979/7/4
f 979/7/4 977/7/4 980/7/4
f 978/6/4 979/6/4 981/6/4
f 981/6/4 979/6/4 982/6/4
f 982/7/4 983/7/4 984/7/4
f 984/7/4 983/7/4 985/7/4
f 986/3/4 987/3/4 988/3/4
f 988/3/4 987/3/4 989/3/4
f 990/5/4 991/5/4 992/5/4
f 992/5/4 991/5/4 993/5/4
f 994/3/4 995/3/4 996/3/4
f 996/3/4 995/3/4 997/3/4
f 998/3/4 999/3/4 1000/3/4
f 1000/3/4 999/3/4 1001/3/4
f 1002/5/4 1003/5/4 1004/5/4
f 1004/5/4 1003/5/4 1005/5/4
f 1006/3/4 1007/3/4 1008/3/4
f 1008/3/4 1007/3/4 1009/3/4
f 1010/7/4 1011/7/4 1012/7/4
f 1012/7/4 1011/7/4 1013/7/4
f 1014/3/4 1015/3/4 1016/3/4
f 1016/3/4 1015/3/4 1017/3/4
f 1018/5/4 1019/5/4 1020/5/4
f 1020/5/4 1019/5/4 1021/5/4
f 1022/3/4 1023/3/4 1024/3/4
f 1024/3/4 1023/3/4 1025/3/4
f 1026/6/4 1027/6/4 1028/6/4
f 1028/6/4 1027/6/4 1029/6/4
f 1030/3/4 1031/3/4 1032/3/4
f 1032/3/4 1031/3/4 1033/3/4
f 1034/6/4 1035/6/4 1036/6/4
f 1036/6/4 1035/6/4 1037/6/4
f 1038/6/4 1039/6/4 1040/6/4
f 1040/6/4 1039/6/4 1041/6/4
f 1042/6/4 1043/6/4 1044/6/4
f 1044/6/4 1043/6/4 1045/6/4
f 1046/6/4 1047/6/4 1048/6/4
f 1048/6/4 1047/6/4 1049/6/4
f 1049/5/4 1050/5/4 1053/5/4
f 1053/5/4 1050/5/4 1054/5/4
f 1051/5/4 1052/5/4 1056/5/4
f 1053/3/4 1054/3/4 1057/3/4
f 1054/5/4 1055/5/4 1058/5/4
f 1057/3/4 1054/3/4 1058/3/4
f 1055/3/4 1056/3/4 1059/3/4
f 1058/5/4 1055/5/4 1059/5/4
f 1056/5/4 1052/5/4 1060/5/4
f 1059/3/4 1056/3/4 1060/3/4
f 1060/5/4 1052/5/4 1061/5/4
f 1057/4/4 1058/4/4 1062/4/4
f 1058/4/4 1059/4/4 1062/4/4
f 1060/4/4 1061/4/4 1062/4/4
f 1059/4/4 1060/4/4 1062/4/4
f 1062/4/4 1061/4/4 1063/4/4
f 1063/4/4 1061/4/4 1064/4/4
f 1064/4/4 1061/4/4 1065/4/4
f 1065/4/4 1061/4/4 1066/4/4
f 1062/3/4 1063/3/4 1067/3/4
f 1063/5/4 1064/5/4 1068/5/4
f 1067/3/4 1063/3/4 1068/3/4
f 1064/3/4 1065/3/4 1069/3/4
f 1068/5/4 1064/5/4 1069/5/4
f 1065/5/4 1066/5/4 1070/5/4
f 1069/3/4 1065/3/4 1070/3/4
f 1070/5/4 1066/5/4 1071/5/4
f 1067/4/4 1068/4/4 1072/4/4
f 1068/4/4 1069/4/4 1072/4/4
f 1070/4/4 1071/4/4 1072/4/4
f 1069/4/4 1070/4/4 1072/4/4
f 1072/4/4 1071/4/4 1073/4/4
f 1073/4/4 1071/4/4 1074/4/4
f 1074/4/4 1071/4/4 1075/4/4
f 1072/5/4 1073/5/4 1076/5/4
f 1076/5/4 1073/5/4 1077/5/4
f 1073/3/4 1074/3/4 1078/3/4
f 1077/5/4 1073/5/4 1078/5/4
f 1074/5/4 1075/5/4 1079/5/4
f 1078/3/4 1074/3/4 1079/3/4
f 1079/5/4 1075/5/4 1080/5/4
f 1077/5/4 1078/5/4 1083/5/4
f 1083/5/4 1078/5/4 1084/5/4
f 1081/6/4 1082/6/4 1085/6/4
f 1085/6/4 1082/6/4 1086/6/4
f 1087/6/4 1088/6/4 1089/6/4
f 1087/6/4 1089/6/4 1091/6/4
f 1089/6/4 1090/6/4 1091/6/4
f 1091/6/4 1090/6/4 1092/6/4
f 1093/6/4 1094/6/4 1095/6/4
f 1095/6/4 1094/6/4 1096/6/4
f 1097/6/4 1098/6/4 1099/6/4
f 1099/6/4 1098/6/4 1100/6/4
f 1108/6/5 1102/6/5 1101/6/5
f 1109/6/5 1102/6/5 1108/6/5
f 1112/6/5 1104/6/5 1103/6/5
f 1113/6/5 1104/6/5 1112/6/5
f 1116/6/5 1106/6/5 1105/6/5
f 1117/6/5 1106/6/5 1116/6/5
f 1119/6/5 1110/6/5 1109/6/5
f 1119/6/5 1108/6/5 1107/6/5
f 1119/6/5 1109/6/5 1108/6/5
f 1120/6/5 1110/6/5 1119/6/5
f 1121/6/5 1110/6/5 1120/6/5
f 1122/6/5 1110/6/5 1121/6/5
f 1123/6/5 1114/6/5 1113/6/5
f 1123/6/5 1112/6/5 1111/6/5
f 1123/6/5 1113/6/5 1112/6/5
f 1124/6/5 1114/6/5 1123/6/5
f 1125/6/5 1114/6/5 1124/6/5
f 1126/6/5 1114/6/5 1125/6/5
f 1127/6/5 1118/6/5 1117/6/5
f 1127/6/5 1117/6/5 1116/6/5
f 1127/6/5 1116/6/5 1115/6/5
f 1128/6/5 1118/6/5 1127/6/5
f 1129/6/5 1118/6/5 1128/6/5
f 1130/6/5 1118/6/5 1129/6/5
f 1131/6/5 1121/6/5 1120/6/5
f 1132/6/5 1121/6/5 1131/6/5
f 1133/6/5 1125/6/5 1124/6/5
f 1134/6/5 1125/6/5 1133/6/5
f 1135/6/5 1129/6/5 1128/6/5
f 1136/6/5 1129/6/5 1135/6/5
f 1144/6/5 1138/6/5 1137/6/5
f 1145/6/5 1138/6/5 1144/6/5
f 1148/6/5 1140/6/5 1139/6/5
f 1149/6/5 1140/6/5 1148/6/5
f 1152/6/5 1142/6/5 1141/6/5
f 1153/6/5 1142/6/5 1152/6/5
f 1155/6/5 1146/6/5 1145/6/5
f 1155/6/5 1144/6/5 1143/6/5
f 1155/6/5 1145/6/5 1144/6/5
f 1156/6/5 1146/6/5 1155/6/5
f 1157/6/5 1146/6/5 1156/6/5
f 1158/6/5 1146/6/5 1157/6/5
f 1159/6/5 1150/6/5 1149/6/5
f 1159/6/5 1148/6/5 1147/6/5
f 1159/6/5 1149/6/5 1148/6/5
f 1160/6/5 1150/6/5 1159/6/5
f 1161/6/5 1150/6/5 1160/6/5
f 1162/6/5 1150/6/5 1161/6/5
f 1163/6/5 1153/6/5 1152/6/5
f 1163/6/5 1154/6/5 1153/6/5
f 1163/6/5 1152/6/5 1151/6/5
f 1164/6/5 1154/6/5 1163/6/5
f 1165/6/5 1154/6/5 1164/6/5
f 1166/6/5 1154/6/5 1165/6/5
f 1167/6/5 1157/6/5 1156/6/5
f 1168/6/5 1157/6/5 1167/6/5
f 1169/6/5 1161/6/5 1160/6/5
f 1170/6/5 1161/6/5 1169/6/5
f 1171/6/5 1165/6/5 1164/6/5
f 1172/6/5 1165/6/5 1171/6/5
f 1180/6/5 1174/6/5 1173/6/5
f 1181/6/5 1174/6/5 1180/6/5
f 1184/6/5 1176/6/5 1175/6/5
f 1185/6/5 1176/6/5 1184/6/5
f 1188/6/5 1178/6/5 1177/6/5
f 1189/6/5 1178/6/5 1188/6/5
f 1191/6/5 1182/6/5 1181/6/5
f 1191/6/5 1180/6/5 1179/6/5
f 1191/6/5 1181/6/5 1180/6/5
f 1192/6/5 1182/6/5 1191/6/5
f 1193/6/5 1186/6/5 1185/6/5
f 1193/6/5 1184/6/5 1183/6/5
f 1193/6/5 1185/6/5 1184/6/5
f 1194/6/5 1186/6/5 1193/6/5
f 1195/6/5 1186/6/5 1194/6/5
f 1196/6/5 1186/6/5 1195/6/5
f 1197/6/5 1189/6/5 1188/6/5
f 1197/6/5 1190/6/5 1189/6/5
f 1197/6/5 1188/6/5 1187/6/5
f 1198/6/5 1190/6/5 1197/6/5
f 1199/6/5 1190/6/5 1198/6/5
f 1200/6/5 1190/6/5 1199/6/5
f 1201/6/5 1191/6/5 1179/6/5
f 1202/6/5 1191/6/5 1201/6/5
f 1203/6/5 1195/6/5 1194/6/5
f 1204/6/5 1195/6/5 1203/6/5
f 1205/6/5 1199/6/5 1198/6/5
f 1206/6/5 1199/6/5 1205/6/5
f 1209/7/5 1208/7/5 1207/7/5
f 1210/7/5 1208/7/5 1209/7/5
f 1211/7/5 1208/7/5 1210/7/5
f 1212/7/5 1208/7/5 1211/7/5
f 1213/7/5 1209/7/5 1207/7/5
f 1214/7/5 1211/7/5 1210/7/5
f 1215/7/5 1211/7/5 1214/7/5
f 1216/7/5 1208/7/5 1212/7/5
f 1217/7/5 1215/7/5 1214/7/5
f 1217/7/5 1216/7/5 1215/7/5
f 1217/7/5 1213/7/5 1207/7/5
f 1217/7/5 1214/7/5 1213/7/5
f 1218/7/5 1208/7/5 1216/7/5
f 1218/7/5 1216/7/5 1217/7/5
f 1222/7/5 1220/7/5 1219/7/5
f 1223/7/5 1220/7/5 1222/7/5
f 1227/7/5 1222/7/5 1221/7/5
f 1228/7/5 1222/7/5 1227/7/5
f 1229/7/5 1224/7/5 1223/7/5
f 1230/7/5 1224/7/5 1229/7/5
f 1232/7/5 1226/7/5 1225/7/5
f 1233/7/5 1226/7/5 1232/7/5
f 1235/7/5 1229/7/5 1228/7/5
f 1236/7/5 1229/7/5 1235/7/5
f 1237/7/5 1232/7/5 1231/7/5
f 1238/7/5 1232/7/5 1237/7/5
f 1239/7/5 1234/7/5 1233/7/5
f 1240/7/5 1234/7/5 1239/7/5
f 1241/7/5 1239/7/5 1238/7/5
f 1242/7/5 1239/7/5 1241/7/5
f 1245/5/5 1244/5/5 1243/5/5
f 1246/5/5 1244/5/5 1245/5/5
f 1249/5/5 1248/5/5 1247/5/5
f 1250/5/5 1248/5/5 1249/5/5
f 1255/7/5 1252/7/5 1251/7/5
f 1256/7/5 1252/7/5 1255/7/5
f 1257/7/5 1254/7/5 1253/7/5
f 1258/7/5 1254/7/5 1257/7/5
f 1262/7/5 1260/7/5 1259/7/5
f 1263/7/5 1260/7/5 1262/7/5
f 1265/7/5 1262/7/5 1261/7/5
f 1266/7/5 1262/7/5 1265/7/5
f 1267/7/5 1264/7/5 1263/7/5
f 1268/7/5 1264/7/5 1267/7/5
f 1271/7/5 1267/7/5 1266/7/5
f 1272/7/5 1267/7/5 1271/7/5
f 1273/5/5 1270/5/5 1269/5/5
f 1274/5/5 1270/5/5 1273/5/5
f 1277/3/5 1276/3/5 1275/3/5
f 1278/3/5 1276/3/5 1277/3/5
f 1281/5/5 1280/5/5 1279/5/5
f 1282/5/5 1280/5/5 1281/5/5
f 1285/3/5 1284/3/5 1283/3/5
f 1286/3/5 1284/3/5 1285/3/5
f 1287/6/6 1288/6/6 1289/6/6
f 1289/6/6 1288/6/6 1290/6/6
f 1291/6/6 1292/6/6 1298/6/6
f 1298/6/6 1292/6/6 1299/6/6
f 1293/6/6 1294/6/6 1302/6/6
f 1302/6/6 1294/6/6 1303/6/6
f 1295/6/6 1296/6/6 1306/6/6
f 1306/6/6 1296/6/6 1307/6/6
f 1307/6/6 1296/6/6 1308/6/6
f 1308/6/6 1296/6/6 1309/6/6
f 1299/6/6 1300/6/6 1311/6/6
f 1297/6/6 1298/6/6 1311/6/6
f 1298/6/6 1299/6/6 1311/6/6
f 1311/6/6 1300/6/6 1312/6/6
f 1312/6/6 1300/6/6 1313/6/6
f 1313/6/6 1300/6/6 1314/6/6
f 1306/6/6 1307/6/6 1315/6/6
f 1305/6/6 1306/6/6 1315/6/6
f 1309/6/6 1310/6/6 1316/6/6
f 1308/6/6 1309/6/6 1316/6/6
f 1316/6/6 1310/6/6 1317/6/6
f 1315/6/6 1316/6/6 1318/6/6
f 1315/6/6 1318/6/6 1319/6/6
f 1297/6/6 1311/6/6 1320/6/6
f 1312/6/6 1313/6/6 1321/6/6
f 1321/6/6 1313/6/6 1322/6/6
f 1314/6/6 1300/6/6 1323/6/6
f 1315/6/6 1319/6/6 1324/6/6
f 1317/6/6 1310/6/6 1325/6/6
f 1321/6/6 1322/6/6 1326/6/6
f 1297/6/6 1320/6/6 1326/6/6
f 1322/6/6 1323/6/6 1326/6/6
f 1320/6/6 1321/6/6 1326/6/6
f 1326/6/6 1323/6/6 1327/6/6
f 1323/6/6 1300/6/6 1328/6/6
f 1327/6/6 1323/6/6 1328/6/6
f 1328/6/6 1300/6/6 1329/6/6
f 1303/6/6 1304/6/6 1330/6/6
f 1301/6/6 1302/6/6 1330/6/6
f 1302/6/6 1303/6/6 1330/6/6
f 1330/6/6 1304/6/6 1331/6/6
f 1331/6/6 1304/6/6 1332/6/6
f 1332/6/6 1304/6/6 1333/6/6
f 1305/6/6 1315/6/6 1334/6/6
f 1315/6/6 1324/6/6 1334/6/6
f 1324/6/6 1325/6/6 1334/6/6
f 1334/6/6 1325/6/6 1335/6/6
f 1325/6/6 1310/6/6 1336/6/6
f 1335/6/6 1325/6/6 1336/6/6
f 1336/6/6 1310/6/6 1337/6/6
f 1327/6/6 1328/6/6 1338/6/6
f 1338/6/6 1328/6/6 1339/6/6
f 1331/6/6 1332/6/6 1340/6/6
f 1340/6/6 1332/6/6 1341/6/6
f 1335/6/6 1336/6/6 1342/6/6
f 1342/6/6 1336/6/6 1343/6/6
f 1344/6/6 1345/6/6 1351/6/6
f 1351/6/6 1345/6/6 1352/6/6
f 1346/6/6 1347/6/6 1355/6/6
f 1355/6/6 1347/6/6 1356/6/6
f 1348/6/6 1349/6/6 1359/6/6
f 1359/6/6 1349/6/6 1360/6/6
f 1352/6/6 1353/6/6 1362/6/6
f 1350/6/6 1351/6/6 1362/6/6
f 1351/6/6 1352/6/6 1362/6/6
f 1362/6/6 1353/6/6 1363/6/6
f 1363/6/6 1353/6/6 1364/6/6
f 1364/6/6 1353/6/6 1365/6/6
f 1356/6/6 1357/6/6 1366/6/6
f 1354/6/6 1355/6/6 1366/6/6
f 1355/6/6 1356/6/6 1366/6/6
f 1366/6/6 1357/6/6 1367/6/6
f 1367/6/6 1357/6/6 1368/6/6
f 1368/6/6 1357/6/6 1369/6/6
f 1359/6/6 1360/6/6 1370/6/6
f 1360/6/6 1361/6/6 1370/6/6
f 1358/6/6 1359/6/6 1370/6/6
f 1370/6/6 1361/6/6 1371/6/6
f 1371/6/6 1361/6/6 1372/6/6
f 1372/6/6 1361/6/6 1373/6/6
f 1363/6/6 1364/6/6 1374/6/6
f 1374/6/6 1364/6/6 1375/6/6
f 1367/6/6 1368/6/6 1376/6/6
f 1376/6/6 1368/6/6 1377/6/6
f 1371/6/6 1372/6/6 1378/6/6
f 1378/6/6 1372/6/6 1379/6/6
f 1380/6/6 1381/6/6 1387/6/6
f 1387/6/6 1381/6/6 1388/6/6
f 1382/6/6 1383/6/6 1391/6/6
f 1391/6/6 1383/6/6 1392/6/6
f 1384/6/6 1385/6/6 1395/6/6
f 1395/6/6 1385/6/6 1396/6/6
f 1396/6/6 1385/6/6 1397/6/6
f 1397/6/6 1385/6/6 1398/6/6
f 1388/6/6 1389/6/6 1400/6/6
f 1386/6/6 1387/6/6 1400/6/6
f 1387/6/6 1388/6/6 1400/6/6
f 1400/6/6 1389/6/6 1401/6/6
f 1395/6/6 1396/6/6 1402/6/6
f 1394/6/6 1395/6/6 1402/6/6
f 1397/6/6 1398/6/6 1403/6/6
f 1398/6/6 1399/6/6 1403/6/6
f 1394/6/6 1402/6/6 1404/6/6
f 1402/6/6 1403/6/6 1404/6/6
f 1404/6/6 1403/6/6 1405/6/6
f 1386/6/6 1400/6/6 1406/6/6
f 1401/6/6 1389/6/6 1407/6/6
f 1407/6/6 1389/6/6 1408/6/6
f 1408/6/6 1389/6/6 1409/6/6
f 1394/6/6 1404/6/6 1410/6/6
f 1405/6/6 1403/6/6 1411/6/6
f 1406/6/6 1407/6/6 1412/6/6
f 1407/6/6 1408/6/6 1412/6/6
f 1409/6/6 1389/6/6 1413/6/6
f 1413/6/6 1389/6/6 1414/6/6
f 1414/6/6 1389/6/6 1415/6/6
f 1410/6/6 1411/6/6 1416/6/6
f 1411/6/6 1403/6/6 1416/6/6
f 1403/6/6 1399/6/6 1417/6/6
f 1416/6/6 1403/6/6 1417/6/6
f 1406/6/6 1412/6/6 1418/6/6
f 1413/6/6 1414/6/6 1418/6/6
f 1412/6/6 1413/6/6 1418/6/6
f 1418/6/6 1414/6/6 1419/6/6
f 1410/6/6 1416/6/6 1420/6/6
f 1417/6/6 1399/6/6 1421/6/6
f 1419/6/6 1414/6/6 1422/6/6
f 1415/6/6 1389/6/6 1423/6/6
f 1420/6/6 1421/6/6 1424/6/6
f 1394/6/6 1410/6/6 1424/6/6
f 1410/6/6 1420/6/6 1424/6/6
f 1424/6/6 1421/6/6 1425/6/6
f 1425/6/6 1421/6/6 1426/6/6
f 1426/6/6 1421/6/6 1427/6/6
f 1427/6/6 1421/6/6 1428/6/6
f 1421/6/6 1399/6/6 1429/6/6
f 1428/6/6 1421/6/6 1429/6/6
f 1394/6/6 1424/6/6 1430/6/6
f 1430/6/6 1424/6/6 1431/6/6
f 1429/6/6 1399/6/6 1433/6/6
f 1386/6/6 1406/6/6 1434/6/6
f 1406/6/6 1418/6/6 1434/6/6
f 1434/6/6 1418/6/6 1435/6/6
f 1422/6/6 1423/6/6 1436/6/6
f 1419/6/6 1422/6/6 1436/6/6
f 1436/6/6 1423/6/6 1437/6/6
f 1437/6/6 1423/6/6 1438/6/6
f 1394/6/6 1430/6/6 1439/6/6
f 1432/6/6 1433/6/6 1441/6/6
f 1433/6/6 1399/6/6 1442/6/6
f 1441/6/6 1433/6/6 1442/6/6
f 1386/6/6 1434/6/6 1443/6/6
f 1435/6/6 1436/6/6 1444/6/6
f 1436/6/6 1437/6/6 1444/6/6
f 1444/6/6 1437/6/6 1445/6/6
f 1445/6/6 1437/6/6 1446/6/6
f 1446/6/6 1437/6/6 1447/6/6
f 1438/6/6 1423/6/6 1448/6/6
f 1439/6/6 1440/6/6 1449/6/6
f 1394/6/6 1439/6/6 1449/6/6
f 1449/6/6 1440/6/6 1450/6/6
f 1442/6/6 1399/6/6 1452/6/6
f 1386/6/6 1443/6/6 1453/6/6
f 1443/6/6 1444/6/6 1453/6/6
f 1444/6/6 1445/6/6 1453/6/6
f 1453/6/6 1445/6/6 1454/6/6
f 1454/6/6 1445/6/6 1455/6/6
f 1447/6/6 1448/6/6 1456/6/6
f 1446/6/6 1447/6/6 1456/6/6
f 1423/6/6 1389/6/6 1457/6/6
f 1448/6/6 1423/6/6 1457/6/6
f 1456/6/6 1448/6/6 1457/6/6
f 1457/6/6 1389/6/6 1458/6/6
f 1392/6/6 1393/6/6 1459/6/6
f 1390/6/6 1391/6/6 1459/6/6
f 1391/6/6 1392/6/6 1459/6/6
f 1459/6/6 1393/6/6 1460/6/6
f 1460/6/6 1393/6/6 1461/6/6
f 1461/6/6 1393/6/6 1462/6/6
f 1394/6/6 1449/6/6 1463/6/6
f 1463/6/6 1449/6/6 1464/6/6
f 1451/6/6 1452/6/6 1470/6/6
f 1452/6/6 1399/6/6 1471/6/6
f 1470/6/6 1452/6/6 1471/6/6
f 1471/6/6 1399/6/6 1472/6/6
f 1455/6/6 1456/6/6 1473/6/6
f 1454/6/6 1455/6/6 1473/6/6
f 1456/6/6 1457/6/6 1473/6/6
f 1473/6/6 1457/6/6 1474/6/6
f 1460/6/6 1461/6/6 1475/6/6
f 1475/6/6 1461/6/6 1476/6/6
f 1468/6/6 1469/6/6 1477/6/6
f 1470/6/6 1471/6/6 1477/6/6
f 1467/6/6 1468/6/6 1477/6/6
f 1466/6/6 1467/6/6 1477/6/6
f 1469/6/6 1470/6/6 1477/6/6
f 1465/6/6 1466/6/6 1477/6/6
f 1464/6/6 1465/6/6 1477/6/6
f 1477/6/6 1471/6/6 1478/6/6
f 1479/3/6 1480/3/6 1481/3/6
f 1481/3/6 1480/3/6 1482/3/6
f 1483/7/6 1484/7/6 1485/7/6
f 1485/7/6 1484/7/6 1486/7/6
f 1489/3/6 1490/3/6 1491/3/6
f 1491/3/6 1490/3/6 1492/3/6
f 1487/3/6 1488/3/6 1493/3/6
f 1493/3/6 1488/3/6 1494/3/6
f 1489/3/6 1491/3/6 1497/3/6
f 1491/7/6 1492/7/6 1497/7/6
f 1492/3/6 1490/3/6 1498/3/6
f 1497/7/6 1492/7/6 1498/7/6
f 1495/3/6 1496/3/6 1501/3/6
f 1501/3/6 1496/3/6 1502/3/6
f 1489/3/6 1497/3/6 1504/3/6
f 1497/3/6 1498/3/6 1504/3/6
f 1498/3/6 1490/3/6 1505/3/6
f 1504/3/6 1498/3/6 1505/3/6
f 1499/5/6 1500/5/6 1508/5/6
f 1508/5/6 1500/5/6 1509/5/6
f 1503/7/6 1504/7/6 1512/7/6
f 1512/7/6 1504/7/6 1513/7/6
f 1506/3/6 1507/3/6 1516/3/6
f 1516/3/6 1507/3/6 1517/3/6
f 1510/3/6 1511/3/6 1520/3/6
f 1520/3/6 1511/3/6 1521/3/6
f 1514/3/6 1515/3/6 1522/3/6
f 1522/3/6 1515/3/6 1523/3/6
f 1518/5/6 1519/5/6 1524/5/6
f 1524/5/6 1519/5/6 1525/5/6
f 1526/7/6 1527/7/6 1529/7/6
f 1529/7/6 1527/7/6 1530/7/6
f 1528/7/6 1529/7/6 1534/7/6
f 1529/3/6 1530/3/6 1535/3/6
f 1534/7/6 1529/7/6 1535/7/6
f 1530/7/6 1531/7/6 1536/7/6
f 1535/3/6 1530/3/6 1536/3/6
f 1536/7/6 1531/7/6 1537/7/6
f 1532/7/6 1533/7/6 1539/7/6
f 1539/7/6 1533/7/6 1540/7/6
f 1535/7/6 1536/7/6 1542/7/6
f 1542/7/6 1536/7/6 1543/7/6
f 1538/7/6 1539/7/6 1544/7/6
f 1539/3/6 1540/3/6 1545/3/6
f 1544/7/6 1539/7/6 1545/7/6
f 1540/7/6 1541/7/6 1546/7/6
f 1545/3/6 1540/3/6 1546/3/6
f 1546/7/6 1541/7/6 1547/7/6
f 1545/7/6 1546/7/6 1548/7/6
f 1548/7/6 1546/7/6 1549/7/6
f 1550/5/6 1551/5/6 1552/5/6
f 1552/5/6 1551/5/6 1553/5/6
f 1554/5/6 1555/5/6 1556/5/6
f 1556/5/6 1555/5/6 1557/5/6
f 1558/6/6 1559/6/6 1560/6/6
f 1560/6/6 1559/6/6 1561/6/6
f 1558/6/6 1560/6/6 1562/6/6
f 1560/3/6 1561/3/6 1563/3/6
f 1562/6/6 1560/6/6 1563/6/6
f 1561/6/6 1559/6/6 1564/6/6
f 1563/3/6 1561/3/6 1564/3/6
f 1564/6/6 1559/6/6 1565/6/6
f 1565/6/6 1566/6/6 1567/6/6
f 1567/6/6 1566/6/6 1568/6/6
f 1565/6/6 1567/6/6 1569/6/6
f 1567/3/6 1568/3/6 1569/3/6
f 1568/6/6 1566/6/6 1570/6/6
f 1569/3/6 1568/3/6 1570/3/6
f 1569/6/6 1570/6/6 1571/6/6
f 1570/6/6 1566/6/6 1571/6/6
f 1571/6/6 1566/6/6 1572/6/6
f 1565/6/6 1569/6/6 1573/6/6
f 1569/6/6 1571/6/6 1573/6/6
f 1571/3/6 1572/3/6 1574/3/6
f 1573/6/6 1571/6/6 1574/6/6
f 1574/3/6 1572/3/6 1575/3/6
f 1576/7/6 1577/7/6 1579/7/6
f 1579/7/6 1577/7/6 1580/7/6
f 1578/7/6 1579/7/6 1582/7/6
f 1579/3/6 1580/3/6 1583/3/6
f 1582/7/6 1579/7/6 1583/7/6
f 1580/7/6 1581/7/6 1584/7/6
f 1583/3/6 1580/3/6 1584/3/6
f 1584/7/6 1581/7/6 1585/7/6
f 1583/7/6 1584/7/6 1588/7/6
f 1588/7/6 1584/7/6 1589/7/6
f 1586/5/6 1587/5/6 1590/5/6
f 1590/5/6 1587/5/6 1591/5/6
f 1592/3/6 1593/3/6 1594/3/6
f 1594/3/6 1593/3/6 1595/3/6
f 1596/3/6 1597/3/6 1603/3/6
f 1597/4/6 1598/4/6 1604/4/6
f 1603/3/6 1597/3/6 1604/3/6
f 1598/3/6 1599/3/6 1605/3/6
f 1604/4/6 1598/4/6 1605/4/6
f 1599/4/6 1600/4/6 1606/4/6
f 1605/3/6 1599/3/6 1606/3/6
f 1600/3/6 1601/3/6 1607/3/6
f 1606/4/6 1600/4/6 1607/4/6
f 1607/3/6 1601/3/6 1608/3/6
f 1602/5/6 1603/5/6 1609/5/6
f 1603/5/6 1604/5/6 1609/5/6
f 1604/4/6 1605/4/6 1610/4/6
f 1609/5/6 1604/5/6 1610/5/6
f 1605/5/6 1606/5/6 1611/5/6
f 1610/4/6 1605/4/6 1611/4/6
f 1606/4/6 1607/4/6 1612/4/6
f 1611/5/6 1606/5/6 1612/5/6
f 1607/5/6 1608/5/6 1613/5/6
f 1612/4/6 1607/4/6 1613/4/6
f 1613/5/6 1608/5/6 1614/5/6
f 1615/3/6 1616/3/6 1617/3/6
f 1617/3/6 1616/3/6 1618/3/6
f 1619/7/6 1620/7/6 1623/7/6
f 1623/7/6 1620/7/6 1624/7/6
f 1621/7/6 1622/7/6 1625/7/6
f 1625/7/6 1622/7/6 1626/7/6
f 1627/7/6 1628/7/6 1629/7/6
f 1629/7/6 1628/7/6 1630/7/6
f 1631/7/6 1632/7/6 1633/7/6
f 1633/7/6 1632/7/6 1634/7/6
f 1631/7/6 1633/7/6 1635/7/6
f 1634/7/6 1632/7/6 1636/7/6
f 1631/7/6 1635/7/6 1637/7/6
f 1635/7/6 1636/7/6 1637/7/6
f 1636/7/6 1632/7/6 1638/7/6
f 1637/7/6 1636/7/6 1638/7/6
f 1639/3/6 1640/3/6 1641/3/6
f 1641/3/6 1640/3/6 1642/3/6
