# MagicaVoxel @ Ephtracy

# group
o 

# material
mtllib hard_two_tile.mtl
usemtl palette

# normals
vn -1 0 0
vn 1 0 0
vn 0 0 1
vn 0 0 -1
vn 0 -1 0
vn 0 1 0

# texcoords
vt 0.451172 0.5
vt 0.455078 0.5
vt 0.517578 0.5
vt 0.552734 0.5
vt 0.556641 0.5
vt 0.681641 0.5
vt 0.837891 0.5
vt 0.958984 0.5
vt 0.962891 0.5
vt 0.966797 0.5
vt 0.982422 0.5
vt 0.990234 0.5

# verts
v -1.9 0.3 1.8
v -1.9 0.3 0.8
v -1.9 0.3 0.5
v -1.9 0.3 -0.5
v -1.9 0.3 -0.8
v -1.9 0.3 -1.8
v -1.9 0.5 1.8
v -1.9 0.5 0.8
v -1.9 0.5 0.5
v -1.9 0.5 -0.5
v -1.9 0.5 -0.8
v -1.9 0.5 -1.8
v -1.9 1.3 1.8
v -1.9 1.3 0.8
v -1.9 1.4 1.8
v -1.9 1.4 0.8
v -1.8 0.3 1.9
v -1.8 0.3 1.8
v -1.8 0.3 0.8
v -1.8 0.3 0.7
v -1.8 0.3 0.6
v -1.8 0.3 0.5
v -1.8 0.3 -0.5
v -1.8 0.3 -0.6
v -1.8 0.3 -0.7
v -1.8 0.3 -0.8
v -1.8 0.3 -1.8
v -1.8 0.3 -1.9
v -1.8 0.5 1.9
v -1.8 0.5 1.8
v -1.8 0.5 0.8
v -1.8 0.5 0.7
v -1.8 0.5 0.6
v -1.8 0.5 0.5
v -1.8 0.5 -0.5
v -1.8 0.5 -0.6
v -1.8 0.5 -0.7
v -1.8 0.5 -0.8
v -1.8 0.5 -1.2
v -1.8 0.5 -1.4
v -1.8 0.5 -1.5
v -1.8 0.5 -1.8
v -1.8 0.5 -1.9
v -1.8 0.6 1.8
v -1.8 0.6 0.8
v -1.8 0.6 -1.2
v -1.8 0.6 -1.3
v -1.8 0.7 -1.5
v -1.8 0.7 -1.6
v -1.8 0.8 1.8
v -1.8 0.8 1.7
v -1.8 0.8 -1.3
v -1.8 0.8 -1.4
v -1.8 0.8 -1.7
v -1.8 0.8 -1.8
v -1.8 0.9 1.8
v -1.8 0.9 1.7
v -1.8 0.9 -1.6
v -1.8 0.9 -1.7
v -1.8 1.3 1.9
v -1.8 1.3 1.8
v -1.8 1.3 0.8
v -1.8 1.3 0.7
v -1.8 1.4 1.9
v -1.8 1.4 1.8
v -1.8 1.4 1.7
v -1.8 1.4 0.9
v -1.8 1.4 0.8
v -1.8 1.4 0.7
v -1.8 1.5 1.7
v -1.8 1.5 0.9
v -1.8 1.6 1.7
v -1.8 1.6 0.9
v -1.8 1.7 1.7
v -1.8 1.7 0.9
v -1.7 0.5 1.7
v -1.7 0.5 1.4
v -1.7 0.5 1.1
v -1.7 0.5 0.8
v -1.7 0.5 -1
v -1.7 0.5 -1.1
v -1.7 0.6 1.7
v -1.7 0.6 1.4
v -1.7 0.6 1.1
v -1.7 0.6 0.8
v -1.7 0.6 -1
v -1.7 0.6 -1.1
v -1.7 0.9 -1.6
v -1.7 0.9 -1.7
v -1.7 1.2 -1.6
v -1.7 1.2 -1.7
v -1.7 1.4 1.8
v -1.7 1.4 1.7
v -1.7 1.4 0.9
v -1.7 1.4 0.8
v -1.7 1.5 1.8
v -1.7 1.5 1.7
v -1.7 1.5 0.9
v -1.7 1.5 0.8
v -1.7 1.6 1.8
v -1.7 1.6 1.7
v -1.7 1.6 0.9
v -1.7 1.6 0.8
v -1.7 1.7 1.8
v -1.7 1.7 1.7
v -1.7 1.7 0.9
v -1.7 1.7 0.8
v -1.5 1.4 1.9
v -1.5 1.4 1.8
v -1.5 1.5 1.8
v -1.5 1.6 1.9
v -1.5 1.6 1.8
v -1.4 0.5 -1.4
v -1.4 0.5 -1.5
v -1.4 0.5 -1.6
v -1.4 0.5 -1.7
v -1.4 0.6 -1.4
v -1.4 0.6 -1.5
v -1.4 0.7 0.8
v -1.4 0.7 0.7
v -1.4 0.7 -1.6
v -1.4 0.7 -1.7
v -1.4 0.9 1.9
v -1.4 0.9 1.8
v -1.4 0.9 0.8
v -1.4 0.9 0.7
v -1.4 1.1 1.9
v -1.4 1.1 1.8
v -1.4 1.6 1.9
v -1.4 1.6 1.8
v -1.4 1.7 1.9
v -1.4 1.7 1.8
v -1.1 0.5 1.7
v -1.1 0.5 1.4
v -1.1 0.5 1.1
v -1.1 0.5 0.8
v -1.1 0.6 1.7
v -1.1 0.6 1.4
v -1.1 0.6 1.1
v -1.1 0.6 0.8
v -0.6 0.3 1.8
v -0.6 0.3 0.8
v -0.6 0.3 0.5
v -0.6 0.3 -0.5
v -0.6 0.3 -0.8
v -0.6 0.3 -1.8
v -0.6 0.5 1.8
v -0.6 0.5 0.8
v -0.6 0.5 0.5
v -0.6 0.5 -0.5
v -0.6 0.5 -0.8
v -0.6 0.5 -1.8
v -0.5 0.3 1.9
v -0.5 0.3 1.8
v -0.5 0.3 0.8
v -0.5 0.3 0.7
v -0.5 0.3 0.6
v -0.5 0.3 0.5
v -0.5 0.3 -0.5
v -0.5 0.3 -0.6
v -0.5 0.3 -0.7
v -0.5 0.3 -0.8
v -0.5 0.3 -1.8
v -0.5 0.3 -1.9
v -0.5 0.5 1.9
v -0.5 0.5 1.8
v -0.5 0.5 0.8
v -0.5 0.5 0.7
v -0.5 0.5 0.6
v -0.5 0.5 0.5
v -0.5 0.5 -0.5
v -0.5 0.5 -0.6
v -0.5 0.5 -0.7
v -0.5 0.5 -0.8
v -0.5 0.5 -1.8
v -0.5 0.5 -1.9
v 0.7 0.3 1.8
v 0.7 0.3 0.8
v 0.7 0.3 0.5
v 0.7 0.3 -0.5
v 0.7 0.3 -0.8
v 0.7 0.3 -1.8
v 0.7 0.5 1.8
v 0.7 0.5 1.6
v 0.7 0.5 1.5
v 0.7 0.5 1.1
v 0.7 0.5 1
v 0.7 0.5 0.8
v 0.7 0.5 0.5
v 0.7 0.5 -0.5
v 0.7 0.5 -0.8
v 0.7 0.5 -1.8
v 0.7 0.6 1.6
v 0.7 0.6 1.5
v 0.7 0.6 1.1
v 0.7 0.6 1
v 0.8 0.3 1.9
v 0.8 0.3 1.8
v 0.8 0.3 0.8
v 0.8 0.3 0.7
v 0.8 0.3 0.6
v 0.8 0.3 0.5
v 0.8 0.3 -0.5
v 0.8 0.3 -0.6
v 0.8 0.3 -0.7
v 0.8 0.3 -0.8
v 0.8 0.3 -1.8
v 0.8 0.3 -1.9
v 0.8 0.5 1.9
v 0.8 0.5 1.8
v 0.8 0.5 1.5
v 0.8 0.5 1.1
v 0.8 0.5 0.8
v 0.8 0.5 0.7
v 0.8 0.5 0.6
v 0.8 0.5 0.5
v 0.8 0.5 -0.5
v 0.8 0.5 -0.6
v 0.8 0.5 -0.7
v 0.8 0.5 -0.8
v 0.8 0.5 -1.8
v 0.8 0.5 -1.9
v 0.8 0.6 1.5
v 0.8 0.6 1.1
v 0.9 0.5 -1.1
v 0.9 0.5 -1.9
v 0.9 0.6 -1.5
v 0.9 0.6 -1.6
v 0.9 0.7 -1.5
v 0.9 0.7 -1.6
v 0.9 0.9 -1.6
v 0.9 0.9 -1.8
v 0.9 1 -1.1
v 0.9 1 -1.2
v 0.9 1.1 -1.6
v 0.9 1.1 -1.8
v 0.9 1.2 -1.1
v 0.9 1.2 -1.2
v 0.9 1.2 -1.3
v 0.9 1.2 -1.8
v 0.9 1.2 -1.9
v 0.9 1.3 -1.2
v 0.9 1.3 -1.3
v 0.9 1.3 -1.8
v 1 1.2 -1.1
v 1 1.2 -1.2
v 1 1.3 -1.1
v 1 1.3 -1.2
v 1.1 0.5 1.5
v 1.1 0.5 1.1
v 1.1 0.6 1.5
v 1.1 0.6 1.1
v 1.1 1.3 -1.2
v 1.1 1.3 -1.3
v 1.1 1.3 -1.8
v 1.1 1.4 -1.2
v 1.1 1.4 -1.8
v 1.2 1.2 -1.8
v 1.2 1.2 -1.9
v 1.2 1.3 -1.1
v 1.2 1.3 -1.2
v 1.2 1.4 -1.1
v 1.2 1.4 -1.2
v 1.2 1.4 -1.3
v 1.2 1.4 -1.4
v 1.2 1.4 -1.7
v 1.2 1.4 -1.8
v 1.2 1.4 -1.9
v 1.2 1.5 -1.3
v 1.2 1.5 -1.4
v 1.2 1.5 -1.7
v 1.2 1.5 -1.8
v 1.3 1.4 -1.4
v 1.3 1.4 -1.5
v 1.3 1.5 -1.4
v 1.3 1.5 -1.5
v 1.4 0.5 1.5
v 1.4 0.5 1.1
v 1.4 0.6 1.5
v 1.4 0.6 1.1
v 1.4 1.4 -1.5
v 1.4 1.4 -1.6
v 1.4 1.4 -1.7
v 1.4 1.5 -1.5
v 1.4 1.5 -1.6
v 1.4 1.5 -1.7
v 1.6 1.4 -1.3
v 1.6 1.4 -1.5
v 1.6 1.5 -1.3
v 1.6 1.5 -1.5
v 1.7 0.5 1.5
v 1.7 0.5 1.1
v 1.7 0.6 1.5
v 1.7 0.6 1.1
v -1.7 0.5 -1.2
v -1.7 0.5 -1.4
v -1.7 0.6 -1.2
v -1.7 0.6 -1.3
v -1.7 0.8 -1.3
v -1.7 0.8 -1.4
v -1.6 0.5 -1
v -1.6 0.5 -1.1
v -1.6 0.6 -1
v -1.6 0.6 -1.1
v -1.6 0.6 -1.5
v -1.6 0.6 -1.6
v -1.6 0.6 -1.7
v -1.6 0.6 -1.8
v -1.6 0.7 -1.5
v -1.6 0.7 -1.6
v -1.6 0.7 -1.7
v -1.6 0.8 -1.7
v -1.6 0.8 -1.8
v -1.6 1.2 -1.6
v -1.6 1.2 -1.7
v -1.5 0.5 1.7
v -1.5 0.5 1.4
v -1.5 0.5 1.1
v -1.5 0.5 0.8
v -1.5 0.5 -1.5
v -1.5 0.5 -1.8
v -1.5 0.6 1.7
v -1.5 0.6 1.4
v -1.5 0.6 1.1
v -1.5 0.6 0.8
v -1.5 0.6 -1.5
v -1.5 0.6 -1.6
v -1.5 0.6 -1.7
v -1.5 0.6 -1.8
v -1.5 0.7 -1.6
v -1.5 0.7 -1.7
v -1.3 0.5 -1.4
v -1.3 0.5 -1.5
v -1.3 0.6 -1.4
v -1.3 0.6 -1.5
v -1.3 0.6 -1.6
v -1.3 0.6 -1.7
v -1.3 0.7 -1.6
v -1.3 0.7 -1.7
v -1.2 0.5 -1.6
v -1.2 0.5 -1.7
v -1.2 0.6 -1.6
v -1.2 0.6 -1.7
v -1.2 0.7 0.8
v -1.2 0.7 0.7
v -1.2 0.9 1.9
v -1.2 0.9 1.8
v -1.2 0.9 0.8
v -1.2 0.9 0.7
v -1.2 1.1 1.9
v -1.2 1.1 1.8
v -1.2 1.6 1.9
v -1.2 1.6 1.8
v -1.2 1.7 1.9
v -1.2 1.7 1.8
v -1.1 1.4 1.9
v -1.1 1.4 1.8
v -1.1 1.5 1.8
v -1.1 1.6 1.9
v -1.1 1.6 1.8
v -0.9 0.5 1.7
v -0.9 0.5 1.4
v -0.9 0.5 1.1
v -0.9 0.5 0.8
v -0.9 0.6 1.7
v -0.9 0.6 1.4
v -0.9 0.6 1.1
v -0.9 0.6 0.8
v -0.9 1.4 1.8
v -0.9 1.4 1.7
v -0.9 1.4 0.9
v -0.9 1.4 0.8
v -0.9 1.5 1.8
v -0.9 1.5 1.7
v -0.9 1.5 0.9
v -0.9 1.5 0.8
v -0.9 1.6 1.8
v -0.9 1.6 1.7
v -0.9 1.6 0.9
v -0.9 1.6 0.8
v -0.9 1.7 1.8
v -0.9 1.7 1.7
v -0.9 1.7 0.9
v -0.9 1.7 0.8
v -0.8 0.3 1.9
v -0.8 0.3 1.8
v -0.8 0.3 0.8
v -0.8 0.3 0.7
v -0.8 0.3 0.6
v -0.8 0.3 0.5
v -0.8 0.3 -0.5
v -0.8 0.3 -0.6
v -0.8 0.3 -0.7
v -0.8 0.3 -0.8
v -0.8 0.3 -1.8
v -0.8 0.3 -1.9
v -0.8 0.5 1.9
v -0.8 0.5 1.8
v -0.8 0.5 0.8
v -0.8 0.5 0.7
v -0.8 0.5 0.6
v -0.8 0.5 0.5
v -0.8 0.5 -0.5
v -0.8 0.5 -0.6
v -0.8 0.5 -0.7
v -0.8 0.5 -0.8
v -0.8 0.5 -1.8
v -0.8 0.5 -1.9
v -0.8 0.6 1.8
v -0.8 0.6 0.8
v -0.8 0.8 1.8
v -0.8 0.8 1.7
v -0.8 0.9 1.8
v -0.8 0.9 1.7
v -0.8 1.3 1.9
v -0.8 1.3 1.8
v -0.8 1.3 0.8
v -0.8 1.3 0.7
v -0.8 1.4 1.9
v -0.8 1.4 1.8
v -0.8 1.4 1.7
v -0.8 1.4 0.9
v -0.8 1.4 0.8
v -0.8 1.4 0.7
v -0.8 1.5 1.7
v -0.8 1.5 0.9
v -0.8 1.6 1.7
v -0.8 1.6 0.9
v -0.8 1.7 1.7
v -0.8 1.7 0.9
v -0.7 0.3 1.8
v -0.7 0.3 0.8
v -0.7 0.3 0.5
v -0.7 0.3 -0.5
v -0.7 0.3 -0.8
v -0.7 0.3 -1.8
v -0.7 0.5 1.8
v -0.7 0.5 0.8
v -0.7 0.5 0.5
v -0.7 0.5 -0.5
v -0.7 0.5 -0.8
v -0.7 0.5 -1.8
v -0.7 1.3 1.8
v -0.7 1.3 0.8
v -0.7 1.4 1.8
v -0.7 1.4 0.8
v 0.5 0.3 1.9
v 0.5 0.3 1.8
v 0.5 0.3 0.8
v 0.5 0.3 0.7
v 0.5 0.3 0.6
v 0.5 0.3 0.5
v 0.5 0.3 -0.5
v 0.5 0.3 -0.6
v 0.5 0.3 -0.7
v 0.5 0.3 -0.8
v 0.5 0.3 -1.8
v 0.5 0.3 -1.9
v 0.5 0.5 1.9
v 0.5 0.5 1.8
v 0.5 0.5 0.8
v 0.5 0.5 0.7
v 0.5 0.5 0.6
v 0.5 0.5 0.5
v 0.5 0.5 -0.5
v 0.5 0.5 -0.6
v 0.5 0.5 -0.7
v 0.5 0.5 -0.8
v 0.5 0.5 -1.8
v 0.5 0.5 -1.9
v 0.6 0.3 1.8
v 0.6 0.3 0.8
v 0.6 0.3 0.5
v 0.6 0.3 -0.5
v 0.6 0.3 -0.8
v 0.6 0.3 -1.8
v 0.6 0.5 1.8
v 0.6 0.5 0.8
v 0.6 0.5 0.5
v 0.6 0.5 -0.5
v 0.6 0.5 -0.8
v 0.6 0.5 -1.8
v 0.9 0.5 1.5
v 0.9 0.5 1.1
v 0.9 0.6 1.5
v 0.9 0.6 1.1
v 1.2 0.5 1.5
v 1.2 0.5 1.1
v 1.2 0.6 1.5
v 1.2 0.6 1.1
v 1.3 1.4 -1.3
v 1.3 1.4 -1.4
v 1.3 1.5 -1.3
v 1.3 1.5 -1.4
v 1.4 1.4 -1.4
v 1.4 1.4 -1.5
v 1.4 1.4 -1.7
v 1.4 1.4 -1.8
v 1.4 1.5 -1.4
v 1.4 1.5 -1.5
v 1.4 1.5 -1.7
v 1.4 1.5 -1.8
v 1.5 0.5 1.5
v 1.5 0.5 1.1
v 1.5 0.6 1.5
v 1.5 0.6 1.1
v 1.5 1.4 -1.6
v 1.5 1.4 -1.7
v 1.5 1.5 -1.6
v 1.5 1.5 -1.7
v 1.6 1.4 -1.5
v 1.6 1.4 -1.6
v 1.6 1.5 -1.5
v 1.6 1.5 -1.6
v 1.7 1.4 -1.3
v 1.7 1.4 -1.5
v 1.7 1.5 -1.3
v 1.7 1.5 -1.5
v 1.8 0.3 1.9
v 1.8 0.3 1.8
v 1.8 0.3 0.8
v 1.8 0.3 0.7
v 1.8 0.3 0.6
v 1.8 0.3 0.5
v 1.8 0.3 -0.5
v 1.8 0.3 -0.6
v 1.8 0.3 -0.7
v 1.8 0.3 -0.8
v 1.8 0.3 -1.8
v 1.8 0.3 -1.9
v 1.8 0.5 1.9
v 1.8 0.5 1.8
v 1.8 0.5 1.5
v 1.8 0.5 1.1
v 1.8 0.5 0.8
v 1.8 0.5 0.7
v 1.8 0.5 0.6
v 1.8 0.5 0.5
v 1.8 0.5 -0.5
v 1.8 0.5 -0.6
v 1.8 0.5 -0.7
v 1.8 0.5 -0.8
v 1.8 0.6 1.5
v 1.8 0.6 1.1
v 1.8 0.7 -1.8
v 1.8 0.7 -1.9
v 1.8 0.8 -1.8
v 1.8 0.8 -1.9
v 1.8 1.3 -1.1
v 1.8 1.3 -1.5
v 1.8 1.4 -1.1
v 1.8 1.4 -1.5
v 1.8 1.4 -1.8
v 1.8 1.4 -1.9
v 1.9 0.3 1.8
v 1.9 0.3 0.8
v 1.9 0.3 0.5
v 1.9 0.3 -0.5
v 1.9 0.3 -0.8
v 1.9 0.3 -1.8
v 1.9 0.5 1.8
v 1.9 0.5 1.6
v 1.9 0.5 1.5
v 1.9 0.5 1.1
v 1.9 0.5 1
v 1.9 0.5 0.8
v 1.9 0.5 0.5
v 1.9 0.5 -0.5
v 1.9 0.5 -0.8
v 1.9 0.5 -1.1
v 1.9 0.6 1.6
v 1.9 0.6 1.5
v 1.9 0.6 1.1
v 1.9 0.6 1
v 1.9 0.8 -1.3
v 1.9 0.8 -1.5
v 1.9 0.9 -1.3
v 1.9 0.9 -1.5
v 1.9 1.3 -1.1
v 1.9 1.3 -1.5
v 1.9 1.4 -1.5
v 1.9 1.4 -1.8
v -1.8 0.3 1.9
v -1.8 0.5 1.9
v -1.8 1.3 1.9
v -1.8 1.4 1.9
v -1.5 1.4 1.9
v -1.5 1.6 1.9
v -1.4 0.9 1.9
v -1.4 1.1 1.9
v -1.4 1.3 1.9
v -1.4 1.4 1.9
v -1.4 1.6 1.9
v -1.4 1.7 1.9
v -1.2 0.9 1.9
v -1.2 1.1 1.9
v -1.2 1.3 1.9
v -1.2 1.4 1.9
v -1.2 1.6 1.9
v -1.2 1.7 1.9
v -1.1 1.4 1.9
v -1.1 1.6 1.9
v -0.8 0.3 1.9
v -0.8 0.5 1.9
v -0.8 1.3 1.9
v -0.8 1.4 1.9
v -0.5 0.3 1.9
v -0.5 0.5 1.9
v 0.5 0.3 1.9
v 0.5 0.5 1.9
v 0.8 0.3 1.9
v 0.8 0.5 1.9
v 1.8 0.3 1.9
v 1.8 0.5 1.9
v -1.9 0.3 1.8
v -1.9 0.5 1.8
v -1.9 1.3 1.8
v -1.9 1.4 1.8
v -1.8 0.3 1.8
v -1.8 0.5 1.8
v -1.8 0.6 1.8
v -1.8 0.8 1.8
v -1.8 0.9 1.8
v -1.8 1.3 1.8
v -1.8 1.4 1.8
v -1.7 1.4 1.8
v -1.7 1.5 1.8
v -1.7 1.6 1.8
v -1.7 1.7 1.8
v -1.6 0.8 1.8
v -1.6 0.9 1.8
v -1.6 1 1.8
v -1.6 1.2 1.8
v -1.5 1 1.8
v -1.5 1.2 1.8
v -1.5 1.4 1.8
v -1.5 1.5 1.8
v -1.5 1.6 1.8
v -1.4 0.9 1.8
v -1.4 1.1 1.8
v -1.4 1.3 1.8
v -1.4 1.6 1.8
v -1.4 1.7 1.8
v -1.2 0.9 1.8
v -1.2 1.1 1.8
v -1.2 1.3 1.8
v -1.2 1.6 1.8
v -1.2 1.7 1.8
v -1.1 1 1.8
v -1.1 1.2 1.8
v -1.1 1.4 1.8
v -1.1 1.5 1.8
v -1.1 1.6 1.8
v -1 0.8 1.8
v -1 0.9 1.8
v -1 1 1.8
v -1 1.2 1.8
v -0.9 1.4 1.8
v -0.9 1.5 1.8
v -0.9 1.6 1.8
v -0.9 1.7 1.8
v -0.8 0.3 1.8
v -0.8 0.5 1.8
v -0.8 0.6 1.8
v -0.8 0.8 1.8
v -0.8 0.9 1.8
v -0.8 1.3 1.8
v -0.8 1.4 1.8
v -0.7 0.3 1.8
v -0.7 0.5 1.8
v -0.7 1.3 1.8
v -0.7 1.4 1.8
v -0.6 0.3 1.8
v -0.6 0.5 1.8
v -0.5 0.3 1.8
v -0.5 0.5 1.8
v 0.5 0.3 1.8
v 0.5 0.5 1.8
v 0.6 0.3 1.8
v 0.6 0.5 1.8
v 0.7 0.3 1.8
v 0.7 0.5 1.8
v 0.8 0.3 1.8
v 0.8 0.5 1.8
v 1.8 0.3 1.8
v 1.8 0.5 1.8
v 1.9 0.3 1.8
v 1.9 0.5 1.8
v -1.8 1.4 1.7
v -1.8 1.5 1.7
v -1.8 1.6 1.7
v -1.8 1.7 1.7
v -1.7 0.5 1.7
v -1.7 0.6 1.7
v -1.7 1.4 1.7
v -1.7 1.5 1.7
v -1.7 1.6 1.7
v -1.7 1.7 1.7
v -1.5 0.5 1.7
v -1.5 0.6 1.7
v -1.1 0.5 1.7
v -1.1 0.6 1.7
v -0.9 0.5 1.7
v -0.9 0.6 1.7
v -0.9 1.4 1.7
v -0.9 1.5 1.7
v -0.9 1.6 1.7
v -0.9 1.7 1.7
v -0.8 1.4 1.7
v -0.8 1.5 1.7
v -0.8 1.6 1.7
v -0.8 1.7 1.7
v 0.7 0.5 1.6
v 0.7 0.6 1.6
v 1.9 0.5 1.6
v 1.9 0.6 1.6
v -1.7 0.5 1.1
v -1.7 0.6 1.1
v -1.5 0.5 1.1
v -1.5 0.6 1.1
v -1.1 0.5 1.1
v -1.1 0.6 1.1
v -0.9 0.5 1.1
v -0.9 0.6 1.1
v 0.7 0.5 1.1
v 0.7 0.6 1.1
v 0.8 0.5 1.1
v 0.8 0.6 1.1
v 0.9 0.5 1.1
v 0.9 0.6 1.1
v 1.1 0.5 1.1
v 1.1 0.6 1.1
v 1.2 0.5 1.1
v 1.2 0.6 1.1
v 1.4 0.5 1.1
v 1.4 0.6 1.1
v 1.5 0.5 1.1
v 1.5 0.6 1.1
v 1.7 0.5 1.1
v 1.7 0.6 1.1
v 1.8 0.5 1.1
v 1.8 0.6 1.1
v 1.9 0.5 1.1
v 1.9 0.6 1.1
v -1.8 0.3 0.6
v -1.8 0.5 0.6
v -0.8 0.3 0.6
v -0.8 0.5 0.6
v -0.5 0.3 0.6
v -0.5 0.5 0.6
v 0.5 0.3 0.6
v 0.5 0.5 0.6
v 0.8 0.3 0.6
v 0.8 0.5 0.6
v 1.8 0.3 0.6
v 1.8 0.5 0.6
v -1.9 0.3 0.5
v -1.9 0.5 0.5
v -1.8 0.3 0.5
v -1.8 0.5 0.5
v -0.8 0.3 0.5
v -0.8 0.5 0.5
v -0.7 0.3 0.5
v -0.7 0.5 0.5
v -0.6 0.3 0.5
v -0.6 0.5 0.5
v -0.5 0.3 0.5
v -0.5 0.5 0.5
v 0.5 0.3 0.5
v 0.5 0.5 0.5
v 0.6 0.3 0.5
v 0.6 0.5 0.5
v 0.7 0.3 0.5
v 0.7 0.5 0.5
v 0.8 0.3 0.5
v 0.8 0.5 0.5
v 1.8 0.3 0.5
v 1.8 0.5 0.5
v 1.9 0.3 0.5
v 1.9 0.5 0.5
v -1.8 0.3 -0.7
v -1.8 0.5 -0.7
v -0.8 0.3 -0.7
v -0.8 0.5 -0.7
v -0.5 0.3 -0.7
v -0.5 0.5 -0.7
v 0.5 0.3 -0.7
v 0.5 0.5 -0.7
v 0.8 0.3 -0.7
v 0.8 0.5 -0.7
v 1.8 0.3 -0.7
v 1.8 0.5 -0.7
v -1.9 0.3 -0.8
v -1.9 0.5 -0.8
v -1.8 0.3 -0.8
v -1.8 0.5 -0.8
v -0.8 0.3 -0.8
v -0.8 0.5 -0.8
v -0.7 0.3 -0.8
v -0.7 0.5 -0.8
v -0.6 0.3 -0.8
v -0.6 0.5 -0.8
v -0.5 0.3 -0.8
v -0.5 0.5 -0.8
v 0.5 0.3 -0.8
v 0.5 0.5 -0.8
v 0.6 0.3 -0.8
v 0.6 0.5 -0.8
v 0.7 0.3 -0.8
v 0.7 0.5 -0.8
v 0.8 0.3 -0.8
v 0.8 0.5 -0.8
v 1.8 0.3 -0.8
v 1.8 0.5 -0.8
v 1.9 0.3 -0.8
v 1.9 0.5 -0.8
v -1.7 0.5 -1
v -1.7 0.6 -1
v -1.6 0.5 -1
v -1.6 0.6 -1
v 0.9 0.5 -1.1
v 0.9 1 -1.1
v 0.9 1.2 -1.1
v 1 1 -1.1
v 1 1.2 -1.1
v 1 1.3 -1.1
v 1.1 1.2 -1.1
v 1.1 1.3 -1.1
v 1.2 1.3 -1.1
v 1.2 1.4 -1.1
v 1.4 0.6 -1.1
v 1.4 0.7 -1.1
v 1.5 0.6 -1.1
v 1.5 0.7 -1.1
v 1.5 0.9 -1.1
v 1.5 1.1 -1.1
v 1.7 0.9 -1.1
v 1.7 1.1 -1.1
v 1.8 1.3 -1.1
v 1.8 1.4 -1.1
v 1.9 0.5 -1.1
v 1.9 1.3 -1.1
v -1.8 0.5 -1.2
v -1.8 0.6 -1.2
v -1.7 0.5 -1.2
v -1.7 0.6 -1.2
v 0.9 1.2 -1.2
v 0.9 1.3 -1.2
v 1 1.2 -1.2
v 1 1.3 -1.2
v 1.1 1.3 -1.2
v 1.1 1.4 -1.2
v 1.2 1.3 -1.2
v 1.2 1.4 -1.2
v -1.8 0.6 -1.3
v -1.8 0.8 -1.3
v -1.7 0.6 -1.3
v -1.7 0.8 -1.3
v 1.2 1.4 -1.3
v 1.2 1.5 -1.3
v 1.3 1.4 -1.3
v 1.3 1.5 -1.3
v 1.6 1.4 -1.3
v 1.6 1.5 -1.3
v 1.7 1.4 -1.3
v 1.7 1.5 -1.3
v -1.4 0.5 -1.4
v -1.4 0.6 -1.4
v -1.3 0.5 -1.4
v -1.3 0.6 -1.4
v 1.3 1.4 -1.4
v 1.3 1.5 -1.4
v 1.4 1.4 -1.4
v 1.4 1.5 -1.4
v -1.8 0.5 -1.5
v -1.8 0.7 -1.5
v -1.6 0.6 -1.5
v -1.6 0.7 -1.5
v -1.5 0.5 -1.5
v -1.5 0.6 -1.5
v 1.4 1.4 -1.5
v 1.4 1.5 -1.5
v 1.5 1.4 -1.5
v 1.5 1.5 -1.5
v 1.6 1.4 -1.5
v 1.6 1.5 -1.5
v 1.8 1.3 -1.5
v 1.8 1.4 -1.5
v 1.9 1.3 -1.5
v 1.9 1.4 -1.5
v -1.8 0.7 -1.6
v -1.8 0.9 -1.6
v -1.7 0.9 -1.6
v -1.7 1.2 -1.6
v -1.6 0.6 -1.6
v -1.6 0.7 -1.6
v -1.6 1.2 -1.6
v -1.5 0.6 -1.6
v -1.5 0.7 -1.6
v -1.4 0.5 -1.6
v -1.4 0.7 -1.6
v -1.3 0.6 -1.6
v -1.3 0.7 -1.6
v -1.2 0.5 -1.6
v -1.2 0.6 -1.6
v 1.2 1.4 -1.7
v 1.2 1.5 -1.7
v 1.4 1.4 -1.7
v 1.4 1.5 -1.7
v 0.7 0.5 1.5
v 0.7 0.6 1.5
v 0.8 0.5 1.5
v 0.8 0.6 1.5
v 0.9 0.5 1.5
v 0.9 0.6 1.5
v 1.1 0.5 1.5
v 1.1 0.6 1.5
v 1.2 0.5 1.5
v 1.2 0.6 1.5
v 1.4 0.5 1.5
v 1.4 0.6 1.5
v 1.5 0.5 1.5
v 1.5 0.6 1.5
v 1.7 0.5 1.5
v 1.7 0.6 1.5
v 1.8 0.5 1.5
v 1.8 0.6 1.5
v 1.9 0.5 1.5
v 1.9 0.6 1.5
v -1.7 0.5 1.4
v -1.7 0.6 1.4
v -1.5 0.5 1.4
v -1.5 0.6 1.4
v -1.1 0.5 1.4
v -1.1 0.6 1.4
v -0.9 0.5 1.4
v -0.9 0.6 1.4
v 0.7 0.5 1
v 0.7 0.6 1
v 1.9 0.5 1
v 1.9 0.6 1
v -1.8 1.4 0.9
v -1.8 1.5 0.9
v -1.8 1.6 0.9
v -1.8 1.7 0.9
v -1.7 1.4 0.9
v -1.7 1.5 0.9
v -1.7 1.6 0.9
v -1.7 1.7 0.9
v -0.9 1.4 0.9
v -0.9 1.5 0.9
v -0.9 1.6 0.9
v -0.9 1.7 0.9
v -0.8 1.4 0.9
v -0.8 1.5 0.9
v -0.8 1.6 0.9
v -0.8 1.7 0.9
v -1.9 0.3 0.8
v -1.9 0.5 0.8
v -1.9 1.3 0.8
v -1.9 1.4 0.8
v -1.8 0.3 0.8
v -1.8 0.5 0.8
v -1.8 0.6 0.8
v -1.8 1.3 0.8
v -1.8 1.4 0.8
v -1.7 0.5 0.8
v -1.7 0.6 0.8
v -1.7 1.4 0.8
v -1.7 1.5 0.8
v -1.7 1.6 0.8
v -1.7 1.7 0.8
v -1.5 0.5 0.8
v -1.5 0.6 0.8
v -1.4 0.7 0.8
v -1.4 0.9 0.8
v -1.2 0.7 0.8
v -1.2 0.9 0.8
v -1.1 0.5 0.8
v -1.1 0.6 0.8
v -0.9 0.5 0.8
v -0.9 0.6 0.8
v -0.9 1.4 0.8
v -0.9 1.5 0.8
v -0.9 1.6 0.8
v -0.9 1.7 0.8
v -0.8 0.3 0.8
v -0.8 0.5 0.8
v -0.8 0.6 0.8
v -0.8 1.3 0.8
v -0.8 1.4 0.8
v -0.7 0.3 0.8
v -0.7 0.5 0.8
v -0.7 1.3 0.8
v -0.7 1.4 0.8
v -0.6 0.3 0.8
v -0.6 0.5 0.8
v -0.5 0.3 0.8
v -0.5 0.5 0.8
v 0.5 0.3 0.8
v 0.5 0.5 0.8
v 0.6 0.3 0.8
v 0.6 0.5 0.8
v 0.7 0.3 0.8
v 0.7 0.5 0.8
v 0.8 0.3 0.8
v 0.8 0.5 0.8
v 1.8 0.3 0.8
v 1.8 0.5 0.8
v 1.9 0.3 0.8
v 1.9 0.5 0.8
v -1.8 0.3 0.7
v -1.8 0.5 0.7
v -1.8 1.3 0.7
v -1.8 1.4 0.7
v -1.4 0.7 0.7
v -1.4 0.9 0.7
v -1.2 0.7 0.7
v -1.2 0.9 0.7
v -0.8 0.3 0.7
v -0.8 0.5 0.7
v -0.8 1.3 0.7
v -0.8 1.4 0.7
v -0.5 0.3 0.7
v -0.5 0.5 0.7
v 0.5 0.3 0.7
v 0.5 0.5 0.7
v 0.8 0.3 0.7
v 0.8 0.5 0.7
v 1.8 0.3 0.7
v 1.8 0.5 0.7
v -1.9 0.3 -0.5
v -1.9 0.5 -0.5
v -1.8 0.3 -0.5
v -1.8 0.5 -0.5
v -0.8 0.3 -0.5
v -0.8 0.5 -0.5
v -0.7 0.3 -0.5
v -0.7 0.5 -0.5
v -0.6 0.3 -0.5
v -0.6 0.5 -0.5
v -0.5 0.3 -0.5
v -0.5 0.5 -0.5
v 0.5 0.3 -0.5
v 0.5 0.5 -0.5
v 0.6 0.3 -0.5
v 0.6 0.5 -0.5
v 0.7 0.3 -0.5
v 0.7 0.5 -0.5
v 0.8 0.3 -0.5
v 0.8 0.5 -0.5
v 1.8 0.3 -0.5
v 1.8 0.5 -0.5
v 1.9 0.3 -0.5
v 1.9 0.5 -0.5
v -1.8 0.3 -0.6
v -1.8 0.5 -0.6
v -0.8 0.3 -0.6
v -0.8 0.5 -0.6
v -0.5 0.3 -0.6
v -0.5 0.5 -0.6
v 0.5 0.3 -0.6
v 0.5 0.5 -0.6
v 0.8 0.3 -0.6
v 0.8 0.5 -0.6
v 1.8 0.3 -0.6
v 1.8 0.5 -0.6
v -1.7 0.5 -1.1
v -1.7 0.6 -1.1
v -1.6 0.5 -1.1
v -1.6 0.6 -1.1
v -1.8 0.5 -1.4
v -1.8 0.8 -1.4
v -1.7 0.5 -1.4
v -1.7 0.8 -1.4
v 1.2 1.4 -1.4
v 1.2 1.5 -1.4
v 1.3 1.4 -1.4
v 1.3 1.5 -1.4
v -1.4 0.5 -1.5
v -1.4 0.6 -1.5
v -1.3 0.5 -1.5
v -1.3 0.6 -1.5
v 1.3 1.4 -1.5
v 1.3 1.5 -1.5
v 1.4 1.4 -1.5
v 1.4 1.5 -1.5
v 1.6 1.4 -1.5
v 1.6 1.5 -1.5
v 1.7 1.4 -1.5
v 1.7 1.5 -1.5
v 1.5 1.4 -1.6
v 1.5 1.5 -1.6
v 1.6 1.4 -1.6
v 1.6 1.5 -1.6
v -1.8 0.8 -1.7
v -1.8 0.9 -1.7
v -1.7 0.9 -1.7
v -1.7 1.2 -1.7
v -1.6 0.6 -1.7
v -1.6 0.7 -1.7
v -1.6 0.8 -1.7
v -1.6 1.2 -1.7
v -1.5 0.6 -1.7
v -1.5 0.7 -1.7
v -1.4 0.5 -1.7
v -1.4 0.7 -1.7
v -1.3 0.6 -1.7
v -1.3 0.7 -1.7
v -1.2 0.5 -1.7
v -1.2 0.6 -1.7
v 1.4 1.4 -1.7
v 1.4 1.5 -1.7
v 1.5 1.4 -1.7
v 1.5 1.5 -1.7
v -1.9 0.3 -1.8
v -1.9 0.5 -1.8
v -1.8 0.3 -1.8
v -1.8 0.5 -1.8
v -1.8 0.8 -1.8
v -1.6 0.6 -1.8
v -1.6 0.8 -1.8
v -1.5 0.5 -1.8
v -1.5 0.6 -1.8
v -0.8 0.3 -1.8
v -0.8 0.5 -1.8
v -0.7 0.3 -1.8
v -0.7 0.5 -1.8
v -0.6 0.3 -1.8
v -0.6 0.5 -1.8
v -0.5 0.3 -1.8
v -0.5 0.5 -1.8
v 0.5 0.3 -1.8
v 0.5 0.5 -1.8
v 0.6 0.3 -1.8
v 0.6 0.5 -1.8
v 0.7 0.3 -1.8
v 0.7 0.5 -1.8
v 0.8 0.3 -1.8
v 0.8 0.5 -1.8
v 0.9 1.2 -1.8
v 0.9 1.3 -1.8
v 1.1 1.3 -1.8
v 1.1 1.4 -1.8
v 1.2 1.2 -1.8
v 1.2 1.4 -1.8
v 1.2 1.5 -1.8
v 1.4 1.4 -1.8
v 1.4 1.5 -1.8
v 1.8 0.3 -1.8
v 1.8 0.7 -1.8
v 1.8 0.8 -1.8
v 1.8 1.4 -1.8
v 1.9 0.3 -1.8
v 1.9 1.4 -1.8
v -1.8 0.3 -1.9
v -1.8 0.5 -1.9
v -0.8 0.3 -1.9
v -0.8 0.5 -1.9
v -0.5 0.3 -1.9
v -0.5 0.5 -1.9
v 0.5 0.3 -1.9
v 0.5 0.5 -1.9
v 0.8 0.3 -1.9
v 0.8 0.5 -1.9
v 0.9 0.5 -1.9
v 0.9 1.2 -1.9
v 1.2 1.2 -1.9
v 1.2 1.4 -1.9
v 1.3 0.8 -1.9
v 1.3 1 -1.9
v 1.5 0.8 -1.9
v 1.5 1 -1.9
v 1.7 0.7 -1.9
v 1.7 0.8 -1.9
v 1.8 0.3 -1.9
v 1.8 0.7 -1.9
v 1.8 0.8 -1.9
v 1.8 1.4 -1.9
v -1.8 0.3 1.9
v -0.8 0.3 1.9
v -0.5 0.3 1.9
v 0.5 0.3 1.9
v 0.8 0.3 1.9
v 1.8 0.3 1.9
v -1.9 0.3 1.8
v -1.8 0.3 1.8
v -0.8 0.3 1.8
v -0.7 0.3 1.8
v -0.6 0.3 1.8
v -0.5 0.3 1.8
v 0.5 0.3 1.8
v 0.6 0.3 1.8
v 0.7 0.3 1.8
v 0.8 0.3 1.8
v 1.8 0.3 1.8
v 1.9 0.3 1.8
v -1.9 0.3 0.8
v -1.8 0.3 0.8
v -0.8 0.3 0.8
v -0.7 0.3 0.8
v -0.6 0.3 0.8
v -0.5 0.3 0.8
v 0.5 0.3 0.8
v 0.6 0.3 0.8
v 0.7 0.3 0.8
v 0.8 0.3 0.8
v 1.8 0.3 0.8
v 1.9 0.3 0.8
v -1.8 0.3 0.7
v -0.8 0.3 0.7
v -0.5 0.3 0.7
v 0.5 0.3 0.7
v 0.8 0.3 0.7
v 1.8 0.3 0.7
v -1.8 0.3 0.6
v -0.8 0.3 0.6
v -0.5 0.3 0.6
v 0.5 0.3 0.6
v 0.8 0.3 0.6
v 1.8 0.3 0.6
v -1.9 0.3 0.5
v -1.8 0.3 0.5
v -0.8 0.3 0.5
v -0.7 0.3 0.5
v -0.6 0.3 0.5
v -0.5 0.3 0.5
v 0.5 0.3 0.5
v 0.6 0.3 0.5
v 0.7 0.3 0.5
v 0.8 0.3 0.5
v 1.8 0.3 0.5
v 1.9 0.3 0.5
v -1.9 0.3 -0.5
v -1.8 0.3 -0.5
v -0.8 0.3 -0.5
v -0.7 0.3 -0.5
v -0.6 0.3 -0.5
v -0.5 0.3 -0.5
v 0.5 0.3 -0.5
v 0.6 0.3 -0.5
v 0.7 0.3 -0.5
v 0.8 0.3 -0.5
v 1.8 0.3 -0.5
v 1.9 0.3 -0.5
v -1.8 0.3 -0.6
v -0.8 0.3 -0.6
v -0.5 0.3 -0.6
v 0.5 0.3 -0.6
v 0.8 0.3 -0.6
v 1.8 0.3 -0.6
v -1.8 0.3 -0.7
v -0.8 0.3 -0.7
v -0.5 0.3 -0.7
v 0.5 0.3 -0.7
v 0.8 0.3 -0.7
v 1.8 0.3 -0.7
v -1.9 0.3 -0.8
v -1.8 0.3 -0.8
v -0.8 0.3 -0.8
v -0.7 0.3 -0.8
v -0.6 0.3 -0.8
v -0.5 0.3 -0.8
v 0.5 0.3 -0.8
v 0.6 0.3 -0.8
v 0.7 0.3 -0.8
v 0.8 0.3 -0.8
v 1.8 0.3 -0.8
v 1.9 0.3 -0.8
v -1.9 0.3 -1.8
v -1.8 0.3 -1.8
v -0.8 0.3 -1.8
v -0.7 0.3 -1.8
v -0.6 0.3 -1.8
v -0.5 0.3 -1.8
v 0.5 0.3 -1.8
v 0.6 0.3 -1.8
v 0.7 0.3 -1.8
v 0.8 0.3 -1.8
v 1.8 0.3 -1.8
v 1.9 0.3 -1.8
v -1.8 0.3 -1.9
v -0.8 0.3 -1.9
v -0.5 0.3 -1.9
v 0.5 0.3 -1.9
v 0.8 0.3 -1.9
v 1.8 0.3 -1.9
v -1.8 0.6 1.8
v -0.8 0.6 1.8
v -1.7 0.6 1.7
v -1.5 0.6 1.7
v -1.1 0.6 1.7
v -0.9 0.6 1.7
v -1.7 0.6 1.4
v -1.5 0.6 1.4
v -1.1 0.6 1.4
v -0.9 0.6 1.4
v -1.7 0.6 1.1
v -1.5 0.6 1.1
v -1.1 0.6 1.1
v -0.9 0.6 1.1
v -1.8 0.6 0.8
v -1.7 0.6 0.8
v -1.5 0.6 0.8
v -1.1 0.6 0.8
v -0.9 0.6 0.8
v -0.8 0.6 0.8
v -1.4 0.7 0.8
v -1.2 0.7 0.8
v -1.4 0.7 0.7
v -1.2 0.7 0.7
v -1.4 0.9 1.9
v -1.2 0.9 1.9
v -1.4 0.9 1.8
v -1.2 0.9 1.8
v -1.8 1.3 1.9
v -1.4 1.3 1.9
v -1.2 1.3 1.9
v -0.8 1.3 1.9
v -1.9 1.3 1.8
v -1.8 1.3 1.8
v -1.4 1.3 1.8
v -1.2 1.3 1.8
v -0.8 1.3 1.8
v -0.7 1.3 1.8
v -1.9 1.3 0.8
v -1.8 1.3 0.8
v -0.8 1.3 0.8
v -0.7 1.3 0.8
v -1.8 1.3 0.7
v -0.8 1.3 0.7
v -1.8 0.5 1.9
v -0.8 0.5 1.9
v -0.5 0.5 1.9
v 0.5 0.5 1.9
v 0.8 0.5 1.9
v 1.8 0.5 1.9
v -1.9 0.5 1.8
v -1.8 0.5 1.8
v -0.8 0.5 1.8
v -0.7 0.5 1.8
v -0.6 0.5 1.8
v -0.5 0.5 1.8
v 0.5 0.5 1.8
v 0.6 0.5 1.8
v 0.7 0.5 1.8
v 0.8 0.5 1.8
v 1.8 0.5 1.8
v 1.9 0.5 1.8
v -1.7 0.5 1.7
v -1.5 0.5 1.7
v -1.1 0.5 1.7
v -0.9 0.5 1.7
v 0.7 0.5 1.6
v 1.9 0.5 1.6
v 0.7 0.5 1.5
v 0.8 0.5 1.5
v 0.9 0.5 1.5
v 1.1 0.5 1.5
v 1.2 0.5 1.5
v 1.4 0.5 1.5
v 1.5 0.5 1.5
v 1.7 0.5 1.5
v 1.8 0.5 1.5
v 1.9 0.5 1.5
v -1.7 0.5 1.4
v -1.5 0.5 1.4
v -1.1 0.5 1.4
v -0.9 0.5 1.4
v -1.7 0.5 1.1
v -1.5 0.5 1.1
v -1.1 0.5 1.1
v -0.9 0.5 1.1
v 0.7 0.5 1.1
v 0.8 0.5 1.1
v 0.9 0.5 1.1
v 1.1 0.5 1.1
v 1.2 0.5 1.1
v 1.4 0.5 1.1
v 1.5 0.5 1.1
v 1.7 0.5 1.1
v 1.8 0.5 1.1
v 1.9 0.5 1.1
v 0.7 0.5 1
v 1.9 0.5 1
v -1.9 0.5 0.8
v -1.8 0.5 0.8
v -1.7 0.5 0.8
v -1.5 0.5 0.8
v -1.1 0.5 0.8
v -0.9 0.5 0.8
v -0.8 0.5 0.8
v -0.7 0.5 0.8
v -0.6 0.5 0.8
v -0.5 0.5 0.8
v 0.5 0.5 0.8
v 0.6 0.5 0.8
v 0.7 0.5 0.8
v 0.8 0.5 0.8
v 1.8 0.5 0.8
v 1.9 0.5 0.8
v -1.8 0.5 0.7
v -0.8 0.5 0.7
v -0.5 0.5 0.7
v 0.5 0.5 0.7
v 0.8 0.5 0.7
v 1.8 0.5 0.7
v -1.8 0.5 0.6
v -0.8 0.5 0.6
v -0.5 0.5 0.6
v 0.5 0.5 0.6
v 0.8 0.5 0.6
v 1.8 0.5 0.6
v -1.9 0.5 0.5
v -1.8 0.5 0.5
v -0.8 0.5 0.5
v -0.7 0.5 0.5
v -0.6 0.5 0.5
v -0.5 0.5 0.5
v 0.5 0.5 0.5
v 0.6 0.5 0.5
v 0.7 0.5 0.5
v 0.8 0.5 0.5
v 1.8 0.5 0.5
v 1.9 0.5 0.5
v -1.9 0.5 -0.5
v -1.8 0.5 -0.5
v -0.8 0.5 -0.5
v -0.7 0.5 -0.5
v -0.6 0.5 -0.5
v -0.5 0.5 -0.5
v 0.5 0.5 -0.5
v 0.6 0.5 -0.5
v 0.7 0.5 -0.5
v 0.8 0.5 -0.5
v 1.8 0.5 -0.5
v 1.9 0.5 -0.5
v -1.8 0.5 -0.6
v -0.8 0.5 -0.6
v -0.5 0.5 -0.6
v 0.5 0.5 -0.6
v 0.8 0.5 -0.6
v 1.8 0.5 -0.6
v -1.8 0.5 -0.7
v -0.8 0.5 -0.7
v -0.5 0.5 -0.7
v 0.5 0.5 -0.7
v 0.8 0.5 -0.7
v 1.8 0.5 -0.7
v -1.9 0.5 -0.8
v -1.8 0.5 -0.8
v -0.8 0.5 -0.8
v -0.7 0.5 -0.8
v -0.6 0.5 -0.8
v -0.5 0.5 -0.8
v 0.5 0.5 -0.8
v 0.6 0.5 -0.8
v 0.7 0.5 -0.8
v 0.8 0.5 -0.8
v 1.8 0.5 -0.8
v 1.9 0.5 -0.8
v -1.7 0.5 -1
v -1.6 0.5 -1
v -1.7 0.5 -1.1
v -1.6 0.5 -1.1
v 0.9 0.5 -1.1
v 1.9 0.5 -1.1
v -1.8 0.5 -1.2
v -1.7 0.5 -1.2
v -1.8 0.5 -1.4
v -1.7 0.5 -1.4
v -1.4 0.5 -1.4
v -1.3 0.5 -1.4
v -1.8 0.5 -1.5
v -1.5 0.5 -1.5
v -1.4 0.5 -1.5
v -1.3 0.5 -1.5
v -1.4 0.5 -1.6
v -1.2 0.5 -1.6
v -1.4 0.5 -1.7
v -1.2 0.5 -1.7
v -1.9 0.5 -1.8
v -1.8 0.5 -1.8
v -1.5 0.5 -1.8
v -0.8 0.5 -1.8
v -0.7 0.5 -1.8
v -0.6 0.5 -1.8
v -0.5 0.5 -1.8
v 0.5 0.5 -1.8
v 0.6 0.5 -1.8
v 0.7 0.5 -1.8
v 0.8 0.5 -1.8
v -1.8 0.5 -1.9
v -0.8 0.5 -1.9
v -0.5 0.5 -1.9
v 0.5 0.5 -1.9
v 0.8 0.5 -1.9
v 0.9 0.5 -1.9
v 0.7 0.6 1.6
v 1.9 0.6 1.6
v 0.7 0.6 1.5
v 0.8 0.6 1.5
v 0.9 0.6 1.5
v 1.1 0.6 1.5
v 1.2 0.6 1.5
v 1.4 0.6 1.5
v 1.5 0.6 1.5
v 1.7 0.6 1.5
v 1.8 0.6 1.5
v 1.9 0.6 1.5
v 0.7 0.6 1.1
v 0.8 0.6 1.1
v 0.9 0.6 1.1
v 1.1 0.6 1.1
v 1.2 0.6 1.1
v 1.4 0.6 1.1
v 1.5 0.6 1.1
v 1.7 0.6 1.1
v 1.8 0.6 1.1
v 1.9 0.6 1.1
v 0.7 0.6 1
v 1.9 0.6 1
v -1.7 0.6 -1
v -1.6 0.6 -1
v -1.7 0.6 -1.1
v -1.6 0.6 -1.1
v -1.8 0.6 -1.2
v -1.7 0.6 -1.2
v -1.8 0.6 -1.3
v -1.7 0.6 -1.3
v -1.4 0.6 -1.4
v -1.3 0.6 -1.4
v -1.6 0.6 -1.5
v -1.5 0.6 -1.5
v -1.4 0.6 -1.5
v -1.3 0.6 -1.5
v -1.6 0.6 -1.6
v -1.5 0.6 -1.6
v -1.3 0.6 -1.6
v -1.2 0.6 -1.6
v -1.6 0.6 -1.7
v -1.5 0.6 -1.7
v -1.3 0.6 -1.7
v -1.2 0.6 -1.7
v -1.6 0.6 -1.8
v -1.5 0.6 -1.8
v -1.8 0.7 -1.5
v -1.6 0.7 -1.5
v -1.8 0.7 -1.6
v -1.6 0.7 -1.6
v -1.5 0.7 -1.6
v -1.4 0.7 -1.6
v -1.3 0.7 -1.6
v -1.6 0.7 -1.7
v -1.5 0.7 -1.7
v -1.4 0.7 -1.7
v -1.3 0.7 -1.7
v -1.8 0.8 -1.3
v -1.7 0.8 -1.3
v -1.8 0.8 -1.4
v -1.7 0.8 -1.4
v -1.8 0.8 -1.7
v -1.6 0.8 -1.7
v -1.8 0.8 -1.8
v -1.6 0.8 -1.8
v -1.4 0.9 0.8
v -1.2 0.9 0.8
v -1.4 0.9 0.7
v -1.2 0.9 0.7
v -1.8 0.9 -1.6
v -1.7 0.9 -1.6
v -1.8 0.9 -1.7
v -1.7 0.9 -1.7
v -1.4 1.1 1.9
v -1.2 1.1 1.9
v -1.4 1.1 1.8
v -1.2 1.1 1.8
v 0.9 1.2 -1.1
v 1 1.2 -1.1
v 0.9 1.2 -1.2
v 1 1.2 -1.2
v -1.7 1.2 -1.6
v -1.6 1.2 -1.6
v -1.7 1.2 -1.7
v -1.6 1.2 -1.7
v 0.9 1.2 -1.8
v 1.2 1.2 -1.8
v 0.9 1.2 -1.9
v 1.2 1.2 -1.9
v 1 1.3 -1.1
v 1.1 1.3 -1.1
v 1.2 1.3 -1.1
v 1.8 1.3 -1.1
v 1.9 1.3 -1.1
v 0.9 1.3 -1.2
v 1 1.3 -1.2
v 1.1 1.3 -1.2
v 1.2 1.3 -1.2
v 0.9 1.3 -1.3
v 1.1 1.3 -1.3
v 1.8 1.3 -1.5
v 1.9 1.3 -1.5
v 0.9 1.3 -1.8
v 1.1 1.3 -1.8
v -1.8 1.4 1.9
v -1.5 1.4 1.9
v -1.1 1.4 1.9
v -0.8 1.4 1.9
v -1.9 1.4 1.8
v -1.8 1.4 1.8
v -1.7 1.4 1.8
v -1.5 1.4 1.8
v -1.1 1.4 1.8
v -0.9 1.4 1.8
v -0.8 1.4 1.8
v -0.7 1.4 1.8
v -1.8 1.4 1.7
v -1.7 1.4 1.7
v -0.9 1.4 1.7
v -0.8 1.4 1.7
v -1.8 1.4 0.9
v -1.7 1.4 0.9
v -0.9 1.4 0.9
v -0.8 1.4 0.9
v -1.9 1.4 0.8
v -1.8 1.4 0.8
v -1.7 1.4 0.8
v -0.9 1.4 0.8
v -0.8 1.4 0.8
v -0.7 1.4 0.8
v -1.8 1.4 0.7
v -0.8 1.4 0.7
v 1.2 1.4 -1.1
v 1.8 1.4 -1.1
v 1.1 1.4 -1.2
v 1.2 1.4 -1.2
v 1.2 1.4 -1.3
v 1.3 1.4 -1.3
v 1.6 1.4 -1.3
v 1.7 1.4 -1.3
v 1.2 1.4 -1.4
v 1.3 1.4 -1.4
v 1.4 1.4 -1.4
v 1.3 1.4 -1.5
v 1.4 1.4 -1.5
v 1.5 1.4 -1.5
v 1.6 1.4 -1.5
v 1.7 1.4 -1.5
v 1.8 1.4 -1.5
v 1.9 1.4 -1.5
v 1.4 1.4 -1.6
v 1.5 1.4 -1.6
v 1.6 1.4 -1.6
v 1.2 1.4 -1.7
v 1.4 1.4 -1.7
v 1.5 1.4 -1.7
v 1.1 1.4 -1.8
v 1.2 1.4 -1.8
v 1.4 1.4 -1.8
v 1.8 1.4 -1.8
v 1.9 1.4 -1.8
v 1.2 1.4 -1.9
v 1.8 1.4 -1.9
v 1.2 1.5 -1.3
v 1.3 1.5 -1.3
v 1.6 1.5 -1.3
v 1.7 1.5 -1.3
v 1.2 1.5 -1.4
v 1.3 1.5 -1.4
v 1.4 1.5 -1.4
v 1.3 1.5 -1.5
v 1.4 1.5 -1.5
v 1.5 1.5 -1.5
v 1.6 1.5 -1.5
v 1.7 1.5 -1.5
v 1.4 1.5 -1.6
v 1.5 1.5 -1.6
v 1.6 1.5 -1.6
v 1.2 1.5 -1.7
v 1.4 1.5 -1.7
v 1.5 1.5 -1.7
v 1.2 1.5 -1.8
v 1.4 1.5 -1.8
v -1.5 1.6 1.9
v -1.4 1.6 1.9
v -1.2 1.6 1.9
v -1.1 1.6 1.9
v -1.5 1.6 1.8
v -1.4 1.6 1.8
v -1.2 1.6 1.8
v -1.1 1.6 1.8
v -1.4 1.7 1.9
v -1.2 1.7 1.9
v -1.7 1.7 1.8
v -1.4 1.7 1.8
v -1.2 1.7 1.8
v -0.9 1.7 1.8
v -1.8 1.7 1.7
v -1.7 1.7 1.7
v -0.9 1.7 1.7
v -0.8 1.7 1.7
v -1.8 1.7 0.9
v -1.7 1.7 0.9
v -0.9 1.7 0.9
v -0.8 1.7 0.9
v -1.7 1.7 0.8
v -0.9 1.7 0.8

# faces
f 7/4/1 2/4/1 1/4/1
f 8/4/1 2/4/1 7/4/1
f 9/4/1 4/4/1 3/4/1
f 10/4/1 4/4/1 9/4/1
f 11/4/1 6/4/1 5/4/1
f 12/4/1 6/4/1 11/4/1
f 15/7/1 14/7/1 13/7/1
f 16/7/1 14/7/1 15/7/1
f 29/4/1 18/4/1 17/4/1
f 30/4/1 18/4/1 29/4/1
f 31/4/1 20/4/1 19/4/1
f 32/4/1 20/4/1 31/4/1
f 33/4/1 22/4/1 21/4/1
f 34/4/1 22/4/1 33/4/1
f 35/4/1 24/4/1 23/4/1
f 36/4/1 24/4/1 35/4/1
f 37/4/1 26/4/1 25/4/1
f 38/4/1 26/4/1 37/4/1
f 42/4/1 28/4/1 27/4/1
f 43/4/1 28/4/1 42/4/1
f 46/2/1 40/2/1 39/2/1
f 47/2/1 40/2/1 46/2/1
f 48/2/1 42/2/1 41/2/1
f 49/2/1 42/2/1 48/2/1
f 50/2/1 45/2/1 44/2/1
f 51/2/1 45/2/1 50/2/1
f 52/2/1 40/2/1 47/2/1
f 53/2/1 40/2/1 52/2/1
f 54/2/1 42/2/1 49/2/1
f 55/2/1 42/2/1 54/2/1
f 56/4/1 51/4/1 50/4/1
f 57/2/1 45/2/1 51/2/1
f 57/4/1 51/4/1 56/4/1
f 58/2/1 54/2/1 49/2/1
f 59/2/1 54/2/1 58/2/1
f 61/2/1 57/2/1 56/2/1
f 62/2/1 45/2/1 57/2/1
f 62/2/1 57/2/1 61/2/1
f 64/7/1 61/7/1 60/7/1
f 65/7/1 61/7/1 64/7/1
f 68/7/1 63/7/1 62/7/1
f 69/7/1 63/7/1 68/7/1
f 70/7/1 67/7/1 66/7/1
f 71/7/1 67/7/1 70/7/1
f 72/11/1 71/11/1 70/11/1
f 73/11/1 71/11/1 72/11/1
f 74/7/1 73/7/1 72/7/1
f 75/7/1 73/7/1 74/7/1
f 82/2/1 77/2/1 76/2/1
f 83/2/1 77/2/1 82/2/1
f 84/2/1 79/2/1 78/2/1
f 85/2/1 79/2/1 84/2/1
f 86/2/1 81/2/1 80/2/1
f 87/2/1 81/2/1 86/2/1
f 90/2/1 89/2/1 88/2/1
f 91/2/1 89/2/1 90/2/1
f 96/7/1 93/7/1 92/7/1
f 97/7/1 93/7/1 96/7/1
f 98/7/1 95/7/1 94/7/1
f 99/7/1 95/7/1 98/7/1
f 100/11/1 97/11/1 96/11/1
f 101/11/1 97/11/1 100/11/1
f 102/11/1 99/11/1 98/11/1
f 103/11/1 99/11/1 102/11/1
f 104/7/1 101/7/1 100/7/1
f 105/7/1 101/7/1 104/7/1
f 106/7/1 103/7/1 102/7/1
f 107/7/1 103/7/1 106/7/1
f 110/11/1 109/11/1 108/11/1
f 111/11/1 110/11/1 108/11/1
f 112/11/1 110/11/1 111/11/1
f 117/2/1 114/2/1 113/2/1
f 118/2/1 114/2/1 117/2/1
f 121/2/1 116/2/1 115/2/1
f 122/2/1 116/2/1 121/2/1
f 125/4/1 120/4/1 119/4/1
f 126/4/1 120/4/1 125/4/1
f 127/1/1 124/1/1 123/1/1
f 128/1/1 124/1/1 127/1/1
f 131/11/1 130/11/1 129/11/1
f 132/11/1 130/11/1 131/11/1
f 137/2/1 134/2/1 133/2/1
f 138/2/1 134/2/1 137/2/1
f 139/2/1 136/2/1 135/2/1
f 140/2/1 136/2/1 139/2/1
f 147/4/1 142/4/1 141/4/1
f 148/4/1 142/4/1 147/4/1
f 149/4/1 144/4/1 143/4/1
f 150/4/1 144/4/1 149/4/1
f 151/4/1 146/4/1 145/4/1
f 152/4/1 146/4/1 151/4/1
f 165/4/1 154/4/1 153/4/1
f 166/4/1 154/4/1 165/4/1
f 167/4/1 156/4/1 155/4/1
f 168/4/1 156/4/1 167/4/1
f 169/4/1 158/4/1 157/4/1
f 170/4/1 158/4/1 169/4/1
f 171/4/1 160/4/1 159/4/1
f 172/4/1 160/4/1 171/4/1
f 173/4/1 162/4/1 161/4/1
f 174/4/1 162/4/1 173/4/1
f 175/4/1 164/4/1 163/4/1
f 176/4/1 164/4/1 175/4/1
f 183/4/1 178/4/1 177/4/1
f 184/4/1 178/4/1 183/4/1
f 185/4/1 178/4/1 184/4/1
f 186/4/1 178/4/1 185/4/1
f 187/4/1 178/4/1 186/4/1
f 188/4/1 178/4/1 187/4/1
f 189/4/1 180/4/1 179/4/1
f 190/4/1 180/4/1 189/4/1
f 191/4/1 182/4/1 181/4/1
f 192/4/1 182/4/1 191/4/1
f 193/11/1 185/11/1 184/11/1
f 194/11/1 185/11/1 193/11/1
f 195/11/1 187/11/1 186/11/1
f 196/11/1 187/11/1 195/11/1
f 209/4/1 198/4/1 197/4/1
f 210/4/1 198/4/1 209/4/1
f 213/4/1 200/4/1 199/4/1
f 214/4/1 200/4/1 213/4/1
f 215/4/1 202/4/1 201/4/1
f 216/4/1 202/4/1 215/4/1
f 217/4/1 204/4/1 203/4/1
f 218/4/1 204/4/1 217/4/1
f 219/4/1 206/4/1 205/4/1
f 220/4/1 206/4/1 219/4/1
f 221/4/1 208/4/1 207/4/1
f 222/4/1 208/4/1 221/4/1
f 223/2/1 212/2/1 211/2/1
f 224/2/1 212/2/1 223/2/1
f 227/4/1 226/4/1 225/4/1
f 228/4/1 226/4/1 227/4/1
f 229/4/1 227/4/1 225/4/1
f 229/7/1 228/7/1 227/7/1
f 230/4/1 226/4/1 228/4/1
f 230/7/1 228/7/1 229/7/1
f 231/4/1 230/4/1 229/4/1
f 231/4/1 226/4/1 230/4/1
f 232/4/1 226/4/1 231/4/1
f 233/4/1 229/4/1 225/4/1
f 233/4/1 231/4/1 229/4/1
f 234/4/1 231/4/1 233/4/1
f 235/7/1 232/7/1 231/7/1
f 235/4/1 231/4/1 234/4/1
f 236/4/1 226/4/1 232/4/1
f 236/7/1 232/7/1 235/7/1
f 237/7/1 234/7/1 233/7/1
f 238/4/1 235/4/1 234/4/1
f 238/7/1 234/7/1 237/7/1
f 238/4/1 236/4/1 235/4/1
f 239/4/1 236/4/1 238/4/1
f 240/4/1 226/4/1 236/4/1
f 240/4/1 236/4/1 239/4/1
f 241/4/1 226/4/1 240/4/1
f 242/7/1 239/7/1 238/7/1
f 243/4/1 240/4/1 239/4/1
f 243/7/1 239/7/1 242/7/1
f 244/4/1 240/4/1 243/4/1
f 247/7/1 246/7/1 245/7/1
f 248/7/1 246/7/1 247/7/1
f 251/2/1 250/2/1 249/2/1
f 252/2/1 250/2/1 251/2/1
f 256/4/1 254/4/1 253/4/1
f 256/4/1 255/4/1 254/4/1
f 257/4/1 255/4/1 256/4/1
f 262/4/1 261/4/1 260/4/1
f 263/4/1 261/4/1 262/4/1
f 267/4/1 259/4/1 258/4/1
f 268/4/1 259/4/1 267/4/1
f 269/6/1 265/6/1 264/6/1
f 270/6/1 265/6/1 269/6/1
f 271/8/1 267/8/1 266/8/1
f 272/8/1 267/8/1 271/8/1
f 275/6/1 274/6/1 273/6/1
f 276/6/1 274/6/1 275/6/1
f 279/2/1 278/2/1 277/2/1
f 280/2/1 278/2/1 279/2/1
f 284/6/1 282/6/1 281/6/1
f 285/8/1 283/8/1 282/8/1
f 285/6/1 282/6/1 284/6/1
f 286/8/1 283/8/1 285/8/1
f 289/8/1 288/8/1 287/8/1
f 290/8/1 288/8/1 289/8/1
f 293/2/1 292/2/1 291/2/1
f 294/2/1 292/2/1 293/2/1
f 295/2/2 296/2/2 297/2/2
f 297/2/2 296/2/2 298/2/2
f 298/2/2 296/2/2 299/2/2
f 299/2/2 296/2/2 300/2/2
f 301/2/2 302/2/2 303/2/2
f 303/2/2 302/2/2 304/2/2
f 305/2/2 306/2/2 309/2/2
f 309/2/2 306/2/2 310/2/2
f 307/2/2 308/2/2 311/2/2
f 310/2/2 311/2/2 312/2/2
f 311/2/2 308/2/2 312/2/2
f 312/2/2 308/2/2 313/2/2
f 310/2/2 312/2/2 314/2/2
f 314/2/2 312/2/2 315/2/2
f 316/2/2 317/2/2 322/2/2
f 322/2/2 317/2/2 323/2/2
f 318/2/2 319/2/2 324/2/2
f 324/2/2 319/2/2 325/2/2
f 320/2/2 321/2/2 326/2/2
f 326/2/2 321/2/2 327/2/2
f 327/2/2 321/2/2 328/2/2
f 328/2/2 321/2/2 329/2/2
f 327/2/2 328/2/2 330/2/2
f 330/2/2 328/2/2 331/2/2
f 332/2/2 333/2/2 334/2/2
f 334/2/2 333/2/2 335/2/2
f 336/2/2 337/2/2 338/2/2
f 338/2/2 337/2/2 339/2/2
f 340/2/2 341/2/2 342/2/2
f 342/2/2 341/2/2 343/2/2
f 344/4/2 345/4/2 348/4/2
f 348/4/2 345/4/2 349/4/2
f 346/1/2 347/1/2 350/1/2
f 350/1/2 347/1/2 351/1/2
f 352/11/2 353/11/2 354/11/2
f 354/11/2 353/11/2 355/11/2
f 356/11/2 357/11/2 358/11/2
f 356/11/2 358/11/2 359/11/2
f 359/11/2 358/11/2 360/11/2
f 361/2/2 362/2/2 365/2/2
f 365/2/2 362/2/2 366/2/2
f 363/2/2 364/2/2 367/2/2
f 367/2/2 364/2/2 368/2/2
f 369/7/2 370/7/2 373/7/2
f 373/7/2 370/7/2 374/7/2
f 371/7/2 372/7/2 375/7/2
f 375/7/2 372/7/2 376/7/2
f 373/11/2 374/11/2 377/11/2
f 377/11/2 374/11/2 378/11/2
f 375/11/2 376/11/2 379/11/2
f 379/11/2 376/11/2 380/11/2
f 377/7/2 378/7/2 381/7/2
f 381/7/2 378/7/2 382/7/2
f 379/7/2 380/7/2 383/7/2
f 383/7/2 380/7/2 384/7/2
f 385/4/2 386/4/2 397/4/2
f 397/4/2 386/4/2 398/4/2
f 387/4/2 388/4/2 399/4/2
f 399/4/2 388/4/2 400/4/2
f 389/4/2 390/4/2 401/4/2
f 401/4/2 390/4/2 402/4/2
f 391/4/2 392/4/2 403/4/2
f 403/4/2 392/4/2 404/4/2
f 393/4/2 394/4/2 405/4/2
f 405/4/2 394/4/2 406/4/2
f 395/4/2 396/4/2 407/4/2
f 407/4/2 396/4/2 408/4/2
f 409/2/2 410/2/2 411/2/2
f 411/2/2 410/2/2 412/2/2
f 411/4/2 412/4/2 413/4/2
f 412/2/2 410/2/2 414/2/2
f 413/4/2 412/4/2 414/4/2
f 413/2/2 414/2/2 416/2/2
f 414/2/2 410/2/2 417/2/2
f 416/2/2 414/2/2 417/2/2
f 415/7/2 416/7/2 419/7/2
f 419/7/2 416/7/2 420/7/2
f 417/7/2 418/7/2 423/7/2
f 423/7/2 418/7/2 424/7/2
f 421/7/2 422/7/2 425/7/2
f 425/7/2 422/7/2 426/7/2
f 425/11/2 426/11/2 427/11/2
f 427/11/2 426/11/2 428/11/2
f 427/7/2 428/7/2 429/7/2
f 429/7/2 428/7/2 430/7/2
f 431/4/2 432/4/2 437/4/2
f 437/4/2 432/4/2 438/4/2
f 433/4/2 434/4/2 439/4/2
f 439/4/2 434/4/2 440/4/2
f 435/4/2 436/4/2 441/4/2
f 441/4/2 436/4/2 442/4/2
f 443/7/2 444/7/2 445/7/2
f 445/7/2 444/7/2 446/7/2
f 447/4/2 448/4/2 459/4/2
f 459/4/2 448/4/2 460/4/2
f 449/4/2 450/4/2 461/4/2
f 461/4/2 450/4/2 462/4/2
f 451/4/2 452/4/2 463/4/2
f 463/4/2 452/4/2 464/4/2
f 453/4/2 454/4/2 465/4/2
f 465/4/2 454/4/2 466/4/2
f 455/4/2 456/4/2 467/4/2
f 467/4/2 456/4/2 468/4/2
f 457/4/2 458/4/2 469/4/2
f 469/4/2 458/4/2 470/4/2
f 471/4/2 472/4/2 477/4/2
f 477/4/2 472/4/2 478/4/2
f 473/4/2 474/4/2 479/4/2
f 479/4/2 474/4/2 480/4/2
f 475/4/2 476/4/2 481/4/2
f 481/4/2 476/4/2 482/4/2
f 483/2/2 484/2/2 485/2/2
f 485/2/2 484/2/2 486/2/2
f 487/2/2 488/2/2 489/2/2
f 489/2/2 488/2/2 490/2/2
f 491/6/2 492/6/2 493/6/2
f 493/6/2 492/6/2 494/6/2
f 495/6/2 496/6/2 499/6/2
f 499/6/2 496/6/2 500/6/2
f 497/8/2 498/8/2 501/8/2
f 501/8/2 498/8/2 502/8/2
f 503/2/2 504/2/2 505/2/2
f 505/2/2 504/2/2 506/2/2
f 507/8/2 508/8/2 509/8/2
f 509/8/2 508/8/2 510/8/2
f 511/8/2 512/8/2 513/8/2
f 513/8/2 512/8/2 514/8/2
f 515/8/2 516/8/2 517/8/2
f 517/8/2 516/8/2 518/8/2
f 519/4/2 520/4/2 531/4/2
f 531/4/2 520/4/2 532/4/2
f 521/4/2 522/4/2 535/4/2
f 535/4/2 522/4/2 536/4/2
f 523/4/2 524/4/2 537/4/2
f 537/4/2 524/4/2 538/4/2
f 525/4/2 526/4/2 539/4/2
f 539/4/2 526/4/2 540/4/2
f 527/4/2 528/4/2 541/4/2
f 541/4/2 528/4/2 542/4/2
f 533/2/2 534/2/2 543/2/2
f 543/2/2 534/2/2 544/2/2
f 529/4/2 530/4/2 545/4/2
f 545/4/2 530/4/2 546/4/2
f 545/7/2 546/7/2 547/7/2
f 547/7/2 546/7/2 548/7/2
f 549/4/2 550/4/2 551/4/2
f 551/4/2 550/4/2 552/4/2
f 547/4/2 548/4/2 553/4/2
f 553/4/2 548/4/2 554/4/2
f 555/4/2 556/4/2 561/4/2
f 561/4/2 556/4/2 562/4/2
f 562/4/2 556/4/2 563/4/2
f 563/4/2 556/4/2 564/4/2
f 564/4/2 556/4/2 565/4/2
f 565/4/2 556/4/2 566/4/2
f 557/4/2 558/4/2 567/4/2
f 567/4/2 558/4/2 568/4/2
f 559/4/2 560/4/2 569/4/2
f 569/4/2 560/4/2 570/4/2
f 562/11/2 563/11/2 571/11/2
f 571/11/2 563/11/2 572/11/2
f 564/11/2 565/11/2 573/11/2
f 573/11/2 565/11/2 574/11/2
f 570/4/2 560/4/2 575/4/2
f 575/4/2 560/4/2 576/4/2
f 570/4/2 575/4/2 577/4/2
f 575/7/2 576/7/2 577/7/2
f 576/4/2 560/4/2 578/4/2
f 577/7/2 576/7/2 578/7/2
f 570/4/2 577/4/2 579/4/2
f 577/4/2 578/4/2 579/4/2
f 578/4/2 560/4/2 580/4/2
f 579/4/2 578/4/2 580/4/2
f 580/4/2 560/4/2 581/4/2
f 581/4/2 560/4/2 582/4/2
f 587/7/3 586/7/3 585/7/3
f 591/7/3 587/7/3 585/7/3
f 592/11/3 588/11/3 587/11/3
f 592/7/3 587/7/3 591/7/3
f 593/11/3 588/11/3 592/11/3
f 595/1/3 590/1/3 589/1/3
f 596/1/3 590/1/3 595/1/3
f 597/11/3 592/11/3 591/11/3
f 598/8/3 593/8/3 592/8/3
f 598/11/3 592/11/3 597/11/3
f 599/11/3 594/11/3 593/11/3
f 599/8/3 593/8/3 598/8/3
f 600/11/3 594/11/3 599/11/3
f 601/7/3 598/7/3 597/7/3
f 601/11/3 599/11/3 598/11/3
f 602/11/3 599/11/3 601/11/3
f 603/4/3 584/4/3 583/4/3
f 604/4/3 584/4/3 603/4/3
f 605/7/3 601/7/3 597/7/3
f 606/7/3 601/7/3 605/7/3
f 609/4/3 608/4/3 607/4/3
f 610/4/3 608/4/3 609/4/3
f 613/4/3 612/4/3 611/4/3
f 614/4/3 612/4/3 613/4/3
f 619/4/3 616/4/3 615/4/3
f 620/4/3 616/4/3 619/4/3
f 624/7/3 618/7/3 617/7/3
f 625/7/3 618/7/3 624/7/3
f 630/4/3 623/4/3 622/4/3
f 630/2/3 622/2/3 621/2/3
f 631/2/3 624/2/3 623/2/3
f 631/4/3 623/4/3 630/4/3
f 632/2/3 624/2/3 631/2/3
f 633/2/3 624/2/3 632/2/3
f 634/2/3 631/2/3 630/2/3
f 634/2/3 632/2/3 631/2/3
f 634/12/3 633/12/3 632/12/3
f 635/2/3 624/2/3 633/2/3
f 635/12/3 633/12/3 634/12/3
f 636/7/3 627/7/3 626/7/3
f 637/11/3 628/11/3 627/11/3
f 637/7/3 627/7/3 636/7/3
f 638/7/3 629/7/3 628/7/3
f 638/11/3 628/11/3 637/11/3
f 639/2/3 634/2/3 630/2/3
f 639/2/3 635/2/3 634/2/3
f 640/2/3 635/2/3 639/2/3
f 641/2/3 624/2/3 635/2/3
f 641/2/3 635/2/3 640/2/3
f 642/7/3 629/7/3 638/7/3
f 643/7/3 629/7/3 642/7/3
f 644/2/3 639/2/3 630/2/3
f 645/2/3 641/2/3 640/2/3
f 646/2/3 641/2/3 645/2/3
f 649/2/3 645/2/3 644/2/3
f 649/2/3 646/2/3 645/2/3
f 650/2/3 646/2/3 649/2/3
f 653/7/3 648/7/3 647/7/3
f 654/2/3 644/2/3 630/2/3
f 654/2/3 630/2/3 621/2/3
f 654/2/3 649/2/3 644/2/3
f 655/2/3 649/2/3 654/2/3
f 656/12/3 650/12/3 649/12/3
f 656/2/3 649/2/3 655/2/3
f 657/2/3 646/2/3 650/2/3
f 657/12/3 650/12/3 656/12/3
f 658/7/3 652/7/3 651/7/3
f 659/11/3 653/11/3 652/11/3
f 659/7/3 652/7/3 658/7/3
f 660/7/3 648/7/3 653/7/3
f 660/11/3 653/11/3 659/11/3
f 661/7/3 648/7/3 660/7/3
f 664/2/3 654/2/3 621/2/3
f 665/4/3 655/4/3 654/4/3
f 665/2/3 654/2/3 664/2/3
f 666/2/3 656/2/3 655/2/3
f 666/4/3 655/4/3 665/4/3
f 666/2/3 657/2/3 656/2/3
f 667/2/3 646/2/3 657/2/3
f 667/2/3 657/2/3 666/2/3
f 669/4/3 663/4/3 662/4/3
f 670/4/3 663/4/3 669/4/3
f 671/7/3 668/7/3 667/7/3
f 672/7/3 668/7/3 671/7/3
f 675/4/3 674/4/3 673/4/3
f 676/4/3 674/4/3 675/4/3
f 679/4/3 678/4/3 677/4/3
f 680/4/3 678/4/3 679/4/3
f 683/4/3 682/4/3 681/4/3
f 684/4/3 682/4/3 683/4/3
f 687/4/3 686/4/3 685/4/3
f 688/4/3 686/4/3 687/4/3
f 695/7/3 690/7/3 689/7/3
f 696/11/3 691/11/3 690/11/3
f 696/7/3 690/7/3 695/7/3
f 697/7/3 692/7/3 691/7/3
f 697/11/3 691/11/3 696/11/3
f 698/7/3 692/7/3 697/7/3
f 699/2/3 694/2/3 693/2/3
f 700/2/3 694/2/3 699/2/3
f 703/2/3 702/2/3 701/2/3
f 704/2/3 702/2/3 703/2/3
f 709/7/3 706/7/3 705/7/3
f 710/11/3 707/11/3 706/11/3
f 710/7/3 706/7/3 709/7/3
f 711/7/3 708/7/3 707/7/3
f 711/11/3 707/11/3 710/11/3
f 712/7/3 708/7/3 711/7/3
f 715/11/3 714/11/3 713/11/3
f 716/11/3 714/11/3 715/11/3
f 719/2/3 718/2/3 717/2/3
f 720/2/3 718/2/3 719/2/3
f 723/2/3 722/2/3 721/2/3
f 724/2/3 722/2/3 723/2/3
f 727/11/3 726/11/3 725/11/3
f 728/11/3 726/11/3 727/11/3
f 731/11/3 730/11/3 729/11/3
f 732/11/3 730/11/3 731/11/3
f 735/11/3 734/11/3 733/11/3
f 736/11/3 734/11/3 735/11/3
f 739/11/3 738/11/3 737/11/3
f 740/11/3 738/11/3 739/11/3
f 743/11/3 742/11/3 741/11/3
f 744/11/3 742/11/3 743/11/3
f 747/4/3 746/4/3 745/4/3
f 748/4/3 746/4/3 747/4/3
f 751/4/3 750/4/3 749/4/3
f 752/4/3 750/4/3 751/4/3
f 755/4/3 754/4/3 753/4/3
f 756/4/3 754/4/3 755/4/3
f 759/4/3 758/4/3 757/4/3
f 760/4/3 758/4/3 759/4/3
f 763/4/3 762/4/3 761/4/3
f 764/4/3 762/4/3 763/4/3
f 767/4/3 766/4/3 765/4/3
f 768/4/3 766/4/3 767/4/3
f 771/4/3 770/4/3 769/4/3
f 772/4/3 770/4/3 771/4/3
f 775/4/3 774/4/3 773/4/3
f 776/4/3 774/4/3 775/4/3
f 779/4/3 778/4/3 777/4/3
f 780/4/3 778/4/3 779/4/3
f 783/4/3 782/4/3 781/4/3
f 784/4/3 782/4/3 783/4/3
f 787/4/3 786/4/3 785/4/3
f 788/4/3 786/4/3 787/4/3
f 791/4/3 790/4/3 789/4/3
f 792/4/3 790/4/3 791/4/3
f 795/4/3 794/4/3 793/4/3
f 796/4/3 794/4/3 795/4/3
f 799/4/3 798/4/3 797/4/3
f 800/4/3 798/4/3 799/4/3
f 803/4/3 802/4/3 801/4/3
f 804/4/3 802/4/3 803/4/3
f 807/4/3 806/4/3 805/4/3
f 808/4/3 806/4/3 807/4/3
f 811/4/3 810/4/3 809/4/3
f 812/4/3 810/4/3 811/4/3
f 815/4/3 814/4/3 813/4/3
f 816/4/3 814/4/3 815/4/3
f 819/2/3 818/2/3 817/2/3
f 820/2/3 818/2/3 819/2/3
f 824/4/3 822/4/3 821/4/3
f 824/7/3 823/7/3 822/7/3
f 825/7/3 823/7/3 824/7/3
f 827/4/3 825/4/3 824/4/3
f 827/7/3 826/7/3 825/7/3
f 828/7/3 826/7/3 827/7/3
f 829/4/3 828/4/3 827/4/3
f 831/4/3 824/4/3 821/4/3
f 831/4/3 830/4/3 829/4/3
f 831/4/3 829/4/3 827/4/3
f 831/4/3 827/4/3 824/4/3
f 832/4/3 830/4/3 831/4/3
f 833/4/3 831/4/3 821/4/3
f 833/7/3 832/7/3 831/7/3
f 834/4/3 830/4/3 832/4/3
f 834/7/3 832/7/3 833/7/3
f 835/4/3 830/4/3 834/4/3
f 836/4/3 830/4/3 835/4/3
f 837/4/3 834/4/3 833/4/3
f 837/4/3 835/4/3 834/4/3
f 837/7/3 836/7/3 835/7/3
f 838/4/3 830/4/3 836/4/3
f 838/7/3 836/7/3 837/7/3
f 839/4/3 838/4/3 837/4/3
f 839/4/3 830/4/3 838/4/3
f 840/4/3 830/4/3 839/4/3
f 841/4/3 833/4/3 821/4/3
f 841/4/3 837/4/3 833/4/3
f 841/4/3 839/4/3 837/4/3
f 842/4/3 839/4/3 841/4/3
f 845/2/3 844/2/3 843/2/3
f 846/2/3 844/2/3 845/2/3
f 849/7/3 848/7/3 847/7/3
f 850/7/3 848/7/3 849/7/3
f 853/4/3 852/4/3 851/4/3
f 854/4/3 852/4/3 853/4/3
f 857/2/3 856/2/3 855/2/3
f 858/2/3 856/2/3 857/2/3
f 861/6/3 860/6/3 859/6/3
f 862/6/3 860/6/3 861/6/3
f 865/8/3 864/8/3 863/8/3
f 866/8/3 864/8/3 865/8/3
f 869/2/3 868/2/3 867/2/3
f 870/2/3 868/2/3 869/2/3
f 873/6/3 872/6/3 871/6/3
f 874/6/3 872/6/3 873/6/3
f 877/2/3 876/2/3 875/2/3
f 878/2/3 876/2/3 877/2/3
f 879/2/3 877/2/3 875/2/3
f 880/2/3 877/2/3 879/2/3
f 883/6/3 882/6/3 881/6/3
f 884/6/3 882/6/3 883/6/3
f 885/8/3 884/8/3 883/8/3
f 886/8/3 884/8/3 885/8/3
f 889/4/3 888/4/3 887/4/3
f 890/4/3 888/4/3 889/4/3
f 893/2/3 892/2/3 891/2/3
f 896/2/3 893/2/3 891/2/3
f 896/2/3 894/2/3 893/2/3
f 897/2/3 894/2/3 896/2/3
f 898/2/3 896/2/3 895/2/3
f 899/2/3 896/2/3 898/2/3
f 902/2/3 901/2/3 900/2/3
f 903/2/3 901/2/3 902/2/3
f 904/2/3 902/2/3 900/2/3
f 905/2/3 902/2/3 904/2/3
f 908/8/3 907/8/3 906/8/3
f 909/8/3 907/8/3 908/8/3
f 910/11/4 911/11/4 912/11/4
f 912/11/4 911/11/4 913/11/4
f 914/11/4 915/11/4 916/11/4
f 916/11/4 915/11/4 917/11/4
f 918/11/4 919/11/4 920/11/4
f 920/11/4 919/11/4 921/11/4
f 922/11/4 923/11/4 924/11/4
f 924/11/4 923/11/4 925/11/4
f 926/11/4 927/11/4 928/11/4
f 928/11/4 927/11/4 929/11/4
f 930/2/4 931/2/4 932/2/4
f 932/2/4 931/2/4 933/2/4
f 934/2/4 935/2/4 936/2/4
f 936/2/4 935/2/4 937/2/4
f 938/11/4 939/11/4 940/11/4
f 940/11/4 939/11/4 941/11/4
f 942/7/4 943/7/4 946/7/4
f 943/11/4 944/11/4 947/11/4
f 946/7/4 943/7/4 947/7/4
f 944/7/4 945/7/4 948/7/4
f 947/11/4 944/11/4 948/11/4
f 948/7/4 945/7/4 949/7/4
f 950/7/4 951/7/4 954/7/4
f 951/11/4 952/11/4 955/11/4
f 954/7/4 951/7/4 955/7/4
f 952/7/4 953/7/4 956/7/4
f 955/11/4 952/11/4 956/11/4
f 956/7/4 953/7/4 957/7/4
f 958/4/4 959/4/4 962/4/4
f 962/4/4 959/4/4 963/4/4
f 960/7/4 961/7/4 965/7/4
f 965/7/4 961/7/4 966/7/4
f 964/2/4 965/2/4 968/2/4
f 967/2/4 968/2/4 973/2/4
f 968/2/4 965/2/4 974/2/4
f 973/2/4 968/2/4 974/2/4
f 974/2/4 965/2/4 975/2/4
f 975/2/4 965/2/4 976/2/4
f 974/2/4 975/2/4 977/2/4
f 976/2/4 965/2/4 978/2/4
f 974/2/4 977/2/4 980/2/4
f 977/2/4 978/2/4 980/2/4
f 979/2/4 980/2/4 981/2/4
f 980/2/4 978/2/4 982/2/4
f 981/2/4 980/2/4 982/2/4
f 969/7/4 970/7/4 983/7/4
f 970/11/4 971/11/4 984/11/4
f 983/7/4 970/7/4 984/7/4
f 971/7/4 972/7/4 985/7/4
f 984/11/4 971/11/4 985/11/4
f 985/7/4 972/7/4 986/7/4
f 982/2/4 978/2/4 989/2/4
f 978/2/4 965/2/4 990/2/4
f 989/2/4 978/2/4 990/2/4
f 987/4/4 988/4/4 992/4/4
f 992/4/4 988/4/4 993/4/4
f 990/7/4 991/7/4 994/7/4
f 994/7/4 991/7/4 995/7/4
f 996/4/4 997/4/4 998/4/4
f 998/4/4 997/4/4 999/4/4
f 1000/4/4 1001/4/4 1002/4/4
f 1002/4/4 1001/4/4 1003/4/4
f 1004/4/4 1005/4/4 1006/4/4
f 1006/4/4 1005/4/4 1007/4/4
f 1008/4/4 1009/4/4 1010/4/4
f 1010/4/4 1009/4/4 1011/4/4
f 1016/4/4 1017/4/4 1018/4/4
f 1018/4/4 1017/4/4 1019/4/4
f 1012/4/4 1013/4/4 1020/4/4
f 1020/4/4 1013/4/4 1021/4/4
f 1014/7/4 1015/7/4 1022/7/4
f 1022/7/4 1015/7/4 1023/7/4
f 1024/4/4 1025/4/4 1026/4/4
f 1026/4/4 1025/4/4 1027/4/4
f 1028/4/4 1029/4/4 1030/4/4
f 1030/4/4 1029/4/4 1031/4/4
f 1032/4/4 1033/4/4 1034/4/4
f 1034/4/4 1033/4/4 1035/4/4
f 1036/4/4 1037/4/4 1038/4/4
f 1038/4/4 1037/4/4 1039/4/4
f 1040/4/4 1041/4/4 1042/4/4
f 1042/4/4 1041/4/4 1043/4/4
f 1044/4/4 1045/4/4 1046/4/4
f 1046/4/4 1045/4/4 1047/4/4
f 1048/4/4 1049/4/4 1050/4/4
f 1050/4/4 1049/4/4 1051/4/4
f 1052/4/4 1053/4/4 1054/4/4
f 1054/4/4 1053/4/4 1055/4/4
f 1056/4/4 1057/4/4 1058/4/4
f 1058/4/4 1057/4/4 1059/4/4
f 1060/4/4 1061/4/4 1062/4/4
f 1062/4/4 1061/4/4 1063/4/4
f 1064/4/4 1065/4/4 1066/4/4
f 1066/4/4 1065/4/4 1067/4/4
f 1068/2/4 1069/2/4 1070/2/4
f 1070/2/4 1069/2/4 1071/2/4
f 1072/2/4 1073/2/4 1074/2/4
f 1074/2/4 1073/2/4 1075/2/4
f 1076/6/4 1077/6/4 1078/6/4
f 1078/6/4 1077/6/4 1079/6/4
f 1080/2/4 1081/2/4 1082/2/4
f 1082/2/4 1081/2/4 1083/2/4
f 1084/6/4 1085/6/4 1086/6/4
f 1086/6/4 1085/6/4 1087/6/4
f 1088/8/4 1089/8/4 1090/8/4
f 1090/8/4 1089/8/4 1091/8/4
f 1092/8/4 1093/8/4 1094/8/4
f 1094/8/4 1093/8/4 1095/8/4
f 1096/2/4 1097/2/4 1098/2/4
f 1096/2/4 1098/2/4 1102/2/4
f 1098/2/4 1099/2/4 1102/2/4
f 1102/2/4 1099/2/4 1103/2/4
f 1100/2/4 1101/2/4 1104/2/4
f 1104/2/4 1101/2/4 1105/2/4
f 1106/2/4 1107/2/4 1108/2/4
f 1108/2/4 1107/2/4 1109/2/4
f 1106/2/4 1108/2/4 1110/2/4
f 1110/2/4 1108/2/4 1111/2/4
f 1112/8/4 1113/8/4 1114/8/4
f 1114/8/4 1113/8/4 1115/8/4
f 1116/4/4 1117/4/4 1118/4/4
f 1118/4/4 1117/4/4 1119/4/4
f 1119/2/4 1120/2/4 1121/2/4
f 1121/2/4 1120/2/4 1122/2/4
f 1119/2/4 1121/2/4 1123/2/4
f 1123/2/4 1121/2/4 1124/2/4
f 1125/4/4 1126/4/4 1127/4/4
f 1127/4/4 1126/4/4 1128/4/4
f 1129/4/4 1130/4/4 1131/4/4
f 1131/4/4 1130/4/4 1132/4/4
f 1133/4/4 1134/4/4 1135/4/4
f 1135/4/4 1134/4/4 1136/4/4
f 1137/4/4 1138/4/4 1139/4/4
f 1139/4/4 1138/4/4 1140/4/4
f 1141/4/4 1142/4/4 1143/4/4
f 1141/4/4 1143/4/4 1145/4/4
f 1143/4/4 1144/4/4 1145/4/4
f 1145/4/4 1144/4/4 1146/4/4
f 1146/8/4 1147/8/4 1148/8/4
f 1148/8/4 1147/8/4 1149/8/4
f 1150/4/4 1151/4/4 1154/4/4
f 1152/4/4 1153/4/4 1154/4/4
f 1151/4/4 1152/4/4 1154/4/4
f 1154/4/4 1153/4/4 1155/4/4
f 1156/4/4 1157/4/4 1158/4/4
f 1158/4/4 1157/4/4 1159/4/4
f 1160/4/4 1161/4/4 1162/4/4
f 1162/4/4 1161/4/4 1163/4/4
f 1164/4/4 1165/4/4 1166/4/4
f 1166/4/4 1167/4/4 1168/4/4
f 1166/4/4 1168/4/4 1170/4/4
f 1168/4/4 1169/4/4 1170/4/4
f 1170/4/4 1169/4/4 1171/4/4
f 1166/4/4 1170/4/4 1172/4/4
f 1170/7/4 1171/7/4 1172/7/4
f 1171/4/4 1169/4/4 1173/4/4
f 1172/7/4 1171/7/4 1173/7/4
f 1166/4/4 1172/4/4 1174/4/4
f 1172/4/4 1173/4/4 1174/4/4
f 1174/4/4 1173/4/4 1175/4/4
f 1164/4/4 1166/4/4 1176/4/4
f 1166/4/4 1174/4/4 1176/4/4
f 1174/7/4 1175/7/4 1177/7/4
f 1176/4/4 1174/4/4 1177/4/4
f 1175/4/4 1173/4/4 1178/4/4
f 1177/7/4 1175/7/4 1178/7/4
f 1173/4/4 1169/4/4 1179/4/4
f 1178/4/4 1173/4/4 1179/4/4
f 1187/4/5 1181/4/5 1180/4/5
f 1188/4/5 1181/4/5 1187/4/5
f 1191/4/5 1183/4/5 1182/4/5
f 1192/4/5 1183/4/5 1191/4/5
f 1195/4/5 1185/4/5 1184/4/5
f 1196/4/5 1185/4/5 1195/4/5
f 1198/4/5 1189/4/5 1188/4/5
f 1198/4/5 1187/4/5 1186/4/5
f 1198/4/5 1188/4/5 1187/4/5
f 1199/4/5 1189/4/5 1198/4/5
f 1200/4/5 1189/4/5 1199/4/5
f 1201/4/5 1189/4/5 1200/4/5
f 1202/4/5 1193/4/5 1192/4/5
f 1202/4/5 1191/4/5 1190/4/5
f 1202/4/5 1192/4/5 1191/4/5
f 1203/4/5 1193/4/5 1202/4/5
f 1204/4/5 1193/4/5 1203/4/5
f 1205/4/5 1193/4/5 1204/4/5
f 1206/4/5 1197/4/5 1196/4/5
f 1206/4/5 1196/4/5 1195/4/5
f 1206/4/5 1195/4/5 1194/4/5
f 1207/4/5 1197/4/5 1206/4/5
f 1208/4/5 1197/4/5 1207/4/5
f 1209/4/5 1197/4/5 1208/4/5
f 1210/4/5 1200/4/5 1199/4/5
f 1211/4/5 1200/4/5 1210/4/5
f 1212/4/5 1204/4/5 1203/4/5
f 1213/4/5 1204/4/5 1212/4/5
f 1214/4/5 1208/4/5 1207/4/5
f 1215/4/5 1208/4/5 1214/4/5
f 1223/4/5 1217/4/5 1216/4/5
f 1224/4/5 1217/4/5 1223/4/5
f 1227/4/5 1219/4/5 1218/4/5
f 1228/4/5 1219/4/5 1227/4/5
f 1231/4/5 1221/4/5 1220/4/5
f 1232/4/5 1221/4/5 1231/4/5
f 1234/4/5 1225/4/5 1224/4/5
f 1234/4/5 1223/4/5 1222/4/5
f 1234/4/5 1224/4/5 1223/4/5
f 1235/4/5 1225/4/5 1234/4/5
f 1236/4/5 1225/4/5 1235/4/5
f 1237/4/5 1225/4/5 1236/4/5
f 1238/4/5 1229/4/5 1228/4/5
f 1238/4/5 1227/4/5 1226/4/5
f 1238/4/5 1228/4/5 1227/4/5
f 1239/4/5 1229/4/5 1238/4/5
f 1240/4/5 1229/4/5 1239/4/5
f 1241/4/5 1229/4/5 1240/4/5
f 1242/4/5 1232/4/5 1231/4/5
f 1242/4/5 1233/4/5 1232/4/5
f 1242/4/5 1231/4/5 1230/4/5
f 1243/4/5 1233/4/5 1242/4/5
f 1244/4/5 1233/4/5 1243/4/5
f 1245/4/5 1233/4/5 1244/4/5
f 1246/4/5 1236/4/5 1235/4/5
f 1247/4/5 1236/4/5 1246/4/5
f 1248/4/5 1240/4/5 1239/4/5
f 1249/4/5 1240/4/5 1248/4/5
f 1250/4/5 1244/4/5 1243/4/5
f 1251/4/5 1244/4/5 1250/4/5
f 1259/4/5 1253/4/5 1252/4/5
f 1260/4/5 1253/4/5 1259/4/5
f 1263/4/5 1255/4/5 1254/4/5
f 1264/4/5 1255/4/5 1263/4/5
f 1267/4/5 1257/4/5 1256/4/5
f 1268/4/5 1257/4/5 1267/4/5
f 1270/4/5 1261/4/5 1260/4/5
f 1270/4/5 1259/4/5 1258/4/5
f 1270/4/5 1260/4/5 1259/4/5
f 1271/4/5 1261/4/5 1270/4/5
f 1272/4/5 1261/4/5 1271/4/5
f 1273/4/5 1261/4/5 1272/4/5
f 1274/4/5 1265/4/5 1264/4/5
f 1274/4/5 1263/4/5 1262/4/5
f 1274/4/5 1264/4/5 1263/4/5
f 1275/4/5 1265/4/5 1274/4/5
f 1276/4/5 1265/4/5 1275/4/5
f 1277/4/5 1265/4/5 1276/4/5
f 1278/4/5 1268/4/5 1267/4/5
f 1278/4/5 1269/4/5 1268/4/5
f 1278/4/5 1267/4/5 1266/4/5
f 1279/4/5 1269/4/5 1278/4/5
f 1280/4/5 1269/4/5 1279/4/5
f 1281/4/5 1269/4/5 1280/4/5
f 1282/4/5 1272/4/5 1271/4/5
f 1283/4/5 1272/4/5 1282/4/5
f 1284/4/5 1276/4/5 1275/4/5
f 1285/4/5 1276/4/5 1284/4/5
f 1286/4/5 1280/4/5 1279/4/5
f 1287/4/5 1280/4/5 1286/4/5
f 1290/2/5 1289/2/5 1288/2/5
f 1291/2/5 1289/2/5 1290/2/5
f 1292/2/5 1289/2/5 1291/2/5
f 1293/2/5 1289/2/5 1292/2/5
f 1294/2/5 1290/2/5 1288/2/5
f 1295/2/5 1292/2/5 1291/2/5
f 1296/2/5 1292/2/5 1295/2/5
f 1297/2/5 1289/2/5 1293/2/5
f 1298/2/5 1296/2/5 1295/2/5
f 1298/2/5 1297/2/5 1296/2/5
f 1298/2/5 1294/2/5 1288/2/5
f 1298/2/5 1295/2/5 1294/2/5
f 1299/2/5 1297/2/5 1298/2/5
f 1300/2/5 1297/2/5 1299/2/5
f 1301/2/5 1289/2/5 1297/2/5
f 1301/2/5 1297/2/5 1300/2/5
f 1302/2/5 1298/2/5 1288/2/5
f 1303/2/5 1298/2/5 1302/2/5
f 1304/2/5 1300/2/5 1299/2/5
f 1305/2/5 1300/2/5 1304/2/5
f 1306/2/5 1289/2/5 1301/2/5
f 1307/2/5 1289/2/5 1306/2/5
f 1310/4/5 1309/4/5 1308/4/5
f 1311/4/5 1309/4/5 1310/4/5
f 1314/1/5 1313/1/5 1312/1/5
f 1315/1/5 1313/1/5 1314/1/5
f 1321/7/5 1317/7/5 1316/7/5
f 1322/11/5 1318/11/5 1317/11/5
f 1322/7/5 1317/7/5 1321/7/5
f 1323/7/5 1319/7/5 1318/7/5
f 1323/11/5 1318/11/5 1322/11/5
f 1324/7/5 1319/7/5 1323/7/5
f 1326/7/5 1321/7/5 1320/7/5
f 1327/7/5 1321/7/5 1326/7/5
f 1328/7/5 1325/7/5 1324/7/5
f 1329/7/5 1325/7/5 1328/7/5
f 1330/7/5 1328/7/5 1327/7/5
f 1331/7/5 1328/7/5 1330/7/5
f 1332/4/6 1333/4/6 1339/4/6
f 1339/4/6 1333/4/6 1340/4/6
f 1334/4/6 1335/4/6 1343/4/6
f 1343/4/6 1335/4/6 1344/4/6
f 1336/4/6 1337/4/6 1347/4/6
f 1347/4/6 1337/4/6 1348/4/6
f 1340/4/6 1341/4/6 1350/4/6
f 1338/4/6 1339/4/6 1350/4/6
f 1339/4/6 1340/4/6 1350/4/6
f 1350/4/6 1341/4/6 1351/4/6
f 1351/4/6 1341/4/6 1352/4/6
f 1352/4/6 1341/4/6 1353/4/6
f 1348/4/6 1349/4/6 1354/4/6
f 1347/4/6 1348/4/6 1354/4/6
f 1346/4/6 1347/4/6 1354/4/6
f 1354/4/6 1349/4/6 1355/4/6
f 1338/4/6 1350/4/6 1366/4/6
f 1351/4/6 1352/4/6 1367/4/6
f 1367/4/6 1352/4/6 1368/4/6
f 1353/4/6 1341/4/6 1369/4/6
f 1367/4/6 1368/4/6 1370/4/6
f 1368/4/6 1369/4/6 1370/4/6
f 1338/4/6 1366/4/6 1370/4/6
f 1366/4/6 1367/4/6 1370/4/6
f 1370/4/6 1369/4/6 1371/4/6
f 1371/4/6 1369/4/6 1372/4/6
f 1369/4/6 1341/4/6 1373/4/6
f 1372/4/6 1369/4/6 1373/4/6
f 1356/4/6 1357/4/6 1374/4/6
f 1374/4/6 1357/4/6 1375/4/6
f 1358/4/6 1359/4/6 1376/4/6
f 1376/4/6 1359/4/6 1377/4/6
f 1360/4/6 1361/4/6 1378/4/6
f 1378/4/6 1361/4/6 1379/4/6
f 1362/4/6 1363/4/6 1380/4/6
f 1380/4/6 1363/4/6 1381/4/6
f 1364/4/6 1365/4/6 1382/4/6
f 1382/4/6 1365/4/6 1383/4/6
f 1338/4/6 1370/4/6 1386/4/6
f 1386/4/6 1370/4/6 1387/4/6
f 1387/4/6 1370/4/6 1388/4/6
f 1371/4/6 1372/4/6 1389/4/6
f 1389/4/6 1372/4/6 1390/4/6
f 1373/4/6 1341/4/6 1391/4/6
f 1391/4/6 1341/4/6 1392/4/6
f 1392/4/6 1341/4/6 1393/4/6
f 1344/4/6 1345/4/6 1394/4/6
f 1342/4/6 1343/4/6 1394/4/6
f 1343/4/6 1344/4/6 1394/4/6
f 1394/4/6 1345/4/6 1395/4/6
f 1395/4/6 1345/4/6 1396/4/6
f 1396/4/6 1345/4/6 1397/4/6
f 1384/4/6 1385/4/6 1398/4/6
f 1398/4/6 1385/4/6 1399/4/6
f 1399/4/6 1385/4/6 1400/4/6
f 1400/4/6 1385/4/6 1401/4/6
f 1387/4/6 1388/4/6 1402/4/6
f 1391/4/6 1392/4/6 1402/4/6
f 1390/4/6 1391/4/6 1402/4/6
f 1389/4/6 1390/4/6 1402/4/6
f 1388/4/6 1389/4/6 1402/4/6
f 1402/4/6 1392/4/6 1403/4/6
f 1395/4/6 1396/4/6 1404/4/6
f 1404/4/6 1396/4/6 1405/4/6
f 1399/4/6 1400/4/6 1406/4/6
f 1406/4/6 1400/4/6 1407/4/6
f 1408/4/6 1409/4/6 1415/4/6
f 1415/4/6 1409/4/6 1416/4/6
f 1410/4/6 1411/4/6 1419/4/6
f 1419/4/6 1411/4/6 1420/4/6
f 1412/4/6 1413/4/6 1423/4/6
f 1423/4/6 1413/4/6 1424/4/6
f 1416/4/6 1417/4/6 1426/4/6
f 1414/4/6 1415/4/6 1426/4/6
f 1415/4/6 1416/4/6 1426/4/6
f 1426/4/6 1417/4/6 1427/4/6
f 1427/4/6 1417/4/6 1428/4/6
f 1428/4/6 1417/4/6 1429/4/6
f 1420/4/6 1421/4/6 1430/4/6
f 1418/4/6 1419/4/6 1430/4/6
f 1419/4/6 1420/4/6 1430/4/6
f 1430/4/6 1421/4/6 1431/4/6
f 1431/4/6 1421/4/6 1432/4/6
f 1432/4/6 1421/4/6 1433/4/6
f 1423/4/6 1424/4/6 1434/4/6
f 1424/4/6 1425/4/6 1434/4/6
f 1422/4/6 1423/4/6 1434/4/6
f 1434/4/6 1425/4/6 1435/4/6
f 1435/4/6 1425/4/6 1436/4/6
f 1436/4/6 1425/4/6 1437/4/6
f 1427/4/6 1428/4/6 1438/4/6
f 1438/4/6 1428/4/6 1439/4/6
f 1431/4/6 1432/4/6 1440/4/6
f 1440/4/6 1432/4/6 1441/4/6
f 1435/4/6 1436/4/6 1442/4/6
f 1442/4/6 1436/4/6 1443/4/6
f 1444/4/6 1445/4/6 1451/4/6
f 1451/4/6 1445/4/6 1452/4/6
f 1446/4/6 1447/4/6 1455/4/6
f 1455/4/6 1447/4/6 1456/4/6
f 1448/4/6 1449/4/6 1459/4/6
f 1459/4/6 1449/4/6 1460/4/6
f 1452/4/6 1453/4/6 1462/4/6
f 1450/4/6 1451/4/6 1462/4/6
f 1451/4/6 1452/4/6 1462/4/6
f 1462/4/6 1453/4/6 1463/4/6
f 1450/4/6 1462/4/6 1464/4/6
f 1463/4/6 1453/4/6 1465/4/6
f 1459/4/6 1460/4/6 1466/4/6
f 1460/4/6 1461/4/6 1466/4/6
f 1458/4/6 1459/4/6 1466/4/6
f 1466/4/6 1461/4/6 1467/4/6
f 1464/4/6 1465/4/6 1468/4/6
f 1450/4/6 1464/4/6 1468/4/6
f 1468/4/6 1465/4/6 1469/4/6
f 1450/4/6 1468/4/6 1470/4/6
f 1469/4/6 1465/4/6 1471/4/6
f 1465/4/6 1453/4/6 1472/4/6
f 1471/4/6 1465/4/6 1472/4/6
f 1472/4/6 1453/4/6 1473/4/6
f 1470/4/6 1471/4/6 1474/4/6
f 1450/4/6 1470/4/6 1474/4/6
f 1471/4/6 1472/4/6 1474/4/6
f 1474/4/6 1472/4/6 1475/4/6
f 1475/4/6 1472/4/6 1476/4/6
f 1473/4/6 1453/4/6 1477/4/6
f 1475/4/6 1476/4/6 1478/4/6
f 1476/4/6 1477/4/6 1478/4/6
f 1477/4/6 1453/4/6 1479/4/6
f 1478/4/6 1477/4/6 1479/4/6
f 1475/4/6 1478/4/6 1480/4/6
f 1479/4/6 1453/4/6 1481/4/6
f 1450/4/6 1474/4/6 1482/4/6
f 1482/4/6 1474/4/6 1483/4/6
f 1475/4/6 1480/4/6 1484/4/6
f 1480/4/6 1481/4/6 1484/4/6
f 1481/4/6 1453/4/6 1485/4/6
f 1484/4/6 1481/4/6 1485/4/6
f 1485/4/6 1453/4/6 1486/4/6
f 1456/4/6 1457/4/6 1487/4/6
f 1454/4/6 1455/4/6 1487/4/6
f 1455/4/6 1456/4/6 1487/4/6
f 1487/4/6 1457/4/6 1488/4/6
f 1488/4/6 1457/4/6 1489/4/6
f 1489/4/6 1457/4/6 1490/4/6
f 1458/4/6 1466/4/6 1491/4/6
f 1491/4/6 1466/4/6 1492/4/6
f 1484/4/6 1485/4/6 1493/4/6
f 1483/4/6 1484/4/6 1493/4/6
f 1493/4/6 1485/4/6 1494/4/6
f 1488/4/6 1489/4/6 1495/4/6
f 1495/4/6 1489/4/6 1496/4/6
f 1492/4/6 1466/4/6 1497/4/6
f 1497/4/6 1466/4/6 1498/4/6
f 1499/11/6 1500/11/6 1501/11/6
f 1501/11/6 1500/11/6 1502/11/6
f 1502/11/6 1500/11/6 1503/11/6
f 1503/11/6 1500/11/6 1504/11/6
f 1504/11/6 1500/11/6 1505/11/6
f 1505/11/6 1500/11/6 1506/11/6
f 1506/11/6 1500/11/6 1507/11/6
f 1507/11/6 1500/11/6 1508/11/6
f 1508/11/6 1500/11/6 1509/11/6
f 1509/11/6 1500/11/6 1510/11/6
f 1502/2/6 1503/2/6 1512/2/6
f 1512/2/6 1503/2/6 1513/2/6
f 1504/2/6 1505/2/6 1514/2/6
f 1514/2/6 1505/2/6 1515/2/6
f 1506/2/6 1507/2/6 1516/2/6
f 1516/2/6 1507/2/6 1517/2/6
f 1508/2/6 1509/2/6 1518/2/6
f 1518/2/6 1509/2/6 1519/2/6
f 1514/11/6 1515/11/6 1521/11/6
f 1519/11/6 1520/11/6 1521/11/6
f 1518/11/6 1519/11/6 1521/11/6
f 1517/11/6 1518/11/6 1521/11/6
f 1516/11/6 1517/11/6 1521/11/6
f 1515/11/6 1516/11/6 1521/11/6
f 1512/11/6 1513/11/6 1521/11/6
f 1513/11/6 1514/11/6 1521/11/6
f 1511/11/6 1512/11/6 1521/11/6
f 1521/11/6 1520/11/6 1522/11/6
f 1523/2/6 1524/2/6 1525/2/6
f 1525/2/6 1524/2/6 1526/2/6
f 1527/2/6 1528/2/6 1529/2/6
f 1529/2/6 1528/2/6 1530/2/6
f 1531/2/6 1532/2/6 1535/2/6
f 1535/2/6 1532/2/6 1536/2/6
f 1533/2/6 1534/2/6 1537/2/6
f 1537/2/6 1534/2/6 1538/2/6
f 1539/2/6 1540/2/6 1543/2/6
f 1543/2/6 1540/2/6 1544/2/6
f 1541/2/6 1542/2/6 1545/2/6
f 1545/2/6 1542/2/6 1546/2/6
f 1547/2/6 1548/2/6 1549/2/6
f 1549/2/6 1548/2/6 1550/2/6
f 1550/2/6 1551/2/6 1554/2/6
f 1554/2/6 1551/2/6 1555/2/6
f 1552/2/6 1553/2/6 1556/2/6
f 1556/2/6 1553/2/6 1557/2/6
f 1558/2/6 1559/2/6 1560/2/6
f 1560/2/6 1559/2/6 1561/2/6
f 1562/2/6 1563/2/6 1564/2/6
f 1564/2/6 1563/2/6 1565/2/6
f 1566/4/6 1567/4/6 1568/4/6
f 1568/4/6 1567/4/6 1569/4/6
f 1570/2/6 1571/2/6 1572/2/6
f 1572/2/6 1571/2/6 1573/2/6
f 1574/1/6 1575/1/6 1576/1/6
f 1576/1/6 1575/1/6 1577/1/6
f 1578/7/6 1579/7/6 1580/7/6
f 1580/7/6 1579/7/6 1581/7/6
f 1582/2/6 1583/2/6 1584/2/6
f 1584/2/6 1583/2/6 1585/2/6
f 1586/4/6 1587/4/6 1588/4/6
f 1588/4/6 1587/4/6 1589/4/6
f 1590/7/6 1591/7/6 1596/7/6
f 1591/4/6 1592/4/6 1597/4/6
f 1596/7/6 1591/7/6 1597/7/6
f 1597/4/6 1592/4/6 1598/4/6
f 1595/7/6 1596/7/6 1599/7/6
f 1596/7/6 1597/7/6 1599/7/6
f 1599/7/6 1597/7/6 1600/7/6
f 1593/4/6 1594/4/6 1601/4/6
f 1601/4/6 1594/4/6 1602/4/6
f 1599/4/6 1600/4/6 1603/4/6
f 1603/4/6 1600/4/6 1604/4/6
f 1605/7/6 1606/7/6 1610/7/6
f 1610/7/6 1606/7/6 1611/7/6
f 1611/7/6 1606/7/6 1612/7/6
f 1607/7/6 1608/7/6 1613/7/6
f 1613/7/6 1608/7/6 1614/7/6
f 1614/7/6 1608/7/6 1615/7/6
f 1609/7/6 1610/7/6 1617/7/6
f 1610/7/6 1611/7/6 1617/7/6
f 1617/7/6 1611/7/6 1618/7/6
f 1615/7/6 1616/7/6 1619/7/6
f 1614/7/6 1615/7/6 1619/7/6
f 1619/7/6 1616/7/6 1620/7/6
f 1609/7/6 1617/7/6 1621/7/6
f 1620/7/6 1616/7/6 1624/7/6
f 1621/7/6 1622/7/6 1625/7/6
f 1609/7/6 1621/7/6 1625/7/6
f 1625/7/6 1622/7/6 1626/7/6
f 1626/7/6 1622/7/6 1627/7/6
f 1623/7/6 1624/7/6 1628/7/6
f 1624/7/6 1616/7/6 1629/7/6
f 1628/7/6 1624/7/6 1629/7/6
f 1629/7/6 1616/7/6 1630/7/6
f 1626/7/6 1627/7/6 1631/7/6
f 1627/7/6 1628/7/6 1631/7/6
f 1628/7/6 1629/7/6 1631/7/6
f 1631/7/6 1629/7/6 1632/7/6
f 1633/4/6 1634/4/6 1636/4/6
f 1636/4/6 1634/4/6 1637/4/6
f 1635/4/6 1636/4/6 1637/4/6
f 1637/4/6 1634/4/6 1638/4/6
f 1638/4/6 1634/4/6 1639/4/6
f 1639/4/6 1634/4/6 1640/4/6
f 1635/4/6 1637/4/6 1641/4/6
f 1638/4/6 1639/4/6 1642/4/6
f 1642/4/6 1639/4/6 1643/4/6
f 1641/4/6 1642/4/6 1644/4/6
f 1643/4/6 1639/4/6 1645/4/6
f 1645/4/6 1639/4/6 1646/4/6
f 1646/4/6 1639/4/6 1647/4/6
f 1640/4/6 1634/4/6 1648/4/6
f 1648/4/6 1634/4/6 1649/4/6
f 1644/4/6 1645/4/6 1651/4/6
f 1649/4/6 1650/4/6 1653/4/6
f 1648/4/6 1649/4/6 1653/4/6
f 1647/4/6 1648/4/6 1653/4/6
f 1644/4/6 1651/4/6 1654/4/6
f 1635/4/6 1641/4/6 1654/4/6
f 1641/4/6 1644/4/6 1654/4/6
f 1654/4/6 1651/4/6 1655/4/6
f 1652/4/6 1653/4/6 1656/4/6
f 1635/4/6 1654/4/6 1657/4/6
f 1657/4/6 1654/4/6 1658/4/6
f 1655/4/6 1656/4/6 1659/4/6
f 1653/4/6 1650/4/6 1660/4/6
f 1656/4/6 1653/4/6 1660/4/6
f 1659/4/6 1656/4/6 1660/4/6
f 1660/4/6 1650/4/6 1661/4/6
f 1658/4/6 1659/4/6 1662/4/6
f 1659/4/6 1660/4/6 1662/4/6
f 1662/4/6 1660/4/6 1663/4/6
f 1664/6/6 1665/6/6 1668/6/6
f 1668/6/6 1665/6/6 1669/6/6
f 1669/6/6 1670/6/6 1671/6/6
f 1671/6/6 1670/6/6 1672/6/6
f 1666/8/6 1667/8/6 1674/8/6
f 1674/8/6 1667/8/6 1675/8/6
f 1672/6/6 1673/6/6 1676/6/6
f 1673/8/6 1674/8/6 1677/8/6
f 1676/6/6 1673/6/6 1677/6/6
f 1677/8/6 1674/8/6 1678/8/6
f 1676/8/6 1677/8/6 1680/8/6
f 1680/8/6 1677/8/6 1681/8/6
f 1679/8/6 1680/8/6 1682/8/6
f 1682/8/6 1680/8/6 1683/8/6
f 1684/11/6 1685/11/6 1688/11/6
f 1688/11/6 1685/11/6 1689/11/6
f 1686/11/6 1687/11/6 1690/11/6
f 1690/11/6 1687/11/6 1691/11/6
f 1692/11/6 1693/11/6 1695/11/6
f 1695/11/6 1693/11/6 1696/11/6
f 1694/7/6 1695/7/6 1699/7/6
f 1696/7/6 1697/7/6 1699/7/6
f 1695/7/6 1696/7/6 1699/7/6
f 1699/7/6 1697/7/6 1700/7/6
f 1698/7/6 1699/7/6 1702/7/6
f 1700/7/6 1701/7/6 1702/7/6
f 1699/7/6 1700/7/6 1702/7/6
f 1702/7/6 1701/7/6 1703/7/6
f 1703/7/6 1701/7/6 1704/7/6
f 1704/7/6 1701/7/6 1705/7/6
f 1703/7/6 1704/7/6 1706/7/6
f 1706/7/6 1704/7/6 1707/7/6
