# MagicaVoxel @ Ephtracy

# group
o 

# material
mtllib hard_seven_tile.mtl
usemtl palette

# normals
vn -1 0 0
vn 1 0 0
vn 0 0 1
vn 0 0 -1
vn 0 -1 0
vn 0 1 0

# texcoords
vt 0.513672 0.5
vt 0.556641 0.5
vt 0.837891 0.5
vt 0.951172 0.5
vt 0.962891 0.5
vt 0.982422 0.5
vt 0.990234 0.5
vt 0.994141 0.5

# verts
v -1.9 0.3 1.8
v -1.9 0.3 0.8
v -1.9 0.3 0.5
v -1.9 0.3 -0.5
v -1.9 0.3 -0.8
v -1.9 0.3 -1.8
v -1.9 0.5 1.8
v -1.9 0.5 0.8
v -1.9 0.5 0.5
v -1.9 0.5 -0.5
v -1.9 0.5 -0.8
v -1.9 0.5 -1.8
v -1.9 0.7 1.5
v -1.9 0.7 1.4
v -1.9 0.7 1.3
v -1.9 0.7 1.2
v -1.9 0.7 1.1
v -1.9 0.7 1
v -1.9 0.9 1.4
v -1.9 0.9 1.3
v -1.9 0.9 1.2
v -1.9 0.9 1.1
v -1.9 1.1 1.5
v -1.9 1.1 1
v -1.9 1.1 -1.6
v -1.9 1.1 -1.7
v -1.9 1.2 -1.6
v -1.9 1.2 -1.7
v -1.8 0.3 1.9
v -1.8 0.3 1.8
v -1.8 0.3 0.8
v -1.8 0.3 0.7
v -1.8 0.3 0.6
v -1.8 0.3 0.5
v -1.8 0.3 -0.5
v -1.8 0.3 -0.6
v -1.8 0.3 -0.7
v -1.8 0.3 -0.8
v -1.8 0.3 -1.8
v -1.8 0.3 -1.9
v -1.8 0.5 1.9
v -1.8 0.5 1.8
v -1.8 0.5 0.8
v -1.8 0.5 0.7
v -1.8 0.5 0.6
v -1.8 0.5 0.5
v -1.8 0.5 -0.5
v -1.8 0.5 -0.6
v -1.8 0.5 -0.7
v -1.8 0.5 -0.8
v -1.8 0.5 -1.8
v -1.8 0.5 -1.9
v -1.8 0.6 1.8
v -1.8 0.6 0.8
v -1.8 0.7 1.5
v -1.8 0.7 1.4
v -1.8 0.7 1.3
v -1.8 0.7 1.2
v -1.8 0.7 1.1
v -1.8 0.7 1
v -1.8 0.8 1.9
v -1.8 0.8 1.8
v -1.8 1 -1.6
v -1.8 1 -1.7
v -1.8 1.1 1.5
v -1.8 1.1 1
v -1.8 1.1 -1.6
v -1.8 1.1 -1.7
v -1.8 1.3 1.9
v -1.8 1.3 1.8
v -1.8 1.5 1.8
v -1.8 1.5 1.6
v -1.8 1.5 1.3
v -1.8 1.5 0.8
v -1.8 1.8 1.6
v -1.8 1.8 1.3
v -1.7 0.5 1.6
v -1.7 0.5 0.9
v -1.7 0.6 1.6
v -1.7 0.6 0.9
v -1.7 0.6 0.8
v -1.7 0.6 0.7
v -1.7 0.7 1.9
v -1.7 0.7 1.8
v -1.7 0.8 1.9
v -1.7 0.8 1.8
v -1.7 0.9 0.8
v -1.7 0.9 0.7
v -1.7 0.9 -1.6
v -1.7 0.9 -1.7
v -1.7 1 -1.6
v -1.7 1 -1.7
v -1.7 1.3 1.9
v -1.7 1.3 1.8
v -1.7 1.4 1.9
v -1.7 1.4 1.8
v -1.6 0.8 -1.6
v -1.6 0.8 -1.7
v -1.6 0.9 -1.6
v -1.6 0.9 -1.7
v -1.6 1.5 -1.2
v -1.6 1.5 -1.3
v -1.6 1.6 -1.2
v -1.6 1.6 -1.3
v -1.5 0.6 -1.6
v -1.5 0.6 -1.7
v -1.5 0.7 -1.6
v -1.5 0.7 -1.7
v -1.5 1.4 -1.2
v -1.5 1.4 -1.3
v -1.5 1.5 -1.2
v -1.5 1.5 -1.3
v -1.4 0.5 -1.6
v -1.4 0.5 -1.7
v -1.4 0.6 -1.5
v -1.4 0.6 -1.6
v -1.4 0.6 -1.7
v -1.4 0.6 -1.8
v -1.4 0.7 -1.5
v -1.4 0.7 -1.6
v -1.4 0.7 -1.7
v -1.4 0.7 -1.8
v -1.4 0.8 -1.6
v -1.4 0.8 -1.7
v -1.4 0.9 1.9
v -1.4 0.9 1.8
v -1.4 1.2 1.9
v -1.4 1.2 1.8
v -1.4 1.3 -1.2
v -1.4 1.3 -1.3
v -1.4 1.4 -1.2
v -1.4 1.4 -1.3
v -1.3 1.2 -1.2
v -1.3 1.2 -1.3
v -1.3 1.3 -1.2
v -1.3 1.3 -1.3
v -1.2 1.1 -1.2
v -1.2 1.1 -1.3
v -1.2 1.2 -1.2
v -1.2 1.2 -1.3
v -1.1 0.5 1.6
v -1.1 0.5 0.9
v -1.1 0.6 1.6
v -1.1 0.6 0.9
v -1.1 0.9 -1.2
v -1.1 0.9 -1.3
v -1.1 1 -1.2
v -1.1 1 -1.3
v -1.1 1.5 1.6
v -1.1 1.5 1.3
v -1.1 1.6 1.6
v -1.1 1.6 1.3
v -1 0.8 -1.2
v -1 0.8 -1.3
v -1 0.9 -1.1
v -1 0.9 -1.2
v -1 0.9 -1.3
v -1 0.9 -1.4
v -1 1 -1.1
v -1 1 -1.2
v -1 1 -1.3
v -1 1 -1.4
v -1 1.1 -1.2
v -1 1.1 -1.3
v -1 1.6 1.6
v -1 1.6 1.3
v -1 1.7 1.6
v -1 1.7 1.3
v -0.9 0.8 1.9
v -0.9 0.8 1.8
v -0.9 0.9 1.8
v -0.9 1 1.8
v -0.9 1.3 1.9
v -0.9 1.3 1.8
v -0.9 1.7 1.6
v -0.9 1.7 1.3
v -0.9 1.8 1.6
v -0.9 1.8 1.3
v -0.6 0.3 1.8
v -0.6 0.3 0.8
v -0.6 0.3 0.5
v -0.6 0.3 -0.5
v -0.6 0.3 -0.8
v -0.6 0.3 -1.8
v -0.6 0.5 1.8
v -0.6 0.5 0.8
v -0.6 0.5 0.5
v -0.6 0.5 -0.5
v -0.6 0.5 -0.8
v -0.6 0.5 -1.8
v -0.5 0.3 1.9
v -0.5 0.3 1.8
v -0.5 0.3 0.8
v -0.5 0.3 0.7
v -0.5 0.3 0.6
v -0.5 0.3 0.5
v -0.5 0.3 -0.5
v -0.5 0.3 -0.6
v -0.5 0.3 -0.7
v -0.5 0.3 -0.8
v -0.5 0.3 -1.8
v -0.5 0.3 -1.9
v -0.5 0.5 1.9
v -0.5 0.5 1.8
v -0.5 0.5 0.8
v -0.5 0.5 0.7
v -0.5 0.5 0.6
v -0.5 0.5 0.5
v -0.5 0.5 -0.5
v -0.5 0.5 -0.6
v -0.5 0.5 -0.7
v -0.5 0.5 -0.8
v -0.5 0.5 -1.8
v -0.5 0.5 -1.9
v 0.4 1.1 -1.6
v 0.4 1.1 -1.8
v 0.4 1.3 -1.6
v 0.4 1.3 -1.8
v 0.7 0.3 1.8
v 0.7 0.3 0.8
v 0.7 0.3 0.5
v 0.7 0.3 -0.5
v 0.7 0.3 -0.8
v 0.7 0.3 -1.8
v 0.7 0.5 1.8
v 0.7 0.5 0.8
v 0.7 0.5 0.5
v 0.7 0.5 -0.5
v 0.7 0.5 -0.8
v 0.7 0.5 -1.8
v 0.7 0.9 -1.2
v 0.7 0.9 -1.6
v 0.7 1 -1.2
v 0.7 1 -1.6
v 0.8 0.3 1.9
v 0.8 0.3 1.8
v 0.8 0.3 0.8
v 0.8 0.3 0.7
v 0.8 0.3 0.6
v 0.8 0.3 0.5
v 0.8 0.3 -0.5
v 0.8 0.3 -0.6
v 0.8 0.3 -0.7
v 0.8 0.3 -0.8
v 0.8 0.3 -1.8
v 0.8 0.3 -1.9
v 0.8 0.5 1.9
v 0.8 0.5 1.8
v 0.8 0.5 0.8
v 0.8 0.5 0.7
v 0.8 0.5 0.6
v 0.8 0.5 0.5
v 0.8 0.5 -0.5
v 0.8 0.5 -0.6
v 0.8 0.5 -0.7
v 0.8 0.5 -0.8
v 0.8 0.5 -1.8
v 0.8 0.5 -1.9
v 0.8 0.7 1.6
v 0.8 0.7 1.5
v 0.8 0.8 1.6
v 0.8 0.8 1.5
v 0.8 0.9 -1.1
v 0.8 0.9 -1.2
v 0.8 0.9 -1.6
v 0.8 0.9 -1.7
v 0.8 1 -1.1
v 0.8 1 -1.2
v 0.8 1 -1.6
v 0.8 1 -1.7
v 0.9 0.6 1.6
v 0.9 0.6 1.5
v 0.9 0.7 1.7
v 0.9 0.7 1.6
v 0.9 0.7 1.5
v 0.9 0.7 1.4
v 0.9 0.8 1.7
v 0.9 0.8 1.6
v 0.9 0.8 1.5
v 0.9 0.8 1.4
v 0.9 0.8 -1.2
v 0.9 0.8 -1.6
v 0.9 0.9 1.6
v 0.9 0.9 1.5
v 0.9 0.9 -1
v 0.9 0.9 -1.1
v 0.9 0.9 -1.2
v 0.9 0.9 -1.6
v 0.9 0.9 -1.7
v 0.9 0.9 -1.8
v 0.9 1 -1
v 0.9 1 -1.1
v 0.9 1 -1.2
v 0.9 1 -1.6
v 0.9 1 -1.7
v 0.9 1 -1.8
v 0.9 1.3 -1.1
v 0.9 1.3 -1.2
v 0.9 1.3 -1.5
v 0.9 1.3 -1.7
v 0.9 1.4 -1.2
v 0.9 1.4 -1.5
v 1 0.7 -1.2
v 1 0.7 -1.6
v 1 0.8 -1.1
v 1 0.8 -1.2
v 1 0.8 -1.6
v 1 0.8 -1.7
v 1 0.9 -1.1
v 1 0.9 -1.2
v 1 0.9 -1.6
v 1 0.9 -1.7
v 1 1 -0.9
v 1 1 -1
v 1 1 -1.1
v 1 1 -1.7
v 1 1 -1.8
v 1 1 -1.9
v 1 1.1 -0.9
v 1 1.1 -1
v 1 1.1 -1.8
v 1 1.1 -1.9
v 1 1.3 -1
v 1 1.3 -1.1
v 1 1.3 -1.2
v 1 1.3 -1.5
v 1 1.3 -1.7
v 1 1.3 -1.8
v 1 1.4 -1.1
v 1 1.4 -1.2
v 1 1.4 -1.5
v 1 1.4 -1.6
v 1 1.4 -1.7
v 1 1.5 -1.2
v 1 1.5 -1.6
v 1.1 0.7 -1.1
v 1.1 0.7 -1.2
v 1.1 0.7 -1.6
v 1.1 0.7 -1.7
v 1.1 0.8 -1
v 1.1 0.8 -1.1
v 1.1 0.8 -1.2
v 1.1 0.8 -1.6
v 1.1 0.8 -1.7
v 1.1 0.8 -1.8
v 1.1 0.9 -1
v 1.1 0.9 -1.1
v 1.1 0.9 -1.7
v 1.1 0.9 -1.8
v 1.1 1.3 -1
v 1.1 1.3 -1.1
v 1.1 1.3 -1.7
v 1.1 1.3 -1.8
v 1.1 1.4 -1
v 1.1 1.4 -1.1
v 1.1 1.4 -1.2
v 1.1 1.4 -1.6
v 1.1 1.4 -1.7
v 1.1 1.4 -1.8
v 1.1 1.5 -1.1
v 1.1 1.5 -1.2
v 1.1 1.5 -1.6
v 1.1 1.5 -1.7
v 1.2 0.5 0.9
v 1.2 0.5 0.8
v 1.2 0.6 0.9
v 1.2 0.6 0.8
v 1.3 1.1 -0.9
v 1.3 1.1 -1
v 1.3 1.1 -1.8
v 1.3 1.1 -1.9
v 1.3 1.2 -0.9
v 1.3 1.2 -1
v 1.3 1.2 -1.8
v 1.3 1.2 -1.9
v 1.6 0.5 1.7
v 1.6 0.5 1.6
v 1.6 0.6 1.7
v 1.6 0.6 1.6
v 1.6 1 1.2
v 1.6 1 1.1
v 1.6 1.1 1.2
v 1.6 1.1 1.1
v 1.7 0.9 1.2
v 1.7 0.9 1.1
v 1.7 1 1.3
v 1.7 1 1.2
v 1.7 1 1.1
v 1.7 1 1
v 1.7 1.1 1.3
v 1.7 1.1 1.2
v 1.7 1.1 1.1
v 1.7 1.1 1
v 1.7 1.2 1.2
v 1.7 1.2 1.1
v 1.8 0.8 -1.3
v 1.8 0.8 -1.4
v 1.8 0.9 -1.3
v 1.8 0.9 -1.4
v 1.8 1.2 -1.2
v 1.8 1.2 -1.6
v 1.8 1.3 -1.2
v 1.8 1.3 -1.6
v -1.8 1.1 -1.6
v -1.8 1.1 -1.7
v -1.8 1.2 -1.6
v -1.8 1.2 -1.7
v -1.7 0.8 1.9
v -1.7 0.8 1.8
v -1.7 0.9 1.8
v -1.7 1 1.8
v -1.7 1 -1.6
v -1.7 1 -1.7
v -1.7 1.1 -1.6
v -1.7 1.1 -1.7
v -1.7 1.3 1.9
v -1.7 1.3 1.8
v -1.7 1.7 1.6
v -1.7 1.7 1.3
v -1.7 1.8 1.6
v -1.7 1.8 1.3
v -1.6 0.9 -1.6
v -1.6 0.9 -1.7
v -1.6 1 -1.6
v -1.6 1 -1.7
v -1.6 1.6 1.6
v -1.6 1.6 1.3
v -1.6 1.7 1.6
v -1.6 1.7 1.3
v -1.5 0.5 1.6
v -1.5 0.5 0.9
v -1.5 0.6 1.6
v -1.5 0.6 0.9
v -1.5 0.8 -1.6
v -1.5 0.8 -1.7
v -1.5 0.9 -1.6
v -1.5 0.9 -1.7
v -1.5 1.5 1.6
v -1.5 1.5 1.3
v -1.5 1.5 -1.2
v -1.5 1.5 -1.3
v -1.5 1.6 1.6
v -1.5 1.6 1.3
v -1.5 1.6 -1.2
v -1.5 1.6 -1.3
v -1.4 1.4 -1.2
v -1.4 1.4 -1.3
v -1.4 1.5 -1.2
v -1.4 1.5 -1.3
v -1.3 0.5 -1.6
v -1.3 0.5 -1.7
v -1.3 0.6 -1.5
v -1.3 0.6 -1.6
v -1.3 0.6 -1.7
v -1.3 0.6 -1.8
v -1.3 0.7 -1.5
v -1.3 0.7 -1.6
v -1.3 0.7 -1.7
v -1.3 0.7 -1.8
v -1.3 0.8 -1.6
v -1.3 0.8 -1.7
v -1.3 1.3 -1.2
v -1.3 1.3 -1.3
v -1.3 1.4 -1.2
v -1.3 1.4 -1.3
v -1.2 0.6 -1.6
v -1.2 0.6 -1.7
v -1.2 0.7 -1.6
v -1.2 0.7 -1.7
v -1.2 0.9 1.9
v -1.2 0.9 1.8
v -1.2 1.2 1.9
v -1.2 1.2 1.8
v -1.2 1.2 -1.2
v -1.2 1.2 -1.3
v -1.2 1.3 -1.2
v -1.2 1.3 -1.3
v -1.1 1.1 -1.2
v -1.1 1.1 -1.3
v -1.1 1.2 -1.2
v -1.1 1.2 -1.3
v -0.9 0.5 1.6
v -0.9 0.5 0.9
v -0.9 0.6 1.6
v -0.9 0.6 0.9
v -0.9 0.6 0.8
v -0.9 0.6 0.7
v -0.9 0.7 1.9
v -0.9 0.7 1.8
v -0.9 0.8 1.9
v -0.9 0.8 1.8
v -0.9 0.8 -1.2
v -0.9 0.8 -1.3
v -0.9 0.9 0.8
v -0.9 0.9 0.7
v -0.9 0.9 -1.1
v -0.9 0.9 -1.2
v -0.9 0.9 -1.3
v -0.9 0.9 -1.4
v -0.9 1 -1.1
v -0.9 1 -1.2
v -0.9 1 -1.3
v -0.9 1 -1.4
v -0.9 1.1 -1.2
v -0.9 1.1 -1.3
v -0.9 1.3 1.9
v -0.9 1.3 1.8
v -0.9 1.4 1.9
v -0.9 1.4 1.8
v -0.8 0.3 1.9
v -0.8 0.3 1.8
v -0.8 0.3 0.8
v -0.8 0.3 0.7
v -0.8 0.3 0.6
v -0.8 0.3 0.5
v -0.8 0.3 -0.5
v -0.8 0.3 -0.6
v -0.8 0.3 -0.7
v -0.8 0.3 -0.8
v -0.8 0.3 -1.8
v -0.8 0.3 -1.9
v -0.8 0.5 1.9
v -0.8 0.5 1.8
v -0.8 0.5 0.8
v -0.8 0.5 0.7
v -0.8 0.5 0.6
v -0.8 0.5 0.5
v -0.8 0.5 -0.5
v -0.8 0.5 -0.6
v -0.8 0.5 -0.7
v -0.8 0.5 -0.8
v -0.8 0.5 -1.8
v -0.8 0.5 -1.9
v -0.8 0.6 1.8
v -0.8 0.6 0.8
v -0.8 0.7 1.5
v -0.8 0.7 1.4
v -0.8 0.7 1.3
v -0.8 0.7 1.2
v -0.8 0.7 1.1
v -0.8 0.7 1
v -0.8 0.8 1.9
v -0.8 0.8 1.8
v -0.8 0.9 -1.2
v -0.8 0.9 -1.3
v -0.8 1 -1.2
v -0.8 1 -1.3
v -0.8 1.1 1.5
v -0.8 1.1 1
v -0.8 1.3 1.9
v -0.8 1.3 1.8
v -0.8 1.5 1.8
v -0.8 1.5 1.6
v -0.8 1.5 1.3
v -0.8 1.5 0.8
v -0.8 1.8 1.6
v -0.8 1.8 1.3
v -0.7 0.3 1.8
v -0.7 0.3 0.8
v -0.7 0.3 0.5
v -0.7 0.3 -0.5
v -0.7 0.3 -0.8
v -0.7 0.3 -1.8
v -0.7 0.5 1.8
v -0.7 0.5 0.8
v -0.7 0.5 0.5
v -0.7 0.5 -0.5
v -0.7 0.5 -0.8
v -0.7 0.5 -1.8
v -0.7 0.7 1.5
v -0.7 0.7 1.4
v -0.7 0.7 1.3
v -0.7 0.7 1.2
v -0.7 0.7 1.1
v -0.7 0.7 1
v -0.7 0.9 1.4
v -0.7 0.9 1.3
v -0.7 0.9 1.2
v -0.7 0.9 1.1
v -0.7 1.1 1.5
v -0.7 1.1 1
v 0.5 0.3 1.9
v 0.5 0.3 1.8
v 0.5 0.3 0.8
v 0.5 0.3 0.7
v 0.5 0.3 0.6
v 0.5 0.3 0.5
v 0.5 0.3 -0.5
v 0.5 0.3 -0.6
v 0.5 0.3 -0.7
v 0.5 0.3 -0.8
v 0.5 0.3 -1.8
v 0.5 0.3 -1.9
v 0.5 0.5 1.9
v 0.5 0.5 1.8
v 0.5 0.5 0.8
v 0.5 0.5 0.7
v 0.5 0.5 0.6
v 0.5 0.5 0.5
v 0.5 0.5 -0.5
v 0.5 0.5 -0.6
v 0.5 0.5 -0.7
v 0.5 0.5 -0.8
v 0.5 0.5 -1.8
v 0.5 0.5 -1.9
v 0.6 0.3 1.8
v 0.6 0.3 0.8
v 0.6 0.3 0.5
v 0.6 0.3 -0.5
v 0.6 0.3 -0.8
v 0.6 0.3 -1.8
v 0.6 0.5 1.8
v 0.6 0.5 0.8
v 0.6 0.5 0.5
v 0.6 0.5 -0.5
v 0.6 0.5 -0.8
v 0.6 0.5 -1.8
v 0.6 1.1 -1.6
v 0.6 1.1 -1.8
v 0.6 1.3 -1.6
v 0.6 1.3 -1.8
v 0.8 0.9 -1.2
v 0.8 0.9 -1.6
v 0.8 1 -1.2
v 0.8 1 -1.6
v 1 0.6 1.6
v 1 0.6 1.5
v 1 0.7 1.7
v 1 0.7 1.6
v 1 0.7 1.5
v 1 0.7 1.4
v 1 0.8 1.7
v 1 0.8 1.6
v 1 0.8 1.5
v 1 0.8 1.4
v 1 0.9 1.6
v 1 0.9 1.5
v 1.1 0.7 1.6
v 1.1 0.7 1.5
v 1.1 0.8 1.6
v 1.1 0.8 1.5
v 1.3 0.5 0.9
v 1.3 0.5 0.8
v 1.3 0.6 0.9
v 1.3 0.6 0.8
v 1.3 1 -0.9
v 1.3 1 -1
v 1.3 1 -1.8
v 1.3 1 -1.9
v 1.3 1.1 -0.9
v 1.3 1.1 -1
v 1.3 1.1 -1.8
v 1.3 1.1 -1.9
v 1.5 0.7 -1.1
v 1.5 0.7 -1.2
v 1.5 0.7 -1.6
v 1.5 0.7 -1.7
v 1.5 0.8 -1
v 1.5 0.8 -1.1
v 1.5 0.8 -1.2
v 1.5 0.8 -1.6
v 1.5 0.8 -1.7
v 1.5 0.8 -1.8
v 1.5 0.9 -1
v 1.5 0.9 -1.1
v 1.5 0.9 -1.7
v 1.5 0.9 -1.8
v 1.5 1.3 -1
v 1.5 1.3 -1.1
v 1.5 1.3 -1.6
v 1.5 1.3 -1.8
v 1.5 1.4 -1
v 1.5 1.4 -1.1
v 1.5 1.4 -1.2
v 1.5 1.4 -1.7
v 1.5 1.4 -1.8
v 1.5 1.5 -1.1
v 1.5 1.5 -1.2
v 1.5 1.5 -1.6
v 1.5 1.5 -1.7
v 1.6 0.7 -1.2
v 1.6 0.7 -1.6
v 1.6 0.8 -1.1
v 1.6 0.8 -1.2
v 1.6 0.8 -1.6
v 1.6 0.8 -1.7
v 1.6 0.9 -1
v 1.6 0.9 -1.1
v 1.6 0.9 -1.2
v 1.6 0.9 -1.6
v 1.6 0.9 -1.7
v 1.6 0.9 -1.8
v 1.6 1.1 -0.9
v 1.6 1.1 -1
v 1.6 1.1 -1.8
v 1.6 1.1 -1.9
v 1.6 1.2 -0.9
v 1.6 1.2 -1
v 1.6 1.2 -1.1
v 1.6 1.2 -1.7
v 1.6 1.2 -1.8
v 1.6 1.2 -1.9
v 1.6 1.3 -1.1
v 1.6 1.3 -1.2
v 1.6 1.4 -1.1
v 1.6 1.4 -1.2
v 1.6 1.4 -1.6
v 1.6 1.5 -1.2
v 1.6 1.5 -1.6
v 1.7 0.5 1.7
v 1.7 0.5 1.6
v 1.7 0.6 1.7
v 1.7 0.6 1.6
v 1.7 0.8 -1.2
v 1.7 0.8 -1.6
v 1.7 0.9 -1.1
v 1.7 0.9 -1.2
v 1.7 0.9 -1.6
v 1.7 0.9 -1.7
v 1.7 1.2 -1
v 1.7 1.2 -1.1
v 1.7 1.2 -1.2
v 1.7 1.2 -1.6
v 1.7 1.2 -1.7
v 1.7 1.2 -1.8
v 1.7 1.3 -1
v 1.7 1.3 -1.1
v 1.7 1.3 -1.2
v 1.7 1.3 -1.6
v 1.7 1.3 -1.7
v 1.7 1.3 -1.8
v 1.7 1.4 -1.2
v 1.7 1.4 -1.6
v 1.8 0.3 1.9
v 1.8 0.3 1.8
v 1.8 0.3 0.8
v 1.8 0.3 0.7
v 1.8 0.3 0.6
v 1.8 0.3 0.5
v 1.8 0.3 -0.5
v 1.8 0.3 -0.6
v 1.8 0.3 -0.7
v 1.8 0.3 -0.8
v 1.8 0.3 -1.8
v 1.8 0.3 -1.9
v 1.8 0.5 1.9
v 1.8 0.5 1.8
v 1.8 0.5 0.8
v 1.8 0.5 0.7
v 1.8 0.5 0.6
v 1.8 0.5 0.5
v 1.8 0.5 -0.5
v 1.8 0.5 -0.6
v 1.8 0.5 -0.7
v 1.8 0.5 -0.8
v 1.8 0.5 -1.8
v 1.8 0.5 -1.9
v 1.8 0.9 1.2
v 1.8 0.9 1.1
v 1.8 1 1.3
v 1.8 1 1.2
v 1.8 1 1.1
v 1.8 1 1
v 1.8 1.1 1.3
v 1.8 1.1 1.2
v 1.8 1.1 1.1
v 1.8 1.1 1
v 1.8 1.2 1.2
v 1.8 1.2 1.1
v 1.8 1.2 -1.1
v 1.8 1.2 -1.2
v 1.8 1.2 -1.6
v 1.8 1.2 -1.7
v 1.8 1.3 -1.1
v 1.8 1.3 -1.2
v 1.8 1.3 -1.6
v 1.8 1.3 -1.7
v 1.9 0.3 1.8
v 1.9 0.3 0.8
v 1.9 0.3 0.5
v 1.9 0.3 -0.5
v 1.9 0.3 -0.8
v 1.9 0.3 -1.8
v 1.9 0.5 1.8
v 1.9 0.5 0.8
v 1.9 0.5 0.5
v 1.9 0.5 -0.5
v 1.9 0.5 -0.8
v 1.9 0.5 -1.8
v 1.9 0.8 -1.3
v 1.9 0.8 -1.4
v 1.9 0.9 -1.3
v 1.9 0.9 -1.4
v 1.9 1 1.2
v 1.9 1 1.1
v 1.9 1.1 1.2
v 1.9 1.1 1.1
v 1.9 1.2 -1.2
v 1.9 1.2 -1.6
v 1.9 1.3 -1.2
v 1.9 1.3 -1.6
v -1.8 0.3 1.9
v -1.8 0.5 1.9
v -1.8 0.8 1.9
v -1.8 1.3 1.9
v -1.7 0.7 1.9
v -1.7 0.8 1.9
v -1.7 1.3 1.9
v -1.7 1.4 1.9
v -1.4 0.9 1.9
v -1.4 1.2 1.9
v -1.2 0.9 1.9
v -1.2 1.2 1.9
v -0.9 0.7 1.9
v -0.9 0.8 1.9
v -0.9 1.3 1.9
v -0.9 1.4 1.9
v -0.8 0.3 1.9
v -0.8 0.5 1.9
v -0.8 0.8 1.9
v -0.8 1.3 1.9
v -0.5 0.3 1.9
v -0.5 0.5 1.9
v 0.5 0.3 1.9
v 0.5 0.5 1.9
v 0.8 0.3 1.9
v 0.8 0.5 1.9
v 1.8 0.3 1.9
v 1.8 0.5 1.9
v -1.9 0.3 1.8
v -1.9 0.5 1.8
v -1.8 0.3 1.8
v -1.8 0.5 1.8
v -1.8 0.6 1.8
v -1.8 0.8 1.8
v -1.8 1.3 1.8
v -1.8 1.5 1.8
v -1.7 0.7 1.8
v -1.7 0.8 1.8
v -1.7 0.9 1.8
v -1.7 1 1.8
v -1.7 1.3 1.8
v -1.7 1.4 1.8
v -1.6 0.9 1.8
v -1.6 1 1.8
v -1.6 1.2 1.8
v -1.5 1 1.8
v -1.5 1.2 1.8
v -1.4 0.9 1.8
v -1.4 1.2 1.8
v -1.2 0.9 1.8
v -1.2 1.2 1.8
v -1.1 1 1.8
v -1.1 1.2 1.8
v -1 0.9 1.8
v -1 1 1.8
v -1 1.2 1.8
v -0.9 0.7 1.8
v -0.9 0.8 1.8
v -0.9 0.9 1.8
v -0.9 1 1.8
v -0.9 1.3 1.8
v -0.9 1.4 1.8
v -0.8 0.3 1.8
v -0.8 0.5 1.8
v -0.8 0.6 1.8
v -0.8 0.8 1.8
v -0.8 1.3 1.8
v -0.8 1.5 1.8
v -0.7 0.3 1.8
v -0.7 0.5 1.8
v -0.6 0.3 1.8
v -0.6 0.5 1.8
v -0.5 0.3 1.8
v -0.5 0.5 1.8
v 0.5 0.3 1.8
v 0.5 0.5 1.8
v 0.6 0.3 1.8
v 0.6 0.5 1.8
v 0.7 0.3 1.8
v 0.7 0.5 1.8
v 0.8 0.3 1.8
v 0.8 0.5 1.8
v 1.8 0.3 1.8
v 1.8 0.5 1.8
v 1.9 0.3 1.8
v 1.9 0.5 1.8
v 0.9 0.7 1.7
v 0.9 0.8 1.7
v 1 0.7 1.7
v 1 0.8 1.7
v 1.6 0.5 1.7
v 1.6 0.6 1.7
v 1.7 0.5 1.7
v 1.7 0.6 1.7
v -1.8 1.5 1.6
v -1.8 1.8 1.6
v -1.7 0.5 1.6
v -1.7 0.6 1.6
v -1.7 1.7 1.6
v -1.7 1.8 1.6
v -1.6 1.6 1.6
v -1.6 1.7 1.6
v -1.5 0.5 1.6
v -1.5 0.6 1.6
v -1.5 1.5 1.6
v -1.5 1.6 1.6
v -1.1 0.5 1.6
v -1.1 0.6 1.6
v -1.1 1.5 1.6
v -1.1 1.6 1.6
v -1 1.6 1.6
v -1 1.7 1.6
v -0.9 0.5 1.6
v -0.9 0.6 1.6
v -0.9 1.7 1.6
v -0.9 1.8 1.6
v -0.8 1.5 1.6
v -0.8 1.8 1.6
v 0.8 0.7 1.6
v 0.8 0.8 1.6
v 0.9 0.6 1.6
v 0.9 0.7 1.6
v 0.9 0.8 1.6
v 0.9 0.9 1.6
v 1 0.6 1.6
v 1 0.7 1.6
v 1 0.8 1.6
v 1 0.9 1.6
v 1.1 0.7 1.6
v 1.1 0.8 1.6
v -1.9 0.7 1.5
v -1.9 1.1 1.5
v -1.8 0.7 1.5
v -1.8 1.1 1.5
v -0.8 0.7 1.5
v -0.8 1.1 1.5
v -0.7 0.7 1.5
v -0.7 1.1 1.5
v 1.7 1 1.3
v 1.7 1.1 1.3
v 1.8 1 1.3
v 1.8 1.1 1.3
v 1.6 1 1.2
v 1.6 1.1 1.2
v 1.7 0.9 1.2
v 1.7 1 1.2
v 1.7 1.1 1.2
v 1.7 1.2 1.2
v 1.8 0.9 1.2
v 1.8 1 1.2
v 1.8 1.1 1.2
v 1.8 1.2 1.2
v 1.9 1 1.2
v 1.9 1.1 1.2
v 1.2 0.5 0.9
v 1.2 0.6 0.9
v 1.3 0.5 0.9
v 1.3 0.6 0.9
v -1.8 0.3 0.6
v -1.8 0.5 0.6
v -0.8 0.3 0.6
v -0.8 0.5 0.6
v -0.5 0.3 0.6
v -0.5 0.5 0.6
v 0.5 0.3 0.6
v 0.5 0.5 0.6
v 0.8 0.3 0.6
v 0.8 0.5 0.6
v 1.8 0.3 0.6
v 1.8 0.5 0.6
v -1.9 0.3 0.5
v -1.9 0.5 0.5
v -1.8 0.3 0.5
v -1.8 0.5 0.5
v -0.8 0.3 0.5
v -0.8 0.5 0.5
v -0.7 0.3 0.5
v -0.7 0.5 0.5
v -0.6 0.3 0.5
v -0.6 0.5 0.5
v -0.5 0.3 0.5
v -0.5 0.5 0.5
v 0.5 0.3 0.5
v 0.5 0.5 0.5
v 0.6 0.3 0.5
v 0.6 0.5 0.5
v 0.7 0.3 0.5
v 0.7 0.5 0.5
v 0.8 0.3 0.5
v 0.8 0.5 0.5
v 1.8 0.3 0.5
v 1.8 0.5 0.5
v 1.9 0.3 0.5
v 1.9 0.5 0.5
v -1.8 0.3 -0.7
v -1.8 0.5 -0.7
v -0.8 0.3 -0.7
v -0.8 0.5 -0.7
v -0.5 0.3 -0.7
v -0.5 0.5 -0.7
v 0.5 0.3 -0.7
v 0.5 0.5 -0.7
v 0.8 0.3 -0.7
v 0.8 0.5 -0.7
v 1.8 0.3 -0.7
v 1.8 0.5 -0.7
v -1.9 0.3 -0.8
v -1.9 0.5 -0.8
v -1.8 0.3 -0.8
v -1.8 0.5 -0.8
v -0.8 0.3 -0.8
v -0.8 0.5 -0.8
v -0.7 0.3 -0.8
v -0.7 0.5 -0.8
v -0.6 0.3 -0.8
v -0.6 0.5 -0.8
v -0.5 0.3 -0.8
v -0.5 0.5 -0.8
v 0.5 0.3 -0.8
v 0.5 0.5 -0.8
v 0.6 0.3 -0.8
v 0.6 0.5 -0.8
v 0.7 0.3 -0.8
v 0.7 0.5 -0.8
v 0.8 0.3 -0.8
v 0.8 0.5 -0.8
v 1.8 0.3 -0.8
v 1.8 0.5 -0.8
v 1.9 0.3 -0.8
v 1.9 0.5 -0.8
v 1 1 -0.9
v 1 1.1 -0.9
v 1.3 1 -0.9
v 1.3 1.1 -0.9
v 1.3 1.2 -0.9
v 1.6 1.1 -0.9
v 1.6 1.2 -0.9
v 0.9 0.9 -1
v 0.9 1 -1
v 1 0.9 -1
v 1 1 -1
v 1 1.1 -1
v 1 1.3 -1
v 1.1 0.8 -1
v 1.1 0.9 -1
v 1.1 1.3 -1
v 1.1 1.4 -1
v 1.3 1 -1
v 1.3 1.1 -1
v 1.3 1.2 -1
v 1.5 0.8 -1
v 1.5 0.9 -1
v 1.5 1.3 -1
v 1.5 1.4 -1
v 1.6 0.9 -1
v 1.6 1.1 -1
v 1.6 1.2 -1
v 1.6 1.3 -1
v 1.7 1.2 -1
v 1.7 1.3 -1
v -1 0.9 -1.1
v -1 1 -1.1
v -0.9 0.9 -1.1
v -0.9 1 -1.1
v 0.8 0.9 -1.1
v 0.8 1 -1.1
v 0.9 0.9 -1.1
v 0.9 1 -1.1
v 0.9 1.3 -1.1
v 1 0.8 -1.1
v 1 0.9 -1.1
v 1 1 -1.1
v 1 1.3 -1.1
v 1 1.4 -1.1
v 1.1 0.7 -1.1
v 1.1 0.8 -1.1
v 1.1 0.9 -1.1
v 1.1 1.3 -1.1
v 1.1 1.4 -1.1
v 1.1 1.5 -1.1
v 1.5 0.7 -1.1
v 1.5 0.8 -1.1
v 1.5 0.9 -1.1
v 1.5 1.3 -1.1
v 1.5 1.4 -1.1
v 1.5 1.5 -1.1
v 1.6 0.8 -1.1
v 1.6 0.9 -1.1
v 1.6 1.2 -1.1
v 1.6 1.3 -1.1
v 1.6 1.4 -1.1
v 1.7 0.9 -1.1
v 1.7 1.2 -1.1
v 1.7 1.3 -1.1
v 1.8 1.2 -1.1
v 1.8 1.3 -1.1
v -1.6 1.5 -1.2
v -1.6 1.6 -1.2
v -1.5 1.4 -1.2
v -1.5 1.5 -1.2
v -1.5 1.6 -1.2
v -1.4 1.3 -1.2
v -1.4 1.4 -1.2
v -1.4 1.5 -1.2
v -1.3 1.2 -1.2
v -1.3 1.3 -1.2
v -1.3 1.4 -1.2
v -1.2 1.1 -1.2
v -1.2 1.2 -1.2
v -1.2 1.3 -1.2
v -1.1 0.9 -1.2
v -1.1 1 -1.2
v -1.1 1.1 -1.2
v -1.1 1.2 -1.2
v -1 0.8 -1.2
v -1 0.9 -1.2
v -1 1 -1.2
v -1 1.1 -1.2
v -0.9 0.8 -1.2
v -0.9 0.9 -1.2
v -0.9 1 -1.2
v -0.9 1.1 -1.2
v -0.8 0.9 -1.2
v -0.8 1 -1.2
v 0.7 0.9 -1.2
v 0.7 1 -1.2
v 0.8 0.9 -1.2
v 0.8 1 -1.2
v 0.9 0.8 -1.2
v 0.9 0.9 -1.2
v 0.9 1.3 -1.2
v 0.9 1.4 -1.2
v 1 0.7 -1.2
v 1 0.8 -1.2
v 1 0.9 -1.2
v 1 1.3 -1.2
v 1 1.4 -1.2
v 1 1.5 -1.2
v 1.1 0.7 -1.2
v 1.1 0.8 -1.2
v 1.1 1.4 -1.2
v 1.1 1.5 -1.2
v 1.5 0.7 -1.2
v 1.5 0.8 -1.2
v 1.5 1.4 -1.2
v 1.5 1.5 -1.2
v 1.6 0.7 -1.2
v 1.6 0.8 -1.2
v 1.6 0.9 -1.2
v 1.6 1.3 -1.2
v 1.6 1.4 -1.2
v 1.6 1.5 -1.2
v 1.7 0.8 -1.2
v 1.7 0.9 -1.2
v 1.7 1.3 -1.2
v 1.7 1.4 -1.2
v 1.8 1.2 -1.2
v 1.8 1.3 -1.2
v 1.9 1.2 -1.2
v 1.9 1.3 -1.2
v 1.8 0.8 -1.3
v 1.8 0.9 -1.3
v 1.9 0.8 -1.3
v 1.9 0.9 -1.3
v -1.4 0.6 -1.5
v -1.4 0.7 -1.5
v -1.3 0.6 -1.5
v -1.3 0.7 -1.5
v -1.9 1.1 -1.6
v -1.9 1.2 -1.6
v -1.8 1 -1.6
v -1.8 1.1 -1.6
v -1.8 1.2 -1.6
v -1.7 0.9 -1.6
v -1.7 1 -1.6
v -1.7 1.1 -1.6
v -1.6 0.8 -1.6
v -1.6 0.9 -1.6
v -1.6 1 -1.6
v -1.5 0.6 -1.6
v -1.5 0.7 -1.6
v -1.5 0.8 -1.6
v -1.5 0.9 -1.6
v -1.4 0.5 -1.6
v -1.4 0.6 -1.6
v -1.4 0.7 -1.6
v -1.4 0.8 -1.6
v -1.3 0.5 -1.6
v -1.3 0.6 -1.6
v -1.3 0.7 -1.6
v -1.3 0.8 -1.6
v -1.2 0.6 -1.6
v -1.2 0.7 -1.6
v 0.4 1.1 -1.6
v 0.4 1.3 -1.6
v 0.6 1.1 -1.6
v 0.6 1.3 -1.6
v 0.8 0.9 -1.6
v 0.8 1 -1.6
v 0.9 0.9 -1.6
v 0.9 1 -1.6
v 1.7 1.2 -1.6
v 1.7 1.3 -1.6
v 1.8 1.2 -1.6
v 1.8 1.3 -1.6
v 1.6 0.5 1.6
v 1.6 0.6 1.6
v 1.7 0.5 1.6
v 1.7 0.6 1.6
v 0.8 0.7 1.5
v 0.8 0.8 1.5
v 0.9 0.6 1.5
v 0.9 0.7 1.5
v 0.9 0.8 1.5
v 0.9 0.9 1.5
v 1 0.6 1.5
v 1 0.7 1.5
v 1 0.8 1.5
v 1 0.9 1.5
v 1.1 0.7 1.5
v 1.1 0.8 1.5
v 0.9 0.7 1.4
v 0.9 0.8 1.4
v 1 0.7 1.4
v 1 0.8 1.4
v -1.8 1.5 1.3
v -1.8 1.8 1.3
v -1.7 1.7 1.3
v -1.7 1.8 1.3
v -1.6 1.6 1.3
v -1.6 1.7 1.3
v -1.5 1.5 1.3
v -1.5 1.6 1.3
v -1.1 1.5 1.3
v -1.1 1.6 1.3
v -1 1.6 1.3
v -1 1.7 1.3
v -0.9 1.7 1.3
v -0.9 1.8 1.3
v -0.8 1.5 1.3
v -0.8 1.8 1.3
v 1.6 1 1.1
v 1.6 1.1 1.1
v 1.7 0.9 1.1
v 1.7 1 1.1
v 1.7 1.1 1.1
v 1.7 1.2 1.1
v 1.8 0.9 1.1
v 1.8 1 1.1
v 1.8 1.1 1.1
v 1.8 1.2 1.1
v 1.9 1 1.1
v 1.9 1.1 1.1
v -1.9 0.7 1
v -1.9 1.1 1
v -1.8 0.7 1
v -1.8 1.1 1
v -0.8 0.7 1
v -0.8 1.1 1
v -0.7 0.7 1
v -0.7 1.1 1
v 1.7 1 1
v 1.7 1.1 1
v 1.8 1 1
v 1.8 1.1 1
v -1.7 0.5 0.9
v -1.7 0.6 0.9
v -1.5 0.5 0.9
v -1.5 0.6 0.9
v -1.1 0.5 0.9
v -1.1 0.6 0.9
v -0.9 0.5 0.9
v -0.9 0.6 0.9
v -1.9 0.3 0.8
v -1.9 0.5 0.8
v -1.8 0.3 0.8
v -1.8 0.5 0.8
v -1.8 0.6 0.8
v -1.8 1.5 0.8
v -1.7 0.6 0.8
v -1.7 0.9 0.8
v -0.9 0.6 0.8
v -0.9 0.9 0.8
v -0.8 0.3 0.8
v -0.8 0.5 0.8
v -0.8 0.6 0.8
v -0.8 1.5 0.8
v -0.7 0.3 0.8
v -0.7 0.5 0.8
v -0.6 0.3 0.8
v -0.6 0.5 0.8
v -0.5 0.3 0.8
v -0.5 0.5 0.8
v 0.5 0.3 0.8
v 0.5 0.5 0.8
v 0.6 0.3 0.8
v 0.6 0.5 0.8
v 0.7 0.3 0.8
v 0.7 0.5 0.8
v 0.8 0.3 0.8
v 0.8 0.5 0.8
v 1.2 0.5 0.8
v 1.2 0.6 0.8
v 1.3 0.5 0.8
v 1.3 0.6 0.8
v 1.8 0.3 0.8
v 1.8 0.5 0.8
v 1.9 0.3 0.8
v 1.9 0.5 0.8
v -1.8 0.3 0.7
v -1.8 0.5 0.7
v -1.7 0.6 0.7
v -1.7 0.9 0.7
v -0.9 0.6 0.7
v -0.9 0.9 0.7
v -0.8 0.3 0.7
v -0.8 0.5 0.7
v -0.5 0.3 0.7
v -0.5 0.5 0.7
v 0.5 0.3 0.7
v 0.5 0.5 0.7
v 0.8 0.3 0.7
v 0.8 0.5 0.7
v 1.8 0.3 0.7
v 1.8 0.5 0.7
v -1.9 0.3 -0.5
v -1.9 0.5 -0.5
v -1.8 0.3 -0.5
v -1.8 0.5 -0.5
v -0.8 0.3 -0.5
v -0.8 0.5 -0.5
v -0.7 0.3 -0.5
v -0.7 0.5 -0.5
v -0.6 0.3 -0.5
v -0.6 0.5 -0.5
v -0.5 0.3 -0.5
v -0.5 0.5 -0.5
v 0.5 0.3 -0.5
v 0.5 0.5 -0.5
v 0.6 0.3 -0.5
v 0.6 0.5 -0.5
v 0.7 0.3 -0.5
v 0.7 0.5 -0.5
v 0.8 0.3 -0.5
v 0.8 0.5 -0.5
v 1.8 0.3 -0.5
v 1.8 0.5 -0.5
v 1.9 0.3 -0.5
v 1.9 0.5 -0.5
v -1.8 0.3 -0.6
v -1.8 0.5 -0.6
v -0.8 0.3 -0.6
v -0.8 0.5 -0.6
v -0.5 0.3 -0.6
v -0.5 0.5 -0.6
v 0.5 0.3 -0.6
v 0.5 0.5 -0.6
v 0.8 0.3 -0.6
v 0.8 0.5 -0.6
v 1.8 0.3 -0.6
v 1.8 0.5 -0.6
v 0.8 0.9 -1.2
v 0.8 1 -1.2
v 0.9 0.9 -1.2
v 0.9 1 -1.2
v 1.7 1.2 -1.2
v 1.7 1.3 -1.2
v 1.8 1.2 -1.2
v 1.8 1.3 -1.2
v -1.6 1.5 -1.3
v -1.6 1.6 -1.3
v -1.5 1.4 -1.3
v -1.5 1.5 -1.3
v -1.5 1.6 -1.3
v -1.4 1.3 -1.3
v -1.4 1.4 -1.3
v -1.4 1.5 -1.3
v -1.3 1.2 -1.3
v -1.3 1.3 -1.3
v -1.3 1.4 -1.3
v -1.2 1.1 -1.3
v -1.2 1.2 -1.3
v -1.2 1.3 -1.3
v -1.1 0.9 -1.3
v -1.1 1 -1.3
v -1.1 1.1 -1.3
v -1.1 1.2 -1.3
v -1 0.8 -1.3
v -1 0.9 -1.3
v -1 1 -1.3
v -1 1.1 -1.3
v -0.9 0.8 -1.3
v -0.9 0.9 -1.3
v -0.9 1 -1.3
v -0.9 1.1 -1.3
v -0.8 0.9 -1.3
v -0.8 1 -1.3
v -1 0.9 -1.4
v -1 1 -1.4
v -0.9 0.9 -1.4
v -0.9 1 -1.4
v 1.8 0.8 -1.4
v 1.8 0.9 -1.4
v 1.9 0.8 -1.4
v 1.9 0.9 -1.4
v 0.9 1.3 -1.5
v 0.9 1.4 -1.5
v 1 1.3 -1.5
v 1 1.4 -1.5
v 0.7 0.9 -1.6
v 0.7 1 -1.6
v 0.8 0.9 -1.6
v 0.8 1 -1.6
v 0.9 0.8 -1.6
v 0.9 0.9 -1.6
v 1 0.7 -1.6
v 1 0.8 -1.6
v 1 0.9 -1.6
v 1 1.4 -1.6
v 1 1.5 -1.6
v 1.1 0.7 -1.6
v 1.1 0.8 -1.6
v 1.1 1.4 -1.6
v 1.1 1.5 -1.6
v 1.5 0.7 -1.6
v 1.5 0.8 -1.6
v 1.5 1.3 -1.6
v 1.5 1.5 -1.6
v 1.6 0.7 -1.6
v 1.6 0.8 -1.6
v 1.6 0.9 -1.6
v 1.6 1.4 -1.6
v 1.6 1.5 -1.6
v 1.7 0.8 -1.6
v 1.7 0.9 -1.6
v 1.7 1.3 -1.6
v 1.7 1.4 -1.6
v 1.8 1.2 -1.6
v 1.8 1.3 -1.6
v 1.9 1.2 -1.6
v 1.9 1.3 -1.6
v -1.9 1.1 -1.7
v -1.9 1.2 -1.7
v -1.8 1 -1.7
v -1.8 1.1 -1.7
v -1.8 1.2 -1.7
v -1.7 0.9 -1.7
v -1.7 1 -1.7
v -1.7 1.1 -1.7
v -1.6 0.8 -1.7
v -1.6 0.9 -1.7
v -1.6 1 -1.7
v -1.5 0.6 -1.7
v -1.5 0.7 -1.7
v -1.5 0.8 -1.7
v -1.5 0.9 -1.7
v -1.4 0.5 -1.7
v -1.4 0.6 -1.7
v -1.4 0.7 -1.7
v -1.4 0.8 -1.7
v -1.3 0.5 -1.7
v -1.3 0.6 -1.7
v -1.3 0.7 -1.7
v -1.3 0.8 -1.7
v -1.2 0.6 -1.7
v -1.2 0.7 -1.7
v 0.8 0.9 -1.7
v 0.8 1 -1.7
v 0.9 0.9 -1.7
v 0.9 1 -1.7
v 0.9 1.3 -1.7
v 1 0.8 -1.7
v 1 0.9 -1.7
v 1 1 -1.7
v 1 1.3 -1.7
v 1 1.4 -1.7
v 1.1 0.7 -1.7
v 1.1 0.8 -1.7
v 1.1 0.9 -1.7
v 1.1 1.3 -1.7
v 1.1 1.4 -1.7
v 1.1 1.5 -1.7
v 1.5 0.7 -1.7
v 1.5 0.8 -1.7
v 1.5 0.9 -1.7
v 1.5 1.4 -1.7
v 1.5 1.5 -1.7
v 1.6 0.8 -1.7
v 1.6 0.9 -1.7
v 1.6 1.2 -1.7
v 1.7 0.9 -1.7
v 1.7 1.2 -1.7
v 1.7 1.3 -1.7
v 1.8 1.2 -1.7
v 1.8 1.3 -1.7
v -1.9 0.3 -1.8
v -1.9 0.5 -1.8
v -1.8 0.3 -1.8
v -1.8 0.5 -1.8
v -1.4 0.6 -1.8
v -1.4 0.7 -1.8
v -1.3 0.6 -1.8
v -1.3 0.7 -1.8
v -0.8 0.3 -1.8
v -0.8 0.5 -1.8
v -0.7 0.3 -1.8
v -0.7 0.5 -1.8
v -0.6 0.3 -1.8
v -0.6 0.5 -1.8
v -0.5 0.3 -1.8
v -0.5 0.5 -1.8
v 0.4 1.1 -1.8
v 0.4 1.3 -1.8
v 0.5 0.3 -1.8
v 0.5 0.5 -1.8
v 0.6 0.3 -1.8
v 0.6 0.5 -1.8
v 0.6 1.1 -1.8
v 0.6 1.3 -1.8
v 0.7 0.3 -1.8
v 0.7 0.5 -1.8
v 0.8 0.3 -1.8
v 0.8 0.5 -1.8
v 0.9 0.9 -1.8
v 0.9 1 -1.8
v 1 0.9 -1.8
v 1 1 -1.8
v 1 1.1 -1.8
v 1 1.3 -1.8
v 1.1 0.8 -1.8
v 1.1 0.9 -1.8
v 1.1 1.3 -1.8
v 1.1 1.4 -1.8
v 1.3 1 -1.8
v 1.3 1.1 -1.8
v 1.3 1.2 -1.8
v 1.5 0.8 -1.8
v 1.5 0.9 -1.8
v 1.5 1.3 -1.8
v 1.5 1.4 -1.8
v 1.6 0.9 -1.8
v 1.6 1.1 -1.8
v 1.6 1.2 -1.8
v 1.6 1.3 -1.8
v 1.7 1.2 -1.8
v 1.7 1.3 -1.8
v 1.8 0.3 -1.8
v 1.8 0.5 -1.8
v 1.9 0.3 -1.8
v 1.9 0.5 -1.8
v -1.8 0.3 -1.9
v -1.8 0.5 -1.9
v -0.8 0.3 -1.9
v -0.8 0.5 -1.9
v -0.5 0.3 -1.9
v -0.5 0.5 -1.9
v 0.5 0.3 -1.9
v 0.5 0.5 -1.9
v 0.8 0.3 -1.9
v 0.8 0.5 -1.9
v 1 1 -1.9
v 1 1.1 -1.9
v 1.3 1 -1.9
v 1.3 1.1 -1.9
v 1.3 1.2 -1.9
v 1.6 1.1 -1.9
v 1.6 1.2 -1.9
v 1.8 0.3 -1.9
v 1.8 0.5 -1.9
v -1.8 0.3 1.9
v -0.8 0.3 1.9
v -0.5 0.3 1.9
v 0.5 0.3 1.9
v 0.8 0.3 1.9
v 1.8 0.3 1.9
v -1.9 0.3 1.8
v -1.8 0.3 1.8
v -0.8 0.3 1.8
v -0.7 0.3 1.8
v -0.6 0.3 1.8
v -0.5 0.3 1.8
v 0.5 0.3 1.8
v 0.6 0.3 1.8
v 0.7 0.3 1.8
v 0.8 0.3 1.8
v 1.8 0.3 1.8
v 1.9 0.3 1.8
v -1.9 0.3 0.8
v -1.8 0.3 0.8
v -0.8 0.3 0.8
v -0.7 0.3 0.8
v -0.6 0.3 0.8
v -0.5 0.3 0.8
v 0.5 0.3 0.8
v 0.6 0.3 0.8
v 0.7 0.3 0.8
v 0.8 0.3 0.8
v 1.8 0.3 0.8
v 1.9 0.3 0.8
v -1.8 0.3 0.7
v -0.8 0.3 0.7
v -0.5 0.3 0.7
v 0.5 0.3 0.7
v 0.8 0.3 0.7
v 1.8 0.3 0.7
v -1.8 0.3 0.6
v -0.8 0.3 0.6
v -0.5 0.3 0.6
v 0.5 0.3 0.6
v 0.8 0.3 0.6
v 1.8 0.3 0.6
v -1.9 0.3 0.5
v -1.8 0.3 0.5
v -0.8 0.3 0.5
v -0.7 0.3 0.5
v -0.6 0.3 0.5
v -0.5 0.3 0.5
v 0.5 0.3 0.5
v 0.6 0.3 0.5
v 0.7 0.3 0.5
v 0.8 0.3 0.5
v 1.8 0.3 0.5
v 1.9 0.3 0.5
v -1.9 0.3 -0.5
v -1.8 0.3 -0.5
v -0.8 0.3 -0.5
v -0.7 0.3 -0.5
v -0.6 0.3 -0.5
v -0.5 0.3 -0.5
v 0.5 0.3 -0.5
v 0.6 0.3 -0.5
v 0.7 0.3 -0.5
v 0.8 0.3 -0.5
v 1.8 0.3 -0.5
v 1.9 0.3 -0.5
v -1.8 0.3 -0.6
v -0.8 0.3 -0.6
v -0.5 0.3 -0.6
v 0.5 0.3 -0.6
v 0.8 0.3 -0.6
v 1.8 0.3 -0.6
v -1.8 0.3 -0.7
v -0.8 0.3 -0.7
v -0.5 0.3 -0.7
v 0.5 0.3 -0.7
v 0.8 0.3 -0.7
v 1.8 0.3 -0.7
v -1.9 0.3 -0.8
v -1.8 0.3 -0.8
v -0.8 0.3 -0.8
v -0.7 0.3 -0.8
v -0.6 0.3 -0.8
v -0.5 0.3 -0.8
v 0.5 0.3 -0.8
v 0.6 0.3 -0.8
v 0.7 0.3 -0.8
v 0.8 0.3 -0.8
v 1.8 0.3 -0.8
v 1.9 0.3 -0.8
v -1.9 0.3 -1.8
v -1.8 0.3 -1.8
v -0.8 0.3 -1.8
v -0.7 0.3 -1.8
v -0.6 0.3 -1.8
v -0.5 0.3 -1.8
v 0.5 0.3 -1.8
v 0.6 0.3 -1.8
v 0.7 0.3 -1.8
v 0.8 0.3 -1.8
v 1.8 0.3 -1.8
v 1.9 0.3 -1.8
v -1.8 0.3 -1.9
v -0.8 0.3 -1.9
v -0.5 0.3 -1.9
v 0.5 0.3 -1.9
v 0.8 0.3 -1.9
v 1.8 0.3 -1.9
v -1.8 0.6 1.8
v -0.8 0.6 1.8
v -1.7 0.6 1.6
v -1.5 0.6 1.6
v -1.1 0.6 1.6
v -0.9 0.6 1.6
v 0.9 0.6 1.6
v 1 0.6 1.6
v 0.9 0.6 1.5
v 1 0.6 1.5
v -1.7 0.6 0.9
v -1.5 0.6 0.9
v -1.1 0.6 0.9
v -0.9 0.6 0.9
v -1.8 0.6 0.8
v -1.7 0.6 0.8
v -0.9 0.6 0.8
v -0.8 0.6 0.8
v -1.7 0.6 0.7
v -0.9 0.6 0.7
v -1.4 0.6 -1.5
v -1.3 0.6 -1.5
v -1.5 0.6 -1.6
v -1.4 0.6 -1.6
v -1.3 0.6 -1.6
v -1.2 0.6 -1.6
v -1.5 0.6 -1.7
v -1.4 0.6 -1.7
v -1.3 0.6 -1.7
v -1.2 0.6 -1.7
v -1.4 0.6 -1.8
v -1.3 0.6 -1.8
v -1.7 0.7 1.9
v -0.9 0.7 1.9
v -1.7 0.7 1.8
v -0.9 0.7 1.8
v 0.9 0.7 1.7
v 1 0.7 1.7
v 0.8 0.7 1.6
v 0.9 0.7 1.6
v 1 0.7 1.6
v 1.1 0.7 1.6
v -1.9 0.7 1.5
v -1.8 0.7 1.5
v -0.8 0.7 1.5
v -0.7 0.7 1.5
v 0.8 0.7 1.5
v 0.9 0.7 1.5
v 1 0.7 1.5
v 1.1 0.7 1.5
v -1.9 0.7 1.4
v -1.8 0.7 1.4
v -0.8 0.7 1.4
v -0.7 0.7 1.4
v 0.9 0.7 1.4
v 1 0.7 1.4
v -1.9 0.7 1.3
v -1.8 0.7 1.3
v -0.8 0.7 1.3
v -0.7 0.7 1.3
v -1.9 0.7 1.2
v -1.8 0.7 1.2
v -0.8 0.7 1.2
v -0.7 0.7 1.2
v -1.9 0.7 1.1
v -1.8 0.7 1.1
v -0.8 0.7 1.1
v -0.7 0.7 1.1
v -1.9 0.7 1
v -1.8 0.7 1
v -0.8 0.7 1
v -0.7 0.7 1
v 1.1 0.7 -1.1
v 1.5 0.7 -1.1
v 1 0.7 -1.2
v 1.1 0.7 -1.2
v 1.5 0.7 -1.2
v 1.6 0.7 -1.2
v 1 0.7 -1.6
v 1.1 0.7 -1.6
v 1.5 0.7 -1.6
v 1.6 0.7 -1.6
v 1.1 0.7 -1.7
v 1.5 0.7 -1.7
v -1.8 0.8 1.9
v -1.7 0.8 1.9
v -0.9 0.8 1.9
v -0.8 0.8 1.9
v -1.8 0.8 1.8
v -1.7 0.8 1.8
v -0.9 0.8 1.8
v -0.8 0.8 1.8
v 1.1 0.8 -1
v 1.5 0.8 -1
v 1 0.8 -1.1
v 1.1 0.8 -1.1
v 1.5 0.8 -1.1
v 1.6 0.8 -1.1
v -1 0.8 -1.2
v -0.9 0.8 -1.2
v 0.9 0.8 -1.2
v 1 0.8 -1.2
v 1.1 0.8 -1.2
v 1.5 0.8 -1.2
v 1.6 0.8 -1.2
v 1.7 0.8 -1.2
v -1 0.8 -1.3
v -0.9 0.8 -1.3
v 1.8 0.8 -1.3
v 1.9 0.8 -1.3
v 1.8 0.8 -1.4
v 1.9 0.8 -1.4
v -1.6 0.8 -1.6
v -1.5 0.8 -1.6
v 0.9 0.8 -1.6
v 1 0.8 -1.6
v 1.1 0.8 -1.6
v 1.5 0.8 -1.6
v 1.6 0.8 -1.6
v 1.7 0.8 -1.6
v -1.6 0.8 -1.7
v -1.5 0.8 -1.7
v 1 0.8 -1.7
v 1.1 0.8 -1.7
v 1.5 0.8 -1.7
v 1.6 0.8 -1.7
v 1.1 0.8 -1.8
v 1.5 0.8 -1.8
v -1.4 0.9 1.9
v -1.2 0.9 1.9
v -1.4 0.9 1.8
v -1.2 0.9 1.8
v 1.7 0.9 1.2
v 1.8 0.9 1.2
v 1.7 0.9 1.1
v 1.8 0.9 1.1
v 0.9 0.9 -1
v 1 0.9 -1
v 1.1 0.9 -1
v 1.5 0.9 -1
v 1.6 0.9 -1
v -1 0.9 -1.1
v -0.9 0.9 -1.1
v 0.8 0.9 -1.1
v 0.9 0.9 -1.1
v 1 0.9 -1.1
v 1.1 0.9 -1.1
v 1.5 0.9 -1.1
v 1.6 0.9 -1.1
v 1.7 0.9 -1.1
v -1.1 0.9 -1.2
v -1 0.9 -1.2
v -0.9 0.9 -1.2
v -0.8 0.9 -1.2
v 0.7 0.9 -1.2
v 0.8 0.9 -1.2
v 0.9 0.9 -1.2
v 1 0.9 -1.2
v 1.6 0.9 -1.2
v 1.7 0.9 -1.2
v -1.1 0.9 -1.3
v -1 0.9 -1.3
v -0.9 0.9 -1.3
v -0.8 0.9 -1.3
v -1 0.9 -1.4
v -0.9 0.9 -1.4
v -1.7 0.9 -1.6
v -1.6 0.9 -1.6
v 0.7 0.9 -1.6
v 0.8 0.9 -1.6
v 0.9 0.9 -1.6
v 1 0.9 -1.6
v 1.6 0.9 -1.6
v 1.7 0.9 -1.6
v -1.7 0.9 -1.7
v -1.6 0.9 -1.7
v 0.8 0.9 -1.7
v 0.9 0.9 -1.7
v 1 0.9 -1.7
v 1.1 0.9 -1.7
v 1.5 0.9 -1.7
v 1.6 0.9 -1.7
v 1.7 0.9 -1.7
v 0.9 0.9 -1.8
v 1 0.9 -1.8
v 1.1 0.9 -1.8
v 1.5 0.9 -1.8
v 1.6 0.9 -1.8
v 1.7 1 1.3
v 1.8 1 1.3
v 1.6 1 1.2
v 1.7 1 1.2
v 1.8 1 1.2
v 1.9 1 1.2
v 1.6 1 1.1
v 1.7 1 1.1
v 1.8 1 1.1
v 1.9 1 1.1
v 1.7 1 1
v 1.8 1 1
v 1 1 -0.9
v 1.3 1 -0.9
v 1 1 -1
v 1.3 1 -1
v -1.8 1 -1.6
v -1.7 1 -1.6
v -1.8 1 -1.7
v -1.7 1 -1.7
v 1 1 -1.8
v 1.3 1 -1.8
v 1 1 -1.9
v 1.3 1 -1.9
v 1.3 1.1 -0.9
v 1.6 1.1 -0.9
v 1.3 1.1 -1
v 1.6 1.1 -1
v -1.2 1.1 -1.2
v -1.1 1.1 -1.2
v -1.2 1.1 -1.3
v -1.1 1.1 -1.3
v -1.9 1.1 -1.6
v -1.8 1.1 -1.6
v 0.4 1.1 -1.6
v 0.6 1.1 -1.6
v -1.9 1.1 -1.7
v -1.8 1.1 -1.7
v 0.4 1.1 -1.8
v 0.6 1.1 -1.8
v 1.3 1.1 -1.8
v 1.6 1.1 -1.8
v 1.3 1.1 -1.9
v 1.6 1.1 -1.9
v 1.6 1.2 -1
v 1.7 1.2 -1
v 1.6 1.2 -1.1
v 1.7 1.2 -1.1
v 1.8 1.2 -1.1
v -1.3 1.2 -1.2
v -1.2 1.2 -1.2
v 1.7 1.2 -1.2
v 1.8 1.2 -1.2
v 1.9 1.2 -1.2
v -1.3 1.2 -1.3
v -1.2 1.2 -1.3
v 1.7 1.2 -1.6
v 1.8 1.2 -1.6
v 1.9 1.2 -1.6
v 1.6 1.2 -1.7
v 1.7 1.2 -1.7
v 1.8 1.2 -1.7
v 1.6 1.2 -1.8
v 1.7 1.2 -1.8
v -1.7 1.3 1.9
v -0.9 1.3 1.9
v -1.7 1.3 1.8
v -0.9 1.3 1.8
v -1.4 1.3 -1.2
v -1.3 1.3 -1.2
v -1.4 1.3 -1.3
v -1.3 1.3 -1.3
v -1.5 1.4 -1.2
v -1.4 1.4 -1.2
v -1.5 1.4 -1.3
v -1.4 1.4 -1.3
v -1.6 1.5 -1.2
v -1.5 1.5 -1.2
v -1.6 1.5 -1.3
v -1.5 1.5 -1.3
v -1.8 0.5 1.9
v -0.8 0.5 1.9
v -0.5 0.5 1.9
v 0.5 0.5 1.9
v 0.8 0.5 1.9
v 1.8 0.5 1.9
v -1.9 0.5 1.8
v -1.8 0.5 1.8
v -0.8 0.5 1.8
v -0.7 0.5 1.8
v -0.6 0.5 1.8
v -0.5 0.5 1.8
v 0.5 0.5 1.8
v 0.6 0.5 1.8
v 0.7 0.5 1.8
v 0.8 0.5 1.8
v 1.8 0.5 1.8
v 1.9 0.5 1.8
v 1.6 0.5 1.7
v 1.7 0.5 1.7
v -1.7 0.5 1.6
v -1.5 0.5 1.6
v -1.1 0.5 1.6
v -0.9 0.5 1.6
v 1.6 0.5 1.6
v 1.7 0.5 1.6
v -1.7 0.5 0.9
v -1.5 0.5 0.9
v -1.1 0.5 0.9
v -0.9 0.5 0.9
v 1.2 0.5 0.9
v 1.3 0.5 0.9
v -1.9 0.5 0.8
v -1.8 0.5 0.8
v -0.8 0.5 0.8
v -0.7 0.5 0.8
v -0.6 0.5 0.8
v -0.5 0.5 0.8
v 0.5 0.5 0.8
v 0.6 0.5 0.8
v 0.7 0.5 0.8
v 0.8 0.5 0.8
v 1.2 0.5 0.8
v 1.3 0.5 0.8
v 1.8 0.5 0.8
v 1.9 0.5 0.8
v -1.8 0.5 0.7
v -0.8 0.5 0.7
v -0.5 0.5 0.7
v 0.5 0.5 0.7
v 0.8 0.5 0.7
v 1.8 0.5 0.7
v -1.8 0.5 0.6
v -0.8 0.5 0.6
v -0.5 0.5 0.6
v 0.5 0.5 0.6
v 0.8 0.5 0.6
v 1.8 0.5 0.6
v -1.9 0.5 0.5
v -1.8 0.5 0.5
v -0.8 0.5 0.5
v -0.7 0.5 0.5
v -0.6 0.5 0.5
v -0.5 0.5 0.5
v 0.5 0.5 0.5
v 0.6 0.5 0.5
v 0.7 0.5 0.5
v 0.8 0.5 0.5
v 1.8 0.5 0.5
v 1.9 0.5 0.5
v -1.9 0.5 -0.5
v -1.8 0.5 -0.5
v -0.8 0.5 -0.5
v -0.7 0.5 -0.5
v -0.6 0.5 -0.5
v -0.5 0.5 -0.5
v 0.5 0.5 -0.5
v 0.6 0.5 -0.5
v 0.7 0.5 -0.5
v 0.8 0.5 -0.5
v 1.8 0.5 -0.5
v 1.9 0.5 -0.5
v -1.8 0.5 -0.6
v -0.8 0.5 -0.6
v -0.5 0.5 -0.6
v 0.5 0.5 -0.6
v 0.8 0.5 -0.6
v 1.8 0.5 -0.6
v -1.8 0.5 -0.7
v -0.8 0.5 -0.7
v -0.5 0.5 -0.7
v 0.5 0.5 -0.7
v 0.8 0.5 -0.7
v 1.8 0.5 -0.7
v -1.9 0.5 -0.8
v -1.8 0.5 -0.8
v -0.8 0.5 -0.8
v -0.7 0.5 -0.8
v -0.6 0.5 -0.8
v -0.5 0.5 -0.8
v 0.5 0.5 -0.8
v 0.6 0.5 -0.8
v 0.7 0.5 -0.8
v 0.8 0.5 -0.8
v 1.8 0.5 -0.8
v 1.9 0.5 -0.8
v -1.4 0.5 -1.6
v -1.3 0.5 -1.6
v -1.4 0.5 -1.7
v -1.3 0.5 -1.7
v -1.9 0.5 -1.8
v -1.8 0.5 -1.8
v -0.8 0.5 -1.8
v -0.7 0.5 -1.8
v -0.6 0.5 -1.8
v -0.5 0.5 -1.8
v 0.5 0.5 -1.8
v 0.6 0.5 -1.8
v 0.7 0.5 -1.8
v 0.8 0.5 -1.8
v 1.8 0.5 -1.8
v 1.9 0.5 -1.8
v -1.8 0.5 -1.9
v -0.8 0.5 -1.9
v -0.5 0.5 -1.9
v 0.5 0.5 -1.9
v 0.8 0.5 -1.9
v 1.8 0.5 -1.9
v 1.6 0.6 1.7
v 1.7 0.6 1.7
v 1.6 0.6 1.6
v 1.7 0.6 1.6
v 1.2 0.6 0.9
v 1.3 0.6 0.9
v 1.2 0.6 0.8
v 1.3 0.6 0.8
v -1.4 0.7 -1.5
v -1.3 0.7 -1.5
v -1.5 0.7 -1.6
v -1.4 0.7 -1.6
v -1.3 0.7 -1.6
v -1.2 0.7 -1.6
v -1.5 0.7 -1.7
v -1.4 0.7 -1.7
v -1.3 0.7 -1.7
v -1.2 0.7 -1.7
v -1.4 0.7 -1.8
v -1.3 0.7 -1.8
v -1.7 0.8 1.9
v -0.9 0.8 1.9
v -1.7 0.8 1.8
v -0.9 0.8 1.8
v 0.9 0.8 1.7
v 1 0.8 1.7
v 0.8 0.8 1.6
v 0.9 0.8 1.6
v 1 0.8 1.6
v 1.1 0.8 1.6
v 0.8 0.8 1.5
v 0.9 0.8 1.5
v 1 0.8 1.5
v 1.1 0.8 1.5
v 0.9 0.8 1.4
v 1 0.8 1.4
v -1.4 0.8 -1.6
v -1.3 0.8 -1.6
v -1.4 0.8 -1.7
v -1.3 0.8 -1.7
v 0.9 0.9 1.6
v 1 0.9 1.6
v 0.9 0.9 1.5
v 1 0.9 1.5
v -1.7 0.9 0.8
v -0.9 0.9 0.8
v -1.7 0.9 0.7
v -0.9 0.9 0.7
v 1.8 0.9 -1.3
v 1.9 0.9 -1.3
v 1.8 0.9 -1.4
v 1.9 0.9 -1.4
v -1.6 0.9 -1.6
v -1.5 0.9 -1.6
v -1.6 0.9 -1.7
v -1.5 0.9 -1.7
v 0.9 1 -1
v 1 1 -1
v -1 1 -1.1
v -0.9 1 -1.1
v 0.8 1 -1.1
v 0.9 1 -1.1
v 1 1 -1.1
v -1.1 1 -1.2
v -1 1 -1.2
v -0.9 1 -1.2
v -0.8 1 -1.2
v 0.7 1 -1.2
v 0.8 1 -1.2
v 0.9 1 -1.2
v -1.1 1 -1.3
v -1 1 -1.3
v -0.9 1 -1.3
v -0.8 1 -1.3
v -1 1 -1.4
v -0.9 1 -1.4
v -1.7 1 -1.6
v -1.6 1 -1.6
v 0.7 1 -1.6
v 0.8 1 -1.6
v 0.9 1 -1.6
v -1.7 1 -1.7
v -1.6 1 -1.7
v 0.8 1 -1.7
v 0.9 1 -1.7
v 1 1 -1.7
v 0.9 1 -1.8
v 1 1 -1.8
v -1.9 1.1 1.5
v -1.8 1.1 1.5
v -0.8 1.1 1.5
v -0.7 1.1 1.5
v 1.7 1.1 1.3
v 1.8 1.1 1.3
v 1.6 1.1 1.2
v 1.7 1.1 1.2
v 1.8 1.1 1.2
v 1.9 1.1 1.2
v 1.6 1.1 1.1
v 1.7 1.1 1.1
v 1.8 1.1 1.1
v 1.9 1.1 1.1
v -1.9 1.1 1
v -1.8 1.1 1
v -0.8 1.1 1
v -0.7 1.1 1
v 1.7 1.1 1
v 1.8 1.1 1
v 1 1.1 -0.9
v 1.3 1.1 -0.9
v 1 1.1 -1
v 1.3 1.1 -1
v -1 1.1 -1.2
v -0.9 1.1 -1.2
v -1 1.1 -1.3
v -0.9 1.1 -1.3
v -1.8 1.1 -1.6
v -1.7 1.1 -1.6
v -1.8 1.1 -1.7
v -1.7 1.1 -1.7
v 1 1.1 -1.8
v 1.3 1.1 -1.8
v 1 1.1 -1.9
v 1.3 1.1 -1.9
v -1.4 1.2 1.9
v -1.2 1.2 1.9
v -1.4 1.2 1.8
v -1.2 1.2 1.8
v 1.7 1.2 1.2
v 1.8 1.2 1.2
v 1.7 1.2 1.1
v 1.8 1.2 1.1
v 1.3 1.2 -0.9
v 1.6 1.2 -0.9
v 1.3 1.2 -1
v 1.6 1.2 -1
v -1.2 1.2 -1.2
v -1.1 1.2 -1.2
v -1.2 1.2 -1.3
v -1.1 1.2 -1.3
v -1.9 1.2 -1.6
v -1.8 1.2 -1.6
v -1.9 1.2 -1.7
v -1.8 1.2 -1.7
v 1.3 1.2 -1.8
v 1.6 1.2 -1.8
v 1.3 1.2 -1.9
v 1.6 1.2 -1.9
v -1.8 1.3 1.9
v -1.7 1.3 1.9
v -0.9 1.3 1.9
v -0.8 1.3 1.9
v -1.8 1.3 1.8
v -1.7 1.3 1.8
v -0.9 1.3 1.8
v -0.8 1.3 1.8
v 1 1.3 -1
v 1.1 1.3 -1
v 1.5 1.3 -1
v 1.6 1.3 -1
v 1.7 1.3 -1
v 0.9 1.3 -1.1
v 1 1.3 -1.1
v 1.1 1.3 -1.1
v 1.5 1.3 -1.1
v 1.6 1.3 -1.1
v 1.7 1.3 -1.1
v 1.8 1.3 -1.1
v -1.3 1.3 -1.2
v -1.2 1.3 -1.2
v 0.9 1.3 -1.2
v 1 1.3 -1.2
v 1.6 1.3 -1.2
v 1.7 1.3 -1.2
v 1.8 1.3 -1.2
v 1.9 1.3 -1.2
v -1.3 1.3 -1.3
v -1.2 1.3 -1.3
v 0.9 1.3 -1.5
v 1 1.3 -1.5
v 0.4 1.3 -1.6
v 0.6 1.3 -1.6
v 1.5 1.3 -1.6
v 1.7 1.3 -1.6
v 1.8 1.3 -1.6
v 1.9 1.3 -1.6
v 0.9 1.3 -1.7
v 1 1.3 -1.7
v 1.1 1.3 -1.7
v 1.6 1.3 -1.7
v 1.7 1.3 -1.7
v 1.8 1.3 -1.7
v 0.4 1.3 -1.8
v 0.6 1.3 -1.8
v 1 1.3 -1.8
v 1.1 1.3 -1.8
v 1.5 1.3 -1.8
v 1.6 1.3 -1.8
v 1.7 1.3 -1.8
v -1.7 1.4 1.9
v -0.9 1.4 1.9
v -1.7 1.4 1.8
v -0.9 1.4 1.8
v 1.1 1.4 -1
v 1.5 1.4 -1
v 1 1.4 -1.1
v 1.1 1.4 -1.1
v 1.5 1.4 -1.1
v 1.6 1.4 -1.1
v -1.4 1.4 -1.2
v -1.3 1.4 -1.2
v 0.9 1.4 -1.2
v 1 1.4 -1.2
v 1.1 1.4 -1.2
v 1.5 1.4 -1.2
v 1.6 1.4 -1.2
v 1.7 1.4 -1.2
v -1.4 1.4 -1.3
v -1.3 1.4 -1.3
v 0.9 1.4 -1.5
v 1 1.4 -1.5
v 1 1.4 -1.6
v 1.1 1.4 -1.6
v 1.6 1.4 -1.6
v 1.7 1.4 -1.6
v 1 1.4 -1.7
v 1.1 1.4 -1.7
v 1.5 1.4 -1.7
v 1.1 1.4 -1.8
v 1.5 1.4 -1.8
v -1.8 1.5 1.8
v -0.8 1.5 1.8
v -1.8 1.5 1.6
v -1.5 1.5 1.6
v -1.1 1.5 1.6
v -0.8 1.5 1.6
v -1.8 1.5 1.3
v -1.5 1.5 1.3
v -1.1 1.5 1.3
v -0.8 1.5 1.3
v -1.8 1.5 0.8
v -0.8 1.5 0.8
v 1.1 1.5 -1.1
v 1.5 1.5 -1.1
v -1.5 1.5 -1.2
v -1.4 1.5 -1.2
v 1 1.5 -1.2
v 1.1 1.5 -1.2
v 1.5 1.5 -1.2
v 1.6 1.5 -1.2
v -1.5 1.5 -1.3
v -1.4 1.5 -1.3
v 1 1.5 -1.6
v 1.1 1.5 -1.6
v 1.5 1.5 -1.6
v 1.6 1.5 -1.6
v 1.1 1.5 -1.7
v 1.5 1.5 -1.7
v -1.6 1.6 1.6
v -1.5 1.6 1.6
v -1.1 1.6 1.6
v -1 1.6 1.6
v -1.6 1.6 1.3
v -1.5 1.6 1.3
v -1.1 1.6 1.3
v -1 1.6 1.3
v -1.6 1.6 -1.2
v -1.5 1.6 -1.2
v -1.6 1.6 -1.3
v -1.5 1.6 -1.3
v -1.7 1.7 1.6
v -1.6 1.7 1.6
v -1 1.7 1.6
v -0.9 1.7 1.6
v -1.7 1.7 1.3
v -1.6 1.7 1.3
v -1 1.7 1.3
v -0.9 1.7 1.3
v -1.8 1.8 1.6
v -1.7 1.8 1.6
v -0.9 1.8 1.6
v -0.8 1.8 1.6
v -1.8 1.8 1.3
v -1.7 1.8 1.3
v -0.9 1.8 1.3
v -0.8 1.8 1.3

# faces
f 7/4/1 2/4/1 1/4/1
f 8/4/1 2/4/1 7/4/1
f 9/4/1 4/4/1 3/4/1
f 10/4/1 4/4/1 9/4/1
f 11/4/1 6/4/1 5/4/1
f 12/4/1 6/4/1 11/4/1
f 19/6/1 14/6/1 13/6/1
f 19/8/1 15/8/1 14/8/1
f 20/6/1 16/6/1 15/6/1
f 20/8/1 15/8/1 19/8/1
f 21/8/1 17/8/1 16/8/1
f 21/6/1 16/6/1 20/6/1
f 22/6/1 18/6/1 17/6/1
f 22/8/1 17/8/1 21/8/1
f 23/6/1 21/6/1 20/6/1
f 23/6/1 20/6/1 19/6/1
f 23/6/1 22/6/1 21/6/1
f 23/6/1 19/6/1 13/6/1
f 24/6/1 18/6/1 22/6/1
f 24/6/1 22/6/1 23/6/1
f 27/5/1 26/5/1 25/5/1
f 28/5/1 26/5/1 27/5/1
f 41/4/1 30/4/1 29/4/1
f 42/4/1 30/4/1 41/4/1
f 43/4/1 32/4/1 31/4/1
f 44/4/1 32/4/1 43/4/1
f 45/4/1 34/4/1 33/4/1
f 46/4/1 34/4/1 45/4/1
f 47/4/1 36/4/1 35/4/1
f 48/4/1 36/4/1 47/4/1
f 49/4/1 38/4/1 37/4/1
f 50/4/1 38/4/1 49/4/1
f 51/4/1 40/4/1 39/4/1
f 52/4/1 40/4/1 51/4/1
f 55/6/1 54/6/1 53/6/1
f 56/6/1 54/6/1 55/6/1
f 57/6/1 54/6/1 56/6/1
f 58/6/1 54/6/1 57/6/1
f 59/6/1 54/6/1 58/6/1
f 60/6/1 54/6/1 59/6/1
f 62/6/1 55/6/1 53/6/1
f 65/6/1 55/6/1 62/6/1
f 66/6/1 54/6/1 60/6/1
f 67/5/1 64/5/1 63/5/1
f 68/5/1 64/5/1 67/5/1
f 69/8/1 62/8/1 61/8/1
f 70/6/1 65/6/1 62/6/1
f 70/8/1 62/8/1 69/8/1
f 70/6/1 66/6/1 65/6/1
f 71/6/1 66/6/1 70/6/1
f 72/6/1 66/6/1 71/6/1
f 73/6/1 66/6/1 72/6/1
f 74/6/1 54/6/1 66/6/1
f 74/6/1 66/6/1 73/6/1
f 75/6/1 73/6/1 72/6/1
f 76/6/1 73/6/1 75/6/1
f 79/8/1 78/8/1 77/8/1
f 80/8/1 78/8/1 79/8/1
f 85/8/1 84/8/1 83/8/1
f 86/8/1 84/8/1 85/8/1
f 87/6/1 82/6/1 81/6/1
f 88/6/1 82/6/1 87/6/1
f 91/5/1 90/5/1 89/5/1
f 92/5/1 90/5/1 91/5/1
f 95/8/1 94/8/1 93/8/1
f 96/8/1 94/8/1 95/8/1
f 99/5/1 98/5/1 97/5/1
f 100/5/1 98/5/1 99/5/1
f 103/5/1 102/5/1 101/5/1
f 104/5/1 102/5/1 103/5/1
f 107/3/1 106/3/1 105/3/1
f 108/3/1 106/3/1 107/3/1
f 111/5/1 110/5/1 109/5/1
f 112/5/1 110/5/1 111/5/1
f 116/3/1 114/3/1 113/3/1
f 117/3/1 114/3/1 116/3/1
f 119/3/1 116/3/1 115/3/1
f 120/3/1 116/3/1 119/3/1
f 121/3/1 118/3/1 117/3/1
f 122/3/1 118/3/1 121/3/1
f 123/3/1 121/3/1 120/3/1
f 124/3/1 121/3/1 123/3/1
f 127/3/1 126/3/1 125/3/1
f 128/3/1 126/3/1 127/3/1
f 131/5/1 130/5/1 129/5/1
f 132/5/1 130/5/1 131/5/1
f 135/5/1 134/5/1 133/5/1
f 136/5/1 134/5/1 135/5/1
f 139/5/1 138/5/1 137/5/1
f 140/5/1 138/5/1 139/5/1
f 143/8/1 142/8/1 141/8/1
f 144/8/1 142/8/1 143/8/1
f 147/3/1 146/3/1 145/3/1
f 148/3/1 146/3/1 147/3/1
f 151/6/1 150/6/1 149/6/1
f 152/6/1 150/6/1 151/6/1
f 156/3/1 154/3/1 153/3/1
f 157/3/1 154/3/1 156/3/1
f 159/3/1 156/3/1 155/3/1
f 160/3/1 156/3/1 159/3/1
f 161/3/1 158/3/1 157/3/1
f 162/3/1 158/3/1 161/3/1
f 163/3/1 161/3/1 160/3/1
f 164/3/1 161/3/1 163/3/1
f 167/6/1 166/6/1 165/6/1
f 168/6/1 166/6/1 167/6/1
f 171/8/1 170/8/1 169/8/1
f 172/8/1 171/8/1 169/8/1
f 173/8/1 172/8/1 169/8/1
f 174/8/1 172/8/1 173/8/1
f 177/6/1 176/6/1 175/6/1
f 178/6/1 176/6/1 177/6/1
f 185/4/1 180/4/1 179/4/1
f 186/4/1 180/4/1 185/4/1
f 187/4/1 182/4/1 181/4/1
f 188/4/1 182/4/1 187/4/1
f 189/4/1 184/4/1 183/4/1
f 190/4/1 184/4/1 189/4/1
f 203/4/1 192/4/1 191/4/1
f 204/4/1 192/4/1 203/4/1
f 205/4/1 194/4/1 193/4/1
f 206/4/1 194/4/1 205/4/1
f 207/4/1 196/4/1 195/4/1
f 208/4/1 196/4/1 207/4/1
f 209/4/1 198/4/1 197/4/1
f 210/4/1 198/4/1 209/4/1
f 211/4/1 200/4/1 199/4/1
f 212/4/1 200/4/1 211/4/1
f 213/4/1 202/4/1 201/4/1
f 214/4/1 202/4/1 213/4/1
f 217/8/1 216/8/1 215/8/1
f 218/8/1 216/8/1 217/8/1
f 225/4/1 220/4/1 219/4/1
f 226/4/1 220/4/1 225/4/1
f 227/4/1 222/4/1 221/4/1
f 228/4/1 222/4/1 227/4/1
f 229/4/1 224/4/1 223/4/1
f 230/4/1 224/4/1 229/4/1
f 233/3/1 232/3/1 231/3/1
f 234/3/1 232/3/1 233/3/1
f 247/4/1 236/4/1 235/4/1
f 248/4/1 236/4/1 247/4/1
f 249/4/1 238/4/1 237/4/1
f 250/4/1 238/4/1 249/4/1
f 251/4/1 240/4/1 239/4/1
f 252/4/1 240/4/1 251/4/1
f 253/4/1 242/4/1 241/4/1
f 254/4/1 242/4/1 253/4/1
f 255/4/1 244/4/1 243/4/1
f 256/4/1 244/4/1 255/4/1
f 257/4/1 246/4/1 245/4/1
f 258/4/1 246/4/1 257/4/1
f 261/3/1 260/3/1 259/3/1
f 262/3/1 260/3/1 261/3/1
f 267/3/1 264/3/1 263/3/1
f 268/3/1 264/3/1 267/3/1
f 269/3/1 266/3/1 265/3/1
f 270/3/1 266/3/1 269/3/1
f 274/3/1 272/3/1 271/3/1
f 275/3/1 272/3/1 274/3/1
f 277/3/1 274/3/1 273/3/1
f 278/3/1 274/3/1 277/3/1
f 279/3/1 276/3/1 275/3/1
f 280/3/1 276/3/1 279/3/1
f 283/3/1 279/3/1 278/3/1
f 284/3/1 279/3/1 283/3/1
f 287/6/1 282/6/1 281/6/1
f 288/6/1 282/6/1 287/6/1
f 291/3/1 286/3/1 285/3/1
f 292/3/1 286/3/1 291/3/1
f 293/6/1 288/6/1 287/6/1
f 294/6/1 288/6/1 293/6/1
f 295/3/1 290/3/1 289/3/1
f 296/3/1 290/3/1 295/3/1
f 297/6/1 294/6/1 293/6/1
f 297/6/1 295/6/1 294/6/1
f 297/6/1 293/6/1 292/6/1
f 298/6/1 295/6/1 297/6/1
f 299/6/1 295/6/1 298/6/1
f 300/6/1 295/6/1 299/6/1
f 301/6/1 299/6/1 298/6/1
f 302/6/1 299/6/1 301/6/1
f 306/6/1 304/6/1 303/6/1
f 307/6/1 304/6/1 306/6/1
f 309/6/1 306/6/1 305/6/1
f 310/6/1 306/6/1 309/6/1
f 311/6/1 308/6/1 307/6/1
f 312/6/1 308/6/1 311/6/1
f 319/3/1 314/3/1 313/3/1
f 320/6/1 315/6/1 314/6/1
f 320/3/1 314/3/1 319/3/1
f 321/3/1 318/3/1 317/3/1
f 321/6/1 317/6/1 316/6/1
f 322/3/1 318/3/1 321/3/1
f 323/6/1 315/6/1 320/6/1
f 324/6/1 315/6/1 323/6/1
f 327/6/1 321/6/1 316/6/1
f 328/6/1 321/6/1 327/6/1
f 329/6/1 325/6/1 324/6/1
f 330/6/1 325/6/1 329/6/1
f 331/6/1 327/6/1 326/6/1
f 332/6/1 327/6/1 331/6/1
f 333/6/1 327/6/1 332/6/1
f 334/6/1 331/6/1 330/6/1
f 334/6/1 332/6/1 331/6/1
f 335/6/1 332/6/1 334/6/1
f 341/6/1 337/6/1 336/6/1
f 342/6/1 337/6/1 341/6/1
f 343/6/1 339/6/1 338/6/1
f 344/6/1 339/6/1 343/6/1
f 346/6/1 341/6/1 340/6/1
f 347/6/1 341/6/1 346/6/1
f 348/6/1 345/6/1 344/6/1
f 349/6/1 345/6/1 348/6/1
f 354/6/1 351/6/1 350/6/1
f 355/6/1 351/6/1 354/6/1
f 358/6/1 353/6/1 352/6/1
f 359/6/1 353/6/1 358/6/1
f 360/6/1 356/6/1 355/6/1
f 361/6/1 356/6/1 360/6/1
f 362/6/1 358/6/1 357/6/1
f 363/6/1 358/6/1 362/6/1
f 366/3/1 365/3/1 364/3/1
f 367/3/1 365/3/1 366/3/1
f 372/3/1 369/3/1 368/3/1
f 373/3/1 369/3/1 372/3/1
f 374/3/1 371/3/1 370/3/1
f 375/3/1 371/3/1 374/3/1
f 378/3/1 377/3/1 376/3/1
f 379/3/1 377/3/1 378/3/1
f 382/3/1 381/3/1 380/3/1
f 383/3/1 381/3/1 382/3/1
f 387/3/1 385/3/1 384/3/1
f 388/3/1 385/3/1 387/3/1
f 390/3/1 387/3/1 386/3/1
f 391/3/1 387/3/1 390/3/1
f 392/3/1 389/3/1 388/3/1
f 393/3/1 389/3/1 392/3/1
f 394/3/1 392/3/1 391/3/1
f 395/3/1 392/3/1 394/3/1
f 398/8/1 397/8/1 396/8/1
f 399/8/1 397/8/1 398/8/1
f 402/3/1 401/3/1 400/3/1
f 403/3/1 401/3/1 402/3/1
f 404/5/2 405/5/2 406/5/2
f 406/5/2 405/5/2 407/5/2
f 408/8/2 409/8/2 410/8/2
f 408/8/2 410/8/2 411/8/2
f 412/5/2 413/5/2 414/5/2
f 414/5/2 413/5/2 415/5/2
f 408/8/2 411/8/2 416/8/2
f 416/8/2 411/8/2 417/8/2
f 418/6/2 419/6/2 420/6/2
f 420/6/2 419/6/2 421/6/2
f 422/5/2 423/5/2 424/5/2
f 424/5/2 423/5/2 425/5/2
f 426/6/2 427/6/2 428/6/2
f 428/6/2 427/6/2 429/6/2
f 430/8/2 431/8/2 432/8/2
f 432/8/2 431/8/2 433/8/2
f 434/5/2 435/5/2 436/5/2
f 436/5/2 435/5/2 437/5/2
f 438/6/2 439/6/2 442/6/2
f 442/6/2 439/6/2 443/6/2
f 440/5/2 441/5/2 444/5/2
f 444/5/2 441/5/2 445/5/2
f 446/5/2 447/5/2 448/5/2
f 448/5/2 447/5/2 449/5/2
f 450/3/2 451/3/2 453/3/2
f 453/3/2 451/3/2 454/3/2
f 452/3/2 453/3/2 456/3/2
f 456/3/2 453/3/2 457/3/2
f 454/3/2 455/3/2 458/3/2
f 458/3/2 455/3/2 459/3/2
f 457/3/2 458/3/2 460/3/2
f 460/3/2 458/3/2 461/3/2
f 462/5/2 463/5/2 464/5/2
f 464/5/2 463/5/2 465/5/2
f 466/3/2 467/3/2 468/3/2
f 468/3/2 467/3/2 469/3/2
f 470/3/2 471/3/2 472/3/2
f 472/3/2 471/3/2 473/3/2
f 474/5/2 475/5/2 476/5/2
f 476/5/2 475/5/2 477/5/2
f 478/5/2 479/5/2 480/5/2
f 480/5/2 479/5/2 481/5/2
f 482/8/2 483/8/2 484/8/2
f 484/8/2 483/8/2 485/8/2
f 488/8/2 489/8/2 490/8/2
f 490/8/2 489/8/2 491/8/2
f 486/6/2 487/6/2 494/6/2
f 494/6/2 487/6/2 495/6/2
f 492/3/2 493/3/2 497/3/2
f 497/3/2 493/3/2 498/3/2
f 496/3/2 497/3/2 500/3/2
f 500/3/2 497/3/2 501/3/2
f 498/3/2 499/3/2 502/3/2
f 502/3/2 499/3/2 503/3/2
f 501/3/2 502/3/2 504/3/2
f 504/3/2 502/3/2 505/3/2
f 506/8/2 507/8/2 508/8/2
f 508/8/2 507/8/2 509/8/2
f 510/4/2 511/4/2 522/4/2
f 522/4/2 511/4/2 523/4/2
f 512/4/2 513/4/2 524/4/2
f 524/4/2 513/4/2 525/4/2
f 514/4/2 515/4/2 526/4/2
f 526/4/2 515/4/2 527/4/2
f 516/4/2 517/4/2 528/4/2
f 528/4/2 517/4/2 529/4/2
f 518/4/2 519/4/2 530/4/2
f 530/4/2 519/4/2 531/4/2
f 520/4/2 521/4/2 532/4/2
f 532/4/2 521/4/2 533/4/2
f 534/6/2 535/6/2 536/6/2
f 536/6/2 535/6/2 537/6/2
f 537/6/2 535/6/2 538/6/2
f 538/6/2 535/6/2 539/6/2
f 539/6/2 535/6/2 540/6/2
f 540/6/2 535/6/2 541/6/2
f 534/6/2 536/6/2 543/6/2
f 544/3/2 545/3/2 546/3/2
f 546/3/2 545/3/2 547/3/2
f 543/6/2 536/6/2 548/6/2
f 541/6/2 535/6/2 549/6/2
f 542/8/2 543/8/2 550/8/2
f 543/6/2 548/6/2 551/6/2
f 550/8/2 543/8/2 551/8/2
f 548/6/2 549/6/2 551/6/2
f 551/6/2 549/6/2 552/6/2
f 552/6/2 549/6/2 553/6/2
f 553/6/2 549/6/2 554/6/2
f 549/6/2 535/6/2 555/6/2
f 554/6/2 549/6/2 555/6/2
f 553/6/2 554/6/2 556/6/2
f 556/6/2 554/6/2 557/6/2
f 558/4/2 559/4/2 564/4/2
f 564/4/2 559/4/2 565/4/2
f 560/4/2 561/4/2 566/4/2
f 566/4/2 561/4/2 567/4/2
f 562/4/2 563/4/2 568/4/2
f 568/4/2 563/4/2 569/4/2
f 570/6/2 571/6/2 576/6/2
f 571/8/2 572/8/2 576/8/2
f 572/6/2 573/6/2 577/6/2
f 576/8/2 572/8/2 577/8/2
f 573/8/2 574/8/2 578/8/2
f 577/6/2 573/6/2 578/6/2
f 574/6/2 575/6/2 579/6/2
f 578/8/2 574/8/2 579/8/2
f 577/6/2 578/6/2 580/6/2
f 576/6/2 577/6/2 580/6/2
f 578/6/2 579/6/2 580/6/2
f 570/6/2 576/6/2 580/6/2
f 579/6/2 575/6/2 581/6/2
f 580/6/2 579/6/2 581/6/2
f 582/4/2 583/4/2 594/4/2
f 594/4/2 583/4/2 595/4/2
f 584/4/2 585/4/2 596/4/2
f 596/4/2 585/4/2 597/4/2
f 586/4/2 587/4/2 598/4/2
f 598/4/2 587/4/2 599/4/2
f 588/4/2 589/4/2 600/4/2
f 600/4/2 589/4/2 601/4/2
f 590/4/2 591/4/2 602/4/2
f 602/4/2 591/4/2 603/4/2
f 592/4/2 593/4/2 604/4/2
f 604/4/2 593/4/2 605/4/2
f 606/4/2 607/4/2 612/4/2
f 612/4/2 607/4/2 613/4/2
f 608/4/2 609/4/2 614/4/2
f 614/4/2 609/4/2 615/4/2
f 610/4/2 611/4/2 616/4/2
f 616/4/2 611/4/2 617/4/2
f 618/8/2 619/8/2 620/8/2
f 620/8/2 619/8/2 621/8/2
f 622/3/2 623/3/2 624/3/2
f 624/3/2 623/3/2 625/3/2
f 626/3/2 627/3/2 629/3/2
f 629/3/2 627/3/2 630/3/2
f 628/3/2 629/3/2 632/3/2
f 632/3/2 629/3/2 633/3/2
f 630/3/2 631/3/2 634/3/2
f 634/3/2 631/3/2 635/3/2
f 633/3/2 634/3/2 636/3/2
f 636/3/2 634/3/2 637/3/2
f 638/3/2 639/3/2 640/3/2
f 640/3/2 639/3/2 641/3/2
f 642/3/2 643/3/2 644/3/2
f 644/3/2 643/3/2 645/3/2
f 646/3/2 647/3/2 650/3/2
f 650/3/2 647/3/2 651/3/2
f 648/3/2 649/3/2 652/3/2
f 652/3/2 649/3/2 653/3/2
f 654/6/2 655/6/2 659/6/2
f 659/6/2 655/6/2 660/6/2
f 656/6/2 657/6/2 661/6/2
f 661/6/2 657/6/2 662/6/2
f 658/6/2 659/6/2 664/6/2
f 664/6/2 659/6/2 665/6/2
f 662/6/2 663/6/2 666/6/2
f 666/6/2 663/6/2 667/6/2
f 668/6/2 669/6/2 672/6/2
f 672/6/2 669/6/2 673/6/2
f 670/6/2 671/6/2 675/6/2
f 675/6/2 671/6/2 676/6/2
f 673/6/2 674/6/2 677/6/2
f 677/6/2 674/6/2 678/6/2
f 670/6/2 675/6/2 679/6/2
f 679/6/2 675/6/2 680/6/2
f 681/6/2 682/6/2 684/6/2
f 684/6/2 682/6/2 685/6/2
f 683/6/2 684/6/2 688/6/2
f 688/6/2 684/6/2 689/6/2
f 685/6/2 686/6/2 690/6/2
f 690/6/2 686/6/2 691/6/2
f 687/6/2 688/6/2 694/6/2
f 691/6/2 692/6/2 695/6/2
f 693/3/2 694/3/2 697/3/2
f 694/6/2 688/6/2 698/6/2
f 697/3/2 694/3/2 698/3/2
f 698/6/2 688/6/2 699/6/2
f 691/6/2 695/6/2 700/6/2
f 695/3/2 696/3/2 701/3/2
f 700/6/2 695/6/2 701/6/2
f 701/3/2 696/3/2 702/3/2
f 703/6/2 704/6/2 705/6/2
f 705/6/2 704/6/2 706/6/2
f 706/6/2 707/6/2 708/6/2
f 708/6/2 707/6/2 709/6/2
f 710/3/2 711/3/2 712/3/2
f 712/3/2 711/3/2 713/3/2
f 714/6/2 715/6/2 717/6/2
f 717/6/2 715/6/2 718/6/2
f 716/6/2 717/6/2 721/6/2
f 718/6/2 719/6/2 721/6/2
f 717/6/2 718/6/2 721/6/2
f 721/6/2 719/6/2 722/6/2
f 722/6/2 719/6/2 723/6/2
f 723/6/2 719/6/2 724/6/2
f 720/3/2 721/3/2 726/3/2
f 726/3/2 721/3/2 727/3/2
f 722/6/2 723/6/2 728/6/2
f 728/6/2 723/6/2 729/6/2
f 724/3/2 725/3/2 730/3/2
f 730/3/2 725/3/2 731/3/2
f 728/6/2 729/6/2 732/6/2
f 732/6/2 729/6/2 733/6/2
f 734/4/2 735/4/2 746/4/2
f 746/4/2 735/4/2 747/4/2
f 736/4/2 737/4/2 748/4/2
f 748/4/2 737/4/2 749/4/2
f 738/4/2 739/4/2 750/4/2
f 750/4/2 739/4/2 751/4/2
f 740/4/2 741/4/2 752/4/2
f 752/4/2 741/4/2 753/4/2
f 742/4/2 743/4/2 754/4/2
f 754/4/2 743/4/2 755/4/2
f 744/4/2 745/4/2 756/4/2
f 756/4/2 745/4/2 757/4/2
f 758/3/2 759/3/2 761/3/2
f 761/3/2 759/3/2 762/3/2
f 760/3/2 761/3/2 764/3/2
f 764/3/2 761/3/2 765/3/2
f 762/3/2 763/3/2 766/3/2
f 766/3/2 763/3/2 767/3/2
f 765/3/2 766/3/2 768/3/2
f 768/3/2 766/3/2 769/3/2
f 770/3/2 771/3/2 774/3/2
f 774/3/2 771/3/2 775/3/2
f 772/3/2 773/3/2 776/3/2
f 776/3/2 773/3/2 777/3/2
f 778/4/2 779/4/2 784/4/2
f 784/4/2 779/4/2 785/4/2
f 780/4/2 781/4/2 786/4/2
f 786/4/2 781/4/2 787/4/2
f 782/4/2 783/4/2 788/4/2
f 788/4/2 783/4/2 789/4/2
f 790/8/2 791/8/2 792/8/2
f 792/8/2 791/8/2 793/8/2
f 794/3/2 795/3/2 796/3/2
f 796/3/2 795/3/2 797/3/2
f 798/3/2 799/3/2 800/3/2
f 800/3/2 799/3/2 801/3/2
f 807/8/3 805/8/3 804/8/3
f 808/8/3 805/8/3 807/8/3
f 812/3/3 811/3/3 810/3/3
f 813/3/3 811/3/3 812/3/3
f 814/8/3 807/8/3 806/8/3
f 815/8/3 807/8/3 814/8/3
f 816/8/3 809/8/3 808/8/3
f 817/8/3 809/8/3 816/8/3
f 818/4/3 803/4/3 802/4/3
f 819/4/3 803/4/3 818/4/3
f 820/8/3 816/8/3 815/8/3
f 821/8/3 816/8/3 820/8/3
f 824/4/3 823/4/3 822/4/3
f 825/4/3 823/4/3 824/4/3
f 828/4/3 827/4/3 826/4/3
f 829/4/3 827/4/3 828/4/3
f 832/4/3 831/4/3 830/4/3
f 833/4/3 831/4/3 832/4/3
f 838/6/3 835/6/3 834/6/3
f 839/6/3 835/6/3 838/6/3
f 842/6/3 837/6/3 836/6/3
f 843/6/3 837/6/3 842/6/3
f 844/1/3 841/1/3 840/1/3
f 844/5/3 840/5/3 839/5/3
f 845/5/3 842/5/3 841/5/3
f 845/1/3 841/1/3 844/1/3
f 846/5/3 842/5/3 845/5/3
f 847/5/3 845/5/3 844/5/3
f 847/7/3 846/7/3 845/7/3
f 848/5/3 842/5/3 846/5/3
f 848/7/3 846/7/3 847/7/3
f 849/5/3 844/5/3 839/5/3
f 849/5/3 847/5/3 844/5/3
f 849/5/3 848/5/3 847/5/3
f 850/5/3 842/5/3 848/5/3
f 850/5/3 848/5/3 849/5/3
f 851/5/3 849/5/3 839/5/3
f 852/5/3 842/5/3 850/5/3
f 853/5/3 852/5/3 851/5/3
f 854/5/3 842/5/3 852/5/3
f 854/5/3 852/5/3 853/5/3
f 855/5/3 851/5/3 839/5/3
f 855/5/3 853/5/3 851/5/3
f 856/7/3 854/7/3 853/7/3
f 856/5/3 853/5/3 855/5/3
f 857/5/3 842/5/3 854/5/3
f 857/7/3 854/7/3 856/7/3
f 858/6/3 838/6/3 834/6/3
f 859/5/3 855/5/3 839/5/3
f 860/1/3 856/1/3 855/1/3
f 860/5/3 855/5/3 859/5/3
f 861/5/3 857/5/3 856/5/3
f 861/1/3 856/1/3 860/1/3
f 862/5/3 842/5/3 857/5/3
f 862/5/3 857/5/3 861/5/3
f 863/6/3 837/6/3 843/6/3
f 866/6/3 859/6/3 858/6/3
f 866/6/3 858/6/3 834/6/3
f 867/6/3 859/6/3 866/6/3
f 868/6/3 863/6/3 862/6/3
f 869/6/3 837/6/3 863/6/3
f 869/6/3 863/6/3 868/6/3
f 870/4/3 865/4/3 864/4/3
f 871/4/3 865/4/3 870/4/3
f 874/4/3 873/4/3 872/4/3
f 875/4/3 873/4/3 874/4/3
f 878/4/3 877/4/3 876/4/3
f 879/4/3 877/4/3 878/4/3
f 882/4/3 881/4/3 880/4/3
f 883/4/3 881/4/3 882/4/3
f 886/4/3 885/4/3 884/4/3
f 887/4/3 885/4/3 886/4/3
f 890/3/3 889/3/3 888/3/3
f 891/3/3 889/3/3 890/3/3
f 894/3/3 893/3/3 892/3/3
f 895/3/3 893/3/3 894/3/3
f 900/6/3 897/6/3 896/6/3
f 901/6/3 897/6/3 900/6/3
f 902/6/3 900/6/3 896/6/3
f 903/6/3 900/6/3 902/6/3
f 904/8/3 899/8/3 898/8/3
f 905/8/3 899/8/3 904/8/3
f 906/6/3 902/6/3 896/6/3
f 907/6/3 902/6/3 906/6/3
f 912/6/3 911/6/3 910/6/3
f 914/8/3 909/8/3 908/8/3
f 915/8/3 909/8/3 914/8/3
f 916/6/3 913/6/3 912/6/3
f 918/6/3 916/6/3 912/6/3
f 918/6/3 917/6/3 916/6/3
f 918/6/3 912/6/3 910/6/3
f 919/6/3 917/6/3 918/6/3
f 923/3/3 921/3/3 920/3/3
f 924/3/3 921/3/3 923/3/3
f 926/3/3 923/3/3 922/3/3
f 927/3/3 923/3/3 926/3/3
f 928/3/3 925/3/3 924/3/3
f 929/3/3 925/3/3 928/3/3
f 930/3/3 928/3/3 927/3/3
f 931/3/3 928/3/3 930/3/3
f 934/6/3 933/6/3 932/6/3
f 935/6/3 933/6/3 934/6/3
f 938/6/3 937/6/3 936/6/3
f 939/6/3 937/6/3 938/6/3
f 942/3/3 941/3/3 940/3/3
f 943/3/3 941/3/3 942/3/3
f 947/3/3 945/3/3 944/3/3
f 948/3/3 945/3/3 947/3/3
f 950/3/3 947/3/3 946/3/3
f 951/3/3 947/3/3 950/3/3
f 952/3/3 949/3/3 948/3/3
f 953/3/3 949/3/3 952/3/3
f 954/3/3 952/3/3 951/3/3
f 955/3/3 952/3/3 954/3/3
f 958/3/3 957/3/3 956/3/3
f 959/3/3 957/3/3 958/3/3
f 962/4/3 961/4/3 960/4/3
f 963/4/3 961/4/3 962/4/3
f 966/4/3 965/4/3 964/4/3
f 967/4/3 965/4/3 966/4/3
f 970/4/3 969/4/3 968/4/3
f 971/4/3 969/4/3 970/4/3
f 974/4/3 973/4/3 972/4/3
f 975/4/3 973/4/3 974/4/3
f 978/4/3 977/4/3 976/4/3
f 979/4/3 977/4/3 978/4/3
f 982/4/3 981/4/3 980/4/3
f 983/4/3 981/4/3 982/4/3
f 986/4/3 985/4/3 984/4/3
f 987/4/3 985/4/3 986/4/3
f 990/4/3 989/4/3 988/4/3
f 991/4/3 989/4/3 990/4/3
f 994/4/3 993/4/3 992/4/3
f 995/4/3 993/4/3 994/4/3
f 998/4/3 997/4/3 996/4/3
f 999/4/3 997/4/3 998/4/3
f 1002/4/3 1001/4/3 1000/4/3
f 1003/4/3 1001/4/3 1002/4/3
f 1006/4/3 1005/4/3 1004/4/3
f 1007/4/3 1005/4/3 1006/4/3
f 1010/4/3 1009/4/3 1008/4/3
f 1011/4/3 1009/4/3 1010/4/3
f 1014/4/3 1013/4/3 1012/4/3
f 1015/4/3 1013/4/3 1014/4/3
f 1018/4/3 1017/4/3 1016/4/3
f 1019/4/3 1017/4/3 1018/4/3
f 1022/4/3 1021/4/3 1020/4/3
f 1023/4/3 1021/4/3 1022/4/3
f 1026/4/3 1025/4/3 1024/4/3
f 1027/4/3 1025/4/3 1026/4/3
f 1030/4/3 1029/4/3 1028/4/3
f 1031/4/3 1029/4/3 1030/4/3
f 1034/3/3 1033/3/3 1032/3/3
f 1035/3/3 1033/3/3 1034/3/3
f 1037/3/3 1036/3/3 1035/3/3
f 1038/3/3 1036/3/3 1037/3/3
f 1041/3/3 1040/3/3 1039/3/3
f 1042/3/3 1040/3/3 1041/3/3
f 1046/6/3 1042/6/3 1041/6/3
f 1047/6/3 1044/6/3 1043/6/3
f 1049/6/3 1046/6/3 1045/6/3
f 1049/6/3 1042/6/3 1046/6/3
f 1050/6/3 1048/6/3 1047/6/3
f 1050/6/3 1047/6/3 1043/6/3
f 1051/6/3 1048/6/3 1050/6/3
f 1052/6/3 1049/6/3 1045/6/3
f 1052/6/3 1050/6/3 1049/6/3
f 1053/6/3 1050/6/3 1052/6/3
f 1054/6/3 1048/6/3 1051/6/3
f 1055/6/3 1048/6/3 1054/6/3
f 1056/6/3 1050/6/3 1053/6/3
f 1057/6/3 1050/6/3 1056/6/3
f 1058/6/3 1054/6/3 1051/6/3
f 1059/6/3 1054/6/3 1058/6/3
f 1060/3/3 1059/3/3 1058/3/3
f 1061/3/3 1059/3/3 1060/3/3
f 1064/3/3 1063/3/3 1062/3/3
f 1065/3/3 1063/3/3 1064/3/3
f 1068/3/3 1067/3/3 1066/3/3
f 1069/3/3 1067/3/3 1068/3/3
f 1073/6/3 1070/6/3 1069/6/3
f 1074/6/3 1070/6/3 1073/6/3
f 1077/6/3 1072/6/3 1071/6/3
f 1078/6/3 1072/6/3 1077/6/3
f 1079/6/3 1075/6/3 1074/6/3
f 1080/6/3 1075/6/3 1079/6/3
f 1082/6/3 1077/6/3 1076/6/3
f 1083/6/3 1077/6/3 1082/6/3
f 1086/6/3 1081/6/3 1080/6/3
f 1087/6/3 1081/6/3 1086/6/3
f 1088/6/3 1084/6/3 1083/6/3
f 1089/6/3 1084/6/3 1088/6/3
f 1091/6/3 1086/6/3 1085/6/3
f 1092/6/3 1086/6/3 1091/6/3
f 1093/6/3 1090/6/3 1089/6/3
f 1094/6/3 1090/6/3 1093/6/3
f 1096/3/3 1095/3/3 1094/3/3
f 1097/3/3 1095/3/3 1096/3/3
f 1101/5/3 1099/5/3 1098/5/3
f 1102/5/3 1099/5/3 1101/5/3
f 1104/5/3 1101/5/3 1100/5/3
f 1105/5/3 1101/5/3 1104/5/3
f 1107/5/3 1104/5/3 1103/5/3
f 1108/5/3 1104/5/3 1107/5/3
f 1110/5/3 1107/5/3 1106/5/3
f 1111/5/3 1107/5/3 1110/5/3
f 1114/5/3 1110/5/3 1109/5/3
f 1115/5/3 1110/5/3 1114/5/3
f 1117/3/3 1113/3/3 1112/3/3
f 1118/3/3 1113/3/3 1117/3/3
f 1120/3/3 1117/3/3 1116/3/3
f 1121/3/3 1117/3/3 1120/3/3
f 1122/3/3 1119/3/3 1118/3/3
f 1123/3/3 1119/3/3 1122/3/3
f 1124/3/3 1122/3/3 1121/3/3
f 1125/3/3 1122/3/3 1124/3/3
f 1128/3/3 1127/3/3 1126/3/3
f 1129/3/3 1127/3/3 1128/3/3
f 1135/6/3 1131/6/3 1130/6/3
f 1136/6/3 1131/6/3 1135/6/3
f 1137/6/3 1133/6/3 1132/6/3
f 1138/6/3 1133/6/3 1137/6/3
f 1140/6/3 1135/6/3 1134/6/3
f 1141/6/3 1135/6/3 1140/6/3
f 1142/6/3 1139/6/3 1138/6/3
f 1143/6/3 1139/6/3 1142/6/3
f 1148/6/3 1145/6/3 1144/6/3
f 1149/6/3 1145/6/3 1148/6/3
f 1152/6/3 1147/6/3 1146/6/3
f 1153/6/3 1147/6/3 1152/6/3
f 1154/6/3 1150/6/3 1149/6/3
f 1155/6/3 1150/6/3 1154/6/3
f 1156/6/3 1152/6/3 1151/6/3
f 1157/6/3 1152/6/3 1156/6/3
f 1160/3/3 1159/3/3 1158/3/3
f 1161/3/3 1159/3/3 1160/3/3
f 1164/8/3 1163/8/3 1162/8/3
f 1165/8/3 1163/8/3 1164/8/3
f 1168/3/3 1167/3/3 1166/3/3
f 1169/3/3 1167/3/3 1168/3/3
f 1173/5/3 1171/5/3 1170/5/3
f 1174/5/3 1171/5/3 1173/5/3
f 1176/5/3 1173/5/3 1172/5/3
f 1177/5/3 1173/5/3 1176/5/3
f 1179/5/3 1176/5/3 1175/5/3
f 1180/5/3 1176/5/3 1179/5/3
f 1183/5/3 1179/5/3 1178/5/3
f 1184/5/3 1179/5/3 1183/5/3
f 1186/3/3 1182/3/3 1181/3/3
f 1187/3/3 1182/3/3 1186/3/3
f 1189/3/3 1186/3/3 1185/3/3
f 1190/3/3 1186/3/3 1189/3/3
f 1191/3/3 1188/3/3 1187/3/3
f 1192/3/3 1188/3/3 1191/3/3
f 1193/3/3 1191/3/3 1190/3/3
f 1194/3/3 1191/3/3 1193/3/3
f 1197/8/3 1196/8/3 1195/8/3
f 1198/8/3 1196/8/3 1197/8/3
f 1201/3/3 1200/3/3 1199/3/3
f 1202/3/3 1200/3/3 1201/3/3
f 1205/3/3 1204/3/3 1203/3/3
f 1206/3/3 1204/3/3 1205/3/3
f 1207/3/4 1208/3/4 1209/3/4
f 1209/3/4 1208/3/4 1210/3/4
f 1211/3/4 1212/3/4 1214/3/4
f 1214/3/4 1212/3/4 1215/3/4
f 1213/3/4 1214/3/4 1217/3/4
f 1217/3/4 1214/3/4 1218/3/4
f 1215/3/4 1216/3/4 1219/3/4
f 1219/3/4 1216/3/4 1220/3/4
f 1218/3/4 1219/3/4 1221/3/4
f 1221/3/4 1219/3/4 1222/3/4
f 1223/3/4 1224/3/4 1225/3/4
f 1225/3/4 1224/3/4 1226/3/4
f 1227/6/4 1228/6/4 1229/6/4
f 1229/6/4 1228/6/4 1230/6/4
f 1227/6/4 1229/6/4 1231/6/4
f 1231/6/4 1229/6/4 1232/6/4
f 1227/6/4 1231/6/4 1233/6/4
f 1233/6/4 1231/6/4 1234/6/4
f 1235/6/4 1236/6/4 1237/6/4
f 1237/6/4 1238/6/4 1239/6/4
f 1237/6/4 1239/6/4 1241/6/4
f 1239/6/4 1240/6/4 1241/6/4
f 1235/6/4 1237/6/4 1241/6/4
f 1241/6/4 1240/6/4 1242/6/4
f 1243/3/4 1244/3/4 1246/3/4
f 1246/3/4 1244/3/4 1247/3/4
f 1245/3/4 1246/3/4 1249/3/4
f 1249/3/4 1246/3/4 1250/3/4
f 1247/3/4 1248/3/4 1251/3/4
f 1251/3/4 1248/3/4 1252/3/4
f 1250/3/4 1251/3/4 1253/3/4
f 1253/3/4 1251/3/4 1254/3/4
f 1255/6/4 1256/6/4 1257/6/4
f 1257/6/4 1256/6/4 1258/6/4
f 1259/6/4 1260/6/4 1261/6/4
f 1261/6/4 1260/6/4 1262/6/4
f 1263/3/4 1264/3/4 1265/3/4
f 1265/3/4 1264/3/4 1266/3/4
f 1267/8/4 1268/8/4 1269/8/4
f 1269/8/4 1268/8/4 1270/8/4
f 1271/8/4 1272/8/4 1273/8/4
f 1273/8/4 1272/8/4 1274/8/4
f 1275/4/4 1276/4/4 1277/4/4
f 1277/4/4 1276/4/4 1278/4/4
f 1279/6/4 1280/6/4 1281/6/4
f 1281/6/4 1280/6/4 1282/6/4
f 1282/6/4 1280/6/4 1284/6/4
f 1283/6/4 1284/6/4 1287/6/4
f 1284/6/4 1280/6/4 1288/6/4
f 1287/6/4 1284/6/4 1288/6/4
f 1285/4/4 1286/4/4 1289/4/4
f 1289/4/4 1286/4/4 1290/4/4
f 1291/4/4 1292/4/4 1293/4/4
f 1293/4/4 1292/4/4 1294/4/4
f 1295/4/4 1296/4/4 1297/4/4
f 1297/4/4 1296/4/4 1298/4/4
f 1299/4/4 1300/4/4 1301/4/4
f 1301/4/4 1300/4/4 1302/4/4
f 1303/3/4 1304/3/4 1305/3/4
f 1305/3/4 1304/3/4 1306/3/4
f 1307/4/4 1308/4/4 1309/4/4
f 1309/4/4 1308/4/4 1310/4/4
f 1313/6/4 1314/6/4 1315/6/4
f 1315/6/4 1314/6/4 1316/6/4
f 1311/4/4 1312/4/4 1317/4/4
f 1317/4/4 1312/4/4 1318/4/4
f 1319/4/4 1320/4/4 1321/4/4
f 1321/4/4 1320/4/4 1322/4/4
f 1323/4/4 1324/4/4 1325/4/4
f 1325/4/4 1324/4/4 1326/4/4
f 1327/4/4 1328/4/4 1329/4/4
f 1329/4/4 1328/4/4 1330/4/4
f 1331/4/4 1332/4/4 1333/4/4
f 1333/4/4 1332/4/4 1334/4/4
f 1335/4/4 1336/4/4 1337/4/4
f 1337/4/4 1336/4/4 1338/4/4
f 1339/4/4 1340/4/4 1341/4/4
f 1341/4/4 1340/4/4 1342/4/4
f 1343/4/4 1344/4/4 1345/4/4
f 1345/4/4 1344/4/4 1346/4/4
f 1347/4/4 1348/4/4 1349/4/4
f 1349/4/4 1348/4/4 1350/4/4
f 1351/4/4 1352/4/4 1353/4/4
f 1353/4/4 1352/4/4 1354/4/4
f 1355/4/4 1356/4/4 1357/4/4
f 1357/4/4 1356/4/4 1358/4/4
f 1359/4/4 1360/4/4 1361/4/4
f 1361/4/4 1360/4/4 1362/4/4
f 1363/3/4 1364/3/4 1365/3/4
f 1365/3/4 1364/3/4 1366/3/4
f 1367/3/4 1368/3/4 1369/3/4
f 1369/3/4 1368/3/4 1370/3/4
f 1371/5/4 1372/5/4 1374/5/4
f 1374/5/4 1372/5/4 1375/5/4
f 1373/5/4 1374/5/4 1377/5/4
f 1377/5/4 1374/5/4 1378/5/4
f 1376/5/4 1377/5/4 1380/5/4
f 1380/5/4 1377/5/4 1381/5/4
f 1379/5/4 1380/5/4 1383/5/4
f 1383/5/4 1380/5/4 1384/5/4
f 1382/5/4 1383/5/4 1387/5/4
f 1387/5/4 1383/5/4 1388/5/4
f 1385/3/4 1386/3/4 1390/3/4
f 1390/3/4 1386/3/4 1391/3/4
f 1389/3/4 1390/3/4 1393/3/4
f 1393/3/4 1390/3/4 1394/3/4
f 1391/3/4 1392/3/4 1395/3/4
f 1395/3/4 1392/3/4 1396/3/4
f 1394/3/4 1395/3/4 1397/3/4
f 1397/3/4 1395/3/4 1398/3/4
f 1399/3/4 1400/3/4 1401/3/4
f 1401/3/4 1400/3/4 1402/3/4
f 1403/8/4 1404/8/4 1405/8/4
f 1405/8/4 1404/8/4 1406/8/4
f 1407/6/4 1408/6/4 1409/6/4
f 1409/6/4 1408/6/4 1410/6/4
f 1411/3/4 1412/3/4 1413/3/4
f 1413/3/4 1412/3/4 1414/3/4
f 1415/6/4 1416/6/4 1418/6/4
f 1418/6/4 1416/6/4 1419/6/4
f 1417/6/4 1418/6/4 1422/6/4
f 1422/6/4 1418/6/4 1423/6/4
f 1420/6/4 1421/6/4 1424/6/4
f 1424/6/4 1421/6/4 1425/6/4
f 1426/6/4 1427/6/4 1430/6/4
f 1430/6/4 1427/6/4 1431/6/4
f 1428/6/4 1429/6/4 1433/6/4
f 1433/6/4 1429/6/4 1434/6/4
f 1431/6/4 1432/6/4 1435/6/4
f 1435/6/4 1432/6/4 1436/6/4
f 1428/6/4 1433/6/4 1437/6/4
f 1437/6/4 1433/6/4 1438/6/4
f 1439/3/4 1440/3/4 1441/3/4
f 1441/3/4 1440/3/4 1442/3/4
f 1443/5/4 1444/5/4 1446/5/4
f 1446/5/4 1444/5/4 1447/5/4
f 1445/5/4 1446/5/4 1449/5/4
f 1449/5/4 1446/5/4 1450/5/4
f 1448/5/4 1449/5/4 1452/5/4
f 1452/5/4 1449/5/4 1453/5/4
f 1451/5/4 1452/5/4 1456/5/4
f 1456/5/4 1452/5/4 1457/5/4
f 1454/3/4 1455/3/4 1459/3/4
f 1459/3/4 1455/3/4 1460/3/4
f 1458/3/4 1459/3/4 1462/3/4
f 1462/3/4 1459/3/4 1463/3/4
f 1460/3/4 1461/3/4 1464/3/4
f 1464/3/4 1461/3/4 1465/3/4
f 1463/3/4 1464/3/4 1466/3/4
f 1466/3/4 1464/3/4 1467/3/4
f 1468/3/4 1469/3/4 1470/3/4
f 1470/3/4 1469/3/4 1471/3/4
f 1471/6/4 1472/6/4 1475/6/4
f 1475/6/4 1472/6/4 1476/6/4
f 1473/6/4 1474/6/4 1479/6/4
f 1479/6/4 1474/6/4 1480/6/4
f 1476/6/4 1477/6/4 1481/6/4
f 1481/6/4 1477/6/4 1482/6/4
f 1478/6/4 1479/6/4 1484/6/4
f 1484/6/4 1479/6/4 1485/6/4
f 1482/6/4 1483/6/4 1487/6/4
f 1487/6/4 1483/6/4 1488/6/4
f 1485/6/4 1486/6/4 1489/6/4
f 1489/6/4 1486/6/4 1490/6/4
f 1490/6/4 1491/6/4 1492/6/4
f 1492/6/4 1491/6/4 1493/6/4
f 1493/3/4 1494/3/4 1495/3/4
f 1495/3/4 1494/3/4 1496/3/4
f 1497/4/4 1498/4/4 1499/4/4
f 1499/4/4 1498/4/4 1500/4/4
f 1501/3/4 1502/3/4 1503/3/4
f 1503/3/4 1502/3/4 1504/3/4
f 1505/4/4 1506/4/4 1507/4/4
f 1507/4/4 1506/4/4 1508/4/4
f 1509/4/4 1510/4/4 1511/4/4
f 1511/4/4 1510/4/4 1512/4/4
f 1515/4/4 1516/4/4 1517/4/4
f 1517/4/4 1516/4/4 1518/4/4
f 1513/8/4 1514/8/4 1519/8/4
f 1519/8/4 1514/8/4 1520/8/4
f 1521/4/4 1522/4/4 1523/4/4
f 1523/4/4 1522/4/4 1524/4/4
f 1525/3/4 1526/3/4 1527/3/4
f 1527/3/4 1526/3/4 1528/3/4
f 1527/6/4 1528/6/4 1532/6/4
f 1529/6/4 1530/6/4 1533/6/4
f 1531/6/4 1532/6/4 1535/6/4
f 1532/6/4 1528/6/4 1535/6/4
f 1529/6/4 1533/6/4 1536/6/4
f 1533/6/4 1534/6/4 1536/6/4
f 1536/6/4 1534/6/4 1537/6/4
f 1531/6/4 1535/6/4 1538/6/4
f 1535/6/4 1536/6/4 1538/6/4
f 1538/6/4 1536/6/4 1539/6/4
f 1537/6/4 1534/6/4 1540/6/4
f 1540/6/4 1534/6/4 1541/6/4
f 1539/6/4 1536/6/4 1542/6/4
f 1542/6/4 1536/6/4 1543/6/4
f 1537/6/4 1540/6/4 1544/6/4
f 1544/6/4 1540/6/4 1545/6/4
f 1544/3/4 1545/3/4 1546/3/4
f 1546/3/4 1545/3/4 1547/3/4
f 1548/4/4 1549/4/4 1550/4/4
f 1550/4/4 1549/4/4 1551/4/4
f 1552/4/4 1553/4/4 1554/4/4
f 1554/4/4 1553/4/4 1555/4/4
f 1556/4/4 1557/4/4 1558/4/4
f 1558/4/4 1557/4/4 1559/4/4
f 1562/3/4 1563/3/4 1564/3/4
f 1564/3/4 1563/3/4 1565/3/4
f 1565/3/4 1566/3/4 1567/3/4
f 1567/3/4 1566/3/4 1568/3/4
f 1560/4/4 1561/4/4 1569/4/4
f 1569/4/4 1561/4/4 1570/4/4
f 1578/4/5 1572/4/5 1571/4/5
f 1579/4/5 1572/4/5 1578/4/5
f 1582/4/5 1574/4/5 1573/4/5
f 1583/4/5 1574/4/5 1582/4/5
f 1586/4/5 1576/4/5 1575/4/5
f 1587/4/5 1576/4/5 1586/4/5
f 1589/4/5 1580/4/5 1579/4/5
f 1589/4/5 1578/4/5 1577/4/5
f 1589/4/5 1579/4/5 1578/4/5
f 1590/4/5 1580/4/5 1589/4/5
f 1591/4/5 1580/4/5 1590/4/5
f 1592/4/5 1580/4/5 1591/4/5
f 1593/4/5 1584/4/5 1583/4/5
f 1593/4/5 1582/4/5 1581/4/5
f 1593/4/5 1583/4/5 1582/4/5
f 1594/4/5 1584/4/5 1593/4/5
f 1595/4/5 1584/4/5 1594/4/5
f 1596/4/5 1584/4/5 1595/4/5
f 1597/4/5 1588/4/5 1587/4/5
f 1597/4/5 1587/4/5 1586/4/5
f 1597/4/5 1586/4/5 1585/4/5
f 1598/4/5 1588/4/5 1597/4/5
f 1599/4/5 1588/4/5 1598/4/5
f 1600/4/5 1588/4/5 1599/4/5
f 1601/4/5 1591/4/5 1590/4/5
f 1602/4/5 1591/4/5 1601/4/5
f 1603/4/5 1595/4/5 1594/4/5
f 1604/4/5 1595/4/5 1603/4/5
f 1605/4/5 1599/4/5 1598/4/5
f 1606/4/5 1599/4/5 1605/4/5
f 1614/4/5 1608/4/5 1607/4/5
f 1615/4/5 1608/4/5 1614/4/5
f 1618/4/5 1610/4/5 1609/4/5
f 1619/4/5 1610/4/5 1618/4/5
f 1622/4/5 1612/4/5 1611/4/5
f 1623/4/5 1612/4/5 1622/4/5
f 1625/4/5 1616/4/5 1615/4/5
f 1625/4/5 1614/4/5 1613/4/5
f 1625/4/5 1615/4/5 1614/4/5
f 1626/4/5 1616/4/5 1625/4/5
f 1627/4/5 1616/4/5 1626/4/5
f 1628/4/5 1616/4/5 1627/4/5
f 1629/4/5 1620/4/5 1619/4/5
f 1629/4/5 1618/4/5 1617/4/5
f 1629/4/5 1619/4/5 1618/4/5
f 1630/4/5 1620/4/5 1629/4/5
f 1631/4/5 1620/4/5 1630/4/5
f 1632/4/5 1620/4/5 1631/4/5
f 1633/4/5 1623/4/5 1622/4/5
f 1633/4/5 1624/4/5 1623/4/5
f 1633/4/5 1622/4/5 1621/4/5
f 1634/4/5 1624/4/5 1633/4/5
f 1635/4/5 1624/4/5 1634/4/5
f 1636/4/5 1624/4/5 1635/4/5
f 1637/4/5 1627/4/5 1626/4/5
f 1638/4/5 1627/4/5 1637/4/5
f 1639/4/5 1631/4/5 1630/4/5
f 1640/4/5 1631/4/5 1639/4/5
f 1641/4/5 1635/4/5 1634/4/5
f 1642/4/5 1635/4/5 1641/4/5
f 1650/4/5 1644/4/5 1643/4/5
f 1651/4/5 1644/4/5 1650/4/5
f 1654/4/5 1646/4/5 1645/4/5
f 1655/4/5 1646/4/5 1654/4/5
f 1658/4/5 1648/4/5 1647/4/5
f 1659/4/5 1648/4/5 1658/4/5
f 1661/4/5 1652/4/5 1651/4/5
f 1661/4/5 1650/4/5 1649/4/5
f 1661/4/5 1651/4/5 1650/4/5
f 1662/4/5 1652/4/5 1661/4/5
f 1663/4/5 1652/4/5 1662/4/5
f 1664/4/5 1652/4/5 1663/4/5
f 1665/4/5 1656/4/5 1655/4/5
f 1665/4/5 1654/4/5 1653/4/5
f 1665/4/5 1655/4/5 1654/4/5
f 1666/4/5 1656/4/5 1665/4/5
f 1667/4/5 1656/4/5 1666/4/5
f 1668/4/5 1656/4/5 1667/4/5
f 1669/4/5 1659/4/5 1658/4/5
f 1669/4/5 1660/4/5 1659/4/5
f 1669/4/5 1658/4/5 1657/4/5
f 1670/4/5 1660/4/5 1669/4/5
f 1671/4/5 1660/4/5 1670/4/5
f 1672/4/5 1660/4/5 1671/4/5
f 1673/4/5 1663/4/5 1662/4/5
f 1674/4/5 1663/4/5 1673/4/5
f 1675/4/5 1667/4/5 1666/4/5
f 1676/4/5 1667/4/5 1675/4/5
f 1677/4/5 1671/4/5 1670/4/5
f 1678/4/5 1671/4/5 1677/4/5
f 1681/6/5 1680/6/5 1679/6/5
f 1682/6/5 1680/6/5 1681/6/5
f 1683/6/5 1680/6/5 1682/6/5
f 1684/6/5 1680/6/5 1683/6/5
f 1687/3/5 1686/3/5 1685/3/5
f 1688/3/5 1686/3/5 1687/3/5
f 1689/6/5 1681/6/5 1679/6/5
f 1690/6/5 1683/6/5 1682/6/5
f 1691/6/5 1683/6/5 1690/6/5
f 1692/6/5 1680/6/5 1684/6/5
f 1693/6/5 1691/6/5 1690/6/5
f 1693/6/5 1692/6/5 1691/6/5
f 1693/6/5 1689/6/5 1679/6/5
f 1693/6/5 1690/6/5 1689/6/5
f 1694/6/5 1692/6/5 1693/6/5
f 1695/6/5 1680/6/5 1692/6/5
f 1695/6/5 1692/6/5 1694/6/5
f 1696/6/5 1680/6/5 1695/6/5
f 1697/6/5 1695/6/5 1694/6/5
f 1698/6/5 1695/6/5 1697/6/5
f 1702/3/5 1700/3/5 1699/3/5
f 1703/3/5 1700/3/5 1702/3/5
f 1705/3/5 1702/3/5 1701/3/5
f 1706/3/5 1702/3/5 1705/3/5
f 1707/3/5 1704/3/5 1703/3/5
f 1708/3/5 1704/3/5 1707/3/5
f 1709/3/5 1707/3/5 1706/3/5
f 1710/3/5 1707/3/5 1709/3/5
f 1713/8/5 1712/8/5 1711/8/5
f 1714/8/5 1712/8/5 1713/8/5
f 1718/3/5 1716/3/5 1715/3/5
f 1719/3/5 1716/3/5 1718/3/5
f 1725/3/5 1718/3/5 1717/3/5
f 1726/3/5 1718/3/5 1725/3/5
f 1727/3/5 1720/3/5 1719/3/5
f 1728/3/5 1720/3/5 1727/3/5
f 1729/6/5 1722/6/5 1721/6/5
f 1730/6/5 1722/6/5 1729/6/5
f 1731/6/5 1724/6/5 1723/6/5
f 1732/6/5 1724/6/5 1731/6/5
f 1733/3/5 1727/3/5 1726/3/5
f 1734/3/5 1727/3/5 1733/3/5
f 1735/8/5 1730/8/5 1729/8/5
f 1736/8/5 1730/8/5 1735/8/5
f 1737/8/5 1732/8/5 1731/8/5
f 1738/8/5 1732/8/5 1737/8/5
f 1739/6/5 1736/6/5 1735/6/5
f 1740/6/5 1736/6/5 1739/6/5
f 1741/6/5 1738/6/5 1737/6/5
f 1742/6/5 1738/6/5 1741/6/5
f 1743/8/5 1740/8/5 1739/8/5
f 1744/8/5 1740/8/5 1743/8/5
f 1745/8/5 1742/8/5 1741/8/5
f 1746/8/5 1742/8/5 1745/8/5
f 1747/6/5 1744/6/5 1743/6/5
f 1748/6/5 1744/6/5 1747/6/5
f 1749/6/5 1746/6/5 1745/6/5
f 1750/6/5 1746/6/5 1749/6/5
f 1754/6/5 1752/6/5 1751/6/5
f 1755/6/5 1752/6/5 1754/6/5
f 1757/6/5 1754/6/5 1753/6/5
f 1757/6/5 1756/6/5 1755/6/5
f 1757/6/5 1755/6/5 1754/6/5
f 1758/6/5 1756/6/5 1757/6/5
f 1759/6/5 1756/6/5 1758/6/5
f 1760/6/5 1756/6/5 1759/6/5
f 1761/6/5 1759/6/5 1758/6/5
f 1762/6/5 1759/6/5 1761/6/5
f 1767/8/5 1764/8/5 1763/8/5
f 1768/8/5 1764/8/5 1767/8/5
f 1769/8/5 1766/8/5 1765/8/5
f 1770/8/5 1766/8/5 1769/8/5
f 1774/6/5 1772/6/5 1771/6/5
f 1775/6/5 1772/6/5 1774/6/5
f 1780/6/5 1774/6/5 1773/6/5
f 1781/6/5 1774/6/5 1780/6/5
f 1782/6/5 1776/6/5 1775/6/5
f 1783/6/5 1776/6/5 1782/6/5
f 1785/3/5 1778/3/5 1777/3/5
f 1786/3/5 1778/3/5 1785/3/5
f 1789/8/5 1788/8/5 1787/8/5
f 1790/8/5 1788/8/5 1789/8/5
f 1793/6/5 1780/6/5 1779/6/5
f 1794/6/5 1780/6/5 1793/6/5
f 1797/6/5 1784/6/5 1783/6/5
f 1798/6/5 1784/6/5 1797/6/5
f 1799/5/5 1792/5/5 1791/5/5
f 1800/5/5 1792/5/5 1799/5/5
f 1801/6/5 1795/6/5 1794/6/5
f 1802/6/5 1795/6/5 1801/6/5
f 1803/6/5 1797/6/5 1796/6/5
f 1804/6/5 1797/6/5 1803/6/5
f 1805/6/5 1803/6/5 1802/6/5
f 1806/6/5 1803/6/5 1805/6/5
f 1809/3/5 1808/3/5 1807/3/5
f 1810/3/5 1808/3/5 1809/3/5
f 1813/3/5 1812/3/5 1811/3/5
f 1814/3/5 1812/3/5 1813/3/5
f 1823/3/5 1816/3/5 1815/3/5
f 1824/6/5 1817/6/5 1816/6/5
f 1824/3/5 1816/3/5 1823/3/5
f 1825/6/5 1817/6/5 1824/6/5
f 1826/6/5 1819/6/5 1818/6/5
f 1827/6/5 1819/6/5 1826/6/5
f 1830/3/5 1821/3/5 1820/3/5
f 1831/3/5 1821/3/5 1830/3/5
f 1834/3/5 1823/3/5 1822/3/5
f 1835/6/5 1824/6/5 1823/6/5
f 1835/3/5 1823/3/5 1834/3/5
f 1836/6/5 1824/6/5 1835/6/5
f 1837/6/5 1828/6/5 1827/6/5
f 1838/6/5 1828/6/5 1837/6/5
f 1839/3/5 1830/3/5 1829/3/5
f 1840/3/5 1830/3/5 1839/3/5
f 1841/3/5 1832/3/5 1831/3/5
f 1842/3/5 1832/3/5 1841/3/5
f 1843/3/5 1841/3/5 1840/3/5
f 1844/3/5 1841/3/5 1843/3/5
f 1847/3/5 1834/3/5 1833/3/5
f 1848/3/5 1834/3/5 1847/3/5
f 1853/5/5 1846/5/5 1845/5/5
f 1854/5/5 1846/5/5 1853/5/5
f 1855/3/5 1849/3/5 1848/3/5
f 1856/6/5 1850/6/5 1849/6/5
f 1856/3/5 1849/3/5 1855/3/5
f 1857/6/5 1850/6/5 1856/6/5
f 1860/6/5 1852/6/5 1851/6/5
f 1861/6/5 1852/6/5 1860/6/5
f 1862/3/5 1857/3/5 1856/3/5
f 1863/6/5 1858/6/5 1857/6/5
f 1863/3/5 1857/3/5 1862/3/5
f 1864/6/5 1858/6/5 1863/6/5
f 1865/6/5 1860/6/5 1859/6/5
f 1866/6/5 1860/6/5 1865/6/5
f 1870/3/5 1868/3/5 1867/3/5
f 1871/3/5 1868/3/5 1870/3/5
f 1873/3/5 1870/3/5 1869/3/5
f 1874/3/5 1870/3/5 1873/3/5
f 1875/3/5 1872/3/5 1871/3/5
f 1876/3/5 1872/3/5 1875/3/5
f 1877/3/5 1875/3/5 1874/3/5
f 1878/3/5 1875/3/5 1877/3/5
f 1881/3/5 1880/3/5 1879/3/5
f 1882/3/5 1880/3/5 1881/3/5
f 1885/5/5 1884/5/5 1883/5/5
f 1886/5/5 1884/5/5 1885/5/5
f 1889/3/5 1888/3/5 1887/3/5
f 1890/3/5 1888/3/5 1889/3/5
f 1893/3/5 1892/3/5 1891/3/5
f 1894/3/5 1892/3/5 1893/3/5
f 1897/5/5 1896/5/5 1895/5/5
f 1898/5/5 1896/5/5 1897/5/5
f 1903/5/5 1900/5/5 1899/5/5
f 1904/5/5 1900/5/5 1903/5/5
f 1905/8/5 1902/8/5 1901/8/5
f 1906/8/5 1902/8/5 1905/8/5
f 1909/3/5 1908/3/5 1907/3/5
f 1910/3/5 1908/3/5 1909/3/5
f 1913/3/5 1912/3/5 1911/3/5
f 1914/3/5 1912/3/5 1913/3/5
f 1918/3/5 1915/3/5 1914/3/5
f 1919/3/5 1915/3/5 1918/3/5
f 1921/5/5 1917/5/5 1916/5/5
f 1922/5/5 1917/5/5 1921/5/5
f 1924/3/5 1920/3/5 1919/3/5
f 1925/3/5 1920/3/5 1924/3/5
f 1927/3/5 1924/3/5 1923/3/5
f 1928/3/5 1924/3/5 1927/3/5
f 1929/3/5 1927/3/5 1926/3/5
f 1930/3/5 1927/3/5 1929/3/5
f 1933/8/5 1932/8/5 1931/8/5
f 1934/8/5 1932/8/5 1933/8/5
f 1937/5/5 1936/5/5 1935/5/5
f 1938/5/5 1936/5/5 1937/5/5
f 1941/5/5 1940/5/5 1939/5/5
f 1942/5/5 1940/5/5 1941/5/5
f 1945/5/5 1944/5/5 1943/5/5
f 1946/5/5 1944/5/5 1945/5/5
f 1947/4/6 1948/4/6 1954/4/6
f 1954/4/6 1948/4/6 1955/4/6
f 1949/4/6 1950/4/6 1958/4/6
f 1958/4/6 1950/4/6 1959/4/6
f 1951/4/6 1952/4/6 1962/4/6
f 1962/4/6 1952/4/6 1963/4/6
f 1961/4/6 1962/4/6 1965/4/6
f 1963/4/6 1964/4/6 1965/4/6
f 1962/4/6 1963/4/6 1965/4/6
f 1965/4/6 1964/4/6 1966/4/6
f 1955/4/6 1956/4/6 1967/4/6
f 1953/4/6 1954/4/6 1967/4/6
f 1954/4/6 1955/4/6 1967/4/6
f 1967/4/6 1956/4/6 1968/4/6
f 1968/4/6 1956/4/6 1969/4/6
f 1969/4/6 1956/4/6 1970/4/6
f 1961/4/6 1965/4/6 1971/4/6
f 1966/4/6 1964/4/6 1972/4/6
f 1953/4/6 1967/4/6 1973/4/6
f 1968/4/6 1969/4/6 1974/4/6
f 1974/4/6 1969/4/6 1975/4/6
f 1970/4/6 1956/4/6 1976/4/6
f 1961/4/6 1971/4/6 1977/4/6
f 1971/4/6 1972/4/6 1977/4/6
f 1977/4/6 1972/4/6 1978/4/6
f 1975/4/6 1976/4/6 1979/4/6
f 1974/4/6 1975/4/6 1979/4/6
f 1953/4/6 1973/4/6 1979/4/6
f 1973/4/6 1974/4/6 1979/4/6
f 1979/4/6 1976/4/6 1980/4/6
f 1976/4/6 1956/4/6 1981/4/6
f 1980/4/6 1976/4/6 1981/4/6
f 1981/4/6 1956/4/6 1982/4/6
f 1959/4/6 1960/4/6 1983/4/6
f 1957/4/6 1958/4/6 1983/4/6
f 1958/4/6 1959/4/6 1983/4/6
f 1983/4/6 1960/4/6 1984/4/6
f 1984/4/6 1960/4/6 1985/4/6
f 1985/4/6 1960/4/6 1986/4/6
f 1961/4/6 1977/4/6 1987/4/6
f 1987/4/6 1977/4/6 1988/4/6
f 1988/4/6 1977/4/6 1989/4/6
f 1978/4/6 1972/4/6 1990/4/6
f 1972/4/6 1964/4/6 1991/4/6
f 1990/4/6 1972/4/6 1991/4/6
f 1991/4/6 1964/4/6 1992/4/6
f 1980/4/6 1981/4/6 1993/4/6
f 1993/4/6 1981/4/6 1994/4/6
f 1984/4/6 1985/4/6 1995/4/6
f 1995/4/6 1985/4/6 1996/4/6
f 1988/4/6 1989/4/6 1997/4/6
f 1990/4/6 1991/4/6 1997/4/6
f 1989/4/6 1990/4/6 1997/4/6
f 1997/4/6 1991/4/6 1998/4/6
f 1999/4/6 2000/4/6 2006/4/6
f 2006/4/6 2000/4/6 2007/4/6
f 2001/4/6 2002/4/6 2010/4/6
f 2010/4/6 2002/4/6 2011/4/6
f 2003/4/6 2004/4/6 2014/4/6
f 2014/4/6 2004/4/6 2015/4/6
f 2007/4/6 2008/4/6 2017/4/6
f 2005/4/6 2006/4/6 2017/4/6
f 2006/4/6 2007/4/6 2017/4/6
f 2017/4/6 2008/4/6 2018/4/6
f 2018/4/6 2008/4/6 2019/4/6
f 2019/4/6 2008/4/6 2020/4/6
f 2011/4/6 2012/4/6 2021/4/6
f 2009/4/6 2010/4/6 2021/4/6
f 2010/4/6 2011/4/6 2021/4/6
f 2021/4/6 2012/4/6 2022/4/6
f 2022/4/6 2012/4/6 2023/4/6
f 2023/4/6 2012/4/6 2024/4/6
f 2014/4/6 2015/4/6 2025/4/6
f 2015/4/6 2016/4/6 2025/4/6
f 2013/4/6 2014/4/6 2025/4/6
f 2025/4/6 2016/4/6 2026/4/6
f 2026/4/6 2016/4/6 2027/4/6
f 2027/4/6 2016/4/6 2028/4/6
f 2018/4/6 2019/4/6 2029/4/6
f 2029/4/6 2019/4/6 2030/4/6
f 2022/4/6 2023/4/6 2031/4/6
f 2031/4/6 2023/4/6 2032/4/6
f 2026/4/6 2027/4/6 2033/4/6
f 2033/4/6 2027/4/6 2034/4/6
f 2035/4/6 2036/4/6 2042/4/6
f 2042/4/6 2036/4/6 2043/4/6
f 2037/4/6 2038/4/6 2046/4/6
f 2046/4/6 2038/4/6 2047/4/6
f 2039/4/6 2040/4/6 2050/4/6
f 2050/4/6 2040/4/6 2051/4/6
f 2043/4/6 2044/4/6 2053/4/6
f 2041/4/6 2042/4/6 2053/4/6
f 2042/4/6 2043/4/6 2053/4/6
f 2053/4/6 2044/4/6 2054/4/6
f 2041/4/6 2053/4/6 2055/4/6
f 2054/4/6 2044/4/6 2056/4/6
f 2041/4/6 2055/4/6 2057/4/6
f 2055/4/6 2056/4/6 2057/4/6
f 2057/4/6 2056/4/6 2058/4/6
f 2056/4/6 2044/4/6 2059/4/6
f 2058/4/6 2056/4/6 2059/4/6
f 2059/4/6 2044/4/6 2060/4/6
f 2047/4/6 2048/4/6 2061/4/6
f 2045/4/6 2046/4/6 2061/4/6
f 2046/4/6 2047/4/6 2061/4/6
f 2061/4/6 2048/4/6 2062/4/6
f 2062/4/6 2048/4/6 2063/4/6
f 2063/4/6 2048/4/6 2064/4/6
f 2050/4/6 2051/4/6 2065/4/6
f 2051/4/6 2052/4/6 2065/4/6
f 2049/4/6 2050/4/6 2065/4/6
f 2065/4/6 2052/4/6 2066/4/6
f 2066/4/6 2052/4/6 2067/4/6
f 2067/4/6 2052/4/6 2068/4/6
f 2058/4/6 2059/4/6 2069/4/6
f 2069/4/6 2059/4/6 2070/4/6
f 2062/4/6 2063/4/6 2071/4/6
f 2071/4/6 2063/4/6 2072/4/6
f 2066/4/6 2067/4/6 2073/4/6
f 2073/4/6 2067/4/6 2074/4/6
f 2075/3/6 2076/3/6 2077/3/6
f 2077/3/6 2076/3/6 2078/3/6
f 2079/3/6 2080/3/6 2081/3/6
f 2081/3/6 2080/3/6 2082/3/6
f 2083/3/6 2084/3/6 2086/3/6
f 2086/3/6 2084/3/6 2087/3/6
f 2085/3/6 2086/3/6 2089/3/6
f 2089/3/6 2086/3/6 2090/3/6
f 2087/3/6 2088/3/6 2091/3/6
f 2091/3/6 2088/3/6 2092/3/6
f 2090/3/6 2091/3/6 2093/3/6
f 2093/3/6 2091/3/6 2094/3/6
f 2095/8/6 2096/8/6 2097/8/6
f 2097/8/6 2096/8/6 2098/8/6
f 2099/3/6 2100/3/6 2102/3/6
f 2102/3/6 2100/3/6 2103/3/6
f 2101/3/6 2102/3/6 2105/3/6
f 2105/3/6 2102/3/6 2106/3/6
f 2103/3/6 2104/3/6 2107/3/6
f 2107/3/6 2104/3/6 2108/3/6
f 2106/3/6 2107/3/6 2109/3/6
f 2109/3/6 2107/3/6 2110/3/6
f 2111/3/6 2112/3/6 2113/3/6
f 2113/3/6 2112/3/6 2114/3/6
f 2115/3/6 2116/3/6 2117/3/6
f 2117/3/6 2116/3/6 2118/3/6
f 2119/6/6 2120/6/6 2121/6/6
f 2121/6/6 2120/6/6 2122/6/6
f 2123/8/6 2124/8/6 2125/8/6
f 2125/8/6 2124/8/6 2126/8/6
f 2127/5/6 2128/5/6 2129/5/6
f 2129/5/6 2128/5/6 2130/5/6
f 2131/3/6 2132/3/6 2136/3/6
f 2136/3/6 2132/3/6 2137/3/6
f 2133/3/6 2134/3/6 2139/3/6
f 2139/3/6 2134/3/6 2140/3/6
f 2135/3/6 2136/3/6 2143/3/6
f 2143/3/6 2136/3/6 2144/3/6
f 2138/3/6 2139/3/6 2145/3/6
f 2145/3/6 2139/3/6 2146/3/6
f 2140/3/6 2141/3/6 2147/3/6
f 2147/3/6 2141/3/6 2148/3/6
f 2146/3/6 2147/3/6 2149/3/6
f 2149/3/6 2147/3/6 2150/3/6
f 2142/3/6 2143/3/6 2153/3/6
f 2153/3/6 2143/3/6 2154/3/6
f 2151/5/6 2152/5/6 2156/5/6
f 2156/5/6 2152/5/6 2157/5/6
f 2154/3/6 2155/3/6 2158/3/6
f 2158/3/6 2155/3/6 2159/3/6
f 2159/3/6 2160/3/6 2161/3/6
f 2161/3/6 2160/3/6 2162/3/6
f 2167/3/6 2168/3/6 2170/3/6
f 2170/3/6 2168/3/6 2171/3/6
f 2169/3/6 2170/3/6 2173/3/6
f 2173/3/6 2170/3/6 2174/3/6
f 2171/3/6 2172/3/6 2175/3/6
f 2175/3/6 2172/3/6 2176/3/6
f 2163/6/6 2164/6/6 2177/6/6
f 2177/6/6 2164/6/6 2178/6/6
f 2165/6/6 2166/6/6 2179/6/6
f 2179/6/6 2166/6/6 2180/6/6
f 2174/3/6 2175/3/6 2181/3/6
f 2181/3/6 2175/3/6 2182/3/6
f 2183/3/6 2184/3/6 2185/3/6
f 2185/3/6 2184/3/6 2186/3/6
f 2187/3/6 2188/3/6 2189/3/6
f 2189/3/6 2188/3/6 2190/3/6
f 2191/5/6 2192/5/6 2193/5/6
f 2193/5/6 2192/5/6 2194/5/6
f 2195/3/6 2196/3/6 2197/3/6
f 2197/3/6 2196/3/6 2198/3/6
f 2199/3/6 2200/3/6 2201/3/6
f 2201/3/6 2200/3/6 2202/3/6
f 2203/3/6 2204/3/6 2205/3/6
f 2205/3/6 2204/3/6 2206/3/6
f 2207/3/6 2208/3/6 2209/3/6
f 2209/3/6 2208/3/6 2210/3/6
f 2211/5/6 2212/5/6 2213/5/6
f 2213/5/6 2212/5/6 2214/5/6
f 2215/5/6 2216/5/6 2217/5/6
f 2217/5/6 2216/5/6 2218/5/6
f 2219/3/6 2220/3/6 2221/3/6
f 2221/3/6 2220/3/6 2222/3/6
f 2223/8/6 2224/8/6 2227/8/6
f 2227/8/6 2224/8/6 2228/8/6
f 2225/8/6 2226/8/6 2229/8/6
f 2229/8/6 2226/8/6 2230/8/6
f 2231/6/6 2232/6/6 2237/6/6
f 2237/6/6 2232/6/6 2238/6/6
f 2233/6/6 2234/6/6 2239/6/6
f 2234/3/6 2235/3/6 2240/3/6
f 2239/6/6 2234/6/6 2240/6/6
f 2240/3/6 2235/3/6 2241/3/6
f 2236/6/6 2237/6/6 2245/6/6
f 2245/6/6 2237/6/6 2246/6/6
f 2240/6/6 2241/6/6 2247/6/6
f 2241/3/6 2242/3/6 2248/3/6
f 2247/6/6 2241/6/6 2248/6/6
f 2248/3/6 2242/3/6 2249/3/6
f 2243/5/6 2244/5/6 2251/5/6
f 2251/5/6 2244/5/6 2252/5/6
f 2249/3/6 2250/3/6 2259/3/6
f 2259/3/6 2250/3/6 2260/3/6
f 2253/6/6 2254/6/6 2261/6/6
f 2261/6/6 2254/6/6 2262/6/6
f 2257/6/6 2258/6/6 2264/6/6
f 2258/3/6 2259/3/6 2265/3/6
f 2264/6/6 2258/6/6 2265/6/6
f 2265/3/6 2259/3/6 2266/3/6
f 2255/8/6 2256/8/6 2267/8/6
f 2267/8/6 2256/8/6 2268/8/6
f 2262/6/6 2263/6/6 2269/6/6
f 2269/6/6 2263/6/6 2270/6/6
f 2257/6/6 2264/6/6 2271/6/6
f 2264/3/6 2265/3/6 2272/3/6
f 2271/6/6 2264/6/6 2272/6/6
f 2272/3/6 2265/3/6 2273/3/6
f 2274/8/6 2275/8/6 2276/8/6
f 2276/8/6 2275/8/6 2277/8/6
f 2278/6/6 2279/6/6 2281/6/6
f 2281/6/6 2279/6/6 2282/6/6
f 2280/6/6 2281/6/6 2287/6/6
f 2287/6/6 2281/6/6 2288/6/6
f 2282/6/6 2283/6/6 2289/6/6
f 2289/6/6 2283/6/6 2290/6/6
f 2284/5/6 2285/5/6 2292/5/6
f 2292/5/6 2285/5/6 2293/5/6
f 2286/6/6 2287/6/6 2294/6/6
f 2294/6/6 2287/6/6 2295/6/6
f 2290/6/6 2291/6/6 2298/6/6
f 2298/6/6 2291/6/6 2299/6/6
f 2296/6/6 2297/6/6 2300/6/6
f 2300/6/6 2297/6/6 2301/6/6
f 2301/6/6 2302/6/6 2303/6/6
f 2303/6/6 2302/6/6 2304/6/6
f 2305/6/6 2306/6/6 2307/6/6
f 2307/6/6 2306/6/6 2308/6/6
f 2308/6/6 2306/6/6 2309/6/6
f 2309/6/6 2306/6/6 2310/6/6
f 2308/6/6 2309/6/6 2312/6/6
f 2312/6/6 2309/6/6 2313/6/6
f 2311/6/6 2312/6/6 2315/6/6
f 2313/6/6 2314/6/6 2315/6/6
f 2312/6/6 2313/6/6 2315/6/6
f 2315/6/6 2314/6/6 2316/6/6
f 2317/6/6 2318/6/6 2322/6/6
f 2322/6/6 2318/6/6 2323/6/6
f 2319/5/6 2320/5/6 2325/5/6
f 2325/5/6 2320/5/6 2326/5/6
f 2323/6/6 2324/6/6 2327/6/6
f 2321/6/6 2322/6/6 2327/6/6
f 2322/6/6 2323/6/6 2327/6/6
f 2327/6/6 2324/6/6 2328/6/6
f 2328/6/6 2324/6/6 2329/6/6
f 2329/6/6 2324/6/6 2330/6/6
f 2328/6/6 2329/6/6 2331/6/6
f 2331/6/6 2329/6/6 2332/6/6
f 2333/6/6 2334/6/6 2337/6/6
f 2337/6/6 2334/6/6 2338/6/6
f 2335/6/6 2336/6/6 2339/6/6
f 2339/6/6 2336/6/6 2340/6/6
f 2341/5/6 2342/5/6 2343/5/6
f 2343/5/6 2342/5/6 2344/5/6
f 2345/6/6 2346/6/6 2349/6/6
f 2349/6/6 2346/6/6 2350/6/6
f 2347/6/6 2348/6/6 2351/6/6
f 2351/6/6 2348/6/6 2352/6/6
f 2353/6/6 2354/6/6 2357/6/6
f 2357/6/6 2354/6/6 2358/6/6
f 2355/6/6 2356/6/6 2359/6/6
f 2359/6/6 2356/6/6 2360/6/6
