# MagicaVoxel @ Ephtracy

# group
o 

# material
mtllib hard_five_tile.mtl
usemtl palette

# normals
vn -1 0 0
vn 1 0 0
vn 0 0 1
vn 0 0 -1
vn 0 -1 0
vn 0 1 0

# texcoords
vt 0.248047 0.5
vt 0.517578 0.5
vt 0.556641 0.5
vt 0.615234 0.5
vt 0.619141 0.5
vt 0.708984 0.5
vt 0.958984 0.5
vt 0.962891 0.5
vt 0.966797 0.5
vt 0.990234 0.5

# verts
v -1.9 0.3 1.8
v -1.9 0.3 0.8
v -1.9 0.3 0.5
v -1.9 0.3 -0.5
v -1.9 0.3 -0.8
v -1.9 0.3 -1.8
v -1.9 0.5 1.8
v -1.9 0.5 0.8
v -1.9 0.5 0.5
v -1.9 0.5 -0.5
v -1.9 0.5 -0.8
v -1.9 0.5 -1.8
v -1.8 0.3 1.9
v -1.8 0.3 1.8
v -1.8 0.3 0.8
v -1.8 0.3 0.7
v -1.8 0.3 0.6
v -1.8 0.3 0.5
v -1.8 0.3 -0.5
v -1.8 0.3 -0.6
v -1.8 0.3 -0.7
v -1.8 0.3 -0.8
v -1.8 0.3 -1.8
v -1.8 0.3 -1.9
v -1.8 0.5 1.9
v -1.8 0.5 1.8
v -1.8 0.5 0.8
v -1.8 0.5 0.7
v -1.8 0.5 0.6
v -1.8 0.5 0.5
v -1.8 0.5 -0.5
v -1.8 0.5 -0.6
v -1.8 0.5 -0.7
v -1.8 0.5 -0.8
v -1.8 0.5 -1.3
v -1.8 0.5 -1.4
v -1.8 0.5 -1.7
v -1.8 0.5 -1.8
v -1.8 0.5 -1.9
v -1.8 0.6 1.8
v -1.8 0.6 0.8
v -1.8 0.6 -1.4
v -1.8 0.6 -1.5
v -1.8 0.6 -1.6
v -1.8 0.6 -1.7
v -1.8 0.7 1.8
v -1.8 0.7 1.7
v -1.8 0.7 -1.3
v -1.8 0.7 -1.4
v -1.8 0.7 -1.5
v -1.8 0.7 -1.6
v -1.8 0.7 -1.7
v -1.8 0.8 1.8
v -1.8 0.8 1.7
v -1.8 0.8 -1.7
v -1.8 0.8 -1.8
v -1.8 0.9 1.8
v -1.8 0.9 1.7
v -1.8 0.9 -1.7
v -1.8 0.9 -1.8
v -1.8 1 1.8
v -1.8 1 1.7
v -1.8 1 -1.7
v -1.8 1 -1.8
v -1.8 1.1 -1.7
v -1.8 1.1 -1.8
v -1.8 1.5 1.8
v -1.8 1.5 0.8
v -1.7 0.5 1.7
v -1.7 0.5 1.4
v -1.7 0.5 1.2
v -1.7 0.5 0.9
v -1.7 0.6 1.7
v -1.7 0.6 1.4
v -1.7 0.6 1.2
v -1.7 0.6 0.9
v -1.7 1.5 1.8
v -1.7 1.5 1.6
v -1.7 1.8 1.8
v -1.7 1.8 1.6
v -1.4 0.7 0.8
v -1.4 0.7 0.7
v -1.4 0.9 0.8
v -1.4 0.9 0.7
v -1.2 1.5 1.8
v -1.2 1.5 1.6
v -1.2 1.8 1.8
v -1.2 1.8 1.6
v -1.1 0.5 1.7
v -1.1 0.5 1.4
v -1.1 0.5 1.2
v -1.1 0.5 0.9
v -1.1 0.6 1.7
v -1.1 0.6 1.4
v -1.1 0.6 1.2
v -1.1 0.6 0.9
v -1 0.5 -1.3
v -1 0.5 -1.4
v -1 0.5 -1.7
v -1 0.5 -1.8
v -1 0.6 -1.3
v -1 0.6 -1.4
v -1 0.6 -1.7
v -1 0.6 -1.8
v -0.6 0.3 1.8
v -0.6 0.3 0.8
v -0.6 0.3 0.5
v -0.6 0.3 -0.5
v -0.6 0.3 -0.8
v -0.6 0.3 -1.8
v -0.6 0.5 1.8
v -0.6 0.5 0.8
v -0.6 0.5 0.5
v -0.6 0.5 -0.5
v -0.6 0.5 -0.8
v -0.6 0.5 -1.8
v -0.5 0.3 1.9
v -0.5 0.3 1.8
v -0.5 0.3 0.8
v -0.5 0.3 0.7
v -0.5 0.3 0.6
v -0.5 0.3 0.5
v -0.5 0.3 -0.5
v -0.5 0.3 -0.6
v -0.5 0.3 -0.7
v -0.5 0.3 -0.8
v -0.5 0.3 -1.8
v -0.5 0.3 -1.9
v -0.5 0.5 1.9
v -0.5 0.5 1.8
v -0.5 0.5 0.8
v -0.5 0.5 0.7
v -0.5 0.5 0.6
v -0.5 0.5 0.5
v -0.5 0.5 -0.5
v -0.5 0.5 -0.6
v -0.5 0.5 -0.7
v -0.5 0.5 -0.8
v -0.5 0.5 -1.8
v -0.5 0.5 -1.9
v 0.7 0.3 1.8
v 0.7 0.3 0.8
v 0.7 0.3 0.5
v 0.7 0.3 -0.5
v 0.7 0.3 -0.8
v 0.7 0.3 -1.8
v 0.7 0.5 1.8
v 0.7 0.5 0.8
v 0.7 0.5 0.5
v 0.7 0.5 -0.5
v 0.7 0.5 -0.8
v 0.7 0.5 -1.8
v 0.8 0.3 1.9
v 0.8 0.3 1.8
v 0.8 0.3 0.8
v 0.8 0.3 0.7
v 0.8 0.3 0.6
v 0.8 0.3 0.5
v 0.8 0.3 -0.5
v 0.8 0.3 -0.6
v 0.8 0.3 -0.7
v 0.8 0.3 -0.8
v 0.8 0.3 -1.8
v 0.8 0.3 -1.9
v 0.8 0.5 1.9
v 0.8 0.5 1.8
v 0.8 0.5 0.8
v 0.8 0.5 0.7
v 0.8 0.5 0.6
v 0.8 0.5 0.5
v 0.8 0.5 -0.5
v 0.8 0.5 -0.6
v 0.8 0.5 -0.7
v 0.8 0.5 -0.8
v 0.8 0.5 -1.8
v 0.8 0.5 -1.9
v 0.8 0.9 -0.9
v 0.8 0.9 -1.7
v 0.8 1.2 -0.9
v 0.8 1.2 -1.7
v 0.9 0.9 -0.8
v 0.9 0.9 -0.9
v 0.9 0.9 -1.7
v 0.9 0.9 -1.8
v 0.9 1.2 -0.8
v 0.9 1.2 -0.9
v 0.9 1.2 -1
v 0.9 1.2 -1.6
v 0.9 1.2 -1.7
v 0.9 1.2 -1.8
v 0.9 1.5 -1
v 0.9 1.5 -1.6
v 1 1.2 -0.9
v 1 1.2 -1
v 1 1.2 -1.6
v 1 1.2 -1.7
v 1 1.5 -0.9
v 1 1.5 -1
v 1 1.5 -1.1
v 1 1.5 -1.5
v 1 1.5 -1.6
v 1 1.5 -1.7
v 1 1.8 -1.1
v 1 1.8 -1.5
v 1.1 0.5 -1.1
v 1.1 0.5 -1.5
v 1.1 0.9 -1.1
v 1.1 0.9 -1.5
v 1.1 1.5 -1
v 1.1 1.5 -1.1
v 1.1 1.5 -1.5
v 1.1 1.5 -1.6
v 1.1 1.8 -1
v 1.1 1.8 -1.1
v 1.1 1.8 -1.5
v 1.1 1.8 -1.6
v 1.3 1.5 1.7
v 1.3 1.5 1.4
v 1.3 1.6 1.7
v 1.3 1.6 1.4
v 1.4 0.5 1.7
v 1.4 0.5 1.4
v 1.4 0.6 1.7
v 1.4 0.6 1.4
v 1.4 1.2 1.7
v 1.4 1.2 1.4
v 1.4 1.3 1.7
v 1.4 1.3 1.4
v 1.4 1.5 1.8
v 1.4 1.5 1.7
v 1.4 1.5 1.4
v 1.4 1.5 1.3
v 1.4 1.6 1.8
v 1.4 1.6 1.7
v 1.4 1.6 1.4
v 1.4 1.6 1.3
v 1.4 1.7 1.7
v 1.4 1.7 1.4
v 1.5 0.6 1.6
v 1.5 0.6 1.5
v 1.5 1.2 1.6
v 1.5 1.2 1.5
v 1.5 1.7 1.6
v 1.5 1.7 1.5
v 1.5 1.8 1.6
v 1.5 1.8 1.5
v -1.7 0.5 -1.3
v -1.7 0.5 -1.4
v -1.7 0.5 -1.7
v -1.7 0.5 -1.8
v -1.7 0.6 -1.3
v -1.7 0.6 -1.4
v -1.7 0.6 -1.7
v -1.7 0.6 -1.8
v -1.5 0.5 1.7
v -1.5 0.5 1.4
v -1.5 0.5 1.2
v -1.5 0.5 0.9
v -1.5 0.6 1.7
v -1.5 0.6 1.4
v -1.5 0.6 1.2
v -1.5 0.6 0.9
v -1.4 1.5 1.8
v -1.4 1.5 1.6
v -1.4 1.8 1.8
v -1.4 1.8 1.6
v -1.2 0.7 0.8
v -1.2 0.7 0.7
v -1.2 0.9 0.8
v -1.2 0.9 0.7
v -0.9 0.5 1.7
v -0.9 0.5 1.4
v -0.9 0.5 1.2
v -0.9 0.5 0.9
v -0.9 0.5 -1.3
v -0.9 0.5 -1.4
v -0.9 0.5 -1.7
v -0.9 0.5 -1.8
v -0.9 0.6 1.7
v -0.9 0.6 1.4
v -0.9 0.6 1.2
v -0.9 0.6 0.9
v -0.9 0.6 -1.4
v -0.9 0.6 -1.5
v -0.9 0.6 -1.6
v -0.9 0.6 -1.7
v -0.9 0.7 -1.3
v -0.9 0.7 -1.4
v -0.9 0.7 -1.5
v -0.9 0.7 -1.6
v -0.9 0.7 -1.7
v -0.9 0.8 -1.7
v -0.9 0.8 -1.8
v -0.9 0.9 -1.7
v -0.9 0.9 -1.8
v -0.9 1 -1.7
v -0.9 1 -1.8
v -0.9 1.1 -1.7
v -0.9 1.1 -1.8
v -0.9 1.5 1.8
v -0.9 1.5 1.6
v -0.9 1.8 1.8
v -0.9 1.8 1.6
v -0.8 0.3 1.9
v -0.8 0.3 1.8
v -0.8 0.3 0.8
v -0.8 0.3 0.7
v -0.8 0.3 0.6
v -0.8 0.3 0.5
v -0.8 0.3 -0.5
v -0.8 0.3 -0.6
v -0.8 0.3 -0.7
v -0.8 0.3 -0.8
v -0.8 0.3 -1.8
v -0.8 0.3 -1.9
v -0.8 0.5 1.9
v -0.8 0.5 1.8
v -0.8 0.5 0.8
v -0.8 0.5 0.7
v -0.8 0.5 0.6
v -0.8 0.5 0.5
v -0.8 0.5 -0.5
v -0.8 0.5 -0.6
v -0.8 0.5 -0.7
v -0.8 0.5 -0.8
v -0.8 0.5 -1.8
v -0.8 0.5 -1.9
v -0.8 0.6 1.8
v -0.8 0.6 0.8
v -0.8 0.7 1.8
v -0.8 0.7 1.7
v -0.8 0.8 1.8
v -0.8 0.8 1.7
v -0.8 0.9 1.8
v -0.8 0.9 1.7
v -0.8 1 1.8
v -0.8 1 1.7
v -0.8 1.5 1.8
v -0.8 1.5 0.8
v -0.7 0.3 1.8
v -0.7 0.3 0.8
v -0.7 0.3 0.5
v -0.7 0.3 -0.5
v -0.7 0.3 -0.8
v -0.7 0.3 -1.8
v -0.7 0.5 1.8
v -0.7 0.5 0.8
v -0.7 0.5 0.5
v -0.7 0.5 -0.5
v -0.7 0.5 -0.8
v -0.7 0.5 -1.8
v 0.5 0.3 1.9
v 0.5 0.3 1.8
v 0.5 0.3 0.8
v 0.5 0.3 0.7
v 0.5 0.3 0.6
v 0.5 0.3 0.5
v 0.5 0.3 -0.5
v 0.5 0.3 -0.6
v 0.5 0.3 -0.7
v 0.5 0.3 -0.8
v 0.5 0.3 -1.8
v 0.5 0.3 -1.9
v 0.5 0.5 1.9
v 0.5 0.5 1.8
v 0.5 0.5 0.8
v 0.5 0.5 0.7
v 0.5 0.5 0.6
v 0.5 0.5 0.5
v 0.5 0.5 -0.5
v 0.5 0.5 -0.6
v 0.5 0.5 -0.7
v 0.5 0.5 -0.8
v 0.5 0.5 -1.8
v 0.5 0.5 -1.9
v 0.6 0.3 1.8
v 0.6 0.3 0.8
v 0.6 0.3 0.5
v 0.6 0.3 -0.5
v 0.6 0.3 -0.8
v 0.6 0.3 -1.8
v 0.6 0.5 1.8
v 0.6 0.5 0.8
v 0.6 0.5 0.5
v 0.6 0.5 -0.5
v 0.6 0.5 -0.8
v 0.6 0.5 -1.8
v 1.5 0.5 -1.1
v 1.5 0.5 -1.2
v 1.5 0.5 -1.5
v 1.5 0.9 -1.1
v 1.5 0.9 -1.5
v 1.5 1.5 -1
v 1.5 1.5 -1.1
v 1.5 1.5 -1.5
v 1.5 1.5 -1.6
v 1.5 1.8 -1
v 1.5 1.8 -1.1
v 1.5 1.8 -1.5
v 1.5 1.8 -1.6
v 1.6 0.6 1.6
v 1.6 0.6 1.5
v 1.6 1.2 1.6
v 1.6 1.2 1.5
v 1.6 1.2 -0.9
v 1.6 1.2 -1
v 1.6 1.2 -1.6
v 1.6 1.2 -1.7
v 1.6 1.5 -0.9
v 1.6 1.5 -1
v 1.6 1.5 -1.1
v 1.6 1.5 -1.5
v 1.6 1.5 -1.6
v 1.6 1.5 -1.7
v 1.6 1.7 1.6
v 1.6 1.7 1.5
v 1.6 1.8 1.6
v 1.6 1.8 1.5
v 1.6 1.8 -1.1
v 1.6 1.8 -1.5
v 1.7 0.5 1.7
v 1.7 0.5 1.4
v 1.7 0.6 1.7
v 1.7 0.6 1.4
v 1.7 0.9 -0.8
v 1.7 0.9 -0.9
v 1.7 0.9 -1.7
v 1.7 0.9 -1.8
v 1.7 1.2 1.7
v 1.7 1.2 1.4
v 1.7 1.2 -0.8
v 1.7 1.2 -0.9
v 1.7 1.2 -1
v 1.7 1.2 -1.6
v 1.7 1.2 -1.7
v 1.7 1.2 -1.8
v 1.7 1.3 1.7
v 1.7 1.3 1.4
v 1.7 1.5 1.8
v 1.7 1.5 1.7
v 1.7 1.5 1.4
v 1.7 1.5 1.3
v 1.7 1.5 -1
v 1.7 1.5 -1.6
v 1.7 1.6 1.8
v 1.7 1.6 1.7
v 1.7 1.6 1.4
v 1.7 1.6 1.3
v 1.7 1.7 1.7
v 1.7 1.7 1.4
v 1.8 0.3 1.9
v 1.8 0.3 1.8
v 1.8 0.3 0.8
v 1.8 0.3 0.7
v 1.8 0.3 0.6
v 1.8 0.3 0.5
v 1.8 0.3 -0.5
v 1.8 0.3 -0.6
v 1.8 0.3 -0.7
v 1.8 0.3 -0.8
v 1.8 0.3 -1.8
v 1.8 0.3 -1.9
v 1.8 0.5 1.9
v 1.8 0.5 1.8
v 1.8 0.5 0.8
v 1.8 0.5 0.7
v 1.8 0.5 0.6
v 1.8 0.5 0.5
v 1.8 0.5 -0.5
v 1.8 0.5 -0.6
v 1.8 0.5 -0.7
v 1.8 0.5 -0.8
v 1.8 0.5 -1.8
v 1.8 0.5 -1.9
v 1.8 0.9 -0.9
v 1.8 0.9 -1.7
v 1.8 1.2 -0.9
v 1.8 1.2 -1.7
v 1.8 1.5 1.7
v 1.8 1.5 1.4
v 1.8 1.6 1.7
v 1.8 1.6 1.4
v 1.9 0.3 1.8
v 1.9 0.3 0.8
v 1.9 0.3 0.5
v 1.9 0.3 -0.5
v 1.9 0.3 -0.8
v 1.9 0.3 -1.8
v 1.9 0.5 1.8
v 1.9 0.5 0.8
v 1.9 0.5 0.5
v 1.9 0.5 -0.5
v 1.9 0.5 -0.8
v 1.9 0.5 -1.8
v -1.8 0.3 1.9
v -1.8 0.5 1.9
v -0.8 0.3 1.9
v -0.8 0.5 1.9
v -0.5 0.3 1.9
v -0.5 0.5 1.9
v 0.5 0.3 1.9
v 0.5 0.5 1.9
v 0.8 0.3 1.9
v 0.8 0.5 1.9
v 1.8 0.3 1.9
v 1.8 0.5 1.9
v -1.9 0.3 1.8
v -1.9 0.5 1.8
v -1.8 0.3 1.8
v -1.8 0.5 1.8
v -1.8 0.6 1.8
v -1.8 0.7 1.8
v -1.8 0.8 1.8
v -1.8 0.9 1.8
v -1.8 1 1.8
v -1.8 1.5 1.8
v -1.7 1.5 1.8
v -1.7 1.8 1.8
v -1.6 0.7 1.8
v -1.6 0.8 1.8
v -1.6 0.9 1.8
v -1.6 1 1.8
v -1.6 1.2 1.8
v -1.6 1.5 1.8
v -1.6 1.7 1.8
v -1.5 1 1.8
v -1.5 1.2 1.8
v -1.5 1.5 1.8
v -1.5 1.7 1.8
v -1.4 0.9 1.8
v -1.4 1 1.8
v -1.4 1.5 1.8
v -1.4 1.8 1.8
v -1.2 0.9 1.8
v -1.2 1 1.8
v -1.2 1.5 1.8
v -1.2 1.8 1.8
v -1.1 1 1.8
v -1.1 1.2 1.8
v -1.1 1.5 1.8
v -1.1 1.7 1.8
v -1 0.7 1.8
v -1 0.8 1.8
v -1 0.9 1.8
v -1 1 1.8
v -1 1.2 1.8
v -1 1.5 1.8
v -1 1.7 1.8
v -0.9 1.5 1.8
v -0.9 1.8 1.8
v -0.8 0.3 1.8
v -0.8 0.5 1.8
v -0.8 0.6 1.8
v -0.8 0.7 1.8
v -0.8 0.8 1.8
v -0.8 0.9 1.8
v -0.8 1 1.8
v -0.8 1.5 1.8
v -0.7 0.3 1.8
v -0.7 0.5 1.8
v -0.6 0.3 1.8
v -0.6 0.5 1.8
v -0.5 0.3 1.8
v -0.5 0.5 1.8
v 0.5 0.3 1.8
v 0.5 0.5 1.8
v 0.6 0.3 1.8
v 0.6 0.5 1.8
v 0.7 0.3 1.8
v 0.7 0.5 1.8
v 0.8 0.3 1.8
v 0.8 0.5 1.8
v 1.4 1.5 1.8
v 1.4 1.6 1.8
v 1.7 1.5 1.8
v 1.7 1.6 1.8
v 1.8 0.3 1.8
v 1.8 0.5 1.8
v 1.9 0.3 1.8
v 1.9 0.5 1.8
v -1.7 0.5 1.7
v -1.7 0.6 1.7
v -1.5 0.5 1.7
v -1.5 0.6 1.7
v -1.1 0.5 1.7
v -1.1 0.6 1.7
v -0.9 0.5 1.7
v -0.9 0.6 1.7
v 1.3 1.5 1.7
v 1.3 1.6 1.7
v 1.4 0.5 1.7
v 1.4 0.6 1.7
v 1.4 1.2 1.7
v 1.4 1.3 1.7
v 1.4 1.5 1.7
v 1.4 1.6 1.7
v 1.4 1.7 1.7
v 1.7 0.5 1.7
v 1.7 0.6 1.7
v 1.7 1.2 1.7
v 1.7 1.3 1.7
v 1.7 1.5 1.7
v 1.7 1.6 1.7
v 1.7 1.7 1.7
v 1.8 1.5 1.7
v 1.8 1.6 1.7
v 1.5 0.6 1.6
v 1.5 1.2 1.6
v 1.5 1.7 1.6
v 1.5 1.8 1.6
v 1.6 0.6 1.6
v 1.6 1.2 1.6
v 1.6 1.7 1.6
v 1.6 1.8 1.6
v -1.7 0.5 1.2
v -1.7 0.6 1.2
v -1.5 0.5 1.2
v -1.5 0.6 1.2
v -1.1 0.5 1.2
v -1.1 0.6 1.2
v -0.9 0.5 1.2
v -0.9 0.6 1.2
v -1.8 0.3 0.6
v -1.8 0.5 0.6
v -0.8 0.3 0.6
v -0.8 0.5 0.6
v -0.5 0.3 0.6
v -0.5 0.5 0.6
v 0.5 0.3 0.6
v 0.5 0.5 0.6
v 0.8 0.3 0.6
v 0.8 0.5 0.6
v 1.8 0.3 0.6
v 1.8 0.5 0.6
v -1.9 0.3 0.5
v -1.9 0.5 0.5
v -1.8 0.3 0.5
v -1.8 0.5 0.5
v -0.8 0.3 0.5
v -0.8 0.5 0.5
v -0.7 0.3 0.5
v -0.7 0.5 0.5
v -0.6 0.3 0.5
v -0.6 0.5 0.5
v -0.5 0.3 0.5
v -0.5 0.5 0.5
v 0.5 0.3 0.5
v 0.5 0.5 0.5
v 0.6 0.3 0.5
v 0.6 0.5 0.5
v 0.7 0.3 0.5
v 0.7 0.5 0.5
v 0.8 0.3 0.5
v 0.8 0.5 0.5
v 1.8 0.3 0.5
v 1.8 0.5 0.5
v 1.9 0.3 0.5
v 1.9 0.5 0.5
v -1.8 0.3 -0.7
v -1.8 0.5 -0.7
v -0.8 0.3 -0.7
v -0.8 0.5 -0.7
v -0.5 0.3 -0.7
v -0.5 0.5 -0.7
v 0.5 0.3 -0.7
v 0.5 0.5 -0.7
v 0.8 0.3 -0.7
v 0.8 0.5 -0.7
v 1.8 0.3 -0.7
v 1.8 0.5 -0.7
v -1.9 0.3 -0.8
v -1.9 0.5 -0.8
v -1.8 0.3 -0.8
v -1.8 0.5 -0.8
v -0.8 0.3 -0.8
v -0.8 0.5 -0.8
v -0.7 0.3 -0.8
v -0.7 0.5 -0.8
v -0.6 0.3 -0.8
v -0.6 0.5 -0.8
v -0.5 0.3 -0.8
v -0.5 0.5 -0.8
v 0.5 0.3 -0.8
v 0.5 0.5 -0.8
v 0.6 0.3 -0.8
v 0.6 0.5 -0.8
v 0.7 0.3 -0.8
v 0.7 0.5 -0.8
v 0.8 0.3 -0.8
v 0.8 0.5 -0.8
v 0.9 0.9 -0.8
v 0.9 1.2 -0.8
v 1.7 0.9 -0.8
v 1.7 1.2 -0.8
v 1.8 0.3 -0.8
v 1.8 0.5 -0.8
v 1.9 0.3 -0.8
v 1.9 0.5 -0.8
v 0.8 0.9 -0.9
v 0.8 1.2 -0.9
v 0.9 0.9 -0.9
v 0.9 1.2 -0.9
v 1 1.2 -0.9
v 1 1.5 -0.9
v 1.6 1.2 -0.9
v 1.6 1.5 -0.9
v 1.7 0.9 -0.9
v 1.7 1.2 -0.9
v 1.8 0.9 -0.9
v 1.8 1.2 -0.9
v 0.9 1.2 -1
v 0.9 1.5 -1
v 1 1.2 -1
v 1 1.5 -1
v 1.1 1.5 -1
v 1.1 1.8 -1
v 1.5 1.5 -1
v 1.5 1.8 -1
v 1.6 1.2 -1
v 1.6 1.5 -1
v 1.7 1.2 -1
v 1.7 1.5 -1
v 1 1.5 -1.1
v 1 1.8 -1.1
v 1.1 0.5 -1.1
v 1.1 0.9 -1.1
v 1.1 1.5 -1.1
v 1.1 1.8 -1.1
v 1.3 0.5 -1.1
v 1.5 0.5 -1.1
v 1.5 0.9 -1.1
v 1.5 1.5 -1.1
v 1.5 1.8 -1.1
v 1.6 1.5 -1.1
v 1.6 1.8 -1.1
v -1.8 0.5 -1.3
v -1.8 0.7 -1.3
v -1.7 0.5 -1.3
v -1.7 0.6 -1.3
v -1 0.5 -1.3
v -1 0.6 -1.3
v -0.9 0.5 -1.3
v -0.9 0.7 -1.3
v -1.8 0.5 -1.7
v -1.8 0.6 -1.7
v -1.8 0.7 -1.7
v -1.8 0.8 -1.7
v -1.8 0.9 -1.7
v -1.8 1 -1.7
v -1.8 1.1 -1.7
v -1.7 0.5 -1.7
v -1.7 0.6 -1.7
v -1 0.5 -1.7
v -1 0.6 -1.7
v -0.9 0.5 -1.7
v -0.9 0.6 -1.7
v -0.9 0.7 -1.7
v -0.9 0.8 -1.7
v -0.9 0.9 -1.7
v -0.9 1 -1.7
v -0.9 1.1 -1.7
v -1.7 1.5 1.6
v -1.7 1.8 1.6
v -1.4 1.5 1.6
v -1.4 1.8 1.6
v -1.2 1.5 1.6
v -1.2 1.8 1.6
v -0.9 1.5 1.6
v -0.9 1.8 1.6
v 1.5 0.6 1.5
v 1.5 1.2 1.5
v 1.5 1.7 1.5
v 1.5 1.8 1.5
v 1.6 0.6 1.5
v 1.6 1.2 1.5
v 1.6 1.7 1.5
v 1.6 1.8 1.5
v -1.7 0.5 1.4
v -1.7 0.6 1.4
v -1.5 0.5 1.4
v -1.5 0.6 1.4
v -1.1 0.5 1.4
v -1.1 0.6 1.4
v -0.9 0.5 1.4
v -0.9 0.6 1.4
v 1.3 1.5 1.4
v 1.3 1.6 1.4
v 1.4 0.5 1.4
v 1.4 0.6 1.4
v 1.4 1.2 1.4
v 1.4 1.3 1.4
v 1.4 1.5 1.4
v 1.4 1.6 1.4
v 1.4 1.7 1.4
v 1.7 0.5 1.4
v 1.7 0.6 1.4
v 1.7 1.2 1.4
v 1.7 1.3 1.4
v 1.7 1.5 1.4
v 1.7 1.6 1.4
v 1.7 1.7 1.4
v 1.8 1.5 1.4
v 1.8 1.6 1.4
v 1.4 1.5 1.3
v 1.4 1.6 1.3
v 1.7 1.5 1.3
v 1.7 1.6 1.3
v -1.7 0.5 0.9
v -1.7 0.6 0.9
v -1.5 0.5 0.9
v -1.5 0.6 0.9
v -1.1 0.5 0.9
v -1.1 0.6 0.9
v -0.9 0.5 0.9
v -0.9 0.6 0.9
v -1.9 0.3 0.8
v -1.9 0.5 0.8
v -1.8 0.3 0.8
v -1.8 0.5 0.8
v -1.8 0.6 0.8
v -1.8 1.5 0.8
v -1.4 0.7 0.8
v -1.4 0.9 0.8
v -1.2 0.7 0.8
v -1.2 0.9 0.8
v -0.8 0.3 0.8
v -0.8 0.5 0.8
v -0.8 0.6 0.8
v -0.8 1.5 0.8
v -0.7 0.3 0.8
v -0.7 0.5 0.8
v -0.6 0.3 0.8
v -0.6 0.5 0.8
v -0.5 0.3 0.8
v -0.5 0.5 0.8
v 0.5 0.3 0.8
v 0.5 0.5 0.8
v 0.6 0.3 0.8
v 0.6 0.5 0.8
v 0.7 0.3 0.8
v 0.7 0.5 0.8
v 0.8 0.3 0.8
v 0.8 0.5 0.8
v 1.8 0.3 0.8
v 1.8 0.5 0.8
v 1.9 0.3 0.8
v 1.9 0.5 0.8
v -1.8 0.3 0.7
v -1.8 0.5 0.7
v -1.4 0.7 0.7
v -1.4 0.9 0.7
v -1.2 0.7 0.7
v -1.2 0.9 0.7
v -0.8 0.3 0.7
v -0.8 0.5 0.7
v -0.5 0.3 0.7
v -0.5 0.5 0.7
v 0.5 0.3 0.7
v 0.5 0.5 0.7
v 0.8 0.3 0.7
v 0.8 0.5 0.7
v 1.8 0.3 0.7
v 1.8 0.5 0.7
v -1.9 0.3 -0.5
v -1.9 0.5 -0.5
v -1.8 0.3 -0.5
v -1.8 0.5 -0.5
v -0.8 0.3 -0.5
v -0.8 0.5 -0.5
v -0.7 0.3 -0.5
v -0.7 0.5 -0.5
v -0.6 0.3 -0.5
v -0.6 0.5 -0.5
v -0.5 0.3 -0.5
v -0.5 0.5 -0.5
v 0.5 0.3 -0.5
v 0.5 0.5 -0.5
v 0.6 0.3 -0.5
v 0.6 0.5 -0.5
v 0.7 0.3 -0.5
v 0.7 0.5 -0.5
v 0.8 0.3 -0.5
v 0.8 0.5 -0.5
v 1.8 0.3 -0.5
v 1.8 0.5 -0.5
v 1.9 0.3 -0.5
v 1.9 0.5 -0.5
v -1.8 0.3 -0.6
v -1.8 0.5 -0.6
v -0.8 0.3 -0.6
v -0.8 0.5 -0.6
v -0.5 0.3 -0.6
v -0.5 0.5 -0.6
v 0.5 0.3 -0.6
v 0.5 0.5 -0.6
v 0.8 0.3 -0.6
v 0.8 0.5 -0.6
v 1.8 0.3 -0.6
v 1.8 0.5 -0.6
v -1.8 0.5 -1.4
v -1.8 0.6 -1.4
v -1.7 0.5 -1.4
v -1.7 0.6 -1.4
v -1 0.5 -1.4
v -1 0.6 -1.4
v -0.9 0.5 -1.4
v -0.9 0.6 -1.4
v 1 1.5 -1.5
v 1 1.8 -1.5
v 1.1 0.5 -1.5
v 1.1 0.9 -1.5
v 1.1 1.5 -1.5
v 1.1 1.8 -1.5
v 1.3 0.5 -1.5
v 1.5 0.5 -1.5
v 1.5 0.9 -1.5
v 1.5 1.5 -1.5
v 1.5 1.8 -1.5
v 1.6 1.5 -1.5
v 1.6 1.8 -1.5
v 0.9 1.2 -1.6
v 0.9 1.5 -1.6
v 1 1.2 -1.6
v 1 1.5 -1.6
v 1.1 1.5 -1.6
v 1.1 1.8 -1.6
v 1.5 1.5 -1.6
v 1.5 1.8 -1.6
v 1.6 1.2 -1.6
v 1.6 1.5 -1.6
v 1.7 1.2 -1.6
v 1.7 1.5 -1.6
v 0.8 0.9 -1.7
v 0.8 1.2 -1.7
v 0.9 0.9 -1.7
v 0.9 1.2 -1.7
v 1 1.2 -1.7
v 1 1.5 -1.7
v 1.6 1.2 -1.7
v 1.6 1.5 -1.7
v 1.7 0.9 -1.7
v 1.7 1.2 -1.7
v 1.8 0.9 -1.7
v 1.8 1.2 -1.7
v -1.9 0.3 -1.8
v -1.9 0.5 -1.8
v -1.8 0.3 -1.8
v -1.8 0.5 -1.8
v -1.8 0.8 -1.8
v -1.8 0.9 -1.8
v -1.8 1 -1.8
v -1.8 1.1 -1.8
v -1.7 0.5 -1.8
v -1.7 0.6 -1.8
v -1 0.5 -1.8
v -1 0.6 -1.8
v -0.9 0.5 -1.8
v -0.9 0.8 -1.8
v -0.9 0.9 -1.8
v -0.9 1 -1.8
v -0.9 1.1 -1.8
v -0.8 0.3 -1.8
v -0.8 0.5 -1.8
v -0.7 0.3 -1.8
v -0.7 0.5 -1.8
v -0.6 0.3 -1.8
v -0.6 0.5 -1.8
v -0.5 0.3 -1.8
v -0.5 0.5 -1.8
v 0.5 0.3 -1.8
v 0.5 0.5 -1.8
v 0.6 0.3 -1.8
v 0.6 0.5 -1.8
v 0.7 0.3 -1.8
v 0.7 0.5 -1.8
v 0.8 0.3 -1.8
v 0.8 0.5 -1.8
v 0.9 0.9 -1.8
v 0.9 1.2 -1.8
v 1.7 0.9 -1.8
v 1.7 1.2 -1.8
v 1.8 0.3 -1.8
v 1.8 0.5 -1.8
v 1.9 0.3 -1.8
v 1.9 0.5 -1.8
v -1.8 0.3 -1.9
v -1.8 0.5 -1.9
v -0.8 0.3 -1.9
v -0.8 0.5 -1.9
v -0.5 0.3 -1.9
v -0.5 0.5 -1.9
v 0.5 0.3 -1.9
v 0.5 0.5 -1.9
v 0.8 0.3 -1.9
v 0.8 0.5 -1.9
v 1.8 0.3 -1.9
v 1.8 0.5 -1.9
v -1.8 0.3 1.9
v -0.8 0.3 1.9
v -0.5 0.3 1.9
v 0.5 0.3 1.9
v 0.8 0.3 1.9
v 1.8 0.3 1.9
v -1.9 0.3 1.8
v -1.8 0.3 1.8
v -0.8 0.3 1.8
v -0.7 0.3 1.8
v -0.6 0.3 1.8
v -0.5 0.3 1.8
v 0.5 0.3 1.8
v 0.6 0.3 1.8
v 0.7 0.3 1.8
v 0.8 0.3 1.8
v 1.8 0.3 1.8
v 1.9 0.3 1.8
v -1.9 0.3 0.8
v -1.8 0.3 0.8
v -0.8 0.3 0.8
v -0.7 0.3 0.8
v -0.6 0.3 0.8
v -0.5 0.3 0.8
v 0.5 0.3 0.8
v 0.6 0.3 0.8
v 0.7 0.3 0.8
v 0.8 0.3 0.8
v 1.8 0.3 0.8
v 1.9 0.3 0.8
v -1.8 0.3 0.7
v -0.8 0.3 0.7
v -0.5 0.3 0.7
v 0.5 0.3 0.7
v 0.8 0.3 0.7
v 1.8 0.3 0.7
v -1.8 0.3 0.6
v -0.8 0.3 0.6
v -0.5 0.3 0.6
v 0.5 0.3 0.6
v 0.8 0.3 0.6
v 1.8 0.3 0.6
v -1.9 0.3 0.5
v -1.8 0.3 0.5
v -0.8 0.3 0.5
v -0.7 0.3 0.5
v -0.6 0.3 0.5
v -0.5 0.3 0.5
v 0.5 0.3 0.5
v 0.6 0.3 0.5
v 0.7 0.3 0.5
v 0.8 0.3 0.5
v 1.8 0.3 0.5
v 1.9 0.3 0.5
v -1.9 0.3 -0.5
v -1.8 0.3 -0.5
v -0.8 0.3 -0.5
v -0.7 0.3 -0.5
v -0.6 0.3 -0.5
v -0.5 0.3 -0.5
v 0.5 0.3 -0.5
v 0.6 0.3 -0.5
v 0.7 0.3 -0.5
v 0.8 0.3 -0.5
v 1.8 0.3 -0.5
v 1.9 0.3 -0.5
v -1.8 0.3 -0.6
v -0.8 0.3 -0.6
v -0.5 0.3 -0.6
v 0.5 0.3 -0.6
v 0.8 0.3 -0.6
v 1.8 0.3 -0.6
v -1.8 0.3 -0.7
v -0.8 0.3 -0.7
v -0.5 0.3 -0.7
v 0.5 0.3 -0.7
v 0.8 0.3 -0.7
v 1.8 0.3 -0.7
v -1.9 0.3 -0.8
v -1.8 0.3 -0.8
v -0.8 0.3 -0.8
v -0.7 0.3 -0.8
v -0.6 0.3 -0.8
v -0.5 0.3 -0.8
v 0.5 0.3 -0.8
v 0.6 0.3 -0.8
v 0.7 0.3 -0.8
v 0.8 0.3 -0.8
v 1.8 0.3 -0.8
v 1.9 0.3 -0.8
v -1.9 0.3 -1.8
v -1.8 0.3 -1.8
v -0.8 0.3 -1.8
v -0.7 0.3 -1.8
v -0.6 0.3 -1.8
v -0.5 0.3 -1.8
v 0.5 0.3 -1.8
v 0.6 0.3 -1.8
v 0.7 0.3 -1.8
v 0.8 0.3 -1.8
v 1.8 0.3 -1.8
v 1.9 0.3 -1.8
v -1.8 0.3 -1.9
v -0.8 0.3 -1.9
v -0.5 0.3 -1.9
v 0.5 0.3 -1.9
v 0.8 0.3 -1.9
v 1.8 0.3 -1.9
v -1.8 0.6 1.8
v -0.8 0.6 1.8
v -1.7 0.6 1.7
v -1.5 0.6 1.7
v -1.1 0.6 1.7
v -0.9 0.6 1.7
v -1.7 0.6 1.4
v -1.5 0.6 1.4
v -1.1 0.6 1.4
v -0.9 0.6 1.4
v -1.7 0.6 1.2
v -1.5 0.6 1.2
v -1.1 0.6 1.2
v -0.9 0.6 1.2
v -1.7 0.6 0.9
v -1.5 0.6 0.9
v -1.1 0.6 0.9
v -0.9 0.6 0.9
v -1.8 0.6 0.8
v -0.8 0.6 0.8
v -1.7 0.6 -1.3
v -1 0.6 -1.3
v -1.8 0.6 -1.4
v -1.7 0.6 -1.4
v -1 0.6 -1.4
v -0.9 0.6 -1.4
v -1.8 0.6 -1.5
v -0.9 0.6 -1.5
v -1.8 0.6 -1.6
v -0.9 0.6 -1.6
v -1.8 0.6 -1.7
v -1.7 0.6 -1.7
v -1 0.6 -1.7
v -0.9 0.6 -1.7
v -1.7 0.6 -1.8
v -1 0.6 -1.8
v -1.4 0.7 0.8
v -1.2 0.7 0.8
v -1.4 0.7 0.7
v -1.2 0.7 0.7
v 0.9 0.9 -0.8
v 1.7 0.9 -0.8
v 0.8 0.9 -0.9
v 0.9 0.9 -0.9
v 1.7 0.9 -0.9
v 1.8 0.9 -0.9
v 1.1 0.9 -1.1
v 1.5 0.9 -1.1
v 1.1 0.9 -1.5
v 1.5 0.9 -1.5
v 0.8 0.9 -1.7
v 0.9 0.9 -1.7
v 1.7 0.9 -1.7
v 1.8 0.9 -1.7
v 0.9 0.9 -1.8
v 1.7 0.9 -1.8
v 1.4 1.2 1.7
v 1.7 1.2 1.7
v 1.5 1.2 1.6
v 1.6 1.2 1.6
v 1.5 1.2 1.5
v 1.6 1.2 1.5
v 1.4 1.2 1.4
v 1.7 1.2 1.4
v 1.4 1.5 1.8
v 1.7 1.5 1.8
v 1.3 1.5 1.7
v 1.4 1.5 1.7
v 1.7 1.5 1.7
v 1.8 1.5 1.7
v 1.3 1.5 1.4
v 1.4 1.5 1.4
v 1.7 1.5 1.4
v 1.8 1.5 1.4
v 1.4 1.5 1.3
v 1.7 1.5 1.3
v -1.8 0.5 1.9
v -0.8 0.5 1.9
v -0.5 0.5 1.9
v 0.5 0.5 1.9
v 0.8 0.5 1.9
v 1.8 0.5 1.9
v -1.9 0.5 1.8
v -1.8 0.5 1.8
v -0.8 0.5 1.8
v -0.7 0.5 1.8
v -0.6 0.5 1.8
v -0.5 0.5 1.8
v 0.5 0.5 1.8
v 0.6 0.5 1.8
v 0.7 0.5 1.8
v 0.8 0.5 1.8
v 1.8 0.5 1.8
v 1.9 0.5 1.8
v -1.7 0.5 1.7
v -1.5 0.5 1.7
v -1.1 0.5 1.7
v -0.9 0.5 1.7
v 1.4 0.5 1.7
v 1.7 0.5 1.7
v -1.7 0.5 1.4
v -1.5 0.5 1.4
v -1.1 0.5 1.4
v -0.9 0.5 1.4
v 1.4 0.5 1.4
v 1.7 0.5 1.4
v -1.7 0.5 1.2
v -1.5 0.5 1.2
v -1.1 0.5 1.2
v -0.9 0.5 1.2
v -1.7 0.5 0.9
v -1.5 0.5 0.9
v -1.1 0.5 0.9
v -0.9 0.5 0.9
v -1.9 0.5 0.8
v -1.8 0.5 0.8
v -0.8 0.5 0.8
v -0.7 0.5 0.8
v -0.6 0.5 0.8
v -0.5 0.5 0.8
v 0.5 0.5 0.8
v 0.6 0.5 0.8
v 0.7 0.5 0.8
v 0.8 0.5 0.8
v 1.8 0.5 0.8
v 1.9 0.5 0.8
v -1.8 0.5 0.7
v -0.8 0.5 0.7
v -0.5 0.5 0.7
v 0.5 0.5 0.7
v 0.8 0.5 0.7
v 1.8 0.5 0.7
v -1.8 0.5 0.6
v -0.8 0.5 0.6
v -0.5 0.5 0.6
v 0.5 0.5 0.6
v 0.8 0.5 0.6
v 1.8 0.5 0.6
v -1.9 0.5 0.5
v -1.8 0.5 0.5
v -0.8 0.5 0.5
v -0.7 0.5 0.5
v -0.6 0.5 0.5
v -0.5 0.5 0.5
v 0.5 0.5 0.5
v 0.6 0.5 0.5
v 0.7 0.5 0.5
v 0.8 0.5 0.5
v 1.8 0.5 0.5
v 1.9 0.5 0.5
v -1.9 0.5 -0.5
v -1.8 0.5 -0.5
v -0.8 0.5 -0.5
v -0.7 0.5 -0.5
v -0.6 0.5 -0.5
v -0.5 0.5 -0.5
v 0.5 0.5 -0.5
v 0.6 0.5 -0.5
v 0.7 0.5 -0.5
v 0.8 0.5 -0.5
v 1.8 0.5 -0.5
v 1.9 0.5 -0.5
v -1.8 0.5 -0.6
v -0.8 0.5 -0.6
v -0.5 0.5 -0.6
v 0.5 0.5 -0.6
v 0.8 0.5 -0.6
v 1.8 0.5 -0.6
v -1.8 0.5 -0.7
v -0.8 0.5 -0.7
v -0.5 0.5 -0.7
v 0.5 0.5 -0.7
v 0.8 0.5 -0.7
v 1.8 0.5 -0.7
v -1.9 0.5 -0.8
v -1.8 0.5 -0.8
v -0.8 0.5 -0.8
v -0.7 0.5 -0.8
v -0.6 0.5 -0.8
v -0.5 0.5 -0.8
v 0.5 0.5 -0.8
v 0.6 0.5 -0.8
v 0.7 0.5 -0.8
v 0.8 0.5 -0.8
v 1.1 0.5 -0.8
v 1.2 0.5 -0.8
v 1.8 0.5 -0.8
v 1.9 0.5 -0.8
v 1.1 0.5 -0.9
v 1.2 0.5 -0.9
v 1.3 0.5 -1
v 1.6 0.5 -1
v 1.1 0.5 -1.1
v 1.3 0.5 -1.1
v 1.5 0.5 -1.1
v 0.8 0.5 -1.2
v 0.9 0.5 -1.2
v 1.5 0.5 -1.2
v 1.6 0.5 -1.2
v 1.7 0.5 -1.2
v 1.8 0.5 -1.2
v -1.8 0.5 -1.3
v -1.7 0.5 -1.3
v -1 0.5 -1.3
v -0.9 0.5 -1.3
v 0.8 0.5 -1.3
v 0.9 0.5 -1.3
v 1.7 0.5 -1.3
v 1.8 0.5 -1.3
v -1.8 0.5 -1.4
v -1.7 0.5 -1.4
v -1 0.5 -1.4
v -0.9 0.5 -1.4
v 0.9 0.5 -1.5
v 1 0.5 -1.5
v 1.1 0.5 -1.5
v 1.3 0.5 -1.5
v 1.5 0.5 -1.5
v 1.7 0.5 -1.5
v 1.8 0.5 -1.5
v 0.9 0.5 -1.6
v 1 0.5 -1.6
v 1.2 0.5 -1.6
v 1.3 0.5 -1.6
v 1.5 0.5 -1.6
v 1.7 0.5 -1.6
v 1.8 0.5 -1.6
v -1.8 0.5 -1.7
v -1.7 0.5 -1.7
v -1 0.5 -1.7
v -0.9 0.5 -1.7
v 1.2 0.5 -1.7
v 1.3 0.5 -1.7
v -1.9 0.5 -1.8
v -1.8 0.5 -1.8
v -1.7 0.5 -1.8
v -1 0.5 -1.8
v -0.9 0.5 -1.8
v -0.8 0.5 -1.8
v -0.7 0.5 -1.8
v -0.6 0.5 -1.8
v -0.5 0.5 -1.8
v 0.5 0.5 -1.8
v 0.6 0.5 -1.8
v 0.7 0.5 -1.8
v 0.8 0.5 -1.8
v 1.8 0.5 -1.8
v 1.9 0.5 -1.8
v -1.8 0.5 -1.9
v -0.8 0.5 -1.9
v -0.5 0.5 -1.9
v 0.5 0.5 -1.9
v 0.8 0.5 -1.9
v 1.8 0.5 -1.9
v 1.4 0.6 1.7
v 1.7 0.6 1.7
v 1.5 0.6 1.6
v 1.6 0.6 1.6
v 1.5 0.6 1.5
v 1.6 0.6 1.5
v 1.4 0.6 1.4
v 1.7 0.6 1.4
v -1.8 0.7 -1.3
v -0.9 0.7 -1.3
v -1.8 0.7 -1.4
v -0.9 0.7 -1.4
v -1.8 0.7 -1.5
v -0.9 0.7 -1.5
v -1.8 0.7 -1.6
v -0.9 0.7 -1.6
v -1.8 0.7 -1.7
v -0.9 0.7 -1.7
v -1.4 0.9 0.8
v -1.2 0.9 0.8
v -1.4 0.9 0.7
v -1.2 0.9 0.7
v -1.8 1.1 -1.7
v -0.9 1.1 -1.7
v -1.8 1.1 -1.8
v -0.9 1.1 -1.8
v 0.9 1.2 -0.8
v 1.7 1.2 -0.8
v 0.8 1.2 -0.9
v 0.9 1.2 -0.9
v 1 1.2 -0.9
v 1.6 1.2 -0.9
v 1.7 1.2 -0.9
v 1.8 1.2 -0.9
v 0.9 1.2 -1
v 1 1.2 -1
v 1.6 1.2 -1
v 1.7 1.2 -1
v 0.9 1.2 -1.6
v 1 1.2 -1.6
v 1.6 1.2 -1.6
v 1.7 1.2 -1.6
v 0.8 1.2 -1.7
v 0.9 1.2 -1.7
v 1 1.2 -1.7
v 1.6 1.2 -1.7
v 1.7 1.2 -1.7
v 1.8 1.2 -1.7
v 0.9 1.2 -1.8
v 1.7 1.2 -1.8
v -1.8 1.5 1.8
v -1.7 1.5 1.8
v -1.4 1.5 1.8
v -1.2 1.5 1.8
v -0.9 1.5 1.8
v -0.8 1.5 1.8
v -1.7 1.5 1.6
v -1.4 1.5 1.6
v -1.2 1.5 1.6
v -0.9 1.5 1.6
v -1.8 1.5 0.8
v -0.8 1.5 0.8
v 1 1.5 -0.9
v 1.6 1.5 -0.9
v 0.9 1.5 -1
v 1 1.5 -1
v 1.1 1.5 -1
v 1.5 1.5 -1
v 1.6 1.5 -1
v 1.7 1.5 -1
v 1 1.5 -1.1
v 1.1 1.5 -1.1
v 1.5 1.5 -1.1
v 1.6 1.5 -1.1
v 1 1.5 -1.5
v 1.1 1.5 -1.5
v 1.5 1.5 -1.5
v 1.6 1.5 -1.5
v 0.9 1.5 -1.6
v 1 1.5 -1.6
v 1.1 1.5 -1.6
v 1.5 1.5 -1.6
v 1.6 1.5 -1.6
v 1.7 1.5 -1.6
v 1 1.5 -1.7
v 1.6 1.5 -1.7
v 1.4 1.6 1.8
v 1.7 1.6 1.8
v 1.3 1.6 1.7
v 1.4 1.6 1.7
v 1.7 1.6 1.7
v 1.8 1.6 1.7
v 1.3 1.6 1.4
v 1.4 1.6 1.4
v 1.7 1.6 1.4
v 1.8 1.6 1.4
v 1.4 1.6 1.3
v 1.7 1.6 1.3
v 1.4 1.7 1.7
v 1.7 1.7 1.7
v 1.5 1.7 1.6
v 1.6 1.7 1.6
v 1.5 1.7 1.5
v 1.6 1.7 1.5
v 1.4 1.7 1.4
v 1.7 1.7 1.4
v -1.7 1.8 1.8
v -1.4 1.8 1.8
v -1.2 1.8 1.8
v -0.9 1.8 1.8
v -1.7 1.8 1.6
v -1.4 1.8 1.6
v -1.2 1.8 1.6
v -0.9 1.8 1.6
v 1.5 1.8 1.6
v 1.6 1.8 1.6
v 1.5 1.8 1.5
v 1.6 1.8 1.5
v 1.1 1.8 -1
v 1.5 1.8 -1
v 1 1.8 -1.1
v 1.1 1.8 -1.1
v 1.5 1.8 -1.1
v 1.6 1.8 -1.1
v 1 1.8 -1.5
v 1.1 1.8 -1.5
v 1.5 1.8 -1.5
v 1.6 1.8 -1.5
v 1.1 1.8 -1.6
v 1.5 1.8 -1.6

# faces
f 7/1/1 2/1/1 1/1/1
f 8/1/1 2/1/1 7/1/1
f 9/1/1 4/1/1 3/1/1
f 10/1/1 4/1/1 9/1/1
f 11/1/1 6/1/1 5/1/1
f 12/1/1 6/1/1 11/1/1
f 25/1/1 14/1/1 13/1/1
f 26/1/1 14/1/1 25/1/1
f 27/1/1 16/1/1 15/1/1
f 28/1/1 16/1/1 27/1/1
f 29/1/1 18/1/1 17/1/1
f 30/1/1 18/1/1 29/1/1
f 31/1/1 20/1/1 19/1/1
f 32/1/1 20/1/1 31/1/1
f 33/1/1 22/1/1 21/1/1
f 34/1/1 22/1/1 33/1/1
f 38/1/1 24/1/1 23/1/1
f 39/1/1 24/1/1 38/1/1
f 42/4/1 36/4/1 35/4/1
f 45/4/1 38/4/1 37/4/1
f 46/7/1 41/7/1 40/7/1
f 47/7/1 41/7/1 46/7/1
f 48/4/1 42/4/1 35/4/1
f 49/5/1 43/5/1 42/5/1
f 49/4/1 42/4/1 48/4/1
f 50/4/1 44/4/1 43/4/1
f 50/5/1 43/5/1 49/5/1
f 51/5/1 45/5/1 44/5/1
f 51/4/1 44/4/1 50/4/1
f 52/4/1 38/4/1 45/4/1
f 52/5/1 45/5/1 51/5/1
f 53/6/1 47/6/1 46/6/1
f 54/7/1 41/7/1 47/7/1
f 54/6/1 47/6/1 53/6/1
f 55/4/1 38/4/1 52/4/1
f 56/4/1 38/4/1 55/4/1
f 57/7/1 54/7/1 53/7/1
f 58/7/1 41/7/1 54/7/1
f 58/7/1 54/7/1 57/7/1
f 59/5/1 56/5/1 55/5/1
f 60/5/1 56/5/1 59/5/1
f 61/6/1 58/6/1 57/6/1
f 62/7/1 41/7/1 58/7/1
f 62/6/1 58/6/1 61/6/1
f 63/4/1 60/4/1 59/4/1
f 64/4/1 60/4/1 63/4/1
f 65/5/1 64/5/1 63/5/1
f 66/5/1 64/5/1 65/5/1
f 67/7/1 62/7/1 61/7/1
f 68/7/1 41/7/1 62/7/1
f 68/7/1 62/7/1 67/7/1
f 73/7/1 70/7/1 69/7/1
f 74/7/1 70/7/1 73/7/1
f 75/7/1 72/7/1 71/7/1
f 76/7/1 72/7/1 75/7/1
f 79/7/1 78/7/1 77/7/1
f 80/7/1 78/7/1 79/7/1
f 83/7/1 82/7/1 81/7/1
f 84/7/1 82/7/1 83/7/1
f 87/7/1 86/7/1 85/7/1
f 88/7/1 86/7/1 87/7/1
f 93/7/1 90/7/1 89/7/1
f 94/7/1 90/7/1 93/7/1
f 95/7/1 92/7/1 91/7/1
f 96/7/1 92/7/1 95/7/1
f 101/4/1 98/4/1 97/4/1
f 102/4/1 98/4/1 101/4/1
f 103/4/1 100/4/1 99/4/1
f 104/4/1 100/4/1 103/4/1
f 111/1/1 106/1/1 105/1/1
f 112/1/1 106/1/1 111/1/1
f 113/1/1 108/1/1 107/1/1
f 114/1/1 108/1/1 113/1/1
f 115/1/1 110/1/1 109/1/1
f 116/1/1 110/1/1 115/1/1
f 129/1/1 118/1/1 117/1/1
f 130/1/1 118/1/1 129/1/1
f 131/1/1 120/1/1 119/1/1
f 132/1/1 120/1/1 131/1/1
f 133/1/1 122/1/1 121/1/1
f 134/1/1 122/1/1 133/1/1
f 135/1/1 124/1/1 123/1/1
f 136/1/1 124/1/1 135/1/1
f 137/1/1 126/1/1 125/1/1
f 138/1/1 126/1/1 137/1/1
f 139/1/1 128/1/1 127/1/1
f 140/1/1 128/1/1 139/1/1
f 147/1/1 142/1/1 141/1/1
f 148/1/1 142/1/1 147/1/1
f 149/1/1 144/1/1 143/1/1
f 150/1/1 144/1/1 149/1/1
f 151/1/1 146/1/1 145/1/1
f 152/1/1 146/1/1 151/1/1
f 165/1/1 154/1/1 153/1/1
f 166/1/1 154/1/1 165/1/1
f 167/1/1 156/1/1 155/1/1
f 168/1/1 156/1/1 167/1/1
f 169/1/1 158/1/1 157/1/1
f 170/1/1 158/1/1 169/1/1
f 171/1/1 160/1/1 159/1/1
f 172/1/1 160/1/1 171/1/1
f 173/1/1 162/1/1 161/1/1
f 174/1/1 162/1/1 173/1/1
f 175/1/1 164/1/1 163/1/1
f 176/1/1 164/1/1 175/1/1
f 179/6/1 178/6/1 177/6/1
f 180/6/1 178/6/1 179/6/1
f 185/6/1 182/6/1 181/6/1
f 186/6/1 182/6/1 185/6/1
f 189/6/1 184/6/1 183/6/1
f 190/6/1 184/6/1 189/6/1
f 191/6/1 188/6/1 187/6/1
f 192/6/1 188/6/1 191/6/1
f 197/6/1 194/6/1 193/6/1
f 198/6/1 194/6/1 197/6/1
f 201/6/1 196/6/1 195/6/1
f 202/6/1 196/6/1 201/6/1
f 203/6/1 200/6/1 199/6/1
f 204/6/1 200/6/1 203/6/1
f 207/5/1 206/5/1 205/5/1
f 208/5/1 206/5/1 207/5/1
f 213/6/1 210/6/1 209/6/1
f 214/6/1 210/6/1 213/6/1
f 215/6/1 212/6/1 211/6/1
f 216/6/1 212/6/1 215/6/1
f 219/5/1 218/5/1 217/5/1
f 220/5/1 218/5/1 219/5/1
f 223/5/1 222/5/1 221/5/1
f 224/5/1 222/5/1 223/5/1
f 227/4/1 226/4/1 225/4/1
f 228/4/1 226/4/1 227/4/1
f 230/7/1 228/7/1 227/7/1
f 231/7/1 228/7/1 230/7/1
f 233/5/1 230/5/1 229/5/1
f 234/5/1 230/5/1 233/5/1
f 235/5/1 232/5/1 231/5/1
f 236/5/1 232/5/1 235/5/1
f 237/5/1 235/5/1 234/5/1
f 238/5/1 235/5/1 237/5/1
f 241/5/1 240/5/1 239/5/1
f 242/5/1 240/5/1 241/5/1
f 245/5/1 244/5/1 243/5/1
f 246/5/1 244/5/1 245/5/1
f 247/4/2 248/4/2 251/4/2
f 251/4/2 248/4/2 252/4/2
f 249/4/2 250/4/2 253/4/2
f 253/4/2 250/4/2 254/4/2
f 255/7/2 256/7/2 259/7/2
f 259/7/2 256/7/2 260/7/2
f 257/7/2 258/7/2 261/7/2
f 261/7/2 258/7/2 262/7/2
f 263/7/2 264/7/2 265/7/2
f 265/7/2 264/7/2 266/7/2
f 267/7/2 268/7/2 269/7/2
f 269/7/2 268/7/2 270/7/2
f 271/7/2 272/7/2 279/7/2
f 279/7/2 272/7/2 280/7/2
f 273/7/2 274/7/2 281/7/2
f 281/7/2 274/7/2 282/7/2
f 275/4/2 276/4/2 283/4/2
f 277/4/2 278/4/2 286/4/2
f 275/4/2 283/4/2 287/4/2
f 283/5/2 284/5/2 288/5/2
f 287/4/2 283/4/2 288/4/2
f 284/4/2 285/4/2 289/4/2
f 288/5/2 284/5/2 289/5/2
f 285/5/2 286/5/2 290/5/2
f 289/4/2 285/4/2 290/4/2
f 286/4/2 278/4/2 291/4/2
f 290/5/2 286/5/2 291/5/2
f 291/4/2 278/4/2 292/4/2
f 292/4/2 278/4/2 293/4/2
f 292/5/2 293/5/2 294/5/2
f 294/5/2 293/5/2 295/5/2
f 294/4/2 295/4/2 296/4/2
f 296/4/2 295/4/2 297/4/2
f 296/5/2 297/5/2 298/5/2
f 298/5/2 297/5/2 299/5/2
f 300/7/2 301/7/2 302/7/2
f 302/7/2 301/7/2 303/7/2
f 304/1/2 305/1/2 316/1/2
f 316/1/2 305/1/2 317/1/2
f 306/1/2 307/1/2 318/1/2
f 318/1/2 307/1/2 319/1/2
f 308/1/2 309/1/2 320/1/2
f 320/1/2 309/1/2 321/1/2
f 310/1/2 311/1/2 322/1/2
f 322/1/2 311/1/2 323/1/2
f 312/1/2 313/1/2 324/1/2
f 324/1/2 313/1/2 325/1/2
f 314/1/2 315/1/2 326/1/2
f 326/1/2 315/1/2 327/1/2
f 328/7/2 329/7/2 330/7/2
f 330/7/2 329/7/2 331/7/2
f 330/6/2 331/6/2 332/6/2
f 331/7/2 329/7/2 333/7/2
f 332/6/2 331/6/2 333/6/2
f 332/7/2 333/7/2 334/7/2
f 333/7/2 329/7/2 335/7/2
f 334/7/2 333/7/2 335/7/2
f 334/6/2 335/6/2 336/6/2
f 335/7/2 329/7/2 337/7/2
f 336/6/2 335/6/2 337/6/2
f 336/7/2 337/7/2 338/7/2
f 337/7/2 329/7/2 339/7/2
f 338/7/2 337/7/2 339/7/2
f 340/1/2 341/1/2 346/1/2
f 346/1/2 341/1/2 347/1/2
f 342/1/2 343/1/2 348/1/2
f 348/1/2 343/1/2 349/1/2
f 344/1/2 345/1/2 350/1/2
f 350/1/2 345/1/2 351/1/2
f 352/1/2 353/1/2 364/1/2
f 364/1/2 353/1/2 365/1/2
f 354/1/2 355/1/2 366/1/2
f 366/1/2 355/1/2 367/1/2
f 356/1/2 357/1/2 368/1/2
f 368/1/2 357/1/2 369/1/2
f 358/1/2 359/1/2 370/1/2
f 370/1/2 359/1/2 371/1/2
f 360/1/2 361/1/2 372/1/2
f 372/1/2 361/1/2 373/1/2
f 362/1/2 363/1/2 374/1/2
f 374/1/2 363/1/2 375/1/2
f 376/1/2 377/1/2 382/1/2
f 382/1/2 377/1/2 383/1/2
f 378/1/2 379/1/2 384/1/2
f 384/1/2 379/1/2 385/1/2
f 380/1/2 381/1/2 386/1/2
f 386/1/2 381/1/2 387/1/2
f 388/5/2 389/5/2 391/5/2
f 389/5/2 390/5/2 391/5/2
f 391/5/2 390/5/2 392/5/2
f 393/6/2 394/6/2 397/6/2
f 397/6/2 394/6/2 398/6/2
f 395/6/2 396/6/2 399/6/2
f 399/6/2 396/6/2 400/6/2
f 401/5/2 402/5/2 403/5/2
f 403/5/2 402/5/2 404/5/2
f 405/6/2 406/6/2 409/6/2
f 409/6/2 406/6/2 410/6/2
f 407/6/2 408/6/2 413/6/2
f 413/6/2 408/6/2 414/6/2
f 415/5/2 416/5/2 417/5/2
f 417/5/2 416/5/2 418/5/2
f 411/6/2 412/6/2 419/6/2
f 419/6/2 412/6/2 420/6/2
f 421/5/2 422/5/2 423/5/2
f 423/5/2 422/5/2 424/5/2
f 425/6/2 426/6/2 431/6/2
f 431/6/2 426/6/2 432/6/2
f 427/6/2 428/6/2 435/6/2
f 435/6/2 428/6/2 436/6/2
f 429/4/2 430/4/2 437/4/2
f 437/4/2 430/4/2 438/4/2
f 437/7/2 438/7/2 440/7/2
f 440/7/2 438/7/2 441/7/2
f 433/6/2 434/6/2 443/6/2
f 443/6/2 434/6/2 444/6/2
f 439/5/2 440/5/2 445/5/2
f 445/5/2 440/5/2 446/5/2
f 441/5/2 442/5/2 447/5/2
f 447/5/2 442/5/2 448/5/2
f 446/5/2 447/5/2 449/5/2
f 449/5/2 447/5/2 450/5/2
f 451/1/2 452/1/2 463/1/2
f 463/1/2 452/1/2 464/1/2
f 453/1/2 454/1/2 465/1/2
f 465/1/2 454/1/2 466/1/2
f 455/1/2 456/1/2 467/1/2
f 467/1/2 456/1/2 468/1/2
f 457/1/2 458/1/2 469/1/2
f 469/1/2 458/1/2 470/1/2
f 459/1/2 460/1/2 471/1/2
f 471/1/2 460/1/2 472/1/2
f 461/1/2 462/1/2 473/1/2
f 473/1/2 462/1/2 474/1/2
f 475/6/2 476/6/2 477/6/2
f 477/6/2 476/6/2 478/6/2
f 479/5/2 480/5/2 481/5/2
f 481/5/2 480/5/2 482/5/2
f 483/1/2 484/1/2 489/1/2
f 489/1/2 484/1/2 490/1/2
f 485/1/2 486/1/2 491/1/2
f 491/1/2 486/1/2 492/1/2
f 487/1/2 488/1/2 493/1/2
f 493/1/2 488/1/2 494/1/2
f 497/1/3 496/1/3 495/1/3
f 498/1/3 496/1/3 497/1/3
f 501/1/3 500/1/3 499/1/3
f 502/1/3 500/1/3 501/1/3
f 505/1/3 504/1/3 503/1/3
f 506/1/3 504/1/3 505/1/3
f 509/1/3 508/1/3 507/1/3
f 510/1/3 508/1/3 509/1/3
f 517/7/3 516/7/3 515/7/3
f 519/7/3 512/7/3 511/7/3
f 519/6/3 513/6/3 512/6/3
f 520/7/3 514/7/3 513/7/3
f 520/6/3 513/6/3 519/6/3
f 521/6/3 515/6/3 514/6/3
f 521/7/3 514/7/3 520/7/3
f 522/7/3 518/7/3 517/7/3
f 522/6/3 515/6/3 521/6/3
f 522/7/3 517/7/3 515/7/3
f 523/7/3 518/7/3 522/7/3
f 524/7/3 518/7/3 523/7/3
f 525/7/3 518/7/3 524/7/3
f 526/7/3 520/7/3 519/7/3
f 526/7/3 521/7/3 520/7/3
f 526/7/3 522/7/3 521/7/3
f 526/10/3 523/10/3 522/10/3
f 527/7/3 524/7/3 523/7/3
f 527/10/3 523/10/3 526/10/3
f 528/6/3 525/6/3 524/6/3
f 528/7/3 524/7/3 527/7/3
f 529/7/3 518/7/3 525/7/3
f 529/6/3 525/6/3 528/6/3
f 530/7/3 528/7/3 527/7/3
f 530/7/3 527/7/3 526/7/3
f 530/7/3 529/7/3 528/7/3
f 530/7/3 526/7/3 519/7/3
f 531/7/3 529/7/3 530/7/3
f 532/7/3 529/7/3 531/7/3
f 533/7/3 518/7/3 529/7/3
f 533/7/3 529/7/3 532/7/3
f 534/7/3 530/7/3 519/7/3
f 534/10/3 531/10/3 530/10/3
f 535/7/3 532/7/3 531/7/3
f 535/10/3 531/10/3 534/10/3
f 536/7/3 532/7/3 535/7/3
f 538/7/3 535/7/3 534/7/3
f 538/7/3 537/7/3 536/7/3
f 538/7/3 536/7/3 535/7/3
f 539/7/3 537/7/3 538/7/3
f 540/7/3 537/7/3 539/7/3
f 541/7/3 537/7/3 540/7/3
f 542/7/3 534/7/3 519/7/3
f 542/7/3 519/7/3 511/7/3
f 542/7/3 538/7/3 534/7/3
f 543/7/3 538/7/3 542/7/3
f 544/7/3 538/7/3 543/7/3
f 545/10/3 539/10/3 538/10/3
f 545/7/3 538/7/3 544/7/3
f 546/7/3 540/7/3 539/7/3
f 546/10/3 539/10/3 545/10/3
f 547/6/3 541/6/3 540/6/3
f 547/7/3 540/7/3 546/7/3
f 548/7/3 537/7/3 541/7/3
f 548/6/3 541/6/3 547/6/3
f 549/7/3 547/7/3 546/7/3
f 549/7/3 546/7/3 545/7/3
f 549/7/3 548/7/3 547/7/3
f 550/7/3 537/7/3 548/7/3
f 550/7/3 548/7/3 549/7/3
f 553/7/3 542/7/3 511/7/3
f 554/6/3 543/6/3 542/6/3
f 554/7/3 542/7/3 553/7/3
f 555/7/3 544/7/3 543/7/3
f 555/6/3 543/6/3 554/6/3
f 556/6/3 545/6/3 544/6/3
f 556/7/3 544/7/3 555/7/3
f 557/7/3 549/7/3 545/7/3
f 557/6/3 545/6/3 556/6/3
f 558/7/3 549/7/3 557/7/3
f 559/1/3 552/1/3 551/1/3
f 560/1/3 552/1/3 559/1/3
f 563/1/3 562/1/3 561/1/3
f 564/1/3 562/1/3 563/1/3
f 567/1/3 566/1/3 565/1/3
f 568/1/3 566/1/3 567/1/3
f 571/1/3 570/1/3 569/1/3
f 572/1/3 570/1/3 571/1/3
f 575/5/3 574/5/3 573/5/3
f 576/5/3 574/5/3 575/5/3
f 579/1/3 578/1/3 577/1/3
f 580/1/3 578/1/3 579/1/3
f 583/7/3 582/7/3 581/7/3
f 584/7/3 582/7/3 583/7/3
f 587/7/3 586/7/3 585/7/3
f 588/7/3 586/7/3 587/7/3
f 595/5/3 590/5/3 589/5/3
f 596/5/3 590/5/3 595/5/3
f 598/5/3 592/5/3 591/5/3
f 599/5/3 592/5/3 598/5/3
f 600/4/3 594/4/3 593/4/3
f 601/7/3 595/7/3 594/7/3
f 601/4/3 594/4/3 600/4/3
f 602/7/3 595/7/3 601/7/3
f 603/5/3 597/5/3 596/5/3
f 604/5/3 597/5/3 603/5/3
f 605/5/3 603/5/3 602/5/3
f 606/5/3 603/5/3 605/5/3
f 611/5/3 608/5/3 607/5/3
f 612/5/3 608/5/3 611/5/3
f 613/5/3 610/5/3 609/5/3
f 614/5/3 610/5/3 613/5/3
f 617/7/3 616/7/3 615/7/3
f 618/7/3 616/7/3 617/7/3
f 621/7/3 620/7/3 619/7/3
f 622/7/3 620/7/3 621/7/3
f 625/1/3 624/1/3 623/1/3
f 626/1/3 624/1/3 625/1/3
f 629/1/3 628/1/3 627/1/3
f 630/1/3 628/1/3 629/1/3
f 633/1/3 632/1/3 631/1/3
f 634/1/3 632/1/3 633/1/3
f 637/1/3 636/1/3 635/1/3
f 638/1/3 636/1/3 637/1/3
f 641/1/3 640/1/3 639/1/3
f 642/1/3 640/1/3 641/1/3
f 645/1/3 644/1/3 643/1/3
f 646/1/3 644/1/3 645/1/3
f 649/1/3 648/1/3 647/1/3
f 650/1/3 648/1/3 649/1/3
f 653/1/3 652/1/3 651/1/3
f 654/1/3 652/1/3 653/1/3
f 657/1/3 656/1/3 655/1/3
f 658/1/3 656/1/3 657/1/3
f 661/1/3 660/1/3 659/1/3
f 662/1/3 660/1/3 661/1/3
f 665/1/3 664/1/3 663/1/3
f 666/1/3 664/1/3 665/1/3
f 669/1/3 668/1/3 667/1/3
f 670/1/3 668/1/3 669/1/3
f 673/1/3 672/1/3 671/1/3
f 674/1/3 672/1/3 673/1/3
f 677/1/3 676/1/3 675/1/3
f 678/1/3 676/1/3 677/1/3
f 681/1/3 680/1/3 679/1/3
f 682/1/3 680/1/3 681/1/3
f 685/1/3 684/1/3 683/1/3
f 686/1/3 684/1/3 685/1/3
f 689/1/3 688/1/3 687/1/3
f 690/1/3 688/1/3 689/1/3
f 693/6/3 692/6/3 691/6/3
f 694/6/3 692/6/3 693/6/3
f 697/1/3 696/1/3 695/1/3
f 698/1/3 696/1/3 697/1/3
f 701/6/3 700/6/3 699/6/3
f 702/6/3 700/6/3 701/6/3
f 705/6/3 704/6/3 703/6/3
f 706/6/3 704/6/3 705/6/3
f 709/6/3 708/6/3 707/6/3
f 710/6/3 708/6/3 709/6/3
f 713/6/3 712/6/3 711/6/3
f 714/6/3 712/6/3 713/6/3
f 717/6/3 716/6/3 715/6/3
f 718/6/3 716/6/3 717/6/3
f 721/6/3 720/6/3 719/6/3
f 722/6/3 720/6/3 721/6/3
f 727/6/3 724/6/3 723/6/3
f 728/6/3 724/6/3 727/6/3
f 729/5/3 726/5/3 725/5/3
f 730/5/3 726/5/3 729/5/3
f 731/5/3 726/5/3 730/5/3
f 734/6/3 733/6/3 732/6/3
f 735/6/3 733/6/3 734/6/3
f 738/4/3 737/4/3 736/4/3
f 739/4/3 737/4/3 738/4/3
f 741/4/3 737/4/3 739/4/3
f 742/4/3 741/4/3 740/4/3
f 743/4/3 737/4/3 741/4/3
f 743/4/3 741/4/3 742/4/3
f 751/4/3 745/4/3 744/4/3
f 752/4/3 745/4/3 751/4/3
f 755/4/3 754/4/3 753/4/3
f 756/4/3 754/4/3 755/4/3
f 757/4/3 747/4/3 746/4/3
f 758/5/3 748/5/3 747/5/3
f 758/4/3 747/4/3 757/4/3
f 759/4/3 749/4/3 748/4/3
f 759/5/3 748/5/3 758/5/3
f 760/5/3 750/5/3 749/5/3
f 760/4/3 749/4/3 759/4/3
f 761/5/3 750/5/3 760/5/3
f 762/7/4 763/7/4 764/7/4
f 764/7/4 763/7/4 765/7/4
f 766/7/4 767/7/4 768/7/4
f 768/7/4 767/7/4 769/7/4
f 770/5/4 771/5/4 774/5/4
f 774/5/4 771/5/4 775/5/4
f 772/5/4 773/5/4 776/5/4
f 776/5/4 773/5/4 777/5/4
f 778/7/4 779/7/4 780/7/4
f 780/7/4 779/7/4 781/7/4
f 782/7/4 783/7/4 784/7/4
f 784/7/4 783/7/4 785/7/4
f 786/5/4 787/5/4 792/5/4
f 792/5/4 787/5/4 793/5/4
f 788/5/4 789/5/4 795/5/4
f 795/5/4 789/5/4 796/5/4
f 790/4/4 791/4/4 797/4/4
f 791/7/4 792/7/4 798/7/4
f 797/4/4 791/4/4 798/4/4
f 798/7/4 792/7/4 799/7/4
f 793/5/4 794/5/4 800/5/4
f 800/5/4 794/5/4 801/5/4
f 799/5/4 800/5/4 802/5/4
f 802/5/4 800/5/4 803/5/4
f 804/5/4 805/5/4 806/5/4
f 806/5/4 805/5/4 807/5/4
f 808/7/4 809/7/4 810/7/4
f 810/7/4 809/7/4 811/7/4
f 812/7/4 813/7/4 814/7/4
f 814/7/4 813/7/4 815/7/4
f 816/1/4 817/1/4 818/1/4
f 818/1/4 817/1/4 819/1/4
f 820/7/4 821/7/4 822/7/4
f 822/7/4 821/7/4 823/7/4
f 820/7/4 822/7/4 824/7/4
f 823/7/4 821/7/4 825/7/4
f 820/7/4 824/7/4 828/7/4
f 824/7/4 825/7/4 828/7/4
f 825/7/4 821/7/4 829/7/4
f 828/7/4 825/7/4 829/7/4
f 826/1/4 827/1/4 830/1/4
f 830/1/4 827/1/4 831/1/4
f 832/1/4 833/1/4 834/1/4
f 834/1/4 833/1/4 835/1/4
f 836/1/4 837/1/4 838/1/4
f 838/1/4 837/1/4 839/1/4
f 840/1/4 841/1/4 842/1/4
f 842/1/4 841/1/4 843/1/4
f 844/1/4 845/1/4 846/1/4
f 846/1/4 845/1/4 847/1/4
f 850/7/4 851/7/4 852/7/4
f 852/7/4 851/7/4 853/7/4
f 848/1/4 849/1/4 854/1/4
f 854/1/4 849/1/4 855/1/4
f 856/1/4 857/1/4 858/1/4
f 858/1/4 857/1/4 859/1/4
f 860/1/4 861/1/4 862/1/4
f 862/1/4 861/1/4 863/1/4
f 864/1/4 865/1/4 866/1/4
f 866/1/4 865/1/4 867/1/4
f 868/1/4 869/1/4 870/1/4
f 870/1/4 869/1/4 871/1/4
f 872/1/4 873/1/4 874/1/4
f 874/1/4 873/1/4 875/1/4
f 876/1/4 877/1/4 878/1/4
f 878/1/4 877/1/4 879/1/4
f 880/1/4 881/1/4 882/1/4
f 882/1/4 881/1/4 883/1/4
f 884/1/4 885/1/4 886/1/4
f 886/1/4 885/1/4 887/1/4
f 888/1/4 889/1/4 890/1/4
f 890/1/4 889/1/4 891/1/4
f 892/1/4 893/1/4 894/1/4
f 894/1/4 893/1/4 895/1/4
f 896/1/4 897/1/4 898/1/4
f 898/1/4 897/1/4 899/1/4
f 900/4/4 901/4/4 902/4/4
f 902/4/4 901/4/4 903/4/4
f 904/4/4 905/4/4 906/4/4
f 906/4/4 905/4/4 907/4/4
f 908/6/4 909/6/4 912/6/4
f 912/6/4 909/6/4 913/6/4
f 910/5/4 911/5/4 914/5/4
f 914/5/4 911/5/4 915/5/4
f 915/5/4 911/5/4 916/5/4
f 917/6/4 918/6/4 919/6/4
f 919/6/4 918/6/4 920/6/4
f 921/6/4 922/6/4 923/6/4
f 923/6/4 922/6/4 924/6/4
f 925/6/4 926/6/4 927/6/4
f 927/6/4 926/6/4 928/6/4
f 929/6/4 930/6/4 931/6/4
f 931/6/4 930/6/4 932/6/4
f 933/6/4 934/6/4 935/6/4
f 935/6/4 934/6/4 936/6/4
f 937/6/4 938/6/4 939/6/4
f 939/6/4 938/6/4 940/6/4
f 941/6/4 942/6/4 943/6/4
f 943/6/4 942/6/4 944/6/4
f 945/1/4 946/1/4 947/1/4
f 947/1/4 946/1/4 948/1/4
f 948/4/4 949/4/4 953/4/4
f 953/4/4 949/4/4 954/4/4
f 954/4/4 949/4/4 956/4/4
f 955/4/4 956/4/4 957/4/4
f 949/5/4 950/5/4 958/5/4
f 957/4/4 956/4/4 958/4/4
f 956/4/4 949/4/4 958/4/4
f 950/4/4 951/4/4 959/4/4
f 958/5/4 950/5/4 959/5/4
f 951/5/4 952/5/4 960/5/4
f 959/4/4 951/4/4 960/4/4
f 960/5/4 952/5/4 961/5/4
f 962/1/4 963/1/4 964/1/4
f 964/1/4 963/1/4 965/1/4
f 966/1/4 967/1/4 968/1/4
f 968/1/4 967/1/4 969/1/4
f 970/1/4 971/1/4 972/1/4
f 972/1/4 971/1/4 973/1/4
f 974/1/4 975/1/4 976/1/4
f 976/1/4 975/1/4 977/1/4
f 978/6/4 979/6/4 980/6/4
f 980/6/4 979/6/4 981/6/4
f 982/1/4 983/1/4 984/1/4
f 984/1/4 983/1/4 985/1/4
f 986/1/4 987/1/4 988/1/4
f 988/1/4 987/1/4 989/1/4
f 990/1/4 991/1/4 992/1/4
f 992/1/4 991/1/4 993/1/4
f 994/1/4 995/1/4 996/1/4
f 996/1/4 995/1/4 997/1/4
f 1005/1/5 999/1/5 998/1/5
f 1006/1/5 999/1/5 1005/1/5
f 1009/1/5 1001/1/5 1000/1/5
f 1010/1/5 1001/1/5 1009/1/5
f 1013/1/5 1003/1/5 1002/1/5
f 1014/1/5 1003/1/5 1013/1/5
f 1016/1/5 1007/1/5 1006/1/5
f 1016/1/5 1005/1/5 1004/1/5
f 1016/1/5 1006/1/5 1005/1/5
f 1017/1/5 1007/1/5 1016/1/5
f 1018/1/5 1007/1/5 1017/1/5
f 1019/1/5 1007/1/5 1018/1/5
f 1020/1/5 1011/1/5 1010/1/5
f 1020/1/5 1009/1/5 1008/1/5
f 1020/1/5 1010/1/5 1009/1/5
f 1021/1/5 1011/1/5 1020/1/5
f 1022/1/5 1011/1/5 1021/1/5
f 1023/1/5 1011/1/5 1022/1/5
f 1024/1/5 1015/1/5 1014/1/5
f 1024/1/5 1014/1/5 1013/1/5
f 1024/1/5 1013/1/5 1012/1/5
f 1025/1/5 1015/1/5 1024/1/5
f 1026/1/5 1015/1/5 1025/1/5
f 1027/1/5 1015/1/5 1026/1/5
f 1028/1/5 1018/1/5 1017/1/5
f 1029/1/5 1018/1/5 1028/1/5
f 1030/1/5 1022/1/5 1021/1/5
f 1031/1/5 1022/1/5 1030/1/5
f 1032/1/5 1026/1/5 1025/1/5
f 1033/1/5 1026/1/5 1032/1/5
f 1041/1/5 1035/1/5 1034/1/5
f 1042/1/5 1035/1/5 1041/1/5
f 1045/1/5 1037/1/5 1036/1/5
f 1046/1/5 1037/1/5 1045/1/5
f 1049/1/5 1039/1/5 1038/1/5
f 1050/1/5 1039/1/5 1049/1/5
f 1052/1/5 1043/1/5 1042/1/5
f 1052/1/5 1041/1/5 1040/1/5
f 1052/1/5 1042/1/5 1041/1/5
f 1053/1/5 1043/1/5 1052/1/5
f 1054/1/5 1043/1/5 1053/1/5
f 1055/1/5 1043/1/5 1054/1/5
f 1056/1/5 1047/1/5 1046/1/5
f 1056/1/5 1045/1/5 1044/1/5
f 1056/1/5 1046/1/5 1045/1/5
f 1057/1/5 1047/1/5 1056/1/5
f 1058/1/5 1047/1/5 1057/1/5
f 1059/1/5 1047/1/5 1058/1/5
f 1060/1/5 1050/1/5 1049/1/5
f 1060/1/5 1051/1/5 1050/1/5
f 1060/1/5 1049/1/5 1048/1/5
f 1061/1/5 1051/1/5 1060/1/5
f 1062/1/5 1051/1/5 1061/1/5
f 1063/1/5 1051/1/5 1062/1/5
f 1064/1/5 1054/1/5 1053/1/5
f 1065/1/5 1054/1/5 1064/1/5
f 1066/1/5 1058/1/5 1057/1/5
f 1067/1/5 1058/1/5 1066/1/5
f 1068/1/5 1062/1/5 1061/1/5
f 1069/1/5 1062/1/5 1068/1/5
f 1077/1/5 1071/1/5 1070/1/5
f 1078/1/5 1071/1/5 1077/1/5
f 1081/1/5 1073/1/5 1072/1/5
f 1082/1/5 1073/1/5 1081/1/5
f 1085/1/5 1075/1/5 1074/1/5
f 1086/1/5 1075/1/5 1085/1/5
f 1088/1/5 1079/1/5 1078/1/5
f 1088/1/5 1077/1/5 1076/1/5
f 1088/1/5 1078/1/5 1077/1/5
f 1089/1/5 1079/1/5 1088/1/5
f 1090/1/5 1079/1/5 1089/1/5
f 1091/1/5 1079/1/5 1090/1/5
f 1092/1/5 1083/1/5 1082/1/5
f 1092/1/5 1081/1/5 1080/1/5
f 1092/1/5 1082/1/5 1081/1/5
f 1093/1/5 1083/1/5 1092/1/5
f 1094/1/5 1083/1/5 1093/1/5
f 1095/1/5 1083/1/5 1094/1/5
f 1096/1/5 1086/1/5 1085/1/5
f 1096/1/5 1087/1/5 1086/1/5
f 1096/1/5 1085/1/5 1084/1/5
f 1097/1/5 1087/1/5 1096/1/5
f 1098/1/5 1087/1/5 1097/1/5
f 1099/1/5 1087/1/5 1098/1/5
f 1100/1/5 1090/1/5 1089/1/5
f 1101/1/5 1090/1/5 1100/1/5
f 1102/1/5 1094/1/5 1093/1/5
f 1103/1/5 1094/1/5 1102/1/5
f 1104/1/5 1098/1/5 1097/1/5
f 1105/1/5 1098/1/5 1104/1/5
f 1108/7/5 1107/7/5 1106/7/5
f 1109/7/5 1107/7/5 1108/7/5
f 1110/7/5 1107/7/5 1109/7/5
f 1111/7/5 1107/7/5 1110/7/5
f 1112/7/5 1108/7/5 1106/7/5
f 1113/7/5 1110/7/5 1109/7/5
f 1114/7/5 1110/7/5 1113/7/5
f 1115/7/5 1107/7/5 1111/7/5
f 1116/7/5 1114/7/5 1113/7/5
f 1116/7/5 1115/7/5 1114/7/5
f 1116/7/5 1112/7/5 1106/7/5
f 1116/7/5 1113/7/5 1112/7/5
f 1117/7/5 1115/7/5 1116/7/5
f 1118/7/5 1115/7/5 1117/7/5
f 1119/7/5 1107/7/5 1115/7/5
f 1119/7/5 1115/7/5 1118/7/5
f 1120/7/5 1116/7/5 1106/7/5
f 1121/7/5 1118/7/5 1117/7/5
f 1122/7/5 1118/7/5 1121/7/5
f 1123/7/5 1107/7/5 1119/7/5
f 1124/7/5 1120/7/5 1106/7/5
f 1124/7/5 1123/7/5 1122/7/5
f 1124/7/5 1122/7/5 1121/7/5
f 1124/7/5 1121/7/5 1120/7/5
f 1125/7/5 1107/7/5 1123/7/5
f 1125/7/5 1123/7/5 1124/7/5
f 1129/4/5 1127/4/5 1126/4/5
f 1130/4/5 1127/4/5 1129/4/5
f 1132/5/5 1129/5/5 1128/5/5
f 1132/5/5 1131/5/5 1130/5/5
f 1132/5/5 1130/5/5 1129/5/5
f 1133/5/5 1131/5/5 1132/5/5
f 1134/4/5 1133/4/5 1132/4/5
f 1135/4/5 1133/4/5 1134/4/5
f 1136/5/5 1135/5/5 1134/5/5
f 1137/5/5 1135/5/5 1136/5/5
f 1138/5/5 1135/5/5 1137/5/5
f 1139/5/5 1135/5/5 1138/5/5
f 1140/4/5 1138/4/5 1137/4/5
f 1141/4/5 1138/4/5 1140/4/5
f 1144/7/5 1143/7/5 1142/7/5
f 1145/7/5 1143/7/5 1144/7/5
f 1149/6/5 1147/6/5 1146/6/5
f 1150/6/5 1147/6/5 1149/6/5
f 1152/6/5 1149/6/5 1148/6/5
f 1152/6/5 1151/6/5 1150/6/5
f 1152/6/5 1150/6/5 1149/6/5
f 1153/6/5 1151/6/5 1152/6/5
f 1154/6/5 1152/6/5 1148/6/5
f 1155/6/5 1151/6/5 1153/6/5
f 1156/6/5 1154/6/5 1148/6/5
f 1156/6/5 1155/6/5 1154/6/5
f 1157/6/5 1155/6/5 1156/6/5
f 1158/6/5 1151/6/5 1155/6/5
f 1158/6/5 1155/6/5 1157/6/5
f 1159/6/5 1151/6/5 1158/6/5
f 1160/6/5 1158/6/5 1157/6/5
f 1161/6/5 1158/6/5 1160/6/5
f 1164/4/5 1163/4/5 1162/4/5
f 1165/4/5 1163/4/5 1164/4/5
f 1166/4/5 1164/4/5 1162/4/5
f 1167/4/5 1163/4/5 1165/4/5
f 1168/4/5 1166/4/5 1162/4/5
f 1168/4/5 1167/4/5 1166/4/5
f 1169/4/5 1163/4/5 1167/4/5
f 1169/4/5 1167/4/5 1168/4/5
f 1173/5/5 1171/5/5 1170/5/5
f 1174/5/5 1171/5/5 1173/5/5
f 1176/5/5 1173/5/5 1172/5/5
f 1177/5/5 1173/5/5 1176/5/5
f 1178/5/5 1175/5/5 1174/5/5
f 1179/5/5 1175/5/5 1178/5/5
f 1180/5/5 1178/5/5 1177/5/5
f 1181/5/5 1178/5/5 1180/5/5
f 1182/1/6 1183/1/6 1189/1/6
f 1189/1/6 1183/1/6 1190/1/6
f 1184/1/6 1185/1/6 1193/1/6
f 1193/1/6 1185/1/6 1194/1/6
f 1186/1/6 1187/1/6 1197/1/6
f 1197/1/6 1187/1/6 1198/1/6
f 1190/1/6 1191/1/6 1200/1/6
f 1188/1/6 1189/1/6 1200/1/6
f 1189/1/6 1190/1/6 1200/1/6
f 1200/1/6 1191/1/6 1201/1/6
f 1201/1/6 1191/1/6 1202/1/6
f 1202/1/6 1191/1/6 1203/1/6
f 1198/1/6 1199/1/6 1204/1/6
f 1197/1/6 1198/1/6 1204/1/6
f 1196/1/6 1197/1/6 1204/1/6
f 1204/1/6 1199/1/6 1205/1/6
f 1188/1/6 1200/1/6 1206/1/6
f 1201/1/6 1202/1/6 1207/1/6
f 1207/1/6 1202/1/6 1208/1/6
f 1203/1/6 1191/1/6 1209/1/6
f 1196/1/6 1204/1/6 1210/1/6
f 1205/1/6 1199/1/6 1211/1/6
f 1207/1/6 1208/1/6 1212/1/6
f 1188/1/6 1206/1/6 1212/1/6
f 1208/1/6 1209/1/6 1212/1/6
f 1206/1/6 1207/1/6 1212/1/6
f 1212/1/6 1209/1/6 1213/1/6
f 1213/1/6 1209/1/6 1214/1/6
f 1209/1/6 1191/1/6 1215/1/6
f 1214/1/6 1209/1/6 1215/1/6
f 1188/1/6 1212/1/6 1216/1/6
f 1213/1/6 1214/1/6 1217/1/6
f 1217/1/6 1214/1/6 1218/1/6
f 1215/1/6 1191/1/6 1219/1/6
f 1188/1/6 1216/1/6 1220/1/6
f 1218/1/6 1219/1/6 1220/1/6
f 1217/1/6 1218/1/6 1220/1/6
f 1216/1/6 1217/1/6 1220/1/6
f 1220/1/6 1219/1/6 1221/1/6
f 1219/1/6 1191/1/6 1222/1/6
f 1221/1/6 1219/1/6 1222/1/6
f 1222/1/6 1191/1/6 1223/1/6
f 1194/1/6 1195/1/6 1224/1/6
f 1192/1/6 1193/1/6 1224/1/6
f 1193/1/6 1194/1/6 1224/1/6
f 1224/1/6 1195/1/6 1225/1/6
f 1225/1/6 1195/1/6 1226/1/6
f 1226/1/6 1195/1/6 1227/1/6
f 1210/1/6 1211/1/6 1228/1/6
f 1196/1/6 1210/1/6 1228/1/6
f 1228/1/6 1211/1/6 1229/1/6
f 1211/1/6 1199/1/6 1230/1/6
f 1229/1/6 1211/1/6 1230/1/6
f 1230/1/6 1199/1/6 1231/1/6
f 1221/1/6 1222/1/6 1232/1/6
f 1232/1/6 1222/1/6 1233/1/6
f 1225/1/6 1226/1/6 1234/1/6
f 1234/1/6 1226/1/6 1235/1/6
f 1229/1/6 1230/1/6 1236/1/6
f 1236/1/6 1230/1/6 1237/1/6
f 1238/1/6 1239/1/6 1245/1/6
f 1245/1/6 1239/1/6 1246/1/6
f 1240/1/6 1241/1/6 1249/1/6
f 1249/1/6 1241/1/6 1250/1/6
f 1242/1/6 1243/1/6 1253/1/6
f 1253/1/6 1243/1/6 1254/1/6
f 1246/1/6 1247/1/6 1256/1/6
f 1244/1/6 1245/1/6 1256/1/6
f 1245/1/6 1246/1/6 1256/1/6
f 1256/1/6 1247/1/6 1257/1/6
f 1257/1/6 1247/1/6 1258/1/6
f 1258/1/6 1247/1/6 1259/1/6
f 1250/1/6 1251/1/6 1260/1/6
f 1248/1/6 1249/1/6 1260/1/6
f 1249/1/6 1250/1/6 1260/1/6
f 1260/1/6 1251/1/6 1261/1/6
f 1261/1/6 1251/1/6 1262/1/6
f 1262/1/6 1251/1/6 1263/1/6
f 1253/1/6 1254/1/6 1264/1/6
f 1254/1/6 1255/1/6 1264/1/6
f 1252/1/6 1253/1/6 1264/1/6
f 1264/1/6 1255/1/6 1265/1/6
f 1265/1/6 1255/1/6 1266/1/6
f 1266/1/6 1255/1/6 1267/1/6
f 1257/1/6 1258/1/6 1268/1/6
f 1268/1/6 1258/1/6 1269/1/6
f 1261/1/6 1262/1/6 1270/1/6
f 1270/1/6 1262/1/6 1271/1/6
f 1265/1/6 1266/1/6 1272/1/6
f 1272/1/6 1266/1/6 1273/1/6
f 1274/1/6 1275/1/6 1281/1/6
f 1281/1/6 1275/1/6 1282/1/6
f 1276/1/6 1277/1/6 1285/1/6
f 1285/1/6 1277/1/6 1286/1/6
f 1278/1/6 1279/1/6 1289/1/6
f 1289/1/6 1279/1/6 1290/1/6
f 1290/1/6 1279/1/6 1291/1/6
f 1291/1/6 1279/1/6 1292/1/6
f 1288/1/6 1289/1/6 1294/1/6
f 1289/1/6 1290/1/6 1294/1/6
f 1290/6/6 1291/6/6 1294/6/6
f 1291/1/6 1292/1/6 1295/1/6
f 1294/6/6 1291/6/6 1295/6/6
f 1292/1/6 1293/1/6 1295/1/6
f 1294/1/6 1295/1/6 1296/1/6
f 1295/1/6 1293/1/6 1296/1/6
f 1296/1/6 1293/1/6 1297/1/6
f 1288/1/6 1294/1/6 1298/1/6
f 1294/1/6 1296/1/6 1298/1/6
f 1296/6/6 1297/6/6 1299/6/6
f 1298/1/6 1296/1/6 1299/1/6
f 1299/6/6 1297/6/6 1300/6/6
f 1288/1/6 1298/1/6 1301/1/6
f 1301/1/6 1298/1/6 1302/1/6
f 1300/6/6 1297/6/6 1303/6/6
f 1297/1/6 1293/1/6 1304/1/6
f 1303/6/6 1297/6/6 1304/6/6
f 1304/1/6 1293/1/6 1305/1/6
f 1305/1/6 1293/1/6 1306/1/6
f 1282/1/6 1283/1/6 1307/1/6
f 1280/1/6 1281/1/6 1307/1/6
f 1281/1/6 1282/1/6 1307/1/6
f 1307/1/6 1283/1/6 1308/1/6
f 1308/1/6 1283/1/6 1309/1/6
f 1309/1/6 1283/1/6 1310/1/6
f 1288/1/6 1301/1/6 1311/1/6
f 1301/6/6 1302/6/6 1311/6/6
f 1302/1/6 1298/1/6 1312/1/6
f 1311/6/6 1302/6/6 1312/6/6
f 1305/6/6 1306/6/6 1313/6/6
f 1304/1/6 1305/1/6 1313/1/6
f 1303/1/6 1304/1/6 1313/1/6
f 1306/1/6 1293/1/6 1314/1/6
f 1313/6/6 1306/6/6 1314/6/6
f 1280/1/6 1307/1/6 1315/1/6
f 1308/1/6 1309/1/6 1316/1/6
f 1316/1/6 1309/1/6 1317/1/6
f 1310/1/6 1283/1/6 1318/1/6
f 1312/1/6 1298/1/6 1319/1/6
f 1311/1/6 1312/1/6 1319/1/6
f 1319/1/6 1298/1/6 1320/1/6
f 1320/1/6 1298/1/6 1321/1/6
f 1303/1/6 1313/1/6 1323/1/6
f 1313/1/6 1314/1/6 1323/1/6
f 1323/1/6 1314/1/6 1324/1/6
f 1314/1/6 1293/1/6 1325/1/6
f 1324/1/6 1314/1/6 1325/1/6
f 1311/1/6 1319/1/6 1326/1/6
f 1319/6/6 1320/6/6 1326/6/6
f 1321/1/6 1322/1/6 1327/1/6
f 1326/6/6 1320/6/6 1327/6/6
f 1320/1/6 1321/1/6 1327/1/6
f 1327/1/6 1322/1/6 1328/1/6
f 1322/6/6 1323/6/6 1329/6/6
f 1328/1/6 1322/1/6 1329/1/6
f 1323/1/6 1324/1/6 1330/1/6
f 1329/6/6 1323/6/6 1330/6/6
f 1324/6/6 1325/6/6 1331/6/6
f 1330/1/6 1324/1/6 1331/1/6
f 1325/1/6 1293/1/6 1332/1/6
f 1331/6/6 1325/6/6 1332/6/6
f 1317/1/6 1318/1/6 1333/1/6
f 1316/1/6 1317/1/6 1333/1/6
f 1280/1/6 1315/1/6 1333/1/6
f 1315/1/6 1316/1/6 1333/1/6
f 1333/1/6 1318/1/6 1334/1/6
f 1334/1/6 1318/1/6 1335/1/6
f 1318/1/6 1283/1/6 1336/1/6
f 1335/1/6 1318/1/6 1336/1/6
f 1328/6/6 1329/6/6 1337/6/6
f 1326/1/6 1327/1/6 1337/1/6
f 1327/1/6 1328/1/6 1337/1/6
f 1331/1/6 1332/1/6 1338/1/6
f 1337/6/6 1329/6/6 1338/6/6
f 1330/1/6 1331/1/6 1338/1/6
f 1329/1/6 1330/1/6 1338/1/6
f 1280/1/6 1333/1/6 1339/1/6
f 1339/1/6 1333/1/6 1340/1/6
f 1334/1/6 1335/1/6 1341/1/6
f 1341/1/6 1335/1/6 1342/1/6
f 1336/1/6 1283/1/6 1343/1/6
f 1343/1/6 1283/1/6 1344/1/6
f 1344/1/6 1283/1/6 1345/1/6
f 1286/1/6 1287/1/6 1346/1/6
f 1284/1/6 1285/1/6 1346/1/6
f 1285/1/6 1286/1/6 1346/1/6
f 1346/1/6 1287/1/6 1347/1/6
f 1347/1/6 1287/1/6 1348/1/6
f 1348/1/6 1287/1/6 1349/1/6
f 1311/1/6 1326/1/6 1350/1/6
f 1288/1/6 1311/1/6 1350/1/6
f 1326/1/6 1337/1/6 1350/1/6
f 1337/1/6 1338/1/6 1350/1/6
f 1350/1/6 1338/1/6 1351/1/6
f 1332/1/6 1293/1/6 1352/1/6
f 1351/1/6 1338/1/6 1352/1/6
f 1338/1/6 1332/1/6 1352/1/6
f 1352/1/6 1293/1/6 1353/1/6
f 1340/1/6 1341/1/6 1354/1/6
f 1343/1/6 1344/1/6 1354/1/6
f 1342/1/6 1343/1/6 1354/1/6
f 1341/1/6 1342/1/6 1354/1/6
f 1354/1/6 1344/1/6 1355/1/6
f 1347/1/6 1348/1/6 1356/1/6
f 1356/1/6 1348/1/6 1357/1/6
f 1351/1/6 1352/1/6 1358/1/6
f 1358/1/6 1352/1/6 1359/1/6
f 1360/5/6 1361/5/6 1362/5/6
f 1362/5/6 1361/5/6 1363/5/6
f 1360/5/6 1362/5/6 1364/5/6
f 1363/5/6 1361/5/6 1365/5/6
f 1360/5/6 1364/5/6 1366/5/6
f 1364/5/6 1365/5/6 1366/5/6
f 1365/5/6 1361/5/6 1367/5/6
f 1366/5/6 1365/5/6 1367/5/6
f 1368/4/6 1369/4/6 1370/4/6
f 1370/4/6 1369/4/6 1371/4/6
f 1370/5/6 1371/5/6 1372/5/6
f 1372/5/6 1371/5/6 1373/5/6
f 1372/4/6 1373/4/6 1374/4/6
f 1374/4/6 1373/4/6 1375/4/6
f 1374/5/6 1375/5/6 1376/5/6
f 1376/5/6 1375/5/6 1377/5/6
f 1378/7/6 1379/7/6 1380/7/6
f 1380/7/6 1379/7/6 1381/7/6
f 1382/5/6 1383/5/6 1384/5/6
f 1384/5/6 1383/5/6 1385/5/6
f 1386/6/6 1387/6/6 1389/6/6
f 1389/6/6 1387/6/6 1390/6/6
f 1390/6/6 1387/6/6 1391/6/6
f 1391/6/6 1387/6/6 1392/6/6
f 1388/6/6 1389/6/6 1394/6/6
f 1389/6/6 1390/6/6 1394/6/6
f 1394/6/6 1390/6/6 1395/6/6
f 1392/6/6 1393/6/6 1396/6/6
f 1391/6/6 1392/6/6 1396/6/6
f 1396/6/6 1393/6/6 1397/6/6
f 1388/6/6 1394/6/6 1398/6/6
f 1397/6/6 1393/6/6 1401/6/6
f 1398/6/6 1399/6/6 1402/6/6
f 1388/6/6 1398/6/6 1402/6/6
f 1402/6/6 1399/6/6 1403/6/6
f 1403/6/6 1399/6/6 1404/6/6
f 1400/6/6 1401/6/6 1405/6/6
f 1401/6/6 1393/6/6 1406/6/6
f 1405/6/6 1401/6/6 1406/6/6
f 1406/6/6 1393/6/6 1407/6/6
f 1403/6/6 1404/6/6 1408/6/6
f 1404/6/6 1405/6/6 1408/6/6
f 1405/6/6 1406/6/6 1408/6/6
f 1408/6/6 1406/6/6 1409/6/6
f 1410/7/6 1411/7/6 1416/7/6
f 1412/7/6 1413/7/6 1417/7/6
f 1417/7/6 1413/7/6 1418/7/6
f 1414/7/6 1415/7/6 1419/7/6
f 1417/7/6 1418/7/6 1420/7/6
f 1418/7/6 1419/7/6 1420/7/6
f 1410/7/6 1416/7/6 1420/7/6
f 1416/7/6 1417/7/6 1420/7/6
f 1419/7/6 1415/7/6 1421/7/6
f 1420/7/6 1419/7/6 1421/7/6
f 1422/6/6 1423/6/6 1425/6/6
f 1425/6/6 1423/6/6 1426/6/6
f 1426/6/6 1423/6/6 1427/6/6
f 1427/6/6 1423/6/6 1428/6/6
f 1424/6/6 1425/6/6 1430/6/6
f 1425/6/6 1426/6/6 1430/6/6
f 1430/6/6 1426/6/6 1431/6/6
f 1428/6/6 1429/6/6 1432/6/6
f 1427/6/6 1428/6/6 1432/6/6
f 1432/6/6 1429/6/6 1433/6/6
f 1424/6/6 1430/6/6 1434/6/6
f 1433/6/6 1429/6/6 1437/6/6
f 1434/6/6 1435/6/6 1438/6/6
f 1424/6/6 1434/6/6 1438/6/6
f 1438/6/6 1435/6/6 1439/6/6
f 1439/6/6 1435/6/6 1440/6/6
f 1436/6/6 1437/6/6 1441/6/6
f 1437/6/6 1429/6/6 1442/6/6
f 1441/6/6 1437/6/6 1442/6/6
f 1442/6/6 1429/6/6 1443/6/6
f 1439/6/6 1440/6/6 1444/6/6
f 1440/6/6 1441/6/6 1444/6/6
f 1441/6/6 1442/6/6 1444/6/6
f 1444/6/6 1442/6/6 1445/6/6
f 1446/5/6 1447/5/6 1449/5/6
f 1449/5/6 1447/5/6 1450/5/6
f 1448/5/6 1449/5/6 1452/5/6
f 1452/5/6 1449/5/6 1453/5/6
f 1450/5/6 1451/5/6 1454/5/6
f 1454/5/6 1451/5/6 1455/5/6
f 1453/5/6 1454/5/6 1456/5/6
f 1456/5/6 1454/5/6 1457/5/6
f 1458/5/6 1459/5/6 1460/5/6
f 1460/5/6 1459/5/6 1461/5/6
f 1458/5/6 1460/5/6 1462/5/6
f 1461/5/6 1459/5/6 1463/5/6
f 1458/5/6 1462/5/6 1464/5/6
f 1462/5/6 1463/5/6 1464/5/6
f 1463/5/6 1459/5/6 1465/5/6
f 1464/5/6 1463/5/6 1465/5/6
f 1466/7/6 1467/7/6 1470/7/6
f 1470/7/6 1467/7/6 1471/7/6
f 1468/7/6 1469/7/6 1472/7/6
f 1472/7/6 1469/7/6 1473/7/6
f 1474/5/6 1475/5/6 1476/5/6
f 1476/5/6 1475/5/6 1477/5/6
f 1478/6/6 1479/6/6 1481/6/6
f 1481/6/6 1479/6/6 1482/6/6
f 1480/6/6 1481/6/6 1484/6/6
f 1482/6/6 1483/6/6 1484/6/6
f 1481/6/6 1482/6/6 1484/6/6
f 1484/6/6 1483/6/6 1485/6/6
f 1485/6/6 1483/6/6 1486/6/6
f 1486/6/6 1483/6/6 1487/6/6
f 1485/6/6 1486/6/6 1488/6/6
f 1488/6/6 1486/6/6 1489/6/6
