# MagicaVoxel @ Ephtracy

# group
o 

# material
mtllib hard_four_tile.mtl
usemtl palette

# normals
vn -1 0 0
vn 1 0 0
vn 0 0 1
vn 0 0 -1
vn 0 -1 0
vn 0 1 0

# texcoords
vt 0.517578 0.5
vt 0.556641 0.5
vt 0.673828 0.5
vt 0.677734 0.5
vt 0.681641 0.5
vt 0.779297 0.5
vt 0.841797 0.5
vt 0.892578 0.5
vt 0.958984 0.5
vt 0.962891 0.5
vt 0.990234 0.5

# verts
v -1.9 0.3 1.8
v -1.9 0.3 0.8
v -1.9 0.3 0.5
v -1.9 0.3 -0.5
v -1.9 0.3 -0.8
v -1.9 0.3 -1.8
v -1.9 0.5 1.8
v -1.9 0.5 0.8
v -1.9 0.5 0.5
v -1.9 0.5 -0.5
v -1.9 0.5 -0.8
v -1.9 0.5 -1.8
v -1.9 0.9 -1.4
v -1.9 0.9 -1.6
v -1.9 1.1 -1.4
v -1.9 1.1 -1.6
v -1.8 0.3 1.9
v -1.8 0.3 1.8
v -1.8 0.3 0.8
v -1.8 0.3 0.7
v -1.8 0.3 0.6
v -1.8 0.3 0.5
v -1.8 0.3 -0.5
v -1.8 0.3 -0.6
v -1.8 0.3 -0.7
v -1.8 0.3 -0.8
v -1.8 0.3 -1.8
v -1.8 0.3 -1.9
v -1.8 0.5 1.9
v -1.8 0.5 1.8
v -1.8 0.5 0.8
v -1.8 0.5 0.7
v -1.8 0.5 0.6
v -1.8 0.5 0.5
v -1.8 0.5 -0.5
v -1.8 0.5 -0.6
v -1.8 0.5 -0.7
v -1.8 0.5 -0.8
v -1.8 0.5 -1.8
v -1.8 0.5 -1.9
v -1.8 0.6 1.8
v -1.8 0.6 1.6
v -1.8 0.6 1.5
v -1.8 0.6 0.8
v -1.8 0.9 1.8
v -1.8 0.9 1.7
v -1.8 1.1 1.8
v -1.8 1.1 1.7
v -1.8 1.5 1.6
v -1.8 1.5 1.5
v -1.8 1.5 0.8
v -1.8 1.7 1.8
v -1.8 1.7 1.6
v -1.7 0.5 1.7
v -1.7 0.5 1.4
v -1.7 0.5 1.2
v -1.7 0.5 0.9
v -1.7 0.5 -1.3
v -1.7 0.5 -1.6
v -1.7 0.6 1.7
v -1.7 0.6 1.6
v -1.7 0.6 1.5
v -1.7 0.6 1.4
v -1.7 0.6 1.2
v -1.7 0.6 0.9
v -1.7 0.9 -1.4
v -1.7 0.9 -1.6
v -1.7 1 -1.4
v -1.7 1 -1.6
v -1.7 1.2 -1.3
v -1.7 1.2 -1.6
v -1.7 1.7 1.8
v -1.7 1.7 1.6
v -1.7 1.8 1.8
v -1.7 1.8 1.6
v -1.6 0.5 -1.2
v -1.6 0.5 -1.3
v -1.6 0.5 -1.6
v -1.6 0.5 -1.7
v -1.6 1.2 -1.2
v -1.6 1.2 -1.3
v -1.6 1.2 -1.6
v -1.6 1.2 -1.7
v -1.6 1.3 -1.3
v -1.6 1.3 -1.6
v -1.5 0.8 1.9
v -1.5 0.8 1.8
v -1.5 0.9 1.8
v -1.5 1 1.9
v -1.5 1 1.8
v -1.4 0.6 0.8
v -1.4 0.6 0.6
v -1.4 0.7 0.8
v -1.4 0.7 0.6
v -1.4 1 0.8
v -1.4 1 0.6
v -1.1 0.5 1.7
v -1.1 0.5 1.4
v -1.1 0.5 1.2
v -1.1 0.5 0.9
v -1.1 0.6 1.7
v -1.1 0.6 1.6
v -1.1 0.6 1.5
v -1.1 0.6 1.4
v -1.1 0.6 1.2
v -1.1 0.6 0.9
v -1.1 0.9 -1.3
v -1.1 0.9 -1.6
v -1.1 1 -1.3
v -1.1 1 -1.6
v -1.1 1.5 1.8
v -1.1 1.5 1.6
v -1.1 1.7 1.8
v -1.1 1.7 1.6
v -1 1.7 1.8
v -1 1.7 1.6
v -1 1.8 1.8
v -1 1.8 1.6
v -0.6 0.3 1.8
v -0.6 0.3 0.8
v -0.6 0.3 0.5
v -0.6 0.3 -0.5
v -0.6 0.3 -0.8
v -0.6 0.3 -1.8
v -0.6 0.5 1.8
v -0.6 0.5 0.8
v -0.6 0.5 0.5
v -0.6 0.5 -0.5
v -0.6 0.5 -0.8
v -0.6 0.5 -1.8
v -0.5 0.3 1.9
v -0.5 0.3 1.8
v -0.5 0.3 0.8
v -0.5 0.3 0.7
v -0.5 0.3 0.6
v -0.5 0.3 0.5
v -0.5 0.3 -0.5
v -0.5 0.3 -0.6
v -0.5 0.3 -0.7
v -0.5 0.3 -0.8
v -0.5 0.3 -1.8
v -0.5 0.3 -1.9
v -0.5 0.5 1.9
v -0.5 0.5 1.8
v -0.5 0.5 0.8
v -0.5 0.5 0.7
v -0.5 0.5 0.6
v -0.5 0.5 0.5
v -0.5 0.5 -0.5
v -0.5 0.5 -0.6
v -0.5 0.5 -0.7
v -0.5 0.5 -0.8
v -0.5 0.5 -1.8
v -0.5 0.5 -1.9
v 0.7 0.3 1.8
v 0.7 0.3 0.8
v 0.7 0.3 0.5
v 0.7 0.3 -0.5
v 0.7 0.3 -0.8
v 0.7 0.3 -1.8
v 0.7 0.5 1.8
v 0.7 0.5 0.8
v 0.7 0.5 0.5
v 0.7 0.5 -0.5
v 0.7 0.5 -0.8
v 0.7 0.5 -1
v 0.7 0.6 -1
v 0.7 0.6 -1.8
v 0.7 0.7 -1.1
v 0.7 0.7 -1.2
v 0.7 0.7 -1.7
v 0.7 0.7 -1.8
v 0.7 0.8 -1
v 0.7 0.8 -1.1
v 0.7 0.8 -1.2
v 0.7 0.8 -1.7
v 0.7 0.8 -1.8
v 0.7 0.9 -1
v 0.7 0.9 -1.8
v 0.8 0.3 1.9
v 0.8 0.3 1.8
v 0.8 0.3 0.8
v 0.8 0.3 0.7
v 0.8 0.3 0.6
v 0.8 0.3 0.5
v 0.8 0.3 -0.5
v 0.8 0.3 -0.6
v 0.8 0.3 -0.7
v 0.8 0.3 -0.8
v 0.8 0.3 -1.8
v 0.8 0.3 -1.9
v 0.8 0.5 1.9
v 0.8 0.5 1.8
v 0.8 0.5 0.8
v 0.8 0.5 0.7
v 0.8 0.5 0.6
v 0.8 0.5 0.5
v 0.8 0.5 -0.5
v 0.8 0.5 -0.6
v 0.8 0.5 -0.7
v 0.8 0.5 -0.8
v 0.8 0.6 -1.8
v 0.8 0.6 -1.9
v 0.8 0.7 -1.8
v 0.8 0.8 -1.8
v 0.8 0.8 -1.9
v 0.8 0.9 -1
v 0.8 0.9 -1.8
v 0.8 0.9 -1.9
v 0.8 1 -1
v 0.8 1 -1.4
v 0.8 1 -1.5
v 0.8 1 -1.9
v 0.8 1.1 -1.4
v 0.8 1.1 -1.5
v 0.8 1.2 -1
v 0.8 1.2 -1.9
v 0.9 0.5 -0.8
v 0.9 0.5 -1
v 0.9 0.6 -1
v 0.9 0.7 -0.8
v 0.9 0.7 -1
v 0.9 0.8 -0.8
v 0.9 0.8 -1
v 0.9 0.9 -0.8
v 0.9 0.9 -1
v 0.9 1 -1
v 0.9 1.2 -0.8
v 0.9 1.2 -1
v 1 0.5 -0.7
v 1 0.5 -0.8
v 1 0.7 -0.7
v 1 0.7 -0.8
v 1 0.8 -0.7
v 1 0.8 -0.8
v 1 1.2 -1.2
v 1 1.2 -1.9
v 1 1.4 -1.2
v 1 1.4 -1.9
v 1.1 0.8 -0.7
v 1.1 0.8 -0.8
v 1.1 0.9 -0.7
v 1.1 0.9 -0.8
v 1.1 1.1 -0.7
v 1.1 1.1 -0.8
v 1.2 1.2 -1
v 1.2 1.2 -1.2
v 1.2 1.4 -1
v 1.2 1.4 -1.2
v 1.2 1.4 -1.4
v 1.2 1.4 -1.9
v 1.2 1.5 -1.4
v 1.2 1.5 -1.9
v 1.3 0.8 -1.6
v 1.3 0.8 -1.7
v 1.3 0.9 -1.6
v 1.3 0.9 -1.7
v 1.4 1.4 -1.2
v 1.4 1.4 -1.4
v 1.4 1.5 -1.2
v 1.4 1.5 -1.4
v 1.7 0.4 1.8
v 1.7 0.4 1.7
v 1.7 0.5 1.8
v 1.7 0.5 1.7
v 1.7 0.8 -1.1
v 1.7 0.8 -1.3
v 1.7 0.9 -1
v 1.7 0.9 -1.1
v 1.7 0.9 -1.3
v 1.7 1 -1
v 1.7 1 -1.1
v 1.8 0.4 1.7
v 1.8 0.4 1.1
v 1.8 0.5 1.7
v 1.8 0.5 1.1
v 1.8 0.7 -1.2
v 1.8 0.7 -1.3
v 1.8 0.8 -1.2
v 1.8 0.8 -1.3
v 1.8 0.8 -1.6
v 1.8 0.9 -1.3
v 1.8 0.9 -1.6
v -1.8 1 -1.4
v -1.8 1 -1.6
v -1.8 1.1 -1.4
v -1.8 1.1 -1.6
v -1.6 1.7 1.8
v -1.6 1.7 1.6
v -1.6 1.8 1.8
v -1.6 1.8 1.6
v -1.5 0.5 1.7
v -1.5 0.5 1.4
v -1.5 0.5 1.2
v -1.5 0.5 0.9
v -1.5 0.6 1.7
v -1.5 0.6 1.6
v -1.5 0.6 1.5
v -1.5 0.6 1.4
v -1.5 0.6 1.2
v -1.5 0.6 0.9
v -1.5 1.5 1.8
v -1.5 1.5 1.6
v -1.5 1.7 1.8
v -1.5 1.7 1.6
v -1.3 0.5 -1.2
v -1.3 0.5 -1.3
v -1.3 0.5 -1.6
v -1.3 0.5 -1.7
v -1.3 1.2 -1.2
v -1.3 1.2 -1.3
v -1.3 1.2 -1.6
v -1.3 1.2 -1.7
v -1.3 1.3 -1.3
v -1.3 1.3 -1.6
v -1.2 0.5 -1.3
v -1.2 0.5 -1.6
v -1.2 0.6 0.8
v -1.2 0.6 0.6
v -1.2 0.7 0.8
v -1.2 0.7 0.6
v -1.2 0.8 -1.3
v -1.2 0.8 -1.6
v -1.2 0.9 -1.3
v -1.2 0.9 -1.6
v -1.2 1 0.8
v -1.2 1 0.6
v -1.2 1.2 -1.3
v -1.2 1.2 -1.6
v -1.1 0.8 1.9
v -1.1 0.8 1.8
v -1.1 0.9 1.8
v -1.1 1 1.9
v -1.1 1 1.8
v -1 0.8 -1.3
v -1 0.8 -1.6
v -1 1 -1.3
v -1 1 -1.6
v -0.9 0.5 1.7
v -0.9 0.5 1.4
v -0.9 0.5 1.2
v -0.9 0.5 0.9
v -0.9 0.6 1.7
v -0.9 0.6 1.6
v -0.9 0.6 1.5
v -0.9 0.6 1.4
v -0.9 0.6 1.2
v -0.9 0.6 0.9
v -0.9 1.7 1.8
v -0.9 1.7 1.6
v -0.9 1.8 1.8
v -0.9 1.8 1.6
v -0.8 0.3 1.9
v -0.8 0.3 1.8
v -0.8 0.3 0.8
v -0.8 0.3 0.7
v -0.8 0.3 0.6
v -0.8 0.3 0.5
v -0.8 0.3 -0.5
v -0.8 0.3 -0.6
v -0.8 0.3 -0.7
v -0.8 0.3 -0.8
v -0.8 0.3 -1.8
v -0.8 0.3 -1.9
v -0.8 0.5 1.9
v -0.8 0.5 1.8
v -0.8 0.5 0.8
v -0.8 0.5 0.7
v -0.8 0.5 0.6
v -0.8 0.5 0.5
v -0.8 0.5 -0.5
v -0.8 0.5 -0.6
v -0.8 0.5 -0.7
v -0.8 0.5 -0.8
v -0.8 0.5 -1.8
v -0.8 0.5 -1.9
v -0.8 0.6 1.8
v -0.8 0.6 1.6
v -0.8 0.6 1.5
v -0.8 0.6 0.8
v -0.8 0.9 1.8
v -0.8 0.9 1.7
v -0.8 1.1 1.8
v -0.8 1.1 1.7
v -0.8 1.5 1.6
v -0.8 1.5 1.5
v -0.8 1.5 0.8
v -0.8 1.7 1.8
v -0.8 1.7 1.6
v -0.7 0.3 1.8
v -0.7 0.3 0.8
v -0.7 0.3 0.5
v -0.7 0.3 -0.5
v -0.7 0.3 -0.8
v -0.7 0.3 -1.8
v -0.7 0.5 1.8
v -0.7 0.5 0.8
v -0.7 0.5 0.5
v -0.7 0.5 -0.5
v -0.7 0.5 -0.8
v -0.7 0.5 -1.8
v 0.5 0.3 1.9
v 0.5 0.3 1.8
v 0.5 0.3 0.8
v 0.5 0.3 0.7
v 0.5 0.3 0.6
v 0.5 0.3 0.5
v 0.5 0.3 -0.5
v 0.5 0.3 -0.6
v 0.5 0.3 -0.7
v 0.5 0.3 -0.8
v 0.5 0.3 -1.8
v 0.5 0.3 -1.9
v 0.5 0.5 1.9
v 0.5 0.5 1.8
v 0.5 0.5 0.8
v 0.5 0.5 0.7
v 0.5 0.5 0.6
v 0.5 0.5 0.5
v 0.5 0.5 -0.5
v 0.5 0.5 -0.6
v 0.5 0.5 -0.7
v 0.5 0.5 -0.8
v 0.5 0.5 -1.8
v 0.5 0.5 -1.9
v 0.6 0.3 1.8
v 0.6 0.3 0.8
v 0.6 0.3 0.5
v 0.6 0.3 -0.5
v 0.6 0.3 -0.8
v 0.6 0.3 -1.8
v 0.6 0.5 1.8
v 0.6 0.5 0.8
v 0.6 0.5 0.5
v 0.6 0.5 -0.5
v 0.6 0.5 -0.8
v 0.6 0.5 -1.8
v 0.9 0.8 -1.2
v 0.9 0.8 -1.3
v 0.9 0.9 -1.2
v 0.9 0.9 -1.3
v 1 0.4 1.7
v 1 0.4 1.3
v 1 0.5 1.7
v 1 0.5 1.3
v 1 0.8 -1.3
v 1 0.8 -1.6
v 1 0.9 -1.3
v 1 0.9 -1.6
v 1.1 0.4 1.8
v 1.1 0.4 1.7
v 1.1 0.4 1.3
v 1.1 0.4 1.2
v 1.1 0.5 1.8
v 1.1 0.5 1.7
v 1.1 0.5 1.3
v 1.1 0.5 1.2
v 1.1 0.8 -1.6
v 1.1 0.8 -1.7
v 1.1 0.9 -1.6
v 1.1 0.9 -1.7
v 1.2 0.8 -1.1
v 1.2 0.8 -1.2
v 1.2 0.9 -1.1
v 1.2 0.9 -1.2
v 1.5 0.4 1.2
v 1.5 0.4 1.1
v 1.5 0.5 1.2
v 1.5 0.5 1.1
v 1.6 0.9 -1
v 1.6 0.9 -1.1
v 1.6 1 -1
v 1.6 1 -1.1
v 1.7 0.7 -1.2
v 1.7 0.7 -1.3
v 1.7 0.8 -1.2
v 1.7 0.8 -1.3
v 1.8 0.3 1.9
v 1.8 0.3 1.8
v 1.8 0.3 0.8
v 1.8 0.3 0.7
v 1.8 0.3 0.6
v 1.8 0.3 0.5
v 1.8 0.3 -0.5
v 1.8 0.3 -0.6
v 1.8 0.3 -0.7
v 1.8 0.3 -0.8
v 1.8 0.3 -1.8
v 1.8 0.3 -1.9
v 1.8 0.5 1.9
v 1.8 0.5 1.8
v 1.8 0.5 0.8
v 1.8 0.5 0.7
v 1.8 0.5 0.6
v 1.8 0.5 0.5
v 1.8 0.5 -0.5
v 1.8 0.5 -0.6
v 1.8 0.5 -0.7
v 1.8 0.5 -0.8
v 1.8 0.6 -1.8
v 1.8 0.6 -1.9
v 1.8 0.7 -0.7
v 1.8 0.7 -0.8
v 1.8 0.8 -0.7
v 1.8 0.8 -0.8
v 1.8 0.8 -1.8
v 1.8 0.8 -1.9
v 1.8 0.9 -0.7
v 1.8 0.9 -0.8
v 1.8 0.9 -1.8
v 1.8 0.9 -1.9
v 1.8 1 -1.8
v 1.8 1 -1.9
v 1.8 1.1 -0.7
v 1.8 1.1 -0.8
v 1.8 1.5 -1.8
v 1.8 1.5 -1.9
v 1.9 0.3 1.8
v 1.9 0.3 0.8
v 1.9 0.3 0.5
v 1.9 0.3 -0.5
v 1.9 0.3 -0.8
v 1.9 0.3 -1.8
v 1.9 0.5 1.8
v 1.9 0.5 0.8
v 1.9 0.5 0.5
v 1.9 0.5 -0.5
v 1.9 0.5 -0.8
v 1.9 0.5 -1.1
v 1.9 0.6 -1.1
v 1.9 0.6 -1.8
v 1.9 0.7 -0.8
v 1.9 0.7 -1.1
v 1.9 0.8 -0.8
v 1.9 0.8 -1.1
v 1.9 0.9 -0.8
v 1.9 0.9 -1.1
v 1.9 1 -1.1
v 1.9 1 -1.8
v 1.9 1.2 -0.8
v 1.9 1.2 -1
v 1.9 1.4 -1
v 1.9 1.4 -1.2
v 1.9 1.5 -1.2
v 1.9 1.5 -1.8
v -1.8 0.3 1.9
v -1.8 0.5 1.9
v -1.5 0.8 1.9
v -1.5 1 1.9
v -1.4 0.9 1.9
v -1.4 1 1.9
v -1.2 0.9 1.9
v -1.2 1 1.9
v -1.1 0.8 1.9
v -1.1 1 1.9
v -0.8 0.3 1.9
v -0.8 0.5 1.9
v -0.5 0.3 1.9
v -0.5 0.5 1.9
v 0.5 0.3 1.9
v 0.5 0.5 1.9
v 0.8 0.3 1.9
v 0.8 0.5 1.9
v 1.8 0.3 1.9
v 1.8 0.5 1.9
v -1.9 0.3 1.8
v -1.9 0.5 1.8
v -1.8 0.3 1.8
v -1.8 0.5 1.8
v -1.8 0.6 1.8
v -1.8 0.9 1.8
v -1.8 1.1 1.8
v -1.8 1.7 1.8
v -1.7 1.5 1.8
v -1.7 1.7 1.8
v -1.7 1.8 1.8
v -1.6 1 1.8
v -1.6 1.1 1.8
v -1.6 1.2 1.8
v -1.6 1.5 1.8
v -1.6 1.7 1.8
v -1.6 1.8 1.8
v -1.5 0.8 1.8
v -1.5 0.9 1.8
v -1.5 1 1.8
v -1.5 1.2 1.8
v -1.5 1.5 1.8
v -1.5 1.7 1.8
v -1.4 1 1.8
v -1.2 1 1.8
v -1.1 0.8 1.8
v -1.1 0.9 1.8
v -1.1 1 1.8
v -1.1 1.2 1.8
v -1.1 1.5 1.8
v -1.1 1.7 1.8
v -1 1 1.8
v -1 1.1 1.8
v -1 1.2 1.8
v -1 1.5 1.8
v -1 1.7 1.8
v -1 1.8 1.8
v -0.9 1.5 1.8
v -0.9 1.7 1.8
v -0.9 1.8 1.8
v -0.8 0.3 1.8
v -0.8 0.5 1.8
v -0.8 0.6 1.8
v -0.8 0.9 1.8
v -0.8 1.1 1.8
v -0.8 1.7 1.8
v -0.7 0.3 1.8
v -0.7 0.5 1.8
v -0.6 0.3 1.8
v -0.6 0.5 1.8
v -0.5 0.3 1.8
v -0.5 0.5 1.8
v 0.5 0.3 1.8
v 0.5 0.5 1.8
v 0.6 0.3 1.8
v 0.6 0.5 1.8
v 0.7 0.3 1.8
v 0.7 0.5 1.8
v 0.8 0.3 1.8
v 0.8 0.5 1.8
v 1.8 0.3 1.8
v 1.8 0.5 1.8
v 1.9 0.3 1.8
v 1.9 0.5 1.8
v -1.7 0.5 1.7
v -1.7 0.6 1.7
v -1.5 0.5 1.7
v -1.5 0.6 1.7
v -1.1 0.5 1.7
v -1.1 0.6 1.7
v -0.9 0.5 1.7
v -0.9 0.6 1.7
v 1 0.4 1.3
v 1 0.5 1.3
v 1.1 0.4 1.3
v 1.1 0.5 1.3
v -1.7 0.5 1.2
v -1.7 0.6 1.2
v -1.5 0.5 1.2
v -1.5 0.6 1.2
v -1.1 0.5 1.2
v -1.1 0.6 1.2
v -0.9 0.5 1.2
v -0.9 0.6 1.2
v 1.1 0.4 1.2
v 1.1 0.5 1.2
v 1.5 0.4 1.2
v 1.5 0.5 1.2
v 1.5 0.4 1.1
v 1.5 0.5 1.1
v 1.8 0.4 1.1
v 1.8 0.5 1.1
v -1.8 0.3 0.6
v -1.8 0.5 0.6
v -0.8 0.3 0.6
v -0.8 0.5 0.6
v -0.5 0.3 0.6
v -0.5 0.5 0.6
v 0.5 0.3 0.6
v 0.5 0.5 0.6
v 0.8 0.3 0.6
v 0.8 0.5 0.6
v 1.8 0.3 0.6
v 1.8 0.5 0.6
v -1.9 0.3 0.5
v -1.9 0.5 0.5
v -1.8 0.3 0.5
v -1.8 0.5 0.5
v -0.8 0.3 0.5
v -0.8 0.5 0.5
v -0.7 0.3 0.5
v -0.7 0.5 0.5
v -0.6 0.3 0.5
v -0.6 0.5 0.5
v -0.5 0.3 0.5
v -0.5 0.5 0.5
v 0.5 0.3 0.5
v 0.5 0.5 0.5
v 0.6 0.3 0.5
v 0.6 0.5 0.5
v 0.7 0.3 0.5
v 0.7 0.5 0.5
v 0.8 0.3 0.5
v 0.8 0.5 0.5
v 1.8 0.3 0.5
v 1.8 0.5 0.5
v 1.9 0.3 0.5
v 1.9 0.5 0.5
v -1.8 0.3 -0.7
v -1.8 0.5 -0.7
v -0.8 0.3 -0.7
v -0.8 0.5 -0.7
v -0.5 0.3 -0.7
v -0.5 0.5 -0.7
v 0.5 0.3 -0.7
v 0.5 0.5 -0.7
v 0.8 0.3 -0.7
v 0.8 0.5 -0.7
v 1 0.5 -0.7
v 1 0.7 -0.7
v 1 0.8 -0.7
v 1.1 0.8 -0.7
v 1.1 0.9 -0.7
v 1.1 1.1 -0.7
v 1.2 0.6 -0.7
v 1.2 0.7 -0.7
v 1.3 0.6 -0.7
v 1.3 0.7 -0.7
v 1.6 0.8 -0.7
v 1.6 0.9 -0.7
v 1.7 0.8 -0.7
v 1.7 0.9 -0.7
v 1.8 0.3 -0.7
v 1.8 0.5 -0.7
v 1.8 0.7 -0.7
v 1.8 0.8 -0.7
v 1.8 0.9 -0.7
v 1.8 1.1 -0.7
v -1.9 0.3 -0.8
v -1.9 0.5 -0.8
v -1.8 0.3 -0.8
v -1.8 0.5 -0.8
v -0.8 0.3 -0.8
v -0.8 0.5 -0.8
v -0.7 0.3 -0.8
v -0.7 0.5 -0.8
v -0.6 0.3 -0.8
v -0.6 0.5 -0.8
v -0.5 0.3 -0.8
v -0.5 0.5 -0.8
v 0.5 0.3 -0.8
v 0.5 0.5 -0.8
v 0.6 0.3 -0.8
v 0.6 0.5 -0.8
v 0.7 0.3 -0.8
v 0.7 0.5 -0.8
v 0.8 0.3 -0.8
v 0.8 0.5 -0.8
v 0.9 0.5 -0.8
v 0.9 0.7 -0.8
v 0.9 0.8 -0.8
v 0.9 0.9 -0.8
v 0.9 1.2 -0.8
v 1 0.5 -0.8
v 1 0.7 -0.8
v 1 0.8 -0.8
v 1.1 0.8 -0.8
v 1.1 0.9 -0.8
v 1.1 1.1 -0.8
v 1.8 0.3 -0.8
v 1.8 0.5 -0.8
v 1.8 0.7 -0.8
v 1.8 0.8 -0.8
v 1.8 0.9 -0.8
v 1.8 1.1 -0.8
v 1.9 0.3 -0.8
v 1.9 0.5 -0.8
v 1.9 0.7 -0.8
v 1.9 0.8 -0.8
v 1.9 0.9 -0.8
v 1.9 1.2 -0.8
v 0.7 0.5 -1
v 0.7 0.6 -1
v 0.7 0.8 -1
v 0.7 0.9 -1
v 0.8 0.9 -1
v 0.8 1 -1
v 0.8 1.2 -1
v 0.9 0.5 -1
v 0.9 0.6 -1
v 0.9 0.7 -1
v 0.9 0.8 -1
v 0.9 0.9 -1
v 0.9 1 -1
v 0.9 1.2 -1
v 1.2 1.2 -1
v 1.2 1.4 -1
v 1.9 1.2 -1
v 1.9 1.4 -1
v 1.6 0.9 -1.1
v 1.6 1 -1.1
v 1.7 0.9 -1.1
v 1.7 1 -1.1
v -1.6 0.5 -1.2
v -1.6 1.2 -1.2
v -1.3 0.5 -1.2
v -1.3 1.2 -1.2
v 1 1.2 -1.2
v 1 1.4 -1.2
v 1.2 1.2 -1.2
v 1.2 1.4 -1.2
v 1.4 1.4 -1.2
v 1.4 1.5 -1.2
v 1.9 1.4 -1.2
v 1.9 1.5 -1.2
v -1.7 0.5 -1.3
v -1.7 1.2 -1.3
v -1.6 0.5 -1.3
v -1.6 1.2 -1.3
v -1.6 1.3 -1.3
v -1.3 0.5 -1.3
v -1.3 1.2 -1.3
v -1.3 1.3 -1.3
v -1.2 0.5 -1.3
v -1.2 0.8 -1.3
v -1.2 0.9 -1.3
v -1.2 1.2 -1.3
v -1.1 0.9 -1.3
v -1.1 1 -1.3
v -1 0.8 -1.3
v -1 1 -1.3
v 0.9 0.8 -1.3
v 0.9 0.9 -1.3
v 1 0.8 -1.3
v 1 0.9 -1.3
v 1.7 0.7 -1.3
v 1.7 0.8 -1.3
v 1.8 0.7 -1.3
v 1.8 0.8 -1.3
v -1.9 0.9 -1.4
v -1.9 1.1 -1.4
v -1.8 1 -1.4
v -1.8 1.1 -1.4
v -1.7 0.9 -1.4
v -1.7 1 -1.4
v 1.2 1.4 -1.4
v 1.2 1.5 -1.4
v 1.4 1.4 -1.4
v 1.4 1.5 -1.4
v 1 0.8 -1.6
v 1 0.9 -1.6
v 1.1 0.8 -1.6
v 1.1 0.9 -1.6
v 1.3 0.8 -1.6
v 1.3 0.9 -1.6
v 1.5 0.8 -1.6
v 1.5 0.9 -1.6
v 1.8 0.8 -1.6
v 1.8 0.9 -1.6
v 1.1 0.8 -1.7
v 1.1 0.9 -1.7
v 1.3 0.8 -1.7
v 1.3 0.9 -1.7
v 1.1 0.4 1.8
v 1.1 0.5 1.8
v 1.7 0.4 1.8
v 1.7 0.5 1.8
v 1 0.4 1.7
v 1 0.5 1.7
v 1.1 0.4 1.7
v 1.1 0.5 1.7
v 1.7 0.4 1.7
v 1.7 0.5 1.7
v 1.8 0.4 1.7
v 1.8 0.5 1.7
v -1.8 1.5 1.6
v -1.8 1.7 1.6
v -1.7 1.7 1.6
v -1.7 1.8 1.6
v -1.6 1.7 1.6
v -1.6 1.8 1.6
v -1.5 1.5 1.6
v -1.5 1.7 1.6
v -1.1 1.5 1.6
v -1.1 1.7 1.6
v -1 1.7 1.6
v -1 1.8 1.6
v -0.9 1.7 1.6
v -0.9 1.8 1.6
v -0.8 1.5 1.6
v -0.8 1.7 1.6
v -1.7 0.5 1.4
v -1.7 0.6 1.4
v -1.5 0.5 1.4
v -1.5 0.6 1.4
v -1.1 0.5 1.4
v -1.1 0.6 1.4
v -0.9 0.5 1.4
v -0.9 0.6 1.4
v -1.7 0.5 0.9
v -1.7 0.6 0.9
v -1.5 0.5 0.9
v -1.5 0.6 0.9
v -1.1 0.5 0.9
v -1.1 0.6 0.9
v -0.9 0.5 0.9
v -0.9 0.6 0.9
v -1.9 0.3 0.8
v -1.9 0.5 0.8
v -1.8 0.3 0.8
v -1.8 0.5 0.8
v -1.8 0.6 0.8
v -1.8 1.5 0.8
v -1.4 0.6 0.8
v -1.4 0.7 0.8
v -1.4 1 0.8
v -1.2 0.6 0.8
v -1.2 0.7 0.8
v -1.2 1 0.8
v -0.8 0.3 0.8
v -0.8 0.5 0.8
v -0.8 0.6 0.8
v -0.8 1.5 0.8
v -0.7 0.3 0.8
v -0.7 0.5 0.8
v -0.6 0.3 0.8
v -0.6 0.5 0.8
v -0.5 0.3 0.8
v -0.5 0.5 0.8
v 0.5 0.3 0.8
v 0.5 0.5 0.8
v 0.6 0.3 0.8
v 0.6 0.5 0.8
v 0.7 0.3 0.8
v 0.7 0.5 0.8
v 0.8 0.3 0.8
v 0.8 0.5 0.8
v 1.8 0.3 0.8
v 1.8 0.5 0.8
v 1.9 0.3 0.8
v 1.9 0.5 0.8
v -1.8 0.3 0.7
v -1.8 0.5 0.7
v -0.8 0.3 0.7
v -0.8 0.5 0.7
v -0.5 0.3 0.7
v -0.5 0.5 0.7
v 0.5 0.3 0.7
v 0.5 0.5 0.7
v 0.8 0.3 0.7
v 0.8 0.5 0.7
v 1.8 0.3 0.7
v 1.8 0.5 0.7
v -1.4 0.6 0.6
v -1.4 0.7 0.6
v -1.4 1 0.6
v -1.2 0.6 0.6
v -1.2 0.7 0.6
v -1.2 1 0.6
v -1.9 0.3 -0.5
v -1.9 0.5 -0.5
v -1.8 0.3 -0.5
v -1.8 0.5 -0.5
v -0.8 0.3 -0.5
v -0.8 0.5 -0.5
v -0.7 0.3 -0.5
v -0.7 0.5 -0.5
v -0.6 0.3 -0.5
v -0.6 0.5 -0.5
v -0.5 0.3 -0.5
v -0.5 0.5 -0.5
v 0.5 0.3 -0.5
v 0.5 0.5 -0.5
v 0.6 0.3 -0.5
v 0.6 0.5 -0.5
v 0.7 0.3 -0.5
v 0.7 0.5 -0.5
v 0.8 0.3 -0.5
v 0.8 0.5 -0.5
v 1.8 0.3 -0.5
v 1.8 0.5 -0.5
v 1.9 0.3 -0.5
v 1.9 0.5 -0.5
v -1.8 0.3 -0.6
v -1.8 0.5 -0.6
v -0.8 0.3 -0.6
v -0.8 0.5 -0.6
v -0.5 0.3 -0.6
v -0.5 0.5 -0.6
v 0.5 0.3 -0.6
v 0.5 0.5 -0.6
v 0.8 0.3 -0.6
v 0.8 0.5 -0.6
v 1.8 0.3 -0.6
v 1.8 0.5 -0.6
v 1.6 0.9 -1
v 1.6 1 -1
v 1.7 0.9 -1
v 1.7 1 -1
v 1.2 0.8 -1.1
v 1.2 0.9 -1.1
v 1.5 0.8 -1.1
v 1.7 0.8 -1.1
v 1.7 0.9 -1.1
v 0.9 0.8 -1.2
v 0.9 0.9 -1.2
v 1.2 0.8 -1.2
v 1.2 0.9 -1.2
v 1.7 0.7 -1.2
v 1.7 0.8 -1.2
v 1.8 0.7 -1.2
v 1.8 0.8 -1.2
v 1.7 0.8 -1.3
v 1.7 0.9 -1.3
v 1.8 0.8 -1.3
v 1.8 0.9 -1.3
v -1.9 0.9 -1.6
v -1.9 1.1 -1.6
v -1.8 1 -1.6
v -1.8 1.1 -1.6
v -1.7 0.5 -1.6
v -1.7 0.9 -1.6
v -1.7 1 -1.6
v -1.7 1.2 -1.6
v -1.6 0.5 -1.6
v -1.6 1.2 -1.6
v -1.6 1.3 -1.6
v -1.3 0.5 -1.6
v -1.3 1.2 -1.6
v -1.3 1.3 -1.6
v -1.2 0.5 -1.6
v -1.2 0.8 -1.6
v -1.2 0.9 -1.6
v -1.2 1.2 -1.6
v -1.1 0.9 -1.6
v -1.1 1 -1.6
v -1 0.8 -1.6
v -1 1 -1.6
v -1.6 0.5 -1.7
v -1.6 1.2 -1.7
v -1.3 0.5 -1.7
v -1.3 1.2 -1.7
v -1.9 0.3 -1.8
v -1.9 0.5 -1.8
v -1.8 0.3 -1.8
v -1.8 0.5 -1.8
v -0.8 0.3 -1.8
v -0.8 0.5 -1.8
v -0.7 0.3 -1.8
v -0.7 0.5 -1.8
v -0.6 0.3 -1.8
v -0.6 0.5 -1.8
v -0.5 0.3 -1.8
v -0.5 0.5 -1.8
v 0.5 0.3 -1.8
v 0.5 0.5 -1.8
v 0.6 0.3 -1.8
v 0.6 0.5 -1.8
v 0.7 0.3 -1.8
v 0.7 0.6 -1.8
v 0.7 0.7 -1.8
v 0.7 0.8 -1.8
v 0.7 0.9 -1.8
v 0.8 0.3 -1.8
v 0.8 0.6 -1.8
v 0.8 0.7 -1.8
v 0.8 0.8 -1.8
v 0.8 0.9 -1.8
v 1.8 0.3 -1.8
v 1.8 0.6 -1.8
v 1.8 0.8 -1.8
v 1.8 0.9 -1.8
v 1.8 1 -1.8
v 1.8 1.5 -1.8
v 1.9 0.3 -1.8
v 1.9 0.6 -1.8
v 1.9 1 -1.8
v 1.9 1.5 -1.8
v -1.8 0.3 -1.9
v -1.8 0.5 -1.9
v -0.8 0.3 -1.9
v -0.8 0.5 -1.9
v -0.5 0.3 -1.9
v -0.5 0.5 -1.9
v 0.5 0.3 -1.9
v 0.5 0.5 -1.9
v 0.8 0.3 -1.9
v 0.8 0.6 -1.9
v 0.8 0.8 -1.9
v 0.8 0.9 -1.9
v 0.8 1 -1.9
v 0.8 1.2 -1.9
v 1 1.2 -1.9
v 1 1.4 -1.9
v 1.2 1.4 -1.9
v 1.2 1.5 -1.9
v 1.8 0.3 -1.9
v 1.8 0.6 -1.9
v 1.8 0.8 -1.9
v 1.8 0.9 -1.9
v 1.8 1 -1.9
v 1.8 1.5 -1.9
v -1.8 0.3 1.9
v -0.8 0.3 1.9
v -0.5 0.3 1.9
v 0.5 0.3 1.9
v 0.8 0.3 1.9
v 1.8 0.3 1.9
v -1.9 0.3 1.8
v -1.8 0.3 1.8
v -0.8 0.3 1.8
v -0.7 0.3 1.8
v -0.6 0.3 1.8
v -0.5 0.3 1.8
v 0.5 0.3 1.8
v 0.6 0.3 1.8
v 0.7 0.3 1.8
v 0.8 0.3 1.8
v 1.1 0.3 1.8
v 1.7 0.3 1.8
v 1.8 0.3 1.8
v 1.9 0.3 1.8
v 1 0.3 1.7
v 1.1 0.3 1.7
v 1.7 0.3 1.7
v 1.8 0.3 1.7
v 1 0.3 1.3
v 1.1 0.3 1.3
v 1.1 0.3 1.2
v 1.5 0.3 1.2
v 1.5 0.3 1.1
v 1.8 0.3 1.1
v -1.9 0.3 0.8
v -1.8 0.3 0.8
v -0.8 0.3 0.8
v -0.7 0.3 0.8
v -0.6 0.3 0.8
v -0.5 0.3 0.8
v 0.5 0.3 0.8
v 0.6 0.3 0.8
v 0.7 0.3 0.8
v 0.8 0.3 0.8
v 1.8 0.3 0.8
v 1.9 0.3 0.8
v -1.8 0.3 0.7
v -0.8 0.3 0.7
v -0.5 0.3 0.7
v 0.5 0.3 0.7
v 0.8 0.3 0.7
v 1.8 0.3 0.7
v -1.8 0.3 0.6
v -0.8 0.3 0.6
v -0.5 0.3 0.6
v 0.5 0.3 0.6
v 0.8 0.3 0.6
v 1.8 0.3 0.6
v -1.9 0.3 0.5
v -1.8 0.3 0.5
v -0.8 0.3 0.5
v -0.7 0.3 0.5
v -0.6 0.3 0.5
v -0.5 0.3 0.5
v 0.5 0.3 0.5
v 0.6 0.3 0.5
v 0.7 0.3 0.5
v 0.8 0.3 0.5
v 1.8 0.3 0.5
v 1.9 0.3 0.5
v -1.9 0.3 -0.5
v -1.8 0.3 -0.5
v -0.8 0.3 -0.5
v -0.7 0.3 -0.5
v -0.6 0.3 -0.5
v -0.5 0.3 -0.5
v 0.5 0.3 -0.5
v 0.6 0.3 -0.5
v 0.7 0.3 -0.5
v 0.8 0.3 -0.5
v 1.8 0.3 -0.5
v 1.9 0.3 -0.5
v -1.8 0.3 -0.6
v -0.8 0.3 -0.6
v -0.5 0.3 -0.6
v 0.5 0.3 -0.6
v 0.8 0.3 -0.6
v 1.8 0.3 -0.6
v -1.8 0.3 -0.7
v -0.8 0.3 -0.7
v -0.5 0.3 -0.7
v 0.5 0.3 -0.7
v 0.8 0.3 -0.7
v 1.8 0.3 -0.7
v -1.9 0.3 -0.8
v -1.8 0.3 -0.8
v -0.8 0.3 -0.8
v -0.7 0.3 -0.8
v -0.6 0.3 -0.8
v -0.5 0.3 -0.8
v 0.5 0.3 -0.8
v 0.6 0.3 -0.8
v 0.7 0.3 -0.8
v 0.8 0.3 -0.8
v 1.8 0.3 -0.8
v 1.9 0.3 -0.8
v -1.9 0.3 -1.8
v -1.8 0.3 -1.8
v -0.8 0.3 -1.8
v -0.7 0.3 -1.8
v -0.6 0.3 -1.8
v -0.5 0.3 -1.8
v 0.5 0.3 -1.8
v 0.6 0.3 -1.8
v 0.7 0.3 -1.8
v 0.8 0.3 -1.8
v 1.8 0.3 -1.8
v 1.9 0.3 -1.8
v -1.8 0.3 -1.9
v -0.8 0.3 -1.9
v -0.5 0.3 -1.9
v 0.5 0.3 -1.9
v 0.8 0.3 -1.9
v 1.8 0.3 -1.9
v -1.8 0.6 1.8
v -0.8 0.6 1.8
v -1.7 0.6 1.7
v -1.5 0.6 1.7
v -1.1 0.6 1.7
v -0.9 0.6 1.7
v -1.8 0.6 1.6
v -1.7 0.6 1.6
v -1.5 0.6 1.6
v -1.1 0.6 1.6
v -0.9 0.6 1.6
v -0.8 0.6 1.6
v -1.8 0.6 1.5
v -1.7 0.6 1.5
v -1.5 0.6 1.5
v -1.1 0.6 1.5
v -0.9 0.6 1.5
v -0.8 0.6 1.5
v -1.7 0.6 1.4
v -1.5 0.6 1.4
v -1.1 0.6 1.4
v -0.9 0.6 1.4
v -1.7 0.6 1.2
v -1.5 0.6 1.2
v -1.1 0.6 1.2
v -0.9 0.6 1.2
v -1.7 0.6 0.9
v -1.5 0.6 0.9
v -1.1 0.6 0.9
v -0.9 0.6 0.9
v -1.8 0.6 0.8
v -1.4 0.6 0.8
v -1.2 0.6 0.8
v -0.8 0.6 0.8
v -1.4 0.6 0.6
v -1.2 0.6 0.6
v -1.5 0.8 1.9
v -1.1 0.8 1.9
v -1.5 0.8 1.8
v -1.1 0.8 1.8
v 1.7 0.8 -1.2
v 1.8 0.8 -1.2
v -1.2 0.8 -1.3
v -1 0.8 -1.3
v 1.7 0.8 -1.3
v 1.8 0.8 -1.3
v -1.2 0.8 -1.6
v -1 0.8 -1.6
v 1.2 0.9 -1.1
v 1.7 0.9 -1.1
v 0.9 0.9 -1.2
v 1.2 0.9 -1.2
v 0.9 0.9 -1.3
v 1 0.9 -1.3
v 1.7 0.9 -1.3
v 1.8 0.9 -1.3
v -1.9 0.9 -1.4
v -1.7 0.9 -1.4
v -1.9 0.9 -1.6
v -1.7 0.9 -1.6
v 1 0.9 -1.6
v 1.1 0.9 -1.6
v 1.3 0.9 -1.6
v 1.5 0.9 -1.6
v 1.8 0.9 -1.6
v 1.1 0.9 -1.7
v 1.3 0.9 -1.7
v 1.6 1 -1
v 1.7 1 -1
v 1.6 1 -1.1
v 1.7 1 -1.1
v 1.1 0.4 1.8
v 1.7 0.4 1.8
v 1 0.4 1.7
v 1.1 0.4 1.7
v 1.7 0.4 1.7
v 1.8 0.4 1.7
v 1 0.4 1.3
v 1.1 0.4 1.3
v 1.1 0.4 1.2
v 1.5 0.4 1.2
v 1.5 0.4 1.1
v 1.8 0.4 1.1
v -1.8 0.5 1.9
v -0.8 0.5 1.9
v -0.5 0.5 1.9
v 0.5 0.5 1.9
v 0.8 0.5 1.9
v 1.8 0.5 1.9
v -1.9 0.5 1.8
v -1.8 0.5 1.8
v -0.8 0.5 1.8
v -0.7 0.5 1.8
v -0.6 0.5 1.8
v -0.5 0.5 1.8
v 0.5 0.5 1.8
v 0.6 0.5 1.8
v 0.7 0.5 1.8
v 0.8 0.5 1.8
v 1.1 0.5 1.8
v 1.7 0.5 1.8
v 1.8 0.5 1.8
v 1.9 0.5 1.8
v -1.7 0.5 1.7
v -1.5 0.5 1.7
v -1.1 0.5 1.7
v -0.9 0.5 1.7
v 1 0.5 1.7
v 1.1 0.5 1.7
v 1.7 0.5 1.7
v 1.8 0.5 1.7
v -1.7 0.5 1.4
v -1.5 0.5 1.4
v -1.1 0.5 1.4
v -0.9 0.5 1.4
v 1 0.5 1.3
v 1.1 0.5 1.3
v -1.7 0.5 1.2
v -1.5 0.5 1.2
v -1.1 0.5 1.2
v -0.9 0.5 1.2
v 1.1 0.5 1.2
v 1.5 0.5 1.2
v 1.5 0.5 1.1
v 1.8 0.5 1.1
v -1.7 0.5 0.9
v -1.5 0.5 0.9
v -1.1 0.5 0.9
v -0.9 0.5 0.9
v -1.9 0.5 0.8
v -1.8 0.5 0.8
v -0.8 0.5 0.8
v -0.7 0.5 0.8
v -0.6 0.5 0.8
v -0.5 0.5 0.8
v 0.5 0.5 0.8
v 0.6 0.5 0.8
v 0.7 0.5 0.8
v 0.8 0.5 0.8
v 1.8 0.5 0.8
v 1.9 0.5 0.8
v -1.8 0.5 0.7
v -0.8 0.5 0.7
v -0.5 0.5 0.7
v 0.5 0.5 0.7
v 0.8 0.5 0.7
v 1.8 0.5 0.7
v -1.8 0.5 0.6
v -0.8 0.5 0.6
v -0.5 0.5 0.6
v 0.5 0.5 0.6
v 0.8 0.5 0.6
v 1.8 0.5 0.6
v -1.9 0.5 0.5
v -1.8 0.5 0.5
v -0.8 0.5 0.5
v -0.7 0.5 0.5
v -0.6 0.5 0.5
v -0.5 0.5 0.5
v 0.5 0.5 0.5
v 0.6 0.5 0.5
v 0.7 0.5 0.5
v 0.8 0.5 0.5
v 1.8 0.5 0.5
v 1.9 0.5 0.5
v -1.9 0.5 -0.5
v -1.8 0.5 -0.5
v -0.8 0.5 -0.5
v -0.7 0.5 -0.5
v -0.6 0.5 -0.5
v -0.5 0.5 -0.5
v 0.5 0.5 -0.5
v 0.6 0.5 -0.5
v 0.7 0.5 -0.5
v 0.8 0.5 -0.5
v 1.8 0.5 -0.5
v 1.9 0.5 -0.5
v -1.8 0.5 -0.6
v -0.8 0.5 -0.6
v -0.5 0.5 -0.6
v 0.5 0.5 -0.6
v 0.8 0.5 -0.6
v 1.8 0.5 -0.6
v -1.8 0.5 -0.7
v -0.8 0.5 -0.7
v -0.5 0.5 -0.7
v 0.5 0.5 -0.7
v 0.8 0.5 -0.7
v 1 0.5 -0.7
v -1.9 0.5 -0.8
v -1.8 0.5 -0.8
v -0.8 0.5 -0.8
v -0.7 0.5 -0.8
v -0.6 0.5 -0.8
v -0.5 0.5 -0.8
v 0.5 0.5 -0.8
v 0.6 0.5 -0.8
v 0.7 0.5 -0.8
v 0.8 0.5 -0.8
v 0.9 0.5 -0.8
v 1 0.5 -0.8
v 0.7 0.5 -1
v 0.9 0.5 -1
v -1.6 0.5 -1.2
v -1.3 0.5 -1.2
v -1.7 0.5 -1.3
v -1.6 0.5 -1.3
v -1.3 0.5 -1.3
v -1.2 0.5 -1.3
v -1.7 0.5 -1.6
v -1.6 0.5 -1.6
v -1.3 0.5 -1.6
v -1.2 0.5 -1.6
v -1.6 0.5 -1.7
v -1.3 0.5 -1.7
v -1.9 0.5 -1.8
v -1.8 0.5 -1.8
v -0.8 0.5 -1.8
v -0.7 0.5 -1.8
v -0.6 0.5 -1.8
v -0.5 0.5 -1.8
v 0.5 0.5 -1.8
v 0.6 0.5 -1.8
v -1.8 0.5 -1.9
v -0.8 0.5 -1.9
v -0.5 0.5 -1.9
v 0.5 0.5 -1.9
v 1.7 0.7 -1.2
v 1.8 0.7 -1.2
v 1.7 0.7 -1.3
v 1.8 0.7 -1.3
v 1 0.8 -0.7
v 1.1 0.8 -0.7
v 1 0.8 -0.8
v 1.1 0.8 -0.8
v 1.2 0.8 -1.1
v 1.5 0.8 -1.1
v 1.7 0.8 -1.1
v 0.9 0.8 -1.2
v 1.2 0.8 -1.2
v 0.9 0.8 -1.3
v 1 0.8 -1.3
v 1.7 0.8 -1.3
v 1.8 0.8 -1.3
v 1 0.8 -1.6
v 1.1 0.8 -1.6
v 1.3 0.8 -1.6
v 1.5 0.8 -1.6
v 1.8 0.8 -1.6
v 1.1 0.8 -1.7
v 1.3 0.8 -1.7
v 0.7 0.9 -1
v 0.8 0.9 -1
v 1.6 0.9 -1
v 1.7 0.9 -1
v 1.6 0.9 -1.1
v 1.7 0.9 -1.1
v -1.2 0.9 -1.3
v -1.1 0.9 -1.3
v -1.2 0.9 -1.6
v -1.1 0.9 -1.6
v 0.7 0.9 -1.8
v 0.8 0.9 -1.8
v -1.5 1 1.9
v -1.4 1 1.9
v -1.2 1 1.9
v -1.1 1 1.9
v -1.5 1 1.8
v -1.4 1 1.8
v -1.2 1 1.8
v -1.1 1 1.8
v -1.4 1 0.8
v -1.2 1 0.8
v -1.4 1 0.6
v -1.2 1 0.6
v -1.1 1 -1.3
v -1 1 -1.3
v -1.8 1 -1.4
v -1.7 1 -1.4
v -1.8 1 -1.6
v -1.7 1 -1.6
v -1.1 1 -1.6
v -1 1 -1.6
v 1.1 1.1 -0.7
v 1.8 1.1 -0.7
v 1.1 1.1 -0.8
v 1.8 1.1 -0.8
v -1.9 1.1 -1.4
v -1.8 1.1 -1.4
v -1.9 1.1 -1.6
v -1.8 1.1 -1.6
v 0.9 1.2 -0.8
v 1.9 1.2 -0.8
v 0.8 1.2 -1
v 0.9 1.2 -1
v 1.2 1.2 -1
v 1.9 1.2 -1
v -1.6 1.2 -1.2
v -1.3 1.2 -1.2
v 1 1.2 -1.2
v 1.2 1.2 -1.2
v -1.7 1.2 -1.3
v -1.6 1.2 -1.3
v -1.3 1.2 -1.3
v -1.2 1.2 -1.3
v -1.7 1.2 -1.6
v -1.6 1.2 -1.6
v -1.3 1.2 -1.6
v -1.2 1.2 -1.6
v -1.6 1.2 -1.7
v -1.3 1.2 -1.7
v 0.8 1.2 -1.9
v 1 1.2 -1.9
v -1.6 1.3 -1.3
v -1.3 1.3 -1.3
v -1.6 1.3 -1.6
v -1.3 1.3 -1.6
v 1.2 1.4 -1
v 1.9 1.4 -1
v 1 1.4 -1.2
v 1.2 1.4 -1.2
v 1.4 1.4 -1.2
v 1.9 1.4 -1.2
v 1.2 1.4 -1.4
v 1.4 1.4 -1.4
v 1 1.4 -1.9
v 1.2 1.4 -1.9
v -1.5 1.5 1.8
v -1.1 1.5 1.8
v -1.8 1.5 1.6
v -1.5 1.5 1.6
v -1.1 1.5 1.6
v -0.8 1.5 1.6
v -1.8 1.5 1.5
v -0.8 1.5 1.5
v -1.8 1.5 0.8
v -0.8 1.5 0.8
v 1.4 1.5 -1.2
v 1.9 1.5 -1.2
v 1.2 1.5 -1.4
v 1.4 1.5 -1.4
v 1.8 1.5 -1.8
v 1.9 1.5 -1.8
v 1.2 1.5 -1.9
v 1.8 1.5 -1.9
v -1.8 1.7 1.8
v -1.7 1.7 1.8
v -1.6 1.7 1.8
v -1.5 1.7 1.8
v -1.1 1.7 1.8
v -1 1.7 1.8
v -0.9 1.7 1.8
v -0.8 1.7 1.8
v -1.8 1.7 1.6
v -1.7 1.7 1.6
v -1.6 1.7 1.6
v -1.5 1.7 1.6
v -1.1 1.7 1.6
v -1 1.7 1.6
v -0.9 1.7 1.6
v -0.8 1.7 1.6
v -1.7 1.8 1.8
v -1.6 1.8 1.8
v -1 1.8 1.8
v -0.9 1.8 1.8
v -1.7 1.8 1.6
v -1.6 1.8 1.6
v -1 1.8 1.6
v -0.9 1.8 1.6

# faces
f 7/5/1 2/5/1 1/5/1
f 8/5/1 2/5/1 7/5/1
f 9/5/1 4/5/1 3/5/1
f 10/5/1 4/5/1 9/5/1
f 11/5/1 6/5/1 5/5/1
f 12/5/1 6/5/1 11/5/1
f 15/8/1 14/8/1 13/8/1
f 16/8/1 14/8/1 15/8/1
f 29/5/1 18/5/1 17/5/1
f 30/5/1 18/5/1 29/5/1
f 31/5/1 20/5/1 19/5/1
f 32/5/1 20/5/1 31/5/1
f 33/5/1 22/5/1 21/5/1
f 34/5/1 22/5/1 33/5/1
f 35/5/1 24/5/1 23/5/1
f 36/5/1 24/5/1 35/5/1
f 37/5/1 26/5/1 25/5/1
f 38/5/1 26/5/1 37/5/1
f 39/5/1 28/5/1 27/5/1
f 40/5/1 28/5/1 39/5/1
f 45/4/1 42/4/1 41/4/1
f 46/4/1 42/4/1 45/4/1
f 47/3/1 46/3/1 45/3/1
f 48/4/1 42/4/1 46/4/1
f 48/3/1 46/3/1 47/3/1
f 49/7/1 43/7/1 42/7/1
f 49/4/1 42/4/1 48/4/1
f 49/4/1 48/4/1 47/4/1
f 50/4/1 44/4/1 43/4/1
f 50/7/1 43/7/1 49/7/1
f 51/4/1 44/4/1 50/4/1
f 52/4/1 49/4/1 47/4/1
f 53/4/1 49/4/1 52/4/1
f 60/4/1 55/4/1 54/4/1
f 61/4/1 55/4/1 60/4/1
f 62/4/1 55/4/1 61/4/1
f 63/4/1 55/4/1 62/4/1
f 64/4/1 57/4/1 56/4/1
f 65/4/1 57/4/1 64/4/1
f 66/8/1 59/8/1 58/8/1
f 67/8/1 59/8/1 66/8/1
f 68/8/1 66/8/1 58/8/1
f 70/8/1 68/8/1 58/8/1
f 70/8/1 69/8/1 68/8/1
f 71/8/1 69/8/1 70/8/1
f 74/4/1 73/4/1 72/4/1
f 75/4/1 73/4/1 74/4/1
f 80/8/1 77/8/1 76/8/1
f 81/8/1 77/8/1 80/8/1
f 82/8/1 79/8/1 78/8/1
f 83/8/1 79/8/1 82/8/1
f 84/8/1 82/8/1 81/8/1
f 85/8/1 82/8/1 84/8/1
f 88/9/1 87/9/1 86/9/1
f 89/9/1 88/9/1 86/9/1
f 90/9/1 88/9/1 89/9/1
f 93/11/1 92/11/1 91/11/1
f 94/11/1 92/11/1 93/11/1
f 95/4/1 94/4/1 93/4/1
f 96/4/1 94/4/1 95/4/1
f 101/4/1 98/4/1 97/4/1
f 102/4/1 98/4/1 101/4/1
f 103/4/1 98/4/1 102/4/1
f 104/4/1 98/4/1 103/4/1
f 105/4/1 100/4/1 99/4/1
f 106/4/1 100/4/1 105/4/1
f 109/8/1 108/8/1 107/8/1
f 110/8/1 108/8/1 109/8/1
f 113/4/1 112/4/1 111/4/1
f 114/4/1 112/4/1 113/4/1
f 117/4/1 116/4/1 115/4/1
f 118/4/1 116/4/1 117/4/1
f 125/5/1 120/5/1 119/5/1
f 126/5/1 120/5/1 125/5/1
f 127/5/1 122/5/1 121/5/1
f 128/5/1 122/5/1 127/5/1
f 129/5/1 124/5/1 123/5/1
f 130/5/1 124/5/1 129/5/1
f 143/5/1 132/5/1 131/5/1
f 144/5/1 132/5/1 143/5/1
f 145/5/1 134/5/1 133/5/1
f 146/5/1 134/5/1 145/5/1
f 147/5/1 136/5/1 135/5/1
f 148/5/1 136/5/1 147/5/1
f 149/5/1 138/5/1 137/5/1
f 150/5/1 138/5/1 149/5/1
f 151/5/1 140/5/1 139/5/1
f 152/5/1 140/5/1 151/5/1
f 153/5/1 142/5/1 141/5/1
f 154/5/1 142/5/1 153/5/1
f 161/5/1 156/5/1 155/5/1
f 162/5/1 156/5/1 161/5/1
f 163/5/1 158/5/1 157/5/1
f 164/5/1 158/5/1 163/5/1
f 165/5/1 160/5/1 159/5/1
f 166/5/1 160/5/1 165/5/1
f 167/5/1 160/5/1 166/5/1
f 168/5/1 160/5/1 167/5/1
f 169/4/1 168/4/1 167/4/1
f 170/4/1 168/4/1 169/4/1
f 171/4/1 168/4/1 170/4/1
f 172/4/1 168/4/1 171/4/1
f 173/4/1 169/4/1 167/4/1
f 174/9/1 170/9/1 169/9/1
f 174/4/1 169/4/1 173/4/1
f 175/4/1 171/4/1 170/4/1
f 175/9/1 170/9/1 174/9/1
f 176/9/1 172/9/1 171/9/1
f 176/4/1 171/4/1 175/4/1
f 177/9/1 172/9/1 176/9/1
f 178/5/1 174/5/1 173/5/1
f 178/5/1 175/5/1 174/5/1
f 178/5/1 177/5/1 176/5/1
f 178/5/1 176/5/1 175/5/1
f 179/5/1 177/5/1 178/5/1
f 192/5/1 181/5/1 180/5/1
f 193/5/1 181/5/1 192/5/1
f 194/5/1 183/5/1 182/5/1
f 195/5/1 183/5/1 194/5/1
f 196/5/1 185/5/1 184/5/1
f 197/5/1 185/5/1 196/5/1
f 198/5/1 187/5/1 186/5/1
f 199/5/1 187/5/1 198/5/1
f 200/5/1 189/5/1 188/5/1
f 201/5/1 189/5/1 200/5/1
f 202/5/1 191/5/1 190/5/1
f 203/5/1 191/5/1 202/5/1
f 204/4/1 203/4/1 202/4/1
f 205/4/1 203/4/1 204/4/1
f 206/4/1 203/4/1 205/4/1
f 208/5/1 206/5/1 205/5/1
f 209/5/1 206/5/1 208/5/1
f 210/4/1 208/4/1 207/4/1
f 210/4/1 209/4/1 208/4/1
f 211/4/1 209/4/1 210/4/1
f 212/4/1 209/4/1 211/4/1
f 213/4/1 209/4/1 212/4/1
f 214/5/1 211/5/1 210/5/1
f 214/9/1 212/9/1 211/9/1
f 215/5/1 213/5/1 212/5/1
f 215/9/1 212/9/1 214/9/1
f 216/5/1 214/5/1 210/5/1
f 216/5/1 215/5/1 214/5/1
f 217/5/1 213/5/1 215/5/1
f 217/5/1 215/5/1 216/5/1
f 220/4/1 219/4/1 218/4/1
f 221/4/1 220/4/1 218/4/1
f 222/4/1 220/4/1 221/4/1
f 223/5/1 222/5/1 221/5/1
f 224/5/1 222/5/1 223/5/1
f 225/4/1 224/4/1 223/4/1
f 226/4/1 224/4/1 225/4/1
f 227/5/1 226/5/1 225/5/1
f 228/5/1 227/5/1 225/5/1
f 229/5/1 227/5/1 228/5/1
f 232/4/1 231/4/1 230/4/1
f 233/4/1 231/4/1 232/4/1
f 234/5/1 233/5/1 232/5/1
f 235/5/1 233/5/1 234/5/1
f 238/5/1 237/5/1 236/5/1
f 239/5/1 237/5/1 238/5/1
f 242/4/1 241/4/1 240/4/1
f 243/4/1 241/4/1 242/4/1
f 244/5/1 243/5/1 242/5/1
f 245/5/1 243/5/1 244/5/1
f 248/5/1 247/5/1 246/5/1
f 249/5/1 247/5/1 248/5/1
f 252/5/1 251/5/1 250/5/1
f 253/5/1 251/5/1 252/5/1
f 256/5/1 255/5/1 254/5/1
f 257/5/1 255/5/1 256/5/1
f 260/5/1 259/5/1 258/5/1
f 261/5/1 259/5/1 260/5/1
f 264/5/1 263/5/1 262/5/1
f 265/5/1 263/5/1 264/5/1
f 269/4/1 267/4/1 266/4/1
f 270/4/1 267/4/1 269/4/1
f 271/4/1 269/4/1 268/4/1
f 272/4/1 269/4/1 271/4/1
f 275/5/1 274/5/1 273/5/1
f 276/5/1 274/5/1 275/5/1
f 279/4/1 278/4/1 277/4/1
f 280/4/1 278/4/1 279/4/1
f 282/4/1 281/4/1 280/4/1
f 283/4/1 281/4/1 282/4/1
f 284/8/2 285/8/2 286/8/2
f 286/8/2 285/8/2 287/8/2
f 288/4/2 289/4/2 290/4/2
f 290/4/2 289/4/2 291/4/2
f 292/4/2 293/4/2 296/4/2
f 296/4/2 293/4/2 297/4/2
f 297/4/2 293/4/2 298/4/2
f 298/4/2 293/4/2 299/4/2
f 294/4/2 295/4/2 300/4/2
f 300/4/2 295/4/2 301/4/2
f 302/4/2 303/4/2 304/4/2
f 304/4/2 303/4/2 305/4/2
f 306/8/2 307/8/2 310/8/2
f 310/8/2 307/8/2 311/8/2
f 308/8/2 309/8/2 312/8/2
f 312/8/2 309/8/2 313/8/2
f 311/8/2 312/8/2 314/8/2
f 314/8/2 312/8/2 315/8/2
f 318/11/2 319/11/2 320/11/2
f 320/11/2 319/11/2 321/11/2
f 316/8/2 317/8/2 322/8/2
f 322/8/2 317/8/2 323/8/2
f 320/4/2 321/4/2 326/4/2
f 326/4/2 321/4/2 327/4/2
f 324/8/2 325/8/2 328/8/2
f 328/8/2 325/8/2 329/8/2
f 330/9/2 331/9/2 332/9/2
f 330/9/2 332/9/2 333/9/2
f 333/9/2 332/9/2 334/9/2
f 335/8/2 336/8/2 337/8/2
f 337/8/2 336/8/2 338/8/2
f 339/4/2 340/4/2 343/4/2
f 343/4/2 340/4/2 344/4/2
f 344/4/2 340/4/2 345/4/2
f 345/4/2 340/4/2 346/4/2
f 341/4/2 342/4/2 347/4/2
f 347/4/2 342/4/2 348/4/2
f 349/4/2 350/4/2 351/4/2
f 351/4/2 350/4/2 352/4/2
f 353/5/2 354/5/2 365/5/2
f 365/5/2 354/5/2 366/5/2
f 355/5/2 356/5/2 367/5/2
f 367/5/2 356/5/2 368/5/2
f 357/5/2 358/5/2 369/5/2
f 369/5/2 358/5/2 370/5/2
f 359/5/2 360/5/2 371/5/2
f 371/5/2 360/5/2 372/5/2
f 361/5/2 362/5/2 373/5/2
f 373/5/2 362/5/2 374/5/2
f 363/5/2 364/5/2 375/5/2
f 375/5/2 364/5/2 376/5/2
f 377/4/2 378/4/2 381/4/2
f 381/4/2 378/4/2 382/4/2
f 381/3/2 382/3/2 383/3/2
f 382/4/2 378/4/2 384/4/2
f 383/3/2 382/3/2 384/3/2
f 378/7/2 379/7/2 385/7/2
f 384/4/2 378/4/2 385/4/2
f 383/4/2 384/4/2 385/4/2
f 379/4/2 380/4/2 386/4/2
f 385/7/2 379/7/2 386/7/2
f 386/4/2 380/4/2 387/4/2
f 383/4/2 385/4/2 388/4/2
f 388/4/2 385/4/2 389/4/2
f 390/5/2 391/5/2 396/5/2
f 396/5/2 391/5/2 397/5/2
f 392/5/2 393/5/2 398/5/2
f 398/5/2 393/5/2 399/5/2
f 394/5/2 395/5/2 400/5/2
f 400/5/2 395/5/2 401/5/2
f 402/5/2 403/5/2 414/5/2
f 414/5/2 403/5/2 415/5/2
f 404/5/2 405/5/2 416/5/2
f 416/5/2 405/5/2 417/5/2
f 406/5/2 407/5/2 418/5/2
f 418/5/2 407/5/2 419/5/2
f 408/5/2 409/5/2 420/5/2
f 420/5/2 409/5/2 421/5/2
f 410/5/2 411/5/2 422/5/2
f 422/5/2 411/5/2 423/5/2
f 412/5/2 413/5/2 424/5/2
f 424/5/2 413/5/2 425/5/2
f 426/5/2 427/5/2 432/5/2
f 432/5/2 427/5/2 433/5/2
f 428/5/2 429/5/2 434/5/2
f 434/5/2 429/5/2 435/5/2
f 430/5/2 431/5/2 436/5/2
f 436/5/2 431/5/2 437/5/2
f 438/5/2 439/5/2 440/5/2
f 440/5/2 439/5/2 441/5/2
f 442/5/2 443/5/2 444/5/2
f 444/5/2 443/5/2 445/5/2
f 446/5/2 447/5/2 448/5/2
f 448/5/2 447/5/2 449/5/2
f 450/5/2 451/5/2 454/5/2
f 454/5/2 451/5/2 455/5/2
f 452/5/2 453/5/2 456/5/2
f 456/5/2 453/5/2 457/5/2
f 458/5/2 459/5/2 460/5/2
f 460/5/2 459/5/2 461/5/2
f 462/4/2 463/4/2 464/4/2
f 464/4/2 463/4/2 465/4/2
f 466/5/2 467/5/2 468/5/2
f 468/5/2 467/5/2 469/5/2
f 470/5/2 471/5/2 472/5/2
f 472/5/2 471/5/2 473/5/2
f 474/4/2 475/4/2 476/4/2
f 476/4/2 475/4/2 477/4/2
f 478/5/2 479/5/2 490/5/2
f 490/5/2 479/5/2 491/5/2
f 480/5/2 481/5/2 492/5/2
f 492/5/2 481/5/2 493/5/2
f 482/5/2 483/5/2 494/5/2
f 494/5/2 483/5/2 495/5/2
f 484/5/2 485/5/2 496/5/2
f 496/5/2 485/5/2 497/5/2
f 486/5/2 487/5/2 498/5/2
f 498/5/2 487/5/2 499/5/2
f 488/5/2 489/5/2 500/5/2
f 500/5/2 489/5/2 501/5/2
f 498/4/2 499/4/2 502/4/2
f 502/4/2 499/4/2 503/4/2
f 502/5/2 503/5/2 504/5/2
f 504/5/2 503/5/2 505/5/2
f 500/4/2 501/4/2 506/4/2
f 506/4/2 501/4/2 507/4/2
f 504/4/2 505/4/2 508/4/2
f 508/4/2 505/4/2 509/4/2
f 506/5/2 507/5/2 510/5/2
f 510/5/2 507/5/2 511/5/2
f 510/4/2 511/4/2 512/4/2
f 512/4/2 511/4/2 513/4/2
f 508/5/2 509/5/2 514/5/2
f 514/5/2 509/5/2 515/5/2
f 512/5/2 513/5/2 516/5/2
f 516/5/2 513/5/2 517/5/2
f 518/5/2 519/5/2 524/5/2
f 524/5/2 519/5/2 525/5/2
f 520/5/2 521/5/2 526/5/2
f 526/5/2 521/5/2 527/5/2
f 522/5/2 523/5/2 528/5/2
f 528/5/2 523/5/2 529/5/2
f 529/5/2 523/5/2 530/5/2
f 528/4/2 529/4/2 530/4/2
f 530/5/2 523/5/2 531/5/2
f 528/4/2 530/4/2 532/4/2
f 530/4/2 531/4/2 532/4/2
f 532/4/2 531/4/2 533/4/2
f 532/5/2 533/5/2 534/5/2
f 533/4/2 531/4/2 535/4/2
f 534/5/2 533/5/2 535/5/2
f 534/4/2 535/4/2 536/4/2
f 535/4/2 531/4/2 537/4/2
f 536/4/2 535/4/2 537/4/2
f 536/5/2 537/5/2 538/5/2
f 537/4/2 531/4/2 538/4/2
f 538/4/2 531/4/2 539/4/2
f 536/5/2 538/5/2 540/5/2
f 538/5/2 539/5/2 540/5/2
f 540/5/2 539/5/2 541/5/2
f 541/5/2 539/5/2 542/5/2
f 542/5/2 539/5/2 543/5/2
f 543/5/2 539/5/2 544/5/2
f 544/5/2 539/5/2 545/5/2
f 550/9/3 549/9/3 548/9/3
f 551/9/3 549/9/3 550/9/3
f 552/9/3 550/9/3 548/9/3
f 552/11/3 551/11/3 550/11/3
f 553/11/3 551/11/3 552/11/3
f 554/9/3 552/9/3 548/9/3
f 554/9/3 553/9/3 552/9/3
f 555/9/3 553/9/3 554/9/3
f 556/5/3 547/5/3 546/5/3
f 557/5/3 547/5/3 556/5/3
f 560/5/3 559/5/3 558/5/3
f 561/5/3 559/5/3 560/5/3
f 564/5/3 563/5/3 562/5/3
f 565/5/3 563/5/3 564/5/3
f 568/5/3 567/5/3 566/5/3
f 569/5/3 567/5/3 568/5/3
f 574/4/3 573/4/3 572/4/3
f 575/4/3 573/4/3 574/4/3
f 577/3/3 572/3/3 571/3/3
f 578/4/3 574/4/3 572/4/3
f 578/3/3 572/3/3 577/3/3
f 579/4/3 574/4/3 578/4/3
f 580/9/3 575/9/3 574/9/3
f 580/4/3 574/4/3 579/4/3
f 581/4/3 576/4/3 575/4/3
f 581/9/3 575/9/3 580/9/3
f 582/4/3 576/4/3 581/4/3
f 583/4/3 571/4/3 570/4/3
f 584/3/3 577/3/3 571/3/3
f 584/4/3 571/4/3 583/4/3
f 585/11/3 579/11/3 578/11/3
f 585/3/3 577/3/3 584/3/3
f 585/11/3 578/11/3 577/11/3
f 586/4/3 580/4/3 579/4/3
f 586/11/3 579/11/3 585/11/3
f 586/4/3 581/4/3 580/4/3
f 587/4/3 581/4/3 586/4/3
f 588/4/3 581/4/3 587/4/3
f 589/4/3 587/4/3 586/4/3
f 589/4/3 586/4/3 585/4/3
f 590/4/3 587/4/3 589/4/3
f 591/4/3 583/4/3 570/4/3
f 593/4/3 587/4/3 590/4/3
f 594/4/3 587/4/3 593/4/3
f 595/4/3 587/4/3 594/4/3
f 597/3/3 593/3/3 592/3/3
f 597/11/3 594/11/3 593/11/3
f 598/11/3 594/11/3 597/11/3
f 599/4/3 596/4/3 595/4/3
f 599/11/3 594/11/3 598/11/3
f 599/4/3 595/4/3 594/4/3
f 600/4/3 596/4/3 599/4/3
f 601/4/3 596/4/3 600/4/3
f 603/9/3 601/9/3 600/9/3
f 603/4/3 599/4/3 598/4/3
f 603/4/3 600/4/3 599/4/3
f 604/4/3 602/4/3 601/4/3
f 604/9/3 601/9/3 603/9/3
f 605/4/3 602/4/3 604/4/3
f 608/4/3 592/4/3 591/4/3
f 608/4/3 591/4/3 570/4/3
f 609/3/3 598/3/3 597/3/3
f 609/4/3 592/4/3 608/4/3
f 609/3/3 597/3/3 592/3/3
f 610/4/3 603/4/3 598/4/3
f 610/3/3 598/3/3 609/3/3
f 610/4/3 604/4/3 603/4/3
f 611/4/3 604/4/3 610/4/3
f 612/5/3 607/5/3 606/5/3
f 613/5/3 607/5/3 612/5/3
f 616/5/3 615/5/3 614/5/3
f 617/5/3 615/5/3 616/5/3
f 620/5/3 619/5/3 618/5/3
f 621/5/3 619/5/3 620/5/3
f 624/5/3 623/5/3 622/5/3
f 625/5/3 623/5/3 624/5/3
f 628/5/3 627/5/3 626/5/3
f 629/5/3 627/5/3 628/5/3
f 632/4/3 631/4/3 630/4/3
f 633/4/3 631/4/3 632/4/3
f 636/4/3 635/4/3 634/4/3
f 637/4/3 635/4/3 636/4/3
f 640/5/3 639/5/3 638/5/3
f 641/5/3 639/5/3 640/5/3
f 644/4/3 643/4/3 642/4/3
f 645/4/3 643/4/3 644/4/3
f 648/4/3 647/4/3 646/4/3
f 649/4/3 647/4/3 648/4/3
f 652/5/3 651/5/3 650/5/3
f 653/5/3 651/5/3 652/5/3
f 656/5/3 655/5/3 654/5/3
f 657/5/3 655/5/3 656/5/3
f 660/5/3 659/5/3 658/5/3
f 661/5/3 659/5/3 660/5/3
f 664/5/3 663/5/3 662/5/3
f 665/5/3 663/5/3 664/5/3
f 668/5/3 667/5/3 666/5/3
f 669/5/3 667/5/3 668/5/3
f 672/5/3 671/5/3 670/5/3
f 673/5/3 671/5/3 672/5/3
f 676/5/3 675/5/3 674/5/3
f 677/5/3 675/5/3 676/5/3
f 680/5/3 679/5/3 678/5/3
f 681/5/3 679/5/3 680/5/3
f 684/5/3 683/5/3 682/5/3
f 685/5/3 683/5/3 684/5/3
f 688/5/3 687/5/3 686/5/3
f 689/5/3 687/5/3 688/5/3
f 692/5/3 691/5/3 690/5/3
f 693/5/3 691/5/3 692/5/3
f 696/5/3 695/5/3 694/5/3
f 697/5/3 695/5/3 696/5/3
f 700/5/3 699/5/3 698/5/3
f 701/5/3 699/5/3 700/5/3
f 704/5/3 703/5/3 702/5/3
f 707/5/3 706/5/3 705/5/3
f 710/4/3 705/4/3 704/4/3
f 711/5/3 707/5/3 705/5/3
f 711/4/3 705/4/3 710/4/3
f 712/4/3 710/4/3 704/4/3
f 712/9/3 711/9/3 710/9/3
f 713/5/3 707/5/3 711/5/3
f 713/9/3 711/9/3 712/9/3
f 714/4/3 708/4/3 707/4/3
f 714/5/3 707/5/3 713/5/3
f 715/5/3 709/5/3 708/5/3
f 715/4/3 708/4/3 714/4/3
f 716/5/3 714/5/3 713/5/3
f 716/9/3 715/9/3 714/9/3
f 717/5/3 709/5/3 715/5/3
f 717/9/3 715/9/3 716/9/3
f 718/5/3 704/5/3 702/5/3
f 719/4/3 712/4/3 704/4/3
f 719/5/3 704/5/3 718/5/3
f 719/4/3 713/4/3 712/4/3
f 720/5/3 716/5/3 713/5/3
f 720/4/3 713/4/3 719/4/3
f 721/4/3 717/4/3 716/4/3
f 721/5/3 716/5/3 720/5/3
f 722/5/3 709/5/3 717/5/3
f 722/4/3 717/4/3 721/4/3
f 723/5/3 709/5/3 722/5/3
f 726/5/3 725/5/3 724/5/3
f 727/5/3 725/5/3 726/5/3
f 730/5/3 729/5/3 728/5/3
f 731/5/3 729/5/3 730/5/3
f 734/5/3 733/5/3 732/5/3
f 735/5/3 733/5/3 734/5/3
f 738/5/3 737/5/3 736/5/3
f 739/5/3 737/5/3 738/5/3
f 742/5/3 741/5/3 740/5/3
f 743/5/3 741/5/3 742/5/3
f 749/4/3 745/4/3 744/4/3
f 750/5/3 746/5/3 745/5/3
f 750/4/3 745/4/3 749/4/3
f 751/4/3 747/4/3 746/4/3
f 751/5/3 746/5/3 750/5/3
f 752/4/3 747/4/3 751/4/3
f 753/5/3 748/5/3 747/5/3
f 753/4/3 747/4/3 752/4/3
f 754/5/3 748/5/3 753/5/3
f 760/5/3 748/5/3 754/5/3
f 761/5/3 756/5/3 755/5/3
f 762/4/3 757/4/3 756/4/3
f 762/5/3 756/5/3 761/5/3
f 763/5/3 758/5/3 757/5/3
f 763/4/3 757/4/3 762/4/3
f 764/4/3 759/4/3 758/4/3
f 764/5/3 758/5/3 763/5/3
f 765/5/3 760/5/3 759/5/3
f 765/4/3 759/4/3 764/4/3
f 766/5/3 748/5/3 760/5/3
f 766/5/3 760/5/3 765/5/3
f 771/5/3 770/5/3 769/5/3
f 774/5/3 768/5/3 767/5/3
f 775/4/3 769/4/3 768/4/3
f 775/5/3 768/5/3 774/5/3
f 776/4/3 769/4/3 775/4/3
f 777/5/3 771/5/3 769/5/3
f 777/4/3 769/4/3 776/4/3
f 778/4/3 772/4/3 771/4/3
f 778/5/3 771/5/3 777/5/3
f 779/5/3 773/5/3 772/5/3
f 779/4/3 772/4/3 778/4/3
f 780/5/3 773/5/3 779/5/3
f 783/5/3 782/5/3 781/5/3
f 784/5/3 782/5/3 783/5/3
f 787/4/3 786/4/3 785/4/3
f 788/4/3 786/4/3 787/4/3
f 791/8/3 790/8/3 789/8/3
f 792/8/3 790/8/3 791/8/3
f 795/5/3 794/5/3 793/5/3
f 796/5/3 794/5/3 795/5/3
f 799/5/3 798/5/3 797/5/3
f 800/5/3 798/5/3 799/5/3
f 803/8/3 802/8/3 801/8/3
f 804/8/3 802/8/3 803/8/3
f 807/8/3 805/8/3 804/8/3
f 808/8/3 805/8/3 807/8/3
f 809/8/3 807/8/3 806/8/3
f 810/8/3 807/8/3 809/8/3
f 811/8/3 807/8/3 810/8/3
f 812/8/3 807/8/3 811/8/3
f 813/8/3 811/8/3 810/8/3
f 815/8/3 813/8/3 810/8/3
f 815/8/3 814/8/3 813/8/3
f 816/8/3 814/8/3 815/8/3
f 819/5/3 818/5/3 817/5/3
f 820/5/3 818/5/3 819/5/3
f 823/4/3 822/4/3 821/4/3
f 824/4/3 822/4/3 823/4/3
f 827/8/3 826/8/3 825/8/3
f 828/8/3 826/8/3 827/8/3
f 829/8/3 827/8/3 825/8/3
f 830/8/3 827/8/3 829/8/3
f 833/5/3 832/5/3 831/5/3
f 834/5/3 832/5/3 833/5/3
f 837/5/3 836/5/3 835/5/3
f 838/5/3 836/5/3 837/5/3
f 841/5/3 840/5/3 839/5/3
f 842/5/3 840/5/3 841/5/3
f 843/4/3 842/4/3 841/4/3
f 844/4/3 842/4/3 843/4/3
f 847/5/3 846/5/3 845/5/3
f 848/5/3 846/5/3 847/5/3
f 849/5/4 850/5/4 851/5/4
f 851/5/4 850/5/4 852/5/4
f 853/5/4 854/5/4 855/5/4
f 855/5/4 854/5/4 856/5/4
f 857/5/4 858/5/4 859/5/4
f 859/5/4 858/5/4 860/5/4
f 861/4/4 862/4/4 863/4/4
f 861/4/4 863/4/4 865/4/4
f 863/4/4 864/4/4 865/4/4
f 865/4/4 864/4/4 866/4/4
f 861/4/4 865/4/4 867/4/4
f 867/4/4 865/4/4 868/4/4
f 869/4/4 870/4/4 871/4/4
f 869/4/4 871/4/4 873/4/4
f 871/4/4 872/4/4 873/4/4
f 873/4/4 872/4/4 874/4/4
f 869/4/4 873/4/4 875/4/4
f 875/4/4 873/4/4 876/4/4
f 877/4/4 878/4/4 879/4/4
f 879/4/4 878/4/4 880/4/4
f 881/4/4 882/4/4 883/4/4
f 883/4/4 882/4/4 884/4/4
f 885/4/4 886/4/4 887/4/4
f 887/4/4 886/4/4 888/4/4
f 889/4/4 890/4/4 891/4/4
f 891/4/4 890/4/4 892/4/4
f 893/5/4 894/5/4 895/5/4
f 895/5/4 894/5/4 896/5/4
f 897/4/4 898/4/4 899/4/4
f 899/4/4 898/4/4 900/4/4
f 900/4/4 898/4/4 901/4/4
f 901/4/4 898/4/4 904/4/4
f 902/4/4 903/4/4 907/4/4
f 903/4/4 904/4/4 907/4/4
f 904/4/4 898/4/4 908/4/4
f 907/4/4 904/4/4 908/4/4
f 905/5/4 906/5/4 909/5/4
f 909/5/4 906/5/4 910/5/4
f 911/5/4 912/5/4 913/5/4
f 913/5/4 912/5/4 914/5/4
f 915/5/4 916/5/4 917/5/4
f 917/5/4 916/5/4 918/5/4
f 919/5/4 920/5/4 921/5/4
f 921/5/4 920/5/4 922/5/4
f 923/5/4 924/5/4 925/5/4
f 925/5/4 924/5/4 926/5/4
f 927/5/4 928/5/4 929/5/4
f 929/5/4 928/5/4 930/5/4
f 931/5/4 932/5/4 933/5/4
f 933/5/4 932/5/4 934/5/4
f 935/5/4 936/5/4 937/5/4
f 937/5/4 936/5/4 938/5/4
f 939/11/4 940/11/4 942/11/4
f 940/4/4 941/4/4 943/4/4
f 942/11/4 940/11/4 943/11/4
f 943/4/4 941/4/4 944/4/4
f 945/5/4 946/5/4 947/5/4
f 947/5/4 946/5/4 948/5/4
f 949/5/4 950/5/4 951/5/4
f 951/5/4 950/5/4 952/5/4
f 953/5/4 954/5/4 955/5/4
f 955/5/4 954/5/4 956/5/4
f 957/5/4 958/5/4 959/5/4
f 959/5/4 958/5/4 960/5/4
f 961/5/4 962/5/4 963/5/4
f 963/5/4 962/5/4 964/5/4
f 965/5/4 966/5/4 967/5/4
f 967/5/4 966/5/4 968/5/4
f 969/5/4 970/5/4 971/5/4
f 971/5/4 970/5/4 972/5/4
f 973/5/4 974/5/4 975/5/4
f 975/5/4 974/5/4 976/5/4
f 977/5/4 978/5/4 979/5/4
f 979/5/4 978/5/4 980/5/4
f 981/4/4 982/4/4 983/4/4
f 983/4/4 982/4/4 984/4/4
f 985/4/4 986/4/4 987/4/4
f 987/4/4 986/4/4 988/4/4
f 988/4/4 986/4/4 989/4/4
f 990/4/4 991/4/4 992/4/4
f 992/4/4 991/4/4 993/4/4
f 994/4/4 995/4/4 996/4/4
f 996/4/4 995/4/4 997/4/4
f 998/4/4 999/4/4 1000/4/4
f 1000/4/4 999/4/4 1001/4/4
f 1002/8/4 1003/8/4 1004/8/4
f 1004/8/4 1003/8/4 1005/8/4
f 1002/8/4 1004/8/4 1007/8/4
f 1007/8/4 1004/8/4 1008/8/4
f 1007/8/4 1008/8/4 1010/8/4
f 1008/8/4 1009/8/4 1010/8/4
f 1006/8/4 1007/8/4 1010/8/4
f 1010/8/4 1009/8/4 1011/8/4
f 1011/8/4 1012/8/4 1014/8/4
f 1014/8/4 1012/8/4 1015/8/4
f 1013/8/4 1014/8/4 1016/8/4
f 1016/8/4 1014/8/4 1017/8/4
f 1017/8/4 1014/8/4 1018/8/4
f 1018/8/4 1014/8/4 1019/8/4
f 1017/8/4 1018/8/4 1020/8/4
f 1017/8/4 1020/8/4 1022/8/4
f 1020/8/4 1021/8/4 1022/8/4
f 1022/8/4 1021/8/4 1023/8/4
f 1024/8/4 1025/8/4 1026/8/4
f 1026/8/4 1025/8/4 1027/8/4
f 1028/5/4 1029/5/4 1030/5/4
f 1030/5/4 1029/5/4 1031/5/4
f 1032/5/4 1033/5/4 1034/5/4
f 1034/5/4 1033/5/4 1035/5/4
f 1036/5/4 1037/5/4 1038/5/4
f 1038/5/4 1037/5/4 1039/5/4
f 1040/5/4 1041/5/4 1042/5/4
f 1042/5/4 1041/5/4 1043/5/4
f 1044/5/4 1045/5/4 1049/5/4
f 1045/4/4 1046/4/4 1050/4/4
f 1049/5/4 1045/5/4 1050/5/4
f 1046/9/4 1047/9/4 1051/9/4
f 1050/4/4 1046/4/4 1051/4/4
f 1047/5/4 1048/5/4 1052/5/4
f 1051/9/4 1047/9/4 1052/9/4
f 1052/5/4 1048/5/4 1053/5/4
f 1054/5/4 1055/5/4 1060/5/4
f 1056/4/4 1057/4/4 1061/4/4
f 1060/5/4 1055/5/4 1061/5/4
f 1055/4/4 1056/4/4 1061/4/4
f 1057/4/4 1058/4/4 1061/4/4
f 1058/5/4 1059/5/4 1062/5/4
f 1061/4/4 1058/4/4 1062/4/4
f 1062/5/4 1059/5/4 1063/5/4
f 1064/5/4 1065/5/4 1066/5/4
f 1066/5/4 1065/5/4 1067/5/4
f 1068/5/4 1069/5/4 1070/5/4
f 1070/5/4 1069/5/4 1071/5/4
f 1076/5/4 1077/5/4 1078/5/4
f 1078/5/4 1079/5/4 1080/5/4
f 1072/5/4 1073/5/4 1082/5/4
f 1073/4/4 1074/4/4 1083/4/4
f 1082/5/4 1073/5/4 1083/5/4
f 1074/5/4 1075/5/4 1084/5/4
f 1083/4/4 1074/4/4 1084/4/4
f 1075/4/4 1076/4/4 1085/4/4
f 1084/5/4 1075/5/4 1085/5/4
f 1080/5/4 1081/5/4 1086/5/4
f 1085/4/4 1076/4/4 1086/4/4
f 1076/5/4 1078/5/4 1086/5/4
f 1078/5/4 1080/5/4 1086/5/4
f 1086/5/4 1081/5/4 1087/5/4
f 1095/5/5 1089/5/5 1088/5/5
f 1096/5/5 1089/5/5 1095/5/5
f 1099/5/5 1091/5/5 1090/5/5
f 1100/5/5 1091/5/5 1099/5/5
f 1103/5/5 1093/5/5 1092/5/5
f 1104/5/5 1093/5/5 1103/5/5
f 1105/5/5 1093/5/5 1104/5/5
f 1106/5/5 1093/5/5 1105/5/5
f 1108/5/5 1103/5/5 1102/5/5
f 1108/5/5 1104/5/5 1103/5/5
f 1109/6/5 1105/6/5 1104/6/5
f 1109/5/5 1104/5/5 1108/5/5
f 1110/5/5 1107/5/5 1106/5/5
f 1110/6/5 1105/6/5 1109/6/5
f 1110/5/5 1106/5/5 1105/5/5
f 1111/5/5 1107/5/5 1110/5/5
f 1112/6/5 1109/6/5 1108/6/5
f 1112/5/5 1108/5/5 1102/5/5
f 1112/6/5 1111/6/5 1110/6/5
f 1112/6/5 1110/6/5 1109/6/5
f 1113/6/5 1111/6/5 1112/6/5
f 1114/5/5 1113/5/5 1112/5/5
f 1114/6/5 1111/6/5 1113/6/5
f 1115/6/5 1111/6/5 1114/6/5
f 1116/5/5 1115/5/5 1114/5/5
f 1116/6/5 1111/6/5 1115/6/5
f 1117/5/5 1107/5/5 1111/5/5
f 1117/6/5 1111/6/5 1116/6/5
f 1118/5/5 1097/5/5 1096/5/5
f 1118/5/5 1095/5/5 1094/5/5
f 1118/5/5 1096/5/5 1095/5/5
f 1119/5/5 1097/5/5 1118/5/5
f 1120/5/5 1097/5/5 1119/5/5
f 1121/5/5 1097/5/5 1120/5/5
f 1122/5/5 1101/5/5 1100/5/5
f 1122/5/5 1099/5/5 1098/5/5
f 1122/5/5 1100/5/5 1099/5/5
f 1123/5/5 1101/5/5 1122/5/5
f 1124/5/5 1101/5/5 1123/5/5
f 1125/5/5 1101/5/5 1124/5/5
f 1126/5/5 1117/5/5 1116/5/5
f 1126/5/5 1114/5/5 1112/5/5
f 1126/5/5 1116/5/5 1114/5/5
f 1126/5/5 1112/5/5 1102/5/5
f 1127/5/5 1117/5/5 1126/5/5
f 1128/5/5 1107/5/5 1117/5/5
f 1128/5/5 1117/5/5 1127/5/5
f 1129/5/5 1107/5/5 1128/5/5
f 1130/5/5 1120/5/5 1119/5/5
f 1131/5/5 1120/5/5 1130/5/5
f 1132/5/5 1124/5/5 1123/5/5
f 1133/5/5 1124/5/5 1132/5/5
f 1134/5/5 1128/5/5 1127/5/5
f 1135/5/5 1128/5/5 1134/5/5
f 1143/5/5 1137/5/5 1136/5/5
f 1144/5/5 1137/5/5 1143/5/5
f 1147/5/5 1139/5/5 1138/5/5
f 1148/5/5 1139/5/5 1147/5/5
f 1151/5/5 1141/5/5 1140/5/5
f 1152/5/5 1141/5/5 1151/5/5
f 1154/5/5 1145/5/5 1144/5/5
f 1154/5/5 1143/5/5 1142/5/5
f 1154/5/5 1144/5/5 1143/5/5
f 1155/5/5 1145/5/5 1154/5/5
f 1156/5/5 1145/5/5 1155/5/5
f 1157/5/5 1145/5/5 1156/5/5
f 1158/5/5 1149/5/5 1148/5/5
f 1158/5/5 1147/5/5 1146/5/5
f 1158/5/5 1148/5/5 1147/5/5
f 1159/5/5 1149/5/5 1158/5/5
f 1160/5/5 1149/5/5 1159/5/5
f 1161/5/5 1149/5/5 1160/5/5
f 1162/5/5 1152/5/5 1151/5/5
f 1162/5/5 1153/5/5 1152/5/5
f 1162/5/5 1151/5/5 1150/5/5
f 1163/5/5 1153/5/5 1162/5/5
f 1164/5/5 1153/5/5 1163/5/5
f 1165/5/5 1153/5/5 1164/5/5
f 1166/5/5 1156/5/5 1155/5/5
f 1167/5/5 1156/5/5 1166/5/5
f 1168/5/5 1160/5/5 1159/5/5
f 1169/5/5 1160/5/5 1168/5/5
f 1170/5/5 1164/5/5 1163/5/5
f 1171/5/5 1164/5/5 1170/5/5
f 1179/5/5 1173/5/5 1172/5/5
f 1180/5/5 1173/5/5 1179/5/5
f 1183/5/5 1175/5/5 1174/5/5
f 1184/5/5 1175/5/5 1183/5/5
f 1187/5/5 1177/5/5 1176/5/5
f 1188/5/5 1177/5/5 1187/5/5
f 1190/5/5 1181/5/5 1180/5/5
f 1190/5/5 1179/5/5 1178/5/5
f 1190/5/5 1180/5/5 1179/5/5
f 1191/5/5 1181/5/5 1190/5/5
f 1192/5/5 1181/5/5 1191/5/5
f 1193/5/5 1181/5/5 1192/5/5
f 1194/5/5 1185/5/5 1184/5/5
f 1194/5/5 1183/5/5 1182/5/5
f 1194/5/5 1184/5/5 1183/5/5
f 1195/5/5 1185/5/5 1194/5/5
f 1196/5/5 1185/5/5 1195/5/5
f 1197/5/5 1185/5/5 1196/5/5
f 1198/5/5 1188/5/5 1187/5/5
f 1198/5/5 1189/5/5 1188/5/5
f 1198/5/5 1187/5/5 1186/5/5
f 1199/5/5 1189/5/5 1198/5/5
f 1200/5/5 1189/5/5 1199/5/5
f 1201/5/5 1189/5/5 1200/5/5
f 1202/5/5 1192/5/5 1191/5/5
f 1203/5/5 1192/5/5 1202/5/5
f 1204/5/5 1196/5/5 1195/5/5
f 1205/5/5 1196/5/5 1204/5/5
f 1206/5/5 1200/5/5 1199/5/5
f 1207/5/5 1200/5/5 1206/5/5
f 1210/4/5 1209/4/5 1208/4/5
f 1211/4/5 1209/4/5 1210/4/5
f 1212/4/5 1209/4/5 1211/4/5
f 1213/4/5 1209/4/5 1212/4/5
f 1214/4/5 1210/4/5 1208/4/5
f 1215/4/5 1210/4/5 1214/4/5
f 1216/4/5 1212/4/5 1211/4/5
f 1217/4/5 1212/4/5 1216/4/5
f 1218/4/5 1209/4/5 1213/4/5
f 1219/4/5 1209/4/5 1218/4/5
f 1220/7/5 1215/7/5 1214/7/5
f 1221/7/5 1215/7/5 1220/7/5
f 1222/7/5 1217/7/5 1216/7/5
f 1223/7/5 1217/7/5 1222/7/5
f 1224/7/5 1219/7/5 1218/7/5
f 1225/7/5 1219/7/5 1224/7/5
f 1226/4/5 1221/4/5 1220/4/5
f 1227/4/5 1223/4/5 1222/4/5
f 1228/4/5 1223/4/5 1227/4/5
f 1229/4/5 1225/4/5 1224/4/5
f 1230/4/5 1226/4/5 1220/4/5
f 1230/4/5 1229/4/5 1228/4/5
f 1230/4/5 1228/4/5 1227/4/5
f 1230/4/5 1227/4/5 1226/4/5
f 1231/4/5 1229/4/5 1230/4/5
f 1232/4/5 1229/4/5 1231/4/5
f 1233/4/5 1225/4/5 1229/4/5
f 1233/4/5 1229/4/5 1232/4/5
f 1234/4/5 1230/4/5 1220/4/5
f 1235/4/5 1232/4/5 1231/4/5
f 1236/4/5 1232/4/5 1235/4/5
f 1237/4/5 1225/4/5 1233/4/5
f 1238/4/5 1234/4/5 1220/4/5
f 1238/4/5 1237/4/5 1236/4/5
f 1238/4/5 1236/4/5 1235/4/5
f 1238/4/5 1235/4/5 1234/4/5
f 1239/4/5 1237/4/5 1238/4/5
f 1240/4/5 1237/4/5 1239/4/5
f 1241/4/5 1225/4/5 1237/4/5
f 1241/4/5 1237/4/5 1240/4/5
f 1242/11/5 1240/11/5 1239/11/5
f 1243/11/5 1240/11/5 1242/11/5
f 1246/9/5 1245/9/5 1244/9/5
f 1247/9/5 1245/9/5 1246/9/5
f 1252/4/5 1249/4/5 1248/4/5
f 1253/4/5 1249/4/5 1252/4/5
f 1254/8/5 1251/8/5 1250/8/5
f 1255/8/5 1251/8/5 1254/8/5
f 1259/4/5 1257/4/5 1256/4/5
f 1260/4/5 1259/4/5 1258/4/5
f 1261/4/5 1259/4/5 1260/4/5
f 1262/4/5 1257/4/5 1259/4/5
f 1262/4/5 1259/4/5 1261/4/5
f 1266/8/5 1265/8/5 1264/8/5
f 1267/8/5 1265/8/5 1266/8/5
f 1268/4/5 1263/4/5 1262/4/5
f 1268/4/5 1262/4/5 1261/4/5
f 1269/4/5 1263/4/5 1268/4/5
f 1270/4/5 1263/4/5 1269/4/5
f 1271/4/5 1263/4/5 1270/4/5
f 1272/4/5 1263/4/5 1271/4/5
f 1273/4/5 1270/4/5 1269/4/5
f 1274/4/5 1270/4/5 1273/4/5
f 1277/5/5 1276/5/5 1275/5/5
f 1278/5/5 1276/5/5 1277/5/5
f 1279/6/6 1280/6/6 1282/6/6
f 1282/6/6 1280/6/6 1283/6/6
f 1281/6/6 1282/6/6 1285/6/6
f 1283/6/6 1284/6/6 1285/6/6
f 1282/6/6 1283/6/6 1285/6/6
f 1285/6/6 1284/6/6 1286/6/6
f 1286/6/6 1284/6/6 1287/6/6
f 1287/6/6 1284/6/6 1288/6/6
f 1288/6/6 1284/6/6 1289/6/6
f 1289/6/6 1284/6/6 1290/6/6
f 1291/5/6 1292/5/6 1298/5/6
f 1298/5/6 1292/5/6 1299/5/6
f 1293/5/6 1294/5/6 1302/5/6
f 1302/5/6 1294/5/6 1303/5/6
f 1295/5/6 1296/5/6 1306/5/6
f 1306/5/6 1296/5/6 1307/5/6
f 1307/5/6 1296/5/6 1308/5/6
f 1308/5/6 1296/5/6 1309/5/6
f 1299/5/6 1300/5/6 1311/5/6
f 1297/5/6 1298/5/6 1311/5/6
f 1298/5/6 1299/5/6 1311/5/6
f 1311/5/6 1300/5/6 1312/5/6
f 1312/5/6 1300/5/6 1313/5/6
f 1313/5/6 1300/5/6 1314/5/6
f 1306/5/6 1307/5/6 1315/5/6
f 1305/5/6 1306/5/6 1315/5/6
f 1315/5/6 1307/5/6 1316/5/6
f 1309/5/6 1310/5/6 1317/5/6
f 1308/5/6 1309/5/6 1317/5/6
f 1317/5/6 1310/5/6 1318/5/6
f 1297/5/6 1311/5/6 1319/5/6
f 1312/5/6 1313/5/6 1320/5/6
f 1320/5/6 1313/5/6 1321/5/6
f 1314/5/6 1300/5/6 1322/5/6
f 1305/5/6 1315/5/6 1323/5/6
f 1321/5/6 1322/5/6 1325/5/6
f 1320/5/6 1321/5/6 1325/5/6
f 1297/5/6 1319/5/6 1325/5/6
f 1319/5/6 1320/5/6 1325/5/6
f 1325/5/6 1322/5/6 1326/5/6
f 1326/5/6 1322/5/6 1327/5/6
f 1322/5/6 1300/5/6 1328/5/6
f 1327/5/6 1322/5/6 1328/5/6
f 1323/5/6 1324/5/6 1329/5/6
f 1329/5/6 1330/5/6 1331/5/6
f 1318/5/6 1310/5/6 1332/5/6
f 1297/5/6 1325/5/6 1333/5/6
f 1326/5/6 1327/5/6 1334/5/6
f 1334/5/6 1327/5/6 1335/5/6
f 1328/5/6 1300/5/6 1336/5/6
f 1334/5/6 1335/5/6 1337/5/6
f 1335/5/6 1336/5/6 1337/5/6
f 1297/5/6 1333/5/6 1337/5/6
f 1333/5/6 1334/5/6 1337/5/6
f 1337/5/6 1336/5/6 1338/5/6
f 1336/5/6 1300/5/6 1339/5/6
f 1338/5/6 1336/5/6 1339/5/6
f 1339/5/6 1300/5/6 1340/5/6
f 1303/5/6 1304/5/6 1341/5/6
f 1301/5/6 1302/5/6 1341/5/6
f 1302/5/6 1303/5/6 1341/5/6
f 1341/5/6 1304/5/6 1342/5/6
f 1342/5/6 1304/5/6 1343/5/6
f 1343/5/6 1304/5/6 1344/5/6
f 1329/5/6 1331/5/6 1345/5/6
f 1305/5/6 1323/5/6 1345/5/6
f 1331/5/6 1332/5/6 1345/5/6
f 1323/5/6 1329/5/6 1345/5/6
f 1345/5/6 1332/5/6 1346/5/6
f 1332/5/6 1310/5/6 1347/5/6
f 1346/5/6 1332/5/6 1347/5/6
f 1347/5/6 1310/5/6 1348/5/6
f 1338/5/6 1339/5/6 1349/5/6
f 1349/5/6 1339/5/6 1350/5/6
f 1342/5/6 1343/5/6 1351/5/6
f 1351/5/6 1343/5/6 1352/5/6
f 1346/5/6 1347/5/6 1353/5/6
f 1353/5/6 1347/5/6 1354/5/6
f 1355/5/6 1356/5/6 1362/5/6
f 1362/5/6 1356/5/6 1363/5/6
f 1357/5/6 1358/5/6 1366/5/6
f 1366/5/6 1358/5/6 1367/5/6
f 1359/5/6 1360/5/6 1370/5/6
f 1370/5/6 1360/5/6 1371/5/6
f 1363/5/6 1364/5/6 1373/5/6
f 1361/5/6 1362/5/6 1373/5/6
f 1362/5/6 1363/5/6 1373/5/6
f 1373/5/6 1364/5/6 1374/5/6
f 1374/5/6 1364/5/6 1375/5/6
f 1375/5/6 1364/5/6 1376/5/6
f 1367/5/6 1368/5/6 1377/5/6
f 1365/5/6 1366/5/6 1377/5/6
f 1366/5/6 1367/5/6 1377/5/6
f 1377/5/6 1368/5/6 1378/5/6
f 1378/5/6 1368/5/6 1379/5/6
f 1379/5/6 1368/5/6 1380/5/6
f 1370/5/6 1371/5/6 1381/5/6
f 1371/5/6 1372/5/6 1381/5/6
f 1369/5/6 1370/5/6 1381/5/6
f 1381/5/6 1372/5/6 1382/5/6
f 1382/5/6 1372/5/6 1383/5/6
f 1383/5/6 1372/5/6 1384/5/6
f 1374/5/6 1375/5/6 1385/5/6
f 1385/5/6 1375/5/6 1386/5/6
f 1378/5/6 1379/5/6 1387/5/6
f 1387/5/6 1379/5/6 1388/5/6
f 1382/5/6 1383/5/6 1389/5/6
f 1389/5/6 1383/5/6 1390/5/6
f 1391/5/6 1392/5/6 1398/5/6
f 1398/5/6 1392/5/6 1399/5/6
f 1393/5/6 1394/5/6 1402/5/6
f 1402/5/6 1394/5/6 1403/5/6
f 1395/5/6 1396/5/6 1406/5/6
f 1406/5/6 1396/5/6 1407/5/6
f 1407/5/6 1396/5/6 1408/5/6
f 1405/5/6 1406/5/6 1409/5/6
f 1406/5/6 1407/5/6 1409/5/6
f 1409/5/6 1407/5/6 1410/5/6
f 1399/5/6 1400/5/6 1411/5/6
f 1397/5/6 1398/5/6 1411/5/6
f 1398/5/6 1399/5/6 1411/5/6
f 1411/5/6 1400/5/6 1412/5/6
f 1397/5/6 1411/5/6 1413/5/6
f 1413/5/6 1411/5/6 1414/5/6
f 1412/5/6 1400/5/6 1415/5/6
f 1415/5/6 1400/5/6 1416/5/6
f 1397/5/6 1413/5/6 1417/5/6
f 1416/5/6 1400/5/6 1420/5/6
f 1417/5/6 1418/5/6 1421/5/6
f 1419/5/6 1420/5/6 1422/5/6
f 1417/5/6 1421/5/6 1423/5/6
f 1421/5/6 1422/5/6 1423/5/6
f 1397/5/6 1417/5/6 1423/5/6
f 1423/5/6 1422/5/6 1424/5/6
f 1422/5/6 1420/5/6 1425/5/6
f 1424/5/6 1422/5/6 1425/5/6
f 1420/5/6 1400/5/6 1425/5/6
f 1425/5/6 1400/5/6 1426/5/6
f 1403/5/6 1404/5/6 1427/5/6
f 1401/5/6 1402/5/6 1427/5/6
f 1402/5/6 1403/5/6 1427/5/6
f 1427/5/6 1404/5/6 1428/5/6
f 1428/5/6 1404/5/6 1429/5/6
f 1429/5/6 1404/5/6 1430/5/6
f 1424/5/6 1425/5/6 1431/5/6
f 1431/5/6 1425/5/6 1432/5/6
f 1428/5/6 1429/5/6 1433/5/6
f 1433/5/6 1429/5/6 1434/5/6
f 1435/4/6 1436/4/6 1437/4/6
f 1437/4/6 1436/4/6 1438/4/6
f 1439/5/6 1440/5/6 1441/5/6
f 1441/5/6 1440/5/6 1442/5/6
f 1443/5/6 1444/5/6 1447/5/6
f 1446/5/6 1447/5/6 1448/5/6
f 1448/5/6 1447/5/6 1449/5/6
f 1444/4/6 1445/4/6 1450/4/6
f 1449/5/6 1447/5/6 1452/5/6
f 1452/5/6 1447/5/6 1453/5/6
f 1447/5/6 1444/5/6 1454/5/6
f 1453/5/6 1447/5/6 1454/5/6
f 1450/4/6 1451/4/6 1455/4/6
f 1454/5/6 1444/5/6 1455/5/6
f 1444/4/6 1450/4/6 1455/4/6
f 1455/4/6 1451/4/6 1456/4/6
f 1453/5/6 1454/5/6 1457/5/6
f 1457/5/6 1454/5/6 1458/5/6
f 1461/4/6 1462/4/6 1463/4/6
f 1463/4/6 1462/4/6 1464/4/6
f 1465/8/6 1466/8/6 1467/8/6
f 1467/8/6 1466/8/6 1468/8/6
f 1459/5/6 1460/5/6 1469/5/6
f 1469/5/6 1460/5/6 1470/5/6
f 1471/9/6 1472/9/6 1475/9/6
f 1472/11/6 1473/11/6 1476/11/6
f 1475/9/6 1472/9/6 1476/9/6
f 1473/9/6 1474/9/6 1477/9/6
f 1476/11/6 1473/11/6 1477/11/6
f 1477/9/6 1474/9/6 1478/9/6
f 1479/4/6 1480/4/6 1481/4/6
f 1481/4/6 1480/4/6 1482/4/6
f 1485/8/6 1486/8/6 1487/8/6
f 1487/8/6 1486/8/6 1488/8/6
f 1483/8/6 1484/8/6 1489/8/6
f 1489/8/6 1484/8/6 1490/8/6
f 1491/5/6 1492/5/6 1493/5/6
f 1493/5/6 1492/5/6 1494/5/6
f 1495/8/6 1496/8/6 1497/8/6
f 1497/8/6 1496/8/6 1498/8/6
f 1499/5/6 1500/5/6 1502/5/6
f 1502/5/6 1500/5/6 1503/5/6
f 1503/5/6 1500/5/6 1504/5/6
f 1501/5/6 1502/5/6 1507/5/6
f 1502/5/6 1503/5/6 1507/5/6
f 1507/5/6 1503/5/6 1508/5/6
f 1505/8/6 1506/8/6 1510/8/6
f 1510/8/6 1506/8/6 1511/8/6
f 1509/8/6 1510/8/6 1513/8/6
f 1513/8/6 1510/8/6 1514/8/6
f 1511/8/6 1512/8/6 1515/8/6
f 1515/8/6 1512/8/6 1516/8/6
f 1514/8/6 1515/8/6 1517/8/6
f 1517/8/6 1515/8/6 1518/8/6
f 1501/5/6 1507/5/6 1519/5/6
f 1519/5/6 1507/5/6 1520/5/6
f 1521/8/6 1522/8/6 1523/8/6
f 1523/8/6 1522/8/6 1524/8/6
f 1525/5/6 1526/5/6 1528/5/6
f 1528/5/6 1526/5/6 1529/5/6
f 1529/5/6 1526/5/6 1530/5/6
f 1527/5/6 1528/5/6 1531/5/6
f 1528/5/6 1529/5/6 1531/5/6
f 1531/5/6 1529/5/6 1532/5/6
f 1527/5/6 1531/5/6 1533/5/6
f 1533/5/6 1531/5/6 1534/5/6
f 1535/4/6 1536/4/6 1538/4/6
f 1538/4/6 1536/4/6 1539/4/6
f 1537/7/6 1538/7/6 1541/7/6
f 1539/7/6 1540/7/6 1541/7/6
f 1538/7/6 1539/7/6 1541/7/6
f 1541/7/6 1540/7/6 1542/7/6
f 1541/4/6 1542/4/6 1543/4/6
f 1543/4/6 1542/4/6 1544/4/6
f 1545/5/6 1546/5/6 1548/5/6
f 1548/5/6 1546/5/6 1549/5/6
f 1547/5/6 1548/5/6 1549/5/6
f 1549/5/6 1546/5/6 1550/5/6
f 1547/5/6 1549/5/6 1551/5/6
f 1551/5/6 1549/5/6 1552/5/6
f 1553/4/6 1554/4/6 1561/4/6
f 1561/4/6 1554/4/6 1562/4/6
f 1555/4/6 1556/4/6 1563/4/6
f 1563/4/6 1556/4/6 1564/4/6
f 1557/4/6 1558/4/6 1565/4/6
f 1565/4/6 1558/4/6 1566/4/6
f 1559/4/6 1560/4/6 1567/4/6
f 1567/4/6 1560/4/6 1568/4/6
f 1569/4/6 1570/4/6 1573/4/6
f 1573/4/6 1570/4/6 1574/4/6
f 1571/4/6 1572/4/6 1575/4/6
f 1575/4/6 1572/4/6 1576/4/6
