# MagicaVoxel @ Ephtracy

# group
o 

# material
mtllib hard_six_tile.mtl
usemtl palette

# normals
vn -1 0 0
vn 1 0 0
vn 0 0 1
vn 0 0 -1
vn 0 -1 0
vn 0 1 0

# texcoords
vt 0.263672 0.5
vt 0.517578 0.5
vt 0.541016 0.5
vt 0.556641 0.5
vt 0.615234 0.5
vt 0.650391 0.5
vt 0.654297 0.5
vt 0.677734 0.5
vt 0.705078 0.5
vt 0.958984 0.5
vt 0.962891 0.5
vt 0.982422 0.5
vt 0.986328 0.5
vt 0.994141 0.5

# verts
v -1.9 0.3 1.8
v -1.9 0.3 0.8
v -1.9 0.3 0.5
v -1.9 0.3 -0.5
v -1.9 0.3 -0.8
v -1.9 0.3 -1.8
v -1.9 0.5 1.8
v -1.9 0.5 0.8
v -1.9 0.5 0.5
v -1.9 0.5 -0.5
v -1.9 0.5 -0.8
v -1.9 0.5 -1.8
v -1.8 0.3 1.9
v -1.8 0.3 1.8
v -1.8 0.3 0.8
v -1.8 0.3 0.7
v -1.8 0.3 0.6
v -1.8 0.3 0.5
v -1.8 0.3 -0.5
v -1.8 0.3 -0.6
v -1.8 0.3 -0.7
v -1.8 0.3 -0.8
v -1.8 0.3 -1.8
v -1.8 0.3 -1.9
v -1.8 0.5 1.9
v -1.8 0.5 1.8
v -1.8 0.5 0.8
v -1.8 0.5 0.7
v -1.8 0.5 0.6
v -1.8 0.5 0.5
v -1.8 0.5 -0.5
v -1.8 0.5 -0.6
v -1.8 0.5 -0.7
v -1.8 0.5 -0.8
v -1.8 0.5 -1.8
v -1.8 0.5 -1.9
v -1.8 0.6 1.8
v -1.8 0.6 0.7
v -1.8 0.9 1.8
v -1.8 0.9 1.7
v -1.8 1 1.8
v -1.8 1 1.7
v -1.8 1.5 1.8
v -1.8 1.5 0.7
v -1.7 0.5 1.7
v -1.7 0.5 1.4
v -1.7 0.5 1.1
v -1.7 0.5 0.8
v -1.7 0.5 -1.4
v -1.7 0.5 -1.7
v -1.7 0.6 1.7
v -1.7 0.6 1.4
v -1.7 0.6 1.1
v -1.7 0.6 0.8
v -1.7 0.6 -1.5
v -1.7 0.6 -1.6
v -1.7 0.7 -1.5
v -1.7 0.7 -1.6
v -1.7 0.8 -1.4
v -1.7 0.8 -1.7
v -1.5 0.6 0.7
v -1.5 0.6 0.4
v -1.5 0.8 0.7
v -1.5 0.8 0.4
v -1.4 1.2 0.7
v -1.4 1.2 0.5
v -1.4 1.5 1.7
v -1.4 1.5 0.7
v -1.4 1.6 0.6
v -1.4 1.6 0.5
v -1.4 1.7 1.7
v -1.4 1.7 1.4
v -1.4 1.7 1
v -1.4 1.7 0.6
v -1.4 1.8 1.4
v -1.4 1.8 1
v -1.1 0.5 1.7
v -1.1 0.5 1.4
v -1.1 0.5 1.1
v -1.1 0.5 0.8
v -1.1 0.6 1.7
v -1.1 0.6 1.4
v -1.1 0.6 1.1
v -1.1 0.6 0.8
v -1.1 0.6 -1.4
v -1.1 0.6 -1.5
v -1.1 0.6 -1.6
v -1.1 0.6 -1.7
v -1.1 0.7 -1.4
v -1.1 0.7 -1.5
v -1.1 0.7 -1.6
v -1.1 0.7 -1.7
v -0.6 0.3 1.8
v -0.6 0.3 0.8
v -0.6 0.3 0.5
v -0.6 0.3 -0.5
v -0.6 0.3 -0.8
v -0.6 0.3 -1.8
v -0.6 0.5 1.8
v -0.6 0.5 0.8
v -0.6 0.5 0.5
v -0.6 0.5 -0.5
v -0.6 0.5 -0.8
v -0.6 0.5 -1.8
v -0.5 0.3 1.9
v -0.5 0.3 1.8
v -0.5 0.3 0.8
v -0.5 0.3 0.7
v -0.5 0.3 0.6
v -0.5 0.3 0.5
v -0.5 0.3 -0.5
v -0.5 0.3 -0.6
v -0.5 0.3 -0.7
v -0.5 0.3 -0.8
v -0.5 0.3 -1.8
v -0.5 0.3 -1.9
v -0.5 0.5 1.9
v -0.5 0.5 1.8
v -0.5 0.5 0.8
v -0.5 0.5 0.7
v -0.5 0.5 0.6
v -0.5 0.5 0.5
v -0.5 0.5 -0.5
v -0.5 0.5 -0.6
v -0.5 0.5 -0.7
v -0.5 0.5 -0.8
v -0.5 0.5 -1.8
v -0.5 0.5 -1.9
v -0.2 0.5 -1.1
v -0.2 0.5 -1.7
v -0.2 0.6 -1.1
v -0.2 0.6 -1.7
v -0.1 0.5 -0.7
v -0.1 0.5 -1.1
v -0.1 0.5 -1.7
v -0.1 0.5 -1.8
v -0.1 0.6 -0.7
v -0.1 0.6 -1.1
v -0.1 0.6 -1.7
v -0.1 0.6 -1.8
v 0 0.6 -0.9
v 0 0.6 -1.5
v 0 0.7 -0.9
v 0 0.7 -1.5
v 0.1 0.6 -0.8
v 0.1 0.6 -0.9
v 0.1 0.6 -1.5
v 0.1 0.6 -1.7
v 0.1 0.7 -0.8
v 0.1 0.7 -0.9
v 0.1 0.7 -1.5
v 0.1 0.7 -1.7
v 0.2 0.6 -0.7
v 0.2 0.6 -0.8
v 0.2 0.7 -0.7
v 0.2 0.7 -0.8
v 0.3 0.7 -0.9
v 0.3 0.7 -1.6
v 0.3 0.8 -0.9
v 0.3 0.8 -1.6
v 0.4 0.6 -1.7
v 0.4 0.6 -1.8
v 0.4 0.7 -0.8
v 0.4 0.7 -0.9
v 0.4 0.7 -1.7
v 0.4 0.7 -1.8
v 0.4 0.8 -0.8
v 0.4 0.8 -0.9
v 0.4 0.8 -1
v 0.4 0.8 -1.5
v 0.4 0.9 -1
v 0.4 0.9 -1.5
v 0.5 0.8 -0.9
v 0.5 0.8 -1
v 0.5 0.9 -0.9
v 0.5 0.9 -1
v 0.7 0.3 1.8
v 0.7 0.3 0.8
v 0.7 0.3 0.5
v 0.7 0.3 -0.5
v 0.7 0.3 -0.8
v 0.7 0.3 -1.8
v 0.7 0.5 1.8
v 0.7 0.5 0.8
v 0.7 0.5 0.5
v 0.7 0.5 -0.2
v 0.7 0.5 -0.5
v 0.7 0.6 -0.2
v 0.7 0.6 -0.3
v 0.7 0.7 -0.3
v 0.7 0.7 -0.5
v 0.7 0.8 -0.8
v 0.7 0.8 -1.5
v 0.7 0.8 -1.8
v 0.7 0.9 -0.8
v 0.7 0.9 -1.5
v 0.8 0.3 1.9
v 0.8 0.3 1.8
v 0.8 0.3 0.8
v 0.8 0.3 0.7
v 0.8 0.3 0.6
v 0.8 0.3 0.5
v 0.8 0.3 -0.5
v 0.8 0.3 -0.6
v 0.8 0.3 -0.7
v 0.8 0.3 -0.8
v 0.8 0.3 -1.8
v 0.8 0.3 -1.9
v 0.8 0.5 1.9
v 0.8 0.5 1.8
v 0.8 0.5 0.8
v 0.8 0.5 0.7
v 0.8 0.5 0.6
v 0.8 0.5 0.5
v 0.8 0.5 -0.5
v 0.8 0.5 -0.6
v 0.8 0.7 -0.5
v 0.8 0.8 -0.5
v 0.8 0.8 -0.6
v 0.8 0.8 -0.7
v 0.8 0.8 -0.8
v 0.8 0.8 -1.8
v 0.8 0.8 -1.9
v 0.8 0.9 -0.7
v 0.8 0.9 -0.8
v 0.8 0.9 -1.1
v 0.8 0.9 -1.4
v 0.8 1 -1.1
v 0.8 1 -1.4
v 0.9 0.7 -0.4
v 0.9 0.7 -0.5
v 0.9 0.8 -0.4
v 0.9 0.8 -0.5
v 0.9 0.9 -1
v 0.9 0.9 -1.1
v 0.9 1 -1
v 0.9 1 -1.1
v 0.9 1 -1.4
v 0.9 1.1 -1.1
v 0.9 1.1 -1.4
v 1 0.8 -1.5
v 1 0.8 -1.9
v 1 0.9 -1.4
v 1 0.9 -1.5
v 1 1 -1.4
v 1 1 -1.5
v 1 1 -1.9
v 1 1.1 -1.3
v 1 1.1 -1.4
v 1 1.2 -1.3
v 1 1.2 -1.5
v 1.1 0.5 -0.1
v 1.1 0.5 -0.2
v 1.1 0.6 -0.1
v 1.1 0.6 -0.2
v 1.1 1 -1.5
v 1.1 1 -1.9
v 1.1 1.1 -1.2
v 1.1 1.1 -1.3
v 1.1 1.2 -1.2
v 1.1 1.2 -1.3
v 1.1 1.2 -1.5
v 1.1 1.2 -1.6
v 1.1 1.2 -1.7
v 1.1 1.2 -1.9
v 1.1 1.3 -1.5
v 1.1 1.3 -1.6
v 1.1 1.4 -1.3
v 1.1 1.4 -1.5
v 1.1 1.4 -1.7
v 1.2 1.2 -1.7
v 1.2 1.2 -1.9
v 1.2 1.4 -1.4
v 1.2 1.4 -1.5
v 1.2 1.4 -1.7
v 1.2 1.4 -1.8
v 1.2 1.4 -1.9
v 1.2 1.5 -1.4
v 1.2 1.5 -1.5
v 1.2 1.5 -1.8
v 1.3 0.4 1.7
v 1.3 0.4 1.6
v 1.3 0.4 1.4
v 1.3 0.4 1.3
v 1.3 0.5 1.7
v 1.3 0.5 1.6
v 1.3 0.5 1.4
v 1.3 0.5 1.3
v 1.3 1.1 -1.1
v 1.3 1.1 -1.2
v 1.3 1.2 -1.1
v 1.3 1.2 -1.2
v 1.3 1.2 -1.3
v 1.3 1.4 -1.2
v 1.3 1.4 -1.3
v 1.3 1.4 -1.4
v 1.3 1.4 -1.8
v 1.3 1.4 -1.9
v 1.3 1.5 -1.3
v 1.3 1.5 -1.4
v 1.3 1.5 -1.5
v 1.3 1.5 -1.8
v 1.3 1.5 -1.9
v 1.3 1.6 -1.5
v 1.3 1.6 -1.8
v 1.4 0.4 1.6
v 1.4 0.4 1.4
v 1.4 0.5 1.6
v 1.4 0.5 1.4
v 1.4 1.5 -1.4
v 1.4 1.5 -1.5
v 1.4 1.6 -1.4
v 1.4 1.6 -1.5
v 1.4 1.6 -1.7
v 1.4 1.7 -1.4
v 1.4 1.7 -1.7
v 1.5 0.4 1.3
v 1.5 0.4 1.2
v 1.5 0.5 1.3
v 1.5 0.5 1.2
v 1.5 1.4 -1.2
v 1.5 1.4 -1.3
v 1.5 1.5 -1.2
v 1.5 1.5 -1.3
v 1.5 1.5 -1.4
v 1.5 1.6 -1.3
v 1.5 1.6 -1.4
v 1.6 0.4 1.7
v 1.6 0.4 1.6
v 1.6 0.4 1.5
v 1.6 0.4 1.4
v 1.6 0.5 1.7
v 1.6 0.5 1.6
v 1.6 0.5 1.5
v 1.6 0.5 1.4
v 1.6 1.3 -1.1
v 1.6 1.3 -1.2
v 1.6 1.4 -1.1
v 1.6 1.4 -1.2
v 1.6 1.6 -1.5
v 1.6 1.6 -1.6
v 1.6 1.7 -1.5
v 1.6 1.7 -1.6
v -1.5 0.5 1.7
v -1.5 0.5 1.4
v -1.5 0.5 1.1
v -1.5 0.5 0.8
v -1.5 0.6 1.7
v -1.5 0.6 1.4
v -1.5 0.6 1.1
v -1.5 0.6 0.8
v -1.3 0.5 -1.4
v -1.3 0.5 -1.7
v -1.3 0.6 -1.5
v -1.3 0.6 -1.6
v -1.3 0.7 -1.5
v -1.3 0.7 -1.6
v -1.3 0.8 -1.4
v -1.3 0.8 -1.7
v -1.2 1.2 0.7
v -1.2 1.2 0.5
v -1.2 1.5 1.7
v -1.2 1.5 0.7
v -1.2 1.6 0.6
v -1.2 1.6 0.5
v -1.2 1.7 1.7
v -1.2 1.7 1.4
v -1.2 1.7 1
v -1.2 1.7 0.6
v -1.2 1.8 1.4
v -1.2 1.8 1
v -1.1 0.6 0.7
v -1.1 0.6 0.4
v -1.1 0.6 -1.5
v -1.1 0.6 -1.6
v -1.1 0.7 -1.5
v -1.1 0.7 -1.6
v -1.1 0.8 0.7
v -1.1 0.8 0.4
v -1 0.6 -1.4
v -1 0.6 -1.5
v -1 0.6 -1.6
v -1 0.6 -1.7
v -1 0.7 -1.4
v -1 0.7 -1.5
v -1 0.7 -1.6
v -1 0.7 -1.7
v -0.9 0.5 1.7
v -0.9 0.5 1.4
v -0.9 0.5 1.1
v -0.9 0.5 0.8
v -0.9 0.6 1.7
v -0.9 0.6 1.4
v -0.9 0.6 1.1
v -0.9 0.6 0.8
v -0.8 0.3 1.9
v -0.8 0.3 1.8
v -0.8 0.3 0.8
v -0.8 0.3 0.7
v -0.8 0.3 0.6
v -0.8 0.3 0.5
v -0.8 0.3 -0.5
v -0.8 0.3 -0.6
v -0.8 0.3 -0.7
v -0.8 0.3 -0.8
v -0.8 0.3 -1.8
v -0.8 0.3 -1.9
v -0.8 0.5 1.9
v -0.8 0.5 1.8
v -0.8 0.5 0.8
v -0.8 0.5 0.7
v -0.8 0.5 0.6
v -0.8 0.5 0.5
v -0.8 0.5 -0.5
v -0.8 0.5 -0.6
v -0.8 0.5 -0.7
v -0.8 0.5 -0.8
v -0.8 0.5 -1.8
v -0.8 0.5 -1.9
v -0.8 0.6 1.8
v -0.8 0.6 0.7
v -0.8 0.9 1.8
v -0.8 0.9 1.7
v -0.8 1 1.8
v -0.8 1 1.7
v -0.8 1.5 1.8
v -0.8 1.5 0.7
v -0.7 0.3 1.8
v -0.7 0.3 0.8
v -0.7 0.3 0.5
v -0.7 0.3 -0.5
v -0.7 0.3 -0.8
v -0.7 0.3 -1.8
v -0.7 0.5 1.8
v -0.7 0.5 0.8
v -0.7 0.5 0.5
v -0.7 0.5 -0.5
v -0.7 0.5 -0.8
v -0.7 0.5 -1.8
v 0.5 0.3 1.9
v 0.5 0.3 1.8
v 0.5 0.3 0.8
v 0.5 0.3 0.7
v 0.5 0.3 0.6
v 0.5 0.3 0.5
v 0.5 0.3 -0.5
v 0.5 0.3 -0.6
v 0.5 0.3 -0.7
v 0.5 0.3 -0.8
v 0.5 0.3 -1.8
v 0.5 0.3 -1.9
v 0.5 0.5 1.9
v 0.5 0.5 1.8
v 0.5 0.5 0.8
v 0.5 0.5 0.7
v 0.5 0.5 0.6
v 0.5 0.5 0.5
v 0.5 0.5 -0.5
v 0.5 0.5 -0.6
v 0.5 0.5 -1.8
v 0.5 0.5 -1.9
v 0.5 0.6 -0.7
v 0.5 0.6 -0.8
v 0.5 0.7 -0.7
v 0.5 0.7 -0.8
v 0.6 0.3 1.8
v 0.6 0.3 0.8
v 0.6 0.3 0.5
v 0.6 0.3 -0.5
v 0.6 0.3 -0.8
v 0.6 0.3 -1.8
v 0.6 0.5 1.8
v 0.6 0.5 0.8
v 0.6 0.5 0.5
v 0.6 0.5 -0.5
v 0.6 0.7 -0.8
v 0.6 0.7 -1.2
v 0.6 0.7 -1.5
v 0.6 0.7 -1.6
v 0.6 0.7 -1.8
v 0.6 0.8 -0.8
v 0.6 0.8 -0.9
v 0.6 0.8 -1.2
v 0.6 0.8 -1.5
v 0.6 0.8 -1.6
v 0.6 0.9 -0.9
v 0.6 0.9 -1.5
v 1 0.4 1.6
v 1 0.4 1.4
v 1 0.5 1.6
v 1 0.5 1.4
v 1.1 0.4 1.7
v 1.1 0.4 1.6
v 1.1 0.4 1.4
v 1.1 0.4 1.3
v 1.1 0.5 1.7
v 1.1 0.5 1.6
v 1.1 0.5 1.4
v 1.1 0.5 1.3
v 1.4 0.4 1.3
v 1.4 0.4 1.2
v 1.4 0.5 1.3
v 1.4 0.5 1.2
v 1.5 0.4 1.7
v 1.5 0.4 1.6
v 1.5 0.4 1.5
v 1.5 0.4 1.4
v 1.5 0.5 1.7
v 1.5 0.5 1.6
v 1.5 0.5 1.5
v 1.5 0.5 1.4
v 1.5 1.6 -1.5
v 1.5 1.6 -1.6
v 1.5 1.7 -1.5
v 1.5 1.7 -1.6
v 1.6 0.7 -0.4
v 1.6 0.7 -0.5
v 1.6 0.8 -0.4
v 1.6 0.8 -0.5
v 1.7 0.6 -0.3
v 1.7 0.6 -0.4
v 1.7 0.7 -0.3
v 1.7 0.7 -0.4
v 1.7 0.8 -0.7
v 1.7 0.8 -0.8
v 1.7 0.9 -0.7
v 1.7 0.9 -0.8
v 1.7 1.3 -1.1
v 1.7 1.3 -1.2
v 1.7 1.4 -1.1
v 1.7 1.4 -1.2
v 1.7 1.4 -1.3
v 1.7 1.5 -1.2
v 1.7 1.5 -1.3
v 1.7 1.5 -1.4
v 1.7 1.5 -1.7
v 1.7 1.5 -1.8
v 1.7 1.6 -1.3
v 1.7 1.6 -1.4
v 1.7 1.6 -1.7
v 1.7 1.6 -1.8
v 1.7 1.7 -1.4
v 1.7 1.7 -1.7
v 1.8 0.3 1.9
v 1.8 0.3 1.8
v 1.8 0.3 0.8
v 1.8 0.3 0.7
v 1.8 0.3 0.6
v 1.8 0.3 0.5
v 1.8 0.3 -0.5
v 1.8 0.3 -0.6
v 1.8 0.3 -0.7
v 1.8 0.3 -0.8
v 1.8 0.3 -1.8
v 1.8 0.3 -1.9
v 1.8 0.5 1.9
v 1.8 0.5 1.8
v 1.8 0.5 0.8
v 1.8 0.5 0.7
v 1.8 0.5 0.6
v 1.8 0.5 0.5
v 1.8 0.5 -0.1
v 1.8 0.5 -0.2
v 1.8 0.5 -0.5
v 1.8 0.5 -0.6
v 1.8 0.6 -0.1
v 1.8 0.6 -0.2
v 1.8 0.6 -0.4
v 1.8 0.6 -0.5
v 1.8 0.7 -0.4
v 1.8 0.7 -0.5
v 1.8 0.8 -0.5
v 1.8 0.8 -0.6
v 1.8 0.8 -0.7
v 1.8 0.8 -0.8
v 1.8 0.9 -1
v 1.8 0.9 -1.1
v 1.8 1 -1
v 1.8 1 -1.1
v 1.8 1 -1.2
v 1.8 1.2 -1.1
v 1.8 1.2 -1.2
v 1.8 1.2 -1.3
v 1.8 1.4 -1.2
v 1.8 1.4 -1.3
v 1.8 1.4 -1.4
v 1.8 1.4 -1.8
v 1.8 1.4 -1.9
v 1.8 1.5 -1.3
v 1.8 1.5 -1.4
v 1.8 1.5 -1.7
v 1.8 1.5 -1.8
v 1.8 1.5 -1.9
v 1.8 1.6 -1.4
v 1.8 1.6 -1.7
v 1.9 0.3 1.8
v 1.9 0.3 0.8
v 1.9 0.3 0.5
v 1.9 0.3 -0.5
v 1.9 0.3 -0.8
v 1.9 0.3 -1.8
v 1.9 0.5 1.8
v 1.9 0.5 0.8
v 1.9 0.5 0.5
v 1.9 0.5 -0.2
v 1.9 0.5 -0.5
v 1.9 0.6 -0.2
v 1.9 0.6 -0.5
v 1.9 0.8 -0.8
v 1.9 0.8 -1.1
v 1.9 0.9 -0.8
v 1.9 0.9 -1.1
v 1.9 1 -1.1
v 1.9 1 -1.2
v 1.9 1.2 -1.2
v 1.9 1.2 -1.3
v 1.9 1.4 -1.3
v 1.9 1.4 -1.4
v 1.9 1.4 -1.8
v 1.9 1.5 -1.4
v 1.9 1.5 -1.8
v -1.8 0.3 1.9
v -1.8 0.5 1.9
v -0.8 0.3 1.9
v -0.8 0.5 1.9
v -0.5 0.3 1.9
v -0.5 0.5 1.9
v 0.5 0.3 1.9
v 0.5 0.5 1.9
v 0.8 0.3 1.9
v 0.8 0.5 1.9
v 1.8 0.3 1.9
v 1.8 0.5 1.9
v -1.9 0.3 1.8
v -1.9 0.5 1.8
v -1.8 0.3 1.8
v -1.8 0.5 1.8
v -1.8 0.6 1.8
v -1.8 0.9 1.8
v -1.8 1 1.8
v -1.8 1.5 1.8
v -1.6 0.9 1.8
v -1.6 1 1.8
v -1.6 1.2 1.8
v -1.5 0.8 1.8
v -1.5 1 1.8
v -1.5 1.2 1.8
v -1.4 0.9 1.8
v -1.4 1 1.8
v -1.2 0.9 1.8
v -1.2 1 1.8
v -1.1 0.8 1.8
v -1.1 1 1.8
v -1.1 1.2 1.8
v -1 0.9 1.8
v -1 1 1.8
v -1 1.2 1.8
v -0.8 0.3 1.8
v -0.8 0.5 1.8
v -0.8 0.6 1.8
v -0.8 0.9 1.8
v -0.8 1 1.8
v -0.8 1.5 1.8
v -0.7 0.3 1.8
v -0.7 0.5 1.8
v -0.6 0.3 1.8
v -0.6 0.5 1.8
v -0.5 0.3 1.8
v -0.5 0.5 1.8
v 0.5 0.3 1.8
v 0.5 0.5 1.8
v 0.6 0.3 1.8
v 0.6 0.5 1.8
v 0.7 0.3 1.8
v 0.7 0.5 1.8
v 0.8 0.3 1.8
v 0.8 0.5 1.8
v 1.8 0.3 1.8
v 1.8 0.5 1.8
v 1.9 0.3 1.8
v 1.9 0.5 1.8
v -1.7 0.5 1.7
v -1.7 0.6 1.7
v -1.5 0.5 1.7
v -1.5 0.6 1.7
v -1.4 1.5 1.7
v -1.4 1.7 1.7
v -1.2 1.5 1.7
v -1.2 1.7 1.7
v -1.1 0.5 1.7
v -1.1 0.6 1.7
v -0.9 0.5 1.7
v -0.9 0.6 1.7
v 1.5 0.4 1.6
v 1.5 0.5 1.6
v 1.6 0.4 1.6
v 1.6 0.5 1.6
v -1.4 1.7 1.4
v -1.4 1.8 1.4
v -1.2 1.7 1.4
v -1.2 1.8 1.4
v 1 0.4 1.4
v 1 0.5 1.4
v 1.1 0.4 1.4
v 1.1 0.5 1.4
v 1.3 0.4 1.4
v 1.3 0.5 1.4
v 1.4 0.4 1.4
v 1.4 0.5 1.4
v 1.5 0.4 1.4
v 1.5 0.5 1.4
v 1.6 0.4 1.4
v 1.6 0.5 1.4
v 1.1 0.4 1.3
v 1.1 0.5 1.3
v 1.3 0.4 1.3
v 1.3 0.5 1.3
v 1.4 0.4 1.2
v 1.4 0.5 1.2
v 1.5 0.4 1.2
v 1.5 0.5 1.2
v -1.7 0.5 1.1
v -1.7 0.6 1.1
v -1.5 0.5 1.1
v -1.5 0.6 1.1
v -1.1 0.5 1.1
v -1.1 0.6 1.1
v -0.9 0.5 1.1
v -0.9 0.6 1.1
v -1.8 0.3 0.6
v -1.8 0.5 0.6
v -0.8 0.3 0.6
v -0.8 0.5 0.6
v -0.5 0.3 0.6
v -0.5 0.5 0.6
v 0.5 0.3 0.6
v 0.5 0.5 0.6
v 0.8 0.3 0.6
v 0.8 0.5 0.6
v 1.8 0.3 0.6
v 1.8 0.5 0.6
v -1.9 0.3 0.5
v -1.9 0.5 0.5
v -1.8 0.3 0.5
v -1.8 0.5 0.5
v -0.8 0.3 0.5
v -0.8 0.5 0.5
v -0.7 0.3 0.5
v -0.7 0.5 0.5
v -0.6 0.3 0.5
v -0.6 0.5 0.5
v -0.5 0.3 0.5
v -0.5 0.5 0.5
v 0.5 0.3 0.5
v 0.5 0.5 0.5
v 0.6 0.3 0.5
v 0.6 0.5 0.5
v 0.7 0.3 0.5
v 0.7 0.5 0.5
v 0.8 0.3 0.5
v 0.8 0.5 0.5
v 1.8 0.3 0.5
v 1.8 0.5 0.5
v 1.9 0.3 0.5
v 1.9 0.5 0.5
v 1.1 0.5 -0.1
v 1.1 0.6 -0.1
v 1.8 0.5 -0.1
v 1.8 0.6 -0.1
v 0.7 0.5 -0.2
v 0.7 0.6 -0.2
v 1.1 0.5 -0.2
v 1.1 0.6 -0.2
v 1.8 0.5 -0.2
v 1.8 0.6 -0.2
v 1.9 0.5 -0.2
v 1.9 0.6 -0.2
v 0.7 0.6 -0.3
v 0.7 0.7 -0.3
v 1.7 0.6 -0.3
v 1.7 0.7 -0.3
v 0.9 0.7 -0.4
v 0.9 0.8 -0.4
v 1.6 0.7 -0.4
v 1.6 0.8 -0.4
v 1.7 0.6 -0.4
v 1.7 0.7 -0.4
v 1.8 0.6 -0.4
v 1.8 0.7 -0.4
v 0.8 0.7 -0.5
v 0.8 0.8 -0.5
v 0.9 0.7 -0.5
v 0.9 0.8 -0.5
v 1.6 0.7 -0.5
v 1.6 0.8 -0.5
v 1.8 0.7 -0.5
v 1.8 0.8 -0.5
v -1.8 0.3 -0.7
v -1.8 0.5 -0.7
v -0.8 0.3 -0.7
v -0.8 0.5 -0.7
v -0.5 0.3 -0.7
v -0.5 0.5 -0.7
v -0.1 0.5 -0.7
v -0.1 0.6 -0.7
v 0.2 0.5 -0.7
v 0.2 0.6 -0.7
v 0.2 0.7 -0.7
v 0.5 0.3 -0.7
v 0.5 0.6 -0.7
v 0.5 0.7 -0.7
v 0.8 0.3 -0.7
v 0.8 0.8 -0.7
v 0.8 0.9 -0.7
v 1.7 0.8 -0.7
v 1.7 0.9 -0.7
v 1.8 0.3 -0.7
v 1.8 0.8 -0.7
v -1.9 0.3 -0.8
v -1.9 0.5 -0.8
v -1.8 0.3 -0.8
v -1.8 0.5 -0.8
v -0.8 0.3 -0.8
v -0.8 0.5 -0.8
v -0.7 0.3 -0.8
v -0.7 0.5 -0.8
v -0.6 0.3 -0.8
v -0.6 0.5 -0.8
v -0.5 0.3 -0.8
v -0.5 0.5 -0.8
v 0.1 0.6 -0.8
v 0.1 0.7 -0.8
v 0.2 0.6 -0.8
v 0.2 0.7 -0.8
v 0.4 0.7 -0.8
v 0.4 0.8 -0.8
v 0.5 0.3 -0.8
v 0.5 0.6 -0.8
v 0.5 0.7 -0.8
v 0.6 0.3 -0.8
v 0.6 0.7 -0.8
v 0.6 0.8 -0.8
v 0.7 0.3 -0.8
v 0.7 0.8 -0.8
v 0.7 0.9 -0.8
v 0.8 0.3 -0.8
v 0.8 0.8 -0.8
v 0.8 0.9 -0.8
v 1.7 0.8 -0.8
v 1.7 0.9 -0.8
v 1.8 0.3 -0.8
v 1.8 0.8 -0.8
v 1.9 0.3 -0.8
v 1.9 0.8 -0.8
v 1.9 0.9 -0.8
v 0 0.6 -0.9
v 0 0.7 -0.9
v 0.1 0.6 -0.9
v 0.1 0.7 -0.9
v 0.3 0.7 -0.9
v 0.3 0.8 -0.9
v 0.4 0.7 -0.9
v 0.4 0.8 -0.9
v 0.5 0.8 -0.9
v 0.5 0.9 -0.9
v 0.6 0.8 -0.9
v 0.6 0.9 -0.9
v 0.4 0.8 -1
v 0.4 0.9 -1
v 0.5 0.8 -1
v 0.5 0.9 -1
v 0.9 0.9 -1
v 0.9 1 -1
v 1.8 0.9 -1
v 1.8 1 -1
v -0.2 0.5 -1.1
v -0.2 0.6 -1.1
v -0.1 0.5 -1.1
v -0.1 0.6 -1.1
v 0.8 0.9 -1.1
v 0.8 1 -1.1
v 0.9 0.9 -1.1
v 0.9 1 -1.1
v 0.9 1.1 -1.1
v 1.3 1.1 -1.1
v 1.3 1.2 -1.1
v 1.6 1.3 -1.1
v 1.6 1.4 -1.1
v 1.7 1.3 -1.1
v 1.7 1.4 -1.1
v 1.8 0.9 -1.1
v 1.8 1 -1.1
v 1.8 1.2 -1.1
v 1.9 0.9 -1.1
v 1.9 1 -1.1
v 1.1 1.1 -1.2
v 1.1 1.2 -1.2
v 1.3 1.1 -1.2
v 1.3 1.2 -1.2
v 1.3 1.4 -1.2
v 1.5 1.4 -1.2
v 1.5 1.5 -1.2
v 1.6 1.3 -1.2
v 1.6 1.4 -1.2
v 1.7 1.3 -1.2
v 1.7 1.4 -1.2
v 1.7 1.5 -1.2
v 1.8 1 -1.2
v 1.8 1.2 -1.2
v 1.8 1.4 -1.2
v 1.9 1 -1.2
v 1.9 1.2 -1.2
v 1 1.1 -1.3
v 1 1.2 -1.3
v 1.1 1.1 -1.3
v 1.1 1.2 -1.3
v 1.1 1.4 -1.3
v 1.3 1.2 -1.3
v 1.3 1.4 -1.3
v 1.3 1.5 -1.3
v 1.5 1.4 -1.3
v 1.5 1.5 -1.3
v 1.5 1.6 -1.3
v 1.7 1.4 -1.3
v 1.7 1.5 -1.3
v 1.7 1.6 -1.3
v 1.8 1.2 -1.3
v 1.8 1.4 -1.3
v 1.8 1.5 -1.3
v 1.9 1.2 -1.3
v 1.9 1.4 -1.3
v -1.7 0.5 -1.4
v -1.7 0.8 -1.4
v -1.3 0.5 -1.4
v -1.3 0.8 -1.4
v -1.1 0.6 -1.4
v -1.1 0.7 -1.4
v -1 0.6 -1.4
v -1 0.7 -1.4
v 1.2 1.4 -1.4
v 1.2 1.5 -1.4
v 1.3 1.4 -1.4
v 1.3 1.5 -1.4
v 1.4 1.5 -1.4
v 1.4 1.6 -1.4
v 1.4 1.7 -1.4
v 1.5 1.5 -1.4
v 1.5 1.6 -1.4
v 1.7 1.5 -1.4
v 1.7 1.6 -1.4
v 1.7 1.7 -1.4
v 1.8 1.4 -1.4
v 1.8 1.5 -1.4
v 1.8 1.6 -1.4
v 1.9 1.4 -1.4
v 1.9 1.5 -1.4
v -1.3 0.6 -1.5
v -1.3 0.7 -1.5
v -1.1 0.6 -1.5
v -1.1 0.7 -1.5
v 1.3 1.5 -1.5
v 1.3 1.6 -1.5
v 1.4 1.5 -1.5
v 1.4 1.6 -1.5
v -1.1 0.6 -1.6
v -1.1 0.7 -1.6
v -1 0.6 -1.6
v -1 0.7 -1.6
v 1.5 1.6 -1.6
v 1.5 1.7 -1.6
v 1.6 1.6 -1.6
v 1.6 1.7 -1.6
v 1.1 0.4 1.7
v 1.1 0.5 1.7
v 1.3 0.4 1.7
v 1.3 0.5 1.7
v 1.5 0.4 1.7
v 1.5 0.5 1.7
v 1.6 0.4 1.7
v 1.6 0.5 1.7
v 1 0.4 1.6
v 1 0.5 1.6
v 1.1 0.4 1.6
v 1.1 0.5 1.6
v 1.3 0.4 1.6
v 1.3 0.5 1.6
v 1.4 0.4 1.6
v 1.4 0.5 1.6
v 1.5 0.4 1.5
v 1.5 0.5 1.5
v 1.6 0.4 1.5
v 1.6 0.5 1.5
v -1.7 0.5 1.4
v -1.7 0.6 1.4
v -1.5 0.5 1.4
v -1.5 0.6 1.4
v -1.1 0.5 1.4
v -1.1 0.6 1.4
v -0.9 0.5 1.4
v -0.9 0.6 1.4
v 1.4 0.4 1.3
v 1.4 0.5 1.3
v 1.5 0.4 1.3
v 1.5 0.5 1.3
v -1.4 1.7 1
v -1.4 1.8 1
v -1.2 1.7 1
v -1.2 1.8 1
v -1.9 0.3 0.8
v -1.9 0.5 0.8
v -1.8 0.3 0.8
v -1.8 0.5 0.8
v -1.7 0.5 0.8
v -1.7 0.6 0.8
v -1.5 0.5 0.8
v -1.5 0.6 0.8
v -1.1 0.5 0.8
v -1.1 0.6 0.8
v -0.9 0.5 0.8
v -0.9 0.6 0.8
v -0.8 0.3 0.8
v -0.8 0.5 0.8
v -0.7 0.3 0.8
v -0.7 0.5 0.8
v -0.6 0.3 0.8
v -0.6 0.5 0.8
v -0.5 0.3 0.8
v -0.5 0.5 0.8
v 0.5 0.3 0.8
v 0.5 0.5 0.8
v 0.6 0.3 0.8
v 0.6 0.5 0.8
v 0.7 0.3 0.8
v 0.7 0.5 0.8
v 0.8 0.3 0.8
v 0.8 0.5 0.8
v 1.8 0.3 0.8
v 1.8 0.5 0.8
v 1.9 0.3 0.8
v 1.9 0.5 0.8
v -1.8 0.3 0.7
v -1.8 0.5 0.7
v -1.8 0.6 0.7
v -1.8 1.5 0.7
v -1.5 0.6 0.7
v -1.5 0.8 0.7
v -1.4 1.2 0.7
v -1.4 1.5 0.7
v -1.2 1.2 0.7
v -1.2 1.5 0.7
v -1.1 0.6 0.7
v -1.1 0.8 0.7
v -0.8 0.3 0.7
v -0.8 0.5 0.7
v -0.8 0.6 0.7
v -0.8 1.5 0.7
v -0.5 0.3 0.7
v -0.5 0.5 0.7
v 0.5 0.3 0.7
v 0.5 0.5 0.7
v 0.8 0.3 0.7
v 0.8 0.5 0.7
v 1.8 0.3 0.7
v 1.8 0.5 0.7
v -1.4 1.6 0.6
v -1.4 1.7 0.6
v -1.2 1.6 0.6
v -1.2 1.7 0.6
v -1.4 1.2 0.5
v -1.4 1.6 0.5
v -1.2 1.2 0.5
v -1.2 1.6 0.5
v -1.5 0.6 0.4
v -1.5 0.8 0.4
v -1.1 0.6 0.4
v -1.1 0.8 0.4
v -1.9 0.3 -0.5
v -1.9 0.5 -0.5
v -1.8 0.3 -0.5
v -1.8 0.5 -0.5
v -0.8 0.3 -0.5
v -0.8 0.5 -0.5
v -0.7 0.3 -0.5
v -0.7 0.5 -0.5
v -0.6 0.3 -0.5
v -0.6 0.5 -0.5
v -0.5 0.3 -0.5
v -0.5 0.5 -0.5
v 0.5 0.3 -0.5
v 0.5 0.5 -0.5
v 0.6 0.3 -0.5
v 0.6 0.5 -0.5
v 0.7 0.3 -0.5
v 0.7 0.5 -0.5
v 0.7 0.7 -0.5
v 0.8 0.3 -0.5
v 0.8 0.5 -0.5
v 0.8 0.7 -0.5
v 1.8 0.3 -0.5
v 1.8 0.5 -0.5
v 1.8 0.6 -0.5
v 1.9 0.3 -0.5
v 1.9 0.5 -0.5
v 1.9 0.6 -0.5
v -1.8 0.3 -0.6
v -1.8 0.5 -0.6
v -0.8 0.3 -0.6
v -0.8 0.5 -0.6
v -0.5 0.3 -0.6
v -0.5 0.5 -0.6
v 0.5 0.3 -0.6
v 0.5 0.5 -0.6
v 0.8 0.3 -0.6
v 0.8 0.5 -0.6
v 0.8 0.8 -0.6
v 1.8 0.3 -0.6
v 1.8 0.5 -0.6
v 1.8 0.8 -0.6
v 0.8 0.9 -1.4
v 0.8 1 -1.4
v 0.9 1 -1.4
v 0.9 1.1 -1.4
v 1 0.9 -1.4
v 1 1 -1.4
v 1 1.1 -1.4
v -1.1 0.6 -1.5
v -1.1 0.7 -1.5
v -1 0.6 -1.5
v -1 0.7 -1.5
v 0 0.6 -1.5
v 0 0.7 -1.5
v 0.1 0.6 -1.5
v 0.1 0.7 -1.5
v 0.4 0.8 -1.5
v 0.4 0.9 -1.5
v 0.6 0.8 -1.5
v 0.6 0.9 -1.5
v 0.7 0.8 -1.5
v 0.7 0.9 -1.5
v 1 0.8 -1.5
v 1 0.9 -1.5
v 1 1 -1.5
v 1 1.2 -1.5
v 1.1 1 -1.5
v 1.1 1.2 -1.5
v 1.5 1.6 -1.5
v 1.5 1.7 -1.5
v 1.6 1.6 -1.5
v 1.6 1.7 -1.5
v -1.3 0.6 -1.6
v -1.3 0.7 -1.6
v -1.1 0.6 -1.6
v -1.1 0.7 -1.6
v 0.3 0.7 -1.6
v 0.3 0.8 -1.6
v 0.4 0.7 -1.6
v 0.6 0.7 -1.6
v 0.6 0.8 -1.6
v -1.7 0.5 -1.7
v -1.7 0.8 -1.7
v -1.3 0.5 -1.7
v -1.3 0.8 -1.7
v -1.1 0.6 -1.7
v -1.1 0.7 -1.7
v -1 0.6 -1.7
v -1 0.7 -1.7
v -0.2 0.5 -1.7
v -0.2 0.6 -1.7
v -0.1 0.5 -1.7
v -0.1 0.6 -1.7
v 0.1 0.6 -1.7
v 0.1 0.7 -1.7
v 0.4 0.6 -1.7
v 0.4 0.7 -1.7
v 1.1 1.2 -1.7
v 1.1 1.4 -1.7
v 1.2 1.2 -1.7
v 1.2 1.4 -1.7
v 1.4 1.6 -1.7
v 1.4 1.7 -1.7
v 1.7 1.5 -1.7
v 1.7 1.6 -1.7
v 1.7 1.7 -1.7
v 1.8 1.5 -1.7
v 1.8 1.6 -1.7
v -1.9 0.3 -1.8
v -1.9 0.5 -1.8
v -1.8 0.3 -1.8
v -1.8 0.5 -1.8
v -0.8 0.3 -1.8
v -0.8 0.5 -1.8
v -0.7 0.3 -1.8
v -0.7 0.5 -1.8
v -0.6 0.3 -1.8
v -0.6 0.5 -1.8
v -0.5 0.3 -1.8
v -0.5 0.5 -1.8
v -0.1 0.5 -1.8
v -0.1 0.6 -1.8
v 0.4 0.5 -1.8
v 0.4 0.6 -1.8
v 0.4 0.7 -1.8
v 0.5 0.3 -1.8
v 0.5 0.5 -1.8
v 0.6 0.3 -1.8
v 0.6 0.7 -1.8
v 0.7 0.3 -1.8
v 0.7 0.8 -1.8
v 0.8 0.3 -1.8
v 0.8 0.8 -1.8
v 1.2 1.4 -1.8
v 1.2 1.5 -1.8
v 1.3 1.4 -1.8
v 1.3 1.5 -1.8
v 1.3 1.6 -1.8
v 1.7 1.5 -1.8
v 1.7 1.6 -1.8
v 1.8 0.3 -1.8
v 1.8 1.4 -1.8
v 1.8 1.5 -1.8
v 1.9 0.3 -1.8
v 1.9 1.4 -1.8
v 1.9 1.5 -1.8
v -1.8 0.3 -1.9
v -1.8 0.5 -1.9
v -0.8 0.3 -1.9
v -0.8 0.5 -1.9
v -0.5 0.3 -1.9
v -0.5 0.5 -1.9
v 0.5 0.3 -1.9
v 0.5 0.5 -1.9
v 0.8 0.3 -1.9
v 0.8 0.8 -1.9
v 1 0.8 -1.9
v 1 1 -1.9
v 1.1 1 -1.9
v 1.1 1.2 -1.9
v 1.2 1.2 -1.9
v 1.2 1.4 -1.9
v 1.3 1.4 -1.9
v 1.3 1.5 -1.9
v 1.8 0.3 -1.9
v 1.8 1.4 -1.9
v 1.8 1.5 -1.9
v -1.8 0.3 1.9
v -0.8 0.3 1.9
v -0.5 0.3 1.9
v 0.5 0.3 1.9
v 0.8 0.3 1.9
v 1.8 0.3 1.9
v -1.9 0.3 1.8
v -1.8 0.3 1.8
v -0.8 0.3 1.8
v -0.7 0.3 1.8
v -0.6 0.3 1.8
v -0.5 0.3 1.8
v 0.5 0.3 1.8
v 0.6 0.3 1.8
v 0.7 0.3 1.8
v 0.8 0.3 1.8
v 1.8 0.3 1.8
v 1.9 0.3 1.8
v 1.1 0.3 1.7
v 1.3 0.3 1.7
v 1.5 0.3 1.7
v 1.6 0.3 1.7
v 1 0.3 1.6
v 1.1 0.3 1.6
v 1.3 0.3 1.6
v 1.4 0.3 1.6
v 1.5 0.3 1.6
v 1.6 0.3 1.6
v 1.5 0.3 1.5
v 1.6 0.3 1.5
v 1 0.3 1.4
v 1.1 0.3 1.4
v 1.3 0.3 1.4
v 1.4 0.3 1.4
v 1.5 0.3 1.4
v 1.6 0.3 1.4
v 1.1 0.3 1.3
v 1.3 0.3 1.3
v 1.4 0.3 1.3
v 1.5 0.3 1.3
v 1.4 0.3 1.2
v 1.5 0.3 1.2
v -1.9 0.3 0.8
v -1.8 0.3 0.8
v -0.8 0.3 0.8
v -0.7 0.3 0.8
v -0.6 0.3 0.8
v -0.5 0.3 0.8
v 0.5 0.3 0.8
v 0.6 0.3 0.8
v 0.7 0.3 0.8
v 0.8 0.3 0.8
v 1.8 0.3 0.8
v 1.9 0.3 0.8
v -1.8 0.3 0.7
v -0.8 0.3 0.7
v -0.5 0.3 0.7
v 0.5 0.3 0.7
v 0.8 0.3 0.7
v 1.8 0.3 0.7
v -1.8 0.3 0.6
v -0.8 0.3 0.6
v -0.5 0.3 0.6
v 0.5 0.3 0.6
v 0.8 0.3 0.6
v 1.8 0.3 0.6
v -1.9 0.3 0.5
v -1.8 0.3 0.5
v -0.8 0.3 0.5
v -0.7 0.3 0.5
v -0.6 0.3 0.5
v -0.5 0.3 0.5
v 0.5 0.3 0.5
v 0.6 0.3 0.5
v 0.7 0.3 0.5
v 0.8 0.3 0.5
v 1.8 0.3 0.5
v 1.9 0.3 0.5
v -1.9 0.3 -0.5
v -1.8 0.3 -0.5
v -0.8 0.3 -0.5
v -0.7 0.3 -0.5
v -0.6 0.3 -0.5
v -0.5 0.3 -0.5
v 0.5 0.3 -0.5
v 0.6 0.3 -0.5
v 0.7 0.3 -0.5
v 0.8 0.3 -0.5
v 1.8 0.3 -0.5
v 1.9 0.3 -0.5
v -1.8 0.3 -0.6
v -0.8 0.3 -0.6
v -0.5 0.3 -0.6
v 0.5 0.3 -0.6
v 0.8 0.3 -0.6
v 1.8 0.3 -0.6
v -1.8 0.3 -0.7
v -0.8 0.3 -0.7
v -0.5 0.3 -0.7
v 0.5 0.3 -0.7
v 0.8 0.3 -0.7
v 1.8 0.3 -0.7
v -1.9 0.3 -0.8
v -1.8 0.3 -0.8
v -0.8 0.3 -0.8
v -0.7 0.3 -0.8
v -0.6 0.3 -0.8
v -0.5 0.3 -0.8
v 0.5 0.3 -0.8
v 0.6 0.3 -0.8
v 0.7 0.3 -0.8
v 0.8 0.3 -0.8
v 1.8 0.3 -0.8
v 1.9 0.3 -0.8
v -1.9 0.3 -1.8
v -1.8 0.3 -1.8
v -0.8 0.3 -1.8
v -0.7 0.3 -1.8
v -0.6 0.3 -1.8
v -0.5 0.3 -1.8
v 0.5 0.3 -1.8
v 0.6 0.3 -1.8
v 0.7 0.3 -1.8
v 0.8 0.3 -1.8
v 1.8 0.3 -1.8
v 1.9 0.3 -1.8
v -1.8 0.3 -1.9
v -0.8 0.3 -1.9
v -0.5 0.3 -1.9
v 0.5 0.3 -1.9
v 0.8 0.3 -1.9
v 1.8 0.3 -1.9
v -1.8 0.6 1.8
v -0.8 0.6 1.8
v -1.7 0.6 1.7
v -1.5 0.6 1.7
v -1.1 0.6 1.7
v -0.9 0.6 1.7
v -1.7 0.6 1.4
v -1.5 0.6 1.4
v -1.1 0.6 1.4
v -0.9 0.6 1.4
v -1.7 0.6 1.1
v -1.5 0.6 1.1
v -1.1 0.6 1.1
v -0.9 0.6 1.1
v -1.7 0.6 0.8
v -1.5 0.6 0.8
v -1.1 0.6 0.8
v -0.9 0.6 0.8
v -1.8 0.6 0.7
v -1.5 0.6 0.7
v -1.1 0.6 0.7
v -0.8 0.6 0.7
v -1.5 0.6 0.4
v -1.1 0.6 0.4
v -1.1 0.6 -1.4
v -1 0.6 -1.4
v -1.3 0.6 -1.5
v -1.1 0.6 -1.5
v -1 0.6 -1.5
v -1.3 0.6 -1.6
v -1.1 0.6 -1.6
v -1 0.6 -1.6
v -1.1 0.6 -1.7
v -1 0.6 -1.7
v -1.4 1.2 0.7
v -1.2 1.2 0.7
v -1.4 1.2 0.5
v -1.2 1.2 0.5
v 1.6 1.3 -1.1
v 1.7 1.3 -1.1
v 1.6 1.3 -1.2
v 1.7 1.3 -1.2
v 1.1 0.4 1.7
v 1.3 0.4 1.7
v 1.5 0.4 1.7
v 1.6 0.4 1.7
v 1 0.4 1.6
v 1.1 0.4 1.6
v 1.3 0.4 1.6
v 1.4 0.4 1.6
v 1.5 0.4 1.6
v 1.6 0.4 1.6
v 1.5 0.4 1.5
v 1.6 0.4 1.5
v 1 0.4 1.4
v 1.1 0.4 1.4
v 1.3 0.4 1.4
v 1.4 0.4 1.4
v 1.5 0.4 1.4
v 1.6 0.4 1.4
v 1.1 0.4 1.3
v 1.3 0.4 1.3
v 1.4 0.4 1.3
v 1.5 0.4 1.3
v 1.4 0.4 1.2
v 1.5 0.4 1.2
v -1.8 0.5 1.9
v -0.8 0.5 1.9
v -0.5 0.5 1.9
v 0.5 0.5 1.9
v 0.8 0.5 1.9
v 1.8 0.5 1.9
v -1.9 0.5 1.8
v -1.8 0.5 1.8
v -0.8 0.5 1.8
v -0.7 0.5 1.8
v -0.6 0.5 1.8
v -0.5 0.5 1.8
v 0.5 0.5 1.8
v 0.6 0.5 1.8
v 0.7 0.5 1.8
v 0.8 0.5 1.8
v 1.8 0.5 1.8
v 1.9 0.5 1.8
v -1.7 0.5 1.7
v -1.5 0.5 1.7
v -1.1 0.5 1.7
v -0.9 0.5 1.7
v 1.1 0.5 1.7
v 1.3 0.5 1.7
v 1.5 0.5 1.7
v 1.6 0.5 1.7
v 1 0.5 1.6
v 1.1 0.5 1.6
v 1.3 0.5 1.6
v 1.4 0.5 1.6
v 1.5 0.5 1.6
v 1.6 0.5 1.6
v 1.5 0.5 1.5
v 1.6 0.5 1.5
v -1.7 0.5 1.4
v -1.5 0.5 1.4
v -1.1 0.5 1.4
v -0.9 0.5 1.4
v 1 0.5 1.4
v 1.1 0.5 1.4
v 1.3 0.5 1.4
v 1.4 0.5 1.4
v 1.5 0.5 1.4
v 1.6 0.5 1.4
v 1.1 0.5 1.3
v 1.3 0.5 1.3
v 1.4 0.5 1.3
v 1.5 0.5 1.3
v 1.4 0.5 1.2
v 1.5 0.5 1.2
v -1.7 0.5 1.1
v -1.5 0.5 1.1
v -1.1 0.5 1.1
v -0.9 0.5 1.1
v -1.9 0.5 0.8
v -1.8 0.5 0.8
v -1.7 0.5 0.8
v -1.5 0.5 0.8
v -1.1 0.5 0.8
v -0.9 0.5 0.8
v -0.8 0.5 0.8
v -0.7 0.5 0.8
v -0.6 0.5 0.8
v -0.5 0.5 0.8
v 0.5 0.5 0.8
v 0.6 0.5 0.8
v 0.7 0.5 0.8
v 0.8 0.5 0.8
v 1.8 0.5 0.8
v 1.9 0.5 0.8
v -1.8 0.5 0.7
v -0.8 0.5 0.7
v -0.5 0.5 0.7
v 0.5 0.5 0.7
v 0.8 0.5 0.7
v 1.8 0.5 0.7
v -1.8 0.5 0.6
v -0.8 0.5 0.6
v -0.5 0.5 0.6
v 0.5 0.5 0.6
v 0.8 0.5 0.6
v 1.8 0.5 0.6
v -1.9 0.5 0.5
v -1.8 0.5 0.5
v -0.8 0.5 0.5
v -0.7 0.5 0.5
v -0.6 0.5 0.5
v -0.5 0.5 0.5
v 0.5 0.5 0.5
v 0.6 0.5 0.5
v 0.7 0.5 0.5
v 0.8 0.5 0.5
v 1.8 0.5 0.5
v 1.9 0.5 0.5
v 1.1 0.5 -0.1
v 1.8 0.5 -0.1
v 0.7 0.5 -0.2
v 1.1 0.5 -0.2
v 1.8 0.5 -0.2
v 1.9 0.5 -0.2
v -1.9 0.5 -0.5
v -1.8 0.5 -0.5
v -0.8 0.5 -0.5
v -0.7 0.5 -0.5
v -0.6 0.5 -0.5
v -0.5 0.5 -0.5
v 0.5 0.5 -0.5
v 0.6 0.5 -0.5
v -1.8 0.5 -0.6
v -0.8 0.5 -0.6
v -0.5 0.5 -0.6
v 0.5 0.5 -0.6
v -1.8 0.5 -0.7
v -0.8 0.5 -0.7
v -0.5 0.5 -0.7
v -0.1 0.5 -0.7
v -1.9 0.5 -0.8
v -1.8 0.5 -0.8
v -0.8 0.5 -0.8
v -0.7 0.5 -0.8
v -0.6 0.5 -0.8
v -0.5 0.5 -0.8
v -0.2 0.5 -1.1
v -0.1 0.5 -1.1
v -1.7 0.5 -1.4
v -1.3 0.5 -1.4
v -1.7 0.5 -1.7
v -1.3 0.5 -1.7
v -0.2 0.5 -1.7
v -0.1 0.5 -1.7
v -1.9 0.5 -1.8
v -1.8 0.5 -1.8
v -0.8 0.5 -1.8
v -0.7 0.5 -1.8
v -0.6 0.5 -1.8
v -0.5 0.5 -1.8
v -0.1 0.5 -1.8
v 0.4 0.5 -1.8
v 0.5 0.5 -1.8
v -1.8 0.5 -1.9
v -0.8 0.5 -1.9
v -0.5 0.5 -1.9
v 0.5 0.5 -1.9
v 1.1 0.6 -0.1
v 1.8 0.6 -0.1
v 0.7 0.6 -0.2
v 1.1 0.6 -0.2
v 1.8 0.6 -0.2
v 1.9 0.6 -0.2
v 0.7 0.6 -0.3
v 1.7 0.6 -0.3
v 1.7 0.6 -0.4
v 1.8 0.6 -0.4
v 1.8 0.6 -0.5
v 1.9 0.6 -0.5
v -0.1 0.6 -0.7
v 0.2 0.6 -0.7
v 0.1 0.6 -0.8
v 0.2 0.6 -0.8
v 0 0.6 -0.9
v 0.1 0.6 -0.9
v -0.2 0.6 -1.1
v -0.1 0.6 -1.1
v 0 0.6 -1.5
v 0.1 0.6 -1.5
v -0.2 0.6 -1.7
v -0.1 0.6 -1.7
v 0.1 0.6 -1.7
v 0.4 0.6 -1.7
v -0.1 0.6 -1.8
v 0.4 0.6 -1.8
v 0.7 0.7 -0.3
v 1.7 0.7 -0.3
v 0.9 0.7 -0.4
v 1.6 0.7 -0.4
v 1.7 0.7 -0.4
v 1.8 0.7 -0.4
v 0.7 0.7 -0.5
v 0.8 0.7 -0.5
v 0.9 0.7 -0.5
v 1.6 0.7 -0.5
v 1.8 0.7 -0.5
v 0.2 0.7 -0.7
v 0.5 0.7 -0.7
v 0.1 0.7 -0.8
v 0.2 0.7 -0.8
v 0.4 0.7 -0.8
v 0.5 0.7 -0.8
v 0 0.7 -0.9
v 0.1 0.7 -0.9
v 0.3 0.7 -0.9
v 0.4 0.7 -0.9
v -1.1 0.7 -1.4
v -1 0.7 -1.4
v -1.3 0.7 -1.5
v -1.1 0.7 -1.5
v -1 0.7 -1.5
v 0 0.7 -1.5
v 0.1 0.7 -1.5
v -1.3 0.7 -1.6
v -1.1 0.7 -1.6
v -1 0.7 -1.6
v 0.3 0.7 -1.6
v 0.4 0.7 -1.6
v 0.6 0.7 -1.6
v -1.1 0.7 -1.7
v -1 0.7 -1.7
v 0.1 0.7 -1.7
v 0.4 0.7 -1.7
v 0.4 0.7 -1.8
v 0.6 0.7 -1.8
v -1.5 0.8 0.7
v -1.1 0.8 0.7
v -1.5 0.8 0.4
v -1.1 0.8 0.4
v 0.9 0.8 -0.4
v 1.6 0.8 -0.4
v 0.8 0.8 -0.5
v 0.9 0.8 -0.5
v 1.6 0.8 -0.5
v 1.8 0.8 -0.5
v 0.8 0.8 -0.6
v 1.8 0.8 -0.6
v 1.7 0.8 -0.7
v 1.8 0.8 -0.7
v 0.4 0.8 -0.8
v 0.6 0.8 -0.8
v 1.7 0.8 -0.8
v 1.8 0.8 -0.8
v 0.3 0.8 -0.9
v 0.4 0.8 -0.9
v 0.5 0.8 -0.9
v 0.6 0.8 -0.9
v 0.4 0.8 -1
v 0.5 0.8 -1
v -1.7 0.8 -1.4
v -1.3 0.8 -1.4
v 0.4 0.8 -1.5
v 0.6 0.8 -1.5
v 0.7 0.8 -1.5
v 1 0.8 -1.5
v 0.3 0.8 -1.6
v 0.6 0.8 -1.6
v -1.7 0.8 -1.7
v -1.3 0.8 -1.7
v 0.7 0.8 -1.8
v 0.8 0.8 -1.8
v 0.8 0.8 -1.9
v 1 0.8 -1.9
v 0.8 0.9 -0.7
v 1.7 0.9 -0.7
v 0.7 0.9 -0.8
v 0.8 0.9 -0.8
v 1.7 0.9 -0.8
v 1.9 0.9 -0.8
v 0.5 0.9 -0.9
v 0.6 0.9 -0.9
v 0.4 0.9 -1
v 0.5 0.9 -1
v 0.9 0.9 -1
v 1.8 0.9 -1
v 0.8 0.9 -1.1
v 0.9 0.9 -1.1
v 1.8 0.9 -1.1
v 1.9 0.9 -1.1
v 0.8 0.9 -1.4
v 1 0.9 -1.4
v 0.4 0.9 -1.5
v 0.6 0.9 -1.5
v 0.7 0.9 -1.5
v 1 0.9 -1.5
v 0.9 1 -1
v 1.8 1 -1
v 0.8 1 -1.1
v 0.9 1 -1.1
v 1.8 1 -1.1
v 1.9 1 -1.1
v 1.8 1 -1.2
v 1.9 1 -1.2
v 0.8 1 -1.4
v 0.9 1 -1.4
v 1 1 -1.5
v 1.1 1 -1.5
v 1 1 -1.9
v 1.1 1 -1.9
v 0.9 1.1 -1.1
v 1.3 1.1 -1.1
v 1.1 1.1 -1.2
v 1.3 1.1 -1.2
v 1 1.1 -1.3
v 1.1 1.1 -1.3
v 0.9 1.1 -1.4
v 1 1.1 -1.4
v 1.3 1.2 -1.1
v 1.8 1.2 -1.1
v 1.1 1.2 -1.2
v 1.3 1.2 -1.2
v 1.8 1.2 -1.2
v 1.9 1.2 -1.2
v 1 1.2 -1.3
v 1.1 1.2 -1.3
v 1.3 1.2 -1.3
v 1.8 1.2 -1.3
v 1.9 1.2 -1.3
v 1 1.2 -1.5
v 1.1 1.2 -1.5
v 1.1 1.2 -1.7
v 1.2 1.2 -1.7
v 1.1 1.2 -1.9
v 1.2 1.2 -1.9
v 1.6 1.4 -1.1
v 1.7 1.4 -1.1
v 1.3 1.4 -1.2
v 1.5 1.4 -1.2
v 1.6 1.4 -1.2
v 1.7 1.4 -1.2
v 1.8 1.4 -1.2
v 1.1 1.4 -1.3
v 1.3 1.4 -1.3
v 1.5 1.4 -1.3
v 1.7 1.4 -1.3
v 1.8 1.4 -1.3
v 1.9 1.4 -1.3
v 1.2 1.4 -1.4
v 1.3 1.4 -1.4
v 1.8 1.4 -1.4
v 1.9 1.4 -1.4
v 1.1 1.4 -1.5
v 1.2 1.4 -1.5
v 1.1 1.4 -1.7
v 1.2 1.4 -1.7
v 1.2 1.4 -1.8
v 1.3 1.4 -1.8
v 1.2 1.4 -1.9
v 1.3 1.4 -1.9
v -1.8 1.5 1.8
v -0.8 1.5 1.8
v -1.4 1.5 1.7
v -1.2 1.5 1.7
v -1.8 1.5 0.7
v -1.4 1.5 0.7
v -1.2 1.5 0.7
v -0.8 1.5 0.7
v 1.5 1.5 -1.2
v 1.7 1.5 -1.2
v 1.3 1.5 -1.3
v 1.5 1.5 -1.3
v 1.7 1.5 -1.3
v 1.8 1.5 -1.3
v 1.2 1.5 -1.4
v 1.3 1.5 -1.4
v 1.4 1.5 -1.4
v 1.5 1.5 -1.4
v 1.7 1.5 -1.4
v 1.8 1.5 -1.4
v 1.9 1.5 -1.4
v 1.2 1.5 -1.5
v 1.3 1.5 -1.5
v 1.4 1.5 -1.5
v 1.7 1.5 -1.7
v 1.8 1.5 -1.7
v 1.2 1.5 -1.8
v 1.3 1.5 -1.8
v 1.7 1.5 -1.8
v 1.8 1.5 -1.8
v 1.9 1.5 -1.8
v 1.3 1.5 -1.9
v 1.8 1.5 -1.9
v -1.4 1.6 0.6
v -1.2 1.6 0.6
v -1.4 1.6 0.5
v -1.2 1.6 0.5
v 1.5 1.6 -1.3
v 1.7 1.6 -1.3
v 1.5 1.6 -1.4
v 1.7 1.6 -1.4
v 1.8 1.6 -1.4
v 1.3 1.6 -1.5
v 1.4 1.6 -1.5
v 1.5 1.6 -1.5
v 1.6 1.6 -1.5
v 1.5 1.6 -1.6
v 1.6 1.6 -1.6
v 1.4 1.6 -1.7
v 1.7 1.6 -1.7
v 1.8 1.6 -1.7
v 1.3 1.6 -1.8
v 1.7 1.6 -1.8
v -1.4 1.7 1.7
v -1.2 1.7 1.7
v -1.4 1.7 1.4
v -1.2 1.7 1.4
v -1.4 1.7 1
v -1.2 1.7 1
v -1.4 1.7 0.6
v -1.2 1.7 0.6
v 1.4 1.7 -1.4
v 1.7 1.7 -1.4
v 1.5 1.7 -1.5
v 1.6 1.7 -1.5
v 1.5 1.7 -1.6
v 1.6 1.7 -1.6
v 1.4 1.7 -1.7
v 1.7 1.7 -1.7
v -1.4 1.8 1.4
v -1.2 1.8 1.4
v -1.4 1.8 1
v -1.2 1.8 1

# faces
f 7/12/1 2/12/1 1/12/1
f 8/12/1 2/12/1 7/12/1
f 9/12/1 4/12/1 3/12/1
f 10/12/1 4/12/1 9/12/1
f 11/12/1 6/12/1 5/12/1
f 12/12/1 6/12/1 11/12/1
f 25/12/1 14/12/1 13/12/1
f 26/12/1 14/12/1 25/12/1
f 27/12/1 16/12/1 15/12/1
f 28/12/1 16/12/1 27/12/1
f 29/12/1 18/12/1 17/12/1
f 30/12/1 18/12/1 29/12/1
f 31/12/1 20/12/1 19/12/1
f 32/12/1 20/12/1 31/12/1
f 33/12/1 22/12/1 21/12/1
f 34/12/1 22/12/1 33/12/1
f 35/12/1 24/12/1 23/12/1
f 36/12/1 24/12/1 35/12/1
f 39/6/1 38/6/1 37/6/1
f 40/6/1 38/6/1 39/6/1
f 41/3/1 40/3/1 39/3/1
f 42/6/1 38/6/1 40/6/1
f 42/3/1 40/3/1 41/3/1
f 43/6/1 42/6/1 41/6/1
f 44/6/1 38/6/1 42/6/1
f 44/6/1 42/6/1 43/6/1
f 51/6/1 46/6/1 45/6/1
f 52/6/1 46/6/1 51/6/1
f 53/6/1 48/6/1 47/6/1
f 54/6/1 48/6/1 53/6/1
f 55/7/1 50/7/1 49/7/1
f 56/7/1 50/7/1 55/7/1
f 57/10/1 56/10/1 55/10/1
f 57/7/1 55/7/1 49/7/1
f 58/7/1 50/7/1 56/7/1
f 58/10/1 56/10/1 57/10/1
f 59/7/1 57/7/1 49/7/1
f 59/7/1 58/7/1 57/7/1
f 60/7/1 50/7/1 58/7/1
f 60/7/1 58/7/1 59/7/1
f 63/6/1 62/6/1 61/6/1
f 64/6/1 62/6/1 63/6/1
f 68/7/1 66/7/1 65/7/1
f 69/7/1 66/7/1 68/7/1
f 69/7/1 68/7/1 67/7/1
f 70/7/1 66/7/1 69/7/1
f 71/7/1 69/7/1 67/7/1
f 72/7/1 69/7/1 71/7/1
f 73/7/1 69/7/1 72/7/1
f 74/7/1 69/7/1 73/7/1
f 75/7/1 73/7/1 72/7/1
f 76/7/1 73/7/1 75/7/1
f 81/6/1 78/6/1 77/6/1
f 82/6/1 78/6/1 81/6/1
f 83/6/1 80/6/1 79/6/1
f 84/6/1 80/6/1 83/6/1
f 89/10/1 86/10/1 85/10/1
f 90/10/1 86/10/1 89/10/1
f 91/10/1 88/10/1 87/10/1
f 92/10/1 88/10/1 91/10/1
f 99/12/1 94/12/1 93/12/1
f 100/12/1 94/12/1 99/12/1
f 101/12/1 96/12/1 95/12/1
f 102/12/1 96/12/1 101/12/1
f 103/12/1 98/12/1 97/12/1
f 104/12/1 98/12/1 103/12/1
f 117/12/1 106/12/1 105/12/1
f 118/12/1 106/12/1 117/12/1
f 119/12/1 108/12/1 107/12/1
f 120/12/1 108/12/1 119/12/1
f 121/12/1 110/12/1 109/12/1
f 122/12/1 110/12/1 121/12/1
f 123/12/1 112/12/1 111/12/1
f 124/12/1 112/12/1 123/12/1
f 125/12/1 114/12/1 113/12/1
f 126/12/1 114/12/1 125/12/1
f 127/12/1 116/12/1 115/12/1
f 128/12/1 116/12/1 127/12/1
f 131/9/1 130/9/1 129/9/1
f 132/9/1 130/9/1 131/9/1
f 137/9/1 134/9/1 133/9/1
f 138/9/1 134/9/1 137/9/1
f 139/9/1 136/9/1 135/9/1
f 140/9/1 136/9/1 139/9/1
f 143/9/1 142/9/1 141/9/1
f 144/9/1 142/9/1 143/9/1
f 149/9/1 146/9/1 145/9/1
f 150/9/1 146/9/1 149/9/1
f 151/9/1 148/9/1 147/9/1
f 152/9/1 148/9/1 151/9/1
f 155/9/1 154/9/1 153/9/1
f 156/9/1 154/9/1 155/9/1
f 159/9/1 158/9/1 157/9/1
f 160/9/1 158/9/1 159/9/1
f 165/12/1 162/12/1 161/12/1
f 166/12/1 162/12/1 165/12/1
f 167/9/1 164/9/1 163/9/1
f 168/9/1 164/9/1 167/9/1
f 171/9/1 170/9/1 169/9/1
f 172/9/1 170/9/1 171/9/1
f 175/9/1 174/9/1 173/9/1
f 176/9/1 174/9/1 175/9/1
f 183/12/1 178/12/1 177/12/1
f 184/12/1 178/12/1 183/12/1
f 185/12/1 180/12/1 179/12/1
f 186/12/1 180/12/1 185/12/1
f 187/12/1 180/12/1 186/12/1
f 188/9/1 187/9/1 186/9/1
f 189/9/1 187/9/1 188/9/1
f 190/9/1 187/9/1 189/9/1
f 191/9/1 187/9/1 190/9/1
f 192/12/1 182/12/1 181/12/1
f 193/12/1 182/12/1 192/12/1
f 194/12/1 182/12/1 193/12/1
f 195/9/1 193/9/1 192/9/1
f 196/9/1 193/9/1 195/9/1
f 209/12/1 198/12/1 197/12/1
f 210/12/1 198/12/1 209/12/1
f 211/12/1 200/12/1 199/12/1
f 212/12/1 200/12/1 211/12/1
f 213/12/1 202/12/1 201/12/1
f 214/12/1 202/12/1 213/12/1
f 215/12/1 204/12/1 203/12/1
f 216/12/1 204/12/1 215/12/1
f 217/9/1 216/9/1 215/9/1
f 218/9/1 216/9/1 217/9/1
f 219/9/1 216/9/1 218/9/1
f 220/12/1 206/12/1 205/12/1
f 221/12/1 206/12/1 220/12/1
f 222/12/1 208/12/1 207/12/1
f 223/12/1 208/12/1 222/12/1
f 224/9/1 221/9/1 220/9/1
f 225/9/1 221/9/1 224/9/1
f 228/9/1 227/9/1 226/9/1
f 229/9/1 227/9/1 228/9/1
f 232/9/1 231/9/1 230/9/1
f 233/9/1 231/9/1 232/9/1
f 236/9/1 235/9/1 234/9/1
f 237/9/1 235/9/1 236/9/1
f 239/9/1 238/9/1 237/9/1
f 240/9/1 238/9/1 239/9/1
f 244/12/1 242/12/1 241/12/1
f 245/12/1 244/12/1 243/12/1
f 246/12/1 242/12/1 244/12/1
f 246/12/1 244/12/1 245/12/1
f 247/12/1 242/12/1 246/12/1
f 249/9/1 246/9/1 245/9/1
f 250/9/1 249/9/1 248/9/1
f 251/9/1 246/9/1 249/9/1
f 251/9/1 249/9/1 250/9/1
f 254/9/1 253/9/1 252/9/1
f 255/9/1 253/9/1 254/9/1
f 260/9/1 259/9/1 258/9/1
f 261/9/1 259/9/1 260/9/1
f 262/12/1 257/12/1 256/12/1
f 263/12/1 257/12/1 262/12/1
f 264/12/1 257/12/1 263/12/1
f 265/12/1 257/12/1 264/12/1
f 266/9/1 262/9/1 261/9/1
f 266/9/1 263/9/1 262/9/1
f 267/6/1 264/6/1 263/6/1
f 267/9/1 263/9/1 266/9/1
f 268/9/1 266/9/1 261/9/1
f 269/6/1 267/6/1 266/6/1
f 269/9/1 266/9/1 268/9/1
f 270/6/1 264/6/1 267/6/1
f 270/6/1 267/6/1 269/6/1
f 275/12/1 272/12/1 271/12/1
f 276/12/1 272/12/1 275/12/1
f 277/12/1 272/12/1 276/12/1
f 278/9/1 274/9/1 273/9/1
f 279/6/1 275/6/1 274/6/1
f 279/9/1 274/9/1 278/9/1
f 279/6/1 276/6/1 275/6/1
f 280/6/1 276/6/1 279/6/1
f 285/12/1 282/12/1 281/12/1
f 286/12/1 282/12/1 285/12/1
f 287/12/1 284/12/1 283/12/1
f 288/12/1 284/12/1 287/12/1
f 291/9/1 290/9/1 289/9/1
f 292/9/1 290/9/1 291/9/1
f 294/9/1 293/9/1 292/9/1
f 295/9/1 293/9/1 294/9/1
f 299/9/1 296/9/1 295/9/1
f 300/9/1 296/9/1 299/9/1
f 302/6/1 298/6/1 297/6/1
f 303/6/1 298/6/1 302/6/1
f 304/6/1 302/6/1 301/6/1
f 305/6/1 302/6/1 304/6/1
f 308/12/1 307/12/1 306/12/1
f 309/12/1 307/12/1 308/12/1
f 312/6/1 311/6/1 310/6/1
f 313/6/1 311/6/1 312/6/1
f 315/3/1 313/3/1 312/3/1
f 315/3/1 314/3/1 313/3/1
f 316/3/1 314/3/1 315/3/1
f 319/12/1 318/12/1 317/12/1
f 320/12/1 318/12/1 319/12/1
f 323/6/1 322/6/1 321/6/1
f 324/6/1 322/6/1 323/6/1
f 326/6/1 325/6/1 324/6/1
f 327/6/1 325/6/1 326/6/1
f 332/12/1 329/12/1 328/12/1
f 333/12/1 329/12/1 332/12/1
f 334/12/1 331/12/1 330/12/1
f 335/12/1 331/12/1 334/12/1
f 338/6/1 337/6/1 336/6/1
f 339/6/1 337/6/1 338/6/1
f 342/3/1 341/3/1 340/3/1
f 343/3/1 341/3/1 342/3/1
f 344/6/2 345/6/2 348/6/2
f 348/6/2 345/6/2 349/6/2
f 346/6/2 347/6/2 350/6/2
f 350/6/2 347/6/2 351/6/2
f 352/7/2 353/7/2 354/7/2
f 354/7/2 353/7/2 355/7/2
f 352/7/2 354/7/2 356/7/2
f 355/7/2 353/7/2 357/7/2
f 352/7/2 356/7/2 358/7/2
f 356/7/2 357/7/2 358/7/2
f 357/7/2 353/7/2 359/7/2
f 358/7/2 357/7/2 359/7/2
f 360/7/2 361/7/2 363/7/2
f 363/7/2 361/7/2 364/7/2
f 362/7/2 363/7/2 364/7/2
f 364/7/2 361/7/2 365/7/2
f 362/7/2 364/7/2 366/7/2
f 366/7/2 364/7/2 367/7/2
f 367/7/2 364/7/2 368/7/2
f 368/7/2 364/7/2 369/7/2
f 367/7/2 368/7/2 370/7/2
f 370/7/2 368/7/2 371/7/2
f 374/10/2 375/10/2 376/10/2
f 376/10/2 375/10/2 377/10/2
f 372/6/2 373/6/2 378/6/2
f 378/6/2 373/6/2 379/6/2
f 380/10/2 381/10/2 384/10/2
f 384/10/2 381/10/2 385/10/2
f 382/10/2 383/10/2 386/10/2
f 386/10/2 383/10/2 387/10/2
f 388/6/2 389/6/2 392/6/2
f 392/6/2 389/6/2 393/6/2
f 390/6/2 391/6/2 394/6/2
f 394/6/2 391/6/2 395/6/2
f 396/12/2 397/12/2 408/12/2
f 408/12/2 397/12/2 409/12/2
f 398/12/2 399/12/2 410/12/2
f 410/12/2 399/12/2 411/12/2
f 400/12/2 401/12/2 412/12/2
f 412/12/2 401/12/2 413/12/2
f 402/12/2 403/12/2 414/12/2
f 414/12/2 403/12/2 415/12/2
f 404/12/2 405/12/2 416/12/2
f 416/12/2 405/12/2 417/12/2
f 406/12/2 407/12/2 418/12/2
f 418/12/2 407/12/2 419/12/2
f 420/6/2 421/6/2 422/6/2
f 422/6/2 421/6/2 423/6/2
f 422/3/2 423/3/2 424/3/2
f 423/6/2 421/6/2 425/6/2
f 424/3/2 423/3/2 425/3/2
f 424/6/2 425/6/2 426/6/2
f 425/6/2 421/6/2 427/6/2
f 426/6/2 425/6/2 427/6/2
f 428/12/2 429/12/2 434/12/2
f 434/12/2 429/12/2 435/12/2
f 430/12/2 431/12/2 436/12/2
f 436/12/2 431/12/2 437/12/2
f 432/12/2 433/12/2 438/12/2
f 438/12/2 433/12/2 439/12/2
f 440/12/2 441/12/2 452/12/2
f 452/12/2 441/12/2 453/12/2
f 442/12/2 443/12/2 454/12/2
f 454/12/2 443/12/2 455/12/2
f 444/12/2 445/12/2 456/12/2
f 456/12/2 445/12/2 457/12/2
f 446/12/2 447/12/2 458/12/2
f 458/12/2 447/12/2 459/12/2
f 450/12/2 451/12/2 460/12/2
f 460/12/2 451/12/2 461/12/2
f 448/12/2 449/12/2 462/12/2
f 462/12/2 449/12/2 463/12/2
f 462/9/2 463/9/2 464/9/2
f 464/9/2 463/9/2 465/9/2
f 466/12/2 467/12/2 472/12/2
f 472/12/2 467/12/2 473/12/2
f 468/12/2 469/12/2 474/12/2
f 474/12/2 469/12/2 475/12/2
f 470/12/2 471/12/2 476/12/2
f 476/12/2 471/12/2 477/12/2
f 477/12/2 471/12/2 478/12/2
f 478/12/2 471/12/2 479/12/2
f 479/12/2 471/12/2 480/12/2
f 476/9/2 477/9/2 481/9/2
f 481/9/2 477/9/2 482/9/2
f 477/12/2 478/12/2 483/12/2
f 482/9/2 477/9/2 483/9/2
f 478/9/2 479/9/2 484/9/2
f 483/12/2 478/12/2 484/12/2
f 484/9/2 479/9/2 485/9/2
f 482/9/2 483/9/2 486/9/2
f 483/9/2 484/9/2 486/9/2
f 486/9/2 484/9/2 487/9/2
f 488/12/2 489/12/2 490/12/2
f 490/12/2 489/12/2 491/12/2
f 492/12/2 493/12/2 496/12/2
f 496/12/2 493/12/2 497/12/2
f 494/12/2 495/12/2 498/12/2
f 498/12/2 495/12/2 499/12/2
f 500/12/2 501/12/2 502/12/2
f 502/12/2 501/12/2 503/12/2
f 504/12/2 505/12/2 508/12/2
f 508/12/2 505/12/2 509/12/2
f 506/12/2 507/12/2 510/12/2
f 510/12/2 507/12/2 511/12/2
f 512/3/2 513/3/2 514/3/2
f 514/3/2 513/3/2 515/3/2
f 516/9/2 517/9/2 518/9/2
f 518/9/2 517/9/2 519/9/2
f 520/9/2 521/9/2 522/9/2
f 522/9/2 521/9/2 523/9/2
f 524/9/2 525/9/2 526/9/2
f 526/9/2 525/9/2 527/9/2
f 528/6/2 529/6/2 530/6/2
f 530/6/2 529/6/2 531/6/2
f 531/6/2 532/6/2 533/6/2
f 533/6/2 532/6/2 534/6/2
f 534/6/2 535/6/2 538/6/2
f 538/6/2 535/6/2 539/6/2
f 536/6/2 537/6/2 540/6/2
f 540/6/2 537/6/2 541/6/2
f 539/3/2 540/3/2 542/3/2
f 542/3/2 540/3/2 543/3/2
f 544/12/2 545/12/2 556/12/2
f 556/12/2 545/12/2 557/12/2
f 546/12/2 547/12/2 558/12/2
f 558/12/2 547/12/2 559/12/2
f 548/12/2 549/12/2 560/12/2
f 560/12/2 549/12/2 561/12/2
f 550/12/2 551/12/2 564/12/2
f 564/12/2 551/12/2 565/12/2
f 562/9/2 563/9/2 566/9/2
f 566/9/2 563/9/2 567/9/2
f 564/9/2 565/9/2 569/9/2
f 568/9/2 569/9/2 570/9/2
f 569/9/2 565/9/2 571/9/2
f 570/9/2 569/9/2 571/9/2
f 571/9/2 565/9/2 572/9/2
f 572/9/2 565/9/2 573/9/2
f 552/12/2 553/12/2 574/12/2
f 574/12/2 553/12/2 575/12/2
f 576/9/2 577/9/2 578/9/2
f 578/9/2 577/9/2 579/9/2
f 579/9/2 580/9/2 581/9/2
f 581/9/2 580/9/2 582/9/2
f 582/9/2 583/9/2 584/9/2
f 584/9/2 583/9/2 585/9/2
f 554/12/2 555/12/2 587/12/2
f 587/12/2 555/12/2 588/12/2
f 585/9/2 586/9/2 589/9/2
f 589/9/2 586/9/2 590/9/2
f 587/6/2 588/6/2 592/6/2
f 592/6/2 588/6/2 593/6/2
f 590/6/2 591/6/2 594/6/2
f 594/6/2 591/6/2 595/6/2
f 596/12/2 597/12/2 602/12/2
f 602/12/2 597/12/2 603/12/2
f 598/12/2 599/12/2 604/12/2
f 604/12/2 599/12/2 605/12/2
f 605/12/2 599/12/2 606/12/2
f 605/9/2 606/9/2 607/9/2
f 607/9/2 606/9/2 608/9/2
f 600/12/2 601/12/2 609/12/2
f 609/12/2 601/12/2 610/12/2
f 609/9/2 610/9/2 611/9/2
f 610/12/2 601/12/2 612/12/2
f 611/9/2 610/9/2 612/9/2
f 612/12/2 601/12/2 613/12/2
f 613/12/2 601/12/2 614/12/2
f 614/12/2 601/12/2 615/12/2
f 615/12/2 601/12/2 616/12/2
f 616/12/2 601/12/2 617/12/2
f 617/12/2 601/12/2 618/12/2
f 618/12/2 601/12/2 619/12/2
f 618/6/2 619/6/2 620/6/2
f 620/6/2 619/6/2 621/6/2
f 624/12/3 623/12/3 622/12/3
f 625/12/3 623/12/3 624/12/3
f 628/12/3 627/12/3 626/12/3
f 629/12/3 627/12/3 628/12/3
f 632/12/3 631/12/3 630/12/3
f 633/12/3 631/12/3 632/12/3
f 636/12/3 635/12/3 634/12/3
f 637/12/3 635/12/3 636/12/3
f 642/6/3 639/6/3 638/6/3
f 642/3/3 640/3/3 639/3/3
f 643/6/3 641/6/3 640/6/3
f 643/3/3 640/3/3 642/3/3
f 644/6/3 641/6/3 643/6/3
f 645/6/3 642/6/3 638/6/3
f 645/6/3 643/6/3 642/6/3
f 646/14/3 644/14/3 643/14/3
f 646/6/3 643/6/3 645/6/3
f 647/6/3 641/6/3 644/6/3
f 647/14/3 644/14/3 646/14/3
f 648/9/3 646/9/3 645/9/3
f 649/6/3 647/6/3 646/6/3
f 649/9/3 646/9/3 648/9/3
f 650/9/3 648/9/3 645/9/3
f 650/10/3 649/10/3 648/10/3
f 651/6/3 647/6/3 649/6/3
f 651/10/3 649/10/3 650/10/3
f 652/6/3 645/6/3 638/6/3
f 652/9/3 650/9/3 645/9/3
f 652/9/3 651/9/3 650/9/3
f 653/6/3 647/6/3 651/6/3
f 653/9/3 651/9/3 652/9/3
f 654/6/3 641/6/3 647/6/3
f 654/6/3 647/6/3 653/6/3
f 655/6/3 653/6/3 652/6/3
f 656/14/3 654/14/3 653/14/3
f 656/6/3 653/6/3 655/6/3
f 657/6/3 641/6/3 654/6/3
f 657/14/3 654/14/3 656/14/3
f 660/6/3 652/6/3 638/6/3
f 660/6/3 655/6/3 652/6/3
f 661/3/3 656/3/3 655/3/3
f 661/6/3 655/6/3 660/6/3
f 662/6/3 657/6/3 656/6/3
f 662/3/3 656/3/3 661/3/3
f 663/6/3 641/6/3 657/6/3
f 663/6/3 657/6/3 662/6/3
f 664/12/3 659/12/3 658/12/3
f 665/12/3 659/12/3 664/12/3
f 668/12/3 667/12/3 666/12/3
f 669/12/3 667/12/3 668/12/3
f 672/12/3 671/12/3 670/12/3
f 673/12/3 671/12/3 672/12/3
f 676/12/3 675/12/3 674/12/3
f 677/12/3 675/12/3 676/12/3
f 680/12/3 679/12/3 678/12/3
f 681/12/3 679/12/3 680/12/3
f 684/6/3 683/6/3 682/6/3
f 685/6/3 683/6/3 684/6/3
f 688/7/3 687/7/3 686/7/3
f 689/7/3 687/7/3 688/7/3
f 692/6/3 691/6/3 690/6/3
f 693/6/3 691/6/3 692/6/3
f 696/12/3 695/12/3 694/12/3
f 697/12/3 695/12/3 696/12/3
f 700/7/3 699/7/3 698/7/3
f 701/7/3 699/7/3 700/7/3
f 704/12/3 703/12/3 702/12/3
f 705/12/3 703/12/3 704/12/3
f 708/12/3 707/12/3 706/12/3
f 709/12/3 707/12/3 708/12/3
f 712/12/3 711/12/3 710/12/3
f 713/12/3 711/12/3 712/12/3
f 716/12/3 715/12/3 714/12/3
f 717/12/3 715/12/3 716/12/3
f 720/12/3 719/12/3 718/12/3
f 721/12/3 719/12/3 720/12/3
f 724/6/3 723/6/3 722/6/3
f 725/6/3 723/6/3 724/6/3
f 728/6/3 727/6/3 726/6/3
f 729/6/3 727/6/3 728/6/3
f 732/12/3 731/12/3 730/12/3
f 733/12/3 731/12/3 732/12/3
f 736/12/3 735/12/3 734/12/3
f 737/12/3 735/12/3 736/12/3
f 740/12/3 739/12/3 738/12/3
f 741/12/3 739/12/3 740/12/3
f 744/12/3 743/12/3 742/12/3
f 745/12/3 743/12/3 744/12/3
f 748/12/3 747/12/3 746/12/3
f 749/12/3 747/12/3 748/12/3
f 752/12/3 751/12/3 750/12/3
f 753/12/3 751/12/3 752/12/3
f 756/12/3 755/12/3 754/12/3
f 757/12/3 755/12/3 756/12/3
f 760/12/3 759/12/3 758/12/3
f 761/12/3 759/12/3 760/12/3
f 764/12/3 763/12/3 762/12/3
f 765/12/3 763/12/3 764/12/3
f 768/9/3 767/9/3 766/9/3
f 769/9/3 767/9/3 768/9/3
f 772/9/3 771/9/3 770/9/3
f 773/9/3 771/9/3 772/9/3
f 776/9/3 775/9/3 774/9/3
f 777/9/3 775/9/3 776/9/3
f 780/9/3 779/9/3 778/9/3
f 781/9/3 779/9/3 780/9/3
f 784/9/3 783/9/3 782/9/3
f 785/9/3 783/9/3 784/9/3
f 788/9/3 787/9/3 786/9/3
f 789/9/3 787/9/3 788/9/3
f 792/9/3 791/9/3 790/9/3
f 793/9/3 791/9/3 792/9/3
f 796/9/3 795/9/3 794/9/3
f 797/9/3 795/9/3 796/9/3
f 800/12/3 799/12/3 798/12/3
f 801/12/3 799/12/3 800/12/3
f 804/12/3 803/12/3 802/12/3
f 806/12/3 804/12/3 802/12/3
f 806/9/3 805/9/3 804/9/3
f 807/9/3 805/9/3 806/9/3
f 809/12/3 806/12/3 802/12/3
f 809/12/3 807/12/3 806/12/3
f 810/9/3 808/9/3 807/9/3
f 810/12/3 807/12/3 809/12/3
f 811/9/3 808/9/3 810/9/3
f 815/12/3 813/12/3 812/12/3
f 815/9/3 814/9/3 813/9/3
f 816/9/3 814/9/3 815/9/3
f 817/12/3 815/12/3 812/12/3
f 818/12/3 815/12/3 817/12/3
f 821/12/3 820/12/3 819/12/3
f 822/12/3 820/12/3 821/12/3
f 825/12/3 824/12/3 823/12/3
f 826/12/3 824/12/3 825/12/3
f 829/12/3 828/12/3 827/12/3
f 830/12/3 828/12/3 829/12/3
f 833/9/3 832/9/3 831/9/3
f 834/9/3 832/9/3 833/9/3
f 839/9/3 836/9/3 835/9/3
f 840/12/3 838/12/3 837/12/3
f 840/12/3 839/12/3 838/12/3
f 841/9/3 836/9/3 839/9/3
f 841/12/3 839/12/3 840/12/3
f 842/9/3 836/9/3 841/9/3
f 846/12/3 844/12/3 843/12/3
f 847/9/3 845/9/3 844/9/3
f 847/12/3 844/12/3 846/12/3
f 848/9/3 845/9/3 847/9/3
f 852/9/3 850/9/3 849/9/3
f 853/12/3 852/12/3 851/12/3
f 854/9/3 850/9/3 852/9/3
f 854/12/3 852/12/3 853/12/3
f 855/9/3 850/9/3 854/9/3
f 858/9/3 857/9/3 856/9/3
f 859/9/3 857/9/3 858/9/3
f 862/9/3 861/9/3 860/9/3
f 863/9/3 861/9/3 862/9/3
f 866/9/3 865/9/3 864/9/3
f 867/9/3 865/9/3 866/9/3
f 870/9/3 869/9/3 868/9/3
f 871/9/3 869/9/3 870/9/3
f 874/9/3 873/9/3 872/9/3
f 875/9/3 873/9/3 874/9/3
f 878/9/3 877/9/3 876/9/3
f 879/9/3 877/9/3 878/9/3
f 882/9/3 881/9/3 880/9/3
f 883/9/3 881/9/3 882/9/3
f 885/9/3 884/9/3 883/9/3
f 889/6/3 888/6/3 887/6/3
f 890/6/3 888/6/3 889/6/3
f 892/9/3 885/9/3 883/9/3
f 892/9/3 886/9/3 885/9/3
f 893/9/3 886/9/3 892/9/3
f 894/12/3 892/12/3 891/12/3
f 895/12/3 892/12/3 894/12/3
f 898/9/3 897/9/3 896/9/3
f 899/9/3 897/9/3 898/9/3
f 901/9/3 900/9/3 899/9/3
f 903/9/3 901/9/3 899/9/3
f 904/6/3 902/6/3 901/6/3
f 904/9/3 901/9/3 903/9/3
f 905/9/3 903/9/3 899/9/3
f 906/6/3 902/6/3 904/6/3
f 907/6/3 902/6/3 906/6/3
f 909/9/3 905/9/3 899/9/3
f 909/9/3 906/9/3 905/9/3
f 910/9/3 906/9/3 909/9/3
f 911/12/3 909/12/3 908/12/3
f 912/12/3 909/12/3 911/12/3
f 915/9/3 914/9/3 913/9/3
f 916/9/3 914/9/3 915/9/3
f 918/9/3 917/9/3 916/9/3
f 919/9/3 917/9/3 918/9/3
f 921/9/3 920/9/3 919/9/3
f 922/9/3 920/9/3 921/9/3
f 925/6/3 923/6/3 922/6/3
f 926/6/3 923/6/3 925/6/3
f 928/9/3 925/9/3 924/9/3
f 929/9/3 925/9/3 928/9/3
f 930/12/3 928/12/3 927/12/3
f 931/12/3 928/12/3 930/12/3
f 934/7/3 933/7/3 932/7/3
f 935/7/3 933/7/3 934/7/3
f 938/10/3 937/10/3 936/10/3
f 939/10/3 937/10/3 938/10/3
f 942/9/3 941/9/3 940/9/3
f 943/9/3 941/9/3 942/9/3
f 947/6/3 945/6/3 944/6/3
f 948/3/3 946/3/3 945/3/3
f 948/6/3 945/6/3 947/6/3
f 950/3/3 946/3/3 948/3/3
f 951/3/3 946/3/3 950/3/3
f 953/6/3 950/6/3 949/6/3
f 954/6/3 950/6/3 953/6/3
f 955/6/3 953/6/3 952/6/3
f 956/6/3 953/6/3 955/6/3
f 959/10/3 958/10/3 957/10/3
f 960/10/3 958/10/3 959/10/3
f 963/6/3 962/6/3 961/6/3
f 964/6/3 962/6/3 963/6/3
f 967/10/3 966/10/3 965/10/3
f 968/10/3 966/10/3 967/10/3
f 971/3/3 970/3/3 969/3/3
f 972/3/3 970/3/3 971/3/3
f 973/12/4 974/12/4 975/12/4
f 975/12/4 974/12/4 976/12/4
f 977/12/4 978/12/4 979/12/4
f 979/12/4 978/12/4 980/12/4
f 981/12/4 982/12/4 983/12/4
f 983/12/4 982/12/4 984/12/4
f 985/12/4 986/12/4 987/12/4
f 987/12/4 986/12/4 988/12/4
f 989/12/4 990/12/4 991/12/4
f 991/12/4 990/12/4 992/12/4
f 993/6/4 994/6/4 995/6/4
f 995/6/4 994/6/4 996/6/4
f 997/6/4 998/6/4 999/6/4
f 999/6/4 998/6/4 1000/6/4
f 1001/12/4 1002/12/4 1003/12/4
f 1003/12/4 1002/12/4 1004/12/4
f 1005/7/4 1006/7/4 1007/7/4
f 1007/7/4 1006/7/4 1008/7/4
f 1009/12/4 1010/12/4 1011/12/4
f 1011/12/4 1010/12/4 1012/12/4
f 1013/6/4 1014/6/4 1015/6/4
f 1015/6/4 1014/6/4 1016/6/4
f 1017/6/4 1018/6/4 1019/6/4
f 1019/6/4 1018/6/4 1020/6/4
f 1021/12/4 1022/12/4 1023/12/4
f 1023/12/4 1022/12/4 1024/12/4
f 1025/12/4 1026/12/4 1027/12/4
f 1027/12/4 1026/12/4 1028/12/4
f 1029/12/4 1030/12/4 1031/12/4
f 1031/12/4 1030/12/4 1032/12/4
f 1033/12/4 1034/12/4 1035/12/4
f 1035/12/4 1034/12/4 1036/12/4
f 1037/12/4 1038/12/4 1039/12/4
f 1039/12/4 1038/12/4 1040/12/4
f 1043/6/4 1044/6/4 1045/6/4
f 1045/6/4 1044/6/4 1046/6/4
f 1046/6/4 1044/6/4 1047/6/4
f 1047/6/4 1044/6/4 1048/6/4
f 1046/6/4 1047/6/4 1049/6/4
f 1046/6/4 1049/6/4 1052/6/4
f 1049/6/4 1050/6/4 1052/6/4
f 1041/12/4 1042/12/4 1053/12/4
f 1053/12/4 1042/12/4 1054/12/4
f 1051/6/4 1052/6/4 1055/6/4
f 1052/6/4 1050/6/4 1056/6/4
f 1055/6/4 1052/6/4 1056/6/4
f 1057/12/4 1058/12/4 1059/12/4
f 1059/12/4 1058/12/4 1060/12/4
f 1061/12/4 1062/12/4 1063/12/4
f 1063/12/4 1062/12/4 1064/12/4
f 1065/7/4 1066/7/4 1067/7/4
f 1067/7/4 1066/7/4 1068/7/4
f 1069/7/4 1070/7/4 1071/7/4
f 1071/7/4 1070/7/4 1072/7/4
f 1073/6/4 1074/6/4 1075/6/4
f 1075/6/4 1074/6/4 1076/6/4
f 1077/12/4 1078/12/4 1079/12/4
f 1079/12/4 1078/12/4 1080/12/4
f 1081/12/4 1082/12/4 1083/12/4
f 1083/12/4 1082/12/4 1084/12/4
f 1085/12/4 1086/12/4 1087/12/4
f 1087/12/4 1086/12/4 1088/12/4
f 1089/12/4 1090/12/4 1091/12/4
f 1091/12/4 1090/12/4 1092/12/4
f 1093/12/4 1094/12/4 1096/12/4
f 1094/9/4 1095/9/4 1097/9/4
f 1096/12/4 1094/12/4 1097/12/4
f 1097/9/4 1095/9/4 1098/9/4
f 1099/12/4 1100/12/4 1102/12/4
f 1100/9/4 1101/9/4 1103/9/4
f 1102/12/4 1100/12/4 1103/12/4
f 1103/9/4 1101/9/4 1104/9/4
f 1105/12/4 1106/12/4 1107/12/4
f 1107/12/4 1106/12/4 1108/12/4
f 1109/12/4 1110/12/4 1111/12/4
f 1111/12/4 1110/12/4 1112/12/4
f 1113/12/4 1114/12/4 1116/12/4
f 1114/9/4 1115/9/4 1117/9/4
f 1116/12/4 1114/12/4 1117/12/4
f 1117/9/4 1115/9/4 1118/9/4
f 1119/9/4 1120/9/4 1121/9/4
f 1119/9/4 1121/9/4 1123/9/4
f 1121/9/4 1122/9/4 1123/9/4
f 1123/9/4 1122/9/4 1124/9/4
f 1124/9/4 1122/9/4 1125/9/4
f 1126/10/4 1127/10/4 1128/10/4
f 1128/10/4 1127/10/4 1129/10/4
f 1130/9/4 1131/9/4 1132/9/4
f 1132/9/4 1131/9/4 1133/9/4
f 1134/9/4 1135/9/4 1136/9/4
f 1136/9/4 1135/9/4 1137/9/4
f 1138/9/4 1139/9/4 1140/9/4
f 1140/9/4 1139/9/4 1141/9/4
f 1142/9/4 1143/9/4 1144/9/4
f 1144/9/4 1143/9/4 1145/9/4
f 1146/3/4 1147/3/4 1148/3/4
f 1148/3/4 1147/3/4 1149/3/4
f 1150/10/4 1151/10/4 1152/10/4
f 1152/10/4 1151/10/4 1153/10/4
f 1154/9/4 1155/9/4 1156/9/4
f 1156/9/4 1155/9/4 1157/9/4
f 1157/9/4 1155/9/4 1158/9/4
f 1159/7/4 1160/7/4 1161/7/4
f 1161/7/4 1160/7/4 1162/7/4
f 1163/10/4 1164/10/4 1165/10/4
f 1165/10/4 1164/10/4 1166/10/4
f 1167/9/4 1168/9/4 1169/9/4
f 1169/9/4 1168/9/4 1170/9/4
f 1171/9/4 1172/9/4 1173/9/4
f 1173/9/4 1172/9/4 1174/9/4
f 1175/6/4 1176/6/4 1177/6/4
f 1177/6/4 1176/6/4 1178/6/4
f 1179/3/4 1180/3/4 1182/3/4
f 1182/3/4 1180/3/4 1183/3/4
f 1181/6/4 1182/6/4 1184/6/4
f 1184/6/4 1182/6/4 1185/6/4
f 1186/12/4 1187/12/4 1188/12/4
f 1188/12/4 1187/12/4 1189/12/4
f 1190/12/4 1191/12/4 1192/12/4
f 1192/12/4 1191/12/4 1193/12/4
f 1194/12/4 1195/12/4 1196/12/4
f 1196/12/4 1195/12/4 1197/12/4
f 1198/9/4 1199/9/4 1200/9/4
f 1200/9/4 1199/9/4 1201/9/4
f 1200/12/4 1201/12/4 1204/12/4
f 1201/12/4 1202/12/4 1204/12/4
f 1203/12/4 1204/12/4 1205/12/4
f 1204/12/4 1202/12/4 1206/12/4
f 1205/12/4 1204/12/4 1206/12/4
f 1207/12/4 1208/12/4 1209/12/4
f 1209/12/4 1208/12/4 1210/12/4
f 1211/6/4 1212/6/4 1213/6/4
f 1213/6/4 1212/6/4 1214/6/4
f 1214/6/4 1215/6/4 1216/6/4
f 1216/6/4 1215/6/4 1217/6/4
f 1218/12/4 1219/12/4 1221/12/4
f 1219/6/4 1220/6/4 1222/6/4
f 1221/12/4 1219/12/4 1222/12/4
f 1222/6/4 1220/6/4 1223/6/4
f 1224/12/4 1225/12/4 1226/12/4
f 1226/12/4 1225/12/4 1227/12/4
f 1228/12/4 1229/12/4 1230/12/4
f 1230/12/4 1229/12/4 1231/12/4
f 1232/12/4 1233/12/4 1234/12/4
f 1234/12/4 1235/12/4 1236/12/4
f 1236/12/4 1237/12/4 1238/12/4
f 1238/12/4 1239/12/4 1240/12/4
f 1232/12/4 1234/12/4 1242/12/4
f 1234/12/4 1236/12/4 1242/12/4
f 1238/12/4 1240/12/4 1242/12/4
f 1236/12/4 1238/12/4 1242/12/4
f 1240/6/4 1241/6/4 1243/6/4
f 1242/12/4 1240/12/4 1243/12/4
f 1243/6/4 1241/6/4 1244/6/4
f 1252/12/5 1246/12/5 1245/12/5
f 1253/12/5 1246/12/5 1252/12/5
f 1256/12/5 1248/12/5 1247/12/5
f 1257/12/5 1248/12/5 1256/12/5
f 1260/12/5 1250/12/5 1249/12/5
f 1261/12/5 1250/12/5 1260/12/5
f 1263/12/5 1260/12/5 1259/12/5
f 1263/12/5 1262/12/5 1261/12/5
f 1263/12/5 1261/12/5 1260/12/5
f 1264/12/5 1262/12/5 1263/12/5
f 1265/12/5 1262/12/5 1264/12/5
f 1266/12/5 1262/12/5 1265/12/5
f 1267/12/5 1263/12/5 1259/12/5
f 1268/13/5 1264/13/5 1263/13/5
f 1268/12/5 1263/12/5 1267/12/5
f 1269/12/5 1265/12/5 1264/12/5
f 1269/13/5 1264/13/5 1268/13/5
f 1270/12/5 1265/12/5 1269/12/5
f 1271/13/5 1266/13/5 1265/13/5
f 1271/12/5 1265/12/5 1270/12/5
f 1272/12/5 1262/12/5 1266/12/5
f 1272/13/5 1266/13/5 1271/13/5
f 1273/12/5 1271/12/5 1270/12/5
f 1273/12/5 1272/12/5 1271/12/5
f 1274/12/5 1262/12/5 1272/12/5
f 1274/12/5 1272/12/5 1273/12/5
f 1275/12/5 1267/12/5 1259/12/5
f 1275/13/5 1268/13/5 1267/13/5
f 1275/13/5 1270/13/5 1269/13/5
f 1275/13/5 1269/13/5 1268/13/5
f 1276/13/5 1270/13/5 1275/13/5
f 1277/13/5 1270/13/5 1276/13/5
f 1278/12/5 1273/12/5 1270/12/5
f 1278/13/5 1270/13/5 1277/13/5
f 1279/13/5 1274/13/5 1273/13/5
f 1279/12/5 1273/12/5 1278/12/5
f 1280/12/5 1262/12/5 1274/12/5
f 1280/13/5 1274/13/5 1279/13/5
f 1281/13/5 1277/13/5 1276/13/5
f 1281/12/5 1276/12/5 1275/12/5
f 1282/12/5 1279/12/5 1278/12/5
f 1282/13/5 1277/13/5 1281/13/5
f 1282/12/5 1278/12/5 1277/12/5
f 1282/12/5 1280/12/5 1279/12/5
f 1283/12/5 1280/12/5 1282/12/5
f 1284/12/5 1280/12/5 1283/12/5
f 1285/12/5 1282/12/5 1281/12/5
f 1285/12/5 1283/12/5 1282/12/5
f 1285/13/5 1284/13/5 1283/13/5
f 1286/12/5 1280/12/5 1284/12/5
f 1286/13/5 1284/13/5 1285/13/5
f 1287/12/5 1254/12/5 1253/12/5
f 1287/12/5 1252/12/5 1251/12/5
f 1287/12/5 1253/12/5 1252/12/5
f 1288/12/5 1254/12/5 1287/12/5
f 1289/12/5 1254/12/5 1288/12/5
f 1290/12/5 1254/12/5 1289/12/5
f 1291/12/5 1258/12/5 1257/12/5
f 1291/12/5 1256/12/5 1255/12/5
f 1291/12/5 1257/12/5 1256/12/5
f 1292/12/5 1258/12/5 1291/12/5
f 1293/12/5 1258/12/5 1292/12/5
f 1294/12/5 1258/12/5 1293/12/5
f 1295/12/5 1286/12/5 1285/12/5
f 1295/12/5 1285/12/5 1281/12/5
f 1295/12/5 1281/12/5 1275/12/5
f 1295/12/5 1275/12/5 1259/12/5
f 1296/12/5 1286/12/5 1295/12/5
f 1297/12/5 1280/12/5 1286/12/5
f 1297/12/5 1286/12/5 1296/12/5
f 1297/12/5 1262/12/5 1280/12/5
f 1298/12/5 1262/12/5 1297/12/5
f 1299/12/5 1289/12/5 1288/12/5
f 1300/12/5 1289/12/5 1299/12/5
f 1301/12/5 1293/12/5 1292/12/5
f 1302/12/5 1293/12/5 1301/12/5
f 1303/12/5 1297/12/5 1296/12/5
f 1304/12/5 1297/12/5 1303/12/5
f 1312/12/5 1306/12/5 1305/12/5
f 1313/12/5 1306/12/5 1312/12/5
f 1316/12/5 1308/12/5 1307/12/5
f 1317/12/5 1308/12/5 1316/12/5
f 1320/12/5 1310/12/5 1309/12/5
f 1321/12/5 1310/12/5 1320/12/5
f 1323/12/5 1314/12/5 1313/12/5
f 1323/12/5 1312/12/5 1311/12/5
f 1323/12/5 1313/12/5 1312/12/5
f 1324/12/5 1314/12/5 1323/12/5
f 1325/12/5 1314/12/5 1324/12/5
f 1326/12/5 1314/12/5 1325/12/5
f 1327/12/5 1318/12/5 1317/12/5
f 1327/12/5 1316/12/5 1315/12/5
f 1327/12/5 1317/12/5 1316/12/5
f 1328/12/5 1318/12/5 1327/12/5
f 1329/12/5 1318/12/5 1328/12/5
f 1330/12/5 1318/12/5 1329/12/5
f 1331/12/5 1321/12/5 1320/12/5
f 1331/12/5 1322/12/5 1321/12/5
f 1331/12/5 1320/12/5 1319/12/5
f 1332/12/5 1322/12/5 1331/12/5
f 1333/12/5 1322/12/5 1332/12/5
f 1334/12/5 1322/12/5 1333/12/5
f 1335/12/5 1325/12/5 1324/12/5
f 1336/12/5 1325/12/5 1335/12/5
f 1337/12/5 1329/12/5 1328/12/5
f 1338/12/5 1329/12/5 1337/12/5
f 1339/12/5 1333/12/5 1332/12/5
f 1340/12/5 1333/12/5 1339/12/5
f 1348/12/5 1342/12/5 1341/12/5
f 1349/12/5 1342/12/5 1348/12/5
f 1352/12/5 1344/12/5 1343/12/5
f 1353/12/5 1344/12/5 1352/12/5
f 1356/12/5 1346/12/5 1345/12/5
f 1357/12/5 1346/12/5 1356/12/5
f 1359/12/5 1350/12/5 1349/12/5
f 1359/12/5 1348/12/5 1347/12/5
f 1359/12/5 1349/12/5 1348/12/5
f 1360/12/5 1350/12/5 1359/12/5
f 1361/12/5 1350/12/5 1360/12/5
f 1362/12/5 1350/12/5 1361/12/5
f 1363/12/5 1354/12/5 1353/12/5
f 1363/12/5 1352/12/5 1351/12/5
f 1363/12/5 1353/12/5 1352/12/5
f 1364/12/5 1354/12/5 1363/12/5
f 1365/12/5 1354/12/5 1364/12/5
f 1366/12/5 1354/12/5 1365/12/5
f 1367/12/5 1357/12/5 1356/12/5
f 1367/12/5 1358/12/5 1357/12/5
f 1367/12/5 1356/12/5 1355/12/5
f 1368/12/5 1358/12/5 1367/12/5
f 1369/12/5 1358/12/5 1368/12/5
f 1370/12/5 1358/12/5 1369/12/5
f 1371/12/5 1361/12/5 1360/12/5
f 1372/12/5 1361/12/5 1371/12/5
f 1373/12/5 1365/12/5 1364/12/5
f 1374/12/5 1365/12/5 1373/12/5
f 1375/12/5 1369/12/5 1368/12/5
f 1376/12/5 1369/12/5 1375/12/5
f 1379/6/5 1378/6/5 1377/6/5
f 1380/6/5 1378/6/5 1379/6/5
f 1381/6/5 1378/6/5 1380/6/5
f 1382/6/5 1378/6/5 1381/6/5
f 1383/6/5 1379/6/5 1377/6/5
f 1384/6/5 1381/6/5 1380/6/5
f 1385/6/5 1381/6/5 1384/6/5
f 1386/6/5 1378/6/5 1382/6/5
f 1387/6/5 1385/6/5 1384/6/5
f 1387/6/5 1386/6/5 1385/6/5
f 1387/6/5 1383/6/5 1377/6/5
f 1387/6/5 1384/6/5 1383/6/5
f 1388/6/5 1386/6/5 1387/6/5
f 1389/6/5 1386/6/5 1388/6/5
f 1390/6/5 1378/6/5 1386/6/5
f 1390/6/5 1386/6/5 1389/6/5
f 1391/6/5 1387/6/5 1377/6/5
f 1392/6/5 1389/6/5 1388/6/5
f 1393/6/5 1389/6/5 1392/6/5
f 1394/6/5 1378/6/5 1390/6/5
f 1395/6/5 1391/6/5 1377/6/5
f 1395/6/5 1394/6/5 1393/6/5
f 1395/6/5 1393/6/5 1392/6/5
f 1395/6/5 1392/6/5 1391/6/5
f 1396/6/5 1394/6/5 1395/6/5
f 1397/6/5 1394/6/5 1396/6/5
f 1398/6/5 1378/6/5 1394/6/5
f 1398/6/5 1394/6/5 1397/6/5
f 1399/6/5 1397/6/5 1396/6/5
f 1400/6/5 1397/6/5 1399/6/5
f 1404/10/5 1402/10/5 1401/10/5
f 1405/10/5 1402/10/5 1404/10/5
f 1406/10/5 1404/10/5 1403/10/5
f 1407/10/5 1404/10/5 1406/10/5
f 1409/10/5 1408/10/5 1407/10/5
f 1410/10/5 1408/10/5 1409/10/5
f 1413/7/5 1412/7/5 1411/7/5
f 1414/7/5 1412/7/5 1413/7/5
f 1417/6/5 1416/6/5 1415/6/5
f 1418/6/5 1416/6/5 1417/6/5
f 1419/13/6 1420/13/6 1424/13/6
f 1424/13/6 1420/13/6 1425/13/6
f 1421/13/6 1422/13/6 1427/13/6
f 1427/13/6 1422/13/6 1428/13/6
f 1425/13/6 1426/13/6 1431/13/6
f 1423/13/6 1424/13/6 1431/13/6
f 1424/13/6 1425/13/6 1431/13/6
f 1431/13/6 1426/13/6 1432/13/6
f 1432/13/6 1426/13/6 1433/13/6
f 1433/13/6 1426/13/6 1434/13/6
f 1429/13/6 1430/13/6 1435/13/6
f 1435/13/6 1430/13/6 1436/13/6
f 1432/13/6 1433/13/6 1437/13/6
f 1437/13/6 1433/13/6 1438/13/6
f 1439/13/6 1440/13/6 1441/13/6
f 1441/13/6 1440/13/6 1442/13/6
f 1443/12/6 1444/12/6 1450/12/6
f 1450/12/6 1444/12/6 1451/12/6
f 1445/12/6 1446/12/6 1454/12/6
f 1454/12/6 1446/12/6 1455/12/6
f 1447/12/6 1448/12/6 1458/12/6
f 1458/12/6 1448/12/6 1459/12/6
f 1451/12/6 1452/12/6 1461/12/6
f 1449/12/6 1450/12/6 1461/12/6
f 1450/12/6 1451/12/6 1461/12/6
f 1461/12/6 1452/12/6 1462/12/6
f 1462/12/6 1452/12/6 1463/12/6
f 1463/12/6 1452/12/6 1464/12/6
f 1459/12/6 1460/12/6 1465/12/6
f 1458/12/6 1459/12/6 1465/12/6
f 1457/12/6 1458/12/6 1465/12/6
f 1465/12/6 1460/12/6 1466/12/6
f 1466/12/6 1460/12/6 1467/12/6
f 1467/12/6 1460/12/6 1468/12/6
f 1457/12/6 1465/12/6 1469/12/6
f 1469/12/6 1465/12/6 1470/12/6
f 1466/12/6 1467/12/6 1471/12/6
f 1471/12/6 1467/12/6 1472/12/6
f 1472/12/6 1467/12/6 1473/12/6
f 1468/12/6 1460/12/6 1474/12/6
f 1472/12/6 1473/12/6 1475/12/6
f 1473/12/6 1474/12/6 1475/12/6
f 1474/12/6 1460/12/6 1476/12/6
f 1475/12/6 1474/12/6 1476/12/6
f 1449/12/6 1461/12/6 1477/12/6
f 1462/12/6 1463/12/6 1478/12/6
f 1478/12/6 1463/12/6 1479/12/6
f 1464/12/6 1452/12/6 1480/12/6
f 1457/12/6 1469/12/6 1481/12/6
f 1472/12/6 1475/12/6 1484/12/6
f 1484/12/6 1475/12/6 1485/12/6
f 1476/12/6 1460/12/6 1486/12/6
f 1481/12/6 1482/12/6 1487/12/6
f 1485/12/6 1486/12/6 1488/12/6
f 1484/12/6 1485/12/6 1488/12/6
f 1483/12/6 1484/12/6 1488/12/6
f 1488/12/6 1486/12/6 1489/12/6
f 1489/12/6 1486/12/6 1490/12/6
f 1487/12/6 1488/12/6 1491/12/6
f 1488/12/6 1489/12/6 1491/12/6
f 1490/12/6 1486/12/6 1492/12/6
f 1478/12/6 1479/12/6 1493/12/6
f 1449/12/6 1477/12/6 1493/12/6
f 1479/12/6 1480/12/6 1493/12/6
f 1477/12/6 1478/12/6 1493/12/6
f 1493/12/6 1480/12/6 1494/12/6
f 1494/12/6 1480/12/6 1495/12/6
f 1480/12/6 1452/12/6 1496/12/6
f 1495/12/6 1480/12/6 1496/12/6
f 1449/12/6 1493/12/6 1497/12/6
f 1497/12/6 1493/12/6 1498/12/6
f 1498/12/6 1493/12/6 1499/12/6
f 1494/12/6 1495/12/6 1500/12/6
f 1500/12/6 1495/12/6 1501/12/6
f 1496/12/6 1452/12/6 1502/12/6
f 1502/12/6 1452/12/6 1503/12/6
f 1503/12/6 1452/12/6 1504/12/6
f 1455/12/6 1456/12/6 1505/12/6
f 1453/12/6 1454/12/6 1505/12/6
f 1454/12/6 1455/12/6 1505/12/6
f 1505/12/6 1456/12/6 1506/12/6
f 1506/12/6 1456/12/6 1507/12/6
f 1507/12/6 1456/12/6 1508/12/6
f 1491/12/6 1492/12/6 1509/12/6
f 1481/12/6 1487/12/6 1509/12/6
f 1487/12/6 1491/12/6 1509/12/6
f 1457/12/6 1481/12/6 1509/12/6
f 1509/12/6 1492/12/6 1510/12/6
f 1492/12/6 1486/12/6 1511/12/6
f 1510/12/6 1492/12/6 1511/12/6
f 1486/12/6 1460/12/6 1511/12/6
f 1511/12/6 1460/12/6 1512/12/6
f 1502/12/6 1503/12/6 1513/12/6
f 1499/12/6 1500/12/6 1513/12/6
f 1501/12/6 1502/12/6 1513/12/6
f 1500/12/6 1501/12/6 1513/12/6
f 1498/12/6 1499/12/6 1513/12/6
f 1513/12/6 1503/12/6 1514/12/6
f 1506/12/6 1507/12/6 1515/12/6
f 1515/12/6 1507/12/6 1516/12/6
f 1510/12/6 1511/12/6 1517/12/6
f 1517/12/6 1511/12/6 1518/12/6
f 1519/12/6 1520/12/6 1526/12/6
f 1526/12/6 1520/12/6 1527/12/6
f 1521/12/6 1522/12/6 1530/12/6
f 1530/12/6 1522/12/6 1531/12/6
f 1523/12/6 1524/12/6 1534/12/6
f 1534/12/6 1524/12/6 1535/12/6
f 1534/12/6 1535/12/6 1537/12/6
f 1535/12/6 1536/12/6 1537/12/6
f 1533/12/6 1534/12/6 1537/12/6
f 1537/12/6 1536/12/6 1538/12/6
f 1533/12/6 1537/12/6 1539/12/6
f 1539/12/6 1537/12/6 1540/12/6
f 1538/12/6 1536/12/6 1541/12/6
f 1541/12/6 1536/12/6 1542/12/6
f 1527/12/6 1528/12/6 1543/12/6
f 1525/12/6 1526/12/6 1543/12/6
f 1526/12/6 1527/12/6 1543/12/6
f 1543/12/6 1528/12/6 1544/12/6
f 1544/12/6 1528/12/6 1545/12/6
f 1545/12/6 1528/12/6 1546/12/6
f 1531/12/6 1532/12/6 1547/12/6
f 1529/12/6 1530/12/6 1547/12/6
f 1530/12/6 1531/12/6 1547/12/6
f 1547/12/6 1532/12/6 1548/12/6
f 1548/12/6 1532/12/6 1549/12/6
f 1549/12/6 1532/12/6 1550/12/6
f 1544/12/6 1545/12/6 1551/12/6
f 1551/12/6 1545/12/6 1552/12/6
f 1548/12/6 1549/12/6 1553/12/6
f 1553/12/6 1549/12/6 1554/12/6
f 1555/12/6 1556/12/6 1560/12/6
f 1560/12/6 1556/12/6 1561/12/6
f 1557/12/6 1558/12/6 1564/12/6
f 1564/12/6 1558/12/6 1565/12/6
f 1563/12/6 1564/12/6 1565/12/6
f 1565/12/6 1558/12/6 1566/12/6
f 1561/12/6 1562/12/6 1567/12/6
f 1559/12/6 1560/12/6 1567/12/6
f 1560/12/6 1561/12/6 1567/12/6
f 1567/12/6 1562/12/6 1568/12/6
f 1559/12/6 1567/12/6 1569/12/6
f 1568/12/6 1562/12/6 1570/12/6
f 1563/12/6 1565/12/6 1571/12/6
f 1569/12/6 1570/12/6 1573/12/6
f 1559/12/6 1569/12/6 1573/12/6
f 1573/12/6 1570/12/6 1574/12/6
f 1570/12/6 1562/12/6 1575/12/6
f 1574/12/6 1570/12/6 1575/12/6
f 1575/12/6 1562/12/6 1576/12/6
f 1571/12/6 1572/12/6 1577/12/6
f 1563/12/6 1571/12/6 1577/12/6
f 1577/12/6 1572/12/6 1578/12/6
f 1578/12/6 1572/12/6 1579/12/6
f 1574/12/6 1575/12/6 1582/12/6
f 1582/12/6 1575/12/6 1583/12/6
f 1578/12/6 1579/12/6 1584/12/6
f 1580/12/6 1581/12/6 1584/12/6
f 1579/12/6 1580/12/6 1584/12/6
f 1584/12/6 1581/12/6 1585/12/6
f 1586/9/6 1587/9/6 1589/9/6
f 1589/9/6 1587/9/6 1590/9/6
f 1588/9/6 1589/9/6 1592/9/6
f 1590/9/6 1591/9/6 1592/9/6
f 1589/9/6 1590/9/6 1592/9/6
f 1592/9/6 1591/9/6 1593/9/6
f 1593/9/6 1591/9/6 1594/9/6
f 1594/9/6 1591/9/6 1595/9/6
f 1595/9/6 1591/9/6 1596/9/6
f 1596/9/6 1591/9/6 1597/9/6
f 1598/9/6 1599/9/6 1600/9/6
f 1600/9/6 1599/9/6 1601/9/6
f 1598/9/6 1600/9/6 1602/9/6
f 1602/9/6 1600/9/6 1603/9/6
f 1598/9/6 1602/9/6 1605/9/6
f 1605/9/6 1602/9/6 1606/9/6
f 1604/9/6 1605/9/6 1606/9/6
f 1604/9/6 1606/9/6 1608/9/6
f 1606/9/6 1607/9/6 1608/9/6
f 1608/9/6 1607/9/6 1609/9/6
f 1609/9/6 1607/9/6 1610/9/6
f 1609/9/6 1610/9/6 1612/9/6
f 1610/9/6 1611/9/6 1612/9/6
f 1612/9/6 1611/9/6 1613/9/6
f 1614/9/6 1615/9/6 1616/9/6
f 1616/9/6 1615/9/6 1617/9/6
f 1617/9/6 1615/9/6 1618/9/6
f 1614/9/6 1616/9/6 1620/9/6
f 1620/9/6 1616/9/6 1621/9/6
f 1621/9/6 1616/9/6 1622/9/6
f 1618/9/6 1619/9/6 1623/9/6
f 1617/9/6 1618/9/6 1623/9/6
f 1623/9/6 1619/9/6 1624/9/6
f 1625/9/6 1626/9/6 1628/9/6
f 1628/9/6 1626/9/6 1629/9/6
f 1629/9/6 1626/9/6 1630/9/6
f 1627/9/6 1628/9/6 1632/9/6
f 1628/9/6 1629/9/6 1632/9/6
f 1632/9/6 1629/9/6 1633/9/6
f 1633/9/6 1629/9/6 1634/9/6
f 1635/10/6 1636/10/6 1638/10/6
f 1638/10/6 1636/10/6 1639/10/6
f 1631/9/6 1632/9/6 1640/9/6
f 1632/9/6 1633/9/6 1640/9/6
f 1640/9/6 1633/9/6 1641/9/6
f 1637/10/6 1638/10/6 1642/10/6
f 1642/10/6 1638/10/6 1643/10/6
f 1641/9/6 1633/9/6 1645/9/6
f 1643/10/6 1644/10/6 1648/10/6
f 1648/10/6 1644/10/6 1649/10/6
f 1645/9/6 1646/9/6 1650/9/6
f 1641/9/6 1645/9/6 1650/9/6
f 1646/12/6 1647/12/6 1651/12/6
f 1650/9/6 1646/9/6 1651/9/6
f 1651/12/6 1647/12/6 1652/12/6
f 1652/12/6 1647/12/6 1653/12/6
f 1654/6/6 1655/6/6 1656/6/6
f 1656/6/6 1655/6/6 1657/6/6
f 1658/9/6 1659/9/6 1661/9/6
f 1661/9/6 1659/9/6 1662/9/6
f 1660/9/6 1661/9/6 1664/9/6
f 1662/9/6 1663/9/6 1664/9/6
f 1661/9/6 1662/9/6 1664/9/6
f 1664/9/6 1663/9/6 1665/9/6
f 1666/12/6 1667/12/6 1670/12/6
f 1670/12/6 1667/12/6 1671/12/6
f 1668/9/6 1669/9/6 1673/9/6
f 1673/9/6 1669/9/6 1674/9/6
f 1674/9/6 1669/9/6 1675/9/6
f 1672/9/6 1673/9/6 1676/9/6
f 1673/9/6 1674/9/6 1676/9/6
f 1676/9/6 1674/9/6 1677/9/6
f 1672/9/6 1676/9/6 1680/9/6
f 1680/9/6 1681/9/6 1684/9/6
f 1672/9/6 1680/9/6 1684/9/6
f 1684/9/6 1681/9/6 1685/9/6
f 1678/7/6 1679/7/6 1686/7/6
f 1686/7/6 1679/7/6 1687/7/6
f 1682/12/6 1683/12/6 1688/12/6
f 1688/12/6 1683/12/6 1689/12/6
f 1689/12/6 1683/12/6 1690/12/6
f 1690/12/6 1683/12/6 1691/12/6
f 1692/9/6 1693/9/6 1695/9/6
f 1695/9/6 1693/9/6 1696/9/6
f 1698/9/6 1699/9/6 1701/9/6
f 1694/9/6 1695/9/6 1702/9/6
f 1695/9/6 1696/9/6 1702/9/6
f 1696/9/6 1697/9/6 1702/9/6
f 1702/9/6 1697/9/6 1703/9/6
f 1694/9/6 1702/9/6 1704/9/6
f 1704/9/6 1702/9/6 1705/9/6
f 1703/9/6 1697/9/6 1706/9/6
f 1706/9/6 1697/9/6 1707/9/6
f 1694/9/6 1704/9/6 1708/9/6
f 1700/9/6 1701/9/6 1710/9/6
f 1701/9/6 1699/9/6 1711/9/6
f 1710/9/6 1701/9/6 1711/9/6
f 1708/9/6 1709/9/6 1712/9/6
f 1694/9/6 1708/9/6 1712/9/6
f 1712/9/6 1709/9/6 1713/9/6
f 1714/9/6 1715/9/6 1717/9/6
f 1717/9/6 1715/9/6 1718/9/6
f 1718/12/6 1719/12/6 1720/12/6
f 1720/12/6 1719/12/6 1721/12/6
f 1716/9/6 1717/9/6 1722/9/6
f 1722/9/6 1717/9/6 1723/9/6
f 1724/12/6 1725/12/6 1726/12/6
f 1726/12/6 1725/12/6 1727/12/6
f 1728/9/6 1729/9/6 1730/9/6
f 1730/9/6 1729/9/6 1731/9/6
f 1728/9/6 1730/9/6 1732/9/6
f 1732/9/6 1730/9/6 1733/9/6
f 1728/9/6 1732/9/6 1734/9/6
f 1734/9/6 1732/9/6 1735/9/6
f 1736/9/6 1737/9/6 1739/9/6
f 1739/9/6 1737/9/6 1740/9/6
f 1738/9/6 1739/9/6 1743/9/6
f 1743/9/6 1739/9/6 1744/9/6
f 1740/12/6 1741/12/6 1745/12/6
f 1745/12/6 1741/12/6 1746/12/6
f 1742/9/6 1743/9/6 1747/9/6
f 1747/9/6 1743/9/6 1748/9/6
f 1749/12/6 1750/12/6 1751/12/6
f 1751/12/6 1750/12/6 1752/12/6
f 1753/6/6 1754/6/6 1757/6/6
f 1757/6/6 1754/6/6 1758/6/6
f 1755/9/6 1756/9/6 1761/9/6
f 1761/9/6 1756/9/6 1762/9/6
f 1758/9/6 1759/9/6 1763/9/6
f 1763/9/6 1759/9/6 1764/9/6
f 1760/9/6 1761/9/6 1766/9/6
f 1766/9/6 1761/9/6 1767/9/6
f 1764/12/6 1765/12/6 1768/12/6
f 1768/12/6 1765/12/6 1769/12/6
f 1760/9/6 1766/9/6 1770/9/6
f 1770/9/6 1766/9/6 1771/9/6
f 1770/6/6 1771/6/6 1772/6/6
f 1772/6/6 1771/6/6 1773/6/6
f 1774/12/6 1775/12/6 1776/12/6
f 1776/12/6 1775/12/6 1777/12/6
f 1778/6/6 1779/6/6 1780/6/6
f 1780/6/6 1779/6/6 1781/6/6
f 1778/6/6 1780/6/6 1782/6/6
f 1782/6/6 1780/6/6 1783/6/6
f 1781/6/6 1779/6/6 1784/6/6
f 1784/6/6 1779/6/6 1785/6/6
f 1786/6/6 1787/6/6 1789/6/6
f 1789/6/6 1787/6/6 1790/6/6
f 1788/9/6 1789/9/6 1793/9/6
f 1793/9/6 1789/9/6 1794/9/6
f 1794/9/6 1789/9/6 1795/9/6
f 1790/9/6 1791/9/6 1796/9/6
f 1796/9/6 1791/9/6 1797/9/6
f 1792/9/6 1793/9/6 1799/9/6
f 1793/9/6 1794/9/6 1799/9/6
f 1799/9/6 1794/9/6 1800/9/6
f 1800/9/6 1794/9/6 1801/9/6
f 1797/6/6 1798/6/6 1803/6/6
f 1799/6/6 1800/6/6 1804/6/6
f 1804/6/6 1800/6/6 1805/6/6
f 1802/6/6 1803/6/6 1806/6/6
f 1803/6/6 1798/6/6 1807/6/6
f 1806/6/6 1803/6/6 1807/6/6
f 1807/6/6 1798/6/6 1808/6/6
f 1805/6/6 1806/6/6 1809/6/6
f 1806/6/6 1807/6/6 1809/6/6
f 1809/6/6 1807/6/6 1810/6/6
f 1811/7/6 1812/7/6 1813/7/6
f 1813/7/6 1812/7/6 1814/7/6
f 1815/6/6 1816/6/6 1817/6/6
f 1817/6/6 1816/6/6 1818/6/6
f 1822/3/6 1823/3/6 1824/3/6
f 1824/3/6 1823/3/6 1825/3/6
f 1820/6/6 1821/6/6 1826/6/6
f 1818/6/6 1819/6/6 1827/6/6
f 1827/6/6 1819/6/6 1828/6/6
f 1820/6/6 1826/6/6 1829/6/6
f 1826/6/6 1827/6/6 1829/6/6
f 1829/6/6 1827/6/6 1830/6/6
f 1831/7/6 1832/7/6 1833/7/6
f 1833/7/6 1832/7/6 1834/7/6
f 1835/7/6 1836/7/6 1837/7/6
f 1837/7/6 1836/7/6 1838/7/6
f 1839/3/6 1840/3/6 1841/3/6
f 1841/3/6 1840/3/6 1842/3/6
f 1839/3/6 1841/3/6 1843/3/6
f 1842/3/6 1840/3/6 1844/3/6
f 1839/3/6 1843/3/6 1845/3/6
f 1843/3/6 1844/3/6 1845/3/6
f 1844/3/6 1840/3/6 1846/3/6
f 1845/3/6 1844/3/6 1846/3/6
f 1847/7/6 1848/7/6 1849/7/6
f 1849/7/6 1848/7/6 1850/7/6
