# MagicaVoxel @ Ephtracy

# group
o 

# material
mtllib hard_one_tile.mtl
usemtl palette

# normals
vn -1 0 0
vn 1 0 0
vn 0 0 1
vn 0 0 -1
vn 0 -1 0
vn 0 1 0

# texcoords
vt 0.517578 0.5
vt 0.556641 0.5
vt 0.708984 0.5
vt 0.712891 0.5
vt 0.716797 0.5
vt 0.837891 0.5
vt 0.931641 0.5
vt 0.958984 0.5
vt 0.990234 0.5

# verts
v -1.9 0.3 1.8
v -1.9 0.3 0.8
v -1.9 0.3 0.5
v -1.9 0.3 -0.5
v -1.9 0.3 -0.8
v -1.9 0.3 -1.9
v -1.9 0.4 -1.8
v -1.9 0.4 -1.9
v -1.9 0.5 1.8
v -1.9 0.5 0.8
v -1.9 0.5 0.5
v -1.9 0.5 -0.5
v -1.9 0.5 -0.8
v -1.9 0.5 -1.8
v -1.9 0.7 1.4
v -1.9 0.7 0.8
v -1.9 1 1.4
v -1.9 1 0.8
v -1.8 0.3 1.9
v -1.8 0.3 1.8
v -1.8 0.3 0.8
v -1.8 0.3 0.7
v -1.8 0.3 0.6
v -1.8 0.3 0.5
v -1.8 0.3 -0.5
v -1.8 0.3 -0.6
v -1.8 0.3 -0.7
v -1.8 0.3 -0.8
v -1.8 0.4 -1.8
v -1.8 0.4 -1.9
v -1.8 0.5 1.9
v -1.8 0.5 1.8
v -1.8 0.5 0.8
v -1.8 0.5 0.7
v -1.8 0.5 0.6
v -1.8 0.5 0.5
v -1.8 0.5 -0.5
v -1.8 0.5 -0.6
v -1.8 0.5 -0.7
v -1.8 0.5 -0.8
v -1.8 0.5 -1.2
v -1.8 0.5 -1.3
v -1.8 0.5 -1.6
v -1.8 0.5 -1.7
v -1.8 0.5 -1.8
v -1.8 0.5 -1.9
v -1.8 0.6 1.8
v -1.8 0.6 0.7
v -1.8 0.6 -1.2
v -1.8 0.6 -1.3
v -1.8 0.6 -1.6
v -1.8 0.6 -1.7
v -1.8 0.7 1.4
v -1.8 0.7 0.8
v -1.8 1 1.4
v -1.8 1 0.8
v -1.8 1.1 0.9
v -1.8 1.1 0.7
v -1.8 1.5 1.8
v -1.8 1.5 0.9
v -1.7 0.5 -0.9
v -1.7 0.5 -1
v -1.7 0.5 -1.5
v -1.7 0.5 -1.6
v -1.7 0.5 -1.7
v -1.7 0.5 -1.8
v -1.7 0.6 -0.9
v -1.7 0.6 -1
v -1.7 0.6 -1.5
v -1.7 0.6 -1.6
v -1.7 0.6 -1.7
v -1.7 0.6 -1.8
v -1.6 0.5 1.6
v -1.6 0.5 1
v -1.6 0.5 -0.8
v -1.6 0.5 -0.9
v -1.6 0.5 -1
v -1.6 0.5 -1.1
v -1.6 0.5 -1.3
v -1.6 0.5 -1.4
v -1.6 0.6 1.6
v -1.6 0.6 1
v -1.6 0.6 -0.8
v -1.6 0.6 -0.9
v -1.6 0.6 -1
v -1.6 0.6 -1.1
v -1.6 0.6 -1.3
v -1.6 0.6 -1.4
v -1.5 0.5 -1.2
v -1.5 0.5 -1.3
v -1.5 0.5 -1.4
v -1.5 0.5 -1.5
v -1.5 0.6 -1.2
v -1.5 0.6 -1.3
v -1.5 0.6 -1.4
v -1.5 0.6 -1.5
v -1.5 1.5 1.6
v -1.5 1.5 1.1
v -1.5 1.7 1.6
v -1.5 1.7 1.1
v -1.4 0.8 1.9
v -1.4 0.8 1.8
v -1.4 0.9 1.9
v -1.4 0.9 1.8
v -1.4 1 1.9
v -1.4 1 1.8
v -1.3 0.5 -1.5
v -1.3 0.5 -1.6
v -1.3 0.6 -1.5
v -1.3 0.6 -1.6
v -1.2 0.5 1.6
v -1.2 0.5 1
v -1.2 0.5 -0.8
v -1.2 0.5 -0.9
v -1.2 0.5 -1.1
v -1.2 0.5 -1.2
v -1.2 0.5 -1.7
v -1.2 0.5 -1.8
v -1.2 0.6 1.6
v -1.2 0.6 1
v -1.2 0.6 -0.8
v -1.2 0.6 -0.9
v -1.2 0.6 -1.1
v -1.2 0.6 -1.2
v -1.2 0.6 -1.7
v -1.2 0.6 -1.8
v -1.1 0.5 -1
v -1.1 0.5 -1.1
v -1.1 0.5 -1.2
v -1.1 0.5 -1.3
v -1.1 0.5 -1.5
v -1.1 0.5 -1.6
v -1.1 0.6 -1
v -1.1 0.6 -1.1
v -1.1 0.6 -1.2
v -1.1 0.6 -1.3
v -1.1 0.6 -1.5
v -1.1 0.6 -1.6
v -1 0.5 -1.4
v -1 0.5 -1.5
v -1 0.5 -1.6
v -1 0.5 -1.7
v -1 0.6 -1.4
v -1 0.6 -1.5
v -1 0.6 -1.6
v -1 0.6 -1.7
v -0.6 0.3 1.8
v -0.6 0.3 0.8
v -0.6 0.3 0.5
v -0.6 0.3 -0.5
v -0.6 0.3 -0.8
v -0.6 0.3 -1.8
v -0.6 0.5 1.8
v -0.6 0.5 0.8
v -0.6 0.5 0.5
v -0.6 0.5 -0.5
v -0.6 0.5 -0.8
v -0.6 0.5 -1.8
v -0.5 0.3 1.9
v -0.5 0.3 1.8
v -0.5 0.3 0.8
v -0.5 0.3 0.7
v -0.5 0.3 0.6
v -0.5 0.3 0.5
v -0.5 0.3 -0.5
v -0.5 0.3 -0.6
v -0.5 0.3 -0.7
v -0.5 0.3 -0.8
v -0.5 0.3 -1.8
v -0.5 0.3 -1.9
v -0.5 0.5 1.9
v -0.5 0.5 1.8
v -0.5 0.5 0.8
v -0.5 0.5 0.7
v -0.5 0.5 0.6
v -0.5 0.5 0.5
v -0.5 0.5 -0.5
v -0.5 0.5 -0.6
v -0.5 0.5 -0.7
v -0.5 0.5 -0.8
v -0.5 0.5 -1.8
v -0.5 0.5 -1.9
v 0.7 0.3 1.8
v 0.7 0.3 0.8
v 0.7 0.3 0.5
v 0.7 0.3 -0.5
v 0.7 0.3 -0.8
v 0.7 0.3 -1.8
v 0.7 0.5 1.8
v 0.7 0.5 0.8
v 0.7 0.5 0.5
v 0.7 0.5 -0.5
v 0.7 0.5 -0.8
v 0.7 0.5 -1.8
v 0.8 0.3 1.9
v 0.8 0.3 1.8
v 0.8 0.3 0.8
v 0.8 0.3 0.7
v 0.8 0.3 0.6
v 0.8 0.3 0.5
v 0.8 0.3 -0.5
v 0.8 0.3 -0.6
v 0.8 0.3 -0.7
v 0.8 0.3 -0.8
v 0.8 0.3 -1.8
v 0.8 0.3 -1.9
v 0.8 0.5 1.9
v 0.8 0.5 1.8
v 0.8 0.5 0.8
v 0.8 0.5 0.7
v 0.8 0.5 0.6
v 0.8 0.5 0.5
v 0.8 0.5 -0.5
v 0.8 0.5 -0.6
v 0.8 0.5 -0.7
v 0.8 0.5 -0.8
v 0.8 0.5 -1.5
v 0.8 0.5 -1.6
v 0.8 0.5 -1.7
v 0.8 0.5 -1.8
v 0.8 0.5 -1.9
v 0.8 0.6 -1.5
v 0.8 0.6 -1.6
v 0.8 0.6 -1.7
v 0.8 0.6 -1.8
v 0.8 0.7 -1.4
v 0.8 0.7 -1.5
v 0.8 0.7 -1.6
v 0.8 0.7 -1.7
v 0.8 0.8 -1.4
v 0.8 0.8 -1.5
v 0.8 0.8 -1.7
v 0.8 0.8 -1.8
v 0.8 0.9 -1.7
v 0.8 0.9 -1.8
v 0.9 0.5 1.8
v 0.9 0.5 1.7
v 0.9 0.5 -1.4
v 0.9 0.5 -1.5
v 0.9 0.5 -1.6
v 0.9 0.5 -1.7
v 0.9 0.6 -1.5
v 0.9 0.6 -1.6
v 0.9 0.6 -1.7
v 0.9 0.6 -1.8
v 0.9 0.7 -1.4
v 0.9 0.7 -1.5
v 0.9 0.7 -1.6
v 0.9 0.7 -1.7
v 0.9 0.7 -1.8
v 0.9 0.8 -1.4
v 0.9 0.8 -1.5
v 0.9 0.8 -1.7
v 0.9 0.8 -1.8
v 0.9 0.9 -1.4
v 0.9 0.9 -1.7
v 0.9 1 1.8
v 0.9 1 1.7
v 1.4 0.5 -1
v 1.4 0.5 -1.1
v 1.4 0.5 -1.2
v 1.4 0.5 -1.3
v 1.4 0.5 -1.4
v 1.4 0.6 -1
v 1.4 0.6 -1.1
v 1.4 0.6 -1.2
v 1.4 0.6 -1.3
v 1.4 0.6 -1.4
v 1.4 0.7 -1
v 1.4 0.7 -1.1
v 1.4 0.7 -1.2
v 1.4 0.7 -1.3
v 1.4 0.7 -1.4
v 1.4 0.8 -1.4
v 1.4 0.9 -1.4
v 1.4 1.1 -1
v 1.4 1.1 -1.1
v 1.4 1.1 -1.2
v 1.4 1.1 -1.3
v 1.4 1.1 -1.4
v 1.4 1.2 -1
v 1.4 1.2 -1.1
v 1.4 1.2 -1.2
v 1.4 1.2 -1.4
v 1.4 1.3 -1
v 1.4 1.3 -1.1
v 1.4 1.3 -1.2
v 1.4 1.3 -1.3
v 1.4 1.3 -1.4
v 1.4 1.4 -1.2
v 1.4 1.4 -1.3
v 1.5 1.3 -1
v 1.5 1.3 -1.1
v 1.5 1.4 -1
v 1.5 1.4 -1.1
v 1.6 1.3 -1.1
v 1.6 1.3 -1.2
v 1.6 1.4 -1.1
v 1.6 1.4 -1.2
v 1.7 0.5 1.8
v 1.7 0.5 1.7
v 1.7 0.5 1
v 1.7 0.5 0.9
v 1.7 0.6 1.8
v 1.7 0.6 1.7
v 1.7 0.6 1
v 1.7 0.7 1.8
v 1.7 0.7 1.7
v 1.7 0.7 1
v 1.7 0.8 1.8
v 1.7 0.8 1.7
v 1.7 0.8 1
v 1.7 0.9 1.8
v 1.7 0.9 1.7
v 1.7 0.9 1
v 1.7 1 1.8
v 1.7 1 1.7
v 1.7 1 1
v 1.7 1 0.9
v 1.7 1.3 -1.3
v 1.7 1.3 -1.4
v 1.7 1.4 -1.3
v 1.7 1.4 -1.4
v -1.7 0.5 -1.2
v -1.7 0.5 -1.3
v -1.7 0.6 -1.2
v -1.7 0.6 -1.3
v -1.6 0.5 -1.5
v -1.6 0.5 -1.6
v -1.6 0.5 -1.7
v -1.6 0.5 -1.8
v -1.6 0.6 -1.5
v -1.6 0.6 -1.6
v -1.6 0.6 -1.7
v -1.6 0.6 -1.8
v -1.5 0.5 -0.8
v -1.5 0.5 -0.9
v -1.5 0.5 -1
v -1.5 0.5 -1.1
v -1.5 0.5 -1.6
v -1.5 0.5 -1.7
v -1.5 0.6 -0.8
v -1.5 0.6 -0.9
v -1.5 0.6 -1
v -1.5 0.6 -1.1
v -1.5 0.6 -1.6
v -1.5 0.6 -1.7
v -1.4 0.5 1.6
v -1.4 0.5 1
v -1.4 0.5 -0.9
v -1.4 0.5 -1
v -1.4 0.5 -1.2
v -1.4 0.5 -1.3
v -1.4 0.5 -1.4
v -1.4 0.5 -1.5
v -1.4 0.6 1.6
v -1.4 0.6 1
v -1.4 0.6 -0.9
v -1.4 0.6 -1
v -1.4 0.6 -1.2
v -1.4 0.6 -1.3
v -1.4 0.6 -1.4
v -1.4 0.6 -1.5
v -1.3 0.5 -1.3
v -1.3 0.5 -1.4
v -1.3 0.6 -1.3
v -1.3 0.6 -1.4
v -1.2 0.5 -1.5
v -1.2 0.5 -1.6
v -1.2 0.6 -1.5
v -1.2 0.6 -1.6
v -1.2 0.8 1.9
v -1.2 0.8 1.8
v -1.2 0.9 1.9
v -1.2 0.9 1.8
v -1.2 1 1.9
v -1.2 1 1.8
v -1.1 0.5 -0.8
v -1.1 0.5 -0.9
v -1.1 0.5 -1.7
v -1.1 0.5 -1.8
v -1.1 0.6 -0.8
v -1.1 0.6 -0.9
v -1.1 0.6 -1.7
v -1.1 0.6 -1.8
v -1.1 1.5 1.6
v -1.1 1.5 1.1
v -1.1 1.7 1.6
v -1.1 1.7 1.1
v -1 0.5 1.6
v -1 0.5 1
v -1 0.5 -1
v -1 0.5 -1.1
v -1 0.5 -1.2
v -1 0.5 -1.3
v -1 0.6 1.6
v -1 0.6 1
v -1 0.6 -1
v -1 0.6 -1.1
v -1 0.6 -1.2
v -1 0.6 -1.3
v -0.9 0.5 -1.1
v -0.9 0.5 -1.2
v -0.9 0.5 -1.4
v -0.9 0.5 -1.5
v -0.9 0.5 -1.6
v -0.9 0.5 -1.7
v -0.9 0.6 -1.1
v -0.9 0.6 -1.2
v -0.9 0.6 -1.4
v -0.9 0.6 -1.5
v -0.9 0.6 -1.6
v -0.9 0.6 -1.7
v -0.8 0.3 1.9
v -0.8 0.3 1.8
v -0.8 0.3 0.8
v -0.8 0.3 0.7
v -0.8 0.3 0.6
v -0.8 0.3 0.5
v -0.8 0.3 -0.5
v -0.8 0.3 -0.6
v -0.8 0.3 -0.7
v -0.8 0.3 -0.8
v -0.8 0.3 -1.8
v -0.8 0.3 -1.9
v -0.8 0.5 1.9
v -0.8 0.5 1.8
v -0.8 0.5 0.8
v -0.8 0.5 0.7
v -0.8 0.5 0.6
v -0.8 0.5 0.5
v -0.8 0.5 -0.5
v -0.8 0.5 -0.6
v -0.8 0.5 -0.7
v -0.8 0.5 -0.8
v -0.8 0.5 -1.5
v -0.8 0.5 -1.6
v -0.8 0.5 -1.8
v -0.8 0.5 -1.9
v -0.8 0.6 1.8
v -0.8 0.6 0.7
v -0.8 0.6 -1.5
v -0.8 0.6 -1.6
v -0.8 0.7 1.4
v -0.8 0.7 0.8
v -0.8 1 1.4
v -0.8 1 0.8
v -0.8 1.1 0.9
v -0.8 1.1 0.7
v -0.8 1.5 1.8
v -0.8 1.5 0.9
v -0.7 0.3 1.8
v -0.7 0.3 0.8
v -0.7 0.3 0.5
v -0.7 0.3 -0.5
v -0.7 0.3 -0.8
v -0.7 0.3 -1.8
v -0.7 0.5 1.8
v -0.7 0.5 0.8
v -0.7 0.5 0.5
v -0.7 0.5 -0.5
v -0.7 0.5 -0.8
v -0.7 0.5 -1.8
v -0.7 0.7 1.4
v -0.7 0.7 0.8
v -0.7 1 1.4
v -0.7 1 0.8
v 0.5 0.3 1.9
v 0.5 0.3 1.8
v 0.5 0.3 0.8
v 0.5 0.3 0.7
v 0.5 0.3 0.6
v 0.5 0.3 0.5
v 0.5 0.3 -0.5
v 0.5 0.3 -0.6
v 0.5 0.3 -0.7
v 0.5 0.3 -0.8
v 0.5 0.3 -1.8
v 0.5 0.3 -1.9
v 0.5 0.5 1.9
v 0.5 0.5 1.8
v 0.5 0.5 0.8
v 0.5 0.5 0.7
v 0.5 0.5 0.6
v 0.5 0.5 0.5
v 0.5 0.5 -0.5
v 0.5 0.5 -0.6
v 0.5 0.5 -0.7
v 0.5 0.5 -0.8
v 0.5 0.5 -1.8
v 0.5 0.5 -1.9
v 0.6 0.3 1.8
v 0.6 0.3 0.8
v 0.6 0.3 0.5
v 0.6 0.3 -0.5
v 0.6 0.3 -0.8
v 0.6 0.3 -1.8
v 0.6 0.5 1.8
v 0.6 0.5 0.8
v 0.6 0.5 0.5
v 0.6 0.5 -0.5
v 0.6 0.5 -0.8
v 0.6 0.5 -1.8
v 1 0.5 1.8
v 1 0.5 1.7
v 1 0.6 1.8
v 1 0.6 1.7
v 1 0.7 1.8
v 1 0.7 1.7
v 1 0.8 1.8
v 1 0.8 1.7
v 1 0.9 1.8
v 1 0.9 1.7
v 1 1 1.8
v 1 1 1.7
v 1.5 1.3 -1.2
v 1.5 1.3 -1.3
v 1.5 1.4 -1.2
v 1.5 1.4 -1.3
v 1.6 1.3 -1
v 1.6 1.3 -1.1
v 1.6 1.4 -1
v 1.6 1.4 -1.1
v 1.7 0.5 -1.5
v 1.7 0.5 -1.6
v 1.7 0.5 -1.7
v 1.7 0.5 -1.8
v 1.7 0.6 -1.4
v 1.7 0.6 -1.5
v 1.7 0.6 -1.6
v 1.7 0.6 -1.7
v 1.7 0.6 -1.8
v 1.7 0.7 -1.4
v 1.7 0.7 -1.5
v 1.7 0.7 -1.6
v 1.7 0.7 -1.7
v 1.7 0.7 -1.8
v 1.7 0.8 -1.4
v 1.7 0.8 -1.5
v 1.7 0.8 -1.6
v 1.7 0.8 -1.7
v 1.7 0.8 -1.8
v 1.7 0.9 -1.4
v 1.7 0.9 -1.7
v 1.7 0.9 -1.8
v 1.7 1.3 -1.1
v 1.7 1.3 -1.2
v 1.7 1.4 -1.1
v 1.7 1.4 -1.2
v 1.8 0.3 1.9
v 1.8 0.3 1.8
v 1.8 0.3 0.8
v 1.8 0.3 0.7
v 1.8 0.3 0.6
v 1.8 0.3 0.5
v 1.8 0.3 -0.5
v 1.8 0.3 -0.6
v 1.8 0.3 -0.7
v 1.8 0.3 -0.8
v 1.8 0.3 -1.8
v 1.8 0.3 -1.9
v 1.8 0.5 1.9
v 1.8 0.5 1.8
v 1.8 0.5 1.7
v 1.8 0.5 1
v 1.8 0.5 0.9
v 1.8 0.5 0.8
v 1.8 0.5 0.7
v 1.8 0.5 0.6
v 1.8 0.5 0.5
v 1.8 0.5 -0.5
v 1.8 0.5 -0.6
v 1.8 0.5 -0.7
v 1.8 0.5 -0.8
v 1.8 0.5 -1
v 1.8 0.5 -1.1
v 1.8 0.5 -1.2
v 1.8 0.5 -1.5
v 1.8 0.5 -1.6
v 1.8 0.5 -1.7
v 1.8 0.5 -1.8
v 1.8 0.5 -1.9
v 1.8 0.6 1.7
v 1.8 0.6 1
v 1.8 0.6 -1
v 1.8 0.6 -1.1
v 1.8 0.6 -1.2
v 1.8 0.6 -1.4
v 1.8 0.6 -1.5
v 1.8 0.6 -1.6
v 1.8 0.6 -1.7
v 1.8 0.6 -1.8
v 1.8 0.7 1.7
v 1.8 0.7 1
v 1.8 0.7 -1
v 1.8 0.7 -1.1
v 1.8 0.7 -1.2
v 1.8 0.7 -1.4
v 1.8 0.7 -1.5
v 1.8 0.7 -1.6
v 1.8 0.7 -1.7
v 1.8 0.7 -1.8
v 1.8 0.8 1.7
v 1.8 0.8 1
v 1.8 0.8 -1.5
v 1.8 0.8 -1.6
v 1.8 0.9 1.7
v 1.8 0.9 1
v 1.8 1 1.8
v 1.8 1 1.7
v 1.8 1 1
v 1.8 1 0.9
v 1.8 1.1 -1
v 1.8 1.1 -1.1
v 1.8 1.1 -1.2
v 1.8 1.1 -1.4
v 1.8 1.2 -1
v 1.8 1.2 -1.1
v 1.8 1.2 -1.2
v 1.8 1.2 -1.4
v 1.8 1.3 -1
v 1.8 1.3 -1.1
v 1.8 1.3 -1.2
v 1.8 1.3 -1.3
v 1.8 1.4 -1.3
v 1.8 1.4 -1.4
v 1.9 0.3 1.8
v 1.9 0.3 0.8
v 1.9 0.3 0.5
v 1.9 0.3 -0.5
v 1.9 0.3 -0.8
v 1.9 0.3 -1.8
v 1.9 0.5 1.8
v 1.9 0.5 0.8
v 1.9 0.5 0.5
v 1.9 0.5 -0.5
v 1.9 0.5 -0.8
v 1.9 0.5 -1.8
v -1.8 0.3 1.9
v -1.8 0.5 1.9
v -1.4 0.8 1.9
v -1.4 0.9 1.9
v -1.4 1 1.9
v -1.2 0.8 1.9
v -1.2 0.9 1.9
v -1.2 1 1.9
v -0.8 0.3 1.9
v -0.8 0.5 1.9
v -0.5 0.3 1.9
v -0.5 0.5 1.9
v 0.5 0.3 1.9
v 0.5 0.5 1.9
v 0.8 0.3 1.9
v 0.8 0.5 1.9
v 1.8 0.3 1.9
v 1.8 0.5 1.9
v -1.9 0.3 1.8
v -1.9 0.5 1.8
v -1.8 0.3 1.8
v -1.8 0.5 1.8
v -1.8 0.6 1.8
v -1.8 1.5 1.8
v -1.5 1 1.8
v -1.5 1.2 1.8
v -1.4 0.8 1.8
v -1.4 0.9 1.8
v -1.4 1 1.8
v -1.4 1.2 1.8
v -1.2 0.8 1.8
v -1.2 0.9 1.8
v -1.2 1 1.8
v -1.2 1.2 1.8
v -1.1 1 1.8
v -1.1 1.2 1.8
v -0.8 0.3 1.8
v -0.8 0.5 1.8
v -0.8 0.6 1.8
v -0.8 1.5 1.8
v -0.7 0.3 1.8
v -0.7 0.5 1.8
v -0.6 0.3 1.8
v -0.6 0.5 1.8
v -0.5 0.3 1.8
v -0.5 0.5 1.8
v 0.5 0.3 1.8
v 0.5 0.5 1.8
v 0.6 0.3 1.8
v 0.6 0.5 1.8
v 0.7 0.3 1.8
v 0.7 0.5 1.8
v 0.8 0.3 1.8
v 0.8 0.5 1.8
v 0.9 0.5 1.8
v 0.9 1 1.8
v 1 0.5 1.8
v 1 0.6 1.8
v 1 0.7 1.8
v 1 0.8 1.8
v 1 0.9 1.8
v 1 1 1.8
v 1.7 0.5 1.8
v 1.7 0.6 1.8
v 1.7 0.7 1.8
v 1.7 0.8 1.8
v 1.7 0.9 1.8
v 1.7 1 1.8
v 1.8 0.3 1.8
v 1.8 0.5 1.8
v 1.8 1 1.8
v 1.9 0.3 1.8
v 1.9 0.5 1.8
v -1.6 0.5 1.6
v -1.6 0.6 1.6
v -1.5 1.5 1.6
v -1.5 1.7 1.6
v -1.4 0.5 1.6
v -1.4 0.6 1.6
v -1.2 0.5 1.6
v -1.2 0.6 1.6
v -1.1 1.5 1.6
v -1.1 1.7 1.6
v -1 0.5 1.6
v -1 0.6 1.6
v -1.9 0.7 1.4
v -1.9 1 1.4
v -1.8 0.7 1.4
v -1.8 1 1.4
v -0.8 0.7 1.4
v -0.8 1 1.4
v -0.7 0.7 1.4
v -0.7 1 1.4
v 1.7 0.5 1
v 1.7 0.6 1
v 1.7 0.7 1
v 1.7 0.8 1
v 1.7 0.9 1
v 1.7 1 1
v 1.8 0.5 1
v 1.8 0.6 1
v 1.8 0.7 1
v 1.8 0.8 1
v 1.8 0.9 1
v 1.8 1 1
v -1.8 0.3 0.6
v -1.8 0.5 0.6
v -0.8 0.3 0.6
v -0.8 0.5 0.6
v -0.5 0.3 0.6
v -0.5 0.5 0.6
v 0.5 0.3 0.6
v 0.5 0.5 0.6
v 0.8 0.3 0.6
v 0.8 0.5 0.6
v 1.8 0.3 0.6
v 1.8 0.5 0.6
v -1.9 0.3 0.5
v -1.9 0.5 0.5
v -1.8 0.3 0.5
v -1.8 0.5 0.5
v -0.8 0.3 0.5
v -0.8 0.5 0.5
v -0.7 0.3 0.5
v -0.7 0.5 0.5
v -0.6 0.3 0.5
v -0.6 0.5 0.5
v -0.5 0.3 0.5
v -0.5 0.5 0.5
v 0.5 0.3 0.5
v 0.5 0.5 0.5
v 0.6 0.3 0.5
v 0.6 0.5 0.5
v 0.7 0.3 0.5
v 0.7 0.5 0.5
v 0.8 0.3 0.5
v 0.8 0.5 0.5
v 1.8 0.3 0.5
v 1.8 0.5 0.5
v 1.9 0.3 0.5
v 1.9 0.5 0.5
v -1.8 0.3 -0.7
v -1.8 0.5 -0.7
v -0.8 0.3 -0.7
v -0.8 0.5 -0.7
v -0.5 0.3 -0.7
v -0.5 0.5 -0.7
v 0.5 0.3 -0.7
v 0.5 0.5 -0.7
v 0.8 0.3 -0.7
v 0.8 0.5 -0.7
v 1.8 0.3 -0.7
v 1.8 0.5 -0.7
v -1.9 0.3 -0.8
v -1.9 0.5 -0.8
v -1.8 0.3 -0.8
v -1.8 0.5 -0.8
v -1.6 0.5 -0.8
v -1.6 0.6 -0.8
v -1.5 0.5 -0.8
v -1.5 0.6 -0.8
v -1.2 0.5 -0.8
v -1.2 0.6 -0.8
v -1.1 0.5 -0.8
v -1.1 0.6 -0.8
v -0.8 0.3 -0.8
v -0.8 0.5 -0.8
v -0.7 0.3 -0.8
v -0.7 0.5 -0.8
v -0.6 0.3 -0.8
v -0.6 0.5 -0.8
v -0.5 0.3 -0.8
v -0.5 0.5 -0.8
v 0.5 0.3 -0.8
v 0.5 0.5 -0.8
v 0.6 0.3 -0.8
v 0.6 0.5 -0.8
v 0.7 0.3 -0.8
v 0.7 0.5 -0.8
v 0.8 0.3 -0.8
v 0.8 0.5 -0.8
v 1.8 0.3 -0.8
v 1.8 0.5 -0.8
v 1.9 0.3 -0.8
v 1.9 0.5 -0.8
v -1.7 0.5 -0.9
v -1.7 0.6 -0.9
v -1.6 0.5 -0.9
v -1.6 0.6 -0.9
v -1.5 0.5 -0.9
v -1.5 0.6 -0.9
v -1.4 0.5 -0.9
v -1.4 0.6 -0.9
v -1.1 0.5 -1
v -1.1 0.6 -1
v -1 0.5 -1
v -1 0.6 -1
v 1.4 0.5 -1
v 1.4 0.6 -1
v 1.4 0.7 -1
v 1.4 1.1 -1
v 1.4 1.2 -1
v 1.4 1.3 -1
v 1.5 0.5 -1
v 1.5 0.6 -1
v 1.5 0.7 -1
v 1.5 1.1 -1
v 1.5 1.2 -1
v 1.5 1.3 -1
v 1.5 1.4 -1
v 1.6 0.5 -1
v 1.6 0.6 -1
v 1.6 0.7 -1
v 1.6 1.1 -1
v 1.6 1.2 -1
v 1.6 1.3 -1
v 1.6 1.4 -1
v 1.7 0.5 -1
v 1.7 0.6 -1
v 1.7 0.7 -1
v 1.7 1.1 -1
v 1.7 1.2 -1
v 1.7 1.3 -1
v 1.8 0.5 -1
v 1.8 0.6 -1
v 1.8 0.7 -1
v 1.8 1.1 -1
v 1.8 1.2 -1
v 1.8 1.3 -1
v -1.2 0.5 -1.1
v -1.2 0.6 -1.1
v -1.1 0.5 -1.1
v -1.1 0.6 -1.1
v -1 0.5 -1.1
v -1 0.6 -1.1
v -0.9 0.5 -1.1
v -0.9 0.6 -1.1
v 1.6 1.3 -1.1
v 1.6 1.4 -1.1
v 1.7 1.3 -1.1
v 1.7 1.4 -1.1
v -1.8 0.5 -1.2
v -1.8 0.6 -1.2
v -1.7 0.5 -1.2
v -1.7 0.6 -1.2
v -1.5 0.5 -1.2
v -1.5 0.6 -1.2
v -1.4 0.5 -1.2
v -1.4 0.6 -1.2
v 1.4 1.3 -1.2
v 1.4 1.4 -1.2
v 1.5 1.3 -1.2
v 1.5 1.4 -1.2
v -1.6 0.5 -1.3
v -1.6 0.6 -1.3
v -1.5 0.5 -1.3
v -1.5 0.6 -1.3
v -1.4 0.5 -1.3
v -1.4 0.6 -1.3
v -1.3 0.5 -1.3
v -1.3 0.6 -1.3
v 1.7 1.3 -1.3
v 1.7 1.4 -1.3
v 1.8 1.3 -1.3
v 1.8 1.4 -1.3
v -1 0.5 -1.4
v -1 0.6 -1.4
v -0.9 0.5 -1.4
v -0.9 0.6 -1.4
v 0.8 0.7 -1.4
v 0.8 0.8 -1.4
v 0.9 0.5 -1.4
v 0.9 0.7 -1.4
v 0.9 0.8 -1.4
v 0.9 0.9 -1.4
v 1 0.5 -1.4
v 1 0.7 -1.4
v 1 0.8 -1.4
v 1 0.9 -1.4
v 1.1 0.5 -1.4
v 1.1 0.7 -1.4
v 1.1 0.8 -1.4
v 1.1 0.9 -1.4
v 1.4 0.5 -1.4
v 1.4 0.6 -1.4
v 1.4 0.7 -1.4
v 1.4 0.8 -1.4
v 1.4 0.9 -1.4
v -1.7 0.5 -1.5
v -1.7 0.6 -1.5
v -1.6 0.5 -1.5
v -1.6 0.6 -1.5
v -1.3 0.5 -1.5
v -1.3 0.6 -1.5
v -1.2 0.5 -1.5
v -1.2 0.6 -1.5
v -1.1 0.5 -1.5
v -1.1 0.6 -1.5
v -1 0.5 -1.5
v -1 0.6 -1.5
v -0.9 0.5 -1.5
v -0.9 0.6 -1.5
v -0.8 0.5 -1.5
v -0.8 0.6 -1.5
v 0.8 0.5 -1.5
v 0.8 0.6 -1.5
v 0.9 0.5 -1.5
v 0.9 0.6 -1.5
v 1.7 0.7 -1.5
v 1.7 0.8 -1.5
v 1.8 0.7 -1.5
v 1.8 0.8 -1.5
v -1.8 0.5 -1.6
v -1.8 0.6 -1.6
v -1.7 0.5 -1.6
v -1.7 0.6 -1.6
v -1.6 0.5 -1.6
v -1.6 0.6 -1.6
v -1.5 0.5 -1.6
v -1.5 0.6 -1.6
v 0.8 0.6 -1.6
v 0.8 0.7 -1.6
v 0.9 0.6 -1.6
v 0.9 0.7 -1.6
v 1.7 0.5 -1.6
v 1.7 0.6 -1.6
v 1.8 0.5 -1.6
v 1.8 0.6 -1.6
v -1.2 0.5 -1.7
v -1.2 0.6 -1.7
v -1.1 0.5 -1.7
v -1.1 0.6 -1.7
v 0.8 0.5 -1.7
v 0.8 0.6 -1.7
v 0.8 0.8 -1.7
v 0.8 0.9 -1.7
v 0.9 0.5 -1.7
v 0.9 0.6 -1.7
v 0.9 0.8 -1.7
v 0.9 0.9 -1.7
v 1.7 0.6 -1.7
v 1.7 0.7 -1.7
v 1.8 0.6 -1.7
v 1.8 0.7 -1.7
v 0.9 0.5 1.7
v 0.9 1 1.7
v 1 0.5 1.7
v 1 0.6 1.7
v 1 0.7 1.7
v 1 0.8 1.7
v 1 0.9 1.7
v 1 1 1.7
v 1.7 0.5 1.7
v 1.7 0.6 1.7
v 1.7 0.7 1.7
v 1.7 0.8 1.7
v 1.7 0.9 1.7
v 1.7 1 1.7
v 1.8 0.5 1.7
v 1.8 0.6 1.7
v 1.8 0.7 1.7
v 1.8 0.8 1.7
v 1.8 0.9 1.7
v 1.8 1 1.7
v -1.5 1.5 1.1
v -1.5 1.7 1.1
v -1.1 1.5 1.1
v -1.1 1.7 1.1
v -1.6 0.5 1
v -1.6 0.6 1
v -1.4 0.5 1
v -1.4 0.6 1
v -1.2 0.5 1
v -1.2 0.6 1
v -1 0.5 1
v -1 0.6 1
v -1.8 1.1 0.9
v -1.8 1.5 0.9
v -0.8 1.1 0.9
v -0.8 1.5 0.9
v 1.7 0.5 0.9
v 1.7 1 0.9
v 1.8 0.5 0.9
v 1.8 1 0.9
v -1.9 0.3 0.8
v -1.9 0.5 0.8
v -1.9 0.7 0.8
v -1.9 1 0.8
v -1.8 0.3 0.8
v -1.8 0.5 0.8
v -1.8 0.7 0.8
v -1.8 1 0.8
v -0.8 0.3 0.8
v -0.8 0.5 0.8
v -0.8 0.7 0.8
v -0.8 1 0.8
v -0.7 0.3 0.8
v -0.7 0.5 0.8
v -0.7 0.7 0.8
v -0.7 1 0.8
v -0.6 0.3 0.8
v -0.6 0.5 0.8
v -0.5 0.3 0.8
v -0.5 0.5 0.8
v 0.5 0.3 0.8
v 0.5 0.5 0.8
v 0.6 0.3 0.8
v 0.6 0.5 0.8
v 0.7 0.3 0.8
v 0.7 0.5 0.8
v 0.8 0.3 0.8
v 0.8 0.5 0.8
v 1.8 0.3 0.8
v 1.8 0.5 0.8
v 1.9 0.3 0.8
v 1.9 0.5 0.8
v -1.8 0.3 0.7
v -1.8 0.5 0.7
v -1.8 0.6 0.7
v -1.8 1.1 0.7
v -0.8 0.3 0.7
v -0.8 0.5 0.7
v -0.8 0.6 0.7
v -0.8 1.1 0.7
v -0.5 0.3 0.7
v -0.5 0.5 0.7
v 0.5 0.3 0.7
v 0.5 0.5 0.7
v 0.8 0.3 0.7
v 0.8 0.5 0.7
v 1.8 0.3 0.7
v 1.8 0.5 0.7
v -1.9 0.3 -0.5
v -1.9 0.5 -0.5
v -1.8 0.3 -0.5
v -1.8 0.5 -0.5
v -0.8 0.3 -0.5
v -0.8 0.5 -0.5
v -0.7 0.3 -0.5
v -0.7 0.5 -0.5
v -0.6 0.3 -0.5
v -0.6 0.5 -0.5
v -0.5 0.3 -0.5
v -0.5 0.5 -0.5
v 0.5 0.3 -0.5
v 0.5 0.5 -0.5
v 0.6 0.3 -0.5
v 0.6 0.5 -0.5
v 0.7 0.3 -0.5
v 0.7 0.5 -0.5
v 0.8 0.3 -0.5
v 0.8 0.5 -0.5
v 1.8 0.3 -0.5
v 1.8 0.5 -0.5
v 1.9 0.3 -0.5
v 1.9 0.5 -0.5
v -1.8 0.3 -0.6
v -1.8 0.5 -0.6
v -0.8 0.3 -0.6
v -0.8 0.5 -0.6
v -0.5 0.3 -0.6
v -0.5 0.5 -0.6
v 0.5 0.3 -0.6
v 0.5 0.5 -0.6
v 0.8 0.3 -0.6
v 0.8 0.5 -0.6
v 1.8 0.3 -0.6
v 1.8 0.5 -0.6
v -1.2 0.5 -0.9
v -1.2 0.6 -0.9
v -1.1 0.5 -0.9
v -1.1 0.6 -0.9
v -1.7 0.5 -1
v -1.7 0.6 -1
v -1.6 0.5 -1
v -1.6 0.6 -1
v -1.5 0.5 -1
v -1.5 0.6 -1
v -1.4 0.5 -1
v -1.4 0.6 -1
v -1.6 0.5 -1.1
v -1.6 0.6 -1.1
v -1.5 0.5 -1.1
v -1.5 0.6 -1.1
v 1.5 1.3 -1.1
v 1.5 1.4 -1.1
v 1.6 1.3 -1.1
v 1.6 1.4 -1.1
v -1.2 0.5 -1.2
v -1.2 0.6 -1.2
v -1.1 0.5 -1.2
v -1.1 0.6 -1.2
v -1 0.5 -1.2
v -1 0.6 -1.2
v -0.9 0.5 -1.2
v -0.9 0.6 -1.2
v 1.6 1.3 -1.2
v 1.6 1.4 -1.2
v 1.7 1.3 -1.2
v 1.7 1.4 -1.2
v -1.8 0.5 -1.3
v -1.8 0.6 -1.3
v -1.7 0.5 -1.3
v -1.7 0.6 -1.3
v -1.1 0.5 -1.3
v -1.1 0.6 -1.3
v -1 0.5 -1.3
v -1 0.6 -1.3
v 1.4 1.3 -1.3
v 1.4 1.4 -1.3
v 1.5 1.3 -1.3
v 1.5 1.4 -1.3
v -1.6 0.5 -1.4
v -1.6 0.6 -1.4
v -1.5 0.5 -1.4
v -1.5 0.6 -1.4
v -1.4 0.5 -1.4
v -1.4 0.6 -1.4
v -1.3 0.5 -1.4
v -1.3 0.6 -1.4
v 1.4 0.9 -1.4
v 1.4 1.1 -1.4
v 1.4 1.2 -1.4
v 1.4 1.3 -1.4
v 1.5 0.9 -1.4
v 1.5 1.2 -1.4
v 1.5 1.3 -1.4
v 1.6 0.9 -1.4
v 1.6 1.2 -1.4
v 1.6 1.3 -1.4
v 1.7 0.6 -1.4
v 1.7 0.7 -1.4
v 1.7 0.8 -1.4
v 1.7 0.9 -1.4
v 1.7 1.2 -1.4
v 1.7 1.3 -1.4
v 1.7 1.4 -1.4
v 1.8 0.6 -1.4
v 1.8 0.7 -1.4
v 1.8 1.1 -1.4
v 1.8 1.2 -1.4
v 1.8 1.4 -1.4
v -1.5 0.5 -1.5
v -1.5 0.6 -1.5
v -1.4 0.5 -1.5
v -1.4 0.6 -1.5
v 0.8 0.7 -1.5
v 0.8 0.8 -1.5
v 0.9 0.7 -1.5
v 0.9 0.8 -1.5
v 1.7 0.5 -1.5
v 1.7 0.6 -1.5
v 1.8 0.5 -1.5
v 1.8 0.6 -1.5
v -1.3 0.5 -1.6
v -1.3 0.6 -1.6
v -1.2 0.5 -1.6
v -1.2 0.6 -1.6
v -1.1 0.5 -1.6
v -1.1 0.6 -1.6
v -1 0.5 -1.6
v -1 0.6 -1.6
v -0.9 0.5 -1.6
v -0.9 0.6 -1.6
v -0.8 0.5 -1.6
v -0.8 0.6 -1.6
v 0.8 0.5 -1.6
v 0.8 0.6 -1.6
v 0.9 0.5 -1.6
v 0.9 0.6 -1.6
v 1.7 0.7 -1.6
v 1.7 0.8 -1.6
v 1.8 0.7 -1.6
v 1.8 0.8 -1.6
v -1.8 0.5 -1.7
v -1.8 0.6 -1.7
v -1.7 0.5 -1.7
v -1.7 0.6 -1.7
v -1.6 0.5 -1.7
v -1.6 0.6 -1.7
v -1.5 0.5 -1.7
v -1.5 0.6 -1.7
v -1 0.5 -1.7
v -1 0.6 -1.7
v -0.9 0.5 -1.7
v -0.9 0.6 -1.7
v 0.8 0.6 -1.7
v 0.8 0.7 -1.7
v 0.9 0.6 -1.7
v 0.9 0.7 -1.7
v 1.7 0.5 -1.7
v 1.7 0.6 -1.7
v 1.8 0.5 -1.7
v 1.8 0.6 -1.7
v -1.9 0.4 -1.8
v -1.9 0.5 -1.8
v -1.8 0.4 -1.8
v -1.8 0.5 -1.8
v -1.7 0.5 -1.8
v -1.7 0.6 -1.8
v -1.6 0.5 -1.8
v -1.6 0.6 -1.8
v -1.2 0.5 -1.8
v -1.2 0.6 -1.8
v -1.1 0.5 -1.8
v -1.1 0.6 -1.8
v -0.8 0.3 -1.8
v -0.8 0.5 -1.8
v -0.7 0.3 -1.8
v -0.7 0.5 -1.8
v -0.6 0.3 -1.8
v -0.6 0.5 -1.8
v -0.5 0.3 -1.8
v -0.5 0.5 -1.8
v 0.5 0.3 -1.8
v 0.5 0.5 -1.8
v 0.6 0.3 -1.8
v 0.6 0.5 -1.8
v 0.7 0.3 -1.8
v 0.7 0.5 -1.8
v 0.8 0.3 -1.8
v 0.8 0.5 -1.8
v 0.8 0.6 -1.8
v 0.8 0.8 -1.8
v 0.8 0.9 -1.8
v 0.9 0.5 -1.8
v 0.9 0.6 -1.8
v 0.9 0.7 -1.8
v 0.9 0.8 -1.8
v 1 0.5 -1.8
v 1 0.6 -1.8
v 1 0.7 -1.8
v 1 0.8 -1.8
v 1 0.9 -1.8
v 1.1 0.5 -1.8
v 1.1 0.6 -1.8
v 1.1 0.7 -1.8
v 1.1 0.8 -1.8
v 1.1 0.9 -1.8
v 1.5 0.5 -1.8
v 1.5 0.6 -1.8
v 1.5 0.7 -1.8
v 1.5 0.8 -1.8
v 1.5 0.9 -1.8
v 1.6 0.5 -1.8
v 1.6 0.7 -1.8
v 1.6 0.8 -1.8
v 1.6 0.9 -1.8
v 1.7 0.5 -1.8
v 1.7 0.6 -1.8
v 1.7 0.7 -1.8
v 1.7 0.8 -1.8
v 1.7 0.9 -1.8
v 1.8 0.3 -1.8
v 1.8 0.5 -1.8
v 1.8 0.6 -1.8
v 1.8 0.7 -1.8
v 1.9 0.3 -1.8
v 1.9 0.5 -1.8
v -1.9 0.3 -1.9
v -1.9 0.4 -1.9
v -1.8 0.4 -1.9
v -1.8 0.5 -1.9
v -0.8 0.3 -1.9
v -0.8 0.5 -1.9
v -0.5 0.3 -1.9
v -0.5 0.5 -1.9
v 0.5 0.3 -1.9
v 0.5 0.5 -1.9
v 0.8 0.3 -1.9
v 0.8 0.5 -1.9
v 1.8 0.3 -1.9
v 1.8 0.5 -1.9
v -1.8 0.3 1.9
v -0.8 0.3 1.9
v -0.5 0.3 1.9
v 0.5 0.3 1.9
v 0.8 0.3 1.9
v 1.8 0.3 1.9
v -1.9 0.3 1.8
v -1.8 0.3 1.8
v -0.8 0.3 1.8
v -0.7 0.3 1.8
v -0.6 0.3 1.8
v -0.5 0.3 1.8
v 0.5 0.3 1.8
v 0.6 0.3 1.8
v 0.7 0.3 1.8
v 0.8 0.3 1.8
v 1.8 0.3 1.8
v 1.9 0.3 1.8
v -1.9 0.3 0.8
v -1.8 0.3 0.8
v -0.8 0.3 0.8
v -0.7 0.3 0.8
v -0.6 0.3 0.8
v -0.5 0.3 0.8
v 0.5 0.3 0.8
v 0.6 0.3 0.8
v 0.7 0.3 0.8
v 0.8 0.3 0.8
v 1.8 0.3 0.8
v 1.9 0.3 0.8
v -1.8 0.3 0.7
v -0.8 0.3 0.7
v -0.5 0.3 0.7
v 0.5 0.3 0.7
v 0.8 0.3 0.7
v 1.8 0.3 0.7
v -1.8 0.3 0.6
v -0.8 0.3 0.6
v -0.5 0.3 0.6
v 0.5 0.3 0.6
v 0.8 0.3 0.6
v 1.8 0.3 0.6
v -1.9 0.3 0.5
v -1.8 0.3 0.5
v -0.8 0.3 0.5
v -0.7 0.3 0.5
v -0.6 0.3 0.5
v -0.5 0.3 0.5
v 0.5 0.3 0.5
v 0.6 0.3 0.5
v 0.7 0.3 0.5
v 0.8 0.3 0.5
v 1.8 0.3 0.5
v 1.9 0.3 0.5
v -1.9 0.3 -0.5
v -1.8 0.3 -0.5
v -0.8 0.3 -0.5
v -0.7 0.3 -0.5
v -0.6 0.3 -0.5
v -0.5 0.3 -0.5
v 0.5 0.3 -0.5
v 0.6 0.3 -0.5
v 0.7 0.3 -0.5
v 0.8 0.3 -0.5
v 1.8 0.3 -0.5
v 1.9 0.3 -0.5
v -1.8 0.3 -0.6
v -0.8 0.3 -0.6
v -0.5 0.3 -0.6
v 0.5 0.3 -0.6
v 0.8 0.3 -0.6
v 1.8 0.3 -0.6
v -1.8 0.3 -0.7
v -0.8 0.3 -0.7
v -0.5 0.3 -0.7
v 0.5 0.3 -0.7
v 0.8 0.3 -0.7
v 1.8 0.3 -0.7
v -1.9 0.3 -0.8
v -1.8 0.3 -0.8
v -0.8 0.3 -0.8
v -0.7 0.3 -0.8
v -0.6 0.3 -0.8
v -0.5 0.3 -0.8
v 0.5 0.3 -0.8
v 0.6 0.3 -0.8
v 0.7 0.3 -0.8
v 0.8 0.3 -0.8
v 1.8 0.3 -0.8
v 1.9 0.3 -0.8
v -0.8 0.3 -1.8
v -0.7 0.3 -1.8
v -0.6 0.3 -1.8
v -0.5 0.3 -1.8
v 0.5 0.3 -1.8
v 0.6 0.3 -1.8
v 0.7 0.3 -1.8
v 0.8 0.3 -1.8
v 1.8 0.3 -1.8
v 1.9 0.3 -1.8
v -1.9 0.3 -1.9
v -0.8 0.3 -1.9
v -0.5 0.3 -1.9
v 0.5 0.3 -1.9
v 0.8 0.3 -1.9
v 1.8 0.3 -1.9
v -1.8 0.6 1.8
v -0.8 0.6 1.8
v 1 0.6 1.8
v 1.7 0.6 1.8
v 1 0.6 1.7
v 1.7 0.6 1.7
v 1.8 0.6 1.7
v -1.6 0.6 1.6
v -1.4 0.6 1.6
v -1.2 0.6 1.6
v -1 0.6 1.6
v -1.6 0.6 1
v -1.4 0.6 1
v -1.2 0.6 1
v -1 0.6 1
v 1.7 0.6 1
v 1.8 0.6 1
v -1.8 0.6 0.7
v -0.8 0.6 0.7
v 0.8 0.6 -1.6
v 0.9 0.6 -1.6
v 0.8 0.6 -1.7
v 0.9 0.6 -1.7
v 1.7 0.6 -1.7
v 1.8 0.6 -1.7
v 1.7 0.6 -1.8
v 1.8 0.6 -1.8
v -1.9 0.7 1.4
v -1.8 0.7 1.4
v -0.8 0.7 1.4
v -0.7 0.7 1.4
v -1.9 0.7 0.8
v -1.8 0.7 0.8
v -0.8 0.7 0.8
v -0.7 0.7 0.8
v 0.8 0.7 -1.4
v 0.9 0.7 -1.4
v 0.8 0.7 -1.5
v 0.9 0.7 -1.5
v 1.7 0.7 -1.5
v 1.8 0.7 -1.5
v 1.7 0.7 -1.6
v 1.8 0.7 -1.6
v -1.4 0.8 1.9
v -1.2 0.8 1.9
v -1.4 0.8 1.8
v -1.2 0.8 1.8
v 1 0.8 1.8
v 1.7 0.8 1.8
v 1 0.8 1.7
v 1.7 0.8 1.7
v 1.8 0.8 1.7
v 1.7 0.8 1
v 1.8 0.8 1
v 0.8 0.8 -1.7
v 0.9 0.8 -1.7
v 0.8 0.8 -1.8
v 0.9 0.8 -1.8
v -1.9 0.4 -1.8
v -1.8 0.4 -1.8
v -1.9 0.4 -1.9
v -1.8 0.4 -1.9
v -1.8 0.5 1.9
v -0.8 0.5 1.9
v -0.5 0.5 1.9
v 0.5 0.5 1.9
v 0.8 0.5 1.9
v 1.8 0.5 1.9
v -1.9 0.5 1.8
v -1.8 0.5 1.8
v -0.8 0.5 1.8
v -0.7 0.5 1.8
v -0.6 0.5 1.8
v -0.5 0.5 1.8
v 0.5 0.5 1.8
v 0.6 0.5 1.8
v 0.7 0.5 1.8
v 0.8 0.5 1.8
v 0.9 0.5 1.8
v 1 0.5 1.8
v 1.7 0.5 1.8
v 1.8 0.5 1.8
v 1.9 0.5 1.8
v 0.9 0.5 1.7
v 1 0.5 1.7
v 1.7 0.5 1.7
v 1.8 0.5 1.7
v -1.6 0.5 1.6
v -1.4 0.5 1.6
v -1.2 0.5 1.6
v -1 0.5 1.6
v -1.6 0.5 1
v -1.4 0.5 1
v -1.2 0.5 1
v -1 0.5 1
v 1.7 0.5 1
v 1.8 0.5 1
v 1.7 0.5 0.9
v 1.8 0.5 0.9
v -1.9 0.5 0.8
v -1.8 0.5 0.8
v -0.8 0.5 0.8
v -0.7 0.5 0.8
v -0.6 0.5 0.8
v -0.5 0.5 0.8
v 0.5 0.5 0.8
v 0.6 0.5 0.8
v 0.7 0.5 0.8
v 0.8 0.5 0.8
v 1.8 0.5 0.8
v 1.9 0.5 0.8
v -1.8 0.5 0.7
v -0.8 0.5 0.7
v -0.5 0.5 0.7
v 0.5 0.5 0.7
v 0.8 0.5 0.7
v 1.8 0.5 0.7
v -1.8 0.5 0.6
v -0.8 0.5 0.6
v -0.5 0.5 0.6
v 0.5 0.5 0.6
v 0.8 0.5 0.6
v 1.8 0.5 0.6
v -1.9 0.5 0.5
v -1.8 0.5 0.5
v -0.8 0.5 0.5
v -0.7 0.5 0.5
v -0.6 0.5 0.5
v -0.5 0.5 0.5
v 0.5 0.5 0.5
v 0.6 0.5 0.5
v 0.7 0.5 0.5
v 0.8 0.5 0.5
v 1.8 0.5 0.5
v 1.9 0.5 0.5
v -1.9 0.5 -0.5
v -1.8 0.5 -0.5
v -0.8 0.5 -0.5
v -0.7 0.5 -0.5
v -0.6 0.5 -0.5
v -0.5 0.5 -0.5
v 0.5 0.5 -0.5
v 0.6 0.5 -0.5
v 0.7 0.5 -0.5
v 0.8 0.5 -0.5
v 1.8 0.5 -0.5
v 1.9 0.5 -0.5
v -1.8 0.5 -0.6
v -0.8 0.5 -0.6
v -0.5 0.5 -0.6
v 0.5 0.5 -0.6
v 0.8 0.5 -0.6
v 1.8 0.5 -0.6
v -1.8 0.5 -0.7
v -0.8 0.5 -0.7
v -0.5 0.5 -0.7
v 0.5 0.5 -0.7
v 0.8 0.5 -0.7
v 1.8 0.5 -0.7
v -1.9 0.5 -0.8
v -1.8 0.5 -0.8
v -1.6 0.5 -0.8
v -1.5 0.5 -0.8
v -1.2 0.5 -0.8
v -1.1 0.5 -0.8
v -0.8 0.5 -0.8
v -0.7 0.5 -0.8
v -0.6 0.5 -0.8
v -0.5 0.5 -0.8
v 0.5 0.5 -0.8
v 0.6 0.5 -0.8
v 0.7 0.5 -0.8
v 0.8 0.5 -0.8
v 1.8 0.5 -0.8
v 1.9 0.5 -0.8
v -1.7 0.5 -0.9
v -1.6 0.5 -0.9
v -1.5 0.5 -0.9
v -1.4 0.5 -0.9
v -1.2 0.5 -0.9
v -1.1 0.5 -0.9
v -1.7 0.5 -1
v -1.6 0.5 -1
v -1.5 0.5 -1
v -1.4 0.5 -1
v -1.1 0.5 -1
v -1 0.5 -1
v 1.4 0.5 -1
v 1.5 0.5 -1
v 1.6 0.5 -1
v 1.7 0.5 -1
v 1.8 0.5 -1
v -1.6 0.5 -1.1
v -1.5 0.5 -1.1
v -1.2 0.5 -1.1
v -1.1 0.5 -1.1
v -1 0.5 -1.1
v -0.9 0.5 -1.1
v 1.4 0.5 -1.1
v 1.8 0.5 -1.1
v -1.8 0.5 -1.2
v -1.7 0.5 -1.2
v -1.5 0.5 -1.2
v -1.4 0.5 -1.2
v -1.2 0.5 -1.2
v -1.1 0.5 -1.2
v -1 0.5 -1.2
v -0.9 0.5 -1.2
v 1.4 0.5 -1.2
v 1.8 0.5 -1.2
v -1.8 0.5 -1.3
v -1.7 0.5 -1.3
v -1.6 0.5 -1.3
v -1.5 0.5 -1.3
v -1.4 0.5 -1.3
v -1.3 0.5 -1.3
v -1.1 0.5 -1.3
v -1 0.5 -1.3
v 1.4 0.5 -1.3
v -1.6 0.5 -1.4
v -1.5 0.5 -1.4
v -1.4 0.5 -1.4
v -1.3 0.5 -1.4
v -1 0.5 -1.4
v -0.9 0.5 -1.4
v 0.9 0.5 -1.4
v 1 0.5 -1.4
v 1.1 0.5 -1.4
v 1.4 0.5 -1.4
v -1.7 0.5 -1.5
v -1.6 0.5 -1.5
v -1.5 0.5 -1.5
v -1.4 0.5 -1.5
v -1.3 0.5 -1.5
v -1.2 0.5 -1.5
v -1.1 0.5 -1.5
v -1 0.5 -1.5
v -0.9 0.5 -1.5
v -0.8 0.5 -1.5
v 0.8 0.5 -1.5
v 0.9 0.5 -1.5
v 1.7 0.5 -1.5
v 1.8 0.5 -1.5
v -1.8 0.5 -1.6
v -1.7 0.5 -1.6
v -1.6 0.5 -1.6
v -1.5 0.5 -1.6
v -1.3 0.5 -1.6
v -1.2 0.5 -1.6
v -1.1 0.5 -1.6
v -1 0.5 -1.6
v -0.9 0.5 -1.6
v -0.8 0.5 -1.6
v 0.8 0.5 -1.6
v 0.9 0.5 -1.6
v 1.7 0.5 -1.6
v 1.8 0.5 -1.6
v -1.8 0.5 -1.7
v -1.7 0.5 -1.7
v -1.6 0.5 -1.7
v -1.5 0.5 -1.7
v -1.2 0.5 -1.7
v -1.1 0.5 -1.7
v -1 0.5 -1.7
v -0.9 0.5 -1.7
v 0.8 0.5 -1.7
v 0.9 0.5 -1.7
v 1.7 0.5 -1.7
v 1.8 0.5 -1.7
v -1.9 0.5 -1.8
v -1.8 0.5 -1.8
v -1.7 0.5 -1.8
v -1.6 0.5 -1.8
v -1.2 0.5 -1.8
v -1.1 0.5 -1.8
v -0.8 0.5 -1.8
v -0.7 0.5 -1.8
v -0.6 0.5 -1.8
v -0.5 0.5 -1.8
v 0.5 0.5 -1.8
v 0.6 0.5 -1.8
v 0.7 0.5 -1.8
v 0.8 0.5 -1.8
v 0.9 0.5 -1.8
v 1 0.5 -1.8
v 1.1 0.5 -1.8
v 1.5 0.5 -1.8
v 1.6 0.5 -1.8
v 1.7 0.5 -1.8
v 1.8 0.5 -1.8
v 1.9 0.5 -1.8
v -1.8 0.5 -1.9
v -0.8 0.5 -1.9
v -0.5 0.5 -1.9
v 0.5 0.5 -1.9
v 0.8 0.5 -1.9
v 1.8 0.5 -1.9
v -1.6 0.6 -0.8
v -1.5 0.6 -0.8
v -1.2 0.6 -0.8
v -1.1 0.6 -0.8
v -1.7 0.6 -0.9
v -1.6 0.6 -0.9
v -1.5 0.6 -0.9
v -1.4 0.6 -0.9
v -1.2 0.6 -0.9
v -1.1 0.6 -0.9
v -1.7 0.6 -1
v -1.6 0.6 -1
v -1.5 0.6 -1
v -1.4 0.6 -1
v -1.1 0.6 -1
v -1 0.6 -1
v -1.6 0.6 -1.1
v -1.5 0.6 -1.1
v -1.2 0.6 -1.1
v -1.1 0.6 -1.1
v -1 0.6 -1.1
v -0.9 0.6 -1.1
v -1.8 0.6 -1.2
v -1.7 0.6 -1.2
v -1.5 0.6 -1.2
v -1.4 0.6 -1.2
v -1.2 0.6 -1.2
v -1.1 0.6 -1.2
v -1 0.6 -1.2
v -0.9 0.6 -1.2
v -1.8 0.6 -1.3
v -1.7 0.6 -1.3
v -1.6 0.6 -1.3
v -1.5 0.6 -1.3
v -1.4 0.6 -1.3
v -1.3 0.6 -1.3
v -1.1 0.6 -1.3
v -1 0.6 -1.3
v -1.6 0.6 -1.4
v -1.5 0.6 -1.4
v -1.4 0.6 -1.4
v -1.3 0.6 -1.4
v -1 0.6 -1.4
v -0.9 0.6 -1.4
v 1.7 0.6 -1.4
v 1.8 0.6 -1.4
v -1.7 0.6 -1.5
v -1.6 0.6 -1.5
v -1.5 0.6 -1.5
v -1.4 0.6 -1.5
v -1.3 0.6 -1.5
v -1.2 0.6 -1.5
v -1.1 0.6 -1.5
v -1 0.6 -1.5
v -0.9 0.6 -1.5
v -0.8 0.6 -1.5
v 0.8 0.6 -1.5
v 0.9 0.6 -1.5
v 1.7 0.6 -1.5
v 1.8 0.6 -1.5
v -1.8 0.6 -1.6
v -1.7 0.6 -1.6
v -1.6 0.6 -1.6
v -1.5 0.6 -1.6
v -1.3 0.6 -1.6
v -1.2 0.6 -1.6
v -1.1 0.6 -1.6
v -1 0.6 -1.6
v -0.9 0.6 -1.6
v -0.8 0.6 -1.6
v 0.8 0.6 -1.6
v 0.9 0.6 -1.6
v 1.7 0.6 -1.6
v 1.8 0.6 -1.6
v -1.8 0.6 -1.7
v -1.7 0.6 -1.7
v -1.6 0.6 -1.7
v -1.5 0.6 -1.7
v -1.2 0.6 -1.7
v -1.1 0.6 -1.7
v -1 0.6 -1.7
v -0.9 0.6 -1.7
v 0.8 0.6 -1.7
v 0.9 0.6 -1.7
v 1.7 0.6 -1.7
v 1.8 0.6 -1.7
v -1.7 0.6 -1.8
v -1.6 0.6 -1.8
v -1.2 0.6 -1.8
v -1.1 0.6 -1.8
v 0.8 0.6 -1.8
v 0.9 0.6 -1.8
v 1 0.7 1.8
v 1.7 0.7 1.8
v 1 0.7 1.7
v 1.7 0.7 1.7
v 1.8 0.7 1.7
v 1.7 0.7 1
v 1.8 0.7 1
v 0.8 0.7 -1.6
v 0.9 0.7 -1.6
v 0.8 0.7 -1.7
v 0.9 0.7 -1.7
v 1.7 0.7 -1.7
v 1.8 0.7 -1.7
v 1.7 0.7 -1.8
v 1.8 0.7 -1.8
v 0.8 0.8 -1.4
v 0.9 0.8 -1.4
v 0.8 0.8 -1.5
v 0.9 0.8 -1.5
v 1.7 0.8 -1.5
v 1.8 0.8 -1.5
v 1.7 0.8 -1.6
v 1.8 0.8 -1.6
v 1 0.9 1.8
v 1.7 0.9 1.8
v 1 0.9 1.7
v 1.7 0.9 1.7
v 1.8 0.9 1.7
v 1.7 0.9 1
v 1.8 0.9 1
v 0.9 0.9 -1.4
v 1 0.9 -1.4
v 1.1 0.9 -1.4
v 1.4 0.9 -1.4
v 1.5 0.9 -1.4
v 1.6 0.9 -1.4
v 1.7 0.9 -1.4
v 0.8 0.9 -1.7
v 0.9 0.9 -1.7
v 1 0.9 -1.7
v 1.1 0.9 -1.7
v 1.5 0.9 -1.7
v 1.6 0.9 -1.7
v 1.7 0.9 -1.7
v 0.8 0.9 -1.8
v 1 0.9 -1.8
v 1.1 0.9 -1.8
v 1.5 0.9 -1.8
v 1.6 0.9 -1.8
v 1.7 0.9 -1.8
v -1.4 1 1.9
v -1.2 1 1.9
v -1.4 1 1.8
v -1.2 1 1.8
v 0.9 1 1.8
v 1 1 1.8
v 1.7 1 1.8
v 1.8 1 1.8
v 0.9 1 1.7
v 1 1 1.7
v 1.7 1 1.7
v 1.8 1 1.7
v -1.9 1 1.4
v -1.8 1 1.4
v -0.8 1 1.4
v -0.7 1 1.4
v 1.7 1 1
v 1.8 1 1
v 1.7 1 0.9
v 1.8 1 0.9
v -1.9 1 0.8
v -1.8 1 0.8
v -0.8 1 0.8
v -0.7 1 0.8
v -1.8 1.1 0.9
v -0.8 1.1 0.9
v -1.8 1.1 0.7
v -0.8 1.1 0.7
v 1.4 1.3 -1
v 1.5 1.3 -1
v 1.6 1.3 -1
v 1.7 1.3 -1
v 1.8 1.3 -1
v 1.4 1.3 -1.1
v 1.5 1.3 -1.1
v 1.6 1.3 -1.1
v 1.7 1.3 -1.1
v 1.8 1.3 -1.1
v 1.4 1.3 -1.2
v 1.5 1.3 -1.2
v 1.6 1.3 -1.2
v 1.7 1.3 -1.2
v 1.8 1.3 -1.2
v 1.4 1.3 -1.3
v 1.5 1.3 -1.3
v 1.6 1.3 -1.3
v 1.7 1.3 -1.3
v 1.8 1.3 -1.3
v 1.4 1.3 -1.4
v 1.5 1.3 -1.4
v 1.6 1.3 -1.4
v 1.7 1.3 -1.4
v 1.5 1.4 -1
v 1.6 1.4 -1
v 1.5 1.4 -1.1
v 1.6 1.4 -1.1
v 1.7 1.4 -1.1
v 1.4 1.4 -1.2
v 1.5 1.4 -1.2
v 1.6 1.4 -1.2
v 1.7 1.4 -1.2
v 1.4 1.4 -1.3
v 1.5 1.4 -1.3
v 1.7 1.4 -1.3
v 1.8 1.4 -1.3
v 1.7 1.4 -1.4
v 1.8 1.4 -1.4
v -1.8 1.5 1.8
v -0.8 1.5 1.8
v -1.5 1.5 1.6
v -1.1 1.5 1.6
v -1.5 1.5 1.1
v -1.1 1.5 1.1
v -1.8 1.5 0.9
v -0.8 1.5 0.9
v -1.5 1.7 1.6
v -1.1 1.7 1.6
v -1.5 1.7 1.1
v -1.1 1.7 1.1

# faces
f 7/7/1 6/7/1 5/7/1
f 8/7/1 6/7/1 7/7/1
f 9/7/1 2/7/1 1/7/1
f 10/7/1 2/7/1 9/7/1
f 11/7/1 4/7/1 3/7/1
f 12/7/1 4/7/1 11/7/1
f 13/7/1 7/7/1 5/7/1
f 14/7/1 7/7/1 13/7/1
f 17/8/1 16/8/1 15/8/1
f 18/8/1 16/8/1 17/8/1
f 31/7/1 20/7/1 19/7/1
f 32/7/1 20/7/1 31/7/1
f 33/7/1 22/7/1 21/7/1
f 34/7/1 22/7/1 33/7/1
f 35/7/1 24/7/1 23/7/1
f 36/7/1 24/7/1 35/7/1
f 37/7/1 26/7/1 25/7/1
f 38/7/1 26/7/1 37/7/1
f 39/7/1 28/7/1 27/7/1
f 40/7/1 28/7/1 39/7/1
f 45/7/1 30/7/1 29/7/1
f 46/7/1 30/7/1 45/7/1
f 49/6/1 42/6/1 41/6/1
f 50/6/1 42/6/1 49/6/1
f 51/6/1 44/6/1 43/6/1
f 52/6/1 44/6/1 51/6/1
f 53/8/1 48/8/1 47/8/1
f 54/8/1 48/8/1 53/8/1
f 55/8/1 53/8/1 47/8/1
f 56/8/1 48/8/1 54/8/1
f 57/8/1 56/8/1 55/8/1
f 58/8/1 48/8/1 56/8/1
f 58/8/1 56/8/1 57/8/1
f 59/8/1 55/8/1 47/8/1
f 59/8/1 57/8/1 55/8/1
f 60/8/1 57/8/1 59/8/1
f 67/6/1 62/6/1 61/6/1
f 68/6/1 62/6/1 67/6/1
f 69/6/1 64/6/1 63/6/1
f 70/6/1 64/6/1 69/6/1
f 71/6/1 66/6/1 65/6/1
f 72/6/1 66/6/1 71/6/1
f 81/3/1 74/3/1 73/3/1
f 82/3/1 74/3/1 81/3/1
f 83/6/1 76/6/1 75/6/1
f 84/6/1 76/6/1 83/6/1
f 85/6/1 78/6/1 77/6/1
f 86/6/1 78/6/1 85/6/1
f 87/6/1 80/6/1 79/6/1
f 88/6/1 80/6/1 87/6/1
f 93/6/1 90/6/1 89/6/1
f 94/6/1 90/6/1 93/6/1
f 95/6/1 92/6/1 91/6/1
f 96/6/1 92/6/1 95/6/1
f 99/6/1 98/6/1 97/6/1
f 100/6/1 98/6/1 99/6/1
f 103/6/1 102/6/1 101/6/1
f 104/6/1 102/6/1 103/6/1
f 105/3/1 104/3/1 103/3/1
f 106/3/1 104/3/1 105/3/1
f 109/6/1 108/6/1 107/6/1
f 110/6/1 108/6/1 109/6/1
f 119/3/1 112/3/1 111/3/1
f 120/3/1 112/3/1 119/3/1
f 121/6/1 114/6/1 113/6/1
f 122/6/1 114/6/1 121/6/1
f 123/6/1 116/6/1 115/6/1
f 124/6/1 116/6/1 123/6/1
f 125/6/1 118/6/1 117/6/1
f 126/6/1 118/6/1 125/6/1
f 133/6/1 128/6/1 127/6/1
f 134/6/1 128/6/1 133/6/1
f 135/6/1 130/6/1 129/6/1
f 136/6/1 130/6/1 135/6/1
f 137/6/1 132/6/1 131/6/1
f 138/6/1 132/6/1 137/6/1
f 143/6/1 140/6/1 139/6/1
f 144/6/1 140/6/1 143/6/1
f 145/6/1 142/6/1 141/6/1
f 146/6/1 142/6/1 145/6/1
f 153/7/1 148/7/1 147/7/1
f 154/7/1 148/7/1 153/7/1
f 155/7/1 150/7/1 149/7/1
f 156/7/1 150/7/1 155/7/1
f 157/7/1 152/7/1 151/7/1
f 158/7/1 152/7/1 157/7/1
f 171/7/1 160/7/1 159/7/1
f 172/7/1 160/7/1 171/7/1
f 173/7/1 162/7/1 161/7/1
f 174/7/1 162/7/1 173/7/1
f 175/7/1 164/7/1 163/7/1
f 176/7/1 164/7/1 175/7/1
f 177/7/1 166/7/1 165/7/1
f 178/7/1 166/7/1 177/7/1
f 179/7/1 168/7/1 167/7/1
f 180/7/1 168/7/1 179/7/1
f 181/7/1 170/7/1 169/7/1
f 182/7/1 170/7/1 181/7/1
f 189/7/1 184/7/1 183/7/1
f 190/7/1 184/7/1 189/7/1
f 191/7/1 186/7/1 185/7/1
f 192/7/1 186/7/1 191/7/1
f 193/7/1 188/7/1 187/7/1
f 194/7/1 188/7/1 193/7/1
f 207/7/1 196/7/1 195/7/1
f 208/7/1 196/7/1 207/7/1
f 209/7/1 198/7/1 197/7/1
f 210/7/1 198/7/1 209/7/1
f 211/7/1 200/7/1 199/7/1
f 212/7/1 200/7/1 211/7/1
f 213/7/1 202/7/1 201/7/1
f 214/7/1 202/7/1 213/7/1
f 215/7/1 204/7/1 203/7/1
f 216/7/1 204/7/1 215/7/1
f 220/7/1 206/7/1 205/7/1
f 221/7/1 206/7/1 220/7/1
f 222/5/1 218/5/1 217/5/1
f 223/5/1 218/5/1 222/5/1
f 224/5/1 220/5/1 219/5/1
f 225/5/1 220/5/1 224/5/1
f 228/5/1 224/5/1 223/5/1
f 229/5/1 224/5/1 228/5/1
f 230/5/1 227/5/1 226/5/1
f 231/5/1 227/5/1 230/5/1
f 234/5/1 233/5/1 232/5/1
f 235/5/1 233/5/1 234/5/1
f 242/3/1 239/3/1 238/3/1
f 243/3/1 241/3/1 240/3/1
f 244/3/1 241/3/1 243/3/1
f 246/3/1 242/3/1 238/3/1
f 246/3/1 243/3/1 242/3/1
f 247/3/1 243/3/1 246/3/1
f 248/3/1 243/3/1 247/3/1
f 249/5/1 245/5/1 244/5/1
f 250/5/1 245/5/1 249/5/1
f 252/3/1 248/3/1 247/3/1
f 252/3/1 250/3/1 249/3/1
f 252/3/1 249/3/1 248/3/1
f 253/3/1 250/3/1 252/3/1
f 254/3/1 250/3/1 253/3/1
f 255/3/1 252/3/1 251/3/1
f 255/3/1 253/3/1 252/3/1
f 256/3/1 253/3/1 255/3/1
f 257/4/1 237/4/1 236/4/1
f 258/4/1 237/4/1 257/4/1
f 264/5/1 260/5/1 259/5/1
f 265/3/1 261/3/1 260/3/1
f 265/5/1 260/5/1 264/5/1
f 266/5/1 262/5/1 261/5/1
f 266/3/1 261/3/1 265/3/1
f 267/3/1 263/3/1 262/3/1
f 267/5/1 262/5/1 266/5/1
f 268/3/1 263/3/1 267/3/1
f 269/4/1 266/4/1 265/4/1
f 269/4/1 265/4/1 264/4/1
f 269/4/1 268/4/1 267/4/1
f 269/4/1 267/4/1 266/4/1
f 270/4/1 268/4/1 269/4/1
f 271/4/1 268/4/1 270/4/1
f 272/4/1 268/4/1 271/4/1
f 273/4/1 268/4/1 272/4/1
f 274/3/1 273/3/1 272/3/1
f 275/3/1 274/3/1 272/3/1
f 276/5/1 270/5/1 269/5/1
f 277/3/1 271/3/1 270/3/1
f 277/5/1 270/5/1 276/5/1
f 278/5/1 272/5/1 271/5/1
f 278/3/1 271/3/1 277/3/1
f 279/3/1 275/3/1 272/3/1
f 279/5/1 272/5/1 278/5/1
f 280/3/1 275/3/1 279/3/1
f 281/4/1 277/4/1 276/4/1
f 281/4/1 278/4/1 277/4/1
f 281/4/1 280/4/1 279/4/1
f 281/4/1 279/4/1 278/4/1
f 282/4/1 280/4/1 281/4/1
f 283/4/1 280/4/1 282/4/1
f 284/4/1 280/4/1 283/4/1
f 285/5/1 282/5/1 281/5/1
f 286/3/1 283/3/1 282/3/1
f 286/5/1 282/5/1 285/5/1
f 287/5/1 284/5/1 283/5/1
f 287/3/1 283/3/1 286/3/1
f 288/5/1 284/5/1 287/5/1
f 289/5/1 284/5/1 288/5/1
f 290/5/1 288/5/1 287/5/1
f 291/5/1 288/5/1 290/5/1
f 294/3/1 293/3/1 292/3/1
f 295/3/1 293/3/1 294/3/1
f 298/3/1 297/3/1 296/3/1
f 299/3/1 297/3/1 298/3/1
f 304/4/1 301/4/1 300/4/1
f 305/4/1 301/4/1 304/4/1
f 306/4/1 303/4/1 302/4/1
f 308/4/1 306/4/1 305/4/1
f 309/4/1 303/4/1 306/4/1
f 309/4/1 306/4/1 308/4/1
f 310/4/1 308/4/1 307/4/1
f 311/4/1 308/4/1 310/4/1
f 312/4/1 303/4/1 309/4/1
f 314/4/1 312/4/1 311/4/1
f 315/4/1 303/4/1 312/4/1
f 315/4/1 312/4/1 314/4/1
f 316/4/1 314/4/1 313/4/1
f 317/4/1 314/4/1 316/4/1
f 318/4/1 303/4/1 315/4/1
f 319/4/1 303/4/1 318/4/1
f 322/3/1 321/3/1 320/3/1
f 323/3/1 321/3/1 322/3/1
f 324/6/2 325/6/2 326/6/2
f 326/6/2 325/6/2 327/6/2
f 328/6/2 329/6/2 332/6/2
f 332/6/2 329/6/2 333/6/2
f 330/6/2 331/6/2 334/6/2
f 334/6/2 331/6/2 335/6/2
f 336/6/2 337/6/2 342/6/2
f 342/6/2 337/6/2 343/6/2
f 338/6/2 339/6/2 344/6/2
f 344/6/2 339/6/2 345/6/2
f 340/6/2 341/6/2 346/6/2
f 346/6/2 341/6/2 347/6/2
f 348/3/2 349/3/2 356/3/2
f 356/3/2 349/3/2 357/3/2
f 350/6/2 351/6/2 358/6/2
f 358/6/2 351/6/2 359/6/2
f 352/6/2 353/6/2 360/6/2
f 360/6/2 353/6/2 361/6/2
f 354/6/2 355/6/2 362/6/2
f 362/6/2 355/6/2 363/6/2
f 364/6/2 365/6/2 366/6/2
f 366/6/2 365/6/2 367/6/2
f 368/6/2 369/6/2 370/6/2
f 370/6/2 369/6/2 371/6/2
f 372/6/2 373/6/2 374/6/2
f 374/6/2 373/6/2 375/6/2
f 374/3/2 375/3/2 376/3/2
f 376/3/2 375/3/2 377/3/2
f 378/6/2 379/6/2 382/6/2
f 382/6/2 379/6/2 383/6/2
f 380/6/2 381/6/2 384/6/2
f 384/6/2 381/6/2 385/6/2
f 386/6/2 387/6/2 388/6/2
f 388/6/2 387/6/2 389/6/2
f 390/3/2 391/3/2 396/3/2
f 396/3/2 391/3/2 397/3/2
f 392/6/2 393/6/2 398/6/2
f 398/6/2 393/6/2 399/6/2
f 394/6/2 395/6/2 400/6/2
f 400/6/2 395/6/2 401/6/2
f 402/6/2 403/6/2 408/6/2
f 408/6/2 403/6/2 409/6/2
f 404/6/2 405/6/2 410/6/2
f 410/6/2 405/6/2 411/6/2
f 406/6/2 407/6/2 412/6/2
f 412/6/2 407/6/2 413/6/2
f 414/7/2 415/7/2 426/7/2
f 426/7/2 415/7/2 427/7/2
f 416/7/2 417/7/2 428/7/2
f 428/7/2 417/7/2 429/7/2
f 418/7/2 419/7/2 430/7/2
f 430/7/2 419/7/2 431/7/2
f 420/7/2 421/7/2 432/7/2
f 432/7/2 421/7/2 433/7/2
f 422/7/2 423/7/2 434/7/2
f 434/7/2 423/7/2 435/7/2
f 424/7/2 425/7/2 438/7/2
f 438/7/2 425/7/2 439/7/2
f 436/6/2 437/6/2 442/6/2
f 442/6/2 437/6/2 443/6/2
f 440/8/2 441/8/2 444/8/2
f 444/8/2 441/8/2 445/8/2
f 440/8/2 444/8/2 446/8/2
f 445/8/2 441/8/2 447/8/2
f 446/8/2 447/8/2 448/8/2
f 447/8/2 441/8/2 449/8/2
f 448/8/2 447/8/2 449/8/2
f 440/8/2 446/8/2 450/8/2
f 446/8/2 448/8/2 450/8/2
f 450/8/2 448/8/2 451/8/2
f 452/7/2 453/7/2 458/7/2
f 458/7/2 453/7/2 459/7/2
f 454/7/2 455/7/2 460/7/2
f 460/7/2 455/7/2 461/7/2
f 456/7/2 457/7/2 462/7/2
f 462/7/2 457/7/2 463/7/2
f 464/8/2 465/8/2 466/8/2
f 466/8/2 465/8/2 467/8/2
f 468/7/2 469/7/2 480/7/2
f 480/7/2 469/7/2 481/7/2
f 470/7/2 471/7/2 482/7/2
f 482/7/2 471/7/2 483/7/2
f 472/7/2 473/7/2 484/7/2
f 484/7/2 473/7/2 485/7/2
f 474/7/2 475/7/2 486/7/2
f 486/7/2 475/7/2 487/7/2
f 476/7/2 477/7/2 488/7/2
f 488/7/2 477/7/2 489/7/2
f 478/7/2 479/7/2 490/7/2
f 490/7/2 479/7/2 491/7/2
f 492/7/2 493/7/2 498/7/2
f 498/7/2 493/7/2 499/7/2
f 494/7/2 495/7/2 500/7/2
f 500/7/2 495/7/2 501/7/2
f 496/7/2 497/7/2 502/7/2
f 502/7/2 497/7/2 503/7/2
f 504/4/2 505/4/2 506/4/2
f 506/4/2 505/4/2 507/4/2
f 508/4/2 509/4/2 510/4/2
f 510/4/2 509/4/2 511/4/2
f 512/4/2 513/4/2 514/4/2
f 514/4/2 513/4/2 515/4/2
f 516/5/2 517/5/2 518/5/2
f 518/5/2 517/5/2 519/5/2
f 520/3/2 521/3/2 522/3/2
f 522/3/2 521/3/2 523/3/2
f 524/5/2 525/5/2 529/5/2
f 529/5/2 525/5/2 530/5/2
f 526/5/2 527/5/2 531/5/2
f 531/5/2 527/5/2 532/5/2
f 529/3/2 530/3/2 533/3/2
f 528/3/2 529/3/2 533/3/2
f 533/3/2 530/3/2 534/3/2
f 530/5/2 531/5/2 535/5/2
f 534/3/2 530/3/2 535/3/2
f 535/5/2 531/5/2 536/5/2
f 533/5/2 534/5/2 538/5/2
f 538/5/2 534/5/2 539/5/2
f 536/3/2 537/3/2 540/3/2
f 535/3/2 536/3/2 540/3/2
f 540/3/2 537/3/2 541/3/2
f 541/3/2 537/3/2 542/3/2
f 538/3/2 539/3/2 543/3/2
f 539/3/2 540/3/2 543/3/2
f 540/3/2 541/3/2 543/3/2
f 541/5/2 542/5/2 544/5/2
f 543/3/2 541/3/2 544/3/2
f 544/5/2 542/5/2 545/5/2
f 546/3/2 547/3/2 548/3/2
f 548/3/2 547/3/2 549/3/2
f 550/7/2 551/7/2 562/7/2
f 562/7/2 551/7/2 563/7/2
f 552/7/2 553/7/2 567/7/2
f 567/7/2 553/7/2 568/7/2
f 554/7/2 555/7/2 569/7/2
f 569/7/2 555/7/2 570/7/2
f 556/7/2 557/7/2 571/7/2
f 571/7/2 557/7/2 572/7/2
f 558/7/2 559/7/2 573/7/2
f 573/7/2 559/7/2 574/7/2
f 560/7/2 561/7/2 581/7/2
f 581/7/2 561/7/2 582/7/2
f 563/4/2 564/4/2 583/4/2
f 565/4/2 566/4/2 584/4/2
f 575/3/2 576/3/2 585/3/2
f 576/5/2 577/5/2 586/5/2
f 585/3/2 576/3/2 586/3/2
f 577/3/2 578/3/2 587/3/2
f 586/5/2 577/5/2 587/5/2
f 587/3/2 578/3/2 588/3/2
f 588/3/2 578/3/2 589/3/2
f 579/3/2 580/3/2 590/3/2
f 590/3/2 580/3/2 591/3/2
f 563/4/2 583/4/2 593/4/2
f 583/4/2 584/4/2 593/4/2
f 584/4/2 566/4/2 594/4/2
f 593/4/2 584/4/2 594/4/2
f 585/4/2 586/4/2 595/4/2
f 587/4/2 588/4/2 595/4/2
f 586/4/2 587/4/2 595/4/2
f 595/4/2 588/4/2 596/4/2
f 596/4/2 588/4/2 597/4/2
f 597/4/2 588/4/2 598/4/2
f 591/5/2 592/5/2 601/5/2
f 601/5/2 592/5/2 602/5/2
f 563/4/2 593/4/2 603/4/2
f 594/4/2 566/4/2 604/4/2
f 599/3/2 600/3/2 605/3/2
f 605/3/2 600/3/2 606/3/2
f 603/4/2 604/4/2 607/4/2
f 563/4/2 603/4/2 607/4/2
f 604/4/2 566/4/2 608/4/2
f 607/4/2 604/4/2 608/4/2
f 563/4/2 607/4/2 609/4/2
f 609/4/2 607/4/2 610/4/2
f 608/4/2 566/4/2 611/4/2
f 611/4/2 566/4/2 612/4/2
f 595/3/2 596/3/2 613/3/2
f 596/5/2 597/5/2 614/5/2
f 613/3/2 596/3/2 614/3/2
f 597/3/2 598/3/2 615/3/2
f 614/5/2 597/5/2 615/5/2
f 615/3/2 598/3/2 616/3/2
f 613/4/2 614/4/2 617/4/2
f 614/4/2 615/4/2 617/4/2
f 615/4/2 616/4/2 617/4/2
f 617/4/2 616/4/2 618/4/2
f 618/4/2 616/4/2 619/4/2
f 619/4/2 616/4/2 620/4/2
f 617/3/2 618/3/2 621/3/2
f 618/5/2 619/5/2 622/5/2
f 621/3/2 618/3/2 622/3/2
f 619/3/2 620/3/2 623/3/2
f 622/5/2 619/5/2 623/5/2
f 623/3/2 620/3/2 624/3/2
f 624/3/2 620/3/2 625/3/2
f 625/3/2 620/3/2 626/3/2
f 627/7/2 628/7/2 633/7/2
f 633/7/2 628/7/2 634/7/2
f 629/7/2 630/7/2 635/7/2
f 635/7/2 630/7/2 636/7/2
f 631/7/2 632/7/2 637/7/2
f 637/7/2 632/7/2 638/7/2
f 644/6/3 642/6/3 641/6/3
f 645/3/3 643/3/3 642/3/3
f 645/6/3 642/6/3 644/6/3
f 646/3/3 643/3/3 645/3/3
f 647/7/3 640/7/3 639/7/3
f 648/7/3 640/7/3 647/7/3
f 651/7/3 650/7/3 649/7/3
f 652/7/3 650/7/3 651/7/3
f 655/7/3 654/7/3 653/7/3
f 656/7/3 654/7/3 655/7/3
f 659/7/3 658/7/3 657/7/3
f 660/7/3 658/7/3 659/7/3
f 663/8/3 662/8/3 661/8/3
f 664/8/3 662/8/3 663/8/3
f 665/8/3 663/8/3 661/8/3
f 666/8/3 663/8/3 665/8/3
f 667/9/3 664/9/3 663/9/3
f 667/8/3 663/8/3 666/8/3
f 668/8/3 662/8/3 664/8/3
f 668/9/3 664/9/3 667/9/3
f 669/8/3 665/8/3 661/8/3
f 671/8/3 668/8/3 667/8/3
f 672/8/3 662/8/3 668/8/3
f 672/8/3 668/8/3 671/8/3
f 673/8/3 671/8/3 670/8/3
f 673/8/3 670/8/3 669/8/3
f 673/9/3 672/9/3 671/9/3
f 674/8/3 662/8/3 672/8/3
f 674/9/3 672/9/3 673/9/3
f 677/8/3 673/8/3 669/8/3
f 677/8/3 669/8/3 661/8/3
f 677/8/3 674/8/3 673/8/3
f 678/8/3 662/8/3 674/8/3
f 678/8/3 674/8/3 677/8/3
f 679/7/3 676/7/3 675/7/3
f 680/7/3 676/7/3 679/7/3
f 683/7/3 682/7/3 681/7/3
f 684/7/3 682/7/3 683/7/3
f 687/7/3 686/7/3 685/7/3
f 688/7/3 686/7/3 687/7/3
f 691/7/3 690/7/3 689/7/3
f 692/7/3 690/7/3 691/7/3
f 695/4/3 694/4/3 693/4/3
f 696/4/3 694/4/3 695/4/3
f 697/4/3 694/4/3 696/4/3
f 698/4/3 694/4/3 697/4/3
f 699/4/3 694/4/3 698/4/3
f 700/4/3 694/4/3 699/4/3
f 702/4/3 697/4/3 696/4/3
f 703/4/3 697/4/3 702/4/3
f 704/4/3 699/4/3 698/4/3
f 705/4/3 699/4/3 704/4/3
f 708/4/3 703/4/3 702/4/3
f 708/4/3 706/4/3 705/4/3
f 708/4/3 705/4/3 704/4/3
f 708/4/3 704/4/3 703/4/3
f 708/4/3 702/4/3 701/4/3
f 709/4/3 706/4/3 708/4/3
f 710/7/3 708/7/3 707/7/3
f 711/7/3 708/7/3 710/7/3
f 716/3/3 713/3/3 712/3/3
f 717/3/3 713/3/3 716/3/3
f 720/6/3 715/6/3 714/6/3
f 721/6/3 715/6/3 720/6/3
f 722/3/3 719/3/3 718/3/3
f 723/3/3 719/3/3 722/3/3
f 726/8/3 725/8/3 724/8/3
f 727/8/3 725/8/3 726/8/3
f 730/8/3 729/8/3 728/8/3
f 731/8/3 729/8/3 730/8/3
f 738/4/3 733/4/3 732/4/3
f 739/4/3 733/4/3 738/4/3
f 740/4/3 735/4/3 734/4/3
f 741/4/3 735/4/3 740/4/3
f 742/4/3 737/4/3 736/4/3
f 743/4/3 737/4/3 742/4/3
f 746/7/3 745/7/3 744/7/3
f 747/7/3 745/7/3 746/7/3
f 750/7/3 749/7/3 748/7/3
f 751/7/3 749/7/3 750/7/3
f 754/7/3 753/7/3 752/7/3
f 755/7/3 753/7/3 754/7/3
f 758/7/3 757/7/3 756/7/3
f 759/7/3 757/7/3 758/7/3
f 762/7/3 761/7/3 760/7/3
f 763/7/3 761/7/3 762/7/3
f 766/7/3 765/7/3 764/7/3
f 767/7/3 765/7/3 766/7/3
f 770/7/3 769/7/3 768/7/3
f 771/7/3 769/7/3 770/7/3
f 774/7/3 773/7/3 772/7/3
f 775/7/3 773/7/3 774/7/3
f 778/7/3 777/7/3 776/7/3
f 779/7/3 777/7/3 778/7/3
f 782/7/3 781/7/3 780/7/3
f 783/7/3 781/7/3 782/7/3
f 786/7/3 785/7/3 784/7/3
f 787/7/3 785/7/3 786/7/3
f 790/7/3 789/7/3 788/7/3
f 791/7/3 789/7/3 790/7/3
f 794/7/3 793/7/3 792/7/3
f 795/7/3 793/7/3 794/7/3
f 798/6/3 797/6/3 796/6/3
f 799/6/3 797/6/3 798/6/3
f 802/6/3 801/6/3 800/6/3
f 803/6/3 801/6/3 802/6/3
f 806/7/3 805/7/3 804/7/3
f 807/7/3 805/7/3 806/7/3
f 810/7/3 809/7/3 808/7/3
f 811/7/3 809/7/3 810/7/3
f 814/7/3 813/7/3 812/7/3
f 815/7/3 813/7/3 814/7/3
f 818/7/3 817/7/3 816/7/3
f 819/7/3 817/7/3 818/7/3
f 822/7/3 821/7/3 820/7/3
f 823/7/3 821/7/3 822/7/3
f 826/6/3 825/6/3 824/6/3
f 827/6/3 825/6/3 826/6/3
f 830/6/3 829/6/3 828/6/3
f 831/6/3 829/6/3 830/6/3
f 834/6/3 833/6/3 832/6/3
f 835/6/3 833/6/3 834/6/3
f 842/5/3 837/5/3 836/5/3
f 843/4/3 838/4/3 837/4/3
f 843/5/3 837/5/3 842/5/3
f 844/5/3 839/5/3 838/5/3
f 844/4/3 838/4/3 843/4/3
f 845/4/3 840/4/3 839/4/3
f 845/5/3 839/5/3 844/5/3
f 846/5/3 841/5/3 840/5/3
f 846/4/3 840/4/3 845/4/3
f 847/5/3 841/5/3 846/5/3
f 849/3/3 843/3/3 842/3/3
f 850/4/3 844/4/3 843/4/3
f 850/3/3 843/3/3 849/3/3
f 851/3/3 845/3/3 844/3/3
f 851/4/3 844/4/3 850/4/3
f 852/4/3 846/4/3 845/4/3
f 852/3/3 845/3/3 851/3/3
f 853/3/3 848/3/3 847/3/3
f 853/4/3 846/4/3 852/4/3
f 853/3/3 847/3/3 846/3/3
f 854/3/3 848/3/3 853/3/3
f 855/3/3 848/3/3 854/3/3
f 856/5/3 850/5/3 849/5/3
f 857/4/3 851/4/3 850/4/3
f 857/5/3 850/5/3 856/5/3
f 858/5/3 852/5/3 851/5/3
f 858/4/3 851/4/3 857/4/3
f 859/4/3 853/4/3 852/4/3
f 859/5/3 852/5/3 858/5/3
f 860/5/3 854/5/3 853/5/3
f 860/4/3 853/4/3 859/4/3
f 861/5/3 854/5/3 860/5/3
f 862/3/3 857/3/3 856/3/3
f 863/4/3 858/4/3 857/4/3
f 863/3/3 857/3/3 862/3/3
f 864/3/3 859/3/3 858/3/3
f 864/4/3 858/4/3 863/4/3
f 865/4/3 860/4/3 859/4/3
f 865/3/3 859/3/3 864/3/3
f 866/3/3 861/3/3 860/3/3
f 866/4/3 860/4/3 865/4/3
f 867/3/3 861/3/3 866/3/3
f 870/6/3 869/6/3 868/6/3
f 871/6/3 869/6/3 870/6/3
f 874/6/3 873/6/3 872/6/3
f 875/6/3 873/6/3 874/6/3
f 878/3/3 877/3/3 876/3/3
f 879/3/3 877/3/3 878/3/3
f 882/6/3 881/6/3 880/6/3
f 883/6/3 881/6/3 882/6/3
f 886/6/3 885/6/3 884/6/3
f 887/6/3 885/6/3 886/6/3
f 890/5/3 889/5/3 888/5/3
f 891/5/3 889/5/3 890/5/3
f 894/6/3 893/6/3 892/6/3
f 895/6/3 893/6/3 894/6/3
f 898/6/3 897/6/3 896/6/3
f 899/6/3 897/6/3 898/6/3
f 902/3/3 901/3/3 900/3/3
f 903/3/3 901/3/3 902/3/3
f 906/6/3 905/6/3 904/6/3
f 907/6/3 905/6/3 906/6/3
f 911/5/3 909/5/3 908/5/3
f 912/5/3 909/5/3 911/5/3
f 914/3/3 911/3/3 910/3/3
f 915/5/3 912/5/3 911/5/3
f 915/3/3 911/3/3 914/3/3
f 916/3/3 913/3/3 912/3/3
f 916/5/3 912/5/3 915/5/3
f 917/3/3 913/3/3 916/3/3
f 918/4/3 915/4/3 914/4/3
f 918/4/3 916/4/3 915/4/3
f 918/4/3 917/4/3 916/4/3
f 919/4/3 917/4/3 918/4/3
f 920/4/3 917/4/3 919/4/3
f 921/4/3 917/4/3 920/4/3
f 922/3/3 919/3/3 918/3/3
f 923/3/3 919/3/3 922/3/3
f 924/5/3 920/5/3 919/5/3
f 924/3/3 919/3/3 923/3/3
f 925/3/3 921/3/3 920/3/3
f 925/5/3 920/5/3 924/5/3
f 926/3/3 921/3/3 925/3/3
f 929/6/3 928/6/3 927/6/3
f 930/6/3 928/6/3 929/6/3
f 933/6/3 932/6/3 931/6/3
f 934/6/3 932/6/3 933/6/3
f 937/6/3 936/6/3 935/6/3
f 938/6/3 936/6/3 937/6/3
f 941/6/3 940/6/3 939/6/3
f 942/6/3 940/6/3 941/6/3
f 945/5/3 944/5/3 943/5/3
f 946/5/3 944/5/3 945/5/3
f 949/3/3 948/3/3 947/3/3
f 950/3/3 948/3/3 949/3/3
f 953/6/3 952/6/3 951/6/3
f 954/6/3 952/6/3 953/6/3
f 957/6/3 956/6/3 955/6/3
f 958/6/3 956/6/3 957/6/3
f 961/5/3 960/5/3 959/5/3
f 962/5/3 960/5/3 961/5/3
f 965/3/3 964/3/3 963/3/3
f 966/3/3 964/3/3 965/3/3
f 969/6/3 968/6/3 967/6/3
f 970/6/3 968/6/3 969/6/3
f 975/5/3 972/5/3 971/5/3
f 976/5/3 972/5/3 975/5/3
f 977/5/3 974/5/3 973/5/3
f 978/5/3 974/5/3 977/5/3
f 981/5/3 980/5/3 979/5/3
f 982/5/3 980/5/3 981/5/3
f 983/4/4 984/4/4 985/4/4
f 985/4/4 984/4/4 986/4/4
f 986/4/4 984/4/4 987/4/4
f 987/4/4 984/4/4 988/4/4
f 988/4/4 984/4/4 989/4/4
f 989/4/4 984/4/4 990/4/4
f 986/4/4 987/4/4 992/4/4
f 992/4/4 987/4/4 993/4/4
f 988/4/4 989/4/4 994/4/4
f 994/4/4 989/4/4 995/4/4
f 991/4/4 992/4/4 997/4/4
f 997/4/4 992/4/4 998/4/4
f 993/4/4 994/4/4 999/4/4
f 999/4/4 994/4/4 1000/4/4
f 995/4/4 996/4/4 1001/4/4
f 1001/4/4 996/4/4 1002/4/4
f 1003/6/4 1004/6/4 1005/6/4
f 1005/6/4 1004/6/4 1006/6/4
f 1007/3/4 1008/3/4 1009/3/4
f 1009/3/4 1008/3/4 1010/3/4
f 1011/3/4 1012/3/4 1013/3/4
f 1013/3/4 1012/3/4 1014/3/4
f 1015/8/4 1016/8/4 1017/8/4
f 1017/8/4 1016/8/4 1018/8/4
f 1019/4/4 1020/4/4 1021/4/4
f 1021/4/4 1020/4/4 1022/4/4
f 1023/7/4 1024/7/4 1027/7/4
f 1027/7/4 1024/7/4 1028/7/4
f 1025/8/4 1026/8/4 1029/8/4
f 1029/8/4 1026/8/4 1030/8/4
f 1031/7/4 1032/7/4 1035/7/4
f 1035/7/4 1032/7/4 1036/7/4
f 1033/8/4 1034/8/4 1037/8/4
f 1037/8/4 1034/8/4 1038/8/4
f 1039/7/4 1040/7/4 1041/7/4
f 1041/7/4 1040/7/4 1042/7/4
f 1043/7/4 1044/7/4 1045/7/4
f 1045/7/4 1044/7/4 1046/7/4
f 1047/7/4 1048/7/4 1049/7/4
f 1049/7/4 1048/7/4 1050/7/4
f 1051/7/4 1052/7/4 1053/7/4
f 1053/7/4 1052/7/4 1054/7/4
f 1055/7/4 1056/7/4 1059/7/4
f 1059/7/4 1056/7/4 1060/7/4
f 1057/8/4 1058/8/4 1061/8/4
f 1061/8/4 1058/8/4 1062/8/4
f 1063/7/4 1064/7/4 1065/7/4
f 1065/7/4 1064/7/4 1066/7/4
f 1067/7/4 1068/7/4 1069/7/4
f 1069/7/4 1068/7/4 1070/7/4
f 1071/7/4 1072/7/4 1073/7/4
f 1073/7/4 1072/7/4 1074/7/4
f 1075/7/4 1076/7/4 1077/7/4
f 1077/7/4 1076/7/4 1078/7/4
f 1079/7/4 1080/7/4 1081/7/4
f 1081/7/4 1080/7/4 1082/7/4
f 1083/7/4 1084/7/4 1085/7/4
f 1085/7/4 1084/7/4 1086/7/4
f 1087/7/4 1088/7/4 1089/7/4
f 1089/7/4 1088/7/4 1090/7/4
f 1091/7/4 1092/7/4 1093/7/4
f 1093/7/4 1092/7/4 1094/7/4
f 1095/7/4 1096/7/4 1097/7/4
f 1097/7/4 1096/7/4 1098/7/4
f 1099/7/4 1100/7/4 1101/7/4
f 1101/7/4 1100/7/4 1102/7/4
f 1103/7/4 1104/7/4 1105/7/4
f 1105/7/4 1104/7/4 1106/7/4
f 1107/6/4 1108/6/4 1109/6/4
f 1109/6/4 1108/6/4 1110/6/4
f 1111/6/4 1112/6/4 1113/6/4
f 1113/6/4 1112/6/4 1114/6/4
f 1115/6/4 1116/6/4 1117/6/4
f 1117/6/4 1116/6/4 1118/6/4
f 1119/6/4 1120/6/4 1121/6/4
f 1121/6/4 1120/6/4 1122/6/4
f 1123/3/4 1124/3/4 1125/3/4
f 1125/3/4 1124/3/4 1126/3/4
f 1127/6/4 1128/6/4 1129/6/4
f 1129/6/4 1128/6/4 1130/6/4
f 1131/6/4 1132/6/4 1133/6/4
f 1133/6/4 1132/6/4 1134/6/4
f 1135/3/4 1136/3/4 1137/3/4
f 1137/3/4 1136/3/4 1138/3/4
f 1139/6/4 1140/6/4 1141/6/4
f 1141/6/4 1140/6/4 1142/6/4
f 1143/6/4 1144/6/4 1145/6/4
f 1145/6/4 1144/6/4 1146/6/4
f 1147/5/4 1148/5/4 1149/5/4
f 1149/5/4 1148/5/4 1150/5/4
f 1151/6/4 1152/6/4 1153/6/4
f 1153/6/4 1152/6/4 1154/6/4
f 1155/6/4 1156/6/4 1157/6/4
f 1157/6/4 1156/6/4 1158/6/4
f 1159/3/4 1160/3/4 1163/3/4
f 1161/5/4 1162/5/4 1164/5/4
f 1160/4/4 1161/4/4 1164/4/4
f 1164/5/4 1162/5/4 1165/5/4
f 1163/3/4 1160/3/4 1166/3/4
f 1160/4/4 1164/4/4 1167/4/4
f 1164/3/4 1165/3/4 1167/3/4
f 1167/3/4 1165/3/4 1168/3/4
f 1166/3/4 1160/3/4 1172/3/4
f 1160/4/4 1167/4/4 1173/4/4
f 1167/5/4 1168/5/4 1173/5/4
f 1173/5/4 1168/5/4 1174/5/4
f 1169/4/4 1170/4/4 1176/4/4
f 1170/3/4 1171/3/4 1177/3/4
f 1176/4/4 1170/4/4 1177/4/4
f 1171/3/4 1172/3/4 1177/3/4
f 1172/3/4 1160/3/4 1178/3/4
f 1177/3/4 1172/3/4 1178/3/4
f 1160/4/4 1173/4/4 1178/4/4
f 1173/3/4 1174/3/4 1179/3/4
f 1178/4/4 1173/4/4 1179/4/4
f 1174/3/4 1175/3/4 1179/3/4
f 1179/3/4 1175/3/4 1180/3/4
f 1181/6/4 1182/6/4 1183/6/4
f 1183/6/4 1182/6/4 1184/6/4
f 1185/5/4 1186/5/4 1187/5/4
f 1187/5/4 1186/5/4 1188/5/4
f 1189/3/4 1190/3/4 1191/3/4
f 1191/3/4 1190/3/4 1192/3/4
f 1193/6/4 1194/6/4 1195/6/4
f 1195/6/4 1194/6/4 1196/6/4
f 1197/6/4 1198/6/4 1199/6/4
f 1199/6/4 1198/6/4 1200/6/4
f 1201/6/4 1202/6/4 1203/6/4
f 1203/6/4 1202/6/4 1204/6/4
f 1205/5/4 1206/5/4 1207/5/4
f 1207/5/4 1206/5/4 1208/5/4
f 1209/3/4 1210/3/4 1211/3/4
f 1211/3/4 1210/3/4 1212/3/4
f 1213/6/4 1214/6/4 1215/6/4
f 1215/6/4 1214/6/4 1216/6/4
f 1217/6/4 1218/6/4 1219/6/4
f 1219/6/4 1218/6/4 1220/6/4
f 1221/6/4 1222/6/4 1223/6/4
f 1223/6/4 1222/6/4 1224/6/4
f 1225/5/4 1226/5/4 1227/5/4
f 1227/5/4 1226/5/4 1228/5/4
f 1229/3/4 1230/3/4 1231/3/4
f 1231/3/4 1230/3/4 1232/3/4
f 1233/7/4 1234/7/4 1235/7/4
f 1235/7/4 1234/7/4 1236/7/4
f 1237/6/4 1238/6/4 1239/6/4
f 1239/6/4 1238/6/4 1240/6/4
f 1241/6/4 1242/6/4 1243/6/4
f 1243/6/4 1242/6/4 1244/6/4
f 1245/7/4 1246/7/4 1247/7/4
f 1247/7/4 1246/7/4 1248/7/4
f 1249/7/4 1250/7/4 1251/7/4
f 1251/7/4 1250/7/4 1252/7/4
f 1253/7/4 1254/7/4 1255/7/4
f 1255/7/4 1254/7/4 1256/7/4
f 1257/7/4 1258/7/4 1259/7/4
f 1259/7/4 1258/7/4 1260/7/4
f 1260/5/4 1261/5/4 1264/5/4
f 1264/5/4 1261/5/4 1265/5/4
f 1262/5/4 1263/5/4 1267/5/4
f 1264/3/4 1265/3/4 1268/3/4
f 1265/5/4 1266/5/4 1269/5/4
f 1268/3/4 1265/3/4 1269/3/4
f 1266/3/4 1267/3/4 1270/3/4
f 1269/5/4 1266/5/4 1270/5/4
f 1267/5/4 1263/5/4 1271/5/4
f 1270/3/4 1267/3/4 1271/3/4
f 1271/5/4 1263/5/4 1272/5/4
f 1268/4/4 1269/4/4 1273/4/4
f 1269/4/4 1270/4/4 1273/4/4
f 1271/4/4 1272/4/4 1273/4/4
f 1270/4/4 1271/4/4 1273/4/4
f 1273/4/4 1272/4/4 1274/4/4
f 1274/4/4 1272/4/4 1275/4/4
f 1275/4/4 1272/4/4 1276/4/4
f 1276/4/4 1272/4/4 1277/4/4
f 1273/3/4 1274/3/4 1278/3/4
f 1274/5/4 1275/5/4 1279/5/4
f 1278/3/4 1274/3/4 1279/3/4
f 1275/3/4 1276/3/4 1280/3/4
f 1279/5/4 1275/5/4 1280/5/4
f 1276/5/4 1277/5/4 1281/5/4
f 1280/3/4 1276/3/4 1281/3/4
f 1281/5/4 1277/5/4 1282/5/4
f 1278/4/4 1279/4/4 1283/4/4
f 1279/4/4 1280/4/4 1283/4/4
f 1281/4/4 1282/4/4 1283/4/4
f 1280/4/4 1281/4/4 1283/4/4
f 1283/4/4 1282/4/4 1284/4/4
f 1284/4/4 1282/4/4 1285/4/4
f 1285/4/4 1282/4/4 1286/4/4
f 1283/5/4 1284/5/4 1287/5/4
f 1287/5/4 1284/5/4 1288/5/4
f 1284/3/4 1285/3/4 1289/3/4
f 1288/5/4 1284/5/4 1289/5/4
f 1285/5/4 1286/5/4 1290/5/4
f 1289/3/4 1285/3/4 1290/3/4
f 1290/5/4 1286/5/4 1291/5/4
f 1288/5/4 1289/5/4 1294/5/4
f 1294/5/4 1289/5/4 1295/5/4
f 1292/7/4 1293/7/4 1296/7/4
f 1296/7/4 1293/7/4 1297/7/4
f 1298/7/4 1299/7/4 1300/7/4
f 1298/7/4 1300/7/4 1302/7/4
f 1300/7/4 1301/7/4 1302/7/4
f 1302/7/4 1301/7/4 1303/7/4
f 1304/7/4 1305/7/4 1306/7/4
f 1306/7/4 1305/7/4 1307/7/4
f 1308/7/4 1309/7/4 1310/7/4
f 1310/7/4 1309/7/4 1311/7/4
f 1319/7/5 1313/7/5 1312/7/5
f 1320/7/5 1313/7/5 1319/7/5
f 1323/7/5 1315/7/5 1314/7/5
f 1324/7/5 1315/7/5 1323/7/5
f 1327/7/5 1317/7/5 1316/7/5
f 1328/7/5 1317/7/5 1327/7/5
f 1330/7/5 1321/7/5 1320/7/5
f 1330/7/5 1319/7/5 1318/7/5
f 1330/7/5 1320/7/5 1319/7/5
f 1331/7/5 1321/7/5 1330/7/5
f 1332/7/5 1321/7/5 1331/7/5
f 1333/7/5 1321/7/5 1332/7/5
f 1334/7/5 1325/7/5 1324/7/5
f 1334/7/5 1323/7/5 1322/7/5
f 1334/7/5 1324/7/5 1323/7/5
f 1335/7/5 1325/7/5 1334/7/5
f 1336/7/5 1325/7/5 1335/7/5
f 1337/7/5 1325/7/5 1336/7/5
f 1338/7/5 1329/7/5 1328/7/5
f 1338/7/5 1328/7/5 1327/7/5
f 1338/7/5 1327/7/5 1326/7/5
f 1339/7/5 1329/7/5 1338/7/5
f 1340/7/5 1329/7/5 1339/7/5
f 1341/7/5 1329/7/5 1340/7/5
f 1342/7/5 1332/7/5 1331/7/5
f 1343/7/5 1332/7/5 1342/7/5
f 1344/7/5 1336/7/5 1335/7/5
f 1345/7/5 1336/7/5 1344/7/5
f 1346/7/5 1340/7/5 1339/7/5
f 1347/7/5 1340/7/5 1346/7/5
f 1355/7/5 1349/7/5 1348/7/5
f 1356/7/5 1349/7/5 1355/7/5
f 1359/7/5 1351/7/5 1350/7/5
f 1360/7/5 1351/7/5 1359/7/5
f 1363/7/5 1353/7/5 1352/7/5
f 1364/7/5 1353/7/5 1363/7/5
f 1366/7/5 1357/7/5 1356/7/5
f 1366/7/5 1355/7/5 1354/7/5
f 1366/7/5 1356/7/5 1355/7/5
f 1367/7/5 1357/7/5 1366/7/5
f 1368/7/5 1357/7/5 1367/7/5
f 1369/7/5 1357/7/5 1368/7/5
f 1370/7/5 1361/7/5 1360/7/5
f 1370/7/5 1359/7/5 1358/7/5
f 1370/7/5 1360/7/5 1359/7/5
f 1371/7/5 1361/7/5 1370/7/5
f 1372/7/5 1361/7/5 1371/7/5
f 1373/7/5 1361/7/5 1372/7/5
f 1374/7/5 1364/7/5 1363/7/5
f 1374/7/5 1365/7/5 1364/7/5
f 1374/7/5 1363/7/5 1362/7/5
f 1375/7/5 1365/7/5 1374/7/5
f 1376/7/5 1365/7/5 1375/7/5
f 1377/7/5 1365/7/5 1376/7/5
f 1378/7/5 1368/7/5 1367/7/5
f 1379/7/5 1368/7/5 1378/7/5
f 1380/7/5 1372/7/5 1371/7/5
f 1381/7/5 1372/7/5 1380/7/5
f 1382/7/5 1376/7/5 1375/7/5
f 1383/7/5 1376/7/5 1382/7/5
f 1391/7/5 1385/7/5 1384/7/5
f 1392/7/5 1385/7/5 1391/7/5
f 1395/7/5 1387/7/5 1386/7/5
f 1396/7/5 1387/7/5 1395/7/5
f 1399/7/5 1389/7/5 1388/7/5
f 1400/7/5 1389/7/5 1399/7/5
f 1402/7/5 1393/7/5 1392/7/5
f 1402/7/5 1391/7/5 1390/7/5
f 1402/7/5 1392/7/5 1391/7/5
f 1403/7/5 1393/7/5 1402/7/5
f 1404/7/5 1397/7/5 1396/7/5
f 1404/7/5 1395/7/5 1394/7/5
f 1404/7/5 1396/7/5 1395/7/5
f 1405/7/5 1397/7/5 1404/7/5
f 1406/7/5 1397/7/5 1405/7/5
f 1407/7/5 1397/7/5 1406/7/5
f 1408/7/5 1400/7/5 1399/7/5
f 1408/7/5 1401/7/5 1400/7/5
f 1408/7/5 1399/7/5 1398/7/5
f 1409/7/5 1401/7/5 1408/7/5
f 1410/7/5 1401/7/5 1409/7/5
f 1411/7/5 1401/7/5 1410/7/5
f 1412/7/5 1402/7/5 1390/7/5
f 1413/7/5 1402/7/5 1412/7/5
f 1414/7/5 1406/7/5 1405/7/5
f 1415/7/5 1406/7/5 1414/7/5
f 1416/7/5 1410/7/5 1409/7/5
f 1417/7/5 1410/7/5 1416/7/5
f 1422/4/5 1421/4/5 1420/4/5
f 1423/4/5 1421/4/5 1422/4/5
f 1425/8/5 1419/8/5 1418/8/5
f 1426/8/5 1419/8/5 1425/8/5
f 1427/8/5 1419/8/5 1426/8/5
f 1428/8/5 1419/8/5 1427/8/5
f 1429/8/5 1425/8/5 1418/8/5
f 1430/8/5 1427/8/5 1426/8/5
f 1431/8/5 1427/8/5 1430/8/5
f 1432/8/5 1419/8/5 1428/8/5
f 1433/4/5 1424/4/5 1423/4/5
f 1434/4/5 1424/4/5 1433/4/5
f 1435/8/5 1432/8/5 1431/8/5
f 1435/8/5 1431/8/5 1430/8/5
f 1435/8/5 1429/8/5 1418/8/5
f 1435/8/5 1430/8/5 1429/8/5
f 1436/8/5 1419/8/5 1432/8/5
f 1436/8/5 1432/8/5 1435/8/5
f 1439/5/5 1438/5/5 1437/5/5
f 1440/5/5 1438/5/5 1439/5/5
f 1443/5/5 1442/5/5 1441/5/5
f 1444/5/5 1442/5/5 1443/5/5
f 1449/8/5 1446/8/5 1445/8/5
f 1450/8/5 1446/8/5 1449/8/5
f 1451/8/5 1448/8/5 1447/8/5
f 1452/8/5 1448/8/5 1451/8/5
f 1455/5/5 1454/5/5 1453/5/5
f 1456/5/5 1454/5/5 1455/5/5
f 1459/3/5 1458/3/5 1457/3/5
f 1460/3/5 1458/3/5 1459/3/5
f 1463/6/5 1462/6/5 1461/6/5
f 1464/6/5 1462/6/5 1463/6/5
f 1467/4/5 1466/4/5 1465/4/5
f 1468/4/5 1466/4/5 1467/4/5
f 1470/4/5 1469/4/5 1468/4/5
f 1471/4/5 1469/4/5 1470/4/5
f 1474/5/5 1473/5/5 1472/5/5
f 1475/5/5 1473/5/5 1474/5/5
f 1476/7/6 1477/7/6 1478/7/6
f 1478/7/6 1477/7/6 1479/7/6
f 1480/7/6 1481/7/6 1487/7/6
f 1487/7/6 1481/7/6 1488/7/6
f 1482/7/6 1483/7/6 1491/7/6
f 1491/7/6 1483/7/6 1492/7/6
f 1484/7/6 1485/7/6 1495/7/6
f 1495/7/6 1485/7/6 1496/7/6
f 1496/7/6 1485/7/6 1497/7/6
f 1497/7/6 1485/7/6 1498/7/6
f 1498/7/6 1485/7/6 1499/7/6
f 1494/7/6 1495/7/6 1501/7/6
f 1495/7/6 1496/7/6 1501/7/6
f 1497/7/6 1498/7/6 1502/7/6
f 1502/7/6 1498/7/6 1503/7/6
f 1499/7/6 1500/7/6 1504/7/6
f 1488/7/6 1489/7/6 1505/7/6
f 1486/7/6 1487/7/6 1505/7/6
f 1487/7/6 1488/7/6 1505/7/6
f 1505/7/6 1489/7/6 1506/7/6
f 1506/7/6 1489/7/6 1507/7/6
f 1507/7/6 1489/7/6 1508/7/6
f 1486/7/6 1505/7/6 1509/7/6
f 1506/7/6 1507/7/6 1510/7/6
f 1510/7/6 1507/7/6 1511/7/6
f 1508/7/6 1489/7/6 1512/7/6
f 1503/7/6 1504/7/6 1513/7/6
f 1502/7/6 1503/7/6 1513/7/6
f 1501/7/6 1502/7/6 1513/7/6
f 1504/7/6 1500/7/6 1514/7/6
f 1513/7/6 1504/7/6 1514/7/6
f 1501/7/6 1513/7/6 1515/7/6
f 1514/7/6 1500/7/6 1516/7/6
f 1511/7/6 1512/7/6 1517/7/6
f 1510/7/6 1511/7/6 1517/7/6
f 1486/7/6 1509/7/6 1517/7/6
f 1509/7/6 1510/7/6 1517/7/6
f 1517/7/6 1512/7/6 1518/7/6
f 1512/7/6 1489/7/6 1519/7/6
f 1518/7/6 1512/7/6 1519/7/6
f 1519/7/6 1489/7/6 1520/7/6
f 1492/7/6 1493/7/6 1521/7/6
f 1490/7/6 1491/7/6 1521/7/6
f 1491/7/6 1492/7/6 1521/7/6
f 1521/7/6 1493/7/6 1522/7/6
f 1522/7/6 1493/7/6 1523/7/6
f 1523/7/6 1493/7/6 1524/7/6
f 1515/7/6 1516/7/6 1525/7/6
f 1501/7/6 1515/7/6 1525/7/6
f 1494/7/6 1501/7/6 1525/7/6
f 1525/7/6 1516/7/6 1526/7/6
f 1516/7/6 1500/7/6 1527/7/6
f 1526/7/6 1516/7/6 1527/7/6
f 1527/7/6 1500/7/6 1528/7/6
f 1518/7/6 1519/7/6 1529/7/6
f 1529/7/6 1519/7/6 1530/7/6
f 1522/7/6 1523/7/6 1531/7/6
f 1531/7/6 1523/7/6 1532/7/6
f 1526/7/6 1527/7/6 1533/7/6
f 1533/7/6 1527/7/6 1534/7/6
f 1535/7/6 1536/7/6 1542/7/6
f 1542/7/6 1536/7/6 1543/7/6
f 1537/7/6 1538/7/6 1546/7/6
f 1546/7/6 1538/7/6 1547/7/6
f 1539/7/6 1540/7/6 1550/7/6
f 1550/7/6 1540/7/6 1551/7/6
f 1543/7/6 1544/7/6 1553/7/6
f 1541/7/6 1542/7/6 1553/7/6
f 1542/7/6 1543/7/6 1553/7/6
f 1553/7/6 1544/7/6 1554/7/6
f 1554/7/6 1544/7/6 1555/7/6
f 1555/7/6 1544/7/6 1556/7/6
f 1547/7/6 1548/7/6 1557/7/6
f 1545/7/6 1546/7/6 1557/7/6
f 1546/7/6 1547/7/6 1557/7/6
f 1557/7/6 1548/7/6 1558/7/6
f 1558/7/6 1548/7/6 1559/7/6
f 1559/7/6 1548/7/6 1560/7/6
f 1550/7/6 1551/7/6 1561/7/6
f 1551/7/6 1552/7/6 1561/7/6
f 1549/7/6 1550/7/6 1561/7/6
f 1561/7/6 1552/7/6 1562/7/6
f 1562/7/6 1552/7/6 1563/7/6
f 1563/7/6 1552/7/6 1564/7/6
f 1554/7/6 1555/7/6 1565/7/6
f 1565/7/6 1555/7/6 1566/7/6
f 1558/7/6 1559/7/6 1567/7/6
f 1567/7/6 1559/7/6 1568/7/6
f 1562/7/6 1563/7/6 1569/7/6
f 1569/7/6 1563/7/6 1570/7/6
f 1571/7/6 1572/7/6 1578/7/6
f 1578/7/6 1572/7/6 1579/7/6
f 1579/7/6 1572/7/6 1580/7/6
f 1580/7/6 1572/7/6 1581/7/6
f 1581/7/6 1572/7/6 1582/7/6
f 1582/7/6 1572/7/6 1583/7/6
f 1573/7/6 1574/7/6 1586/7/6
f 1586/7/6 1574/7/6 1587/7/6
f 1575/7/6 1576/7/6 1590/7/6
f 1590/7/6 1576/7/6 1591/7/6
f 1577/7/6 1578/7/6 1593/7/6
f 1578/7/6 1579/7/6 1593/7/6
f 1593/7/6 1579/7/6 1594/7/6
f 1580/7/6 1581/7/6 1595/7/6
f 1595/7/6 1581/7/6 1596/7/6
f 1596/7/6 1581/7/6 1597/7/6
f 1583/7/6 1584/7/6 1598/7/6
f 1582/7/6 1583/7/6 1598/7/6
f 1577/7/6 1593/7/6 1599/7/6
f 1596/7/6 1597/7/6 1602/7/6
f 1597/7/6 1598/7/6 1602/7/6
f 1598/7/6 1584/7/6 1603/7/6
f 1602/7/6 1598/7/6 1603/7/6
f 1603/7/6 1584/7/6 1604/7/6
f 1590/7/6 1591/7/6 1605/7/6
f 1591/7/6 1592/7/6 1605/7/6
f 1589/7/6 1590/7/6 1605/7/6
f 1605/7/6 1592/7/6 1606/7/6
f 1606/7/6 1592/7/6 1607/7/6
f 1607/7/6 1592/7/6 1608/7/6
f 1608/7/6 1592/7/6 1609/7/6
f 1599/7/6 1600/7/6 1610/7/6
f 1602/7/6 1603/7/6 1611/7/6
f 1601/7/6 1602/7/6 1611/7/6
f 1611/7/6 1603/7/6 1612/7/6
f 1612/7/6 1603/7/6 1613/7/6
f 1604/7/6 1584/7/6 1614/7/6
f 1614/7/6 1584/7/6 1615/7/6
f 1589/7/6 1605/7/6 1616/7/6
f 1609/7/6 1592/7/6 1617/7/6
f 1599/7/6 1610/7/6 1618/7/6
f 1577/7/6 1599/7/6 1618/7/6
f 1610/7/6 1611/7/6 1618/7/6
f 1611/7/6 1612/7/6 1618/7/6
f 1618/7/6 1612/7/6 1619/7/6
f 1619/7/6 1612/7/6 1620/7/6
f 1620/7/6 1612/7/6 1621/7/6
f 1621/7/6 1612/7/6 1622/7/6
f 1615/7/6 1584/7/6 1625/7/6
f 1589/7/6 1616/7/6 1626/7/6
f 1617/7/6 1592/7/6 1627/7/6
f 1577/7/6 1618/7/6 1628/7/6
f 1619/7/6 1620/7/6 1629/7/6
f 1629/7/6 1620/7/6 1630/7/6
f 1630/7/6 1620/7/6 1631/7/6
f 1622/7/6 1623/7/6 1632/7/6
f 1621/7/6 1622/7/6 1632/7/6
f 1632/7/6 1623/7/6 1633/7/6
f 1633/7/6 1623/7/6 1634/7/6
f 1624/7/6 1625/7/6 1635/7/6
f 1589/7/6 1626/7/6 1636/7/6
f 1629/7/6 1630/7/6 1637/7/6
f 1628/7/6 1629/7/6 1637/7/6
f 1634/7/6 1635/7/6 1640/7/6
f 1633/7/6 1634/7/6 1640/7/6
f 1635/7/6 1625/7/6 1641/7/6
f 1640/7/6 1635/7/6 1641/7/6
f 1625/7/6 1584/7/6 1642/7/6
f 1641/7/6 1625/7/6 1642/7/6
f 1589/7/6 1636/7/6 1643/7/6
f 1643/7/6 1636/7/6 1644/7/6
f 1644/7/6 1636/7/6 1645/7/6
f 1645/7/6 1636/7/6 1646/7/6
f 1637/7/6 1638/7/6 1647/7/6
f 1628/7/6 1637/7/6 1647/7/6
f 1647/7/6 1638/7/6 1648/7/6
f 1648/7/6 1638/7/6 1649/7/6
f 1640/7/6 1641/7/6 1650/7/6
f 1639/7/6 1640/7/6 1650/7/6
f 1650/7/6 1641/7/6 1651/7/6
f 1651/7/6 1641/7/6 1652/7/6
f 1652/7/6 1641/7/6 1653/7/6
f 1653/7/6 1641/7/6 1654/7/6
f 1642/7/6 1584/7/6 1655/7/6
f 1655/7/6 1584/7/6 1656/7/6
f 1589/7/6 1643/7/6 1657/7/6
f 1657/7/6 1643/7/6 1658/7/6
f 1627/7/6 1592/7/6 1660/7/6
f 1577/7/6 1628/7/6 1661/7/6
f 1628/7/6 1647/7/6 1661/7/6
f 1661/7/6 1647/7/6 1662/7/6
f 1648/7/6 1649/7/6 1663/7/6
f 1650/7/6 1651/7/6 1663/7/6
f 1649/7/6 1650/7/6 1663/7/6
f 1663/7/6 1651/7/6 1664/7/6
f 1664/7/6 1651/7/6 1665/7/6
f 1652/7/6 1653/7/6 1666/7/6
f 1666/7/6 1653/7/6 1667/7/6
f 1656/7/6 1584/7/6 1670/7/6
f 1589/7/6 1657/7/6 1671/7/6
f 1659/7/6 1660/7/6 1673/7/6
f 1660/7/6 1592/7/6 1674/7/6
f 1673/7/6 1660/7/6 1674/7/6
f 1577/7/6 1661/7/6 1675/7/6
f 1667/7/6 1668/7/6 1678/7/6
f 1664/7/6 1665/7/6 1678/7/6
f 1665/7/6 1666/7/6 1678/7/6
f 1666/7/6 1667/7/6 1678/7/6
f 1678/7/6 1668/7/6 1679/7/6
f 1679/7/6 1668/7/6 1680/7/6
f 1680/7/6 1668/7/6 1681/7/6
f 1669/7/6 1670/7/6 1682/7/6
f 1671/7/6 1672/7/6 1683/7/6
f 1589/7/6 1671/7/6 1683/7/6
f 1683/7/6 1672/7/6 1684/7/6
f 1674/7/6 1592/7/6 1686/7/6
f 1675/7/6 1676/7/6 1687/7/6
f 1577/7/6 1675/7/6 1687/7/6
f 1687/7/6 1676/7/6 1688/7/6
f 1688/7/6 1676/7/6 1689/7/6
f 1677/7/6 1678/7/6 1690/7/6
f 1678/7/6 1679/7/6 1690/7/6
f 1690/7/6 1679/7/6 1691/7/6
f 1681/7/6 1682/7/6 1692/7/6
f 1680/7/6 1681/7/6 1692/7/6
f 1682/7/6 1670/7/6 1693/7/6
f 1670/7/6 1584/7/6 1693/7/6
f 1692/7/6 1682/7/6 1693/7/6
f 1693/7/6 1584/7/6 1694/7/6
f 1587/7/6 1588/7/6 1695/7/6
f 1586/7/6 1587/7/6 1695/7/6
f 1585/7/6 1586/7/6 1695/7/6
f 1695/7/6 1588/7/6 1696/7/6
f 1696/7/6 1588/7/6 1697/7/6
f 1697/7/6 1588/7/6 1698/7/6
f 1589/7/6 1683/7/6 1699/7/6
f 1699/7/6 1683/7/6 1700/7/6
f 1685/7/6 1686/7/6 1706/7/6
f 1686/7/6 1592/7/6 1707/7/6
f 1706/7/6 1686/7/6 1707/7/6
f 1707/7/6 1592/7/6 1708/7/6
f 1690/7/6 1691/7/6 1709/7/6
f 1689/7/6 1690/7/6 1709/7/6
f 1692/7/6 1693/7/6 1709/7/6
f 1691/7/6 1692/7/6 1709/7/6
f 1688/7/6 1689/7/6 1709/7/6
f 1709/7/6 1693/7/6 1710/7/6
f 1696/7/6 1697/7/6 1711/7/6
f 1711/7/6 1697/7/6 1712/7/6
f 1706/7/6 1707/7/6 1713/7/6
f 1704/7/6 1705/7/6 1713/7/6
f 1703/7/6 1704/7/6 1713/7/6
f 1705/7/6 1706/7/6 1713/7/6
f 1702/7/6 1703/7/6 1713/7/6
f 1701/7/6 1702/7/6 1713/7/6
f 1700/7/6 1701/7/6 1713/7/6
f 1713/7/6 1707/7/6 1714/7/6
f 1715/6/6 1716/6/6 1720/6/6
f 1720/6/6 1716/6/6 1721/6/6
f 1717/6/6 1718/6/6 1723/6/6
f 1723/6/6 1718/6/6 1724/6/6
f 1719/6/6 1720/6/6 1725/6/6
f 1720/3/6 1721/3/6 1726/3/6
f 1725/6/6 1720/6/6 1726/6/6
f 1721/6/6 1722/6/6 1727/6/6
f 1726/3/6 1721/3/6 1727/3/6
f 1727/6/6 1722/6/6 1728/6/6
f 1726/6/6 1727/6/6 1731/6/6
f 1731/6/6 1727/6/6 1732/6/6
f 1729/6/6 1730/6/6 1734/6/6
f 1734/6/6 1730/6/6 1735/6/6
f 1733/6/6 1734/6/6 1741/6/6
f 1734/3/6 1735/3/6 1742/3/6
f 1741/6/6 1734/6/6 1742/6/6
f 1735/6/6 1736/6/6 1743/6/6
f 1742/3/6 1735/3/6 1743/3/6
f 1743/6/6 1736/6/6 1744/6/6
f 1737/6/6 1738/6/6 1745/6/6
f 1745/6/6 1738/6/6 1746/6/6
f 1739/6/6 1740/6/6 1748/6/6
f 1748/6/6 1740/6/6 1749/6/6
f 1742/6/6 1743/6/6 1751/6/6
f 1751/6/6 1743/6/6 1752/6/6
f 1747/6/6 1748/6/6 1753/6/6
f 1748/3/6 1749/3/6 1754/3/6
f 1753/6/6 1748/6/6 1754/6/6
f 1749/6/6 1750/6/6 1755/6/6
f 1754/3/6 1749/3/6 1755/3/6
f 1755/6/6 1750/6/6 1756/6/6
f 1754/6/6 1755/6/6 1763/6/6
f 1763/6/6 1755/6/6 1764/6/6
f 1757/6/6 1758/6/6 1768/6/6
f 1768/6/6 1758/6/6 1769/6/6
f 1759/3/6 1760/3/6 1773/3/6
f 1773/3/6 1760/3/6 1774/3/6
f 1761/6/6 1762/6/6 1776/6/6
f 1776/6/6 1762/6/6 1777/6/6
f 1765/6/6 1766/6/6 1779/6/6
f 1779/6/6 1766/6/6 1780/6/6
f 1767/6/6 1768/6/6 1781/6/6
f 1768/3/6 1769/3/6 1782/3/6
f 1781/6/6 1768/6/6 1782/6/6
f 1769/6/6 1770/6/6 1783/6/6
f 1782/3/6 1769/3/6 1783/3/6
f 1783/6/6 1770/6/6 1784/6/6
f 1771/5/6 1772/5/6 1785/5/6
f 1785/5/6 1772/5/6 1786/5/6
f 1775/6/6 1776/6/6 1789/6/6
f 1776/3/6 1777/3/6 1790/3/6
f 1789/6/6 1776/6/6 1790/6/6
f 1777/6/6 1778/6/6 1791/6/6
f 1790/3/6 1777/3/6 1791/3/6
f 1791/6/6 1778/6/6 1792/6/6
f 1782/6/6 1783/6/6 1795/6/6
f 1795/6/6 1783/6/6 1796/6/6
f 1787/3/6 1788/3/6 1799/3/6
f 1799/3/6 1788/3/6 1800/3/6
f 1790/6/6 1791/6/6 1801/6/6
f 1801/6/6 1791/6/6 1802/6/6
f 1793/6/6 1794/6/6 1803/6/6
f 1803/6/6 1794/6/6 1804/6/6
f 1797/5/6 1798/5/6 1805/5/6
f 1805/5/6 1798/5/6 1806/5/6
f 1807/4/6 1808/4/6 1809/4/6
f 1809/4/6 1808/4/6 1810/4/6
f 1810/4/6 1811/4/6 1812/4/6
f 1812/4/6 1811/4/6 1813/4/6
f 1814/5/6 1815/5/6 1816/5/6
f 1816/5/6 1815/5/6 1817/5/6
f 1818/5/6 1819/5/6 1820/5/6
f 1820/5/6 1819/5/6 1821/5/6
f 1822/5/6 1823/5/6 1824/5/6
f 1824/5/6 1823/5/6 1825/5/6
f 1826/3/6 1827/3/6 1828/3/6
f 1828/3/6 1827/3/6 1829/3/6
f 1830/4/6 1831/4/6 1832/4/6
f 1832/4/6 1831/4/6 1833/4/6
f 1833/4/6 1834/4/6 1835/4/6
f 1835/4/6 1834/4/6 1836/4/6
f 1837/3/6 1838/3/6 1845/3/6
f 1838/4/6 1839/4/6 1846/4/6
f 1845/3/6 1838/3/6 1846/3/6
f 1839/3/6 1840/3/6 1847/3/6
f 1846/4/6 1839/4/6 1847/4/6
f 1840/3/6 1841/3/6 1847/3/6
f 1841/4/6 1842/4/6 1848/4/6
f 1847/3/6 1841/3/6 1848/3/6
f 1842/3/6 1843/3/6 1849/3/6
f 1848/4/6 1842/4/6 1849/4/6
f 1849/3/6 1843/3/6 1850/3/6
f 1844/5/6 1845/5/6 1851/5/6
f 1845/5/6 1846/5/6 1851/5/6
f 1846/4/6 1847/4/6 1852/4/6
f 1851/5/6 1846/5/6 1852/5/6
f 1847/5/6 1848/5/6 1853/5/6
f 1852/4/6 1847/4/6 1853/4/6
f 1848/4/6 1849/4/6 1854/4/6
f 1853/5/6 1848/5/6 1854/5/6
f 1849/5/6 1850/5/6 1855/5/6
f 1854/4/6 1849/4/6 1855/4/6
f 1855/5/6 1850/5/6 1856/5/6
f 1857/3/6 1858/3/6 1859/3/6
f 1859/3/6 1858/3/6 1860/3/6
f 1861/4/6 1862/4/6 1865/4/6
f 1865/4/6 1862/4/6 1866/4/6
f 1863/4/6 1864/4/6 1867/4/6
f 1867/4/6 1864/4/6 1868/4/6
f 1873/4/6 1874/4/6 1875/4/6
f 1875/4/6 1874/4/6 1876/4/6
f 1869/8/6 1870/8/6 1877/8/6
f 1877/8/6 1870/8/6 1878/8/6
f 1871/8/6 1872/8/6 1879/8/6
f 1879/8/6 1872/8/6 1880/8/6
f 1881/8/6 1882/8/6 1883/8/6
f 1883/8/6 1882/8/6 1884/8/6
f 1885/5/6 1886/5/6 1890/5/6
f 1890/5/6 1886/5/6 1891/5/6
f 1887/5/6 1888/5/6 1892/5/6
f 1888/3/6 1889/3/6 1893/3/6
f 1892/5/6 1888/5/6 1893/5/6
f 1893/3/6 1889/3/6 1894/3/6
f 1891/3/6 1892/3/6 1895/3/6
f 1890/3/6 1891/3/6 1895/3/6
f 1895/3/6 1892/3/6 1896/3/6
f 1896/3/6 1892/3/6 1897/3/6
f 1893/5/6 1894/5/6 1898/5/6
f 1898/5/6 1894/5/6 1899/5/6
f 1896/5/6 1897/5/6 1901/5/6
f 1898/3/6 1899/3/6 1902/3/6
f 1897/3/6 1898/3/6 1902/3/6
f 1901/5/6 1897/5/6 1902/5/6
f 1902/3/6 1899/3/6 1903/3/6
f 1903/3/6 1899/3/6 1904/3/6
f 1900/5/6 1901/5/6 1905/5/6
f 1901/3/6 1902/3/6 1906/3/6
f 1905/5/6 1901/5/6 1906/5/6
f 1902/5/6 1903/5/6 1907/5/6
f 1906/3/6 1902/3/6 1907/3/6
f 1907/5/6 1903/5/6 1908/5/6
f 1909/3/6 1910/3/6 1911/3/6
f 1911/3/6 1910/3/6 1912/3/6
f 1912/3/6 1913/3/6 1916/3/6
f 1916/3/6 1913/3/6 1917/3/6
f 1914/5/6 1915/5/6 1918/5/6
f 1918/5/6 1915/5/6 1919/5/6
f 1920/3/6 1921/3/6 1922/3/6
f 1922/3/6 1921/3/6 1923/3/6
f 1924/8/6 1925/8/6 1926/8/6
f 1926/8/6 1925/8/6 1927/8/6
f 1924/8/6 1926/8/6 1928/8/6
f 1927/8/6 1925/8/6 1929/8/6
f 1924/8/6 1928/8/6 1930/8/6
f 1928/8/6 1929/8/6 1930/8/6
f 1929/8/6 1925/8/6 1931/8/6
f 1930/8/6 1929/8/6 1931/8/6
f 1932/6/6 1933/6/6 1934/6/6
f 1934/6/6 1933/6/6 1935/6/6
