# MagicaVoxel @ Ephtracy

# group
o 

# material
mtllib hard_three_tile.mtl
usemtl palette

# normals
vn -1 0 0
vn 1 0 0
vn 0 0 1
vn 0 0 -1
vn 0 -1 0
vn 0 1 0

# texcoords
vt 0.283203 0.5
vt 0.451172 0.5
vt 0.517578 0.5
vt 0.552734 0.5
vt 0.556641 0.5
vt 0.720703 0.5
vt 0.751953 0.5
vt 0.837891 0.5
vt 0.958984 0.5
vt 0.962891 0.5
vt 0.966797 0.5
vt 0.990234 0.5

# verts
v -1.9 0.3 1.8
v -1.9 0.3 0.8
v -1.9 0.3 0.5
v -1.9 0.3 -0.4
v -1.9 0.3 -0.8
v -1.9 0.3 -1.8
v -1.9 0.5 0.5
v -1.9 0.5 -0.4
v -1.9 0.5 -0.8
v -1.9 0.5 -1.8
v -1.9 0.6 1.8
v -1.9 0.6 0.8
v -1.8 0.3 1.9
v -1.8 0.3 1.8
v -1.8 0.3 0.8
v -1.8 0.3 0.7
v -1.8 0.3 0.6
v -1.8 0.3 0.5
v -1.8 0.3 -0.4
v -1.8 0.3 -0.6
v -1.8 0.3 -0.7
v -1.8 0.3 -0.8
v -1.8 0.3 -1.8
v -1.8 0.3 -1.9
v -1.8 0.5 0.6
v -1.8 0.5 0.5
v -1.8 0.5 -0.4
v -1.8 0.5 -0.6
v -1.8 0.5 -0.7
v -1.8 0.5 -0.8
v -1.8 0.5 -1.8
v -1.8 0.5 -1.9
v -1.8 0.6 1.9
v -1.8 0.6 1.8
v -1.8 0.6 0.8
v -1.8 0.6 0.7
v -1.8 0.7 1.8
v -1.8 0.7 0.8
v -1.8 1.6 1.8
v -1.8 1.6 0.8
v -1.7 0.5 -1.1
v -1.7 0.5 -1.7
v -1.7 0.6 1.7
v -1.7 0.6 1.4
v -1.7 0.6 1.1
v -1.7 0.6 0.8
v -1.7 0.6 -1.1
v -1.7 0.6 -1.7
v -1.7 0.7 1.7
v -1.7 0.7 1.4
v -1.7 0.7 1.1
v -1.7 0.7 0.8
v -1.7 1.6 1.8
v -1.7 1.6 1.6
v -1.7 1.8 1.8
v -1.7 1.8 1.6
v -1.6 0.6 -1.2
v -1.6 0.6 -1.6
v -1.6 0.7 -1.2
v -1.6 0.7 -1.6
v -1.5 0.5 -0.9
v -1.5 0.5 -1.1
v -1.5 0.6 -0.9
v -1.5 0.6 -1.1
v -1.4 0.6 -1
v -1.4 0.6 -1.2
v -1.4 0.7 -1
v -1.4 0.7 -1.2
v -1.4 0.8 0.8
v -1.4 0.8 0.7
v -1.4 0.9 0.8
v -1.4 1 1.9
v -1.4 1 1.8
v -1.4 1 0.8
v -1.4 1 0.7
v -1.4 1.2 1.9
v -1.4 1.2 1.8
v -1.2 1.6 1.8
v -1.2 1.6 1.6
v -1.2 1.8 1.8
v -1.2 1.8 1.6
v -1.1 0.6 1.7
v -1.1 0.6 1.4
v -1.1 0.6 1.1
v -1.1 0.6 0.8
v -1.1 0.7 1.7
v -1.1 0.7 1.4
v -1.1 0.7 1.1
v -1.1 0.7 0.8
v -0.6 0.3 1.8
v -0.6 0.3 0.8
v -0.6 0.3 0.5
v -0.6 0.3 -0.5
v -0.6 0.3 -0.8
v -0.6 0.3 -1.8
v -0.6 0.5 0.5
v -0.6 0.5 -0.5
v -0.6 0.5 -0.8
v -0.6 0.5 -1.8
v -0.6 0.6 1.8
v -0.6 0.6 0.8
v -0.5 0.3 1.9
v -0.5 0.3 1.8
v -0.5 0.3 0.8
v -0.5 0.3 0.7
v -0.5 0.3 0.6
v -0.5 0.3 0.5
v -0.5 0.3 -0.5
v -0.5 0.3 -0.6
v -0.5 0.3 -0.7
v -0.5 0.3 -0.8
v -0.5 0.3 -1.8
v -0.5 0.3 -1.9
v -0.5 0.5 0.8
v -0.5 0.5 0.7
v -0.5 0.5 0.6
v -0.5 0.5 0.5
v -0.5 0.5 -0.5
v -0.5 0.5 -0.6
v -0.5 0.5 -0.7
v -0.5 0.5 -0.8
v -0.5 0.5 -1.8
v -0.5 0.5 -1.9
v -0.5 0.6 1.9
v -0.5 0.6 1.8
v -0.5 0.6 1.5
v -0.5 0.6 1.4
v -0.5 0.6 1.3
v -0.5 0.6 1.2
v -0.5 0.6 1.1
v -0.5 0.7 1.8
v -0.5 0.7 1.5
v -0.5 0.7 1.4
v -0.5 0.7 1.3
v -0.5 0.7 1.2
v -0.5 0.7 1.1
v -0.4 0.6 1.5
v -0.4 0.6 1.4
v -0.4 0.6 1.3
v -0.4 0.6 1.2
v -0.4 0.7 1.5
v -0.4 0.7 1.4
v -0.4 0.7 1.3
v -0.4 0.7 1.2
v -0.3 0.6 1.7
v -0.3 0.6 1.6
v -0.3 0.7 1.7
v -0.3 0.7 1.6
v 0.7 0.3 1.8
v 0.7 0.3 0.8
v 0.7 0.3 0.5
v 0.7 0.3 -0.5
v 0.7 0.3 -0.8
v 0.7 0.3 -1.8
v 0.7 0.5 1.8
v 0.7 0.5 0.8
v 0.7 0.5 0.5
v 0.7 0.5 -0.5
v 0.7 0.5 -0.8
v 0.7 0.5 -1.8
v 0.8 0.3 1.9
v 0.8 0.3 1.8
v 0.8 0.3 0.8
v 0.8 0.3 0.7
v 0.8 0.3 0.6
v 0.8 0.3 0.5
v 0.8 0.3 -0.5
v 0.8 0.3 -0.6
v 0.8 0.3 -0.7
v 0.8 0.3 -0.8
v 0.8 0.3 -1.8
v 0.8 0.3 -1.9
v 0.8 0.5 1.9
v 0.8 0.5 1.8
v 0.8 0.5 0.8
v 0.8 0.5 0.7
v 0.8 0.5 0.6
v 0.8 0.5 0.5
v 0.8 0.5 -0.5
v 0.8 0.5 -0.6
v 0.8 0.5 -0.8
v 0.8 0.5 -1.8
v 0.8 0.6 -0.7
v 0.8 0.6 -0.9
v 0.8 0.7 -0.9
v 0.8 0.7 -1.9
v 1 0.5 1.5
v 1 0.5 1.3
v 1 0.6 1.5
v 1 0.6 1.3
v 1 0.6 -0.7
v 1 0.6 -0.9
v 1 0.7 -0.7
v 1 0.7 -0.9
v 1 0.7 -1.1
v 1 0.7 -1.4
v 1 0.7 -1.5
v 1 0.7 -1.9
v 1 0.8 -1.2
v 1 0.8 -1.3
v 1 0.8 -1.7
v 1 0.8 -1.8
v 1 0.9 -1.1
v 1 0.9 -1.2
v 1 0.9 -1.3
v 1 0.9 -1.4
v 1 0.9 -1.5
v 1 0.9 -1.7
v 1 0.9 -1.8
v 1 0.9 -1.9
v 1 1 -1.1
v 1 1 -1.9
v 1.1 0.5 1.6
v 1.1 0.5 1.5
v 1.1 0.5 1.3
v 1.1 0.5 1.2
v 1.1 0.6 1.6
v 1.1 0.6 1.5
v 1.1 0.6 1.3
v 1.1 0.6 1.2
v 1.1 0.7 1.5
v 1.1 0.7 1.3
v 1.1 1 -1.2
v 1.1 1 -1.8
v 1.1 1.1 -1.2
v 1.1 1.1 -1.8
v 1.2 0.7 -0.9
v 1.2 0.7 -1.1
v 1.2 0.9 -0.9
v 1.2 0.9 -1.1
v 1.2 1 -0.9
v 1.2 1 -1.1
v 1.3 0.5 1.1
v 1.3 0.5 0.9
v 1.3 0.6 1.1
v 1.3 0.6 0.9
v 1.3 1 -1
v 1.3 1 -1.2
v 1.3 1.1 -1
v 1.3 1.1 -1.2
v -1.5 0.6 1.7
v -1.5 0.6 1.4
v -1.5 0.6 1.1
v -1.5 0.6 0.8
v -1.5 0.7 1.7
v -1.5 0.7 1.4
v -1.5 0.7 1.1
v -1.5 0.7 0.8
v -1.4 1.6 1.8
v -1.4 1.6 1.6
v -1.4 1.8 1.8
v -1.4 1.8 1.6
v -1.2 0.6 -1
v -1.2 0.6 -1.2
v -1.2 0.6 -1.4
v -1.2 0.6 -1.6
v -1.2 0.7 -1
v -1.2 0.7 -1.2
v -1.2 0.7 -1.4
v -1.2 0.7 -1.6
v -1.2 0.8 0.8
v -1.2 0.8 0.7
v -1.2 0.9 0.8
v -1.2 1 1.9
v -1.2 1 1.8
v -1.2 1 0.8
v -1.2 1 0.7
v -1.2 1.2 1.9
v -1.2 1.2 1.8
v -1.1 0.5 -0.9
v -1.1 0.5 -1.1
v -1.1 0.5 -1.5
v -1.1 0.5 -1.7
v -1.1 0.6 -0.9
v -1.1 0.6 -1.1
v -1.1 0.6 -1.5
v -1.1 0.6 -1.7
v -1 0.6 -1.2
v -1 0.6 -1.4
v -1 0.7 -1.2
v -1 0.7 -1.4
v -0.9 0.5 -1.1
v -0.9 0.5 -1.5
v -0.9 0.6 1.7
v -0.9 0.6 1.4
v -0.9 0.6 1.1
v -0.9 0.6 0.8
v -0.9 0.6 -1.1
v -0.9 0.6 -1.5
v -0.9 0.7 1.7
v -0.9 0.7 1.4
v -0.9 0.7 1.1
v -0.9 0.7 0.8
v -0.9 1.6 1.8
v -0.9 1.6 1.6
v -0.9 1.8 1.8
v -0.9 1.8 1.6
v -0.8 0.3 1.9
v -0.8 0.3 1.8
v -0.8 0.3 0.8
v -0.8 0.3 0.7
v -0.8 0.3 0.6
v -0.8 0.3 0.5
v -0.8 0.3 -0.5
v -0.8 0.3 -0.6
v -0.8 0.3 -0.7
v -0.8 0.3 -0.8
v -0.8 0.3 -1.8
v -0.8 0.3 -1.9
v -0.8 0.5 0.6
v -0.8 0.5 0.5
v -0.8 0.5 -0.5
v -0.8 0.5 -0.6
v -0.8 0.5 -0.7
v -0.8 0.5 -0.8
v -0.8 0.5 -1.8
v -0.8 0.5 -1.9
v -0.8 0.6 1.9
v -0.8 0.6 1.8
v -0.8 0.6 0.8
v -0.8 0.6 0.7
v -0.8 0.7 1.8
v -0.8 0.7 0.8
v -0.8 1.6 1.8
v -0.8 1.6 0.8
v -0.7 0.3 1.8
v -0.7 0.3 0.8
v -0.7 0.3 0.5
v -0.7 0.3 -0.5
v -0.7 0.3 -0.8
v -0.7 0.3 -1.8
v -0.7 0.5 0.5
v -0.7 0.5 -0.5
v -0.7 0.5 -0.8
v -0.7 0.5 -1.8
v -0.7 0.6 1.8
v -0.7 0.6 0.8
v -0.4 0.5 0.9
v -0.4 0.5 0.8
v -0.4 0.6 1.7
v -0.4 0.6 1.6
v -0.4 0.6 0.9
v -0.4 0.6 0.8
v -0.4 0.7 1.7
v -0.4 0.7 1.6
v -0.3 0.6 1.5
v -0.3 0.6 1.4
v -0.3 0.6 1.3
v -0.3 0.6 1.2
v -0.3 0.7 1.5
v -0.3 0.7 1.4
v -0.3 0.7 1.3
v -0.3 0.7 1.2
v -0.2 0.6 1.8
v -0.2 0.6 1.7
v -0.2 0.6 1.2
v -0.2 0.6 1.1
v -0.2 0.7 1.8
v -0.2 0.7 1.7
v -0.2 0.7 1.2
v -0.2 0.7 1.1
v -0.1 0.5 1.1
v -0.1 0.5 0.9
v -0.1 0.6 1.7
v -0.1 0.6 1.5
v -0.1 0.6 1.4
v -0.1 0.6 1.3
v -0.1 0.6 1.1
v -0.1 0.6 0.9
v -0.1 0.7 1.7
v -0.1 0.7 1.5
v -0.1 0.7 1.4
v -0.1 0.7 1.3
v 0.1 0.5 1.9
v 0.1 0.5 1.1
v 0.1 0.6 1.9
v 0.1 0.6 1.1
v 0.5 0.3 1.9
v 0.5 0.3 1.8
v 0.5 0.3 0.8
v 0.5 0.3 0.7
v 0.5 0.3 0.6
v 0.5 0.3 0.5
v 0.5 0.3 -0.5
v 0.5 0.3 -0.6
v 0.5 0.3 -0.7
v 0.5 0.3 -0.8
v 0.5 0.3 -1.8
v 0.5 0.3 -1.9
v 0.5 0.5 1.9
v 0.5 0.5 1.8
v 0.5 0.5 0.8
v 0.5 0.5 0.7
v 0.5 0.5 0.6
v 0.5 0.5 0.5
v 0.5 0.5 -0.5
v 0.5 0.5 -0.6
v 0.5 0.5 -0.7
v 0.5 0.5 -0.8
v 0.5 0.5 -1.8
v 0.5 0.5 -1.9
v 0.6 0.3 1.8
v 0.6 0.3 0.8
v 0.6 0.3 0.5
v 0.6 0.3 -0.5
v 0.6 0.3 -0.8
v 0.6 0.3 -1.8
v 0.6 0.5 1.8
v 0.6 0.5 0.8
v 0.6 0.5 0.5
v 0.6 0.5 -0.5
v 0.6 0.5 -0.8
v 0.6 0.5 -1.8
v 1.5 0.5 1.6
v 1.5 0.5 1.5
v 1.5 0.5 1.3
v 1.5 0.5 1.2
v 1.5 0.6 1.6
v 1.5 0.6 1.5
v 1.5 0.6 1.3
v 1.5 0.6 1.2
v 1.5 0.7 1.5
v 1.5 0.7 1.3
v 1.6 0.5 1.5
v 1.6 0.5 1.3
v 1.6 0.5 1.1
v 1.6 0.5 0.9
v 1.6 0.6 1.5
v 1.6 0.6 1.3
v 1.6 0.6 1.1
v 1.6 0.6 0.9
v 1.7 1 -1.7
v 1.7 1 -1.8
v 1.7 1.1 -1.7
v 1.7 1.1 -1.8
v 1.8 0.3 1.9
v 1.8 0.3 1.8
v 1.8 0.3 0.8
v 1.8 0.3 0.7
v 1.8 0.3 0.6
v 1.8 0.3 0.5
v 1.8 0.3 -0.5
v 1.8 0.3 -0.6
v 1.8 0.3 -0.7
v 1.8 0.3 -0.8
v 1.8 0.3 -1.8
v 1.8 0.3 -1.9
v 1.8 0.5 1.9
v 1.8 0.5 1.8
v 1.8 0.5 0.8
v 1.8 0.5 0.7
v 1.8 0.5 0.6
v 1.8 0.5 0.5
v 1.8 0.5 -0.5
v 1.8 0.5 -0.6
v 1.8 0.6 -1.8
v 1.8 0.7 -0.7
v 1.8 0.7 -0.8
v 1.8 0.7 -1.8
v 1.8 0.7 -1.9
v 1.8 1 -1
v 1.8 1 -1.7
v 1.8 1 -1.8
v 1.8 1 -1.9
v 1.8 1.1 -1
v 1.8 1.1 -1.7
v 1.9 0.3 1.8
v 1.9 0.3 0.8
v 1.9 0.3 0.5
v 1.9 0.3 -0.5
v 1.9 0.3 -0.8
v 1.9 0.3 -1.8
v 1.9 0.5 1.8
v 1.9 0.5 0.8
v 1.9 0.5 0.5
v 1.9 0.5 -0.5
v 1.9 0.6 -1.7
v 1.9 0.6 -1.8
v 1.9 0.7 -0.8
v 1.9 0.7 -0.9
v 1.9 0.7 -1.2
v 1.9 0.7 -1.3
v 1.9 0.8 -0.9
v 1.9 0.8 -1
v 1.9 0.8 -1.4
v 1.9 0.8 -1.5
v 1.9 0.9 -1
v 1.9 0.9 -1.2
v 1.9 0.9 -1.3
v 1.9 0.9 -1.4
v 1.9 0.9 -1.5
v 1.9 0.9 -1.7
v 1.9 1 -0.9
v 1.9 1 -1.8
v -1.8 0.3 1.9
v -1.8 0.6 1.9
v -1.4 1 1.9
v -1.4 1.2 1.9
v -1.2 1 1.9
v -1.2 1.2 1.9
v -0.8 0.3 1.9
v -0.8 0.6 1.9
v -0.5 0.3 1.9
v -0.5 0.6 1.9
v 0.1 0.3 1.9
v 0.1 0.5 1.9
v 0.1 0.6 1.9
v 0.5 0.3 1.9
v 0.5 0.5 1.9
v 0.8 0.3 1.9
v 0.8 0.5 1.9
v 1.8 0.3 1.9
v 1.8 0.5 1.9
v -1.9 0.3 1.8
v -1.9 0.6 1.8
v -1.8 0.3 1.8
v -1.8 0.6 1.8
v -1.8 0.7 1.8
v -1.8 1.6 1.8
v -1.7 0.7 1.8
v -1.7 0.9 1.8
v -1.7 1.6 1.8
v -1.7 1.8 1.8
v -1.6 1.1 1.8
v -1.6 1.3 1.8
v -1.6 1.6 1.8
v -1.6 1.7 1.8
v -1.5 1.1 1.8
v -1.5 1.3 1.8
v -1.5 1.6 1.8
v -1.5 1.7 1.8
v -1.4 1 1.8
v -1.4 1.2 1.8
v -1.4 1.6 1.8
v -1.4 1.8 1.8
v -1.2 1 1.8
v -1.2 1.2 1.8
v -1.2 1.6 1.8
v -1.2 1.8 1.8
v -1.1 1.1 1.8
v -1.1 1.3 1.8
v -1.1 1.6 1.8
v -1.1 1.7 1.8
v -1 1.1 1.8
v -1 1.3 1.8
v -1 1.6 1.8
v -1 1.7 1.8
v -0.9 0.7 1.8
v -0.9 0.9 1.8
v -0.9 1.6 1.8
v -0.9 1.8 1.8
v -0.8 0.3 1.8
v -0.8 0.6 1.8
v -0.8 0.7 1.8
v -0.8 1.6 1.8
v -0.7 0.3 1.8
v -0.7 0.6 1.8
v -0.6 0.3 1.8
v -0.6 0.6 1.8
v -0.5 0.3 1.8
v -0.5 0.6 1.8
v -0.5 0.7 1.8
v -0.2 0.6 1.8
v -0.2 0.7 1.8
v 0.5 0.3 1.8
v 0.5 0.5 1.8
v 0.6 0.3 1.8
v 0.6 0.5 1.8
v 0.7 0.3 1.8
v 0.7 0.5 1.8
v 0.8 0.3 1.8
v 0.8 0.5 1.8
v 1.8 0.3 1.8
v 1.8 0.5 1.8
v 1.9 0.3 1.8
v 1.9 0.5 1.8
v -1.7 0.6 1.7
v -1.7 0.7 1.7
v -1.5 0.6 1.7
v -1.5 0.7 1.7
v -1.1 0.6 1.7
v -1.1 0.7 1.7
v -0.9 0.6 1.7
v -0.9 0.7 1.7
v -0.2 0.6 1.7
v -0.2 0.7 1.7
v -0.1 0.6 1.7
v -0.1 0.7 1.7
v -0.4 0.6 1.6
v -0.4 0.7 1.6
v -0.3 0.6 1.6
v -0.3 0.7 1.6
v 1.1 0.5 1.6
v 1.1 0.6 1.6
v 1.5 0.5 1.6
v 1.5 0.6 1.6
v 1 0.5 1.5
v 1 0.6 1.5
v 1.1 0.5 1.5
v 1.1 0.6 1.5
v 1.1 0.7 1.5
v 1.5 0.5 1.5
v 1.5 0.6 1.5
v 1.5 0.7 1.5
v 1.6 0.5 1.5
v 1.6 0.6 1.5
v -0.5 0.6 1.4
v -0.5 0.7 1.4
v -0.4 0.6 1.4
v -0.4 0.7 1.4
v -0.3 0.6 1.4
v -0.3 0.7 1.4
v -0.1 0.6 1.4
v -0.1 0.7 1.4
v -0.5 0.6 1.2
v -0.5 0.7 1.2
v -0.4 0.6 1.2
v -0.4 0.7 1.2
v -0.3 0.6 1.2
v -0.3 0.7 1.2
v -0.2 0.6 1.2
v -0.2 0.7 1.2
v -1.7 0.6 1.1
v -1.7 0.7 1.1
v -1.5 0.6 1.1
v -1.5 0.7 1.1
v -1.1 0.6 1.1
v -1.1 0.7 1.1
v -1 0.7 1.1
v -0.9 0.6 1.1
v -0.9 0.7 1.1
v 1.3 0.5 1.1
v 1.3 0.6 1.1
v 1.6 0.5 1.1
v 1.6 0.6 1.1
v -1.8 0.3 0.6
v -1.8 0.5 0.6
v -0.8 0.3 0.6
v -0.8 0.5 0.6
v -0.5 0.3 0.6
v -0.5 0.5 0.6
v 0.5 0.3 0.6
v 0.5 0.5 0.6
v 0.8 0.3 0.6
v 0.8 0.5 0.6
v 1.8 0.3 0.6
v 1.8 0.5 0.6
v -1.9 0.3 0.5
v -1.9 0.5 0.5
v -1.8 0.3 0.5
v -1.8 0.5 0.5
v -0.8 0.3 0.5
v -0.8 0.5 0.5
v -0.7 0.3 0.5
v -0.7 0.5 0.5
v -0.6 0.3 0.5
v -0.6 0.5 0.5
v -0.5 0.3 0.5
v -0.5 0.5 0.5
v 0.5 0.3 0.5
v 0.5 0.5 0.5
v 0.6 0.3 0.5
v 0.6 0.5 0.5
v 0.7 0.3 0.5
v 0.7 0.5 0.5
v 0.8 0.3 0.5
v 0.8 0.5 0.5
v 1.8 0.3 0.5
v 1.8 0.5 0.5
v 1.9 0.3 0.5
v 1.9 0.5 0.5
v -1.8 0.3 -0.7
v -1.8 0.5 -0.7
v -0.8 0.3 -0.7
v -0.8 0.5 -0.7
v -0.5 0.3 -0.7
v -0.5 0.5 -0.7
v 0.5 0.3 -0.7
v 0.5 0.5 -0.7
v 0.8 0.3 -0.7
v 0.8 0.6 -0.7
v 1 0.6 -0.7
v 1 0.7 -0.7
v 1.8 0.3 -0.7
v 1.8 0.7 -0.7
v -1.9 0.3 -0.8
v -1.9 0.5 -0.8
v -1.8 0.3 -0.8
v -1.8 0.5 -0.8
v -0.8 0.3 -0.8
v -0.8 0.5 -0.8
v -0.7 0.3 -0.8
v -0.7 0.5 -0.8
v -0.6 0.3 -0.8
v -0.6 0.5 -0.8
v -0.5 0.3 -0.8
v -0.5 0.5 -0.8
v 0.5 0.3 -0.8
v 0.5 0.5 -0.8
v 0.6 0.3 -0.8
v 0.6 0.5 -0.8
v 0.7 0.3 -0.8
v 0.7 0.5 -0.8
v 0.8 0.3 -0.8
v 0.8 0.5 -0.8
v 1.8 0.3 -0.8
v 1.8 0.7 -0.8
v 1.9 0.3 -0.8
v 1.9 0.7 -0.8
v -1.5 0.5 -0.9
v -1.5 0.6 -0.9
v -1.1 0.5 -0.9
v -1.1 0.6 -0.9
v 0.8 0.6 -0.9
v 0.8 0.7 -0.9
v 1 0.6 -0.9
v 1 0.7 -0.9
v 1.2 0.7 -0.9
v 1.2 0.9 -0.9
v 1.2 1 -0.9
v 1.4 0.8 -0.9
v 1.4 0.9 -0.9
v 1.5 0.8 -0.9
v 1.5 0.9 -0.9
v 1.8 0.8 -0.9
v 1.8 0.9 -0.9
v 1.9 0.7 -0.9
v 1.9 0.8 -0.9
v 1.9 1 -0.9
v -1.4 0.6 -1
v -1.4 0.7 -1
v -1.2 0.6 -1
v -1.2 0.7 -1
v 1.3 1 -1
v 1.3 1.1 -1
v 1.8 1 -1
v 1.8 1.1 -1
v -1.7 0.5 -1.1
v -1.7 0.6 -1.1
v -1.5 0.5 -1.1
v -1.5 0.6 -1.1
v -1.1 0.5 -1.1
v -1.1 0.6 -1.1
v -0.9 0.5 -1.1
v -0.9 0.6 -1.1
v 1 0.7 -1.1
v 1 0.9 -1.1
v 1 1 -1.1
v 1.2 0.7 -1.1
v 1.2 0.9 -1.1
v 1.2 1 -1.1
v -1.6 0.6 -1.2
v -1.6 0.7 -1.2
v -1.4 0.6 -1.2
v -1.4 0.7 -1.2
v -1.2 0.6 -1.2
v -1.2 0.7 -1.2
v -1 0.6 -1.2
v -1 0.7 -1.2
v 1.1 1 -1.2
v 1.1 1.1 -1.2
v 1.3 1 -1.2
v 1.3 1.1 -1.2
v -0.4 0.6 1.7
v -0.4 0.7 1.7
v -0.3 0.6 1.7
v -0.3 0.7 1.7
v -1.7 1.6 1.6
v -1.7 1.8 1.6
v -1.4 1.6 1.6
v -1.4 1.8 1.6
v -1.2 1.6 1.6
v -1.2 1.8 1.6
v -0.9 1.6 1.6
v -0.9 1.8 1.6
v -0.5 0.6 1.5
v -0.5 0.7 1.5
v -0.4 0.6 1.5
v -0.4 0.7 1.5
v -0.3 0.6 1.5
v -0.3 0.7 1.5
v -0.1 0.6 1.5
v -0.1 0.7 1.5
v -1.7 0.6 1.4
v -1.7 0.7 1.4
v -1.5 0.6 1.4
v -1.5 0.7 1.4
v -1.1 0.6 1.4
v -1.1 0.7 1.4
v -1 0.7 1.4
v -0.9 0.6 1.4
v -0.9 0.7 1.4
v -0.5 0.6 1.3
v -0.5 0.7 1.3
v -0.4 0.6 1.3
v -0.4 0.7 1.3
v -0.3 0.6 1.3
v -0.3 0.7 1.3
v -0.1 0.6 1.3
v -0.1 0.7 1.3
v 1 0.5 1.3
v 1 0.6 1.3
v 1.1 0.5 1.3
v 1.1 0.6 1.3
v 1.1 0.7 1.3
v 1.5 0.5 1.3
v 1.5 0.6 1.3
v 1.5 0.7 1.3
v 1.6 0.5 1.3
v 1.6 0.6 1.3
v 1.1 0.5 1.2
v 1.1 0.6 1.2
v 1.5 0.5 1.2
v 1.5 0.6 1.2
v -0.5 0.6 1.1
v -0.5 0.7 1.1
v -0.2 0.6 1.1
v -0.2 0.7 1.1
v -0.1 0.5 1.1
v -0.1 0.6 1.1
v 0.1 0.5 1.1
v 0.1 0.6 1.1
v -0.4 0.5 0.9
v -0.4 0.6 0.9
v -0.1 0.5 0.9
v -0.1 0.6 0.9
v 1.3 0.5 0.9
v 1.3 0.6 0.9
v 1.6 0.5 0.9
v 1.6 0.6 0.9
v -1.9 0.3 0.8
v -1.9 0.6 0.8
v -1.8 0.3 0.8
v -1.8 0.6 0.8
v -1.8 0.7 0.8
v -1.8 1.6 0.8
v -1.7 0.6 0.8
v -1.7 0.7 0.8
v -1.7 0.9 0.8
v -1.5 0.6 0.8
v -1.5 0.7 0.8
v -1.4 0.8 0.8
v -1.4 0.9 0.8
v -1.4 1 0.8
v -1.2 0.8 0.8
v -1.2 0.9 0.8
v -1.2 1 0.8
v -1.1 0.6 0.8
v -1.1 0.7 0.8
v -1 0.7 0.8
v -1 0.9 0.8
v -0.9 0.6 0.8
v -0.9 0.7 0.8
v -0.8 0.3 0.8
v -0.8 0.6 0.8
v -0.8 0.7 0.8
v -0.8 1.6 0.8
v -0.7 0.3 0.8
v -0.7 0.6 0.8
v -0.6 0.3 0.8
v -0.6 0.6 0.8
v -0.5 0.3 0.8
v -0.5 0.5 0.8
v -0.4 0.5 0.8
v -0.4 0.6 0.8
v 0.5 0.3 0.8
v 0.5 0.5 0.8
v 0.6 0.3 0.8
v 0.6 0.5 0.8
v 0.7 0.3 0.8
v 0.7 0.5 0.8
v 0.8 0.3 0.8
v 0.8 0.5 0.8
v 1.8 0.3 0.8
v 1.8 0.5 0.8
v 1.9 0.3 0.8
v 1.9 0.5 0.8
v -1.8 0.3 0.7
v -1.8 0.6 0.7
v -1.4 0.8 0.7
v -1.4 1 0.7
v -1.2 0.8 0.7
v -1.2 1 0.7
v -0.8 0.3 0.7
v -0.8 0.6 0.7
v -0.5 0.3 0.7
v -0.5 0.5 0.7
v 0.5 0.3 0.7
v 0.5 0.5 0.7
v 0.8 0.3 0.7
v 0.8 0.5 0.7
v 1.8 0.3 0.7
v 1.8 0.5 0.7
v -1.9 0.3 -0.4
v -1.9 0.5 -0.4
v -1.8 0.3 -0.4
v -1.8 0.5 -0.4
v -0.8 0.3 -0.5
v -0.8 0.5 -0.5
v -0.7 0.3 -0.5
v -0.7 0.5 -0.5
v -0.6 0.3 -0.5
v -0.6 0.5 -0.5
v -0.5 0.3 -0.5
v -0.5 0.5 -0.5
v 0.5 0.3 -0.5
v 0.5 0.5 -0.5
v 0.6 0.3 -0.5
v 0.6 0.5 -0.5
v 0.7 0.3 -0.5
v 0.7 0.5 -0.5
v 0.8 0.3 -0.5
v 0.8 0.5 -0.5
v 1.8 0.3 -0.5
v 1.8 0.5 -0.5
v 1.9 0.3 -0.5
v 1.9 0.5 -0.5
v -1.8 0.3 -0.6
v -1.8 0.5 -0.6
v -0.8 0.3 -0.6
v -0.8 0.5 -0.6
v -0.5 0.3 -0.6
v -0.5 0.5 -0.6
v 0.5 0.3 -0.6
v 0.5 0.5 -0.6
v 0.8 0.3 -0.6
v 0.8 0.5 -0.6
v 1.8 0.3 -0.6
v 1.8 0.5 -0.6
v -1.2 0.6 -1.4
v -1.2 0.7 -1.4
v -1 0.6 -1.4
v -1 0.7 -1.4
v -1.1 0.5 -1.5
v -1.1 0.6 -1.5
v -0.9 0.5 -1.5
v -0.9 0.6 -1.5
v -1.6 0.6 -1.6
v -1.6 0.7 -1.6
v -1.2 0.6 -1.6
v -1.2 0.7 -1.6
v -1.7 0.5 -1.7
v -1.7 0.6 -1.7
v -1.1 0.5 -1.7
v -1.1 0.6 -1.7
v 1.7 1 -1.7
v 1.7 1.1 -1.7
v 1.8 1 -1.7
v 1.8 1.1 -1.7
v -1.9 0.3 -1.8
v -1.9 0.5 -1.8
v -1.8 0.3 -1.8
v -1.8 0.5 -1.8
v -0.8 0.3 -1.8
v -0.8 0.5 -1.8
v -0.7 0.3 -1.8
v -0.7 0.5 -1.8
v -0.6 0.3 -1.8
v -0.6 0.5 -1.8
v -0.5 0.3 -1.8
v -0.5 0.5 -1.8
v 0.5 0.3 -1.8
v 0.5 0.5 -1.8
v 0.6 0.3 -1.8
v 0.6 0.5 -1.8
v 0.7 0.3 -1.8
v 0.7 0.5 -1.8
v 0.8 0.3 -1.8
v 0.8 0.5 -1.8
v 1.1 1 -1.8
v 1.1 1.1 -1.8
v 1.7 1 -1.8
v 1.7 1.1 -1.8
v 1.8 0.3 -1.8
v 1.8 0.6 -1.8
v 1.8 0.7 -1.8
v 1.8 1 -1.8
v 1.9 0.3 -1.8
v 1.9 0.6 -1.8
v 1.9 1 -1.8
v -1.8 0.3 -1.9
v -1.8 0.5 -1.9
v -0.8 0.3 -1.9
v -0.8 0.5 -1.9
v -0.5 0.3 -1.9
v -0.5 0.5 -1.9
v 0.5 0.3 -1.9
v 0.5 0.5 -1.9
v 0.8 0.3 -1.9
v 0.8 0.7 -1.9
v 1 0.7 -1.9
v 1 0.9 -1.9
v 1 1 -1.9
v 1.3 0.7 -1.9
v 1.3 0.9 -1.9
v 1.4 0.7 -1.9
v 1.4 0.8 -1.9
v 1.5 0.8 -1.9
v 1.5 0.9 -1.9
v 1.7 0.7 -1.9
v 1.7 0.9 -1.9
v 1.8 0.3 -1.9
v 1.8 0.7 -1.9
v 1.8 1 -1.9
v -1.8 0.3 1.9
v -0.8 0.3 1.9
v -0.5 0.3 1.9
v 0.1 0.3 1.9
v 0.5 0.3 1.9
v 0.8 0.3 1.9
v 1.8 0.3 1.9
v -1.9 0.3 1.8
v -1.8 0.3 1.8
v -0.8 0.3 1.8
v -0.7 0.3 1.8
v -0.6 0.3 1.8
v -0.5 0.3 1.8
v 0.5 0.3 1.8
v 0.6 0.3 1.8
v 0.7 0.3 1.8
v 0.8 0.3 1.8
v 1.8 0.3 1.8
v 1.9 0.3 1.8
v -0.4 0.3 1.7
v 0.1 0.3 1.7
v -1.9 0.3 0.8
v -1.8 0.3 0.8
v -0.8 0.3 0.8
v -0.7 0.3 0.8
v -0.6 0.3 0.8
v -0.5 0.3 0.8
v -0.4 0.3 0.8
v 0.5 0.3 0.8
v 0.6 0.3 0.8
v 0.7 0.3 0.8
v 0.8 0.3 0.8
v 1.8 0.3 0.8
v 1.9 0.3 0.8
v -1.8 0.3 0.7
v -0.8 0.3 0.7
v -0.5 0.3 0.7
v 0.5 0.3 0.7
v 0.8 0.3 0.7
v 1.8 0.3 0.7
v -1.8 0.3 0.6
v -0.8 0.3 0.6
v -0.5 0.3 0.6
v 0.5 0.3 0.6
v 0.8 0.3 0.6
v 1.8 0.3 0.6
v -1.9 0.3 0.5
v -1.8 0.3 0.5
v -0.8 0.3 0.5
v -0.7 0.3 0.5
v -0.6 0.3 0.5
v -0.5 0.3 0.5
v 0.5 0.3 0.5
v 0.6 0.3 0.5
v 0.7 0.3 0.5
v 0.8 0.3 0.5
v 1.8 0.3 0.5
v 1.9 0.3 0.5
v -1.9 0.3 -0.4
v -1.8 0.3 -0.4
v -0.8 0.3 -0.5
v -0.7 0.3 -0.5
v -0.6 0.3 -0.5
v -0.5 0.3 -0.5
v 0.5 0.3 -0.5
v 0.6 0.3 -0.5
v 0.7 0.3 -0.5
v 0.8 0.3 -0.5
v 1.8 0.3 -0.5
v 1.9 0.3 -0.5
v -1.8 0.3 -0.6
v -0.8 0.3 -0.6
v -0.5 0.3 -0.6
v 0.5 0.3 -0.6
v 0.8 0.3 -0.6
v 1.8 0.3 -0.6
v -1.8 0.3 -0.7
v -0.8 0.3 -0.7
v -0.5 0.3 -0.7
v 0.5 0.3 -0.7
v 0.8 0.3 -0.7
v 1.8 0.3 -0.7
v -1.9 0.3 -0.8
v -1.8 0.3 -0.8
v -0.8 0.3 -0.8
v -0.7 0.3 -0.8
v -0.6 0.3 -0.8
v -0.5 0.3 -0.8
v 0.5 0.3 -0.8
v 0.6 0.3 -0.8
v 0.7 0.3 -0.8
v 0.8 0.3 -0.8
v 1.8 0.3 -0.8
v 1.9 0.3 -0.8
v -1.9 0.3 -1.8
v -1.8 0.3 -1.8
v -0.8 0.3 -1.8
v -0.7 0.3 -1.8
v -0.6 0.3 -1.8
v -0.5 0.3 -1.8
v 0.5 0.3 -1.8
v 0.6 0.3 -1.8
v 0.7 0.3 -1.8
v 0.8 0.3 -1.8
v 1.8 0.3 -1.8
v 1.9 0.3 -1.8
v -1.8 0.3 -1.9
v -0.8 0.3 -1.9
v -0.5 0.3 -1.9
v 0.5 0.3 -1.9
v 0.8 0.3 -1.9
v 1.8 0.3 -1.9
v -1.8 0.7 1.8
v -1.7 0.7 1.8
v -0.9 0.7 1.8
v -0.8 0.7 1.8
v -1.7 0.7 1.7
v -1.5 0.7 1.7
v -1.1 0.7 1.7
v -0.9 0.7 1.7
v -1.7 0.7 1.4
v -1.5 0.7 1.4
v -1.1 0.7 1.4
v -1 0.7 1.4
v -0.9 0.7 1.4
v -1.7 0.7 1.1
v -1.5 0.7 1.1
v -1.1 0.7 1.1
v -1 0.7 1.1
v -0.9 0.7 1.1
v -1.8 0.7 0.8
v -1.7 0.7 0.8
v -1.5 0.7 0.8
v -1.1 0.7 0.8
v -0.9 0.7 0.8
v -0.8 0.7 0.8
v -1.4 0.8 0.8
v -1.2 0.8 0.8
v -1.4 0.8 0.7
v -1.2 0.8 0.7
v -1.4 1 1.9
v -1.2 1 1.9
v -1.4 1 1.8
v -1.2 1 1.8
v 0.1 0.5 1.9
v 0.5 0.5 1.9
v 0.8 0.5 1.9
v 1.8 0.5 1.9
v 0.5 0.5 1.8
v 0.6 0.5 1.8
v 0.7 0.5 1.8
v 0.8 0.5 1.8
v 1.8 0.5 1.8
v 1.9 0.5 1.8
v 1.1 0.5 1.6
v 1.5 0.5 1.6
v 1 0.5 1.5
v 1.1 0.5 1.5
v 1.5 0.5 1.5
v 1.6 0.5 1.5
v 1 0.5 1.3
v 1.1 0.5 1.3
v 1.5 0.5 1.3
v 1.6 0.5 1.3
v 1.1 0.5 1.2
v 1.5 0.5 1.2
v -0.1 0.5 1.1
v 0.1 0.5 1.1
v 1.3 0.5 1.1
v 1.6 0.5 1.1
v -0.4 0.5 0.9
v -0.1 0.5 0.9
v 1.3 0.5 0.9
v 1.6 0.5 0.9
v -0.5 0.5 0.8
v -0.4 0.5 0.8
v 0.5 0.5 0.8
v 0.6 0.5 0.8
v 0.7 0.5 0.8
v 0.8 0.5 0.8
v 1.8 0.5 0.8
v 1.9 0.5 0.8
v -0.5 0.5 0.7
v 0.5 0.5 0.7
v 0.8 0.5 0.7
v 1.8 0.5 0.7
v -1.8 0.5 0.6
v -0.8 0.5 0.6
v -0.5 0.5 0.6
v 0.5 0.5 0.6
v 0.8 0.5 0.6
v 1.8 0.5 0.6
v -1.9 0.5 0.5
v -1.8 0.5 0.5
v -0.8 0.5 0.5
v -0.7 0.5 0.5
v -0.6 0.5 0.5
v -0.5 0.5 0.5
v 0.5 0.5 0.5
v 0.6 0.5 0.5
v 0.7 0.5 0.5
v 0.8 0.5 0.5
v 1.8 0.5 0.5
v 1.9 0.5 0.5
v -1.9 0.5 -0.4
v -1.8 0.5 -0.4
v -0.8 0.5 -0.5
v -0.7 0.5 -0.5
v -0.6 0.5 -0.5
v -0.5 0.5 -0.5
v 0.5 0.5 -0.5
v 0.6 0.5 -0.5
v 0.7 0.5 -0.5
v 0.8 0.5 -0.5
v 1.8 0.5 -0.5
v 1.9 0.5 -0.5
v -1.8 0.5 -0.6
v -0.8 0.5 -0.6
v -0.5 0.5 -0.6
v 0.5 0.5 -0.6
v 0.8 0.5 -0.6
v 1.8 0.5 -0.6
v -1.8 0.5 -0.7
v -0.8 0.5 -0.7
v -0.5 0.5 -0.7
v 0.5 0.5 -0.7
v -1.9 0.5 -0.8
v -1.8 0.5 -0.8
v -0.8 0.5 -0.8
v -0.7 0.5 -0.8
v -0.6 0.5 -0.8
v -0.5 0.5 -0.8
v 0.5 0.5 -0.8
v 0.6 0.5 -0.8
v 0.7 0.5 -0.8
v 0.8 0.5 -0.8
v -1.5 0.5 -0.9
v -1.1 0.5 -0.9
v -1.7 0.5 -1.1
v -1.5 0.5 -1.1
v -1.1 0.5 -1.1
v -0.9 0.5 -1.1
v -1.1 0.5 -1.5
v -0.9 0.5 -1.5
v -1.7 0.5 -1.7
v -1.1 0.5 -1.7
v -1.9 0.5 -1.8
v -1.8 0.5 -1.8
v -0.8 0.5 -1.8
v -0.7 0.5 -1.8
v -0.6 0.5 -1.8
v -0.5 0.5 -1.8
v 0.5 0.5 -1.8
v 0.6 0.5 -1.8
v 0.7 0.5 -1.8
v 0.8 0.5 -1.8
v -1.8 0.5 -1.9
v -0.8 0.5 -1.9
v -0.5 0.5 -1.9
v 0.5 0.5 -1.9
v -1.8 0.6 1.9
v -0.8 0.6 1.9
v -0.5 0.6 1.9
v 0.1 0.6 1.9
v -1.9 0.6 1.8
v -1.8 0.6 1.8
v -0.8 0.6 1.8
v -0.7 0.6 1.8
v -0.6 0.6 1.8
v -0.5 0.6 1.8
v -0.2 0.6 1.8
v -1.7 0.6 1.7
v -1.5 0.6 1.7
v -1.1 0.6 1.7
v -0.9 0.6 1.7
v -0.4 0.6 1.7
v -0.3 0.6 1.7
v -0.2 0.6 1.7
v -0.1 0.6 1.7
v -0.4 0.6 1.6
v -0.3 0.6 1.6
v 1.1 0.6 1.6
v 1.5 0.6 1.6
v -0.5 0.6 1.5
v -0.4 0.6 1.5
v -0.3 0.6 1.5
v -0.1 0.6 1.5
v 1 0.6 1.5
v 1.1 0.6 1.5
v 1.5 0.6 1.5
v 1.6 0.6 1.5
v -1.7 0.6 1.4
v -1.5 0.6 1.4
v -1.1 0.6 1.4
v -0.9 0.6 1.4
v -0.5 0.6 1.4
v -0.4 0.6 1.4
v -0.3 0.6 1.4
v -0.1 0.6 1.4
v -0.5 0.6 1.3
v -0.4 0.6 1.3
v -0.3 0.6 1.3
v -0.1 0.6 1.3
v 1 0.6 1.3
v 1.1 0.6 1.3
v 1.5 0.6 1.3
v 1.6 0.6 1.3
v -0.5 0.6 1.2
v -0.4 0.6 1.2
v -0.3 0.6 1.2
v -0.2 0.6 1.2
v 1.1 0.6 1.2
v 1.5 0.6 1.2
v -1.7 0.6 1.1
v -1.5 0.6 1.1
v -1.1 0.6 1.1
v -0.9 0.6 1.1
v -0.5 0.6 1.1
v -0.2 0.6 1.1
v -0.1 0.6 1.1
v 0.1 0.6 1.1
v 1.3 0.6 1.1
v 1.6 0.6 1.1
v -0.4 0.6 0.9
v -0.1 0.6 0.9
v 1.3 0.6 0.9
v 1.6 0.6 0.9
v -1.9 0.6 0.8
v -1.8 0.6 0.8
v -1.7 0.6 0.8
v -1.5 0.6 0.8
v -1.1 0.6 0.8
v -0.9 0.6 0.8
v -0.8 0.6 0.8
v -0.7 0.6 0.8
v -0.6 0.6 0.8
v -0.4 0.6 0.8
v -1.8 0.6 0.7
v -0.8 0.6 0.7
v 0.8 0.6 -0.7
v 1 0.6 -0.7
v -1.5 0.6 -0.9
v -1.1 0.6 -0.9
v 0.8 0.6 -0.9
v 1 0.6 -0.9
v -1.4 0.6 -1
v -1.2 0.6 -1
v -1.7 0.6 -1.1
v -1.5 0.6 -1.1
v -1.1 0.6 -1.1
v -0.9 0.6 -1.1
v -1.6 0.6 -1.2
v -1.4 0.6 -1.2
v -1.2 0.6 -1.2
v -1 0.6 -1.2
v -1.2 0.6 -1.4
v -1 0.6 -1.4
v -1.1 0.6 -1.5
v -0.9 0.6 -1.5
v -1.6 0.6 -1.6
v -1.2 0.6 -1.6
v -1.7 0.6 -1.7
v -1.1 0.6 -1.7
v -0.5 0.7 1.8
v -0.2 0.7 1.8
v -0.4 0.7 1.7
v -0.3 0.7 1.7
v -0.2 0.7 1.7
v -0.1 0.7 1.7
v -0.4 0.7 1.6
v -0.3 0.7 1.6
v -0.5 0.7 1.5
v -0.4 0.7 1.5
v -0.3 0.7 1.5
v -0.1 0.7 1.5
v 1.1 0.7 1.5
v 1.5 0.7 1.5
v -0.5 0.7 1.4
v -0.4 0.7 1.4
v -0.3 0.7 1.4
v -0.1 0.7 1.4
v -0.5 0.7 1.3
v -0.4 0.7 1.3
v -0.3 0.7 1.3
v -0.1 0.7 1.3
v 1.1 0.7 1.3
v 1.5 0.7 1.3
v -0.5 0.7 1.2
v -0.4 0.7 1.2
v -0.3 0.7 1.2
v -0.2 0.7 1.2
v -0.5 0.7 1.1
v -0.2 0.7 1.1
v 1 0.7 -0.7
v 1.8 0.7 -0.7
v 1.8 0.7 -0.8
v 1.9 0.7 -0.8
v 0.8 0.7 -0.9
v 1 0.7 -0.9
v 1.2 0.7 -0.9
v 1.9 0.7 -0.9
v -1.4 0.7 -1
v -1.2 0.7 -1
v 1 0.7 -1.1
v 1.2 0.7 -1.1
v -1.6 0.7 -1.2
v -1.4 0.7 -1.2
v -1.2 0.7 -1.2
v -1 0.7 -1.2
v -1.2 0.7 -1.4
v -1 0.7 -1.4
v 1 0.7 -1.4
v 1 0.7 -1.5
v -1.6 0.7 -1.6
v -1.2 0.7 -1.6
v 0.8 0.7 -1.9
v 1 0.7 -1.9
v -1.4 1 0.8
v -1.2 1 0.8
v -1.4 1 0.7
v -1.2 1 0.7
v 1.2 1 -0.9
v 1.9 1 -0.9
v 1.3 1 -1
v 1.8 1 -1
v 1 1 -1.1
v 1.2 1 -1.1
v 1.1 1 -1.2
v 1.3 1 -1.2
v 1.7 1 -1.7
v 1.8 1 -1.7
v 1.1 1 -1.8
v 1.7 1 -1.8
v 1.8 1 -1.8
v 1.9 1 -1.8
v 1 1 -1.9
v 1.8 1 -1.9
v 1.3 1.1 -1
v 1.8 1.1 -1
v 1.1 1.1 -1.2
v 1.3 1.1 -1.2
v 1.7 1.1 -1.7
v 1.8 1.1 -1.7
v 1.1 1.1 -1.8
v 1.7 1.1 -1.8
v -1.4 1.2 1.9
v -1.2 1.2 1.9
v -1.4 1.2 1.8
v -1.2 1.2 1.8
v -1.8 1.6 1.8
v -1.7 1.6 1.8
v -1.4 1.6 1.8
v -1.2 1.6 1.8
v -0.9 1.6 1.8
v -0.8 1.6 1.8
v -1.7 1.6 1.6
v -1.4 1.6 1.6
v -1.2 1.6 1.6
v -0.9 1.6 1.6
v -1.8 1.6 0.8
v -0.8 1.6 0.8
v -1.7 1.8 1.8
v -1.4 1.8 1.8
v -1.2 1.8 1.8
v -0.9 1.8 1.8
v -1.7 1.8 1.6
v -1.4 1.8 1.6
v -1.2 1.8 1.6
v -0.9 1.8 1.6

# faces
f 7/7/1 4/7/1 3/7/1
f 8/7/1 4/7/1 7/7/1
f 9/7/1 6/7/1 5/7/1
f 10/7/1 6/7/1 9/7/1
f 11/1/1 2/1/1 1/1/1
f 12/1/1 2/1/1 11/1/1
f 25/7/1 18/7/1 17/7/1
f 26/7/1 18/7/1 25/7/1
f 27/7/1 20/7/1 19/7/1
f 28/7/1 20/7/1 27/7/1
f 29/7/1 22/7/1 21/7/1
f 30/7/1 22/7/1 29/7/1
f 31/7/1 24/7/1 23/7/1
f 32/7/1 24/7/1 31/7/1
f 33/1/1 14/1/1 13/1/1
f 34/1/1 14/1/1 33/1/1
f 35/1/1 16/1/1 15/1/1
f 36/1/1 16/1/1 35/1/1
f 39/9/1 38/9/1 37/9/1
f 40/9/1 38/9/1 39/9/1
f 47/1/1 42/1/1 41/1/1
f 48/1/1 42/1/1 47/1/1
f 49/10/1 44/10/1 43/10/1
f 50/10/1 44/10/1 49/10/1
f 51/10/1 46/10/1 45/10/1
f 52/10/1 46/10/1 51/10/1
f 55/9/1 54/9/1 53/9/1
f 56/9/1 54/9/1 55/9/1
f 59/9/1 58/9/1 57/9/1
f 60/9/1 58/9/1 59/9/1
f 63/1/1 62/1/1 61/1/1
f 64/1/1 62/1/1 63/1/1
f 67/9/1 66/9/1 65/9/1
f 68/9/1 66/9/1 67/9/1
f 71/9/1 70/9/1 69/9/1
f 74/9/1 70/9/1 71/9/1
f 75/9/1 70/9/1 74/9/1
f 76/12/1 73/12/1 72/12/1
f 77/12/1 73/12/1 76/12/1
f 80/9/1 79/9/1 78/9/1
f 81/9/1 79/9/1 80/9/1
f 86/10/1 83/10/1 82/10/1
f 87/10/1 83/10/1 86/10/1
f 88/10/1 85/10/1 84/10/1
f 89/10/1 85/10/1 88/10/1
f 96/7/1 93/7/1 92/7/1
f 97/7/1 93/7/1 96/7/1
f 98/7/1 95/7/1 94/7/1
f 99/7/1 95/7/1 98/7/1
f 100/1/1 91/1/1 90/1/1
f 101/1/1 91/1/1 100/1/1
f 114/7/1 105/7/1 104/7/1
f 115/7/1 105/7/1 114/7/1
f 116/7/1 107/7/1 106/7/1
f 117/7/1 107/7/1 116/7/1
f 118/7/1 109/7/1 108/7/1
f 119/7/1 109/7/1 118/7/1
f 120/7/1 111/7/1 110/7/1
f 121/7/1 111/7/1 120/7/1
f 122/7/1 113/7/1 112/7/1
f 123/7/1 113/7/1 122/7/1
f 124/1/1 103/1/1 102/1/1
f 125/1/1 103/1/1 124/1/1
f 131/10/1 126/10/1 125/10/1
f 132/10/1 126/10/1 131/10/1
f 133/10/1 128/10/1 127/10/1
f 134/10/1 128/10/1 133/10/1
f 135/10/1 130/10/1 129/10/1
f 136/10/1 130/10/1 135/10/1
f 141/10/1 138/10/1 137/10/1
f 142/10/1 138/10/1 141/10/1
f 143/10/1 140/10/1 139/10/1
f 144/10/1 140/10/1 143/10/1
f 147/10/1 146/10/1 145/10/1
f 148/10/1 146/10/1 147/10/1
f 155/7/1 150/7/1 149/7/1
f 156/7/1 150/7/1 155/7/1
f 157/7/1 152/7/1 151/7/1
f 158/7/1 152/7/1 157/7/1
f 159/1/1 154/1/1 153/1/1
f 160/1/1 154/1/1 159/1/1
f 173/7/1 162/7/1 161/7/1
f 174/7/1 162/7/1 173/7/1
f 175/7/1 164/7/1 163/7/1
f 176/7/1 164/7/1 175/7/1
f 177/7/1 166/7/1 165/7/1
f 178/7/1 166/7/1 177/7/1
f 179/7/1 168/7/1 167/7/1
f 180/7/1 168/7/1 179/7/1
f 181/1/1 170/1/1 169/1/1
f 182/1/1 172/1/1 171/1/1
f 183/1/1 181/1/1 169/1/1
f 183/1/1 182/1/1 181/1/1
f 184/1/1 182/1/1 183/1/1
f 185/1/1 182/1/1 184/1/1
f 186/1/1 172/1/1 182/1/1
f 186/1/1 182/1/1 185/1/1
f 189/1/1 188/1/1 187/1/1
f 190/1/1 188/1/1 189/1/1
f 193/1/1 192/1/1 191/1/1
f 194/1/1 192/1/1 193/1/1
f 199/1/1 196/1/1 195/1/1
f 200/1/1 196/1/1 199/1/1
f 201/1/1 198/1/1 197/1/1
f 202/1/1 198/1/1 201/1/1
f 203/1/1 199/1/1 195/1/1
f 204/9/1 200/9/1 199/9/1
f 204/1/1 199/1/1 203/1/1
f 205/1/1 196/1/1 200/1/1
f 205/9/1 200/9/1 204/9/1
f 206/9/1 197/9/1 196/9/1
f 206/1/1 196/1/1 205/1/1
f 207/1/1 201/1/1 197/1/1
f 207/9/1 197/9/1 206/9/1
f 208/9/1 202/9/1 201/9/1
f 208/1/1 201/1/1 207/1/1
f 209/1/1 198/1/1 202/1/1
f 209/9/1 202/9/1 208/9/1
f 210/1/1 198/1/1 209/1/1
f 211/9/1 204/9/1 203/9/1
f 211/9/1 205/9/1 204/9/1
f 211/9/1 210/9/1 209/9/1
f 211/9/1 209/9/1 208/9/1
f 211/9/1 207/9/1 206/9/1
f 211/9/1 206/9/1 205/9/1
f 211/9/1 208/9/1 207/9/1
f 212/9/1 210/9/1 211/9/1
f 217/1/1 214/1/1 213/1/1
f 218/1/1 214/1/1 217/1/1
f 219/1/1 216/1/1 215/1/1
f 220/1/1 216/1/1 219/1/1
f 221/9/1 219/9/1 218/9/1
f 222/9/1 219/9/1 221/9/1
f 225/9/1 224/9/1 223/9/1
f 226/9/1 224/9/1 225/9/1
f 229/1/1 228/1/1 227/1/1
f 230/1/1 228/1/1 229/1/1
f 231/9/1 230/9/1 229/9/1
f 232/9/1 230/9/1 231/9/1
f 235/1/1 234/1/1 233/1/1
f 236/1/1 234/1/1 235/1/1
f 239/9/1 238/9/1 237/9/1
f 240/9/1 238/9/1 239/9/1
f 241/10/2 242/10/2 245/10/2
f 245/10/2 242/10/2 246/10/2
f 243/10/2 244/10/2 247/10/2
f 247/10/2 244/10/2 248/10/2
f 249/9/2 250/9/2 251/9/2
f 251/9/2 250/9/2 252/9/2
f 253/9/2 254/9/2 257/9/2
f 257/9/2 254/9/2 258/9/2
f 255/9/2 256/9/2 259/9/2
f 259/9/2 256/9/2 260/9/2
f 261/9/2 262/9/2 263/9/2
f 263/9/2 262/9/2 266/9/2
f 266/9/2 262/9/2 267/9/2
f 264/12/2 265/12/2 268/12/2
f 268/12/2 265/12/2 269/12/2
f 270/1/2 271/1/2 274/1/2
f 274/1/2 271/1/2 275/1/2
f 272/1/2 273/1/2 276/1/2
f 276/1/2 273/1/2 277/1/2
f 278/9/2 279/9/2 280/9/2
f 280/9/2 279/9/2 281/9/2
f 282/1/2 283/1/2 288/1/2
f 288/1/2 283/1/2 289/1/2
f 284/10/2 285/10/2 290/10/2
f 290/10/2 285/10/2 291/10/2
f 286/10/2 287/10/2 292/10/2
f 292/10/2 287/10/2 293/10/2
f 294/9/2 295/9/2 296/9/2
f 296/9/2 295/9/2 297/9/2
f 302/7/2 303/7/2 310/7/2
f 310/7/2 303/7/2 311/7/2
f 304/7/2 305/7/2 312/7/2
f 312/7/2 305/7/2 313/7/2
f 306/7/2 307/7/2 314/7/2
f 314/7/2 307/7/2 315/7/2
f 308/7/2 309/7/2 316/7/2
f 316/7/2 309/7/2 317/7/2
f 298/1/2 299/1/2 318/1/2
f 318/1/2 299/1/2 319/1/2
f 300/1/2 301/1/2 320/1/2
f 320/1/2 301/1/2 321/1/2
f 322/9/2 323/9/2 324/9/2
f 324/9/2 323/9/2 325/9/2
f 328/7/2 329/7/2 332/7/2
f 332/7/2 329/7/2 333/7/2
f 330/7/2 331/7/2 334/7/2
f 334/7/2 331/7/2 335/7/2
f 326/1/2 327/1/2 336/1/2
f 336/1/2 327/1/2 337/1/2
f 338/1/2 339/1/2 342/1/2
f 342/1/2 339/1/2 343/1/2
f 340/10/2 341/10/2 344/10/2
f 344/10/2 341/10/2 345/10/2
f 346/10/2 347/10/2 350/10/2
f 350/10/2 347/10/2 351/10/2
f 348/10/2 349/10/2 352/10/2
f 352/10/2 349/10/2 353/10/2
f 354/10/2 355/10/2 358/10/2
f 358/10/2 355/10/2 359/10/2
f 356/10/2 357/10/2 360/10/2
f 360/10/2 357/10/2 361/10/2
f 362/1/2 363/1/2 368/1/2
f 368/1/2 363/1/2 369/1/2
f 364/10/2 365/10/2 370/10/2
f 370/10/2 365/10/2 371/10/2
f 366/10/2 367/10/2 372/10/2
f 372/10/2 367/10/2 373/10/2
f 374/1/2 375/1/2 376/1/2
f 376/1/2 375/1/2 377/1/2
f 378/7/2 379/7/2 390/7/2
f 390/7/2 379/7/2 391/7/2
f 380/7/2 381/7/2 392/7/2
f 392/7/2 381/7/2 393/7/2
f 382/7/2 383/7/2 394/7/2
f 394/7/2 383/7/2 395/7/2
f 384/7/2 385/7/2 396/7/2
f 396/7/2 385/7/2 397/7/2
f 386/7/2 387/7/2 398/7/2
f 398/7/2 387/7/2 399/7/2
f 388/7/2 389/7/2 400/7/2
f 400/7/2 389/7/2 401/7/2
f 402/7/2 403/7/2 408/7/2
f 408/7/2 403/7/2 409/7/2
f 404/7/2 405/7/2 410/7/2
f 410/7/2 405/7/2 411/7/2
f 406/7/2 407/7/2 412/7/2
f 412/7/2 407/7/2 413/7/2
f 414/1/2 415/1/2 418/1/2
f 418/1/2 415/1/2 419/1/2
f 416/1/2 417/1/2 420/1/2
f 420/1/2 417/1/2 421/1/2
f 419/9/2 420/9/2 422/9/2
f 422/9/2 420/9/2 423/9/2
f 424/1/2 425/1/2 428/1/2
f 428/1/2 425/1/2 429/1/2
f 426/1/2 427/1/2 430/1/2
f 430/1/2 427/1/2 431/1/2
f 432/9/2 433/9/2 434/9/2
f 434/9/2 433/9/2 435/9/2
f 436/7/2 437/7/2 448/7/2
f 448/7/2 437/7/2 449/7/2
f 438/7/2 439/7/2 450/7/2
f 450/7/2 439/7/2 451/7/2
f 440/7/2 441/7/2 452/7/2
f 452/7/2 441/7/2 453/7/2
f 442/7/2 443/7/2 454/7/2
f 454/7/2 443/7/2 455/7/2
f 446/1/2 447/1/2 456/1/2
f 444/1/2 445/1/2 457/1/2
f 457/1/2 445/1/2 458/1/2
f 456/1/2 447/1/2 459/1/2
f 459/1/2 447/1/2 460/1/2
f 459/9/2 460/9/2 463/9/2
f 463/9/2 460/9/2 464/9/2
f 461/9/2 462/9/2 465/9/2
f 465/9/2 462/9/2 466/9/2
f 467/7/2 468/7/2 473/7/2
f 473/7/2 468/7/2 474/7/2
f 469/7/2 470/7/2 475/7/2
f 475/7/2 470/7/2 476/7/2
f 471/1/2 472/1/2 477/1/2
f 477/1/2 472/1/2 478/1/2
f 471/1/2 477/1/2 479/1/2
f 479/1/2 477/1/2 480/1/2
f 480/1/2 477/1/2 481/1/2
f 481/1/2 477/1/2 482/1/2
f 480/1/2 481/1/2 483/1/2
f 483/1/2 481/1/2 484/1/2
f 482/1/2 477/1/2 485/1/2
f 485/1/2 477/1/2 486/1/2
f 484/1/2 481/1/2 487/1/2
f 483/9/2 484/9/2 487/9/2
f 481/9/2 482/9/2 488/9/2
f 487/1/2 481/1/2 488/1/2
f 482/1/2 485/1/2 489/1/2
f 488/9/2 482/9/2 489/9/2
f 485/9/2 486/9/2 490/9/2
f 489/1/2 485/1/2 490/1/2
f 486/1/2 477/1/2 491/1/2
f 490/9/2 486/9/2 491/9/2
f 477/9/2 478/9/2 492/9/2
f 491/1/2 477/1/2 492/1/2
f 490/9/2 491/9/2 493/9/2
f 489/9/2 490/9/2 493/9/2
f 491/9/2 492/9/2 493/9/2
f 487/9/2 488/9/2 493/9/2
f 488/9/2 489/9/2 493/9/2
f 483/9/2 487/9/2 493/9/2
f 492/9/2 478/9/2 494/9/2
f 493/9/2 492/9/2 494/9/2
f 499/12/3 498/12/3 497/12/3
f 500/12/3 498/12/3 499/12/3
f 501/1/3 496/1/3 495/1/3
f 502/1/3 496/1/3 501/1/3
f 505/1/3 504/1/3 503/1/3
f 506/1/3 504/1/3 505/1/3
f 507/1/3 504/1/3 506/1/3
f 508/7/3 506/7/3 505/7/3
f 509/7/3 506/7/3 508/7/3
f 512/7/3 511/7/3 510/7/3
f 513/7/3 511/7/3 512/7/3
f 516/1/3 515/1/3 514/1/3
f 517/1/3 515/1/3 516/1/3
f 520/9/3 519/9/3 518/9/3
f 521/9/3 519/9/3 520/9/3
f 522/9/3 519/9/3 521/9/3
f 524/9/3 522/9/3 521/9/3
f 524/9/3 523/9/3 522/9/3
f 525/9/3 523/9/3 524/9/3
f 526/9/3 523/9/3 525/9/3
f 527/9/3 523/9/3 526/9/3
f 528/9/3 524/9/3 521/9/3
f 528/12/3 525/12/3 524/12/3
f 529/9/3 526/9/3 525/9/3
f 529/12/3 525/12/3 528/12/3
f 530/10/3 527/10/3 526/10/3
f 530/9/3 526/9/3 529/9/3
f 531/9/3 523/9/3 527/9/3
f 531/10/3 527/10/3 530/10/3
f 532/9/3 530/9/3 529/9/3
f 532/9/3 529/9/3 528/9/3
f 532/9/3 531/9/3 530/9/3
f 532/9/3 528/9/3 521/9/3
f 533/9/3 531/9/3 532/9/3
f 534/9/3 531/9/3 533/9/3
f 535/9/3 523/9/3 531/9/3
f 535/9/3 531/9/3 534/9/3
f 536/9/3 532/9/3 521/9/3
f 537/9/3 534/9/3 533/9/3
f 538/9/3 534/9/3 537/9/3
f 540/9/3 537/9/3 536/9/3
f 540/9/3 539/9/3 538/9/3
f 540/9/3 538/9/3 537/9/3
f 541/9/3 539/9/3 540/9/3
f 542/9/3 539/9/3 541/9/3
f 543/9/3 539/9/3 542/9/3
f 544/9/3 540/9/3 536/9/3
f 544/12/3 541/12/3 540/12/3
f 545/9/3 542/9/3 541/9/3
f 545/12/3 541/12/3 544/12/3
f 546/10/3 543/10/3 542/10/3
f 546/9/3 542/9/3 545/9/3
f 547/9/3 539/9/3 543/9/3
f 547/10/3 543/10/3 546/10/3
f 548/10/3 521/10/3 520/10/3
f 549/9/3 536/9/3 521/9/3
f 549/10/3 521/10/3 548/10/3
f 549/9/3 546/9/3 545/9/3
f 549/9/3 547/9/3 546/9/3
f 549/9/3 544/9/3 536/9/3
f 549/9/3 545/9/3 544/9/3
f 550/9/3 547/9/3 549/9/3
f 551/9/3 539/9/3 547/9/3
f 551/9/3 547/9/3 550/9/3
f 554/9/3 550/9/3 549/9/3
f 554/9/3 549/9/3 548/9/3
f 555/9/3 550/9/3 554/9/3
f 556/1/3 553/1/3 552/1/3
f 557/1/3 553/1/3 556/1/3
f 560/1/3 559/1/3 558/1/3
f 561/1/3 559/1/3 560/1/3
f 563/10/3 562/10/3 561/10/3
f 564/10/3 562/10/3 563/10/3
f 567/7/3 566/7/3 565/7/3
f 568/7/3 566/7/3 567/7/3
f 571/7/3 570/7/3 569/7/3
f 572/7/3 570/7/3 571/7/3
f 575/7/3 574/7/3 573/7/3
f 576/7/3 574/7/3 575/7/3
f 579/10/3 578/10/3 577/10/3
f 580/10/3 578/10/3 579/10/3
f 583/10/3 582/10/3 581/10/3
f 584/10/3 582/10/3 583/10/3
f 587/10/3 586/10/3 585/10/3
f 588/10/3 586/10/3 587/10/3
f 591/10/3 590/10/3 589/10/3
f 592/10/3 590/10/3 591/10/3
f 595/1/3 594/1/3 593/1/3
f 596/1/3 594/1/3 595/1/3
f 599/1/3 598/1/3 597/1/3
f 600/1/3 598/1/3 599/1/3
f 603/9/3 601/9/3 600/9/3
f 604/9/3 601/9/3 603/9/3
f 605/1/3 603/1/3 602/1/3
f 606/1/3 603/1/3 605/1/3
f 609/10/3 608/10/3 607/10/3
f 610/10/3 608/10/3 609/10/3
f 613/10/3 612/10/3 611/10/3
f 614/10/3 612/10/3 613/10/3
f 617/10/3 616/10/3 615/10/3
f 618/10/3 616/10/3 617/10/3
f 621/10/3 620/10/3 619/10/3
f 622/10/3 620/10/3 621/10/3
f 625/10/3 624/10/3 623/10/3
f 626/10/3 624/10/3 625/10/3
f 629/10/3 628/10/3 627/10/3
f 630/10/3 629/10/3 627/10/3
f 631/10/3 629/10/3 630/10/3
f 634/1/3 633/1/3 632/1/3
f 635/1/3 633/1/3 634/1/3
f 638/7/3 637/7/3 636/7/3
f 639/7/3 637/7/3 638/7/3
f 642/7/3 641/7/3 640/7/3
f 643/7/3 641/7/3 642/7/3
f 646/7/3 645/7/3 644/7/3
f 647/7/3 645/7/3 646/7/3
f 650/7/3 649/7/3 648/7/3
f 651/7/3 649/7/3 650/7/3
f 654/7/3 653/7/3 652/7/3
f 655/7/3 653/7/3 654/7/3
f 658/7/3 657/7/3 656/7/3
f 659/7/3 657/7/3 658/7/3
f 662/7/3 661/7/3 660/7/3
f 663/7/3 661/7/3 662/7/3
f 666/7/3 665/7/3 664/7/3
f 667/7/3 665/7/3 666/7/3
f 670/7/3 669/7/3 668/7/3
f 671/7/3 669/7/3 670/7/3
f 674/7/3 673/7/3 672/7/3
f 675/7/3 673/7/3 674/7/3
f 678/7/3 677/7/3 676/7/3
f 679/7/3 677/7/3 678/7/3
f 682/1/3 681/1/3 680/1/3
f 684/1/3 682/1/3 680/1/3
f 684/1/3 683/1/3 682/1/3
f 685/1/3 683/1/3 684/1/3
f 688/7/3 687/7/3 686/7/3
f 689/7/3 687/7/3 688/7/3
f 692/7/3 691/7/3 690/7/3
f 693/7/3 691/7/3 692/7/3
f 696/7/3 695/7/3 694/7/3
f 697/7/3 695/7/3 696/7/3
f 700/7/3 699/7/3 698/7/3
f 701/7/3 699/7/3 700/7/3
f 704/1/3 703/1/3 702/1/3
f 705/1/3 703/1/3 704/1/3
f 708/1/3 707/1/3 706/1/3
f 709/1/3 707/1/3 708/1/3
f 712/1/3 711/1/3 710/1/3
f 713/1/3 711/1/3 712/1/3
f 716/1/3 715/1/3 714/1/3
f 717/1/3 715/1/3 716/1/3
f 721/1/3 719/1/3 718/1/3
f 722/9/3 720/9/3 719/9/3
f 722/1/3 719/1/3 721/1/3
f 723/1/3 721/1/3 718/1/3
f 723/9/3 722/9/3 721/9/3
f 724/9/3 720/9/3 722/9/3
f 724/9/3 722/9/3 723/9/3
f 725/1/3 723/1/3 718/1/3
f 725/1/3 724/1/3 723/1/3
f 726/9/3 720/9/3 724/9/3
f 726/1/3 724/1/3 725/1/3
f 727/1/3 725/1/3 718/1/3
f 728/9/3 726/9/3 725/9/3
f 728/1/3 725/1/3 727/1/3
f 729/9/3 720/9/3 726/9/3
f 729/9/3 726/9/3 728/9/3
f 732/9/3 731/9/3 730/9/3
f 733/9/3 731/9/3 732/9/3
f 736/9/3 735/9/3 734/9/3
f 737/9/3 735/9/3 736/9/3
f 740/1/3 739/1/3 738/1/3
f 741/1/3 739/1/3 740/1/3
f 744/1/3 743/1/3 742/1/3
f 745/1/3 743/1/3 744/1/3
f 749/1/3 747/1/3 746/1/3
f 750/9/3 748/9/3 747/9/3
f 750/1/3 747/1/3 749/1/3
f 751/9/3 748/9/3 750/9/3
f 754/9/3 753/9/3 752/9/3
f 755/9/3 753/9/3 754/9/3
f 758/9/3 757/9/3 756/9/3
f 759/9/3 757/9/3 758/9/3
f 762/9/3 761/9/3 760/9/3
f 763/9/3 761/9/3 762/9/3
f 764/10/4 765/10/4 766/10/4
f 766/10/4 765/10/4 767/10/4
f 768/9/4 769/9/4 770/9/4
f 770/9/4 769/9/4 771/9/4
f 772/9/4 773/9/4 774/9/4
f 774/9/4 773/9/4 775/9/4
f 776/10/4 777/10/4 778/10/4
f 778/10/4 777/10/4 779/10/4
f 780/10/4 781/10/4 782/10/4
f 782/10/4 781/10/4 783/10/4
f 784/10/4 785/10/4 786/10/4
f 786/10/4 785/10/4 787/10/4
f 788/10/4 789/10/4 790/10/4
f 788/10/4 790/10/4 791/10/4
f 791/10/4 790/10/4 792/10/4
f 793/10/4 794/10/4 795/10/4
f 795/10/4 794/10/4 796/10/4
f 797/10/4 798/10/4 799/10/4
f 799/10/4 798/10/4 800/10/4
f 801/1/4 802/1/4 803/1/4
f 803/1/4 802/1/4 804/1/4
f 804/9/4 805/9/4 807/9/4
f 807/9/4 805/9/4 808/9/4
f 806/1/4 807/1/4 809/1/4
f 809/1/4 807/1/4 810/1/4
f 811/1/4 812/1/4 813/1/4
f 813/1/4 812/1/4 814/1/4
f 815/10/4 816/10/4 817/10/4
f 817/10/4 816/10/4 818/10/4
f 819/1/4 820/1/4 821/1/4
f 821/1/4 820/1/4 822/1/4
f 823/1/4 824/1/4 825/1/4
f 825/1/4 824/1/4 826/1/4
f 827/1/4 828/1/4 829/1/4
f 829/1/4 828/1/4 830/1/4
f 831/1/4 832/1/4 833/1/4
f 833/1/4 832/1/4 834/1/4
f 835/9/4 836/9/4 838/9/4
f 838/9/4 836/9/4 839/9/4
f 837/10/4 838/10/4 840/10/4
f 838/10/4 839/10/4 840/10/4
f 840/10/4 839/10/4 841/10/4
f 841/10/4 839/10/4 842/10/4
f 839/9/4 836/9/4 843/9/4
f 842/10/4 839/10/4 843/10/4
f 843/9/4 836/9/4 844/9/4
f 841/10/4 842/10/4 845/10/4
f 844/9/4 836/9/4 847/9/4
f 845/10/4 846/10/4 849/10/4
f 841/10/4 845/10/4 849/10/4
f 849/10/4 846/10/4 850/10/4
f 848/10/4 849/10/4 850/10/4
f 846/9/4 847/9/4 851/9/4
f 850/10/4 846/10/4 851/10/4
f 848/10/4 850/10/4 852/10/4
f 850/9/4 851/9/4 853/9/4
f 852/10/4 850/10/4 853/10/4
f 853/9/4 851/9/4 856/9/4
f 851/9/4 847/9/4 857/9/4
f 856/9/4 851/9/4 857/9/4
f 847/9/4 836/9/4 857/9/4
f 854/1/4 855/1/4 858/1/4
f 858/1/4 855/1/4 859/1/4
f 860/1/4 861/1/4 862/1/4
f 862/1/4 861/1/4 863/1/4
f 863/1/4 861/1/4 864/1/4
f 864/1/4 861/1/4 865/1/4
f 866/7/4 867/7/4 868/7/4
f 868/7/4 867/7/4 869/7/4
f 870/7/4 871/7/4 872/7/4
f 872/7/4 871/7/4 873/7/4
f 874/7/4 875/7/4 876/7/4
f 876/7/4 875/7/4 877/7/4
f 880/9/4 881/9/4 882/9/4
f 882/9/4 881/9/4 883/9/4
f 878/1/4 879/1/4 884/1/4
f 884/1/4 879/1/4 885/1/4
f 886/7/4 887/7/4 888/7/4
f 888/7/4 887/7/4 889/7/4
f 890/7/4 891/7/4 892/7/4
f 892/7/4 891/7/4 893/7/4
f 894/7/4 895/7/4 896/7/4
f 896/7/4 895/7/4 897/7/4
f 898/7/4 899/7/4 900/7/4
f 900/7/4 899/7/4 901/7/4
f 902/7/4 903/7/4 904/7/4
f 904/7/4 903/7/4 905/7/4
f 906/7/4 907/7/4 908/7/4
f 908/7/4 907/7/4 909/7/4
f 910/7/4 911/7/4 912/7/4
f 912/7/4 911/7/4 913/7/4
f 914/7/4 915/7/4 916/7/4
f 916/7/4 915/7/4 917/7/4
f 918/7/4 919/7/4 920/7/4
f 920/7/4 919/7/4 921/7/4
f 922/7/4 923/7/4 924/7/4
f 924/7/4 923/7/4 925/7/4
f 926/7/4 927/7/4 928/7/4
f 928/7/4 927/7/4 929/7/4
f 930/9/4 931/9/4 932/9/4
f 932/9/4 931/9/4 933/9/4
f 934/1/4 935/1/4 936/1/4
f 936/1/4 935/1/4 937/1/4
f 938/9/4 939/9/4 940/9/4
f 940/9/4 939/9/4 941/9/4
f 942/1/4 943/1/4 944/1/4
f 944/1/4 943/1/4 945/1/4
f 946/9/4 947/9/4 948/9/4
f 948/9/4 947/9/4 949/9/4
f 950/7/4 951/7/4 952/7/4
f 952/7/4 951/7/4 953/7/4
f 954/7/4 955/7/4 956/7/4
f 956/7/4 955/7/4 957/7/4
f 958/7/4 959/7/4 960/7/4
f 960/7/4 959/7/4 961/7/4
f 962/7/4 963/7/4 964/7/4
f 964/7/4 963/7/4 965/7/4
f 966/1/4 967/1/4 968/1/4
f 968/1/4 967/1/4 969/1/4
f 970/9/4 971/9/4 972/9/4
f 972/9/4 971/9/4 973/9/4
f 974/1/4 975/1/4 978/1/4
f 976/9/4 977/9/4 979/9/4
f 978/1/4 975/1/4 979/1/4
f 975/9/4 976/9/4 979/9/4
f 979/9/4 977/9/4 980/9/4
f 981/7/4 982/7/4 983/7/4
f 983/7/4 982/7/4 984/7/4
f 985/7/4 986/7/4 987/7/4
f 987/7/4 986/7/4 988/7/4
f 989/1/4 990/1/4 991/1/4
f 989/1/4 991/1/4 994/1/4
f 991/1/4 992/1/4 994/1/4
f 992/9/4 993/9/4 995/9/4
f 994/1/4 992/1/4 995/1/4
f 989/1/4 994/1/4 996/1/4
f 994/9/4 995/9/4 996/9/4
f 996/9/4 995/9/4 997/9/4
f 996/1/4 997/1/4 998/1/4
f 997/9/4 995/9/4 998/9/4
f 995/9/4 993/9/4 999/9/4
f 998/9/4 995/9/4 999/9/4
f 996/1/4 998/1/4 1000/1/4
f 989/1/4 996/1/4 1000/1/4
f 998/1/4 999/1/4 1000/1/4
f 999/9/4 993/9/4 1001/9/4
f 1000/1/4 999/1/4 1001/1/4
f 989/1/4 1000/1/4 1002/1/4
f 1000/9/4 1001/9/4 1003/9/4
f 1002/1/4 1000/1/4 1003/1/4
f 1001/9/4 993/9/4 1004/9/4
f 1003/9/4 1001/9/4 1004/9/4
f 1013/1/5 1006/1/5 1005/1/5
f 1014/1/5 1006/1/5 1013/1/5
f 1017/1/5 1008/1/5 1007/1/5
f 1018/7/5 1009/7/5 1008/7/5
f 1021/7/5 1011/7/5 1010/7/5
f 1022/7/5 1011/7/5 1021/7/5
f 1024/1/5 1017/1/5 1016/1/5
f 1024/1/5 1008/1/5 1017/1/5
f 1025/7/5 1019/7/5 1018/7/5
f 1025/1/5 1008/1/5 1024/1/5
f 1025/7/5 1018/7/5 1008/7/5
f 1026/1/5 1015/1/5 1014/1/5
f 1026/1/5 1013/1/5 1012/1/5
f 1026/1/5 1014/1/5 1013/1/5
f 1027/1/5 1015/1/5 1026/1/5
f 1028/1/5 1015/1/5 1027/1/5
f 1029/1/5 1015/1/5 1028/1/5
f 1030/1/5 1024/1/5 1016/1/5
f 1031/1/5 1024/1/5 1030/1/5
f 1032/7/5 1025/7/5 1024/7/5
f 1032/1/5 1024/1/5 1031/1/5
f 1033/7/5 1019/7/5 1025/7/5
f 1033/7/5 1025/7/5 1032/7/5
f 1034/7/5 1019/7/5 1033/7/5
f 1035/7/5 1023/7/5 1022/7/5
f 1035/7/5 1022/7/5 1021/7/5
f 1035/7/5 1021/7/5 1020/7/5
f 1036/7/5 1023/7/5 1035/7/5
f 1037/7/5 1023/7/5 1036/7/5
f 1038/7/5 1023/7/5 1037/7/5
f 1039/1/5 1028/1/5 1027/1/5
f 1040/1/5 1028/1/5 1039/1/5
f 1041/7/5 1032/7/5 1031/7/5
f 1041/7/5 1033/7/5 1032/7/5
f 1042/7/5 1033/7/5 1041/7/5
f 1043/7/5 1037/7/5 1036/7/5
f 1044/7/5 1037/7/5 1043/7/5
f 1052/7/5 1046/7/5 1045/7/5
f 1053/7/5 1046/7/5 1052/7/5
f 1056/7/5 1048/7/5 1047/7/5
f 1057/7/5 1048/7/5 1056/7/5
f 1060/7/5 1050/7/5 1049/7/5
f 1061/7/5 1050/7/5 1060/7/5
f 1063/7/5 1054/7/5 1053/7/5
f 1063/7/5 1052/7/5 1051/7/5
f 1063/7/5 1053/7/5 1052/7/5
f 1064/7/5 1054/7/5 1063/7/5
f 1065/7/5 1054/7/5 1064/7/5
f 1066/7/5 1054/7/5 1065/7/5
f 1067/7/5 1058/7/5 1057/7/5
f 1067/7/5 1056/7/5 1055/7/5
f 1067/7/5 1057/7/5 1056/7/5
f 1068/7/5 1058/7/5 1067/7/5
f 1069/7/5 1058/7/5 1068/7/5
f 1070/7/5 1058/7/5 1069/7/5
f 1071/7/5 1061/7/5 1060/7/5
f 1071/7/5 1062/7/5 1061/7/5
f 1071/7/5 1060/7/5 1059/7/5
f 1072/7/5 1062/7/5 1071/7/5
f 1073/7/5 1062/7/5 1072/7/5
f 1074/7/5 1062/7/5 1073/7/5
f 1075/7/5 1065/7/5 1064/7/5
f 1076/7/5 1065/7/5 1075/7/5
f 1077/7/5 1069/7/5 1068/7/5
f 1078/7/5 1069/7/5 1077/7/5
f 1079/7/5 1073/7/5 1072/7/5
f 1080/7/5 1073/7/5 1079/7/5
f 1088/7/5 1082/7/5 1081/7/5
f 1089/7/5 1082/7/5 1088/7/5
f 1092/7/5 1084/7/5 1083/7/5
f 1093/7/5 1084/7/5 1092/7/5
f 1096/1/5 1086/1/5 1085/1/5
f 1097/1/5 1086/1/5 1096/1/5
f 1099/7/5 1090/7/5 1089/7/5
f 1099/7/5 1088/7/5 1087/7/5
f 1099/7/5 1089/7/5 1088/7/5
f 1100/7/5 1090/7/5 1099/7/5
f 1101/7/5 1090/7/5 1100/7/5
f 1102/7/5 1090/7/5 1101/7/5
f 1103/7/5 1094/7/5 1093/7/5
f 1103/7/5 1092/7/5 1091/7/5
f 1103/7/5 1093/7/5 1092/7/5
f 1104/7/5 1094/7/5 1103/7/5
f 1105/7/5 1094/7/5 1104/7/5
f 1106/7/5 1094/7/5 1105/7/5
f 1107/1/5 1097/1/5 1096/1/5
f 1107/1/5 1098/1/5 1097/1/5
f 1107/1/5 1096/1/5 1095/1/5
f 1108/1/5 1098/1/5 1107/1/5
f 1109/1/5 1098/1/5 1108/1/5
f 1110/1/5 1098/1/5 1109/1/5
f 1111/7/5 1101/7/5 1100/7/5
f 1112/7/5 1101/7/5 1111/7/5
f 1113/7/5 1105/7/5 1104/7/5
f 1114/7/5 1105/7/5 1113/7/5
f 1115/1/5 1109/1/5 1108/1/5
f 1116/1/5 1109/1/5 1115/1/5
f 1121/9/5 1118/9/5 1117/9/5
f 1121/10/5 1119/10/5 1118/10/5
f 1122/10/5 1119/10/5 1121/10/5
f 1123/10/5 1119/10/5 1122/10/5
f 1124/9/5 1120/9/5 1119/9/5
f 1124/10/5 1119/10/5 1123/10/5
f 1125/9/5 1121/9/5 1117/9/5
f 1126/10/5 1123/10/5 1122/10/5
f 1127/10/5 1123/10/5 1126/10/5
f 1129/9/5 1120/9/5 1124/9/5
f 1130/9/5 1125/9/5 1117/9/5
f 1130/10/5 1128/10/5 1127/10/5
f 1130/10/5 1126/10/5 1125/10/5
f 1130/10/5 1127/10/5 1126/10/5
f 1131/10/5 1128/10/5 1130/10/5
f 1132/10/5 1128/10/5 1131/10/5
f 1133/9/5 1129/9/5 1128/9/5
f 1133/10/5 1128/10/5 1132/10/5
f 1134/9/5 1120/9/5 1129/9/5
f 1134/9/5 1129/9/5 1133/9/5
f 1135/9/5 1130/9/5 1117/9/5
f 1136/9/5 1130/9/5 1135/9/5
f 1137/10/5 1132/10/5 1131/10/5
f 1138/10/5 1132/10/5 1137/10/5
f 1139/9/5 1120/9/5 1134/9/5
f 1140/9/5 1120/9/5 1139/9/5
f 1143/9/5 1142/9/5 1141/9/5
f 1144/9/5 1142/9/5 1143/9/5
f 1147/12/5 1146/12/5 1145/12/5
f 1148/12/5 1146/12/5 1147/12/5
f 1149/7/6 1150/7/6 1153/7/6
f 1151/7/6 1152/7/6 1156/7/6
f 1156/7/6 1152/7/6 1157/7/6
f 1155/7/6 1156/7/6 1159/7/6
f 1157/7/6 1158/7/6 1159/7/6
f 1156/7/6 1157/7/6 1159/7/6
f 1159/7/6 1158/7/6 1160/7/6
f 1155/7/6 1159/7/6 1161/7/6
f 1161/7/6 1159/7/6 1162/7/6
f 1160/7/6 1158/7/6 1163/7/6
f 1163/7/6 1158/7/6 1164/7/6
f 1155/7/6 1161/7/6 1165/7/6
f 1164/7/6 1158/7/6 1168/7/6
f 1165/7/6 1166/7/6 1169/7/6
f 1167/7/6 1168/7/6 1170/7/6
f 1153/7/6 1154/7/6 1172/7/6
f 1149/7/6 1153/7/6 1172/7/6
f 1169/7/6 1170/7/6 1173/7/6
f 1170/7/6 1168/7/6 1174/7/6
f 1173/7/6 1170/7/6 1174/7/6
f 1168/7/6 1158/7/6 1174/7/6
f 1171/7/6 1172/7/6 1176/7/6
f 1169/7/6 1173/7/6 1177/7/6
f 1174/7/6 1158/7/6 1178/7/6
f 1175/7/6 1176/7/6 1180/7/6
f 1172/7/6 1154/7/6 1181/7/6
f 1176/7/6 1172/7/6 1181/7/6
f 1180/7/6 1176/7/6 1181/7/6
f 1181/7/6 1154/7/6 1182/7/6
f 1169/7/6 1177/7/6 1183/7/6
f 1177/7/6 1178/7/6 1183/7/6
f 1165/7/6 1169/7/6 1183/7/6
f 1155/7/6 1165/7/6 1183/7/6
f 1183/7/6 1178/7/6 1184/7/6
f 1178/7/6 1158/7/6 1185/7/6
f 1184/7/6 1178/7/6 1185/7/6
f 1185/7/6 1158/7/6 1186/7/6
f 1180/7/6 1181/7/6 1187/7/6
f 1179/7/6 1180/7/6 1187/7/6
f 1187/7/6 1181/7/6 1188/7/6
f 1184/7/6 1185/7/6 1189/7/6
f 1189/7/6 1185/7/6 1190/7/6
f 1191/7/6 1192/7/6 1198/7/6
f 1198/7/6 1192/7/6 1199/7/6
f 1193/7/6 1194/7/6 1202/7/6
f 1202/7/6 1194/7/6 1203/7/6
f 1195/7/6 1196/7/6 1206/7/6
f 1206/7/6 1196/7/6 1207/7/6
f 1199/7/6 1200/7/6 1209/7/6
f 1197/7/6 1198/7/6 1209/7/6
f 1198/7/6 1199/7/6 1209/7/6
f 1209/7/6 1200/7/6 1210/7/6
f 1210/7/6 1200/7/6 1211/7/6
f 1211/7/6 1200/7/6 1212/7/6
f 1203/7/6 1204/7/6 1213/7/6
f 1201/7/6 1202/7/6 1213/7/6
f 1202/7/6 1203/7/6 1213/7/6
f 1213/7/6 1204/7/6 1214/7/6
f 1214/7/6 1204/7/6 1215/7/6
f 1215/7/6 1204/7/6 1216/7/6
f 1206/7/6 1207/7/6 1217/7/6
f 1207/7/6 1208/7/6 1217/7/6
f 1205/7/6 1206/7/6 1217/7/6
f 1217/7/6 1208/7/6 1218/7/6
f 1218/7/6 1208/7/6 1219/7/6
f 1219/7/6 1208/7/6 1220/7/6
f 1210/7/6 1211/7/6 1221/7/6
f 1221/7/6 1211/7/6 1222/7/6
f 1214/7/6 1215/7/6 1223/7/6
f 1223/7/6 1215/7/6 1224/7/6
f 1218/7/6 1219/7/6 1225/7/6
f 1225/7/6 1219/7/6 1226/7/6
f 1227/7/6 1228/7/6 1232/7/6
f 1232/7/6 1228/7/6 1233/7/6
f 1229/7/6 1230/7/6 1236/7/6
f 1236/7/6 1230/7/6 1237/7/6
f 1233/7/6 1234/7/6 1241/7/6
f 1231/7/6 1232/7/6 1241/7/6
f 1232/7/6 1233/7/6 1241/7/6
f 1241/7/6 1234/7/6 1242/7/6
f 1231/7/6 1241/7/6 1243/7/6
f 1243/7/6 1241/7/6 1244/7/6
f 1242/7/6 1234/7/6 1245/7/6
f 1245/7/6 1234/7/6 1246/7/6
f 1246/7/6 1234/7/6 1248/7/6
f 1231/7/6 1243/7/6 1249/7/6
f 1247/7/6 1248/7/6 1250/7/6
f 1231/7/6 1249/7/6 1251/7/6
f 1249/7/6 1250/7/6 1251/7/6
f 1251/7/6 1250/7/6 1252/7/6
f 1250/7/6 1248/7/6 1253/7/6
f 1252/7/6 1250/7/6 1253/7/6
f 1248/7/6 1234/7/6 1253/7/6
f 1253/7/6 1234/7/6 1254/7/6
f 1237/7/6 1238/7/6 1255/7/6
f 1236/7/6 1237/7/6 1255/7/6
f 1235/7/6 1236/7/6 1255/7/6
f 1255/7/6 1238/7/6 1256/7/6
f 1256/7/6 1238/7/6 1257/7/6
f 1257/7/6 1238/7/6 1258/7/6
f 1239/1/6 1240/1/6 1259/1/6
f 1259/1/6 1240/1/6 1260/1/6
f 1252/7/6 1253/7/6 1261/7/6
f 1261/7/6 1253/7/6 1262/7/6
f 1256/7/6 1257/7/6 1263/7/6
f 1263/7/6 1257/7/6 1264/7/6
f 1265/1/6 1266/1/6 1270/1/6
f 1270/1/6 1266/1/6 1271/1/6
f 1267/1/6 1268/1/6 1274/1/6
f 1274/1/6 1268/1/6 1275/1/6
f 1271/1/6 1272/1/6 1276/1/6
f 1269/1/6 1270/1/6 1276/1/6
f 1270/1/6 1271/1/6 1276/1/6
f 1276/1/6 1272/1/6 1277/1/6
f 1277/1/6 1272/1/6 1278/1/6
f 1278/1/6 1272/1/6 1279/1/6
f 1275/1/6 1268/1/6 1282/1/6
f 1282/1/6 1268/1/6 1283/1/6
f 1280/1/6 1281/1/6 1284/1/6
f 1284/1/6 1281/1/6 1285/1/6
f 1273/1/6 1274/1/6 1288/1/6
f 1283/1/6 1268/1/6 1291/1/6
f 1286/1/6 1287/1/6 1293/1/6
f 1293/1/6 1287/1/6 1294/1/6
f 1269/1/6 1276/1/6 1296/1/6
f 1277/1/6 1278/1/6 1297/1/6
f 1297/1/6 1278/1/6 1298/1/6
f 1279/1/6 1272/1/6 1299/1/6
f 1288/1/6 1289/1/6 1300/1/6
f 1273/1/6 1288/1/6 1300/1/6
f 1300/1/6 1289/1/6 1301/1/6
f 1290/1/6 1291/1/6 1302/1/6
f 1291/1/6 1268/1/6 1303/1/6
f 1302/1/6 1291/1/6 1303/1/6
f 1273/1/6 1300/1/6 1304/1/6
f 1303/1/6 1268/1/6 1307/1/6
f 1292/1/6 1293/1/6 1308/1/6
f 1308/1/6 1293/1/6 1309/1/6
f 1294/1/6 1295/1/6 1310/1/6
f 1310/1/6 1295/1/6 1311/1/6
f 1304/1/6 1305/1/6 1312/1/6
f 1273/1/6 1304/1/6 1312/1/6
f 1312/1/6 1305/1/6 1313/1/6
f 1306/1/6 1307/1/6 1314/1/6
f 1314/1/6 1307/1/6 1315/1/6
f 1309/1/6 1310/1/6 1316/1/6
f 1316/1/6 1310/1/6 1317/1/6
f 1298/1/6 1299/1/6 1318/1/6
f 1269/1/6 1296/1/6 1318/1/6
f 1297/1/6 1298/1/6 1318/1/6
f 1296/1/6 1297/1/6 1318/1/6
f 1318/1/6 1299/1/6 1319/1/6
f 1319/1/6 1299/1/6 1320/1/6
f 1299/1/6 1272/1/6 1321/1/6
f 1320/1/6 1299/1/6 1321/1/6
f 1273/1/6 1312/1/6 1322/1/6
f 1315/1/6 1307/1/6 1323/1/6
f 1307/1/6 1268/1/6 1324/1/6
f 1323/1/6 1307/1/6 1324/1/6
f 1324/1/6 1268/1/6 1325/1/6
f 1322/1/6 1323/1/6 1328/1/6
f 1323/1/6 1324/1/6 1328/1/6
f 1328/1/6 1324/1/6 1329/1/6
f 1326/1/6 1327/1/6 1330/1/6
f 1330/1/6 1327/1/6 1331/1/6
f 1269/1/6 1318/1/6 1332/1/6
f 1332/1/6 1318/1/6 1333/1/6
f 1333/1/6 1318/1/6 1334/1/6
f 1319/1/6 1320/1/6 1335/1/6
f 1335/1/6 1320/1/6 1336/1/6
f 1321/1/6 1272/1/6 1337/1/6
f 1337/1/6 1272/1/6 1338/1/6
f 1338/1/6 1272/1/6 1339/1/6
f 1273/1/6 1322/1/6 1340/1/6
f 1322/1/6 1328/1/6 1340/1/6
f 1340/1/6 1328/1/6 1341/1/6
f 1333/1/6 1334/1/6 1342/1/6
f 1335/1/6 1336/1/6 1342/1/6
f 1336/1/6 1337/1/6 1342/1/6
f 1337/1/6 1338/1/6 1342/1/6
f 1334/1/6 1335/1/6 1342/1/6
f 1342/1/6 1338/1/6 1343/1/6
f 1344/1/6 1345/1/6 1348/1/6
f 1348/1/6 1345/1/6 1349/1/6
f 1346/1/6 1347/1/6 1350/1/6
f 1350/1/6 1347/1/6 1351/1/6
f 1346/1/6 1350/1/6 1353/1/6
f 1351/1/6 1347/1/6 1354/1/6
f 1352/1/6 1353/1/6 1356/1/6
f 1353/1/6 1350/1/6 1357/1/6
f 1356/1/6 1353/1/6 1357/1/6
f 1354/1/6 1355/1/6 1358/1/6
f 1351/1/6 1354/1/6 1358/1/6
f 1358/1/6 1355/1/6 1359/1/6
f 1359/1/6 1355/1/6 1361/1/6
f 1360/1/6 1361/1/6 1362/1/6
f 1361/1/6 1355/1/6 1363/1/6
f 1362/1/6 1361/1/6 1363/1/6
f 1352/1/6 1356/1/6 1364/1/6
f 1360/1/6 1362/1/6 1365/1/6
f 1352/1/6 1364/1/6 1366/1/6
f 1364/1/6 1365/1/6 1366/1/6
f 1365/1/6 1362/1/6 1367/1/6
f 1366/1/6 1365/1/6 1367/1/6
f 1368/10/6 1369/10/6 1370/10/6
f 1370/10/6 1369/10/6 1371/10/6
f 1371/10/6 1369/10/6 1372/10/6
f 1368/10/6 1370/10/6 1374/10/6
f 1372/10/6 1373/10/6 1375/10/6
f 1371/10/6 1372/10/6 1375/10/6
f 1368/10/6 1374/10/6 1376/10/6
f 1374/10/6 1375/10/6 1376/10/6
f 1376/10/6 1375/10/6 1377/10/6
f 1375/10/6 1373/10/6 1378/10/6
f 1377/10/6 1375/10/6 1378/10/6
f 1378/10/6 1373/10/6 1379/10/6
f 1377/10/6 1378/10/6 1383/10/6
f 1383/10/6 1378/10/6 1384/10/6
f 1382/10/6 1383/10/6 1386/10/6
f 1384/10/6 1385/10/6 1386/10/6
f 1383/10/6 1384/10/6 1386/10/6
f 1386/10/6 1385/10/6 1387/10/6
f 1387/10/6 1385/10/6 1388/10/6
f 1388/10/6 1385/10/6 1389/10/6
f 1380/9/6 1381/9/6 1390/9/6
f 1390/9/6 1381/9/6 1391/9/6
f 1387/10/6 1388/10/6 1393/10/6
f 1393/10/6 1388/10/6 1394/10/6
f 1392/10/6 1393/10/6 1396/10/6
f 1394/10/6 1395/10/6 1396/10/6
f 1393/10/6 1394/10/6 1396/10/6
f 1396/10/6 1395/10/6 1397/10/6
f 1398/1/6 1399/1/6 1400/1/6
f 1398/1/6 1400/1/6 1403/1/6
f 1400/1/6 1401/1/6 1403/1/6
f 1403/1/6 1401/1/6 1404/1/6
f 1404/1/6 1401/1/6 1405/1/6
f 1402/1/6 1403/1/6 1408/1/6
f 1403/1/6 1404/1/6 1408/1/6
f 1408/1/6 1404/1/6 1409/1/6
f 1406/9/6 1407/9/6 1411/9/6
f 1411/9/6 1407/9/6 1412/9/6
f 1410/9/6 1411/9/6 1414/9/6
f 1412/9/6 1413/9/6 1414/9/6
f 1411/9/6 1412/9/6 1414/9/6
f 1414/9/6 1413/9/6 1415/9/6
f 1402/1/6 1408/1/6 1416/1/6
f 1402/1/6 1416/1/6 1417/1/6
f 1410/9/6 1414/9/6 1418/9/6
f 1418/9/6 1414/9/6 1419/9/6
f 1402/1/6 1417/1/6 1420/1/6
f 1420/1/6 1417/1/6 1421/1/6
f 1422/9/6 1423/9/6 1424/9/6
f 1424/9/6 1423/9/6 1425/9/6
f 1426/9/6 1427/9/6 1428/9/6
f 1428/9/6 1427/9/6 1429/9/6
f 1426/9/6 1428/9/6 1431/9/6
f 1430/9/6 1431/9/6 1432/9/6
f 1431/9/6 1428/9/6 1433/9/6
f 1432/9/6 1431/9/6 1433/9/6
f 1429/9/6 1427/9/6 1435/9/6
f 1430/9/6 1432/9/6 1436/9/6
f 1434/9/6 1435/9/6 1437/9/6
f 1435/9/6 1427/9/6 1438/9/6
f 1437/9/6 1435/9/6 1438/9/6
f 1438/9/6 1427/9/6 1439/9/6
f 1430/9/6 1436/9/6 1440/9/6
f 1436/9/6 1437/9/6 1440/9/6
f 1437/9/6 1438/9/6 1440/9/6
f 1440/9/6 1438/9/6 1441/9/6
f 1442/9/6 1443/9/6 1445/9/6
f 1445/9/6 1443/9/6 1446/9/6
f 1444/9/6 1445/9/6 1446/9/6
f 1446/9/6 1443/9/6 1447/9/6
f 1444/9/6 1446/9/6 1448/9/6
f 1448/9/6 1446/9/6 1449/9/6
f 1450/12/6 1451/12/6 1452/12/6
f 1452/12/6 1451/12/6 1453/12/6
f 1454/9/6 1455/9/6 1460/9/6
f 1456/9/6 1457/9/6 1461/9/6
f 1461/9/6 1457/9/6 1462/9/6
f 1458/9/6 1459/9/6 1463/9/6
f 1461/9/6 1462/9/6 1464/9/6
f 1462/9/6 1463/9/6 1464/9/6
f 1454/9/6 1460/9/6 1464/9/6
f 1460/9/6 1461/9/6 1464/9/6
f 1463/9/6 1459/9/6 1465/9/6
f 1464/9/6 1463/9/6 1465/9/6
f 1466/9/6 1467/9/6 1470/9/6
f 1470/9/6 1467/9/6 1471/9/6
f 1468/9/6 1469/9/6 1472/9/6
f 1472/9/6 1469/9/6 1473/9/6
